<?plantuml 1.2026.2?><svg xmlns="http://www.w3.org/2000/svg" xmlns:xlink="http://www.w3.org/1999/xlink" contentStyleType="text/css" data-diagram-type="SEQUENCE" height="1362px" preserveAspectRatio="none" style="width:1164px;height:1362px;background:#FFFFFF;" version="1.1" viewBox="0 0 1164 1362" width="1164px" zoomAndPan="magnify"><title>Use Case 1: Logging In</title><defs/><g><text fill="#000000" font-family="sans-serif" font-size="14" font-weight="bold" lengthAdjust="spacing" textLength="180.127" x="488.2793" y="27.9951">Use Case 1: Logging In</text><rect fill="none" height="163.6016" style="stroke:#000000;stroke-width:1.5;" width="595.7539" x="185.4268" y="266.125"/><rect fill="none" height="607.3359" style="stroke:#000000;stroke-width:1.5;" width="1117.6855" x="20" y="657.7891"/><rect fill="none" height="90.2031" style="stroke:#000000;stroke-width:1.5;" width="383.877" x="185.4268" y="1136.7891"/><rect fill="none" height="17.1328" style="stroke:#000000;stroke-width:1.5;" width="91.9517" x="30" y="1240.9922"/><g class="participant-lifeline" data-entity-uid="part1" data-qualified-name="User" id="part1-lifeline"><g><title>User</title><rect fill="#000000" fill-opacity="0.00000" height="1163.5313" width="8" x="34.9551" y="118.5938"/><line style="stroke:#181818;stroke-width:0.5;stroke-dasharray:5,5;" x1="38" x2="38" y1="118.5938" y2="1282.125"/></g></g><g class="participant-lifeline" data-entity-uid="part2" data-qualified-name="GUI" id="part2-lifeline"><g><title>Client GUI</title><rect fill="#000000" fill-opacity="0.00000" height="1163.5313" width="8" x="229.5293" y="118.5938"/><line style="stroke:#181818;stroke-width:0.5;stroke-dasharray:5,5;" x1="233.4268" x2="233.4268" y1="118.5938" y2="1282.125"/></g></g><g class="participant-lifeline" data-entity-uid="part3" data-qualified-name="Client" id="part3-lifeline"><g><title>Client App</title><rect fill="#000000" fill-opacity="0.00000" height="1163.5313" width="8" x="516.1382" y="118.5938"/><line style="stroke:#181818;stroke-width:0.5;stroke-dasharray:5,5;" x1="519.9727" x2="519.9727" y1="118.5938" y2="1282.125"/></g></g><g class="participant-lifeline" data-entity-uid="part4" data-qualified-name="Server" id="part4-lifeline"><g><title>Server</title><rect fill="#000000" fill-opacity="0.00000" height="1163.5313" width="8" x="741.2256" y="118.5938"/><line style="stroke:#181818;stroke-width:0.5;stroke-dasharray:5,5;" x1="744.2705" x2="744.2705" y1="118.5938" y2="1282.125"/></g></g><g class="participant-lifeline" data-entity-uid="part5" data-qualified-name="Cache" id="part5-lifeline"><g><title>Server Cache</title><rect fill="#000000" fill-opacity="0.00000" height="1163.5313" width="8" x="988.1489" y="118.5938"/><line style="stroke:#181818;stroke-width:0.5;stroke-dasharray:5,5;" x1="991.6123" x2="991.6123" y1="118.5938" y2="1282.125"/></g></g><g class="participant participant-head" data-entity-uid="part1" data-qualified-name="User" id="part1-head"><text fill="#000000" font-family="sans-serif" font-size="14" lengthAdjust="spacing" textLength="31.9102" x="20" y="115.292">User</text><ellipse cx="38.9551" cy="50.7969" fill="#E2E2F0" rx="8" ry="8" style="stroke:#181818;stroke-width:0.5;"/><path d="M38.9551,58.7969 L38.9551,85.7969 M25.9551,66.7969 L51.9551,66.7969 M38.9551,85.7969 L25.9551,100.7969 M38.9551,85.7969 L51.9551,100.7969" fill="none" style="stroke:#181818;stroke-width:0.5;"/></g><g class="participant participant-tail" data-entity-uid="part1" data-qualified-name="User" id="part1-tail"><text fill="#000000" font-family="sans-serif" font-size="14" lengthAdjust="spacing" textLength="31.9102" x="20" y="1294.1201">User</text><ellipse cx="38.9551" cy="1305.9219" fill="#E2E2F0" rx="8" ry="8" style="stroke:#181818;stroke-width:0.5;"/><path d="M38.9551,1313.9219 L38.9551,1340.9219 M25.9551,1321.9219 L51.9551,1321.9219 M38.9551,1340.9219 L25.9551,1355.9219 M38.9551,1340.9219 L51.9551,1355.9219" fill="none" style="stroke:#181818;stroke-width:0.5;"/></g><g class="participant participant-head" data-entity-uid="part2" data-qualified-name="GUI" id="part2-head"><text fill="#000000" font-family="sans-serif" font-size="14" lengthAdjust="spacing" textLength="70.2051" x="195.4268" y="115.292">Client GUI</text><path d="M213.0293,74.2969 L213.0293,98.2969 M213.0293,86.2969 L230.0293,86.2969" fill="none" style="stroke:#181818;stroke-width:0.5;"/><ellipse cx="242.0293" cy="86.2969" fill="#E2E2F0" rx="12" ry="12" style="stroke:#181818;stroke-width:0.5;"/></g><g class="participant participant-tail" data-entity-uid="part2" data-qualified-name="GUI" id="part2-tail"><text fill="#000000" font-family="sans-serif" font-size="14" lengthAdjust="spacing" textLength="70.2051" x="195.4268" y="1294.1201">Client GUI</text><path d="M213.0293,1301.4219 L213.0293,1325.4219 M213.0293,1313.4219 L230.0293,1313.4219" fill="none" style="stroke:#181818;stroke-width:0.5;"/><ellipse cx="242.0293" cy="1313.4219" fill="#E2E2F0" rx="12" ry="12" style="stroke:#181818;stroke-width:0.5;"/></g><g class="participant participant-head" data-entity-uid="part3" data-qualified-name="Client" id="part3-head"><text fill="#000000" font-family="sans-serif" font-size="14" lengthAdjust="spacing" textLength="72.3311" x="480.9727" y="115.292">Client App</text><ellipse cx="520.1382" cy="86.2969" fill="#E2E2F0" rx="12" ry="12" style="stroke:#181818;stroke-width:0.5;"/><polygon fill="#181818" points="516.1382,74.2969,522.1382,69.2969,520.1382,74.2969,522.1382,79.2969,516.1382,74.2969" style="stroke:#181818;stroke-width:1;"/></g><g class="participant participant-tail" data-entity-uid="part3" data-qualified-name="Client" id="part3-tail"><text fill="#000000" font-family="sans-serif" font-size="14" lengthAdjust="spacing" textLength="72.3311" x="480.9727" y="1294.1201">Client App</text><ellipse cx="520.1382" cy="1313.4219" fill="#E2E2F0" rx="12" ry="12" style="stroke:#181818;stroke-width:0.5;"/><polygon fill="#181818" points="516.1382,1301.4219,522.1382,1296.4219,520.1382,1301.4219,522.1382,1306.4219,516.1382,1301.4219" style="stroke:#181818;stroke-width:1;"/></g><g class="participant participant-head" data-entity-uid="part4" data-qualified-name="Server" id="part4-head"><text fill="#000000" font-family="sans-serif" font-size="14" lengthAdjust="spacing" textLength="45.9102" x="719.2705" y="115.292">Server</text><ellipse cx="745.2256" cy="86.2969" fill="#E2E2F0" rx="12" ry="12" style="stroke:#181818;stroke-width:0.5;"/><polygon fill="#181818" points="741.2256,74.2969,747.2256,69.2969,745.2256,74.2969,747.2256,79.2969,741.2256,74.2969" style="stroke:#181818;stroke-width:1;"/></g><g class="participant participant-tail" data-entity-uid="part4" data-qualified-name="Server" id="part4-tail"><text fill="#000000" font-family="sans-serif" font-size="14" lengthAdjust="spacing" textLength="45.9102" x="719.2705" y="1294.1201">Server</text><ellipse cx="745.2256" cy="1313.4219" fill="#E2E2F0" rx="12" ry="12" style="stroke:#181818;stroke-width:0.5;"/><polygon fill="#181818" points="741.2256,1301.4219,747.2256,1296.4219,745.2256,1301.4219,747.2256,1306.4219,741.2256,1301.4219" style="stroke:#181818;stroke-width:1;"/></g><g class="participant participant-head" data-entity-uid="part5" data-qualified-name="Cache" id="part5-head"><rect fill="#E2E2F0" height="46.5938" style="stroke:#181818;stroke-width:0.5;" width="267.0732" x="860.6123" y="67"/><rect fill="#E2E2F0" height="46.5938" style="stroke:#181818;stroke-width:0.5;" width="267.0732" x="856.6123" y="71"/><text fill="#000000" font-family="sans-serif" font-size="14" lengthAdjust="spacing" textLength="93.8984" x="943.1997" y="90.9951">Server Cache</text><text fill="#000000" font-family="sans-serif" font-size="14" lengthAdjust="spacing" textLength="253.0732" x="863.6123" y="107.292">(User data + Conversation headers)</text></g><g class="participant participant-tail" data-entity-uid="part5" data-qualified-name="Cache" id="part5-tail"><rect fill="#E2E2F0" height="46.5938" style="stroke:#181818;stroke-width:0.5;" width="267.0732" x="860.6123" y="1281.125"/><rect fill="#E2E2F0" height="46.5938" style="stroke:#181818;stroke-width:0.5;" width="267.0732" x="856.6123" y="1285.125"/><text fill="#000000" font-family="sans-serif" font-size="14" lengthAdjust="spacing" textLength="93.8984" x="943.1997" y="1305.1201">Server Cache</text><text fill="#000000" font-family="sans-serif" font-size="14" lengthAdjust="spacing" textLength="253.0732" x="863.6123" y="1321.417">(User data + Conversation headers)</text></g><rect fill="#EEEEEE" height="3" style="stroke:#EEEEEE;stroke-width:1;" width="1157.6855" x="0" y="149.1602"/><line style="stroke:#000000;stroke-width:1;" x1="0" x2="1157.6855" y1="149.1602" y2="149.1602"/><line style="stroke:#000000;stroke-width:1;" x1="0" x2="1157.6855" y1="152.1602" y2="152.1602"/><rect fill="#EEEEEE" height="23.1328" style="stroke:#000000;stroke-width:2;" width="74.0615" x="541.812" y="138.5938"/><text fill="#000000" font-family="sans-serif" font-size="13" font-weight="bold" lengthAdjust="spacing" textLength="55.5356" x="547.812" y="154.6606">Startup</text><g class="message" data-entity-1="part1" data-entity-2="part2" id="msg1"><polygon fill="#181818" points="221.5293,188.8594,231.5293,192.8594,221.5293,196.8594,225.5293,192.8594" style="stroke:#181818;stroke-width:1;"/><line style="stroke:#181818;stroke-width:1;" x1="38.9551" x2="227.5293" y1="192.8594" y2="192.8594"/><text fill="#000000" font-family="sans-serif" font-size="13" lengthAdjust="spacing" textLength="94.6309" x="45.9551" y="187.7935">Open program</text></g><g class="message" data-entity-1="part2" data-entity-2="part3" id="msg2"><polygon fill="#181818" points="508.1382,217.9922,518.1382,221.9922,508.1382,225.9922,512.1382,221.9922" style="stroke:#181818;stroke-width:1;"/><line style="stroke:#181818;stroke-width:1;" x1="233.5293" x2="514.1382" y1="221.9922" y2="221.9922"/><text fill="#000000" font-family="sans-serif" font-size="13" lengthAdjust="spacing" textLength="113.9023" x="240.5293" y="216.9263">Launch / initialize</text></g><g class="message" data-entity-1="part3" data-entity-2="part4" id="msg3"><polygon fill="#181818" points="733.2256,247.125,743.2256,251.125,733.2256,255.125,737.2256,251.125" style="stroke:#181818;stroke-width:1;"/><line style="stroke:#181818;stroke-width:1;" x1="520.1382" x2="739.2256" y1="251.125" y2="251.125"/><text fill="#000000" font-family="sans-serif" font-size="13" lengthAdjust="spacing" textLength="63.8955" x="527.1382" y="246.0591">Connect()</text></g><path d="M185.4268,266.125 L249.8696,266.125 L249.8696,273.2578 L239.8696,283.2578 L185.4268,283.2578 L185.4268,266.125" fill="#EEEEEE" style="stroke:#000000;stroke-width:1.5;"/><rect fill="none" height="163.6016" style="stroke:#000000;stroke-width:1.5;" width="595.7539" x="185.4268" y="266.125"/><text fill="#000000" font-family="sans-serif" font-size="13" font-weight="bold" lengthAdjust="spacing" textLength="19.4429" x="200.4268" y="279.1919">alt</text><text fill="#000000" font-family="sans-serif" font-size="11" font-weight="bold" lengthAdjust="spacing" textLength="166.7993" x="264.8696" y="278.3354">[Cannot connect to server]</text><g class="message" data-entity-1="part4" data-entity-2="part3" id="msg4"><polygon fill="#181818" points="531.1382,300.3906,521.1382,304.3906,531.1382,308.3906,527.1382,304.3906" style="stroke:#181818;stroke-width:1;"/><line style="stroke:#181818;stroke-width:1;stroke-dasharray:2,2;" x1="525.1382" x2="744.2256" y1="304.3906" y2="304.3906"/><text fill="#000000" font-family="sans-serif" font-size="13" lengthAdjust="spacing" textLength="113.7056" x="537.1382" y="299.3247">Connection failed</text></g><g class="message" data-entity-1="part3" data-entity-2="part2" id="msg5"><polygon fill="#181818" points="244.5293,344.6563,234.5293,348.6563,244.5293,352.6563,240.5293,348.6563" style="stroke:#181818;stroke-width:1;"/><line style="stroke:#181818;stroke-width:1;" x1="238.5293" x2="519.1382" y1="348.6563" y2="348.6563"/><text fill="#000000" font-family="sans-serif" font-size="13" lengthAdjust="spacing" textLength="133.7515" x="250.5293" y="328.4575">Show error message</text><text fill="#000000" font-family="sans-serif" font-size="13" lengthAdjust="spacing" textLength="176.9536" x="250.5293" y="343.5903">"Cannot connect to server"</text></g><line style="stroke:#000000;stroke-width:1;stroke-dasharray:2,2;" x1="185.4268" x2="781.1807" y1="357.6563" y2="357.6563"/><text fill="#000000" font-family="sans-serif" font-size="11" font-weight="bold" lengthAdjust="spacing" textLength="75.9204" x="190.4268" y="367.8667">[Connected]</text><g class="message" data-entity-1="part4" data-entity-2="part3" id="msg6"><polygon fill="#181818" points="531.1382,388.5938,521.1382,392.5938,531.1382,396.5938,527.1382,392.5938" style="stroke:#181818;stroke-width:1;"/><line style="stroke:#181818;stroke-width:1;stroke-dasharray:2,2;" x1="525.1382" x2="744.2256" y1="392.5938" y2="392.5938"/><text fill="#000000" font-family="sans-serif" font-size="13" lengthAdjust="spacing" textLength="152.2612" x="537.1382" y="387.5278">Connection established</text></g><g class="message" data-entity-1="part3" data-entity-2="part2" id="msg7"><polygon fill="#181818" points="244.5293,417.7266,234.5293,421.7266,244.5293,425.7266,240.5293,421.7266" style="stroke:#181818;stroke-width:1;"/><line style="stroke:#181818;stroke-width:1;" x1="238.5293" x2="519.1382" y1="421.7266" y2="421.7266"/><text fill="#000000" font-family="sans-serif" font-size="13" lengthAdjust="spacing" textLength="123.5381" x="250.5293" y="416.6606">Display Login Page</text></g><rect fill="#EEEEEE" height="3" style="stroke:#EEEEEE;stroke-width:1;" width="1157.6855" x="0" y="457.293"/><line style="stroke:#000000;stroke-width:1;" x1="0" x2="1157.6855" y1="457.293" y2="457.293"/><line style="stroke:#000000;stroke-width:1;" x1="0" x2="1157.6855" y1="460.293" y2="460.293"/><rect fill="#EEEEEE" height="23.1328" style="stroke:#000000;stroke-width:2;" width="127.3882" x="515.1487" y="446.7266"/><text fill="#000000" font-family="sans-serif" font-size="13" font-weight="bold" lengthAdjust="spacing" textLength="108.8623" x="521.1487" y="462.7935">Authentication</text><g class="message" data-entity-1="part1" data-entity-2="part2" id="msg8"><polygon fill="#181818" points="221.5293,536.2578,231.5293,540.2578,221.5293,544.2578,225.5293,540.2578" style="stroke:#181818;stroke-width:1;"/><line style="stroke:#181818;stroke-width:1;" x1="38.9551" x2="227.5293" y1="540.2578" y2="540.2578"/><text fill="#000000" font-family="sans-serif" font-size="13" lengthAdjust="spacing" textLength="170.5742" x="45.9551" y="520.0591">Enter username/password</text><text fill="#000000" font-family="sans-serif" font-size="13" lengthAdjust="spacing" textLength="82.3672" x="45.9551" y="535.1919">Click "Login"</text></g><g class="message" data-entity-1="part2" data-entity-2="part3" id="msg9"><polygon fill="#181818" points="508.1382,565.3906,518.1382,569.3906,508.1382,573.3906,512.1382,569.3906" style="stroke:#181818;stroke-width:1;"/><line style="stroke:#181818;stroke-width:1;" x1="233.5293" x2="514.1382" y1="569.3906" y2="569.3906"/><text fill="#000000" font-family="sans-serif" font-size="13" lengthAdjust="spacing" textLength="122.2876" x="240.5293" y="564.3247">Submit credentials</text></g><g class="message" data-entity-1="part3" data-entity-2="part4" id="msg10"><polygon fill="#181818" points="733.2256,594.5234,743.2256,598.5234,733.2256,602.5234,737.2256,598.5234" style="stroke:#181818;stroke-width:1;"/><line style="stroke:#181818;stroke-width:1;" x1="520.1382" x2="739.2256" y1="598.5234" y2="598.5234"/><text fill="#000000" font-family="sans-serif" font-size="13" lengthAdjust="spacing" textLength="165.8071" x="527.1382" y="593.4575">Authenticate(credentials)</text></g><g class="message" data-entity-1="part4" data-entity-2="part5" id="msg11"><polygon fill="#181818" points="980.1489,638.7891,990.1489,642.7891,980.1489,646.7891,984.1489,642.7891" style="stroke:#181818;stroke-width:1;"/><line style="stroke:#181818;stroke-width:1;" x1="745.2256" x2="986.1489" y1="642.7891" y2="642.7891"/><text fill="#000000" font-family="sans-serif" font-size="13" lengthAdjust="spacing" textLength="114.2896" x="752.2256" y="622.5903">Verify credentials</text><text fill="#000000" font-family="sans-serif" font-size="13" lengthAdjust="spacing" textLength="177.0425" x="752.2256" y="637.7231">(username/password hash)</text></g><path d="M20,657.7891 L84.4429,657.7891 L84.4429,664.9219 L74.4429,674.9219 L20,674.9219 L20,657.7891" fill="#EEEEEE" style="stroke:#000000;stroke-width:1.5;"/><rect fill="none" height="607.3359" style="stroke:#000000;stroke-width:1.5;" width="1117.6855" x="20" y="657.7891"/><text fill="#000000" font-family="sans-serif" font-size="13" font-weight="bold" lengthAdjust="spacing" textLength="19.4429" x="35" y="670.856">alt</text><text fill="#000000" font-family="sans-serif" font-size="11" font-weight="bold" lengthAdjust="spacing" textLength="125.1572" x="99.4429" y="669.9995">[Invalid credentials]</text><g class="message" data-entity-1="part5" data-entity-2="part4" id="msg12"><polygon fill="#181818" points="756.2256,692.0547,746.2256,696.0547,756.2256,700.0547,752.2256,696.0547" style="stroke:#181818;stroke-width:1;"/><line style="stroke:#181818;stroke-width:1;stroke-dasharray:2,2;" x1="750.2256" x2="991.1489" y1="696.0547" y2="696.0547"/><text fill="#000000" font-family="sans-serif" font-size="13" lengthAdjust="spacing" textLength="184.6343" x="762.2256" y="690.9888">No match / invalid password</text></g><g class="message" data-entity-1="part4" data-entity-2="part3" id="msg13"><polygon fill="#181818" points="531.1382,721.1875,521.1382,725.1875,531.1382,729.1875,527.1382,725.1875" style="stroke:#181818;stroke-width:1;"/><line style="stroke:#181818;stroke-width:1;stroke-dasharray:2,2;" x1="525.1382" x2="744.2256" y1="725.1875" y2="725.1875"/><text fill="#000000" font-family="sans-serif" font-size="13" lengthAdjust="spacing" textLength="70.6177" x="537.1382" y="720.1216">Auth failed</text></g><g class="message" data-entity-1="part3" data-entity-2="part2" id="msg14"><polygon fill="#181818" points="244.5293,765.4531,234.5293,769.4531,244.5293,773.4531,240.5293,769.4531" style="stroke:#181818;stroke-width:1;"/><line style="stroke:#181818;stroke-width:1;" x1="238.5293" x2="519.1382" y1="769.4531" y2="769.4531"/><text fill="#000000" font-family="sans-serif" font-size="13" lengthAdjust="spacing" textLength="130.1777" x="250.5293" y="749.2544">Show "Invalid login"</text><text fill="#000000" font-family="sans-serif" font-size="13" lengthAdjust="spacing" textLength="70.313" x="250.5293" y="764.3872">Allow retry</text></g><line style="stroke:#000000;stroke-width:1;stroke-dasharray:2,2;" x1="20" x2="1137.6855" y1="778.4531" y2="778.4531"/><text fill="#000000" font-family="sans-serif" font-size="11" font-weight="bold" lengthAdjust="spacing" textLength="190.3838" x="25" y="788.6636">[Already Logged In Elsewhere]</text><g class="message" data-entity-1="part5" data-entity-2="part4" id="msg15"><polygon fill="#181818" points="756.2256,809.3906,746.2256,813.3906,756.2256,817.3906,752.2256,813.3906" style="stroke:#181818;stroke-width:1;"/><line style="stroke:#181818;stroke-width:1;stroke-dasharray:2,2;" x1="750.2256" x2="991.1489" y1="813.3906" y2="813.3906"/><text fill="#000000" font-family="sans-serif" font-size="13" lengthAdjust="spacing" textLength="213.459" x="762.2256" y="808.3247">User found, logged in flag is true</text></g><g class="message" data-entity-1="part4" data-entity-2="part3" id="msg16"><polygon fill="#181818" points="531.1382,838.5234,521.1382,842.5234,531.1382,846.5234,527.1382,842.5234" style="stroke:#181818;stroke-width:1;"/><line style="stroke:#181818;stroke-width:1;stroke-dasharray:2,2;" x1="525.1382" x2="744.2256" y1="842.5234" y2="842.5234"/><text fill="#000000" font-family="sans-serif" font-size="13" lengthAdjust="spacing" textLength="196.9805" x="537.1382" y="837.4575">Login failed, already logged in</text></g><g class="message" data-entity-1="part3" data-entity-2="part2" id="msg17"><polygon fill="#181818" points="244.5293,882.7891,234.5293,886.7891,244.5293,890.7891,240.5293,886.7891" style="stroke:#181818;stroke-width:1;"/><line style="stroke:#181818;stroke-width:1;" x1="238.5293" x2="519.1382" y1="886.7891" y2="886.7891"/><text fill="#000000" font-family="sans-serif" font-size="13" lengthAdjust="spacing" textLength="169.2158" x="250.5293" y="866.5903">Show "Already Logged In"</text><text fill="#000000" font-family="sans-serif" font-size="13" lengthAdjust="spacing" textLength="258.4766" x="254.6616" y="881.7231">Direct to logout elsewhere or contact IT</text></g><line style="stroke:#000000;stroke-width:1;stroke-dasharray:2,2;" x1="20" x2="1137.6855" y1="895.7891" y2="895.7891"/><text fill="#000000" font-family="sans-serif" font-size="11" font-weight="bold" lengthAdjust="spacing" textLength="114.5762" x="25" y="905.9995">[Valid credentials]</text><g class="message" data-entity-1="part5" data-entity-2="part4" id="msg18"><polygon fill="#181818" points="756.2256,926.7266,746.2256,930.7266,756.2256,934.7266,752.2256,930.7266" style="stroke:#181818;stroke-width:1;"/><line style="stroke:#181818;stroke-width:1;stroke-dasharray:2,2;" x1="750.2256" x2="991.1489" y1="930.7266" y2="930.7266"/><text fill="#000000" font-family="sans-serif" font-size="13" lengthAdjust="spacing" textLength="115.0894" x="762.2256" y="925.6606">User found + role</text></g><g class="message" data-entity-1="part4" data-entity-2="part5" id="msg19"><polygon fill="#181818" points="980.1489,955.8594,990.1489,959.8594,980.1489,963.8594,984.1489,959.8594" style="stroke:#181818;stroke-width:1;"/><line style="stroke:#181818;stroke-width:1;" x1="745.2256" x2="986.1489" y1="959.8594" y2="959.8594"/><text fill="#000000" font-family="sans-serif" font-size="13" lengthAdjust="spacing" textLength="134.5513" x="752.2256" y="954.7935">Get user profile data</text></g><g class="message" data-entity-1="part4" data-entity-2="part5" id="msg20"><polygon fill="#181818" points="980.1489,1000.125,990.1489,1004.125,980.1489,1008.125,984.1489,1004.125" style="stroke:#181818;stroke-width:1;"/><line style="stroke:#181818;stroke-width:1;" x1="745.2256" x2="986.1489" y1="1004.125" y2="1004.125"/><text fill="#000000" font-family="sans-serif" font-size="13" lengthAdjust="spacing" textLength="168.0225" x="752.2256" y="983.9263">Get conversation headers</text><text fill="#000000" font-family="sans-serif" font-size="13" lengthAdjust="spacing" textLength="215.4268" x="752.2256" y="999.0591">(conversation IDs + participants)</text></g><g class="message" data-entity-1="part5" data-entity-2="part4" id="msg21"><polygon fill="#181818" points="756.2256,1029.2578,746.2256,1033.2578,756.2256,1037.2578,752.2256,1033.2578" style="stroke:#181818;stroke-width:1;"/><line style="stroke:#181818;stroke-width:1;stroke-dasharray:2,2;" x1="750.2256" x2="991.1489" y1="1033.2578" y2="1033.2578"/><text fill="#000000" font-family="sans-serif" font-size="13" lengthAdjust="spacing" textLength="222.9233" x="762.2256" y="1028.1919">User data + conversation headers</text></g><g class="message" data-entity-1="part4" data-entity-2="part3" id="msg22"><polygon fill="#181818" points="531.1382,1073.5234,521.1382,1077.5234,531.1382,1081.5234,527.1382,1077.5234" style="stroke:#181818;stroke-width:1;"/><line style="stroke:#181818;stroke-width:1;stroke-dasharray:2,2;" x1="525.1382" x2="744.2256" y1="1077.5234" y2="1077.5234"/><text fill="#000000" font-family="sans-serif" font-size="13" lengthAdjust="spacing" textLength="85.4521" x="537.1382" y="1057.3247">Auth success</text><text fill="#000000" font-family="sans-serif" font-size="13" lengthAdjust="spacing" textLength="201.0874" x="537.1382" y="1072.4575">(user data, conv headers, role)</text></g><g class="message" data-entity-1="part3" data-entity-2="part2" id="msg23"><polygon fill="#181818" points="244.5293,1117.7891,234.5293,1121.7891,244.5293,1125.7891,240.5293,1121.7891" style="stroke:#181818;stroke-width:1;"/><line style="stroke:#181818;stroke-width:1;" x1="238.5293" x2="519.1382" y1="1121.7891" y2="1121.7891"/><text fill="#000000" font-family="sans-serif" font-size="13" lengthAdjust="spacing" textLength="97.3159" x="250.5293" y="1101.5903">Load user data</text><text fill="#000000" font-family="sans-serif" font-size="13" lengthAdjust="spacing" textLength="168.3335" x="250.5293" y="1116.7231">Populate conversation list</text></g><path d="M185.4268,1136.7891 L249.8696,1136.7891 L249.8696,1143.9219 L239.8696,1153.9219 L185.4268,1153.9219 L185.4268,1136.7891" fill="#EEEEEE" style="stroke:#000000;stroke-width:1.5;"/><rect fill="none" height="90.2031" style="stroke:#000000;stroke-width:1.5;" width="383.877" x="185.4268" y="1136.7891"/><text fill="#000000" font-family="sans-serif" font-size="13" font-weight="bold" lengthAdjust="spacing" textLength="19.4429" x="200.4268" y="1149.856">alt</text><text fill="#000000" font-family="sans-serif" font-size="11" font-weight="bold" lengthAdjust="spacing" textLength="89.4019" x="264.8696" y="1148.9995">[Regular user]</text><g class="message" data-entity-1="part3" data-entity-2="part2" id="msg24"><polygon fill="#181818" points="244.5293,1171.0547,234.5293,1175.0547,244.5293,1179.0547,240.5293,1175.0547" style="stroke:#181818;stroke-width:1;"/><line style="stroke:#181818;stroke-width:1;" x1="238.5293" x2="519.1382" y1="1175.0547" y2="1175.0547"/><text fill="#000000" font-family="sans-serif" font-size="13" lengthAdjust="spacing" textLength="146.3325" x="250.5293" y="1169.9888">Open Regular Mode UI</text></g><line style="stroke:#000000;stroke-width:1;stroke-dasharray:2,2;" x1="185.4268" x2="569.3037" y1="1184.0547" y2="1184.0547"/><text fill="#000000" font-family="sans-serif" font-size="11" font-weight="bold" lengthAdjust="spacing" textLength="52.7441" x="190.4268" y="1194.2651">[IT user]</text><g class="message" data-entity-1="part3" data-entity-2="part2" id="msg25"><polygon fill="#181818" points="244.5293,1214.9922,234.5293,1218.9922,244.5293,1222.9922,240.5293,1218.9922" style="stroke:#181818;stroke-width:1;"/><line style="stroke:#181818;stroke-width:1;" x1="238.5293" x2="519.1382" y1="1218.9922" y2="1218.9922"/><text fill="#000000" font-family="sans-serif" font-size="13" lengthAdjust="spacing" textLength="107.6626" x="250.5293" y="1213.9263">Open IT Mode UI</text></g><path d="M30,1240.9922 L116.9517,1240.9922 L116.9517,1248.125 L106.9517,1258.125 L30,1258.125 L30,1240.9922" fill="#EEEEEE" style="stroke:#000000;stroke-width:1.5;"/><rect fill="none" height="17.1328" style="stroke:#000000;stroke-width:1.5;" width="91.9517" x="30" y="1240.9922"/><text fill="#000000" font-family="sans-serif" font-size="13" font-weight="bold" lengthAdjust="spacing" textLength="41.9517" x="45" y="1254.0591">break</text><?plantuml-src ZLLDJ-Cm4BtxLunoejeYjDTAHQe0eKZiBje2frwcpZInSEt8TgYwltx7TWgXJH67LibylfbvCmagQ89dJt23_FTp1W-shfMfeJH2e0pMHQqJQzkP2jqUxfzBG0_5ZLPaGdmjXBGcEAkXbmtKYxRzK2_9lP5BwlmOLLgJ3CeQpmXaGmDj5gpCHGG05GQ47t1Z3QiyHXTe22j-cHH2pEUm3EX2ry9yBfB7vNL4DuC_BHbedQqTRaM4pueCZwl5piW6ha0P5HHgzOz43vsjCevPJ6eOvSM4Mw83upB61f1P2i62JuQYntqvID2xHhGRL9ggGVY4RjdO7P1ptEWjUOyrLroSor08qd5MMSx1liv8Fk1QAz-SfhrLljMuZ-DM1XuvhI1JfJukkj2mgPAvoTnERMqBpopIyCOzga0wgg89QWyCl8ljbcWae_lS-piJAEiDRkcgHUztrbKhmt3aAnGfVN4ybMMttgemp38ob05CkXYOyf0ENRdE59h12pcrsGy3CgrEK463lfca4PVcf52H-NavWF3RmXP3pv_iS8WrDfc8-2iM58UiEdLbPHPQizXHSFiy-8LsJFaqjPegHWbtBDurv6W4Nfh49YxkD8QC7ZphZSOQb8VWEXf3cHcHOKu1-umV_kFGJv0nV2QPw-dBxhOBG0UqaJNnBF25WV8f5_VoZOv_bCItW6yAdSxwda8c9A_yXej8bsFSJ8uS4oR69t5vwpbLowT5ITMY2KomCxZw4pKMzImTV2SbhtrFnnHYcY8SFAUfJ2RrKTiVB5RmxhCoZxRjDA_2v_Iy_24VhRzKipxlud6iT24F1hzinL-4Ci-aV3hlmBftMpuTQoR0QthYtty0?></g></svg>