<?plantuml 1.2026.2?><svg xmlns="http://www.w3.org/2000/svg" xmlns:xlink="http://www.w3.org/1999/xlink" contentStyleType="text/css" data-diagram-type="SEQUENCE" height="1347px" preserveAspectRatio="none" style="width:1251px;height:1347px;background:#FFFFFF;" version="1.1" viewBox="0 0 1251 1347" width="1251px" zoomAndPan="magnify"><title>Use Case 1: Logging In</title><defs/><g><text fill="#000000" font-family="sans-serif" font-size="14" font-weight="bold" lengthAdjust="spacing" textLength="180.127" x="531.4846" y="27.9951">Use Case 1: Logging In</text><rect fill="none" height="163.6016" style="stroke:#000000;stroke-width:1.5;" width="682.1646" x="185.4268" y="266.125"/><rect fill="none" height="592.2031" style="stroke:#000000;stroke-width:1.5;" width="1204.0962" x="20" y="657.7891"/><rect fill="none" height="90.2031" style="stroke:#000000;stroke-width:1.5;" width="470.2876" x="185.4268" y="1121.6563"/><rect fill="none" height="17.1328" style="stroke:#000000;stroke-width:1.5;" width="91.9517" x="30" y="1225.8594"/><g class="participant-lifeline" data-entity-uid="part1" data-qualified-name="User" id="part1-lifeline"><g><title>User</title><rect fill="#000000" fill-opacity="0.00000" height="1148.3984" width="8" x="34.9551" y="118.5938"/><line style="stroke:#181818;stroke-width:0.5;stroke-dasharray:5,5;" x1="38" x2="38" y1="118.5938" y2="1266.9922"/></g></g><g class="participant-lifeline" data-entity-uid="part2" data-qualified-name="GUI" id="part2-lifeline"><g><title>Client GUI</title><rect fill="#000000" fill-opacity="0.00000" height="1148.3984" width="8" x="229.5293" y="118.5938"/><line style="stroke:#181818;stroke-width:0.5;stroke-dasharray:5,5;" x1="233.4268" x2="233.4268" y1="118.5938" y2="1266.9922"/></g></g><g class="participant-lifeline" data-entity-uid="part3" data-qualified-name="Client" id="part3-lifeline"><g><title>Client App</title><rect fill="#000000" fill-opacity="0.00000" height="1148.3984" width="8" x="602.5488" y="118.5938"/><line style="stroke:#181818;stroke-width:0.5;stroke-dasharray:5,5;" x1="606.3833" x2="606.3833" y1="118.5938" y2="1266.9922"/></g></g><g class="participant-lifeline" data-entity-uid="part4" data-qualified-name="Server" id="part4-lifeline"><g><title>Server</title><rect fill="#000000" fill-opacity="0.00000" height="1148.3984" width="8" x="827.6362" y="118.5938"/><line style="stroke:#181818;stroke-width:0.5;stroke-dasharray:5,5;" x1="830.6812" x2="830.6812" y1="118.5938" y2="1266.9922"/></g></g><g class="participant-lifeline" data-entity-uid="part5" data-qualified-name="Cache" id="part5-lifeline"><g><title>Server Cache</title><rect fill="#000000" fill-opacity="0.00000" height="1148.3984" width="8" x="1074.5596" y="118.5938"/><line style="stroke:#181818;stroke-width:0.5;stroke-dasharray:5,5;" x1="1078.0229" x2="1078.0229" y1="118.5938" y2="1266.9922"/></g></g><g class="participant participant-head" data-entity-uid="part1" data-qualified-name="User" id="part1-head"><text fill="#000000" font-family="sans-serif" font-size="14" lengthAdjust="spacing" textLength="31.9102" x="20" y="115.292">User</text><ellipse cx="38.9551" cy="50.7969" fill="#E2E2F0" rx="8" ry="8" style="stroke:#181818;stroke-width:0.5;"/><path d="M38.9551,58.7969 L38.9551,85.7969 M25.9551,66.7969 L51.9551,66.7969 M38.9551,85.7969 L25.9551,100.7969 M38.9551,85.7969 L51.9551,100.7969" fill="none" style="stroke:#181818;stroke-width:0.5;"/></g><g class="participant participant-tail" data-entity-uid="part1" data-qualified-name="User" id="part1-tail"><text fill="#000000" font-family="sans-serif" font-size="14" lengthAdjust="spacing" textLength="31.9102" x="20" y="1278.9873">User</text><ellipse cx="38.9551" cy="1290.7891" fill="#E2E2F0" rx="8" ry="8" style="stroke:#181818;stroke-width:0.5;"/><path d="M38.9551,1298.7891 L38.9551,1325.7891 M25.9551,1306.7891 L51.9551,1306.7891 M38.9551,1325.7891 L25.9551,1340.7891 M38.9551,1325.7891 L51.9551,1340.7891" fill="none" style="stroke:#181818;stroke-width:0.5;"/></g><g class="participant participant-head" data-entity-uid="part2" data-qualified-name="GUI" id="part2-head"><text fill="#000000" font-family="sans-serif" font-size="14" lengthAdjust="spacing" textLength="70.2051" x="195.4268" y="115.292">Client GUI</text><path d="M213.0293,74.2969 L213.0293,98.2969 M213.0293,86.2969 L230.0293,86.2969" fill="none" style="stroke:#181818;stroke-width:0.5;"/><ellipse cx="242.0293" cy="86.2969" fill="#E2E2F0" rx="12" ry="12" style="stroke:#181818;stroke-width:0.5;"/></g><g class="participant participant-tail" data-entity-uid="part2" data-qualified-name="GUI" id="part2-tail"><text fill="#000000" font-family="sans-serif" font-size="14" lengthAdjust="spacing" textLength="70.2051" x="195.4268" y="1278.9873">Client GUI</text><path d="M213.0293,1286.2891 L213.0293,1310.2891 M213.0293,1298.2891 L230.0293,1298.2891" fill="none" style="stroke:#181818;stroke-width:0.5;"/><ellipse cx="242.0293" cy="1298.2891" fill="#E2E2F0" rx="12" ry="12" style="stroke:#181818;stroke-width:0.5;"/></g><g class="participant participant-head" data-entity-uid="part3" data-qualified-name="Client" id="part3-head"><text fill="#000000" font-family="sans-serif" font-size="14" lengthAdjust="spacing" textLength="72.3311" x="567.3833" y="115.292">Client App</text><ellipse cx="606.5488" cy="86.2969" fill="#E2E2F0" rx="12" ry="12" style="stroke:#181818;stroke-width:0.5;"/><polygon fill="#181818" points="602.5488,74.2969,608.5488,69.2969,606.5488,74.2969,608.5488,79.2969,602.5488,74.2969" style="stroke:#181818;stroke-width:1;"/></g><g class="participant participant-tail" data-entity-uid="part3" data-qualified-name="Client" id="part3-tail"><text fill="#000000" font-family="sans-serif" font-size="14" lengthAdjust="spacing" textLength="72.3311" x="567.3833" y="1278.9873">Client App</text><ellipse cx="606.5488" cy="1298.2891" fill="#E2E2F0" rx="12" ry="12" style="stroke:#181818;stroke-width:0.5;"/><polygon fill="#181818" points="602.5488,1286.2891,608.5488,1281.2891,606.5488,1286.2891,608.5488,1291.2891,602.5488,1286.2891" style="stroke:#181818;stroke-width:1;"/></g><g class="participant participant-head" data-entity-uid="part4" data-qualified-name="Server" id="part4-head"><text fill="#000000" font-family="sans-serif" font-size="14" lengthAdjust="spacing" textLength="45.9102" x="805.6812" y="115.292">Server</text><ellipse cx="831.6362" cy="86.2969" fill="#E2E2F0" rx="12" ry="12" style="stroke:#181818;stroke-width:0.5;"/><polygon fill="#181818" points="827.6362,74.2969,833.6362,69.2969,831.6362,74.2969,833.6362,79.2969,827.6362,74.2969" style="stroke:#181818;stroke-width:1;"/></g><g class="participant participant-tail" data-entity-uid="part4" data-qualified-name="Server" id="part4-tail"><text fill="#000000" font-family="sans-serif" font-size="14" lengthAdjust="spacing" textLength="45.9102" x="805.6812" y="1278.9873">Server</text><ellipse cx="831.6362" cy="1298.2891" fill="#E2E2F0" rx="12" ry="12" style="stroke:#181818;stroke-width:0.5;"/><polygon fill="#181818" points="827.6362,1286.2891,833.6362,1281.2891,831.6362,1286.2891,833.6362,1291.2891,827.6362,1286.2891" style="stroke:#181818;stroke-width:1;"/></g><g class="participant participant-head" data-entity-uid="part5" data-qualified-name="Cache" id="part5-head"><rect fill="#E2E2F0" height="46.5938" style="stroke:#181818;stroke-width:0.5;" width="267.0732" x="947.0229" y="67"/><rect fill="#E2E2F0" height="46.5938" style="stroke:#181818;stroke-width:0.5;" width="267.0732" x="943.0229" y="71"/><text fill="#000000" font-family="sans-serif" font-size="14" lengthAdjust="spacing" textLength="93.8984" x="1029.6104" y="90.9951">Server Cache</text><text fill="#000000" font-family="sans-serif" font-size="14" lengthAdjust="spacing" textLength="253.0732" x="950.0229" y="107.292">(User data + Conversation headers)</text></g><g class="participant participant-tail" data-entity-uid="part5" data-qualified-name="Cache" id="part5-tail"><rect fill="#E2E2F0" height="46.5938" style="stroke:#181818;stroke-width:0.5;" width="267.0732" x="947.0229" y="1265.9922"/><rect fill="#E2E2F0" height="46.5938" style="stroke:#181818;stroke-width:0.5;" width="267.0732" x="943.0229" y="1269.9922"/><text fill="#000000" font-family="sans-serif" font-size="14" lengthAdjust="spacing" textLength="93.8984" x="1029.6104" y="1289.9873">Server Cache</text><text fill="#000000" font-family="sans-serif" font-size="14" lengthAdjust="spacing" textLength="253.0732" x="950.0229" y="1306.2842">(User data + Conversation headers)</text></g><rect fill="#EEEEEE" height="3" style="stroke:#EEEEEE;stroke-width:1;" width="1244.0962" x="0" y="149.1602"/><line style="stroke:#000000;stroke-width:1;" x1="0" x2="1244.0962" y1="149.1602" y2="149.1602"/><line style="stroke:#000000;stroke-width:1;" x1="0" x2="1244.0962" y1="152.1602" y2="152.1602"/><rect fill="#EEEEEE" height="23.1328" style="stroke:#000000;stroke-width:2;" width="74.0615" x="585.0173" y="138.5938"/><text fill="#000000" font-family="sans-serif" font-size="13" font-weight="bold" lengthAdjust="spacing" textLength="55.5356" x="591.0173" y="154.6606">Startup</text><g class="message" data-entity-1="part1" data-entity-2="part2" id="msg1"><polygon fill="#181818" points="221.5293,188.8594,231.5293,192.8594,221.5293,196.8594,225.5293,192.8594" style="stroke:#181818;stroke-width:1;"/><line style="stroke:#181818;stroke-width:1;" x1="38.9551" x2="227.5293" y1="192.8594" y2="192.8594"/><text fill="#000000" font-family="sans-serif" font-size="13" lengthAdjust="spacing" textLength="94.6309" x="45.9551" y="187.7935">Open program</text></g><g class="message" data-entity-1="part2" data-entity-2="part3" id="msg2"><polygon fill="#181818" points="594.5488,217.9922,604.5488,221.9922,594.5488,225.9922,598.5488,221.9922" style="stroke:#181818;stroke-width:1;"/><line style="stroke:#181818;stroke-width:1;" x1="233.5293" x2="600.5488" y1="221.9922" y2="221.9922"/><text fill="#000000" font-family="sans-serif" font-size="13" lengthAdjust="spacing" textLength="113.9023" x="240.5293" y="216.9263">Launch / initialize</text></g><g class="message" data-entity-1="part3" data-entity-2="part4" id="msg3"><polygon fill="#181818" points="819.6362,247.125,829.6362,251.125,819.6362,255.125,823.6362,251.125" style="stroke:#181818;stroke-width:1;"/><line style="stroke:#181818;stroke-width:1;" x1="606.5488" x2="825.6362" y1="251.125" y2="251.125"/><text fill="#000000" font-family="sans-serif" font-size="13" lengthAdjust="spacing" textLength="63.8955" x="613.5488" y="246.0591">Connect()</text></g><path d="M185.4268,266.125 L249.8696,266.125 L249.8696,273.2578 L239.8696,283.2578 L185.4268,283.2578 L185.4268,266.125" fill="#EEEEEE" style="stroke:#000000;stroke-width:1.5;"/><rect fill="none" height="163.6016" style="stroke:#000000;stroke-width:1.5;" width="682.1646" x="185.4268" y="266.125"/><text fill="#000000" font-family="sans-serif" font-size="13" font-weight="bold" lengthAdjust="spacing" textLength="19.4429" x="200.4268" y="279.1919">alt</text><text fill="#000000" font-family="sans-serif" font-size="11" font-weight="bold" lengthAdjust="spacing" textLength="166.7993" x="264.8696" y="278.3354">[Cannot connect to server]</text><g class="message" data-entity-1="part4" data-entity-2="part3" id="msg4"><polygon fill="#181818" points="617.5488,300.3906,607.5488,304.3906,617.5488,308.3906,613.5488,304.3906" style="stroke:#181818;stroke-width:1;"/><line style="stroke:#181818;stroke-width:1;stroke-dasharray:2,2;" x1="611.5488" x2="830.6362" y1="304.3906" y2="304.3906"/><text fill="#000000" font-family="sans-serif" font-size="13" lengthAdjust="spacing" textLength="113.7056" x="623.5488" y="299.3247">Connection failed</text></g><g class="message" data-entity-1="part3" data-entity-2="part2" id="msg5"><polygon fill="#181818" points="244.5293,344.6563,234.5293,348.6563,244.5293,352.6563,240.5293,348.6563" style="stroke:#181818;stroke-width:1;"/><line style="stroke:#181818;stroke-width:1;" x1="238.5293" x2="605.5488" y1="348.6563" y2="348.6563"/><text fill="#000000" font-family="sans-serif" font-size="13" lengthAdjust="spacing" textLength="133.7515" x="250.5293" y="328.4575">Show error message</text><text fill="#000000" font-family="sans-serif" font-size="13" lengthAdjust="spacing" textLength="176.9536" x="250.5293" y="343.5903">"Cannot connect to server"</text></g><line style="stroke:#000000;stroke-width:1;stroke-dasharray:2,2;" x1="185.4268" x2="867.5913" y1="357.6563" y2="357.6563"/><text fill="#000000" font-family="sans-serif" font-size="11" font-weight="bold" lengthAdjust="spacing" textLength="75.9204" x="190.4268" y="367.8667">[Connected]</text><g class="message" data-entity-1="part4" data-entity-2="part3" id="msg6"><polygon fill="#181818" points="617.5488,388.5938,607.5488,392.5938,617.5488,396.5938,613.5488,392.5938" style="stroke:#181818;stroke-width:1;"/><line style="stroke:#181818;stroke-width:1;stroke-dasharray:2,2;" x1="611.5488" x2="830.6362" y1="392.5938" y2="392.5938"/><text fill="#000000" font-family="sans-serif" font-size="13" lengthAdjust="spacing" textLength="152.2612" x="623.5488" y="387.5278">Connection established</text></g><g class="message" data-entity-1="part3" data-entity-2="part2" id="msg7"><polygon fill="#181818" points="244.5293,417.7266,234.5293,421.7266,244.5293,425.7266,240.5293,421.7266" style="stroke:#181818;stroke-width:1;"/><line style="stroke:#181818;stroke-width:1;" x1="238.5293" x2="605.5488" y1="421.7266" y2="421.7266"/><text fill="#000000" font-family="sans-serif" font-size="13" lengthAdjust="spacing" textLength="123.5381" x="250.5293" y="416.6606">Display Login Page</text></g><rect fill="#EEEEEE" height="3" style="stroke:#EEEEEE;stroke-width:1;" width="1244.0962" x="0" y="457.293"/><line style="stroke:#000000;stroke-width:1;" x1="0" x2="1244.0962" y1="457.293" y2="457.293"/><line style="stroke:#000000;stroke-width:1;" x1="0" x2="1244.0962" y1="460.293" y2="460.293"/><rect fill="#EEEEEE" height="23.1328" style="stroke:#000000;stroke-width:2;" width="127.3882" x="558.354" y="446.7266"/><text fill="#000000" font-family="sans-serif" font-size="13" font-weight="bold" lengthAdjust="spacing" textLength="108.8623" x="564.354" y="462.7935">Authentication</text><g class="message" data-entity-1="part1" data-entity-2="part2" id="msg8"><polygon fill="#181818" points="221.5293,536.2578,231.5293,540.2578,221.5293,544.2578,225.5293,540.2578" style="stroke:#181818;stroke-width:1;"/><line style="stroke:#181818;stroke-width:1;" x1="38.9551" x2="227.5293" y1="540.2578" y2="540.2578"/><text fill="#000000" font-family="sans-serif" font-size="13" lengthAdjust="spacing" textLength="170.5742" x="45.9551" y="520.0591">Enter username/password</text><text fill="#000000" font-family="sans-serif" font-size="13" lengthAdjust="spacing" textLength="82.3672" x="45.9551" y="535.1919">Click "Login"</text></g><g class="message" data-entity-1="part2" data-entity-2="part3" id="msg9"><polygon fill="#181818" points="594.5488,565.3906,604.5488,569.3906,594.5488,573.3906,598.5488,569.3906" style="stroke:#181818;stroke-width:1;"/><line style="stroke:#181818;stroke-width:1;" x1="233.5293" x2="600.5488" y1="569.3906" y2="569.3906"/><text fill="#000000" font-family="sans-serif" font-size="13" lengthAdjust="spacing" textLength="122.2876" x="240.5293" y="564.3247">Submit credentials</text></g><g class="message" data-entity-1="part3" data-entity-2="part4" id="msg10"><polygon fill="#181818" points="819.6362,594.5234,829.6362,598.5234,819.6362,602.5234,823.6362,598.5234" style="stroke:#181818;stroke-width:1;"/><line style="stroke:#181818;stroke-width:1;" x1="606.5488" x2="825.6362" y1="598.5234" y2="598.5234"/><text fill="#000000" font-family="sans-serif" font-size="13" lengthAdjust="spacing" textLength="165.8071" x="613.5488" y="593.4575">Authenticate(credentials)</text></g><g class="message" data-entity-1="part4" data-entity-2="part5" id="msg11"><polygon fill="#181818" points="1066.5596,638.7891,1076.5596,642.7891,1066.5596,646.7891,1070.5596,642.7891" style="stroke:#181818;stroke-width:1;"/><line style="stroke:#181818;stroke-width:1;" x1="831.6362" x2="1072.5596" y1="642.7891" y2="642.7891"/><text fill="#000000" font-family="sans-serif" font-size="13" lengthAdjust="spacing" textLength="114.2896" x="838.6362" y="622.5903">Verify credentials</text><text fill="#000000" font-family="sans-serif" font-size="13" lengthAdjust="spacing" textLength="177.0425" x="838.6362" y="637.7231">(username/password hash)</text></g><path d="M20,657.7891 L84.4429,657.7891 L84.4429,664.9219 L74.4429,674.9219 L20,674.9219 L20,657.7891" fill="#EEEEEE" style="stroke:#000000;stroke-width:1.5;"/><rect fill="none" height="592.2031" style="stroke:#000000;stroke-width:1.5;" width="1204.0962" x="20" y="657.7891"/><text fill="#000000" font-family="sans-serif" font-size="13" font-weight="bold" lengthAdjust="spacing" textLength="19.4429" x="35" y="670.856">alt</text><text fill="#000000" font-family="sans-serif" font-size="11" font-weight="bold" lengthAdjust="spacing" textLength="125.1572" x="99.4429" y="669.9995">[Invalid credentials]</text><g class="message" data-entity-1="part5" data-entity-2="part4" id="msg12"><polygon fill="#181818" points="842.6362,692.0547,832.6362,696.0547,842.6362,700.0547,838.6362,696.0547" style="stroke:#181818;stroke-width:1;"/><line style="stroke:#181818;stroke-width:1;stroke-dasharray:2,2;" x1="836.6362" x2="1077.5596" y1="696.0547" y2="696.0547"/><text fill="#000000" font-family="sans-serif" font-size="13" lengthAdjust="spacing" textLength="184.6343" x="848.6362" y="690.9888">No match / invalid password</text></g><g class="message" data-entity-1="part4" data-entity-2="part3" id="msg13"><polygon fill="#181818" points="617.5488,721.1875,607.5488,725.1875,617.5488,729.1875,613.5488,725.1875" style="stroke:#181818;stroke-width:1;"/><line style="stroke:#181818;stroke-width:1;stroke-dasharray:2,2;" x1="611.5488" x2="830.6362" y1="725.1875" y2="725.1875"/><text fill="#000000" font-family="sans-serif" font-size="13" lengthAdjust="spacing" textLength="70.6177" x="623.5488" y="720.1216">Auth failed</text></g><g class="message" data-entity-1="part3" data-entity-2="part2" id="msg14"><polygon fill="#181818" points="244.5293,765.4531,234.5293,769.4531,244.5293,773.4531,240.5293,769.4531" style="stroke:#181818;stroke-width:1;"/><line style="stroke:#181818;stroke-width:1;" x1="238.5293" x2="605.5488" y1="769.4531" y2="769.4531"/><text fill="#000000" font-family="sans-serif" font-size="13" lengthAdjust="spacing" textLength="130.1777" x="250.5293" y="749.2544">Show "Invalid login"</text><text fill="#000000" font-family="sans-serif" font-size="13" lengthAdjust="spacing" textLength="70.313" x="250.5293" y="764.3872">Allow retry</text></g><line style="stroke:#000000;stroke-width:1;stroke-dasharray:2,2;" x1="20" x2="1224.0962" y1="778.4531" y2="778.4531"/><text fill="#000000" font-family="sans-serif" font-size="11" font-weight="bold" lengthAdjust="spacing" textLength="190.3838" x="25" y="788.6636">[Already Logged In Elsewhere]</text><g class="message" data-entity-1="part5" data-entity-2="part4" id="msg15"><polygon fill="#181818" points="842.6362,809.3906,832.6362,813.3906,842.6362,817.3906,838.6362,813.3906" style="stroke:#181818;stroke-width:1;"/><line style="stroke:#181818;stroke-width:1;stroke-dasharray:2,2;" x1="836.6362" x2="1077.5596" y1="813.3906" y2="813.3906"/><text fill="#000000" font-family="sans-serif" font-size="13" lengthAdjust="spacing" textLength="213.459" x="848.6362" y="808.3247">User found, logged in flag is true</text></g><g class="message" data-entity-1="part4" data-entity-2="part3" id="msg16"><polygon fill="#181818" points="617.5488,838.5234,607.5488,842.5234,617.5488,846.5234,613.5488,842.5234" style="stroke:#181818;stroke-width:1;"/><line style="stroke:#181818;stroke-width:1;stroke-dasharray:2,2;" x1="611.5488" x2="830.6362" y1="842.5234" y2="842.5234"/><text fill="#000000" font-family="sans-serif" font-size="13" lengthAdjust="spacing" textLength="196.9805" x="623.5488" y="837.4575">Login failed, already logged in</text></g><g class="message" data-entity-1="part3" data-entity-2="part2" id="msg17"><polygon fill="#181818" points="244.5293,867.6563,234.5293,871.6563,244.5293,875.6563,240.5293,871.6563" style="stroke:#181818;stroke-width:1;"/><line style="stroke:#181818;stroke-width:1;stroke-dasharray:2,2;" x1="238.5293" x2="605.5488" y1="871.6563" y2="871.6563"/><text fill="#000000" font-family="sans-serif" font-size="13" lengthAdjust="spacing" textLength="349.0195" x="250.5293" y="866.5903">Display error, direct to logout elsewhere or contact IT</text></g><line style="stroke:#000000;stroke-width:1;stroke-dasharray:2,2;" x1="20" x2="1224.0962" y1="880.6563" y2="880.6563"/><text fill="#000000" font-family="sans-serif" font-size="11" font-weight="bold" lengthAdjust="spacing" textLength="114.5762" x="25" y="890.8667">[Valid credentials]</text><g class="message" data-entity-1="part5" data-entity-2="part4" id="msg18"><polygon fill="#181818" points="842.6362,911.5938,832.6362,915.5938,842.6362,919.5938,838.6362,915.5938" style="stroke:#181818;stroke-width:1;"/><line style="stroke:#181818;stroke-width:1;stroke-dasharray:2,2;" x1="836.6362" x2="1077.5596" y1="915.5938" y2="915.5938"/><text fill="#000000" font-family="sans-serif" font-size="13" lengthAdjust="spacing" textLength="115.0894" x="848.6362" y="910.5278">User found + role</text></g><g class="message" data-entity-1="part4" data-entity-2="part5" id="msg19"><polygon fill="#181818" points="1066.5596,940.7266,1076.5596,944.7266,1066.5596,948.7266,1070.5596,944.7266" style="stroke:#181818;stroke-width:1;"/><line style="stroke:#181818;stroke-width:1;" x1="831.6362" x2="1072.5596" y1="944.7266" y2="944.7266"/><text fill="#000000" font-family="sans-serif" font-size="13" lengthAdjust="spacing" textLength="134.5513" x="838.6362" y="939.6606">Get user profile data</text></g><g class="message" data-entity-1="part4" data-entity-2="part5" id="msg20"><polygon fill="#181818" points="1066.5596,984.9922,1076.5596,988.9922,1066.5596,992.9922,1070.5596,988.9922" style="stroke:#181818;stroke-width:1;"/><line style="stroke:#181818;stroke-width:1;" x1="831.6362" x2="1072.5596" y1="988.9922" y2="988.9922"/><text fill="#000000" font-family="sans-serif" font-size="13" lengthAdjust="spacing" textLength="168.0225" x="838.6362" y="968.7935">Get conversation headers</text><text fill="#000000" font-family="sans-serif" font-size="13" lengthAdjust="spacing" textLength="215.4268" x="838.6362" y="983.9263">(conversation IDs + participants)</text></g><g class="message" data-entity-1="part5" data-entity-2="part4" id="msg21"><polygon fill="#181818" points="842.6362,1014.125,832.6362,1018.125,842.6362,1022.125,838.6362,1018.125" style="stroke:#181818;stroke-width:1;"/><line style="stroke:#181818;stroke-width:1;stroke-dasharray:2,2;" x1="836.6362" x2="1077.5596" y1="1018.125" y2="1018.125"/><text fill="#000000" font-family="sans-serif" font-size="13" lengthAdjust="spacing" textLength="222.9233" x="848.6362" y="1013.0591">User data + conversation headers</text></g><g class="message" data-entity-1="part4" data-entity-2="part3" id="msg22"><polygon fill="#181818" points="617.5488,1058.3906,607.5488,1062.3906,617.5488,1066.3906,613.5488,1062.3906" style="stroke:#181818;stroke-width:1;"/><line style="stroke:#181818;stroke-width:1;stroke-dasharray:2,2;" x1="611.5488" x2="830.6362" y1="1062.3906" y2="1062.3906"/><text fill="#000000" font-family="sans-serif" font-size="13" lengthAdjust="spacing" textLength="85.4521" x="623.5488" y="1042.1919">Auth success</text><text fill="#000000" font-family="sans-serif" font-size="13" lengthAdjust="spacing" textLength="201.0874" x="623.5488" y="1057.3247">(user data, conv headers, role)</text></g><g class="message" data-entity-1="part3" data-entity-2="part2" id="msg23"><polygon fill="#181818" points="244.5293,1102.6563,234.5293,1106.6563,244.5293,1110.6563,240.5293,1106.6563" style="stroke:#181818;stroke-width:1;"/><line style="stroke:#181818;stroke-width:1;" x1="238.5293" x2="605.5488" y1="1106.6563" y2="1106.6563"/><text fill="#000000" font-family="sans-serif" font-size="13" lengthAdjust="spacing" textLength="97.3159" x="250.5293" y="1086.4575">Load user data</text><text fill="#000000" font-family="sans-serif" font-size="13" lengthAdjust="spacing" textLength="168.3335" x="250.5293" y="1101.5903">Populate conversation list</text></g><path d="M185.4268,1121.6563 L249.8696,1121.6563 L249.8696,1128.7891 L239.8696,1138.7891 L185.4268,1138.7891 L185.4268,1121.6563" fill="#EEEEEE" style="stroke:#000000;stroke-width:1.5;"/><rect fill="none" height="90.2031" style="stroke:#000000;stroke-width:1.5;" width="470.2876" x="185.4268" y="1121.6563"/><text fill="#000000" font-family="sans-serif" font-size="13" font-weight="bold" lengthAdjust="spacing" textLength="19.4429" x="200.4268" y="1134.7231">alt</text><text fill="#000000" font-family="sans-serif" font-size="11" font-weight="bold" lengthAdjust="spacing" textLength="89.4019" x="264.8696" y="1133.8667">[Regular user]</text><g class="message" data-entity-1="part3" data-entity-2="part2" id="msg24"><polygon fill="#181818" points="244.5293,1155.9219,234.5293,1159.9219,244.5293,1163.9219,240.5293,1159.9219" style="stroke:#181818;stroke-width:1;"/><line style="stroke:#181818;stroke-width:1;" x1="238.5293" x2="605.5488" y1="1159.9219" y2="1159.9219"/><text fill="#000000" font-family="sans-serif" font-size="13" lengthAdjust="spacing" textLength="146.3325" x="250.5293" y="1154.856">Open Regular Mode UI</text></g><line style="stroke:#000000;stroke-width:1;stroke-dasharray:2,2;" x1="185.4268" x2="655.7144" y1="1168.9219" y2="1168.9219"/><text fill="#000000" font-family="sans-serif" font-size="11" font-weight="bold" lengthAdjust="spacing" textLength="52.7441" x="190.4268" y="1179.1323">[IT user]</text><g class="message" data-entity-1="part3" data-entity-2="part2" id="msg25"><polygon fill="#181818" points="244.5293,1199.8594,234.5293,1203.8594,244.5293,1207.8594,240.5293,1203.8594" style="stroke:#181818;stroke-width:1;"/><line style="stroke:#181818;stroke-width:1;" x1="238.5293" x2="605.5488" y1="1203.8594" y2="1203.8594"/><text fill="#000000" font-family="sans-serif" font-size="13" lengthAdjust="spacing" textLength="107.6626" x="250.5293" y="1198.7935">Open IT Mode UI</text></g><path d="M30,1225.8594 L116.9517,1225.8594 L116.9517,1232.9922 L106.9517,1242.9922 L30,1242.9922 L30,1225.8594" fill="#EEEEEE" style="stroke:#000000;stroke-width:1.5;"/><rect fill="none" height="17.1328" style="stroke:#000000;stroke-width:1.5;" width="91.9517" x="30" y="1225.8594"/><text fill="#000000" font-family="sans-serif" font-size="13" font-weight="bold" lengthAdjust="spacing" textLength="41.9517" x="45" y="1238.9263">break</text><?plantuml-src ZLLDJ-Cm4BtxLuno0cqHsckb8bM0K2Hs5sqffrwcpZInSEt8TgYwltx7TWgXJH67LibyFizxdWGLDC7I4zmY__sSmgEjQsLgA8qGA8DrqUl4sdQcGhU7XsK9wA6urOfCYA-5aDO4PpNqje5xthOVxWMvDtB9dH-ZIskIGLdZ6O5iQE3DXfMvY02Wme3m0swjOPV7c08DOSKlbuKGinai0hhGjJ2RYPHnTHFHJU5FImPQPsk7Mn7XioF3uzDYPsG3rw2C2Wgr-aUYXyvH6SSqDZMCykAIHw83upB61f3P2i62Ju6YntqrQD2dHhGRL9ggGVc4Rj7O7P1pFEWjUOyrdxWurw4Gf2DNsSx5lkv8Fk1QAz-SjhrJljMuZtGh0q_SLf2fqXpdNMWuLCayP1wdjhQ59PiqlF6CAf2EgXY2sWC3x-Au9Hh9w3xF_ju4odw3MxfkqVkTTTNAC1pv2aLgNnopikZMMnM6NKP86S2aYq4eatIOoasMq1HUoAdDVbYGPNM22XhqpMMYk3Gd1nLPdrS32ByjR37q-ia9XrfZp4J4NwcWE7JLQIehCzUQpOw2ssVYvzgnv1DhDLMC4kxPl6l8qGYynCGcNjn9B1apcEkDnXgKX-0w6aEP5P5XJW3xZX_vxz2FfPH4F85AkLwpd6Ex07I06AKITm6l5IYVyubUlZ7cZtFm0k15GgS4Fr38AkHxlc7aQLsCXycH3S9g-6GkxpotQdcVAAbQD85LTGPNlvV6gfxLWE-avBlUQp2LcAGAXyn9EYOh-KWcZnOhUCzPcIVRTfhr_xazt_YGDzLVgjcVB-1nhRGM3m6_RCMVWJ9pKZwVJs3VUoplYpMhupKzyUy_?></g></svg>