<?plantuml 1.2026.2?><svg xmlns="http://www.w3.org/2000/svg" xmlns:xlink="http://www.w3.org/1999/xlink" contentStyleType="text/css" data-diagram-type="SEQUENCE" height="1245px" preserveAspectRatio="none" style="width:1079px;height:1245px;background:#FFFFFF;" version="1.1" viewBox="0 0 1079 1245" width="1079px" zoomAndPan="magnify"><title>Use Case 1: Logging In</title><defs/><g><text fill="#000000" font-family="sans-serif" font-size="14" font-weight="bold" lengthAdjust="spacing" textLength="180.127" x="445.4517" y="27.9951">Use Case 1: Logging In</text><rect fill="none" height="163.6016" style="stroke:#000000;stroke-width:1.5;" width="510.0986" x="185.4268" y="266.125"/><rect fill="none" height="490" style="stroke:#000000;stroke-width:1.5;" width="1032.0303" x="20" y="657.7891"/><rect fill="none" height="90.2031" style="stroke:#000000;stroke-width:1.5;" width="298.2217" x="185.4268" y="1019.4531"/><rect fill="none" height="17.1328" style="stroke:#000000;stroke-width:1.5;" width="91.9517" x="30" y="1123.6563"/><g class="participant-lifeline" data-entity-uid="part1" data-qualified-name="User" id="part1-lifeline"><g><title>User</title><rect fill="#000000" fill-opacity="0.00000" height="1046.1953" width="8" x="34.9551" y="118.5938"/><line style="stroke:#181818;stroke-width:0.5;stroke-dasharray:5,5;" x1="38" x2="38" y1="118.5938" y2="1164.7891"/></g></g><g class="participant-lifeline" data-entity-uid="part2" data-qualified-name="GUI" id="part2-lifeline"><g><title>Client GUI</title><rect fill="#000000" fill-opacity="0.00000" height="1046.1953" width="8" x="229.5293" y="118.5938"/><line style="stroke:#181818;stroke-width:0.5;stroke-dasharray:5,5;" x1="233.4268" x2="233.4268" y1="118.5938" y2="1164.7891"/></g></g><g class="participant-lifeline" data-entity-uid="part3" data-qualified-name="Client" id="part3-lifeline"><g><title>Client App</title><rect fill="#000000" fill-opacity="0.00000" height="1046.1953" width="8" x="430.4829" y="118.5938"/><line style="stroke:#181818;stroke-width:0.5;stroke-dasharray:5,5;" x1="434.3174" x2="434.3174" y1="118.5938" y2="1164.7891"/></g></g><g class="participant-lifeline" data-entity-uid="part4" data-qualified-name="Server" id="part4-lifeline"><g><title>Server</title><rect fill="#000000" fill-opacity="0.00000" height="1046.1953" width="8" x="655.5703" y="118.5938"/><line style="stroke:#181818;stroke-width:0.5;stroke-dasharray:5,5;" x1="658.6152" x2="658.6152" y1="118.5938" y2="1164.7891"/></g></g><g class="participant-lifeline" data-entity-uid="part5" data-qualified-name="Cache" id="part5-lifeline"><g><title>Server Cache</title><rect fill="#000000" fill-opacity="0.00000" height="1046.1953" width="8" x="902.4937" y="118.5938"/><line style="stroke:#181818;stroke-width:0.5;stroke-dasharray:5,5;" x1="905.957" x2="905.957" y1="118.5938" y2="1164.7891"/></g></g><g class="participant participant-head" data-entity-uid="part1" data-qualified-name="User" id="part1-head"><text fill="#000000" font-family="sans-serif" font-size="14" lengthAdjust="spacing" textLength="31.9102" x="20" y="115.292">User</text><ellipse cx="38.9551" cy="50.7969" fill="#E2E2F0" rx="8" ry="8" style="stroke:#181818;stroke-width:0.5;"/><path d="M38.9551,58.7969 L38.9551,85.7969 M25.9551,66.7969 L51.9551,66.7969 M38.9551,85.7969 L25.9551,100.7969 M38.9551,85.7969 L51.9551,100.7969" fill="none" style="stroke:#181818;stroke-width:0.5;"/></g><g class="participant participant-tail" data-entity-uid="part1" data-qualified-name="User" id="part1-tail"><text fill="#000000" font-family="sans-serif" font-size="14" lengthAdjust="spacing" textLength="31.9102" x="20" y="1176.7842">User</text><ellipse cx="38.9551" cy="1188.5859" fill="#E2E2F0" rx="8" ry="8" style="stroke:#181818;stroke-width:0.5;"/><path d="M38.9551,1196.5859 L38.9551,1223.5859 M25.9551,1204.5859 L51.9551,1204.5859 M38.9551,1223.5859 L25.9551,1238.5859 M38.9551,1223.5859 L51.9551,1238.5859" fill="none" style="stroke:#181818;stroke-width:0.5;"/></g><g class="participant participant-head" data-entity-uid="part2" data-qualified-name="GUI" id="part2-head"><text fill="#000000" font-family="sans-serif" font-size="14" lengthAdjust="spacing" textLength="70.2051" x="195.4268" y="115.292">Client GUI</text><path d="M213.0293,74.2969 L213.0293,98.2969 M213.0293,86.2969 L230.0293,86.2969" fill="none" style="stroke:#181818;stroke-width:0.5;"/><ellipse cx="242.0293" cy="86.2969" fill="#E2E2F0" rx="12" ry="12" style="stroke:#181818;stroke-width:0.5;"/></g><g class="participant participant-tail" data-entity-uid="part2" data-qualified-name="GUI" id="part2-tail"><text fill="#000000" font-family="sans-serif" font-size="14" lengthAdjust="spacing" textLength="70.2051" x="195.4268" y="1176.7842">Client GUI</text><path d="M213.0293,1184.0859 L213.0293,1208.0859 M213.0293,1196.0859 L230.0293,1196.0859" fill="none" style="stroke:#181818;stroke-width:0.5;"/><ellipse cx="242.0293" cy="1196.0859" fill="#E2E2F0" rx="12" ry="12" style="stroke:#181818;stroke-width:0.5;"/></g><g class="participant participant-head" data-entity-uid="part3" data-qualified-name="Client" id="part3-head"><text fill="#000000" font-family="sans-serif" font-size="14" lengthAdjust="spacing" textLength="72.3311" x="395.3174" y="115.292">Client App</text><ellipse cx="434.4829" cy="86.2969" fill="#E2E2F0" rx="12" ry="12" style="stroke:#181818;stroke-width:0.5;"/><polygon fill="#181818" points="430.4829,74.2969,436.4829,69.2969,434.4829,74.2969,436.4829,79.2969,430.4829,74.2969" style="stroke:#181818;stroke-width:1;"/></g><g class="participant participant-tail" data-entity-uid="part3" data-qualified-name="Client" id="part3-tail"><text fill="#000000" font-family="sans-serif" font-size="14" lengthAdjust="spacing" textLength="72.3311" x="395.3174" y="1176.7842">Client App</text><ellipse cx="434.4829" cy="1196.0859" fill="#E2E2F0" rx="12" ry="12" style="stroke:#181818;stroke-width:0.5;"/><polygon fill="#181818" points="430.4829,1184.0859,436.4829,1179.0859,434.4829,1184.0859,436.4829,1189.0859,430.4829,1184.0859" style="stroke:#181818;stroke-width:1;"/></g><g class="participant participant-head" data-entity-uid="part4" data-qualified-name="Server" id="part4-head"><text fill="#000000" font-family="sans-serif" font-size="14" lengthAdjust="spacing" textLength="45.9102" x="633.6152" y="115.292">Server</text><ellipse cx="659.5703" cy="86.2969" fill="#E2E2F0" rx="12" ry="12" style="stroke:#181818;stroke-width:0.5;"/><polygon fill="#181818" points="655.5703,74.2969,661.5703,69.2969,659.5703,74.2969,661.5703,79.2969,655.5703,74.2969" style="stroke:#181818;stroke-width:1;"/></g><g class="participant participant-tail" data-entity-uid="part4" data-qualified-name="Server" id="part4-tail"><text fill="#000000" font-family="sans-serif" font-size="14" lengthAdjust="spacing" textLength="45.9102" x="633.6152" y="1176.7842">Server</text><ellipse cx="659.5703" cy="1196.0859" fill="#E2E2F0" rx="12" ry="12" style="stroke:#181818;stroke-width:0.5;"/><polygon fill="#181818" points="655.5703,1184.0859,661.5703,1179.0859,659.5703,1184.0859,661.5703,1189.0859,655.5703,1184.0859" style="stroke:#181818;stroke-width:1;"/></g><g class="participant participant-head" data-entity-uid="part5" data-qualified-name="Cache" id="part5-head"><rect fill="#E2E2F0" height="46.5938" style="stroke:#181818;stroke-width:0.5;" width="267.0732" x="774.957" y="67"/><rect fill="#E2E2F0" height="46.5938" style="stroke:#181818;stroke-width:0.5;" width="267.0732" x="770.957" y="71"/><text fill="#000000" font-family="sans-serif" font-size="14" lengthAdjust="spacing" textLength="93.8984" x="857.5444" y="90.9951">Server Cache</text><text fill="#000000" font-family="sans-serif" font-size="14" lengthAdjust="spacing" textLength="253.0732" x="777.957" y="107.292">(User data + Conversation headers)</text></g><g class="participant participant-tail" data-entity-uid="part5" data-qualified-name="Cache" id="part5-tail"><rect fill="#E2E2F0" height="46.5938" style="stroke:#181818;stroke-width:0.5;" width="267.0732" x="774.957" y="1163.7891"/><rect fill="#E2E2F0" height="46.5938" style="stroke:#181818;stroke-width:0.5;" width="267.0732" x="770.957" y="1167.7891"/><text fill="#000000" font-family="sans-serif" font-size="14" lengthAdjust="spacing" textLength="93.8984" x="857.5444" y="1187.7842">Server Cache</text><text fill="#000000" font-family="sans-serif" font-size="14" lengthAdjust="spacing" textLength="253.0732" x="777.957" y="1204.0811">(User data + Conversation headers)</text></g><rect fill="#EEEEEE" height="3" style="stroke:#EEEEEE;stroke-width:1;" width="1072.0303" x="0" y="149.1602"/><line style="stroke:#000000;stroke-width:1;" x1="0" x2="1072.0303" y1="149.1602" y2="149.1602"/><line style="stroke:#000000;stroke-width:1;" x1="0" x2="1072.0303" y1="152.1602" y2="152.1602"/><rect fill="#EEEEEE" height="23.1328" style="stroke:#000000;stroke-width:2;" width="74.0615" x="498.9844" y="138.5938"/><text fill="#000000" font-family="sans-serif" font-size="13" font-weight="bold" lengthAdjust="spacing" textLength="55.5356" x="504.9844" y="154.6606">Startup</text><g class="message" data-entity-1="part1" data-entity-2="part2" id="msg1"><polygon fill="#181818" points="221.5293,188.8594,231.5293,192.8594,221.5293,196.8594,225.5293,192.8594" style="stroke:#181818;stroke-width:1;"/><line style="stroke:#181818;stroke-width:1;" x1="38.9551" x2="227.5293" y1="192.8594" y2="192.8594"/><text fill="#000000" font-family="sans-serif" font-size="13" lengthAdjust="spacing" textLength="94.6309" x="45.9551" y="187.7935">Open program</text></g><g class="message" data-entity-1="part2" data-entity-2="part3" id="msg2"><polygon fill="#181818" points="422.4829,217.9922,432.4829,221.9922,422.4829,225.9922,426.4829,221.9922" style="stroke:#181818;stroke-width:1;"/><line style="stroke:#181818;stroke-width:1;" x1="233.5293" x2="428.4829" y1="221.9922" y2="221.9922"/><text fill="#000000" font-family="sans-serif" font-size="13" lengthAdjust="spacing" textLength="113.9023" x="240.5293" y="216.9263">Launch / initialize</text></g><g class="message" data-entity-1="part3" data-entity-2="part4" id="msg3"><polygon fill="#181818" points="647.5703,247.125,657.5703,251.125,647.5703,255.125,651.5703,251.125" style="stroke:#181818;stroke-width:1;"/><line style="stroke:#181818;stroke-width:1;" x1="434.4829" x2="653.5703" y1="251.125" y2="251.125"/><text fill="#000000" font-family="sans-serif" font-size="13" lengthAdjust="spacing" textLength="63.8955" x="441.4829" y="246.0591">Connect()</text></g><path d="M185.4268,266.125 L249.8696,266.125 L249.8696,273.2578 L239.8696,283.2578 L185.4268,283.2578 L185.4268,266.125" fill="#EEEEEE" style="stroke:#000000;stroke-width:1.5;"/><rect fill="none" height="163.6016" style="stroke:#000000;stroke-width:1.5;" width="510.0986" x="185.4268" y="266.125"/><text fill="#000000" font-family="sans-serif" font-size="13" font-weight="bold" lengthAdjust="spacing" textLength="19.4429" x="200.4268" y="279.1919">alt</text><text fill="#000000" font-family="sans-serif" font-size="11" font-weight="bold" lengthAdjust="spacing" textLength="166.7993" x="264.8696" y="278.3354">[Cannot connect to server]</text><g class="message" data-entity-1="part4" data-entity-2="part3" id="msg4"><polygon fill="#181818" points="445.4829,300.3906,435.4829,304.3906,445.4829,308.3906,441.4829,304.3906" style="stroke:#181818;stroke-width:1;"/><line style="stroke:#181818;stroke-width:1;stroke-dasharray:2,2;" x1="439.4829" x2="658.5703" y1="304.3906" y2="304.3906"/><text fill="#000000" font-family="sans-serif" font-size="13" lengthAdjust="spacing" textLength="113.7056" x="451.4829" y="299.3247">Connection failed</text></g><g class="message" data-entity-1="part3" data-entity-2="part2" id="msg5"><polygon fill="#181818" points="244.5293,344.6563,234.5293,348.6563,244.5293,352.6563,240.5293,348.6563" style="stroke:#181818;stroke-width:1;"/><line style="stroke:#181818;stroke-width:1;" x1="238.5293" x2="433.4829" y1="348.6563" y2="348.6563"/><text fill="#000000" font-family="sans-serif" font-size="13" lengthAdjust="spacing" textLength="133.7515" x="250.5293" y="328.4575">Show error message</text><text fill="#000000" font-family="sans-serif" font-size="13" lengthAdjust="spacing" textLength="176.9536" x="250.5293" y="343.5903">"Cannot connect to server"</text></g><line style="stroke:#000000;stroke-width:1;stroke-dasharray:2,2;" x1="185.4268" x2="695.5254" y1="357.6563" y2="357.6563"/><text fill="#000000" font-family="sans-serif" font-size="11" font-weight="bold" lengthAdjust="spacing" textLength="75.9204" x="190.4268" y="367.8667">[Connected]</text><g class="message" data-entity-1="part4" data-entity-2="part3" id="msg6"><polygon fill="#181818" points="445.4829,388.5938,435.4829,392.5938,445.4829,396.5938,441.4829,392.5938" style="stroke:#181818;stroke-width:1;"/><line style="stroke:#181818;stroke-width:1;stroke-dasharray:2,2;" x1="439.4829" x2="658.5703" y1="392.5938" y2="392.5938"/><text fill="#000000" font-family="sans-serif" font-size="13" lengthAdjust="spacing" textLength="152.2612" x="451.4829" y="387.5278">Connection established</text></g><g class="message" data-entity-1="part3" data-entity-2="part2" id="msg7"><polygon fill="#181818" points="244.5293,417.7266,234.5293,421.7266,244.5293,425.7266,240.5293,421.7266" style="stroke:#181818;stroke-width:1;"/><line style="stroke:#181818;stroke-width:1;" x1="238.5293" x2="433.4829" y1="421.7266" y2="421.7266"/><text fill="#000000" font-family="sans-serif" font-size="13" lengthAdjust="spacing" textLength="123.5381" x="250.5293" y="416.6606">Display Login Page</text></g><rect fill="#EEEEEE" height="3" style="stroke:#EEEEEE;stroke-width:1;" width="1072.0303" x="0" y="457.293"/><line style="stroke:#000000;stroke-width:1;" x1="0" x2="1072.0303" y1="457.293" y2="457.293"/><line style="stroke:#000000;stroke-width:1;" x1="0" x2="1072.0303" y1="460.293" y2="460.293"/><rect fill="#EEEEEE" height="23.1328" style="stroke:#000000;stroke-width:2;" width="127.3882" x="472.321" y="446.7266"/><text fill="#000000" font-family="sans-serif" font-size="13" font-weight="bold" lengthAdjust="spacing" textLength="108.8623" x="478.321" y="462.7935">Authentication</text><g class="message" data-entity-1="part1" data-entity-2="part2" id="msg8"><polygon fill="#181818" points="221.5293,536.2578,231.5293,540.2578,221.5293,544.2578,225.5293,540.2578" style="stroke:#181818;stroke-width:1;"/><line style="stroke:#181818;stroke-width:1;" x1="38.9551" x2="227.5293" y1="540.2578" y2="540.2578"/><text fill="#000000" font-family="sans-serif" font-size="13" lengthAdjust="spacing" textLength="170.5742" x="45.9551" y="520.0591">Enter username/password</text><text fill="#000000" font-family="sans-serif" font-size="13" lengthAdjust="spacing" textLength="82.3672" x="45.9551" y="535.1919">Click "Login"</text></g><g class="message" data-entity-1="part2" data-entity-2="part3" id="msg9"><polygon fill="#181818" points="422.4829,565.3906,432.4829,569.3906,422.4829,573.3906,426.4829,569.3906" style="stroke:#181818;stroke-width:1;"/><line style="stroke:#181818;stroke-width:1;" x1="233.5293" x2="428.4829" y1="569.3906" y2="569.3906"/><text fill="#000000" font-family="sans-serif" font-size="13" lengthAdjust="spacing" textLength="122.2876" x="240.5293" y="564.3247">Submit credentials</text></g><g class="message" data-entity-1="part3" data-entity-2="part4" id="msg10"><polygon fill="#181818" points="647.5703,594.5234,657.5703,598.5234,647.5703,602.5234,651.5703,598.5234" style="stroke:#181818;stroke-width:1;"/><line style="stroke:#181818;stroke-width:1;" x1="434.4829" x2="653.5703" y1="598.5234" y2="598.5234"/><text fill="#000000" font-family="sans-serif" font-size="13" lengthAdjust="spacing" textLength="165.8071" x="441.4829" y="593.4575">Authenticate(credentials)</text></g><g class="message" data-entity-1="part4" data-entity-2="part5" id="msg11"><polygon fill="#181818" points="894.4937,638.7891,904.4937,642.7891,894.4937,646.7891,898.4937,642.7891" style="stroke:#181818;stroke-width:1;"/><line style="stroke:#181818;stroke-width:1;" x1="659.5703" x2="900.4937" y1="642.7891" y2="642.7891"/><text fill="#000000" font-family="sans-serif" font-size="13" lengthAdjust="spacing" textLength="114.2896" x="666.5703" y="622.5903">Verify credentials</text><text fill="#000000" font-family="sans-serif" font-size="13" lengthAdjust="spacing" textLength="177.0425" x="666.5703" y="637.7231">(username/password hash)</text></g><path d="M20,657.7891 L84.4429,657.7891 L84.4429,664.9219 L74.4429,674.9219 L20,674.9219 L20,657.7891" fill="#EEEEEE" style="stroke:#000000;stroke-width:1.5;"/><rect fill="none" height="490" style="stroke:#000000;stroke-width:1.5;" width="1032.0303" x="20" y="657.7891"/><text fill="#000000" font-family="sans-serif" font-size="13" font-weight="bold" lengthAdjust="spacing" textLength="19.4429" x="35" y="670.856">alt</text><text fill="#000000" font-family="sans-serif" font-size="11" font-weight="bold" lengthAdjust="spacing" textLength="125.1572" x="99.4429" y="669.9995">[Invalid credentials]</text><g class="message" data-entity-1="part5" data-entity-2="part4" id="msg12"><polygon fill="#181818" points="670.5703,692.0547,660.5703,696.0547,670.5703,700.0547,666.5703,696.0547" style="stroke:#181818;stroke-width:1;"/><line style="stroke:#181818;stroke-width:1;stroke-dasharray:2,2;" x1="664.5703" x2="905.4937" y1="696.0547" y2="696.0547"/><text fill="#000000" font-family="sans-serif" font-size="13" lengthAdjust="spacing" textLength="184.6343" x="676.5703" y="690.9888">No match / invalid password</text></g><g class="message" data-entity-1="part4" data-entity-2="part3" id="msg13"><polygon fill="#181818" points="445.4829,721.1875,435.4829,725.1875,445.4829,729.1875,441.4829,725.1875" style="stroke:#181818;stroke-width:1;"/><line style="stroke:#181818;stroke-width:1;stroke-dasharray:2,2;" x1="439.4829" x2="658.5703" y1="725.1875" y2="725.1875"/><text fill="#000000" font-family="sans-serif" font-size="13" lengthAdjust="spacing" textLength="70.6177" x="451.4829" y="720.1216">Auth failed</text></g><g class="message" data-entity-1="part3" data-entity-2="part2" id="msg14"><polygon fill="#181818" points="244.5293,765.4531,234.5293,769.4531,244.5293,773.4531,240.5293,769.4531" style="stroke:#181818;stroke-width:1;"/><line style="stroke:#181818;stroke-width:1;" x1="238.5293" x2="433.4829" y1="769.4531" y2="769.4531"/><text fill="#000000" font-family="sans-serif" font-size="13" lengthAdjust="spacing" textLength="130.1777" x="250.5293" y="749.2544">Show "Invalid login"</text><text fill="#000000" font-family="sans-serif" font-size="13" lengthAdjust="spacing" textLength="70.313" x="250.5293" y="764.3872">Allow retry</text></g><line style="stroke:#000000;stroke-width:1;stroke-dasharray:2,2;" x1="20" x2="1052.0303" y1="778.4531" y2="778.4531"/><text fill="#000000" font-family="sans-serif" font-size="11" font-weight="bold" lengthAdjust="spacing" textLength="114.5762" x="25" y="788.6636">[Valid credentials]</text><g class="message" data-entity-1="part5" data-entity-2="part4" id="msg15"><polygon fill="#181818" points="670.5703,809.3906,660.5703,813.3906,670.5703,817.3906,666.5703,813.3906" style="stroke:#181818;stroke-width:1;"/><line style="stroke:#181818;stroke-width:1;stroke-dasharray:2,2;" x1="664.5703" x2="905.4937" y1="813.3906" y2="813.3906"/><text fill="#000000" font-family="sans-serif" font-size="13" lengthAdjust="spacing" textLength="115.0894" x="676.5703" y="808.3247">User found + role</text></g><g class="message" data-entity-1="part4" data-entity-2="part5" id="msg16"><polygon fill="#181818" points="894.4937,838.5234,904.4937,842.5234,894.4937,846.5234,898.4937,842.5234" style="stroke:#181818;stroke-width:1;"/><line style="stroke:#181818;stroke-width:1;" x1="659.5703" x2="900.4937" y1="842.5234" y2="842.5234"/><text fill="#000000" font-family="sans-serif" font-size="13" lengthAdjust="spacing" textLength="134.5513" x="666.5703" y="837.4575">Get user profile data</text></g><g class="message" data-entity-1="part4" data-entity-2="part5" id="msg17"><polygon fill="#181818" points="894.4937,882.7891,904.4937,886.7891,894.4937,890.7891,898.4937,886.7891" style="stroke:#181818;stroke-width:1;"/><line style="stroke:#181818;stroke-width:1;" x1="659.5703" x2="900.4937" y1="886.7891" y2="886.7891"/><text fill="#000000" font-family="sans-serif" font-size="13" lengthAdjust="spacing" textLength="168.0225" x="666.5703" y="866.5903">Get conversation headers</text><text fill="#000000" font-family="sans-serif" font-size="13" lengthAdjust="spacing" textLength="215.4268" x="666.5703" y="881.7231">(conversation IDs + participants)</text></g><g class="message" data-entity-1="part5" data-entity-2="part4" id="msg18"><polygon fill="#181818" points="670.5703,911.9219,660.5703,915.9219,670.5703,919.9219,666.5703,915.9219" style="stroke:#181818;stroke-width:1;"/><line style="stroke:#181818;stroke-width:1;stroke-dasharray:2,2;" x1="664.5703" x2="905.4937" y1="915.9219" y2="915.9219"/><text fill="#000000" font-family="sans-serif" font-size="13" lengthAdjust="spacing" textLength="222.9233" x="676.5703" y="910.856">User data + conversation headers</text></g><g class="message" data-entity-1="part4" data-entity-2="part3" id="msg19"><polygon fill="#181818" points="445.4829,956.1875,435.4829,960.1875,445.4829,964.1875,441.4829,960.1875" style="stroke:#181818;stroke-width:1;"/><line style="stroke:#181818;stroke-width:1;stroke-dasharray:2,2;" x1="439.4829" x2="658.5703" y1="960.1875" y2="960.1875"/><text fill="#000000" font-family="sans-serif" font-size="13" lengthAdjust="spacing" textLength="85.4521" x="451.4829" y="939.9888">Auth success</text><text fill="#000000" font-family="sans-serif" font-size="13" lengthAdjust="spacing" textLength="201.0874" x="451.4829" y="955.1216">(user data, conv headers, role)</text></g><g class="message" data-entity-1="part3" data-entity-2="part2" id="msg20"><polygon fill="#181818" points="244.5293,1000.4531,234.5293,1004.4531,244.5293,1008.4531,240.5293,1004.4531" style="stroke:#181818;stroke-width:1;"/><line style="stroke:#181818;stroke-width:1;" x1="238.5293" x2="433.4829" y1="1004.4531" y2="1004.4531"/><text fill="#000000" font-family="sans-serif" font-size="13" lengthAdjust="spacing" textLength="97.3159" x="250.5293" y="984.2544">Load user data</text><text fill="#000000" font-family="sans-serif" font-size="13" lengthAdjust="spacing" textLength="168.3335" x="250.5293" y="999.3872">Populate conversation list</text></g><path d="M185.4268,1019.4531 L249.8696,1019.4531 L249.8696,1026.5859 L239.8696,1036.5859 L185.4268,1036.5859 L185.4268,1019.4531" fill="#EEEEEE" style="stroke:#000000;stroke-width:1.5;"/><rect fill="none" height="90.2031" style="stroke:#000000;stroke-width:1.5;" width="298.2217" x="185.4268" y="1019.4531"/><text fill="#000000" font-family="sans-serif" font-size="13" font-weight="bold" lengthAdjust="spacing" textLength="19.4429" x="200.4268" y="1032.52">alt</text><text fill="#000000" font-family="sans-serif" font-size="11" font-weight="bold" lengthAdjust="spacing" textLength="89.4019" x="264.8696" y="1031.6636">[Regular user]</text><g class="message" data-entity-1="part3" data-entity-2="part2" id="msg21"><polygon fill="#181818" points="244.5293,1053.7188,234.5293,1057.7188,244.5293,1061.7188,240.5293,1057.7188" style="stroke:#181818;stroke-width:1;"/><line style="stroke:#181818;stroke-width:1;" x1="238.5293" x2="433.4829" y1="1057.7188" y2="1057.7188"/><text fill="#000000" font-family="sans-serif" font-size="13" lengthAdjust="spacing" textLength="146.3325" x="250.5293" y="1052.6528">Open Regular Mode UI</text></g><line style="stroke:#000000;stroke-width:1;stroke-dasharray:2,2;" x1="185.4268" x2="483.6484" y1="1066.7188" y2="1066.7188"/><text fill="#000000" font-family="sans-serif" font-size="11" font-weight="bold" lengthAdjust="spacing" textLength="52.7441" x="190.4268" y="1076.9292">[IT user]</text><g class="message" data-entity-1="part3" data-entity-2="part2" id="msg22"><polygon fill="#181818" points="244.5293,1097.6563,234.5293,1101.6563,244.5293,1105.6563,240.5293,1101.6563" style="stroke:#181818;stroke-width:1;"/><line style="stroke:#181818;stroke-width:1;" x1="238.5293" x2="433.4829" y1="1101.6563" y2="1101.6563"/><text fill="#000000" font-family="sans-serif" font-size="13" lengthAdjust="spacing" textLength="107.6626" x="250.5293" y="1096.5903">Open IT Mode UI</text></g><path d="M30,1123.6563 L116.9517,1123.6563 L116.9517,1130.7891 L106.9517,1140.7891 L30,1140.7891 L30,1123.6563" fill="#EEEEEE" style="stroke:#000000;stroke-width:1.5;"/><rect fill="none" height="17.1328" style="stroke:#000000;stroke-width:1.5;" width="91.9517" x="30" y="1123.6563"/><text fill="#000000" font-family="sans-serif" font-size="13" font-weight="bold" lengthAdjust="spacing" textLength="41.9517" x="45" y="1136.7231">break</text><?plantuml-src ZLJBRjim4BppAnOw9MY2e5S33c0aHM0WROEwoScNDRMMYD1BWQGIk5_V9IcdyYlemOQqp-4CHz54I_0S2EvG_hvEuD4rZU46vgmKwkXyodgrSZtNwBVmy3m7353TMKCSqskbjEFedOKXDahFkkvVUa7-ZNnEbyUKifPqD8w38D0jZR8biEIB101gZ0XVuCwnf0Ac5cW9Qtcvh9IQJc4HqSU-W-bKvOxhsuHk0ZyxOkYyQpnkL88lYG9FJeizwnPkmB291gtvGsg0BbK5noGjPK5vSIcKs2Yuc5q4NQ8G7OHSg0RSrwC5Gsj2kqPZgHwDp-WMhNi7ybw8tb08sCY9gtCRAaKsQLNYCkppZHGYhgm9xV7QUnCwYziajs5uahMAkCuyplhOIgdHXMIXqphNmRE4BBm9HpLeJtKgGHj0WFU9Resi1Tq-zzyuKiapRkYcmn3UdQ-NB73qArHvVNMeog9VRKmSRpaXoWWcNOnAHQGTAxVb2atWXRnPRyS3vLeTeO8MGtkP9PxpqK5LkP_N8mW_76mm3lUdDEncdL8c8Vxi5bIxhJQpikIPjHBs5Fss2F_o7w0o_-jaLx6Bs8wEwNYWM3GJLwm5JZRNwJ9zmc_2tLvuVXzaLIVkCzfqo54qE8DhSF6fgMSP2xtMuen1iJpYAa_OTLxbOuhk1wG-EgpXesV9JwxhhToM_VNYZrXy_OiQoPVhUZWhVqHs1TzTBH_DUT5a_ljyW-G-QiLTAq_ucf_aznS0?></g></svg>