<?plantuml 1.2026.2?><svg xmlns="http://www.w3.org/2000/svg" xmlns:xlink="http://www.w3.org/1999/xlink" contentStyleType="text/css" data-diagram-type="SEQUENCE" height="778px" preserveAspectRatio="none" style="width:1098px;height:778px;background:#FFFFFF;" version="1.1" viewBox="0 0 1098 778" width="1098px" zoomAndPan="magnify"><title>Push New Message to Conversation Participants</title><defs/><g><text fill="#000000" font-family="sans-serif" font-size="14" font-weight="bold" lengthAdjust="spacing" textLength="382.3135" x="354.2395" y="27.9951">Push New Message to Conversation Participants</text><rect fill="none" height="327.2031" style="stroke:#000000;stroke-width:1.5;" width="828.4619" x="253.3306" y="353.5234"/><rect fill="none" height="251.8047" style="stroke:#000000;stroke-width:1.5;" width="808.4619" x="263.3306" y="421.9219"/><g class="participant-lifeline" data-entity-uid="part1" data-qualified-name="Sender" id="part1-lifeline"><g><title>User .Sender.</title><rect fill="#000000" fill-opacity="0.00000" height="579.1328" width="8" x="52.4565" y="118.5938"/><line style="stroke:#181818;stroke-width:0.5;stroke-dasharray:5,5;" x1="56" x2="56" y1="118.5938" y2="697.7266"/></g></g><g class="participant-lifeline" data-entity-uid="part2" data-qualified-name="Server" id="part2-lifeline"><g><title>Server</title><rect fill="#000000" fill-opacity="0.00000" height="579.1328" width="8" x="295.2856" y="118.5938"/><line style="stroke:#181818;stroke-width:0.5;stroke-dasharray:5,5;" x1="298.3306" x2="298.3306" y1="118.5938" y2="697.7266"/></g></g><g class="participant-lifeline" data-entity-uid="part3" data-qualified-name="Cache" id="part3-lifeline"><g><title>Server Cache</title><rect fill="#000000" fill-opacity="0.00000" height="579.1328" width="8" x="555.2026" y="118.5938"/><line style="stroke:#181818;stroke-width:0.5;stroke-dasharray:5,5;" x1="559.1304" x2="559.1304" y1="118.5938" y2="697.7266"/></g></g><g class="participant-lifeline" data-entity-uid="part4" data-qualified-name="Client" id="part4-lifeline"><g><title>Recipient Client App</title><rect fill="#000000" fill-opacity="0.00000" height="579.1328" width="8" x="737.5054" y="118.5938"/><line style="stroke:#181818;stroke-width:0.5;stroke-dasharray:5,5;" x1="741.2749" x2="741.2749" y1="118.5938" y2="697.7266"/></g></g><g class="participant-lifeline" data-entity-uid="part5" data-qualified-name="GUI" id="part5-lifeline"><g><title>Recipient GUI</title><rect fill="#000000" fill-opacity="0.00000" height="579.1328" width="8" x="1007.1152" y="118.5938"/><line style="stroke:#181818;stroke-width:0.5;stroke-dasharray:5,5;" x1="1010.438" x2="1010.438" y1="118.5938" y2="697.7266"/></g></g><g class="participant participant-head" data-entity-uid="part1" data-qualified-name="Sender" id="part1-head"><text fill="#000000" font-family="sans-serif" font-size="14" lengthAdjust="spacing" textLength="96.9131" x="5" y="115.292">User (Sender)</text><ellipse cx="56.4565" cy="50.7969" fill="#E2E2F0" rx="8" ry="8" style="stroke:#181818;stroke-width:0.5;"/><path d="M56.4565,58.7969 L56.4565,85.7969 M43.4565,66.7969 L69.4565,66.7969 M56.4565,85.7969 L43.4565,100.7969 M56.4565,85.7969 L69.4565,100.7969" fill="none" style="stroke:#181818;stroke-width:0.5;"/></g><g class="participant participant-tail" data-entity-uid="part1" data-qualified-name="Sender" id="part1-tail"><text fill="#000000" font-family="sans-serif" font-size="14" lengthAdjust="spacing" textLength="96.9131" x="5" y="709.7217">User (Sender)</text><ellipse cx="56.4565" cy="721.5234" fill="#E2E2F0" rx="8" ry="8" style="stroke:#181818;stroke-width:0.5;"/><path d="M56.4565,729.5234 L56.4565,756.5234 M43.4565,737.5234 L69.4565,737.5234 M56.4565,756.5234 L43.4565,771.5234 M56.4565,756.5234 L69.4565,771.5234" fill="none" style="stroke:#181818;stroke-width:0.5;"/></g><g class="participant participant-head" data-entity-uid="part2" data-qualified-name="Server" id="part2-head"><text fill="#000000" font-family="sans-serif" font-size="14" lengthAdjust="spacing" textLength="45.9102" x="273.3306" y="115.292">Server</text><ellipse cx="299.2856" cy="86.2969" fill="#E2E2F0" rx="12" ry="12" style="stroke:#181818;stroke-width:0.5;"/><polygon fill="#181818" points="295.2856,74.2969,301.2856,69.2969,299.2856,74.2969,301.2856,79.2969,295.2856,74.2969" style="stroke:#181818;stroke-width:1;"/></g><g class="participant participant-tail" data-entity-uid="part2" data-qualified-name="Server" id="part2-tail"><text fill="#000000" font-family="sans-serif" font-size="14" lengthAdjust="spacing" textLength="45.9102" x="273.3306" y="709.7217">Server</text><ellipse cx="299.2856" cy="729.0234" fill="#E2E2F0" rx="12" ry="12" style="stroke:#181818;stroke-width:0.5;"/><polygon fill="#181818" points="295.2856,717.0234,301.2856,712.0234,299.2856,717.0234,301.2856,722.0234,295.2856,717.0234" style="stroke:#181818;stroke-width:1;"/></g><g class="participant participant-head" data-entity-uid="part3" data-qualified-name="Cache" id="part3-head"><rect fill="#E2E2F0" height="46.5938" style="stroke:#181818;stroke-width:0.5;" width="192.1445" x="465.1304" y="67"/><rect fill="#E2E2F0" height="46.5938" style="stroke:#181818;stroke-width:0.5;" width="192.1445" x="461.1304" y="71"/><text fill="#000000" font-family="sans-serif" font-size="14" lengthAdjust="spacing" textLength="93.8984" x="510.2534" y="90.9951">Server Cache</text><text fill="#000000" font-family="sans-serif" font-size="14" lengthAdjust="spacing" textLength="178.1445" x="468.1304" y="107.292">(Conversation messages)</text></g><g class="participant participant-tail" data-entity-uid="part3" data-qualified-name="Cache" id="part3-tail"><rect fill="#E2E2F0" height="46.5938" style="stroke:#181818;stroke-width:0.5;" width="192.1445" x="465.1304" y="696.7266"/><rect fill="#E2E2F0" height="46.5938" style="stroke:#181818;stroke-width:0.5;" width="192.1445" x="461.1304" y="700.7266"/><text fill="#000000" font-family="sans-serif" font-size="14" lengthAdjust="spacing" textLength="93.8984" x="510.2534" y="720.7217">Server Cache</text><text fill="#000000" font-family="sans-serif" font-size="14" lengthAdjust="spacing" textLength="178.1445" x="468.1304" y="737.0186">(Conversation messages)</text></g><g class="participant participant-head" data-entity-uid="part4" data-qualified-name="Client" id="part4-head"><text fill="#000000" font-family="sans-serif" font-size="14" lengthAdjust="spacing" textLength="142.4609" x="667.2749" y="115.292">Recipient Client App</text><ellipse cx="741.5054" cy="86.2969" fill="#E2E2F0" rx="12" ry="12" style="stroke:#181818;stroke-width:0.5;"/><polygon fill="#181818" points="737.5054,74.2969,743.5054,69.2969,741.5054,74.2969,743.5054,79.2969,737.5054,74.2969" style="stroke:#181818;stroke-width:1;"/></g><g class="participant participant-tail" data-entity-uid="part4" data-qualified-name="Client" id="part4-tail"><text fill="#000000" font-family="sans-serif" font-size="14" lengthAdjust="spacing" textLength="142.4609" x="667.2749" y="709.7217">Recipient Client App</text><ellipse cx="741.5054" cy="729.0234" fill="#E2E2F0" rx="12" ry="12" style="stroke:#181818;stroke-width:0.5;"/><polygon fill="#181818" points="737.5054,717.0234,743.5054,712.0234,741.5054,717.0234,743.5054,722.0234,737.5054,717.0234" style="stroke:#181818;stroke-width:1;"/></g><g class="participant participant-head" data-entity-uid="part5" data-qualified-name="GUI" id="part5-head"><text fill="#000000" font-family="sans-serif" font-size="14" lengthAdjust="spacing" textLength="95.3545" x="960.438" y="115.292">Recipient GUI</text><path d="M990.6152,74.2969 L990.6152,98.2969 M990.6152,86.2969 L1007.6152,86.2969" fill="none" style="stroke:#181818;stroke-width:0.5;"/><ellipse cx="1019.6152" cy="86.2969" fill="#E2E2F0" rx="12" ry="12" style="stroke:#181818;stroke-width:0.5;"/></g><g class="participant participant-tail" data-entity-uid="part5" data-qualified-name="GUI" id="part5-tail"><text fill="#000000" font-family="sans-serif" font-size="14" lengthAdjust="spacing" textLength="95.3545" x="960.438" y="709.7217">Recipient GUI</text><path d="M990.6152,717.0234 L990.6152,741.0234 M990.6152,729.0234 L1007.6152,729.0234" fill="none" style="stroke:#181818;stroke-width:0.5;"/><ellipse cx="1019.6152" cy="729.0234" fill="#E2E2F0" rx="12" ry="12" style="stroke:#181818;stroke-width:0.5;"/></g><rect fill="#EEEEEE" height="3" style="stroke:#EEEEEE;stroke-width:1;" width="1091.7925" x="0" y="149.1602"/><line style="stroke:#000000;stroke-width:1;" x1="0" x2="1091.7925" y1="149.1602" y2="149.1602"/><line style="stroke:#000000;stroke-width:1;" x1="0" x2="1091.7925" y1="152.1602" y2="152.1602"/><rect fill="#EEEEEE" height="23.1328" style="stroke:#000000;stroke-width:2;" width="223.479" x="434.1567" y="138.5938"/><text fill="#000000" font-family="sans-serif" font-size="13" font-weight="bold" lengthAdjust="spacing" textLength="204.9531" x="440.1567" y="154.6606">Message received by server</text><g class="message" data-entity-1="part1" data-entity-2="part2" id="msg1"><polygon fill="#181818" points="287.2856,188.8594,297.2856,192.8594,287.2856,196.8594,291.2856,192.8594" style="stroke:#181818;stroke-width:1;"/><line style="stroke:#181818;stroke-width:1;" x1="56.4565" x2="293.2856" y1="192.8594" y2="192.8594"/><text fill="#000000" font-family="sans-serif" font-size="13" lengthAdjust="spacing" textLength="218.8291" x="63.4565" y="187.7935">Submit message for conversation</text></g><g class="message" data-entity-1="part2" data-entity-2="part3" id="msg2"><polygon fill="#181818" points="547.2026,217.9922,557.2026,221.9922,547.2026,225.9922,551.2026,221.9922" style="stroke:#181818;stroke-width:1;"/><line style="stroke:#181818;stroke-width:1;" x1="299.2856" x2="553.2026" y1="221.9922" y2="221.9922"/><text fill="#000000" font-family="sans-serif" font-size="13" lengthAdjust="spacing" textLength="235.917" x="306.2856" y="216.9263">Add message to conversation cache</text></g><rect fill="#EEEEEE" height="3" style="stroke:#EEEEEE;stroke-width:1;" width="1091.7925" x="0" y="250.5586"/><line style="stroke:#000000;stroke-width:1;" x1="0" x2="1091.7925" y1="250.5586" y2="250.5586"/><line style="stroke:#000000;stroke-width:1;" x1="0" x2="1091.7925" y1="253.5586" y2="253.5586"/><rect fill="#EEEEEE" height="23.1328" style="stroke:#000000;stroke-width:2;" width="156.27" x="467.7612" y="239.9922"/><text fill="#000000" font-family="sans-serif" font-size="13" font-weight="bold" lengthAdjust="spacing" textLength="137.7441" x="473.7612" y="256.0591">Notify participants</text><g class="message" data-entity-1="part2" data-entity-2="part3" id="msg3"><polygon fill="#181818" points="547.2026,305.3906,557.2026,309.3906,547.2026,313.3906,551.2026,309.3906" style="stroke:#181818;stroke-width:1;"/><line style="stroke:#181818;stroke-width:1;" x1="299.2856" x2="553.2026" y1="309.3906" y2="309.3906"/><text fill="#000000" font-family="sans-serif" font-size="13" lengthAdjust="spacing" textLength="123.9824" x="306.2856" y="289.1919">Get all participants</text><text fill="#000000" font-family="sans-serif" font-size="13" lengthAdjust="spacing" textLength="111.7822" x="306.2856" y="304.3247">excluding sender</text></g><g class="message" data-entity-1="part3" data-entity-2="part2" id="msg4"><polygon fill="#181818" points="310.2856,334.5234,300.2856,338.5234,310.2856,342.5234,306.2856,338.5234" style="stroke:#181818;stroke-width:1;"/><line style="stroke:#181818;stroke-width:1;stroke-dasharray:2,2;" x1="304.2856" x2="558.2026" y1="338.5234" y2="338.5234"/><text fill="#000000" font-family="sans-serif" font-size="13" lengthAdjust="spacing" textLength="93.3994" x="316.2856" y="333.4575">Participant list</text></g><path d="M253.3306,353.5234 L329.9546,353.5234 L329.9546,360.6563 L319.9546,370.6563 L253.3306,370.6563 L253.3306,353.5234" fill="#EEEEEE" style="stroke:#000000;stroke-width:1.5;"/><rect fill="none" height="327.2031" style="stroke:#000000;stroke-width:1.5;" width="828.4619" x="253.3306" y="353.5234"/><text fill="#000000" font-family="sans-serif" font-size="13" font-weight="bold" lengthAdjust="spacing" textLength="31.624" x="268.3306" y="366.5903">loop</text><text fill="#000000" font-family="sans-serif" font-size="11" font-weight="bold" lengthAdjust="spacing" textLength="122.8154" x="344.9546" y="365.7339">[For each recipient]</text><g class="message" data-entity-1="part2" data-entity-2="part3" id="msg5"><polygon fill="#181818" points="547.2026,402.9219,557.2026,406.9219,547.2026,410.9219,551.2026,406.9219" style="stroke:#181818;stroke-width:1;"/><line style="stroke:#181818;stroke-width:1;" x1="299.2856" x2="553.2026" y1="406.9219" y2="406.9219"/><text fill="#000000" font-family="sans-serif" font-size="13" lengthAdjust="spacing" textLength="221.2603" x="306.2856" y="386.7231">Check recipient connection status</text><text fill="#000000" font-family="sans-serif" font-size="13" lengthAdjust="spacing" textLength="156.2539" x="306.2856" y="401.856">and active conversation</text></g><path d="M263.3306,421.9219 L327.7734,421.9219 L327.7734,429.0547 L317.7734,439.0547 L263.3306,439.0547 L263.3306,421.9219" fill="#EEEEEE" style="stroke:#000000;stroke-width:1.5;"/><rect fill="none" height="251.8047" style="stroke:#000000;stroke-width:1.5;" width="808.4619" x="263.3306" y="421.9219"/><text fill="#000000" font-family="sans-serif" font-size="13" font-weight="bold" lengthAdjust="spacing" textLength="19.4429" x="278.3306" y="434.9888">alt</text><text fill="#000000" font-family="sans-serif" font-size="11" font-weight="bold" lengthAdjust="spacing" textLength="161.0898" x="342.7734" y="434.1323">[Recipient not connected]</text><g class="message" data-entity-1="part2" data-entity-2="part3" id="msg6"><polygon fill="#181818" points="547.2026,471.3203,557.2026,475.3203,547.2026,479.3203,551.2026,475.3203" style="stroke:#181818;stroke-width:1;"/><line style="stroke:#181818;stroke-width:1;" x1="299.2856" x2="553.2026" y1="475.3203" y2="475.3203"/><text fill="#000000" font-family="sans-serif" font-size="13" lengthAdjust="spacing" textLength="189.249" x="306.2856" y="455.1216">Mark conversation as unread</text><text fill="#000000" font-family="sans-serif" font-size="13" lengthAdjust="spacing" textLength="79.3076" x="306.2856" y="470.2544">for recipient</text></g><line style="stroke:#000000;stroke-width:1;stroke-dasharray:2,2;" x1="263.3306" x2="1071.7925" y1="484.3203" y2="484.3203"/><text fill="#000000" font-family="sans-serif" font-size="11" font-weight="bold" lengthAdjust="spacing" textLength="355.937" x="268.3306" y="494.5308">[Recipient connected but viewing different conversation]</text><g class="message" data-entity-1="part2" data-entity-2="part3" id="msg7"><polygon fill="#181818" points="547.2026,530.3906,557.2026,534.3906,547.2026,538.3906,551.2026,534.3906" style="stroke:#181818;stroke-width:1;"/><line style="stroke:#181818;stroke-width:1;" x1="299.2856" x2="553.2026" y1="534.3906" y2="534.3906"/><text fill="#000000" font-family="sans-serif" font-size="13" lengthAdjust="spacing" textLength="189.249" x="306.2856" y="514.1919">Mark conversation as unread</text><text fill="#000000" font-family="sans-serif" font-size="13" lengthAdjust="spacing" textLength="79.3076" x="306.2856" y="529.3247">for recipient</text></g><g class="message" data-entity-1="part2" data-entity-2="part4" id="msg8"><polygon fill="#181818" points="729.5054,559.5234,739.5054,563.5234,729.5054,567.5234,733.5054,563.5234" style="stroke:#181818;stroke-width:1;"/><line style="stroke:#181818;stroke-width:1;stroke-dasharray:2,2;" x1="299.2856" x2="735.5054" y1="563.5234" y2="563.5234"/><text fill="#000000" font-family="sans-serif" font-size="13" lengthAdjust="spacing" textLength="236.3486" x="306.2856" y="558.4575">Notify new message in conversation</text></g><g class="message" data-entity-1="part4" data-entity-2="part5" id="msg9"><polygon fill="#181818" points="999.1152,588.6563,1009.1152,592.6563,999.1152,596.6563,1003.1152,592.6563" style="stroke:#181818;stroke-width:1;"/><line style="stroke:#181818;stroke-width:1;" x1="741.5054" x2="1005.1152" y1="592.6563" y2="592.6563"/><text fill="#000000" font-family="sans-serif" font-size="13" lengthAdjust="spacing" textLength="240.4111" x="748.5054" y="587.5903">Show unread/new message indicator</text></g><line style="stroke:#000000;stroke-width:1;stroke-dasharray:2,2;" x1="263.3306" x2="1071.7925" y1="601.6563" y2="601.6563"/><text fill="#000000" font-family="sans-serif" font-size="11" font-weight="bold" lengthAdjust="spacing" textLength="326.8579" x="268.3306" y="611.8667">[Recipient connected and viewing this conversation]</text><g class="message" data-entity-1="part2" data-entity-2="part4" id="msg10"><polygon fill="#181818" points="729.5054,632.5938,739.5054,636.5938,729.5054,640.5938,733.5054,636.5938" style="stroke:#181818;stroke-width:1;"/><line style="stroke:#181818;stroke-width:1;stroke-dasharray:2,2;" x1="299.2856" x2="735.5054" y1="636.5938" y2="636.5938"/><text fill="#000000" font-family="sans-serif" font-size="13" lengthAdjust="spacing" textLength="139.8262" x="306.2856" y="631.5278">Deliver new message</text></g><g class="message" data-entity-1="part4" data-entity-2="part5" id="msg11"><polygon fill="#181818" points="999.1152,661.7266,1009.1152,665.7266,999.1152,669.7266,1003.1152,665.7266" style="stroke:#181818;stroke-width:1;"/><line style="stroke:#181818;stroke-width:1;" x1="741.5054" x2="1005.1152" y1="665.7266" y2="665.7266"/><text fill="#000000" font-family="sans-serif" font-size="13" lengthAdjust="spacing" textLength="245.6099" x="748.5054" y="660.6606">Display new message in conversation</text></g><?plantuml-src fLEnRXin3Dtr5OIdT0Yw6t21m4633Wc21jcyo1AT8w9G1ubdrtzVwdIsTKdQ3XqEq56Fv7kFb904XCSXT_201xZ7dEqBWaHOHzvZobOeCZpQ9EIejopP6Eia9dX2zfZ0PbWyPprSrS2NXN6H9SMWYBIV4FLOha90LsfcM5lNONDR0nk-chL-gvHoKtST25d6p9-ehCQ_ANZJzmkpZGDxcuvmz_pZ7KmZ2sDMgxFKX0vfZnwsHyYLnsfb9d7NtoOHItWQjcya9pgmKmTSmzDC6ZHZbB646-_FQFMp1OCha976GnJQ7Q5l3AxztrMxGnKSmWouOVpbmk29NvHw8MogfzSDxsPq42YBCI767huhVrHmqL-jCG0VkguxTAyNI171TNoGnSgW52nxq8LG2-T-Q3aR12xESppdezVRJzhTs_GwDqg7Dt12wpTS76_9OiZOb3-NXkqWi2Sy55iyxNQOfliBkV_lVial1SRTMvw6oVgIJfCd_jXvMbLDr6tKpUhYOUhpTPxgoLbzQdyJM-m_YPMEyfzrDZnlCL29DTq-8tPBkG_sNtfqyOn-lm40?></g></svg>