<?plantuml 1.2026.2?><svg xmlns="http://www.w3.org/2000/svg" xmlns:xlink="http://www.w3.org/1999/xlink" contentStyleType="text/css" data-diagram-type="SEQUENCE" height="510px" preserveAspectRatio="none" style="width:697px;height:510px;background:#FFFFFF;" version="1.1" viewBox="0 0 697 510" width="697px" zoomAndPan="magnify"><title>Loading User and Conversation data</title><defs/><g><text fill="#000000" font-family="sans-serif" font-size="14" font-weight="bold" lengthAdjust="spacing" textLength="287.6768" x="203.6807" y="27.9951">Loading User and Conversation data</text><g class="participant-lifeline" data-entity-uid="part1" data-qualified-name="Startup" id="part1-lifeline"><g><title>System Startup</title><rect fill="#000000" fill-opacity="0.00000" height="311.3281" width="8" x="58.3081" y="118.5938"/><line style="stroke:#181818;stroke-width:0.5;stroke-dasharray:5,5;" x1="62" x2="62" y1="118.5938" y2="429.9219"/></g></g><g class="participant-lifeline" data-entity-uid="part2" data-qualified-name="Server" id="part2-lifeline"><g><title>Server</title><rect fill="#000000" fill-opacity="0.00000" height="311.3281" width="8" x="165.3608" y="118.5938"/><line style="stroke:#181818;stroke-width:0.5;stroke-dasharray:5,5;" x1="168.4058" x2="168.4058" y1="118.5938" y2="429.9219"/></g></g><g class="participant-lifeline" data-entity-uid="part3" data-qualified-name="FileManager" id="part3-lifeline"><g><title>FileManager</title><rect fill="#000000" fill-opacity="0.00000" height="311.3281" width="8" x="404.9463" y="118.5938"/><line style="stroke:#181818;stroke-width:0.5;stroke-dasharray:5,5;" x1="408.0405" x2="408.0405" y1="118.5938" y2="429.9219"/></g></g><g class="participant-lifeline" data-entity-uid="part4" data-qualified-name="UserData" id="part4-lifeline"><g><title>UserData</title><rect fill="#000000" fill-opacity="0.00000" height="311.3281" width="8" x="647.3691" y="118.5938"/><line style="stroke:#181818;stroke-width:0.5;stroke-dasharray:5,5;" x1="650.7002" x2="650.7002" y1="118.5938" y2="429.9219"/></g></g><g class="participant participant-head" data-entity-uid="part1" data-qualified-name="Startup" id="part1-head"><text fill="#000000" font-family="sans-serif" font-size="14" lengthAdjust="spacing" textLength="108.6162" x="5" y="115.292">System Startup</text><ellipse cx="62.3081" cy="50.7969" fill="#E2E2F0" rx="8" ry="8" style="stroke:#181818;stroke-width:0.5;"/><path d="M62.3081,58.7969 L62.3081,85.7969 M49.3081,66.7969 L75.3081,66.7969 M62.3081,85.7969 L49.3081,100.7969 M62.3081,85.7969 L75.3081,100.7969" fill="none" style="stroke:#181818;stroke-width:0.5;"/></g><g class="participant participant-tail" data-entity-uid="part1" data-qualified-name="Startup" id="part1-tail"><text fill="#000000" font-family="sans-serif" font-size="14" lengthAdjust="spacing" textLength="108.6162" x="5" y="441.917">System Startup</text><ellipse cx="62.3081" cy="453.7188" fill="#E2E2F0" rx="8" ry="8" style="stroke:#181818;stroke-width:0.5;"/><path d="M62.3081,461.7188 L62.3081,488.7188 M49.3081,469.7188 L75.3081,469.7188 M62.3081,488.7188 L49.3081,503.7188 M62.3081,488.7188 L75.3081,503.7188" fill="none" style="stroke:#181818;stroke-width:0.5;"/></g><g class="participant participant-head" data-entity-uid="part2" data-qualified-name="Server" id="part2-head"><rect fill="#E2E2F0" height="30.2969" rx="2.5" ry="2.5" style="stroke:#181818;stroke-width:0.5;" width="59.9102" x="139.4058" y="87.2969"/><text fill="#000000" font-family="sans-serif" font-size="14" lengthAdjust="spacing" textLength="45.9102" x="146.4058" y="107.292">Server</text></g><g class="participant participant-tail" data-entity-uid="part2" data-qualified-name="Server" id="part2-tail"><rect fill="#E2E2F0" height="30.2969" rx="2.5" ry="2.5" style="stroke:#181818;stroke-width:0.5;" width="59.9102" x="139.4058" y="428.9219"/><text fill="#000000" font-family="sans-serif" font-size="14" lengthAdjust="spacing" textLength="45.9102" x="146.4058" y="448.917">Server</text></g><g class="participant participant-head" data-entity-uid="part3" data-qualified-name="FileManager" id="part3-head"><rect fill="#E2E2F0" height="30.2969" rx="2.5" ry="2.5" style="stroke:#181818;stroke-width:0.5;" width="99.8115" x="359.0405" y="87.2969"/><text fill="#000000" font-family="sans-serif" font-size="14" lengthAdjust="spacing" textLength="85.8115" x="366.0405" y="107.292">FileManager</text></g><g class="participant participant-tail" data-entity-uid="part3" data-qualified-name="FileManager" id="part3-tail"><rect fill="#E2E2F0" height="30.2969" rx="2.5" ry="2.5" style="stroke:#181818;stroke-width:0.5;" width="99.8115" x="359.0405" y="428.9219"/><text fill="#000000" font-family="sans-serif" font-size="14" lengthAdjust="spacing" textLength="85.8115" x="366.0405" y="448.917">FileManager</text></g><g class="participant participant-head" data-entity-uid="part4" data-qualified-name="UserData" id="part4-head"><rect fill="#E2E2F0" height="30.2969" rx="2.5" ry="2.5" style="stroke:#181818;stroke-width:0.5;" width="79.3379" x="611.7002" y="87.2969"/><text fill="#000000" font-family="sans-serif" font-size="14" lengthAdjust="spacing" textLength="65.3379" x="618.7002" y="107.292">UserData</text></g><g class="participant participant-tail" data-entity-uid="part4" data-qualified-name="UserData" id="part4-tail"><rect fill="#E2E2F0" height="30.2969" rx="2.5" ry="2.5" style="stroke:#181818;stroke-width:0.5;" width="79.3379" x="611.7002" y="428.9219"/><text fill="#000000" font-family="sans-serif" font-size="14" lengthAdjust="spacing" textLength="65.3379" x="618.7002" y="448.917">UserData</text></g><g class="message" data-entity-1="part1" data-entity-2="part2" id="msg1"><polygon fill="#181818" points="157.3608,145.7266,167.3608,149.7266,157.3608,153.7266,161.3608,149.7266" style="stroke:#181818;stroke-width:1;"/><line style="stroke:#181818;stroke-width:1;" x1="62.3081" x2="163.3608" y1="149.7266" y2="149.7266"/><text fill="#000000" font-family="sans-serif" font-size="13" lengthAdjust="spacing" textLength="83.0527" x="69.3081" y="144.6606">startServer()</text></g><g class="message" data-entity-1="part2" data-entity-2="part3" id="msg2"><polygon fill="#181818" points="396.9463,174.8594,406.9463,178.8594,396.9463,182.8594,400.9463,178.8594" style="stroke:#181818;stroke-width:1;"/><line style="stroke:#181818;stroke-width:1;" x1="169.3608" x2="402.9463" y1="178.8594" y2="178.8594"/><text fill="#000000" font-family="sans-serif" font-size="13" lengthAdjust="spacing" textLength="159.269" x="176.3608" y="173.7935">loadUserData(UserData)</text></g><g class="message" data-entity-1="part3" data-entity-2="part4" id="msg3"><polygon fill="#181818" points="639.3691,203.9922,649.3691,207.9922,639.3691,211.9922,643.3691,207.9922" style="stroke:#181818;stroke-width:1;"/><line style="stroke:#181818;stroke-width:1;" x1="408.9463" x2="645.3691" y1="207.9922" y2="207.9922"/><text fill="#000000" font-family="sans-serif" font-size="13" lengthAdjust="spacing" textLength="93.8755" x="415.9463" y="202.9263">addUser(User)</text></g><g class="message" data-entity-1="part3" data-entity-2="part4" id="msg4"><polygon fill="#181818" points="639.3691,233.125,649.3691,237.125,639.3691,241.125,643.3691,237.125" style="stroke:#181818;stroke-width:1;"/><line style="stroke:#181818;stroke-width:1;" x1="408.9463" x2="645.3691" y1="237.125" y2="237.125"/><text fill="#000000" font-family="sans-serif" font-size="13" lengthAdjust="spacing" textLength="93.8755" x="415.9463" y="232.0591">addUser(User)</text></g><g class="message" data-entity-1="part3" data-entity-2="part4" id="msg5"><polygon fill="#181818" points="639.3691,262.2578,649.3691,266.2578,639.3691,270.2578,643.3691,266.2578" style="stroke:#181818;stroke-width:1;"/><line style="stroke:#181818;stroke-width:1;" x1="408.9463" x2="645.3691" y1="266.2578" y2="266.2578"/><text fill="#000000" font-family="sans-serif" font-size="13" lengthAdjust="spacing" textLength="93.8755" x="415.9463" y="261.1919">addUser(User)</text></g><g class="message" data-entity-1="part2" data-entity-2="part3" id="msg6"><polygon fill="#181818" points="396.9463,291.3906,406.9463,295.3906,396.9463,299.3906,400.9463,295.3906" style="stroke:#181818;stroke-width:1;"/><line style="stroke:#181818;stroke-width:1;" x1="169.3608" x2="402.9463" y1="295.3906" y2="295.3906"/><text fill="#000000" font-family="sans-serif" font-size="13" lengthAdjust="spacing" textLength="215.5854" x="176.3608" y="290.3247">loadConversationData(UserData)</text></g><g class="message" data-entity-1="part3" data-entity-2="part4" id="msg7"><polygon fill="#181818" points="639.3691,320.5234,649.3691,324.5234,639.3691,328.5234,643.3691,324.5234" style="stroke:#181818;stroke-width:1;"/><line style="stroke:#181818;stroke-width:1;" x1="408.9463" x2="645.3691" y1="324.5234" y2="324.5234"/><text fill="#000000" font-family="sans-serif" font-size="13" lengthAdjust="spacing" textLength="218.4229" x="415.9463" y="319.4575">addConversation(conversationID)</text></g><g class="message" data-entity-1="part3" data-entity-2="part4" id="msg8"><polygon fill="#181818" points="639.3691,349.6563,649.3691,353.6563,639.3691,357.6563,643.3691,353.6563" style="stroke:#181818;stroke-width:1;"/><line style="stroke:#181818;stroke-width:1;" x1="408.9463" x2="645.3691" y1="353.6563" y2="353.6563"/><text fill="#000000" font-family="sans-serif" font-size="13" lengthAdjust="spacing" textLength="218.4229" x="415.9463" y="348.5903">addConversation(conversationID)</text></g><g class="message" data-entity-1="part3" data-entity-2="part4" id="msg9"><polygon fill="#181818" points="639.3691,378.7891,649.3691,382.7891,639.3691,386.7891,643.3691,382.7891" style="stroke:#181818;stroke-width:1;"/><line style="stroke:#181818;stroke-width:1;" x1="408.9463" x2="645.3691" y1="382.7891" y2="382.7891"/><text fill="#000000" font-family="sans-serif" font-size="13" lengthAdjust="spacing" textLength="218.4229" x="415.9463" y="377.7231">addConversation(conversationID)</text></g><g class="message" data-entity-1="part2" data-entity-2="part1" id="msg10"><polygon fill="#181818" points="73.3081,407.9219,63.3081,411.9219,73.3081,415.9219,69.3081,411.9219" style="stroke:#181818;stroke-width:1;"/><line style="stroke:#181818;stroke-width:1;stroke-dasharray:2,2;" x1="67.3081" x2="168.3608" y1="411.9219" y2="411.9219"/><text fill="#000000" font-family="sans-serif" font-size="13" lengthAdjust="spacing" textLength="82.5386" x="79.3081" y="406.856">server ready</text></g><?plantuml-src nL712i8m3BttAy9Esy4VyE358GXw6dv0MCCep7QqKTZVctMjL0-287XgylBUIzAmuP7Wv50REy0ba0Uq6lREtia7PECiQ6HK2djs7gfk3anNw1WztwOACEHOJVAOtane6JhoOl027Sn8PxGulE5BqpQsI4QmsIKzR24is9hLZKgm40etOOsoGFQfSz2eaYIQN101wiYFtD_pFivP_kqtyvQwkY-IO_iVvNFBvLxfT7Am5VI4Udu0?></g></svg>