<?plantuml 1.2026.2?><svg xmlns="http://www.w3.org/2000/svg" xmlns:xlink="http://www.w3.org/1999/xlink" contentStyleType="text/css" data-diagram-type="SEQUENCE" height="436px" preserveAspectRatio="none" style="width:524px;height:436px;background:#FFFFFF;" version="1.1" viewBox="0 0 524 436" width="524px" zoomAndPan="magnify"><title>Use Case 2: Logging Out</title><defs/><g><text fill="#000000" font-family="sans-serif" font-size="14" font-weight="bold" lengthAdjust="spacing" textLength="193.5117" x="161.4583" y="27.9951">Use Case 2: Logging Out</text><g class="participant-lifeline" data-entity-uid="part1" data-qualified-name="User" id="part1-lifeline"><g><title>User</title><rect fill="#000000" fill-opacity="0.00000" height="236.9297" width="8" x="19.9551" y="118.5938"/><line style="stroke:#181818;stroke-width:0.5;stroke-dasharray:5,5;" x1="23" x2="23" y1="118.5938" y2="355.5234"/></g></g><g class="participant-lifeline" data-entity-uid="part2" data-qualified-name="GUI" id="part2-lifeline"><g><title>Client GUI</title><rect fill="#000000" fill-opacity="0.00000" height="236.9297" width="8" x="135.7612" y="118.5938"/><line style="stroke:#181818;stroke-width:0.5;stroke-dasharray:5,5;" x1="139.6587" x2="139.6587" y1="118.5938" y2="355.5234"/></g></g><g class="participant-lifeline" data-entity-uid="part3" data-qualified-name="Client" id="part3-lifeline"><g><title>Client App</title><rect fill="#000000" fill-opacity="0.00000" height="236.9297" width="8" x="309.439" y="118.5938"/><line style="stroke:#181818;stroke-width:0.5;stroke-dasharray:5,5;" x1="313.2734" x2="313.2734" y1="118.5938" y2="355.5234"/></g></g><g class="participant-lifeline" data-entity-uid="part4" data-qualified-name="Server" id="part4-lifeline"><g><title>Server</title><rect fill="#000000" fill-opacity="0.00000" height="236.9297" width="8" x="482.4731" y="118.5938"/><line style="stroke:#181818;stroke-width:0.5;stroke-dasharray:5,5;" x1="485.5181" x2="485.5181" y1="118.5938" y2="355.5234"/></g></g><g class="participant participant-head" data-entity-uid="part1" data-qualified-name="User" id="part1-head"><text fill="#000000" font-family="sans-serif" font-size="14" lengthAdjust="spacing" textLength="31.9102" x="5" y="115.292">User</text><ellipse cx="23.9551" cy="50.7969" fill="#E2E2F0" rx="8" ry="8" style="stroke:#181818;stroke-width:0.5;"/><path d="M23.9551,58.7969 L23.9551,85.7969 M10.9551,66.7969 L36.9551,66.7969 M23.9551,85.7969 L10.9551,100.7969 M23.9551,85.7969 L36.9551,100.7969" fill="none" style="stroke:#181818;stroke-width:0.5;"/></g><g class="participant participant-tail" data-entity-uid="part1" data-qualified-name="User" id="part1-tail"><text fill="#000000" font-family="sans-serif" font-size="14" lengthAdjust="spacing" textLength="31.9102" x="5" y="367.5186">User</text><ellipse cx="23.9551" cy="379.3203" fill="#E2E2F0" rx="8" ry="8" style="stroke:#181818;stroke-width:0.5;"/><path d="M23.9551,387.3203 L23.9551,414.3203 M10.9551,395.3203 L36.9551,395.3203 M23.9551,414.3203 L10.9551,429.3203 M23.9551,414.3203 L36.9551,429.3203" fill="none" style="stroke:#181818;stroke-width:0.5;"/></g><g class="participant participant-head" data-entity-uid="part2" data-qualified-name="GUI" id="part2-head"><text fill="#000000" font-family="sans-serif" font-size="14" lengthAdjust="spacing" textLength="70.2051" x="101.6587" y="115.292">Client GUI</text><path d="M119.2612,74.2969 L119.2612,98.2969 M119.2612,86.2969 L136.2612,86.2969" fill="none" style="stroke:#181818;stroke-width:0.5;"/><ellipse cx="148.2612" cy="86.2969" fill="#E2E2F0" rx="12" ry="12" style="stroke:#181818;stroke-width:0.5;"/></g><g class="participant participant-tail" data-entity-uid="part2" data-qualified-name="GUI" id="part2-tail"><text fill="#000000" font-family="sans-serif" font-size="14" lengthAdjust="spacing" textLength="70.2051" x="101.6587" y="367.5186">Client GUI</text><path d="M119.2612,374.8203 L119.2612,398.8203 M119.2612,386.8203 L136.2612,386.8203" fill="none" style="stroke:#181818;stroke-width:0.5;"/><ellipse cx="148.2612" cy="386.8203" fill="#E2E2F0" rx="12" ry="12" style="stroke:#181818;stroke-width:0.5;"/></g><g class="participant participant-head" data-entity-uid="part3" data-qualified-name="Client" id="part3-head"><text fill="#000000" font-family="sans-serif" font-size="14" lengthAdjust="spacing" textLength="72.3311" x="274.2734" y="115.292">Client App</text><ellipse cx="313.439" cy="86.2969" fill="#E2E2F0" rx="12" ry="12" style="stroke:#181818;stroke-width:0.5;"/><polygon fill="#181818" points="309.439,74.2969,315.439,69.2969,313.439,74.2969,315.439,79.2969,309.439,74.2969" style="stroke:#181818;stroke-width:1;"/></g><g class="participant participant-tail" data-entity-uid="part3" data-qualified-name="Client" id="part3-tail"><text fill="#000000" font-family="sans-serif" font-size="14" lengthAdjust="spacing" textLength="72.3311" x="274.2734" y="367.5186">Client App</text><ellipse cx="313.439" cy="386.8203" fill="#E2E2F0" rx="12" ry="12" style="stroke:#181818;stroke-width:0.5;"/><polygon fill="#181818" points="309.439,374.8203,315.439,369.8203,313.439,374.8203,315.439,379.8203,309.439,374.8203" style="stroke:#181818;stroke-width:1;"/></g><g class="participant participant-head" data-entity-uid="part4" data-qualified-name="Server" id="part4-head"><text fill="#000000" font-family="sans-serif" font-size="14" lengthAdjust="spacing" textLength="45.9102" x="460.5181" y="115.292">Server</text><ellipse cx="486.4731" cy="86.2969" fill="#E2E2F0" rx="12" ry="12" style="stroke:#181818;stroke-width:0.5;"/><polygon fill="#181818" points="482.4731,74.2969,488.4731,69.2969,486.4731,74.2969,488.4731,79.2969,482.4731,74.2969" style="stroke:#181818;stroke-width:1;"/></g><g class="participant participant-tail" data-entity-uid="part4" data-qualified-name="Server" id="part4-tail"><text fill="#000000" font-family="sans-serif" font-size="14" lengthAdjust="spacing" textLength="45.9102" x="460.5181" y="367.5186">Server</text><ellipse cx="486.4731" cy="386.8203" fill="#E2E2F0" rx="12" ry="12" style="stroke:#181818;stroke-width:0.5;"/><polygon fill="#181818" points="482.4731,374.8203,488.4731,369.8203,486.4731,374.8203,488.4731,379.8203,482.4731,374.8203" style="stroke:#181818;stroke-width:1;"/></g><rect fill="#EEEEEE" height="3" style="stroke:#EEEEEE;stroke-width:1;" width="517.4282" x="0" y="149.1602"/><line style="stroke:#000000;stroke-width:1;" x1="0" x2="517.4282" y1="149.1602" y2="149.1602"/><line style="stroke:#000000;stroke-width:1;" x1="0" x2="517.4282" y1="152.1602" y2="152.1602"/><rect fill="#EEEEEE" height="23.1328" style="stroke:#000000;stroke-width:2;" width="69.4468" x="223.9907" y="138.5938"/><text fill="#000000" font-family="sans-serif" font-size="13" font-weight="bold" lengthAdjust="spacing" textLength="50.9209" x="229.9907" y="154.6606">Logout</text><g class="message" data-entity-1="part1" data-entity-2="part2" id="msg1"><polygon fill="#181818" points="127.7612,188.8594,137.7612,192.8594,127.7612,196.8594,131.7612,192.8594" style="stroke:#181818;stroke-width:1;"/><line style="stroke:#181818;stroke-width:1;" x1="23.9551" x2="133.7612" y1="192.8594" y2="192.8594"/><text fill="#000000" font-family="sans-serif" font-size="13" lengthAdjust="spacing" textLength="91.8062" x="30.9551" y="187.7935">Click "Logout"</text></g><g class="message" data-entity-1="part2" data-entity-2="part3" id="msg2"><polygon fill="#181818" points="301.439,217.9922,311.439,221.9922,301.439,225.9922,305.439,221.9922" style="stroke:#181818;stroke-width:1;"/><line style="stroke:#181818;stroke-width:1;" x1="139.7612" x2="307.439" y1="221.9922" y2="221.9922"/><text fill="#000000" font-family="sans-serif" font-size="13" lengthAdjust="spacing" textLength="114.8228" x="146.7612" y="216.9263">Logout requested</text></g><g class="message" data-entity-1="part3" data-entity-2="part4" id="msg3"><polygon fill="#181818" points="474.4731,247.125,484.4731,251.125,474.4731,255.125,478.4731,251.125" style="stroke:#181818;stroke-width:1;"/><line style="stroke:#181818;stroke-width:1;stroke-dasharray:2,2;" x1="313.439" x2="480.4731" y1="251.125" y2="251.125"/><text fill="#000000" font-family="sans-serif" font-size="13" lengthAdjust="spacing" textLength="99.9185" x="320.439" y="246.0591">Send User data</text></g><g class="message" data-entity-1="part3" data-entity-2="part3" id="msg4"><line style="stroke:#181818;stroke-width:1;" x1="313.439" x2="355.439" y1="295.3906" y2="295.3906"/><line style="stroke:#181818;stroke-width:1;" x1="355.439" x2="355.439" y1="295.3906" y2="308.3906"/><line style="stroke:#181818;stroke-width:1;" x1="314.439" x2="355.439" y1="308.3906" y2="308.3906"/><polygon fill="#181818" points="324.439,304.3906,314.439,308.3906,324.439,312.3906,320.439,308.3906" style="stroke:#181818;stroke-width:1;"/><text fill="#000000" font-family="sans-serif" font-size="13" lengthAdjust="spacing" textLength="159.0342" x="320.439" y="275.1919">Flush locally stored data</text><text fill="#000000" font-family="sans-serif" font-size="13" lengthAdjust="spacing" textLength="144.625" x="320.439" y="290.3247">(user data, conv data)</text></g><g class="message" data-entity-1="part3" data-entity-2="part2" id="msg5"><polygon fill="#181818" points="150.7612,333.5234,140.7612,337.5234,150.7612,341.5234,146.7612,337.5234" style="stroke:#181818;stroke-width:1;"/><line style="stroke:#181818;stroke-width:1;" x1="144.7612" x2="312.439" y1="337.5234" y2="337.5234"/><text fill="#000000" font-family="sans-serif" font-size="13" lengthAdjust="spacing" textLength="149.6777" x="156.7612" y="332.4575">Return to Login Screen</text></g><?plantuml-src JOz1Ym8n38Nl-HMX9mMzx75W114KOM51yRQNRXl6mPAwQIhuxxVjwEgbJVebxxtgg87mb0WtjXmV7Nx6OHXvmA-i0DPfb8e5Vc9cR-MEkzCURKAp2IEnrjQ0YwmI0pxUtl3wUdtX8ycDfE6fD01zNorZLknxg4wuN5NHhegv2vg96gY-1KswtND9w3TJKlBmC5oMcKcyApVxbXwzLVi_yHBPXfpE6AAp8TmnbS-IRxFVFClFlGMM_BTMpjyqMiO3QHP6ZJNFo7XqGiH_?></g></svg>