<?plantuml 1.2026.2?><svg xmlns="http://www.w3.org/2000/svg" xmlns:xlink="http://www.w3.org/1999/xlink" contentStyleType="text/css" data-diagram-type="SEQUENCE" height="407px" preserveAspectRatio="none" style="width:530px;height:407px;background:#FFFFFF;" version="1.1" viewBox="0 0 530 407" width="530px" zoomAndPan="magnify"><title>Use Case 2: Logging Out</title><defs/><g><text fill="#000000" font-family="sans-serif" font-size="14" font-weight="bold" lengthAdjust="spacing" textLength="193.5117" x="164.7031" y="27.9951">Use Case 2: Logging Out</text><g class="participant-lifeline" data-entity-uid="part1" data-qualified-name="User" id="part1-lifeline"><g><title>User</title><rect fill="#000000" fill-opacity="0.00000" height="207.7969" width="8" x="19.9551" y="118.5938"/><line style="stroke:#181818;stroke-width:0.5;stroke-dasharray:5,5;" x1="23" x2="23" y1="118.5938" y2="326.3906"/></g></g><g class="participant-lifeline" data-entity-uid="part2" data-qualified-name="GUI" id="part2-lifeline"><g><title>Client GUI</title><rect fill="#000000" fill-opacity="0.00000" height="207.7969" width="8" x="135.7612" y="118.5938"/><line style="stroke:#181818;stroke-width:0.5;stroke-dasharray:5,5;" x1="139.6587" x2="139.6587" y1="118.5938" y2="326.3906"/></g></g><g class="participant-lifeline" data-entity-uid="part3" data-qualified-name="Client" id="part3-lifeline"><g><title>Client App</title><rect fill="#000000" fill-opacity="0.00000" height="207.7969" width="8" x="309.439" y="118.5938"/><line style="stroke:#181818;stroke-width:0.5;stroke-dasharray:5,5;" x1="313.2734" x2="313.2734" y1="118.5938" y2="326.3906"/></g></g><g class="participant participant-head" data-entity-uid="part1" data-qualified-name="User" id="part1-head"><text fill="#000000" font-family="sans-serif" font-size="14" lengthAdjust="spacing" textLength="31.9102" x="5" y="115.292">User</text><ellipse cx="23.9551" cy="50.7969" fill="#E2E2F0" rx="8" ry="8" style="stroke:#181818;stroke-width:0.5;"/><path d="M23.9551,58.7969 L23.9551,85.7969 M10.9551,66.7969 L36.9551,66.7969 M23.9551,85.7969 L10.9551,100.7969 M23.9551,85.7969 L36.9551,100.7969" fill="none" style="stroke:#181818;stroke-width:0.5;"/></g><g class="participant participant-tail" data-entity-uid="part1" data-qualified-name="User" id="part1-tail"><text fill="#000000" font-family="sans-serif" font-size="14" lengthAdjust="spacing" textLength="31.9102" x="5" y="338.3857">User</text><ellipse cx="23.9551" cy="350.1875" fill="#E2E2F0" rx="8" ry="8" style="stroke:#181818;stroke-width:0.5;"/><path d="M23.9551,358.1875 L23.9551,385.1875 M10.9551,366.1875 L36.9551,366.1875 M23.9551,385.1875 L10.9551,400.1875 M23.9551,385.1875 L36.9551,400.1875" fill="none" style="stroke:#181818;stroke-width:0.5;"/></g><g class="participant participant-head" data-entity-uid="part2" data-qualified-name="GUI" id="part2-head"><text fill="#000000" font-family="sans-serif" font-size="14" lengthAdjust="spacing" textLength="70.2051" x="101.6587" y="115.292">Client GUI</text><path d="M119.2612,74.2969 L119.2612,98.2969 M119.2612,86.2969 L136.2612,86.2969" fill="none" style="stroke:#181818;stroke-width:0.5;"/><ellipse cx="148.2612" cy="86.2969" fill="#E2E2F0" rx="12" ry="12" style="stroke:#181818;stroke-width:0.5;"/></g><g class="participant participant-tail" data-entity-uid="part2" data-qualified-name="GUI" id="part2-tail"><text fill="#000000" font-family="sans-serif" font-size="14" lengthAdjust="spacing" textLength="70.2051" x="101.6587" y="338.3857">Client GUI</text><path d="M119.2612,345.6875 L119.2612,369.6875 M119.2612,357.6875 L136.2612,357.6875" fill="none" style="stroke:#181818;stroke-width:0.5;"/><ellipse cx="148.2612" cy="357.6875" fill="#E2E2F0" rx="12" ry="12" style="stroke:#181818;stroke-width:0.5;"/></g><g class="participant participant-head" data-entity-uid="part3" data-qualified-name="Client" id="part3-head"><text fill="#000000" font-family="sans-serif" font-size="14" lengthAdjust="spacing" textLength="72.3311" x="274.2734" y="115.292">Client App</text><ellipse cx="313.439" cy="86.2969" fill="#E2E2F0" rx="12" ry="12" style="stroke:#181818;stroke-width:0.5;"/><polygon fill="#181818" points="309.439,74.2969,315.439,69.2969,313.439,74.2969,315.439,79.2969,309.439,74.2969" style="stroke:#181818;stroke-width:1;"/></g><g class="participant participant-tail" data-entity-uid="part3" data-qualified-name="Client" id="part3-tail"><text fill="#000000" font-family="sans-serif" font-size="14" lengthAdjust="spacing" textLength="72.3311" x="274.2734" y="338.3857">Client App</text><ellipse cx="313.439" cy="357.6875" fill="#E2E2F0" rx="12" ry="12" style="stroke:#181818;stroke-width:0.5;"/><polygon fill="#181818" points="309.439,345.6875,315.439,340.6875,313.439,345.6875,315.439,350.6875,309.439,345.6875" style="stroke:#181818;stroke-width:1;"/></g><rect fill="#EEEEEE" height="3" style="stroke:#EEEEEE;stroke-width:1;" width="523.918" x="0" y="149.1602"/><line style="stroke:#000000;stroke-width:1;" x1="0" x2="523.918" y1="149.1602" y2="149.1602"/><line style="stroke:#000000;stroke-width:1;" x1="0" x2="523.918" y1="152.1602" y2="152.1602"/><rect fill="#EEEEEE" height="23.1328" style="stroke:#000000;stroke-width:2;" width="69.4468" x="227.2356" y="138.5938"/><text fill="#000000" font-family="sans-serif" font-size="13" font-weight="bold" lengthAdjust="spacing" textLength="50.9209" x="233.2356" y="154.6606">Logout</text><g class="message" data-entity-1="part1" data-entity-2="part2" id="msg1"><polygon fill="#181818" points="127.7612,188.8594,137.7612,192.8594,127.7612,196.8594,131.7612,192.8594" style="stroke:#181818;stroke-width:1;"/><line style="stroke:#181818;stroke-width:1;" x1="23.9551" x2="133.7612" y1="192.8594" y2="192.8594"/><text fill="#000000" font-family="sans-serif" font-size="13" lengthAdjust="spacing" textLength="91.8062" x="30.9551" y="187.7935">Click "Logout"</text></g><g class="message" data-entity-1="part2" data-entity-2="part3" id="msg2"><polygon fill="#181818" points="301.439,217.9922,311.439,221.9922,301.439,225.9922,305.439,221.9922" style="stroke:#181818;stroke-width:1;"/><line style="stroke:#181818;stroke-width:1;" x1="139.7612" x2="307.439" y1="221.9922" y2="221.9922"/><text fill="#000000" font-family="sans-serif" font-size="13" lengthAdjust="spacing" textLength="114.8228" x="146.7612" y="216.9263">Logout requested</text></g><g class="message" data-entity-1="part3" data-entity-2="part3" id="msg3"><line style="stroke:#181818;stroke-width:1;" x1="313.439" x2="355.439" y1="266.2578" y2="266.2578"/><line style="stroke:#181818;stroke-width:1;" x1="355.439" x2="355.439" y1="266.2578" y2="279.2578"/><line style="stroke:#181818;stroke-width:1;" x1="314.439" x2="355.439" y1="279.2578" y2="279.2578"/><polygon fill="#181818" points="324.439,275.2578,314.439,279.2578,324.439,283.2578,320.439,279.2578" style="stroke:#181818;stroke-width:1;"/><text fill="#000000" font-family="sans-serif" font-size="13" lengthAdjust="spacing" textLength="159.0342" x="320.439" y="246.0591">Flush locally stored data</text><text fill="#000000" font-family="sans-serif" font-size="13" lengthAdjust="spacing" textLength="196.479" x="320.439" y="261.1919">(user data, conv data, tokens)</text></g><g class="message" data-entity-1="part3" data-entity-2="part2" id="msg4"><polygon fill="#181818" points="150.7612,304.3906,140.7612,308.3906,150.7612,312.3906,146.7612,308.3906" style="stroke:#181818;stroke-width:1;"/><line style="stroke:#181818;stroke-width:1;" x1="144.7612" x2="312.439" y1="308.3906" y2="308.3906"/><text fill="#000000" font-family="sans-serif" font-size="13" lengthAdjust="spacing" textLength="149.6777" x="156.7612" y="303.3247">Return to Login Screen</text></g><?plantuml-src JOx12i8m38RlUOhGau9UF0uco40H147nvgLsOOwLLDjKyErjTC8k9UtN_yillNZ2Io9iR3bM5Hv2r_NSuJ4BW7KIek88jv2vjV6DkyiURKBJ-9vOz6h01POOF8vl4xnvF0n0NQitPC6w1jNXSgt9IXDkGFEZ1bHUq2zS_KEHdfcIK0imQYT_jZwdE_hWhFTlJAKmjTXQiLUUPLsbym9BnTSuIXY8qtpY-bOvaUJ8XUhQdl7i8X5_0000?></g></svg>