<?plantuml 1.2026.2?><svg xmlns="http://www.w3.org/2000/svg" xmlns:xlink="http://www.w3.org/1999/xlink" contentStyleType="text/css" data-diagram-type="SEQUENCE" height="1180px" preserveAspectRatio="none" style="width:996px;height:1180px;background:#FFFFFF;" version="1.1" viewBox="0 0 996 1180" width="996px" zoomAndPan="magnify"><title>Use Case 3: Conversation Navigation</title><defs/><g><text fill="#000000" font-family="sans-serif" font-size="14" font-weight="bold" lengthAdjust="spacing" textLength="291.457" x="348.3262" y="27.9951">Use Case 3: Conversation Navigation</text><rect fill="none" height="189.6016" style="stroke:#000000;stroke-width:1.5;" width="455.4678" x="503.6416" y="281.2578"/><rect fill="none" height="483.7344" style="stroke:#000000;stroke-width:1.5;" width="969.1094" x="10" y="599.2578"/><rect fill="none" height="423.4688" style="stroke:#000000;stroke-width:1.5;" width="724.751" x="244.3584" y="652.5234"/><rect fill="none" height="219.8672" style="stroke:#000000;stroke-width:1.5;" width="455.4678" x="503.6416" y="720.9219"/><g class="participant-lifeline" data-entity-uid="part1" data-qualified-name="User" id="part1-lifeline"><g><title>User</title><rect fill="#000000" fill-opacity="0.00000" height="981.3984" width="8" x="34.9551" y="118.5938"/><line style="stroke:#181818;stroke-width:0.5;stroke-dasharray:5,5;" x1="38" x2="38" y1="118.5938" y2="1099.9922"/></g></g><g class="participant-lifeline" data-entity-uid="part2" data-qualified-name="GUI" id="part2-lifeline"><g><title>Client GUI</title><rect fill="#000000" fill-opacity="0.00000" height="981.3984" width="8" x="288.4609" y="118.5938"/><line style="stroke:#181818;stroke-width:0.5;stroke-dasharray:5,5;" x1="292.3584" x2="292.3584" y1="118.5938" y2="1099.9922"/></g></g><g class="participant-lifeline" data-entity-uid="part3" data-qualified-name="Client" id="part3-lifeline"><g><title>Client App</title><rect fill="#000000" fill-opacity="0.00000" height="981.3984" width="8" x="548.8071" y="118.5938"/><line style="stroke:#181818;stroke-width:0.5;stroke-dasharray:5,5;" x1="552.6416" x2="552.6416" y1="118.5938" y2="1099.9922"/></g></g><g class="participant-lifeline" data-entity-uid="part4" data-qualified-name="Server" id="part4-lifeline"><g><title>Server</title><rect fill="#000000" fill-opacity="0.00000" height="981.3984" width="8" x="919.1543" y="118.5938"/><line style="stroke:#181818;stroke-width:0.5;stroke-dasharray:5,5;" x1="922.1992" x2="922.1992" y1="118.5938" y2="1099.9922"/></g></g><g class="participant participant-head" data-entity-uid="part1" data-qualified-name="User" id="part1-head"><text fill="#000000" font-family="sans-serif" font-size="14" lengthAdjust="spacing" textLength="31.9102" x="20" y="115.292">User</text><ellipse cx="38.9551" cy="50.7969" fill="#E2E2F0" rx="8" ry="8" style="stroke:#181818;stroke-width:0.5;"/><path d="M38.9551,58.7969 L38.9551,85.7969 M25.9551,66.7969 L51.9551,66.7969 M38.9551,85.7969 L25.9551,100.7969 M38.9551,85.7969 L51.9551,100.7969" fill="none" style="stroke:#181818;stroke-width:0.5;"/></g><g class="participant participant-tail" data-entity-uid="part1" data-qualified-name="User" id="part1-tail"><text fill="#000000" font-family="sans-serif" font-size="14" lengthAdjust="spacing" textLength="31.9102" x="20" y="1111.9873">User</text><ellipse cx="38.9551" cy="1123.7891" fill="#E2E2F0" rx="8" ry="8" style="stroke:#181818;stroke-width:0.5;"/><path d="M38.9551,1131.7891 L38.9551,1158.7891 M25.9551,1139.7891 L51.9551,1139.7891 M38.9551,1158.7891 L25.9551,1173.7891 M38.9551,1158.7891 L51.9551,1173.7891" fill="none" style="stroke:#181818;stroke-width:0.5;"/></g><g class="participant participant-head" data-entity-uid="part2" data-qualified-name="GUI" id="part2-head"><text fill="#000000" font-family="sans-serif" font-size="14" lengthAdjust="spacing" textLength="70.2051" x="254.3584" y="115.292">Client GUI</text><path d="M271.9609,74.2969 L271.9609,98.2969 M271.9609,86.2969 L288.9609,86.2969" fill="none" style="stroke:#181818;stroke-width:0.5;"/><ellipse cx="300.9609" cy="86.2969" fill="#E2E2F0" rx="12" ry="12" style="stroke:#181818;stroke-width:0.5;"/></g><g class="participant participant-tail" data-entity-uid="part2" data-qualified-name="GUI" id="part2-tail"><text fill="#000000" font-family="sans-serif" font-size="14" lengthAdjust="spacing" textLength="70.2051" x="254.3584" y="1111.9873">Client GUI</text><path d="M271.9609,1119.2891 L271.9609,1143.2891 M271.9609,1131.2891 L288.9609,1131.2891" fill="none" style="stroke:#181818;stroke-width:0.5;"/><ellipse cx="300.9609" cy="1131.2891" fill="#E2E2F0" rx="12" ry="12" style="stroke:#181818;stroke-width:0.5;"/></g><g class="participant participant-head" data-entity-uid="part3" data-qualified-name="Client" id="part3-head"><text fill="#000000" font-family="sans-serif" font-size="14" lengthAdjust="spacing" textLength="72.3311" x="513.6416" y="115.292">Client App</text><ellipse cx="552.8071" cy="86.2969" fill="#E2E2F0" rx="12" ry="12" style="stroke:#181818;stroke-width:0.5;"/><polygon fill="#181818" points="548.8071,74.2969,554.8071,69.2969,552.8071,74.2969,554.8071,79.2969,548.8071,74.2969" style="stroke:#181818;stroke-width:1;"/></g><g class="participant participant-tail" data-entity-uid="part3" data-qualified-name="Client" id="part3-tail"><text fill="#000000" font-family="sans-serif" font-size="14" lengthAdjust="spacing" textLength="72.3311" x="513.6416" y="1111.9873">Client App</text><ellipse cx="552.8071" cy="1131.2891" fill="#E2E2F0" rx="12" ry="12" style="stroke:#181818;stroke-width:0.5;"/><polygon fill="#181818" points="548.8071,1119.2891,554.8071,1114.2891,552.8071,1119.2891,554.8071,1124.2891,548.8071,1119.2891" style="stroke:#181818;stroke-width:1;"/></g><g class="participant participant-head" data-entity-uid="part4" data-qualified-name="Server" id="part4-head"><text fill="#000000" font-family="sans-serif" font-size="14" lengthAdjust="spacing" textLength="45.9102" x="897.1992" y="115.292">Server</text><ellipse cx="923.1543" cy="86.2969" fill="#E2E2F0" rx="12" ry="12" style="stroke:#181818;stroke-width:0.5;"/><polygon fill="#181818" points="919.1543,74.2969,925.1543,69.2969,923.1543,74.2969,925.1543,79.2969,919.1543,74.2969" style="stroke:#181818;stroke-width:1;"/></g><g class="participant participant-tail" data-entity-uid="part4" data-qualified-name="Server" id="part4-tail"><text fill="#000000" font-family="sans-serif" font-size="14" lengthAdjust="spacing" textLength="45.9102" x="897.1992" y="1111.9873">Server</text><ellipse cx="923.1543" cy="1131.2891" fill="#E2E2F0" rx="12" ry="12" style="stroke:#181818;stroke-width:0.5;"/><polygon fill="#181818" points="919.1543,1119.2891,925.1543,1114.2891,923.1543,1119.2891,925.1543,1124.2891,919.1543,1119.2891" style="stroke:#181818;stroke-width:1;"/></g><rect fill="#EEEEEE" height="3" style="stroke:#EEEEEE;stroke-width:1;" width="989.1094" x="0" y="149.1602"/><line style="stroke:#000000;stroke-width:1;" x1="0" x2="989.1094" y1="149.1602" y2="149.1602"/><line style="stroke:#000000;stroke-width:1;" x1="0" x2="989.1094" y1="152.1602" y2="152.1602"/><rect fill="#EEEEEE" height="23.1328" style="stroke:#000000;stroke-width:2;" width="156.4414" x="416.334" y="138.5938"/><text fill="#000000" font-family="sans-serif" font-size="13" font-weight="bold" lengthAdjust="spacing" textLength="137.9155" x="422.334" y="154.6606">Open conversation</text><g class="message" data-entity-1="part1" data-entity-2="part2" id="msg1"><polygon fill="#181818" points="280.4609,188.8594,290.4609,192.8594,280.4609,196.8594,284.4609,192.8594" style="stroke:#181818;stroke-width:1;"/><line style="stroke:#181818;stroke-width:1;" x1="38.9551" x2="286.4609" y1="192.8594" y2="192.8594"/><text fill="#000000" font-family="sans-serif" font-size="13" lengthAdjust="spacing" textLength="229.5059" x="45.9551" y="187.7935">Click conversation (conversationId)</text></g><g class="message" data-entity-1="part2" data-entity-2="part3" id="msg2"><polygon fill="#181818" points="540.8071,233.125,550.8071,237.125,540.8071,241.125,544.8071,237.125" style="stroke:#181818;stroke-width:1;"/><line style="stroke:#181818;stroke-width:1;" x1="292.4609" x2="546.8071" y1="237.125" y2="237.125"/><text fill="#000000" font-family="sans-serif" font-size="13" lengthAdjust="spacing" textLength="175.6079" x="299.4609" y="216.9263">Request conversation view</text><text fill="#000000" font-family="sans-serif" font-size="13" lengthAdjust="spacing" textLength="106.2471" x="299.4609" y="232.0591">(conversationId)</text></g><g class="message" data-entity-1="part3" data-entity-2="part4" id="msg3"><polygon fill="#181818" points="911.1543,262.2578,921.1543,266.2578,911.1543,270.2578,915.1543,266.2578" style="stroke:#181818;stroke-width:1;"/><line style="stroke:#181818;stroke-width:1;" x1="552.8071" x2="917.1543" y1="266.2578" y2="266.2578"/><text fill="#000000" font-family="sans-serif" font-size="13" lengthAdjust="spacing" textLength="346.3472" x="559.8071" y="261.1919">Inform server of conversation switch(conversationID)</text></g><path d="M503.6416,281.2578 L568.0845,281.2578 L568.0845,288.3906 L558.0845,298.3906 L503.6416,298.3906 L503.6416,281.2578" fill="#EEEEEE" style="stroke:#000000;stroke-width:1.5;"/><rect fill="none" height="189.6016" style="stroke:#000000;stroke-width:1.5;" width="455.4678" x="503.6416" y="281.2578"/><text fill="#000000" font-family="sans-serif" font-size="13" font-weight="bold" lengthAdjust="spacing" textLength="19.4429" x="518.6416" y="294.3247">alt</text><text fill="#000000" font-family="sans-serif" font-size="11" font-weight="bold" lengthAdjust="spacing" textLength="340.3716" x="583.0845" y="293.4683">[Client has &lt; 200 messages loaded for conversationId]</text><g class="message" data-entity-1="part3" data-entity-2="part4" id="msg4"><polygon fill="#181818" points="911.1543,315.5234,921.1543,319.5234,911.1543,323.5234,915.1543,319.5234" style="stroke:#181818;stroke-width:1;"/><line style="stroke:#181818;stroke-width:1;" x1="552.8071" x2="917.1543" y1="319.5234" y2="319.5234"/><text fill="#000000" font-family="sans-serif" font-size="13" lengthAdjust="spacing" textLength="311.2446" x="559.8071" y="314.4575">GetRecentMessages(conversationId, limit=200)</text></g><g class="message" data-entity-1="part4" data-entity-2="part3" id="msg5"><polygon fill="#181818" points="563.8071,359.7891,553.8071,363.7891,563.8071,367.7891,559.8071,363.7891" style="stroke:#181818;stroke-width:1;"/><line style="stroke:#181818;stroke-width:1;stroke-dasharray:2,2;" x1="557.8071" x2="922.1543" y1="363.7891" y2="363.7891"/><text fill="#000000" font-family="sans-serif" font-size="13" lengthAdjust="spacing" textLength="213.0781" x="569.8071" y="343.5903">Most recent up to 200 messages</text><text fill="#000000" font-family="sans-serif" font-size="13" lengthAdjust="spacing" textLength="154.2734" x="569.8071" y="358.7231">(or fewer if total &lt; 200)</text></g><g class="message" data-entity-1="part3" data-entity-2="part3" id="msg6"><line style="stroke:#181818;stroke-width:1;" x1="552.8071" x2="594.8071" y1="392.9219" y2="392.9219"/><line style="stroke:#181818;stroke-width:1;" x1="594.8071" x2="594.8071" y1="392.9219" y2="405.9219"/><line style="stroke:#181818;stroke-width:1;" x1="553.8071" x2="594.8071" y1="405.9219" y2="405.9219"/><polygon fill="#181818" points="563.8071,401.9219,553.8071,405.9219,563.8071,409.9219,559.8071,405.9219" style="stroke:#181818;stroke-width:1;"/><text fill="#000000" font-family="sans-serif" font-size="13" lengthAdjust="spacing" textLength="250.7388" x="559.8071" y="387.856">Store messages in conversation cache</text></g><line style="stroke:#000000;stroke-width:1;stroke-dasharray:2,2;" x1="503.6416" x2="959.1094" y1="414.9219" y2="414.9219"/><text fill="#000000" font-family="sans-serif" font-size="11" font-weight="bold" lengthAdjust="spacing" textLength="283.3789" x="508.6416" y="425.1323">[Client already has enough messages loaded]</text><g class="message" data-entity-1="part3" data-entity-2="part3" id="msg7"><line style="stroke:#181818;stroke-width:1;" x1="552.8071" x2="594.8071" y1="449.8594" y2="449.8594"/><line style="stroke:#181818;stroke-width:1;" x1="594.8071" x2="594.8071" y1="449.8594" y2="462.8594"/><line style="stroke:#181818;stroke-width:1;" x1="553.8071" x2="594.8071" y1="462.8594" y2="462.8594"/><polygon fill="#181818" points="563.8071,458.8594,553.8071,462.8594,563.8071,466.8594,559.8071,462.8594" style="stroke:#181818;stroke-width:1;"/><text fill="#000000" font-family="sans-serif" font-size="13" lengthAdjust="spacing" textLength="268.0298" x="559.8071" y="444.7935">Read messages from conversation cache</text></g><g class="message" data-entity-1="part3" data-entity-2="part2" id="msg8"><polygon fill="#181818" points="303.4609,494.9922,293.4609,498.9922,303.4609,502.9922,299.4609,498.9922" style="stroke:#181818;stroke-width:1;"/><line style="stroke:#181818;stroke-width:1;stroke-dasharray:2,2;" x1="297.4609" x2="551.8071" y1="498.9922" y2="498.9922"/><text fill="#000000" font-family="sans-serif" font-size="13" lengthAdjust="spacing" textLength="190.3218" x="309.4609" y="493.9263">Provide messages for display</text></g><g class="message" data-entity-1="part2" data-entity-2="part2" id="msg9"><line style="stroke:#181818;stroke-width:1;" x1="292.4609" x2="334.4609" y1="528.125" y2="528.125"/><line style="stroke:#181818;stroke-width:1;" x1="334.4609" x2="334.4609" y1="528.125" y2="541.125"/><line style="stroke:#181818;stroke-width:1;" x1="293.4609" x2="334.4609" y1="541.125" y2="541.125"/><polygon fill="#181818" points="303.4609,537.125,293.4609,541.125,303.4609,545.125,299.4609,541.125" style="stroke:#181818;stroke-width:1;"/><text fill="#000000" font-family="sans-serif" font-size="13" lengthAdjust="spacing" textLength="116.1938" x="299.4609" y="523.0591">Render messages</text></g><rect fill="#EEEEEE" height="3" style="stroke:#EEEEEE;stroke-width:1;" width="989.1094" x="0" y="569.6914"/><line style="stroke:#000000;stroke-width:1;" x1="0" x2="989.1094" y1="569.6914" y2="569.6914"/><line style="stroke:#000000;stroke-width:1;" x1="0" x2="989.1094" y1="572.6914" y2="572.6914"/><rect fill="#EEEEEE" height="23.1328" style="stroke:#000000;stroke-width:2;" width="299.3398" x="344.8848" y="559.125"/><text fill="#000000" font-family="sans-serif" font-size="13" font-weight="bold" lengthAdjust="spacing" textLength="280.814" x="350.8848" y="575.1919">Infinite scroll / paging older messages</text><path d="M10,599.2578 L86.624,599.2578 L86.624,606.3906 L76.624,616.3906 L10,616.3906 L10,599.2578" fill="#EEEEEE" style="stroke:#000000;stroke-width:1.5;"/><rect fill="none" height="483.7344" style="stroke:#000000;stroke-width:1.5;" width="969.1094" x="10" y="599.2578"/><text fill="#000000" font-family="sans-serif" font-size="13" font-weight="bold" lengthAdjust="spacing" textLength="31.624" x="25" y="612.3247">loop</text><text fill="#000000" font-family="sans-serif" font-size="11" font-weight="bold" lengthAdjust="spacing" textLength="311.0884" x="101.624" y="611.4683">[User scrolls up (load older messages as needed)]</text><g class="message" data-entity-1="part1" data-entity-2="part2" id="msg10"><polygon fill="#181818" points="280.4609,633.5234,290.4609,637.5234,280.4609,641.5234,284.4609,637.5234" style="stroke:#181818;stroke-width:1;"/><line style="stroke:#181818;stroke-width:1;" x1="38.9551" x2="286.4609" y1="637.5234" y2="637.5234"/><text fill="#000000" font-family="sans-serif" font-size="13" lengthAdjust="spacing" textLength="56.5449" x="45.9551" y="632.4575">Scroll up</text></g><path d="M244.3584,652.5234 L308.8013,652.5234 L308.8013,659.6563 L298.8013,669.6563 L244.3584,669.6563 L244.3584,652.5234" fill="#EEEEEE" style="stroke:#000000;stroke-width:1.5;"/><rect fill="none" height="423.4688" style="stroke:#000000;stroke-width:1.5;" width="724.751" x="244.3584" y="652.5234"/><text fill="#000000" font-family="sans-serif" font-size="13" font-weight="bold" lengthAdjust="spacing" textLength="19.4429" x="259.3584" y="665.5903">alt</text><text fill="#000000" font-family="sans-serif" font-size="11" font-weight="bold" lengthAdjust="spacing" textLength="409.3149" x="323.8013" y="664.7339">[Scroll position &gt;= 80% through loaded messages (toward older)]</text><g class="message" data-entity-1="part2" data-entity-2="part3" id="msg11"><polygon fill="#181818" points="540.8071,701.9219,550.8071,705.9219,540.8071,709.9219,544.8071,705.9219" style="stroke:#181818;stroke-width:1;"/><line style="stroke:#181818;stroke-width:1;" x1="292.4609" x2="546.8071" y1="705.9219" y2="705.9219"/><text fill="#000000" font-family="sans-serif" font-size="13" lengthAdjust="spacing" textLength="160.0117" x="299.4609" y="685.7231">Request older messages</text><text fill="#000000" font-family="sans-serif" font-size="13" lengthAdjust="spacing" textLength="106.2471" x="299.4609" y="700.856">(conversationId)</text></g><path d="M503.6416,720.9219 L568.0845,720.9219 L568.0845,728.0547 L558.0845,738.0547 L503.6416,738.0547 L503.6416,720.9219" fill="#EEEEEE" style="stroke:#000000;stroke-width:1.5;"/><rect fill="none" height="219.8672" style="stroke:#000000;stroke-width:1.5;" width="455.4678" x="503.6416" y="720.9219"/><text fill="#000000" font-family="sans-serif" font-size="13" font-weight="bold" lengthAdjust="spacing" textLength="19.4429" x="518.6416" y="733.9888">alt</text><text fill="#000000" font-family="sans-serif" font-size="11" font-weight="bold" lengthAdjust="spacing" textLength="255.3203" x="583.0845" y="733.1323">[Client needs more (not already cached)]</text><g class="message" data-entity-1="part3" data-entity-2="part4" id="msg12"><polygon fill="#181818" points="911.1543,785.4531,921.1543,789.4531,911.1543,793.4531,915.1543,789.4531" style="stroke:#181818;stroke-width:1;"/><line style="stroke:#181818;stroke-width:1;" x1="552.8071" x2="917.1543" y1="789.4531" y2="789.4531"/><text fill="#000000" font-family="sans-serif" font-size="13" lengthAdjust="spacing" textLength="227.665" x="559.8071" y="754.1216">GetOlderMessages(conversationId,</text><text fill="#000000" font-family="sans-serif" font-size="13" lengthAdjust="spacing" textLength="236.9834" x="563.9395" y="769.2544">olderThan=oldestLoadedMessageId,</text><text fill="#000000" font-family="sans-serif" font-size="13" lengthAdjust="spacing" textLength="69.3735" x="563.9395" y="784.3872">limit=200)</text></g><g class="message" data-entity-1="part4" data-entity-2="part3" id="msg13"><polygon fill="#181818" points="563.8071,829.7188,553.8071,833.7188,563.8071,837.7188,559.8071,833.7188" style="stroke:#181818;stroke-width:1;"/><line style="stroke:#181818;stroke-width:1;stroke-dasharray:2,2;" x1="557.8071" x2="922.1543" y1="833.7188" y2="833.7188"/><text fill="#000000" font-family="sans-serif" font-size="13" lengthAdjust="spacing" textLength="170.5171" x="569.8071" y="813.52">Up to 200 older messages</text><text fill="#000000" font-family="sans-serif" font-size="13" lengthAdjust="spacing" textLength="138.4233" x="569.8071" y="828.6528">(or fewer if none left)</text></g><g class="message" data-entity-1="part3" data-entity-2="part3" id="msg14"><line style="stroke:#181818;stroke-width:1;" x1="552.8071" x2="594.8071" y1="862.8516" y2="862.8516"/><line style="stroke:#181818;stroke-width:1;" x1="594.8071" x2="594.8071" y1="862.8516" y2="875.8516"/><line style="stroke:#181818;stroke-width:1;" x1="553.8071" x2="594.8071" y1="875.8516" y2="875.8516"/><polygon fill="#181818" points="563.8071,871.8516,553.8071,875.8516,563.8071,879.8516,559.8071,875.8516" style="stroke:#181818;stroke-width:1;"/><text fill="#000000" font-family="sans-serif" font-size="13" lengthAdjust="spacing" textLength="216.3218" x="559.8071" y="857.7856">Append older messages to cache</text></g><line style="stroke:#000000;stroke-width:1;stroke-dasharray:2,2;" x1="503.6416" x2="959.1094" y1="884.8516" y2="884.8516"/><text fill="#000000" font-family="sans-serif" font-size="11" font-weight="bold" lengthAdjust="spacing" textLength="270.7515" x="508.6416" y="895.062">[Client already has older messages cached]</text><g class="message" data-entity-1="part3" data-entity-2="part3" id="msg15"><line style="stroke:#181818;stroke-width:1;" x1="552.8071" x2="594.8071" y1="919.7891" y2="919.7891"/><line style="stroke:#181818;stroke-width:1;" x1="594.8071" x2="594.8071" y1="919.7891" y2="932.7891"/><line style="stroke:#181818;stroke-width:1;" x1="553.8071" x2="594.8071" y1="932.7891" y2="932.7891"/><polygon fill="#181818" points="563.8071,928.7891,553.8071,932.7891,563.8071,936.7891,559.8071,932.7891" style="stroke:#181818;stroke-width:1;"/><text fill="#000000" font-family="sans-serif" font-size="13" lengthAdjust="spacing" textLength="217.1724" x="559.8071" y="914.7231">Read older messages from cache</text></g><g class="message" data-entity-1="part3" data-entity-2="part2" id="msg16"><polygon fill="#181818" points="303.4609,964.9219,293.4609,968.9219,303.4609,972.9219,299.4609,968.9219" style="stroke:#181818;stroke-width:1;"/><line style="stroke:#181818;stroke-width:1;stroke-dasharray:2,2;" x1="297.4609" x2="551.8071" y1="968.9219" y2="968.9219"/><text fill="#000000" font-family="sans-serif" font-size="13" lengthAdjust="spacing" textLength="186.7163" x="309.4609" y="963.856">Provide additional messages</text></g><g class="message" data-entity-1="part2" data-entity-2="part2" id="msg17"><line style="stroke:#181818;stroke-width:1;" x1="292.4609" x2="334.4609" y1="998.0547" y2="998.0547"/><line style="stroke:#181818;stroke-width:1;" x1="334.4609" x2="334.4609" y1="998.0547" y2="1011.0547"/><line style="stroke:#181818;stroke-width:1;" x1="293.4609" x2="334.4609" y1="1011.0547" y2="1011.0547"/><polygon fill="#181818" points="303.4609,1007.0547,293.4609,1011.0547,303.4609,1015.0547,299.4609,1011.0547" style="stroke:#181818;stroke-width:1;"/><text fill="#000000" font-family="sans-serif" font-size="13" lengthAdjust="spacing" textLength="211.7959" x="299.4609" y="992.9888">Prepend older messages to view</text></g><line style="stroke:#000000;stroke-width:1;stroke-dasharray:2,2;" x1="244.3584" x2="969.1094" y1="1020.0547" y2="1020.0547"/><text fill="#000000" font-family="sans-serif" font-size="11" font-weight="bold" lengthAdjust="spacing" textLength="127.4292" x="249.3584" y="1030.2651">[Not near threshold]</text><g class="message" data-entity-1="part2" data-entity-2="part2" id="msg18"><line style="stroke:#181818;stroke-width:1;" x1="292.4609" x2="334.4609" y1="1054.9922" y2="1054.9922"/><line style="stroke:#181818;stroke-width:1;" x1="334.4609" x2="334.4609" y1="1054.9922" y2="1067.9922"/><line style="stroke:#181818;stroke-width:1;" x1="293.4609" x2="334.4609" y1="1067.9922" y2="1067.9922"/><polygon fill="#181818" points="303.4609,1063.9922,293.4609,1067.9922,303.4609,1071.9922,299.4609,1067.9922" style="stroke:#181818;stroke-width:1;"/><text fill="#000000" font-family="sans-serif" font-size="13" lengthAdjust="spacing" textLength="246.3462" x="299.4609" y="1049.9263">Continue displaying loaded messages</text></g><?plantuml-src TPNRYjim48RlzHH3e910buRsfeHweQIm1Bgx9UdUxOrgZsDHHN8b9I5ltnbPZW-90mcoD8T_PZuvGGMDyEOHrf9-lgnWRSq9dPT1MGClygJsSIc4p8DrREh47tiqXNGNU7hRWFGmMsk59l3ZJEJM16SrfBtUyVUwxevtw2XFF6wMCo6o35vhD93tDMIPuAJmyCZnLnmt_piqcVUVDiL2i2woR_AkO8l_ZkZ3qEcayFnkRbn54alkZQuLR4nftG5yezYMmpZ-h49U3UFyM0YfGzk2Yehy1f-NIpYWztAF7hIL1HP0SM4eG03S2dZ2iCMSDf-J_qZrHz3ge496AHOK8BNseTU1PqlbknW3ZZK4Ev13RI0X9Px9IvLq6gHk52y6UjfeEo81ksBKQ6Avp2iKg9cg185sA8jBx0GQUznNurRSpRCbfywmTFPmDv4fkgcrbFnozgIAdaXkTQ5yhUMbnICQRicTocxj8eGqS6LKGF0veQhX4zHohymUhExRCfhQsZfUYcJhkRrphcbiJAKRH2gLUpeWUjTaETQ2JfYRj55RhsATZnbyNNw0KBdOkWJFDV8ysBDqAI571vYu04D9T-XdtnwvBDZ3WQSzDxQROsnyCfy0zfLJJV7wRXeflojfCbxvy3CMbHmQam7K_Ba3zjiLvflQ-aWRQn0qbk5MSnk9taw4mdXg5BoXZ9sca1xvDDsPJ1If7haqR7U96Ec-znXhMHGH3RgdLt9xSq-sE54Hl_f4AkV5yfYbOxhGLsHy4uZ-4e8oHspl3z-44OEYqKpV_m00?></g></svg>