<?plantuml 1.2026.2?><svg xmlns="http://www.w3.org/2000/svg" xmlns:xlink="http://www.w3.org/1999/xlink" contentStyleType="text/css" data-diagram-type="SEQUENCE" height="1151px" preserveAspectRatio="none" style="width:961px;height:1151px;background:#FFFFFF;" version="1.1" viewBox="0 0 961 1151" width="961px" zoomAndPan="magnify"><title>Use Case 3: Conversation Navigation</title><defs/><g><text fill="#000000" font-family="sans-serif" font-size="14" font-weight="bold" lengthAdjust="spacing" textLength="291.457" x="330.7749" y="27.9951">Use Case 3: Conversation Navigation</text><rect fill="none" height="189.6016" style="stroke:#000000;stroke-width:1.5;" width="424.8145" x="503.6416" y="252.125"/><rect fill="none" height="483.7344" style="stroke:#000000;stroke-width:1.5;" width="934.0068" x="10" y="570.125"/><rect fill="none" height="423.4688" style="stroke:#000000;stroke-width:1.5;" width="689.6484" x="244.3584" y="623.3906"/><rect fill="none" height="219.8672" style="stroke:#000000;stroke-width:1.5;" width="420.3652" x="503.6416" y="691.7891"/><g class="participant-lifeline" data-entity-uid="part1" data-qualified-name="User" id="part1-lifeline"><g><title>User</title><rect fill="#000000" fill-opacity="0.00000" height="952.2656" width="8" x="34.9551" y="118.5938"/><line style="stroke:#181818;stroke-width:0.5;stroke-dasharray:5,5;" x1="38" x2="38" y1="118.5938" y2="1070.8594"/></g></g><g class="participant-lifeline" data-entity-uid="part2" data-qualified-name="GUI" id="part2-lifeline"><g><title>Client GUI</title><rect fill="#000000" fill-opacity="0.00000" height="952.2656" width="8" x="288.4609" y="118.5938"/><line style="stroke:#181818;stroke-width:0.5;stroke-dasharray:5,5;" x1="292.3584" x2="292.3584" y1="118.5938" y2="1070.8594"/></g></g><g class="participant-lifeline" data-entity-uid="part3" data-qualified-name="Client" id="part3-lifeline"><g><title>Client App</title><rect fill="#000000" fill-opacity="0.00000" height="952.2656" width="8" x="548.8071" y="118.5938"/><line style="stroke:#181818;stroke-width:0.5;stroke-dasharray:5,5;" x1="552.6416" x2="552.6416" y1="118.5938" y2="1070.8594"/></g></g><g class="participant-lifeline" data-entity-uid="part4" data-qualified-name="Server" id="part4-lifeline"><g><title>Server</title><rect fill="#000000" fill-opacity="0.00000" height="952.2656" width="8" x="884.0518" y="118.5938"/><line style="stroke:#181818;stroke-width:0.5;stroke-dasharray:5,5;" x1="887.0967" x2="887.0967" y1="118.5938" y2="1070.8594"/></g></g><g class="participant participant-head" data-entity-uid="part1" data-qualified-name="User" id="part1-head"><text fill="#000000" font-family="sans-serif" font-size="14" lengthAdjust="spacing" textLength="31.9102" x="20" y="115.292">User</text><ellipse cx="38.9551" cy="50.7969" fill="#E2E2F0" rx="8" ry="8" style="stroke:#181818;stroke-width:0.5;"/><path d="M38.9551,58.7969 L38.9551,85.7969 M25.9551,66.7969 L51.9551,66.7969 M38.9551,85.7969 L25.9551,100.7969 M38.9551,85.7969 L51.9551,100.7969" fill="none" style="stroke:#181818;stroke-width:0.5;"/></g><g class="participant participant-tail" data-entity-uid="part1" data-qualified-name="User" id="part1-tail"><text fill="#000000" font-family="sans-serif" font-size="14" lengthAdjust="spacing" textLength="31.9102" x="20" y="1082.8545">User</text><ellipse cx="38.9551" cy="1094.6563" fill="#E2E2F0" rx="8" ry="8" style="stroke:#181818;stroke-width:0.5;"/><path d="M38.9551,1102.6563 L38.9551,1129.6563 M25.9551,1110.6563 L51.9551,1110.6563 M38.9551,1129.6563 L25.9551,1144.6563 M38.9551,1129.6563 L51.9551,1144.6563" fill="none" style="stroke:#181818;stroke-width:0.5;"/></g><g class="participant participant-head" data-entity-uid="part2" data-qualified-name="GUI" id="part2-head"><text fill="#000000" font-family="sans-serif" font-size="14" lengthAdjust="spacing" textLength="70.2051" x="254.3584" y="115.292">Client GUI</text><path d="M271.9609,74.2969 L271.9609,98.2969 M271.9609,86.2969 L288.9609,86.2969" fill="none" style="stroke:#181818;stroke-width:0.5;"/><ellipse cx="300.9609" cy="86.2969" fill="#E2E2F0" rx="12" ry="12" style="stroke:#181818;stroke-width:0.5;"/></g><g class="participant participant-tail" data-entity-uid="part2" data-qualified-name="GUI" id="part2-tail"><text fill="#000000" font-family="sans-serif" font-size="14" lengthAdjust="spacing" textLength="70.2051" x="254.3584" y="1082.8545">Client GUI</text><path d="M271.9609,1090.1563 L271.9609,1114.1563 M271.9609,1102.1563 L288.9609,1102.1563" fill="none" style="stroke:#181818;stroke-width:0.5;"/><ellipse cx="300.9609" cy="1102.1563" fill="#E2E2F0" rx="12" ry="12" style="stroke:#181818;stroke-width:0.5;"/></g><g class="participant participant-head" data-entity-uid="part3" data-qualified-name="Client" id="part3-head"><text fill="#000000" font-family="sans-serif" font-size="14" lengthAdjust="spacing" textLength="72.3311" x="513.6416" y="115.292">Client App</text><ellipse cx="552.8071" cy="86.2969" fill="#E2E2F0" rx="12" ry="12" style="stroke:#181818;stroke-width:0.5;"/><polygon fill="#181818" points="548.8071,74.2969,554.8071,69.2969,552.8071,74.2969,554.8071,79.2969,548.8071,74.2969" style="stroke:#181818;stroke-width:1;"/></g><g class="participant participant-tail" data-entity-uid="part3" data-qualified-name="Client" id="part3-tail"><text fill="#000000" font-family="sans-serif" font-size="14" lengthAdjust="spacing" textLength="72.3311" x="513.6416" y="1082.8545">Client App</text><ellipse cx="552.8071" cy="1102.1563" fill="#E2E2F0" rx="12" ry="12" style="stroke:#181818;stroke-width:0.5;"/><polygon fill="#181818" points="548.8071,1090.1563,554.8071,1085.1563,552.8071,1090.1563,554.8071,1095.1563,548.8071,1090.1563" style="stroke:#181818;stroke-width:1;"/></g><g class="participant participant-head" data-entity-uid="part4" data-qualified-name="Server" id="part4-head"><text fill="#000000" font-family="sans-serif" font-size="14" lengthAdjust="spacing" textLength="45.9102" x="862.0967" y="115.292">Server</text><ellipse cx="888.0518" cy="86.2969" fill="#E2E2F0" rx="12" ry="12" style="stroke:#181818;stroke-width:0.5;"/><polygon fill="#181818" points="884.0518,74.2969,890.0518,69.2969,888.0518,74.2969,890.0518,79.2969,884.0518,74.2969" style="stroke:#181818;stroke-width:1;"/></g><g class="participant participant-tail" data-entity-uid="part4" data-qualified-name="Server" id="part4-tail"><text fill="#000000" font-family="sans-serif" font-size="14" lengthAdjust="spacing" textLength="45.9102" x="862.0967" y="1082.8545">Server</text><ellipse cx="888.0518" cy="1102.1563" fill="#E2E2F0" rx="12" ry="12" style="stroke:#181818;stroke-width:0.5;"/><polygon fill="#181818" points="884.0518,1090.1563,890.0518,1085.1563,888.0518,1090.1563,890.0518,1095.1563,884.0518,1090.1563" style="stroke:#181818;stroke-width:1;"/></g><rect fill="#EEEEEE" height="3" style="stroke:#EEEEEE;stroke-width:1;" width="954.0068" x="0" y="149.1602"/><line style="stroke:#000000;stroke-width:1;" x1="0" x2="954.0068" y1="149.1602" y2="149.1602"/><line style="stroke:#000000;stroke-width:1;" x1="0" x2="954.0068" y1="152.1602" y2="152.1602"/><rect fill="#EEEEEE" height="23.1328" style="stroke:#000000;stroke-width:2;" width="156.4414" x="398.7827" y="138.5938"/><text fill="#000000" font-family="sans-serif" font-size="13" font-weight="bold" lengthAdjust="spacing" textLength="137.9155" x="404.7827" y="154.6606">Open conversation</text><g class="message" data-entity-1="part1" data-entity-2="part2" id="msg1"><polygon fill="#181818" points="280.4609,188.8594,290.4609,192.8594,280.4609,196.8594,284.4609,192.8594" style="stroke:#181818;stroke-width:1;"/><line style="stroke:#181818;stroke-width:1;" x1="38.9551" x2="286.4609" y1="192.8594" y2="192.8594"/><text fill="#000000" font-family="sans-serif" font-size="13" lengthAdjust="spacing" textLength="229.5059" x="45.9551" y="187.7935">Click conversation (conversationId)</text></g><g class="message" data-entity-1="part2" data-entity-2="part3" id="msg2"><polygon fill="#181818" points="540.8071,233.125,550.8071,237.125,540.8071,241.125,544.8071,237.125" style="stroke:#181818;stroke-width:1;"/><line style="stroke:#181818;stroke-width:1;" x1="292.4609" x2="546.8071" y1="237.125" y2="237.125"/><text fill="#000000" font-family="sans-serif" font-size="13" lengthAdjust="spacing" textLength="175.6079" x="299.4609" y="216.9263">Request conversation view</text><text fill="#000000" font-family="sans-serif" font-size="13" lengthAdjust="spacing" textLength="106.2471" x="299.4609" y="232.0591">(conversationId)</text></g><path d="M503.6416,252.125 L568.0845,252.125 L568.0845,259.2578 L558.0845,269.2578 L503.6416,269.2578 L503.6416,252.125" fill="#EEEEEE" style="stroke:#000000;stroke-width:1.5;"/><rect fill="none" height="189.6016" style="stroke:#000000;stroke-width:1.5;" width="424.8145" x="503.6416" y="252.125"/><text fill="#000000" font-family="sans-serif" font-size="13" font-weight="bold" lengthAdjust="spacing" textLength="19.4429" x="518.6416" y="265.1919">alt</text><text fill="#000000" font-family="sans-serif" font-size="11" font-weight="bold" lengthAdjust="spacing" textLength="340.3716" x="583.0845" y="264.3354">[Client has &lt; 200 messages loaded for conversationId]</text><g class="message" data-entity-1="part3" data-entity-2="part4" id="msg3"><polygon fill="#181818" points="876.0518,286.3906,886.0518,290.3906,876.0518,294.3906,880.0518,290.3906" style="stroke:#181818;stroke-width:1;"/><line style="stroke:#181818;stroke-width:1;" x1="552.8071" x2="882.0518" y1="290.3906" y2="290.3906"/><text fill="#000000" font-family="sans-serif" font-size="13" lengthAdjust="spacing" textLength="311.2446" x="559.8071" y="285.3247">GetRecentMessages(conversationId, limit=200)</text></g><g class="message" data-entity-1="part4" data-entity-2="part3" id="msg4"><polygon fill="#181818" points="563.8071,330.6563,553.8071,334.6563,563.8071,338.6563,559.8071,334.6563" style="stroke:#181818;stroke-width:1;"/><line style="stroke:#181818;stroke-width:1;stroke-dasharray:2,2;" x1="557.8071" x2="887.0518" y1="334.6563" y2="334.6563"/><text fill="#000000" font-family="sans-serif" font-size="13" lengthAdjust="spacing" textLength="213.0781" x="569.8071" y="314.4575">Most recent up to 200 messages</text><text fill="#000000" font-family="sans-serif" font-size="13" lengthAdjust="spacing" textLength="154.2734" x="569.8071" y="329.5903">(or fewer if total &lt; 200)</text></g><g class="message" data-entity-1="part3" data-entity-2="part3" id="msg5"><line style="stroke:#181818;stroke-width:1;" x1="552.8071" x2="594.8071" y1="363.7891" y2="363.7891"/><line style="stroke:#181818;stroke-width:1;" x1="594.8071" x2="594.8071" y1="363.7891" y2="376.7891"/><line style="stroke:#181818;stroke-width:1;" x1="553.8071" x2="594.8071" y1="376.7891" y2="376.7891"/><polygon fill="#181818" points="563.8071,372.7891,553.8071,376.7891,563.8071,380.7891,559.8071,376.7891" style="stroke:#181818;stroke-width:1;"/><text fill="#000000" font-family="sans-serif" font-size="13" lengthAdjust="spacing" textLength="250.7388" x="559.8071" y="358.7231">Store messages in conversation cache</text></g><line style="stroke:#000000;stroke-width:1;stroke-dasharray:2,2;" x1="503.6416" x2="928.4561" y1="385.7891" y2="385.7891"/><text fill="#000000" font-family="sans-serif" font-size="11" font-weight="bold" lengthAdjust="spacing" textLength="283.3789" x="508.6416" y="395.9995">[Client already has enough messages loaded]</text><g class="message" data-entity-1="part3" data-entity-2="part3" id="msg6"><line style="stroke:#181818;stroke-width:1;" x1="552.8071" x2="594.8071" y1="420.7266" y2="420.7266"/><line style="stroke:#181818;stroke-width:1;" x1="594.8071" x2="594.8071" y1="420.7266" y2="433.7266"/><line style="stroke:#181818;stroke-width:1;" x1="553.8071" x2="594.8071" y1="433.7266" y2="433.7266"/><polygon fill="#181818" points="563.8071,429.7266,553.8071,433.7266,563.8071,437.7266,559.8071,433.7266" style="stroke:#181818;stroke-width:1;"/><text fill="#000000" font-family="sans-serif" font-size="13" lengthAdjust="spacing" textLength="268.0298" x="559.8071" y="415.6606">Read messages from conversation cache</text></g><g class="message" data-entity-1="part3" data-entity-2="part2" id="msg7"><polygon fill="#181818" points="303.4609,465.8594,293.4609,469.8594,303.4609,473.8594,299.4609,469.8594" style="stroke:#181818;stroke-width:1;"/><line style="stroke:#181818;stroke-width:1;stroke-dasharray:2,2;" x1="297.4609" x2="551.8071" y1="469.8594" y2="469.8594"/><text fill="#000000" font-family="sans-serif" font-size="13" lengthAdjust="spacing" textLength="190.3218" x="309.4609" y="464.7935">Provide messages for display</text></g><g class="message" data-entity-1="part2" data-entity-2="part2" id="msg8"><line style="stroke:#181818;stroke-width:1;" x1="292.4609" x2="334.4609" y1="498.9922" y2="498.9922"/><line style="stroke:#181818;stroke-width:1;" x1="334.4609" x2="334.4609" y1="498.9922" y2="511.9922"/><line style="stroke:#181818;stroke-width:1;" x1="293.4609" x2="334.4609" y1="511.9922" y2="511.9922"/><polygon fill="#181818" points="303.4609,507.9922,293.4609,511.9922,303.4609,515.9922,299.4609,511.9922" style="stroke:#181818;stroke-width:1;"/><text fill="#000000" font-family="sans-serif" font-size="13" lengthAdjust="spacing" textLength="116.1938" x="299.4609" y="493.9263">Render messages</text></g><rect fill="#EEEEEE" height="3" style="stroke:#EEEEEE;stroke-width:1;" width="954.0068" x="0" y="540.5586"/><line style="stroke:#000000;stroke-width:1;" x1="0" x2="954.0068" y1="540.5586" y2="540.5586"/><line style="stroke:#000000;stroke-width:1;" x1="0" x2="954.0068" y1="543.5586" y2="543.5586"/><rect fill="#EEEEEE" height="23.1328" style="stroke:#000000;stroke-width:2;" width="299.3398" x="327.3335" y="529.9922"/><text fill="#000000" font-family="sans-serif" font-size="13" font-weight="bold" lengthAdjust="spacing" textLength="280.814" x="333.3335" y="546.0591">Infinite scroll / paging older messages</text><path d="M10,570.125 L86.624,570.125 L86.624,577.2578 L76.624,587.2578 L10,587.2578 L10,570.125" fill="#EEEEEE" style="stroke:#000000;stroke-width:1.5;"/><rect fill="none" height="483.7344" style="stroke:#000000;stroke-width:1.5;" width="934.0068" x="10" y="570.125"/><text fill="#000000" font-family="sans-serif" font-size="13" font-weight="bold" lengthAdjust="spacing" textLength="31.624" x="25" y="583.1919">loop</text><text fill="#000000" font-family="sans-serif" font-size="11" font-weight="bold" lengthAdjust="spacing" textLength="311.0884" x="101.624" y="582.3354">[User scrolls up (load older messages as needed)]</text><g class="message" data-entity-1="part1" data-entity-2="part2" id="msg9"><polygon fill="#181818" points="280.4609,604.3906,290.4609,608.3906,280.4609,612.3906,284.4609,608.3906" style="stroke:#181818;stroke-width:1;"/><line style="stroke:#181818;stroke-width:1;" x1="38.9551" x2="286.4609" y1="608.3906" y2="608.3906"/><text fill="#000000" font-family="sans-serif" font-size="13" lengthAdjust="spacing" textLength="56.5449" x="45.9551" y="603.3247">Scroll up</text></g><path d="M244.3584,623.3906 L308.8013,623.3906 L308.8013,630.5234 L298.8013,640.5234 L244.3584,640.5234 L244.3584,623.3906" fill="#EEEEEE" style="stroke:#000000;stroke-width:1.5;"/><rect fill="none" height="423.4688" style="stroke:#000000;stroke-width:1.5;" width="689.6484" x="244.3584" y="623.3906"/><text fill="#000000" font-family="sans-serif" font-size="13" font-weight="bold" lengthAdjust="spacing" textLength="19.4429" x="259.3584" y="636.4575">alt</text><text fill="#000000" font-family="sans-serif" font-size="11" font-weight="bold" lengthAdjust="spacing" textLength="409.3149" x="323.8013" y="635.6011">[Scroll position &gt;= 80% through loaded messages (toward older)]</text><g class="message" data-entity-1="part2" data-entity-2="part3" id="msg10"><polygon fill="#181818" points="540.8071,672.7891,550.8071,676.7891,540.8071,680.7891,544.8071,676.7891" style="stroke:#181818;stroke-width:1;"/><line style="stroke:#181818;stroke-width:1;" x1="292.4609" x2="546.8071" y1="676.7891" y2="676.7891"/><text fill="#000000" font-family="sans-serif" font-size="13" lengthAdjust="spacing" textLength="160.0117" x="299.4609" y="656.5903">Request older messages</text><text fill="#000000" font-family="sans-serif" font-size="13" lengthAdjust="spacing" textLength="106.2471" x="299.4609" y="671.7231">(conversationId)</text></g><path d="M503.6416,691.7891 L568.0845,691.7891 L568.0845,698.9219 L558.0845,708.9219 L503.6416,708.9219 L503.6416,691.7891" fill="#EEEEEE" style="stroke:#000000;stroke-width:1.5;"/><rect fill="none" height="219.8672" style="stroke:#000000;stroke-width:1.5;" width="420.3652" x="503.6416" y="691.7891"/><text fill="#000000" font-family="sans-serif" font-size="13" font-weight="bold" lengthAdjust="spacing" textLength="19.4429" x="518.6416" y="704.856">alt</text><text fill="#000000" font-family="sans-serif" font-size="11" font-weight="bold" lengthAdjust="spacing" textLength="255.3203" x="583.0845" y="703.9995">[Client needs more (not already cached)]</text><g class="message" data-entity-1="part3" data-entity-2="part4" id="msg11"><polygon fill="#181818" points="876.0518,756.3203,886.0518,760.3203,876.0518,764.3203,880.0518,760.3203" style="stroke:#181818;stroke-width:1;"/><line style="stroke:#181818;stroke-width:1;" x1="552.8071" x2="882.0518" y1="760.3203" y2="760.3203"/><text fill="#000000" font-family="sans-serif" font-size="13" lengthAdjust="spacing" textLength="227.665" x="559.8071" y="724.9888">GetOlderMessages(conversationId,</text><text fill="#000000" font-family="sans-serif" font-size="13" lengthAdjust="spacing" textLength="236.9834" x="563.9395" y="740.1216">olderThan=oldestLoadedMessageId,</text><text fill="#000000" font-family="sans-serif" font-size="13" lengthAdjust="spacing" textLength="69.3735" x="563.9395" y="755.2544">limit=200)</text></g><g class="message" data-entity-1="part4" data-entity-2="part3" id="msg12"><polygon fill="#181818" points="563.8071,800.5859,553.8071,804.5859,563.8071,808.5859,559.8071,804.5859" style="stroke:#181818;stroke-width:1;"/><line style="stroke:#181818;stroke-width:1;stroke-dasharray:2,2;" x1="557.8071" x2="887.0518" y1="804.5859" y2="804.5859"/><text fill="#000000" font-family="sans-serif" font-size="13" lengthAdjust="spacing" textLength="170.5171" x="569.8071" y="784.3872">Up to 200 older messages</text><text fill="#000000" font-family="sans-serif" font-size="13" lengthAdjust="spacing" textLength="138.4233" x="569.8071" y="799.52">(or fewer if none left)</text></g><g class="message" data-entity-1="part3" data-entity-2="part3" id="msg13"><line style="stroke:#181818;stroke-width:1;" x1="552.8071" x2="594.8071" y1="833.7188" y2="833.7188"/><line style="stroke:#181818;stroke-width:1;" x1="594.8071" x2="594.8071" y1="833.7188" y2="846.7188"/><line style="stroke:#181818;stroke-width:1;" x1="553.8071" x2="594.8071" y1="846.7188" y2="846.7188"/><polygon fill="#181818" points="563.8071,842.7188,553.8071,846.7188,563.8071,850.7188,559.8071,846.7188" style="stroke:#181818;stroke-width:1;"/><text fill="#000000" font-family="sans-serif" font-size="13" lengthAdjust="spacing" textLength="216.3218" x="559.8071" y="828.6528">Append older messages to cache</text></g><line style="stroke:#000000;stroke-width:1;stroke-dasharray:2,2;" x1="503.6416" x2="924.0068" y1="855.7188" y2="855.7188"/><text fill="#000000" font-family="sans-serif" font-size="11" font-weight="bold" lengthAdjust="spacing" textLength="270.7515" x="508.6416" y="865.9292">[Client already has older messages cached]</text><g class="message" data-entity-1="part3" data-entity-2="part3" id="msg14"><line style="stroke:#181818;stroke-width:1;" x1="552.8071" x2="594.8071" y1="890.6563" y2="890.6563"/><line style="stroke:#181818;stroke-width:1;" x1="594.8071" x2="594.8071" y1="890.6563" y2="903.6563"/><line style="stroke:#181818;stroke-width:1;" x1="553.8071" x2="594.8071" y1="903.6563" y2="903.6563"/><polygon fill="#181818" points="563.8071,899.6563,553.8071,903.6563,563.8071,907.6563,559.8071,903.6563" style="stroke:#181818;stroke-width:1;"/><text fill="#000000" font-family="sans-serif" font-size="13" lengthAdjust="spacing" textLength="217.1724" x="559.8071" y="885.5903">Read older messages from cache</text></g><g class="message" data-entity-1="part3" data-entity-2="part2" id="msg15"><polygon fill="#181818" points="303.4609,935.7891,293.4609,939.7891,303.4609,943.7891,299.4609,939.7891" style="stroke:#181818;stroke-width:1;"/><line style="stroke:#181818;stroke-width:1;stroke-dasharray:2,2;" x1="297.4609" x2="551.8071" y1="939.7891" y2="939.7891"/><text fill="#000000" font-family="sans-serif" font-size="13" lengthAdjust="spacing" textLength="186.7163" x="309.4609" y="934.7231">Provide additional messages</text></g><g class="message" data-entity-1="part2" data-entity-2="part2" id="msg16"><line style="stroke:#181818;stroke-width:1;" x1="292.4609" x2="334.4609" y1="968.9219" y2="968.9219"/><line style="stroke:#181818;stroke-width:1;" x1="334.4609" x2="334.4609" y1="968.9219" y2="981.9219"/><line style="stroke:#181818;stroke-width:1;" x1="293.4609" x2="334.4609" y1="981.9219" y2="981.9219"/><polygon fill="#181818" points="303.4609,977.9219,293.4609,981.9219,303.4609,985.9219,299.4609,981.9219" style="stroke:#181818;stroke-width:1;"/><text fill="#000000" font-family="sans-serif" font-size="13" lengthAdjust="spacing" textLength="211.7959" x="299.4609" y="963.856">Prepend older messages to view</text></g><line style="stroke:#000000;stroke-width:1;stroke-dasharray:2,2;" x1="244.3584" x2="934.0068" y1="990.9219" y2="990.9219"/><text fill="#000000" font-family="sans-serif" font-size="11" font-weight="bold" lengthAdjust="spacing" textLength="127.4292" x="249.3584" y="1001.1323">[Not near threshold]</text><g class="message" data-entity-1="part2" data-entity-2="part2" id="msg17"><line style="stroke:#181818;stroke-width:1;" x1="292.4609" x2="334.4609" y1="1025.8594" y2="1025.8594"/><line style="stroke:#181818;stroke-width:1;" x1="334.4609" x2="334.4609" y1="1025.8594" y2="1038.8594"/><line style="stroke:#181818;stroke-width:1;" x1="293.4609" x2="334.4609" y1="1038.8594" y2="1038.8594"/><polygon fill="#181818" points="303.4609,1034.8594,293.4609,1038.8594,303.4609,1042.8594,299.4609,1038.8594" style="stroke:#181818;stroke-width:1;"/><text fill="#000000" font-family="sans-serif" font-size="13" lengthAdjust="spacing" textLength="246.3462" x="299.4609" y="1020.7935">Continue displaying loaded messages</text></g><?plantuml-src TPJ1Yjim48RlUefXeP10buRsKaAzK79O0jtTaZItlMZjSIogIAua9-JjEoFBYUt4WGJ7cd_cdvdF3YfeX9r7M4dw-RQ4bJL7T5u6PGsyogFQnqiXP1wiur0dFcnZ2kdEyBnRW_JmiD8AJU2_3oAt9ZYh8Tth7V-iw-ln5XtLYSVjvOCGMGPlDHh8-nwoJ71HU7pY_4lEc_yTXipw_zR5NB0lYc_hBc63_nhqOIWwAZozcnkfa3fqtYjozmE-BXPmGE_b7ZreAmiieAHH39K2EXKLRZjQmZE63UPqyoNfH-K-WrO75J8gCQS4QIQFFUilbdoxc0EQ6e8Ts27_PAJ44wbKIQT1wjRnVE2doxQb5UAr6JKQTIxp2WLgnY5jJpkKnJbE0erjzjLu57VhR4Xq3IoTFTmjP0eXEd6ttj_E7bNHCycZBfIljJntUus16v9JsrrSf6TjIcLKGF0vCQRX2zHohymUhEx7CbFQsZhId68zZtV6FOs3gNM3IAtoJ0SeRjigJIteXBb9DshhLUppAOFlYqyGAXT7b-2vP9u5Uv8k5UJi01Fa3YtTmPQrFNBPi8S3Rtjcx7MFSV0fV0BODournUkxQQtygQJ9-Cg7Nx6f96X31b3pvmxOkmlCDxtraJRM86WimwtdBXEzLWY5yTOeUKiPYwQG7cdQwKmMYbIF92tRrqACT5yznbeMHKI3djCBkRszfrYSw8ZVMIArysfvpT8nNUWh2hv9HE_oe4o3tVF3JyA8GT5wfkz_?></g></svg>