<?plantuml 1.2026.2?><svg xmlns="http://www.w3.org/2000/svg" xmlns:xlink="http://www.w3.org/1999/xlink" contentStyleType="text/css" data-diagram-type="SEQUENCE" height="523px" preserveAspectRatio="none" style="width:832px;height:523px;background:#FFFFFF;" version="1.1" viewBox="0 0 832 523" width="832px" zoomAndPan="magnify"><title>Use Case 4: Sending a Message</title><defs/><g><text fill="#000000" font-family="sans-serif" font-size="14" font-weight="bold" lengthAdjust="spacing" textLength="249.3135" x="287.5815" y="27.9951">Use Case 4: Sending a Message</text><g class="participant-lifeline" data-entity-uid="part1" data-qualified-name="Sender" id="part1-lifeline"><g><title>User .Sender.</title><rect fill="#000000" fill-opacity="0.00000" height="324.1641" width="8" x="52.4565" y="118.5938"/><line style="stroke:#181818;stroke-width:0.5;stroke-dasharray:5,5;" x1="56" x2="56" y1="118.5938" y2="442.7578"/></g></g><g class="participant-lifeline" data-entity-uid="part2" data-qualified-name="GUI" id="part2-lifeline"><g><title>Client GUI</title><rect fill="#000000" fill-opacity="0.00000" height="324.1641" width="8" x="170.897" y="118.5938"/><line style="stroke:#181818;stroke-width:0.5;stroke-dasharray:5,5;" x1="174.7944" x2="174.7944" y1="118.5938" y2="442.7578"/></g></g><g class="participant-lifeline" data-entity-uid="part3" data-qualified-name="cGUI" id="part3-lifeline"><g><title>Recipient GUI</title><rect fill="#000000" fill-opacity="0.00000" height="324.1641" width="8" x="269.6768" y="118.5938"/><line style="stroke:#181818;stroke-width:0.5;stroke-dasharray:5,5;" x1="272.9995" x2="272.9995" y1="118.5938" y2="442.7578"/></g></g><g class="participant-lifeline" data-entity-uid="part4" data-qualified-name="Client" id="part4-lifeline"><g><title>Client App</title><rect fill="#000000" fill-opacity="0.00000" height="324.1641" width="8" x="390.6841" y="118.5938"/><line style="stroke:#181818;stroke-width:0.5;stroke-dasharray:5,5;" x1="394.5186" x2="394.5186" y1="118.5938" y2="442.7578"/></g></g><g class="participant-lifeline" data-entity-uid="part5" data-qualified-name="Recipient" id="part5-lifeline"><g><title>Recipient Client</title><rect fill="#000000" fill-opacity="0.00000" height="324.1641" width="8" x="574.3379" y="118.5938"/><line style="stroke:#181818;stroke-width:0.5;stroke-dasharray:5,5;" x1="578.0078" x2="578.0078" y1="118.5938" y2="442.7578"/></g></g><g class="participant-lifeline" data-entity-uid="part6" data-qualified-name="Server" id="part6-lifeline"><g><title>Server</title><rect fill="#000000" fill-opacity="0.00000" height="324.1641" width="8" x="668.623" y="118.5938"/><line style="stroke:#181818;stroke-width:0.5;stroke-dasharray:5,5;" x1="671.668" x2="671.668" y1="118.5938" y2="442.7578"/></g></g><g class="participant-lifeline" data-entity-uid="part7" data-qualified-name="Cache" id="part7-lifeline"><g><title>Server Cache</title><rect fill="#000000" fill-opacity="0.00000" height="324.1641" width="8" x="760.5273" y="118.5938"/><line style="stroke:#181818;stroke-width:0.5;stroke-dasharray:5,5;" x1="763.5781" x2="763.5781" y1="118.5938" y2="442.7578"/></g></g><g class="participant participant-head" data-entity-uid="part1" data-qualified-name="Sender" id="part1-head"><text fill="#000000" font-family="sans-serif" font-size="14" lengthAdjust="spacing" textLength="96.9131" x="5" y="115.292">User (Sender)</text><ellipse cx="56.4565" cy="50.7969" fill="#E2E2F0" rx="8" ry="8" style="stroke:#181818;stroke-width:0.5;"/><path d="M56.4565,58.7969 L56.4565,85.7969 M43.4565,66.7969 L69.4565,66.7969 M56.4565,85.7969 L43.4565,100.7969 M56.4565,85.7969 L69.4565,100.7969" fill="none" style="stroke:#181818;stroke-width:0.5;"/></g><g class="participant participant-tail" data-entity-uid="part1" data-qualified-name="Sender" id="part1-tail"><text fill="#000000" font-family="sans-serif" font-size="14" lengthAdjust="spacing" textLength="96.9131" x="5" y="454.7529">User (Sender)</text><ellipse cx="56.4565" cy="466.5547" fill="#E2E2F0" rx="8" ry="8" style="stroke:#181818;stroke-width:0.5;"/><path d="M56.4565,474.5547 L56.4565,501.5547 M43.4565,482.5547 L69.4565,482.5547 M56.4565,501.5547 L43.4565,516.5547 M56.4565,501.5547 L69.4565,516.5547" fill="none" style="stroke:#181818;stroke-width:0.5;"/></g><g class="participant participant-head" data-entity-uid="part2" data-qualified-name="GUI" id="part2-head"><text fill="#000000" font-family="sans-serif" font-size="14" lengthAdjust="spacing" textLength="70.2051" x="136.7944" y="115.292">Client GUI</text><path d="M154.397,74.2969 L154.397,98.2969 M154.397,86.2969 L171.397,86.2969" fill="none" style="stroke:#181818;stroke-width:0.5;"/><ellipse cx="183.397" cy="86.2969" fill="#E2E2F0" rx="12" ry="12" style="stroke:#181818;stroke-width:0.5;"/></g><g class="participant participant-tail" data-entity-uid="part2" data-qualified-name="GUI" id="part2-tail"><text fill="#000000" font-family="sans-serif" font-size="14" lengthAdjust="spacing" textLength="70.2051" x="136.7944" y="454.7529">Client GUI</text><path d="M154.397,462.0547 L154.397,486.0547 M154.397,474.0547 L171.397,474.0547" fill="none" style="stroke:#181818;stroke-width:0.5;"/><ellipse cx="183.397" cy="474.0547" fill="#E2E2F0" rx="12" ry="12" style="stroke:#181818;stroke-width:0.5;"/></g><g class="participant participant-head" data-entity-uid="part3" data-qualified-name="cGUI" id="part3-head"><text fill="#000000" font-family="sans-serif" font-size="14" lengthAdjust="spacing" textLength="95.3545" x="222.9995" y="115.292">Recipient GUI</text><path d="M253.1768,74.2969 L253.1768,98.2969 M253.1768,86.2969 L270.1768,86.2969" fill="none" style="stroke:#181818;stroke-width:0.5;"/><ellipse cx="282.1768" cy="86.2969" fill="#E2E2F0" rx="12" ry="12" style="stroke:#181818;stroke-width:0.5;"/></g><g class="participant participant-tail" data-entity-uid="part3" data-qualified-name="cGUI" id="part3-tail"><text fill="#000000" font-family="sans-serif" font-size="14" lengthAdjust="spacing" textLength="95.3545" x="222.9995" y="454.7529">Recipient GUI</text><path d="M253.1768,462.0547 L253.1768,486.0547 M253.1768,474.0547 L270.1768,474.0547" fill="none" style="stroke:#181818;stroke-width:0.5;"/><ellipse cx="282.1768" cy="474.0547" fill="#E2E2F0" rx="12" ry="12" style="stroke:#181818;stroke-width:0.5;"/></g><g class="participant participant-head" data-entity-uid="part4" data-qualified-name="Client" id="part4-head"><text fill="#000000" font-family="sans-serif" font-size="14" lengthAdjust="spacing" textLength="72.3311" x="355.5186" y="115.292">Client App</text><ellipse cx="394.6841" cy="86.2969" fill="#E2E2F0" rx="12" ry="12" style="stroke:#181818;stroke-width:0.5;"/><polygon fill="#181818" points="390.6841,74.2969,396.6841,69.2969,394.6841,74.2969,396.6841,79.2969,390.6841,74.2969" style="stroke:#181818;stroke-width:1;"/></g><g class="participant participant-tail" data-entity-uid="part4" data-qualified-name="Client" id="part4-tail"><text fill="#000000" font-family="sans-serif" font-size="14" lengthAdjust="spacing" textLength="72.3311" x="355.5186" y="454.7529">Client App</text><ellipse cx="394.6841" cy="474.0547" fill="#E2E2F0" rx="12" ry="12" style="stroke:#181818;stroke-width:0.5;"/><polygon fill="#181818" points="390.6841,462.0547,396.6841,457.0547,394.6841,462.0547,396.6841,467.0547,390.6841,462.0547" style="stroke:#181818;stroke-width:1;"/></g><g class="participant participant-head" data-entity-uid="part5" data-qualified-name="Recipient" id="part5-head"><text fill="#000000" font-family="sans-serif" font-size="14" lengthAdjust="spacing" textLength="110.6602" x="520.0078" y="115.292">Recipient Client</text><ellipse cx="578.3379" cy="86.2969" fill="#E2E2F0" rx="12" ry="12" style="stroke:#181818;stroke-width:0.5;"/><polygon fill="#181818" points="574.3379,74.2969,580.3379,69.2969,578.3379,74.2969,580.3379,79.2969,574.3379,74.2969" style="stroke:#181818;stroke-width:1;"/></g><g class="participant participant-tail" data-entity-uid="part5" data-qualified-name="Recipient" id="part5-tail"><text fill="#000000" font-family="sans-serif" font-size="14" lengthAdjust="spacing" textLength="110.6602" x="520.0078" y="454.7529">Recipient Client</text><ellipse cx="578.3379" cy="474.0547" fill="#E2E2F0" rx="12" ry="12" style="stroke:#181818;stroke-width:0.5;"/><polygon fill="#181818" points="574.3379,462.0547,580.3379,457.0547,578.3379,462.0547,580.3379,467.0547,574.3379,462.0547" style="stroke:#181818;stroke-width:1;"/></g><g class="participant participant-head" data-entity-uid="part6" data-qualified-name="Server" id="part6-head"><text fill="#000000" font-family="sans-serif" font-size="14" lengthAdjust="spacing" textLength="45.9102" x="646.668" y="115.292">Server</text><ellipse cx="672.623" cy="86.2969" fill="#E2E2F0" rx="12" ry="12" style="stroke:#181818;stroke-width:0.5;"/><polygon fill="#181818" points="668.623,74.2969,674.623,69.2969,672.623,74.2969,674.623,79.2969,668.623,74.2969" style="stroke:#181818;stroke-width:1;"/></g><g class="participant participant-tail" data-entity-uid="part6" data-qualified-name="Server" id="part6-tail"><text fill="#000000" font-family="sans-serif" font-size="14" lengthAdjust="spacing" textLength="45.9102" x="646.668" y="454.7529">Server</text><ellipse cx="672.623" cy="474.0547" fill="#E2E2F0" rx="12" ry="12" style="stroke:#181818;stroke-width:0.5;"/><polygon fill="#181818" points="668.623,462.0547,674.623,457.0547,672.623,462.0547,674.623,467.0547,668.623,462.0547" style="stroke:#181818;stroke-width:1;"/></g><g class="participant participant-head" data-entity-uid="part7" data-qualified-name="Cache" id="part7-head"><rect fill="#E2E2F0" height="30.2969" style="stroke:#181818;stroke-width:0.5;" width="107.8984" x="712.5781" y="83.2969"/><rect fill="#E2E2F0" height="30.2969" style="stroke:#181818;stroke-width:0.5;" width="107.8984" x="708.5781" y="87.2969"/><text fill="#000000" font-family="sans-serif" font-size="14" lengthAdjust="spacing" textLength="93.8984" x="715.5781" y="107.292">Server Cache</text></g><g class="participant participant-tail" data-entity-uid="part7" data-qualified-name="Cache" id="part7-tail"><rect fill="#E2E2F0" height="30.2969" style="stroke:#181818;stroke-width:0.5;" width="107.8984" x="712.5781" y="441.7578"/><rect fill="#E2E2F0" height="30.2969" style="stroke:#181818;stroke-width:0.5;" width="107.8984" x="708.5781" y="445.7578"/><text fill="#000000" font-family="sans-serif" font-size="14" lengthAdjust="spacing" textLength="93.8984" x="715.5781" y="465.7529">Server Cache</text></g><rect fill="#EEEEEE" height="3" style="stroke:#EEEEEE;stroke-width:1;" width="825.4766" x="0" y="149.1602"/><line style="stroke:#000000;stroke-width:1;" x1="0" x2="825.4766" y1="149.1602" y2="149.1602"/><line style="stroke:#000000;stroke-width:1;" x1="0" x2="825.4766" y1="152.1602" y2="152.1602"/><rect fill="#EEEEEE" height="23.1328" style="stroke:#000000;stroke-width:2;" width="156.835" x="334.3208" y="138.5938"/><text fill="#000000" font-family="sans-serif" font-size="13" font-weight="bold" lengthAdjust="spacing" textLength="138.3091" x="340.3208" y="154.6606">Compose and send</text><g class="message" data-entity-1="part1" data-entity-2="part2" id="msg1"><polygon fill="#181818" points="162.897,203.9922,172.897,207.9922,162.897,211.9922,166.897,207.9922" style="stroke:#181818;stroke-width:1;"/><line style="stroke:#181818;stroke-width:1;" x1="56.4565" x2="168.897" y1="207.9922" y2="207.9922"/><text fill="#000000" font-family="sans-serif" font-size="13" lengthAdjust="spacing" textLength="94.4404" x="63.4565" y="187.7935">Type message</text><text fill="#000000" font-family="sans-serif" font-size="13" lengthAdjust="spacing" textLength="79.8091" x="63.4565" y="202.9263">Click "Send"</text></g><g class="message" data-entity-1="part2" data-entity-2="part4" id="msg2"><polygon fill="#181818" points="382.6841,233.125,392.6841,237.125,382.6841,241.125,386.6841,237.125" style="stroke:#181818;stroke-width:1;"/><line style="stroke:#181818;stroke-width:1;" x1="174.897" x2="388.6841" y1="237.125" y2="237.125"/><text fill="#000000" font-family="sans-serif" font-size="13" lengthAdjust="spacing" textLength="195.7871" x="181.897" y="232.0591">PassMessage(MessageObject)</text></g><g class="message" data-entity-1="part4" data-entity-2="part4" id="msg3"><line style="stroke:#181818;stroke-width:1;" x1="394.6841" x2="436.6841" y1="266.2578" y2="266.2578"/><line style="stroke:#181818;stroke-width:1;" x1="436.6841" x2="436.6841" y1="266.2578" y2="279.2578"/><line style="stroke:#181818;stroke-width:1;" x1="395.6841" x2="436.6841" y1="279.2578" y2="279.2578"/><polygon fill="#181818" points="405.6841,275.2578,395.6841,279.2578,405.6841,283.2578,401.6841,279.2578" style="stroke:#181818;stroke-width:1;"/><text fill="#000000" font-family="sans-serif" font-size="13" lengthAdjust="spacing" textLength="169.6538" x="401.6841" y="261.1919">Update local conversation</text></g><g class="message" data-entity-1="part4" data-entity-2="part2" id="msg4"><polygon fill="#181818" points="185.897,304.3906,175.897,308.3906,185.897,312.3906,181.897,308.3906" style="stroke:#181818;stroke-width:1;"/><line style="stroke:#181818;stroke-width:1;stroke-dasharray:2,2;" x1="179.897" x2="393.6841" y1="308.3906" y2="308.3906"/><text fill="#000000" font-family="sans-serif" font-size="13" lengthAdjust="spacing" textLength="138.3472" x="191.897" y="303.3247">Repaint conversation</text></g><g class="message" data-entity-1="part4" data-entity-2="part6" id="msg5"><polygon fill="#181818" points="660.623,333.5234,670.623,337.5234,660.623,341.5234,664.623,337.5234" style="stroke:#181818;stroke-width:1;"/><line style="stroke:#181818;stroke-width:1;" x1="394.6841" x2="666.623" y1="337.5234" y2="337.5234"/><text fill="#000000" font-family="sans-serif" font-size="13" lengthAdjust="spacing" textLength="199.1768" x="401.6841" y="332.4575">SendMessage(MessageObject)</text></g><rect fill="#EEEEEE" height="3" style="stroke:#EEEEEE;stroke-width:1;" width="825.4766" x="0" y="366.0898"/><line style="stroke:#000000;stroke-width:1;" x1="0" x2="825.4766" y1="366.0898" y2="366.0898"/><line style="stroke:#000000;stroke-width:1;" x1="0" x2="825.4766" y1="369.0898" y2="369.0898"/><rect fill="#EEEEEE" height="23.1328" style="stroke:#000000;stroke-width:2;" width="151.0078" x="337.2344" y="355.5234"/><text fill="#000000" font-family="sans-serif" font-size="13" font-weight="bold" lengthAdjust="spacing" textLength="132.4819" x="343.2344" y="371.5903">Server processing</text><rect fill="none" height="39.1016" style="stroke:#000000;stroke-width:1.5;" width="821.4766" x="2" y="388.6563"/><path d="M2,388.6563 L67,388.6563 L67,395.6563 L57,405.6563 L2,405.6563 L2,388.6563" fill="#EEEEEE" style="stroke:#000000;stroke-width:2;"/><text fill="#000000" font-family="sans-serif" font-size="13" font-weight="bold" lengthAdjust="spacing" textLength="20.8838" x="15" y="402.7231">ref</text><text fill="#000000" font-family="sans-serif" font-size="12" lengthAdjust="spacing" textLength="115.0957" x="355.1904" y="420.7949">Push New Message</text><?plantuml-src TP8nJyCm48Lt_ufJfbOA6rEaL48P44C1jMHZkJf7Qt1jotP1_VUSOuS42POallTil-ykKKLDq0U23lbnsy2UpA3C4H2s508UIGYKqVfH80yOe6A_XrKkh2jni1SpeB_2VVymwfrMP69QBaGvgJkIoiq6QKtqLaFPjDX_vzmipxj-dv6ziszF_hF4p9z9qffaLDO4nfGdMgYvK0dHjj3PixFS1JG318Q3jXM5-cQJmZRmSdK4vzoOLyDtouzqaXagaV3OblCqy8mXb0wkollfyCunrgBWBSoz6p0IQ2jH0vDmi80fy8zt2h0ZXueBVvesXJvFyP_R4sbXTzvA5jEu6TNJ6zXKpiprEB6wUElSg7en1sQyX1CyqjVqgtm3?></g></svg>