<?plantuml 1.2026.2?><svg xmlns="http://www.w3.org/2000/svg" xmlns:xlink="http://www.w3.org/1999/xlink" contentStyleType="text/css" data-diagram-type="SEQUENCE" height="771px" preserveAspectRatio="none" style="width:1388px;height:771px;background:#FFFFFF;" version="1.1" viewBox="0 0 1388 771" width="1388px" zoomAndPan="magnify"><title>Use Case 4: Sending a Message</title><defs/><g><text fill="#000000" font-family="sans-serif" font-size="14" font-weight="bold" lengthAdjust="spacing" textLength="249.3135" x="565.6421" y="27.9951">Use Case 4: Sending a Message</text><rect fill="none" height="90.5313" style="stroke:#000000;stroke-width:1.5;" width="667.4478" x="212.9995" y="583.4531"/><g class="participant-lifeline" data-entity-uid="part1" data-qualified-name="Sender" id="part1-lifeline"><g><title>User .Sender.</title><rect fill="#000000" fill-opacity="0.00000" height="572.3906" width="8" x="52.4565" y="118.5938"/><line style="stroke:#181818;stroke-width:0.5;stroke-dasharray:5,5;" x1="56" x2="56" y1="118.5938" y2="690.9844"/></g></g><g class="participant-lifeline" data-entity-uid="part2" data-qualified-name="GUI" id="part2-lifeline"><g><title>Client GUI</title><rect fill="#000000" fill-opacity="0.00000" height="572.3906" width="8" x="170.897" y="118.5938"/><line style="stroke:#181818;stroke-width:0.5;stroke-dasharray:5,5;" x1="174.7944" x2="174.7944" y1="118.5938" y2="690.9844"/></g></g><g class="participant-lifeline" data-entity-uid="part3" data-qualified-name="cGUI" id="part3-lifeline"><g><title>Recipient GUI</title><rect fill="#000000" fill-opacity="0.00000" height="572.3906" width="8" x="269.6768" y="118.5938"/><line style="stroke:#181818;stroke-width:0.5;stroke-dasharray:5,5;" x1="272.9995" x2="272.9995" y1="118.5938" y2="690.9844"/></g></g><g class="participant-lifeline" data-entity-uid="part4" data-qualified-name="Client" id="part4-lifeline"><g><title>Client App</title><rect fill="#000000" fill-opacity="0.00000" height="572.3906" width="8" x="435.1533" y="118.5938"/><line style="stroke:#181818;stroke-width:0.5;stroke-dasharray:5,5;" x1="438.9878" x2="438.9878" y1="118.5938" y2="690.9844"/></g></g><g class="participant-lifeline" data-entity-uid="part5" data-qualified-name="Recipient" id="part5-lifeline"><g><title>Recipient Client</title><rect fill="#000000" fill-opacity="0.00000" height="572.3906" width="8" x="618.8071" y="118.5938"/><line style="stroke:#181818;stroke-width:0.5;stroke-dasharray:5,5;" x1="622.4771" x2="622.4771" y1="118.5938" y2="690.9844"/></g></g><g class="participant-lifeline" data-entity-uid="part6" data-qualified-name="Server" id="part6-lifeline"><g><title>Server</title><rect fill="#000000" fill-opacity="0.00000" height="572.3906" width="8" x="840.4922" y="118.5938"/><line style="stroke:#181818;stroke-width:0.5;stroke-dasharray:5,5;" x1="843.5371" x2="843.5371" y1="118.5938" y2="690.9844"/></g></g><g class="participant-lifeline" data-entity-uid="part7" data-qualified-name="Cache" id="part7-lifeline"><g><title>Server Cache</title><rect fill="#000000" fill-opacity="0.00000" height="572.3906" width="8" x="1316.6484" y="118.5938"/><line style="stroke:#181818;stroke-width:0.5;stroke-dasharray:5,5;" x1="1319.6992" x2="1319.6992" y1="118.5938" y2="690.9844"/></g></g><g class="participant participant-head" data-entity-uid="part1" data-qualified-name="Sender" id="part1-head"><text fill="#000000" font-family="sans-serif" font-size="14" lengthAdjust="spacing" textLength="96.9131" x="5" y="115.292">User (Sender)</text><ellipse cx="56.4565" cy="50.7969" fill="#E2E2F0" rx="8" ry="8" style="stroke:#181818;stroke-width:0.5;"/><path d="M56.4565,58.7969 L56.4565,85.7969 M43.4565,66.7969 L69.4565,66.7969 M56.4565,85.7969 L43.4565,100.7969 M56.4565,85.7969 L69.4565,100.7969" fill="none" style="stroke:#181818;stroke-width:0.5;"/></g><g class="participant participant-tail" data-entity-uid="part1" data-qualified-name="Sender" id="part1-tail"><text fill="#000000" font-family="sans-serif" font-size="14" lengthAdjust="spacing" textLength="96.9131" x="5" y="702.9795">User (Sender)</text><ellipse cx="56.4565" cy="714.7813" fill="#E2E2F0" rx="8" ry="8" style="stroke:#181818;stroke-width:0.5;"/><path d="M56.4565,722.7813 L56.4565,749.7813 M43.4565,730.7813 L69.4565,730.7813 M56.4565,749.7813 L43.4565,764.7813 M56.4565,749.7813 L69.4565,764.7813" fill="none" style="stroke:#181818;stroke-width:0.5;"/></g><g class="participant participant-head" data-entity-uid="part2" data-qualified-name="GUI" id="part2-head"><text fill="#000000" font-family="sans-serif" font-size="14" lengthAdjust="spacing" textLength="70.2051" x="136.7944" y="115.292">Client GUI</text><path d="M154.397,74.2969 L154.397,98.2969 M154.397,86.2969 L171.397,86.2969" fill="none" style="stroke:#181818;stroke-width:0.5;"/><ellipse cx="183.397" cy="86.2969" fill="#E2E2F0" rx="12" ry="12" style="stroke:#181818;stroke-width:0.5;"/></g><g class="participant participant-tail" data-entity-uid="part2" data-qualified-name="GUI" id="part2-tail"><text fill="#000000" font-family="sans-serif" font-size="14" lengthAdjust="spacing" textLength="70.2051" x="136.7944" y="702.9795">Client GUI</text><path d="M154.397,710.2813 L154.397,734.2813 M154.397,722.2813 L171.397,722.2813" fill="none" style="stroke:#181818;stroke-width:0.5;"/><ellipse cx="183.397" cy="722.2813" fill="#E2E2F0" rx="12" ry="12" style="stroke:#181818;stroke-width:0.5;"/></g><g class="participant participant-head" data-entity-uid="part3" data-qualified-name="cGUI" id="part3-head"><text fill="#000000" font-family="sans-serif" font-size="14" lengthAdjust="spacing" textLength="95.3545" x="222.9995" y="115.292">Recipient GUI</text><path d="M253.1768,74.2969 L253.1768,98.2969 M253.1768,86.2969 L270.1768,86.2969" fill="none" style="stroke:#181818;stroke-width:0.5;"/><ellipse cx="282.1768" cy="86.2969" fill="#E2E2F0" rx="12" ry="12" style="stroke:#181818;stroke-width:0.5;"/></g><g class="participant participant-tail" data-entity-uid="part3" data-qualified-name="cGUI" id="part3-tail"><text fill="#000000" font-family="sans-serif" font-size="14" lengthAdjust="spacing" textLength="95.3545" x="222.9995" y="702.9795">Recipient GUI</text><path d="M253.1768,710.2813 L253.1768,734.2813 M253.1768,722.2813 L270.1768,722.2813" fill="none" style="stroke:#181818;stroke-width:0.5;"/><ellipse cx="282.1768" cy="722.2813" fill="#E2E2F0" rx="12" ry="12" style="stroke:#181818;stroke-width:0.5;"/></g><g class="participant participant-head" data-entity-uid="part4" data-qualified-name="Client" id="part4-head"><text fill="#000000" font-family="sans-serif" font-size="14" lengthAdjust="spacing" textLength="72.3311" x="399.9878" y="115.292">Client App</text><ellipse cx="439.1533" cy="86.2969" fill="#E2E2F0" rx="12" ry="12" style="stroke:#181818;stroke-width:0.5;"/><polygon fill="#181818" points="435.1533,74.2969,441.1533,69.2969,439.1533,74.2969,441.1533,79.2969,435.1533,74.2969" style="stroke:#181818;stroke-width:1;"/></g><g class="participant participant-tail" data-entity-uid="part4" data-qualified-name="Client" id="part4-tail"><text fill="#000000" font-family="sans-serif" font-size="14" lengthAdjust="spacing" textLength="72.3311" x="399.9878" y="702.9795">Client App</text><ellipse cx="439.1533" cy="722.2813" fill="#E2E2F0" rx="12" ry="12" style="stroke:#181818;stroke-width:0.5;"/><polygon fill="#181818" points="435.1533,710.2813,441.1533,705.2813,439.1533,710.2813,441.1533,715.2813,435.1533,710.2813" style="stroke:#181818;stroke-width:1;"/></g><g class="participant participant-head" data-entity-uid="part5" data-qualified-name="Recipient" id="part5-head"><text fill="#000000" font-family="sans-serif" font-size="14" lengthAdjust="spacing" textLength="110.6602" x="564.4771" y="115.292">Recipient Client</text><ellipse cx="622.8071" cy="86.2969" fill="#E2E2F0" rx="12" ry="12" style="stroke:#181818;stroke-width:0.5;"/><polygon fill="#181818" points="618.8071,74.2969,624.8071,69.2969,622.8071,74.2969,624.8071,79.2969,618.8071,74.2969" style="stroke:#181818;stroke-width:1;"/></g><g class="participant participant-tail" data-entity-uid="part5" data-qualified-name="Recipient" id="part5-tail"><text fill="#000000" font-family="sans-serif" font-size="14" lengthAdjust="spacing" textLength="110.6602" x="564.4771" y="702.9795">Recipient Client</text><ellipse cx="622.8071" cy="722.2813" fill="#E2E2F0" rx="12" ry="12" style="stroke:#181818;stroke-width:0.5;"/><polygon fill="#181818" points="618.8071,710.2813,624.8071,705.2813,622.8071,710.2813,624.8071,715.2813,618.8071,710.2813" style="stroke:#181818;stroke-width:1;"/></g><g class="participant participant-head" data-entity-uid="part6" data-qualified-name="Server" id="part6-head"><text fill="#000000" font-family="sans-serif" font-size="14" lengthAdjust="spacing" textLength="45.9102" x="818.5371" y="115.292">Server</text><ellipse cx="844.4922" cy="86.2969" fill="#E2E2F0" rx="12" ry="12" style="stroke:#181818;stroke-width:0.5;"/><polygon fill="#181818" points="840.4922,74.2969,846.4922,69.2969,844.4922,74.2969,846.4922,79.2969,840.4922,74.2969" style="stroke:#181818;stroke-width:1;"/></g><g class="participant participant-tail" data-entity-uid="part6" data-qualified-name="Server" id="part6-tail"><text fill="#000000" font-family="sans-serif" font-size="14" lengthAdjust="spacing" textLength="45.9102" x="818.5371" y="702.9795">Server</text><ellipse cx="844.4922" cy="722.2813" fill="#E2E2F0" rx="12" ry="12" style="stroke:#181818;stroke-width:0.5;"/><polygon fill="#181818" points="840.4922,710.2813,846.4922,705.2813,844.4922,710.2813,846.4922,715.2813,840.4922,710.2813" style="stroke:#181818;stroke-width:1;"/></g><g class="participant participant-head" data-entity-uid="part7" data-qualified-name="Cache" id="part7-head"><rect fill="#E2E2F0" height="30.2969" style="stroke:#181818;stroke-width:0.5;" width="107.8984" x="1268.6992" y="83.2969"/><rect fill="#E2E2F0" height="30.2969" style="stroke:#181818;stroke-width:0.5;" width="107.8984" x="1264.6992" y="87.2969"/><text fill="#000000" font-family="sans-serif" font-size="14" lengthAdjust="spacing" textLength="93.8984" x="1271.6992" y="107.292">Server Cache</text></g><g class="participant participant-tail" data-entity-uid="part7" data-qualified-name="Cache" id="part7-tail"><rect fill="#E2E2F0" height="30.2969" style="stroke:#181818;stroke-width:0.5;" width="107.8984" x="1268.6992" y="689.9844"/><rect fill="#E2E2F0" height="30.2969" style="stroke:#181818;stroke-width:0.5;" width="107.8984" x="1264.6992" y="693.9844"/><text fill="#000000" font-family="sans-serif" font-size="14" lengthAdjust="spacing" textLength="93.8984" x="1271.6992" y="713.9795">Server Cache</text></g><rect fill="#EEEEEE" height="3" style="stroke:#EEEEEE;stroke-width:1;" width="1381.5977" x="0" y="149.1602"/><line style="stroke:#000000;stroke-width:1;" x1="0" x2="1381.5977" y1="149.1602" y2="149.1602"/><line style="stroke:#000000;stroke-width:1;" x1="0" x2="1381.5977" y1="152.1602" y2="152.1602"/><rect fill="#EEEEEE" height="23.1328" style="stroke:#000000;stroke-width:2;" width="156.835" x="612.3813" y="138.5938"/><text fill="#000000" font-family="sans-serif" font-size="13" font-weight="bold" lengthAdjust="spacing" textLength="138.3091" x="618.3813" y="154.6606">Compose and send</text><g class="message" data-entity-1="part1" data-entity-2="part2" id="msg1"><polygon fill="#181818" points="162.897,203.9922,172.897,207.9922,162.897,211.9922,166.897,207.9922" style="stroke:#181818;stroke-width:1;"/><line style="stroke:#181818;stroke-width:1;" x1="56.4565" x2="168.897" y1="207.9922" y2="207.9922"/><text fill="#000000" font-family="sans-serif" font-size="13" lengthAdjust="spacing" textLength="94.4404" x="63.4565" y="187.7935">Type message</text><text fill="#000000" font-family="sans-serif" font-size="13" lengthAdjust="spacing" textLength="79.8091" x="63.4565" y="202.9263">Click "Send"</text></g><g class="message" data-entity-1="part2" data-entity-2="part4" id="msg2"><polygon fill="#181818" points="427.1533,233.125,437.1533,237.125,427.1533,241.125,431.1533,237.125" style="stroke:#181818;stroke-width:1;"/><line style="stroke:#181818;stroke-width:1;" x1="174.897" x2="433.1533" y1="237.125" y2="237.125"/><text fill="#000000" font-family="sans-serif" font-size="13" lengthAdjust="spacing" textLength="195.7871" x="181.897" y="232.0591">PassMessage(MessageObject)</text></g><g class="message" data-entity-1="part4" data-entity-2="part4" id="msg3"><line style="stroke:#181818;stroke-width:1;" x1="439.1533" x2="481.1533" y1="266.2578" y2="266.2578"/><line style="stroke:#181818;stroke-width:1;" x1="481.1533" x2="481.1533" y1="266.2578" y2="279.2578"/><line style="stroke:#181818;stroke-width:1;" x1="440.1533" x2="481.1533" y1="279.2578" y2="279.2578"/><polygon fill="#181818" points="450.1533,275.2578,440.1533,279.2578,450.1533,283.2578,446.1533,279.2578" style="stroke:#181818;stroke-width:1;"/><text fill="#000000" font-family="sans-serif" font-size="13" lengthAdjust="spacing" textLength="169.6538" x="446.1533" y="261.1919">Update local conversation</text></g><g class="message" data-entity-1="part4" data-entity-2="part2" id="msg4"><polygon fill="#181818" points="185.897,304.3906,175.897,308.3906,185.897,312.3906,181.897,308.3906" style="stroke:#181818;stroke-width:1;"/><line style="stroke:#181818;stroke-width:1;stroke-dasharray:2,2;" x1="179.897" x2="438.1533" y1="308.3906" y2="308.3906"/><text fill="#000000" font-family="sans-serif" font-size="13" lengthAdjust="spacing" textLength="138.3472" x="191.897" y="303.3247">Repaint conversation</text></g><g class="message" data-entity-1="part4" data-entity-2="part6" id="msg5"><polygon fill="#181818" points="832.4922,333.5234,842.4922,337.5234,832.4922,341.5234,836.4922,337.5234" style="stroke:#181818;stroke-width:1;"/><line style="stroke:#181818;stroke-width:1;" x1="439.1533" x2="838.4922" y1="337.5234" y2="337.5234"/><text fill="#000000" font-family="sans-serif" font-size="13" lengthAdjust="spacing" textLength="199.1768" x="446.1533" y="332.4575">SendMessage(MessageObject)</text></g><rect fill="#EEEEEE" height="3" style="stroke:#EEEEEE;stroke-width:1;" width="1381.5977" x="0" y="366.0898"/><line style="stroke:#000000;stroke-width:1;" x1="0" x2="1381.5977" y1="366.0898" y2="366.0898"/><line style="stroke:#000000;stroke-width:1;" x1="0" x2="1381.5977" y1="369.0898" y2="369.0898"/><rect fill="#EEEEEE" height="23.1328" style="stroke:#000000;stroke-width:2;" width="151.0078" x="615.2949" y="355.5234"/><text fill="#000000" font-family="sans-serif" font-size="13" font-weight="bold" lengthAdjust="spacing" textLength="132.4819" x="621.2949" y="371.5903">Server processing</text><g class="message" data-entity-1="part6" data-entity-2="part7" id="msg6"><polygon fill="#181818" points="1308.6484,405.7891,1318.6484,409.7891,1308.6484,413.7891,1312.6484,409.7891" style="stroke:#181818;stroke-width:1;"/><line style="stroke:#181818;stroke-width:1;" x1="844.4922" x2="1314.6484" y1="409.7891" y2="409.7891"/><text fill="#000000" font-family="sans-serif" font-size="13" lengthAdjust="spacing" textLength="375.5273" x="851.4922" y="404.7231">Append message to conversation and lookup participants</text></g><g class="message" data-entity-1="part7" data-entity-2="part6" id="msg7"><polygon fill="#181818" points="855.4922,434.9219,845.4922,438.9219,855.4922,442.9219,851.4922,438.9219" style="stroke:#181818;stroke-width:1;"/><line style="stroke:#181818;stroke-width:1;stroke-dasharray:2,2;" x1="849.4922" x2="1319.6484" y1="438.9219" y2="438.9219"/><text fill="#000000" font-family="sans-serif" font-size="13" lengthAdjust="spacing" textLength="196.2886" x="861.4922" y="433.856">Participant list + online status</text></g><g class="message" data-entity-1="part6" data-entity-2="part6" id="msg8"><line style="stroke:#181818;stroke-width:1;" x1="844.4922" x2="886.4922" y1="468.0547" y2="468.0547"/><line style="stroke:#181818;stroke-width:1;" x1="886.4922" x2="886.4922" y1="468.0547" y2="481.0547"/><line style="stroke:#181818;stroke-width:1;" x1="845.4922" x2="886.4922" y1="481.0547" y2="481.0547"/><polygon fill="#181818" points="855.4922,477.0547,845.4922,481.0547,855.4922,485.0547,851.4922,481.0547" style="stroke:#181818;stroke-width:1;"/><text fill="#000000" font-family="sans-serif" font-size="13" lengthAdjust="spacing" textLength="302.9165" x="851.4922" y="462.9888">Check Online participants' active conversation</text></g><g class="message" data-entity-1="part6" data-entity-2="part7" id="msg9"><polygon fill="#181818" points="1308.6484,521.3203,1318.6484,525.3203,1308.6484,529.3203,1312.6484,525.3203" style="stroke:#181818;stroke-width:1;"/><line style="stroke:#181818;stroke-width:1;stroke-dasharray:2,2;" x1="844.4922" x2="1314.6484" y1="525.3203" y2="525.3203"/><text fill="#000000" font-family="sans-serif" font-size="13" lengthAdjust="spacing" textLength="360.8896" x="851.4922" y="505.1216">Add conversation to participant's unread conversations</text><text fill="#000000" font-family="sans-serif" font-size="13" lengthAdjust="spacing" textLength="452.1563" x="851.4922" y="520.2544">for all participants whose active conversation is not this conversation</text></g><rect fill="#EEEEEE" height="3" style="stroke:#EEEEEE;stroke-width:1;" width="1381.5977" x="0" y="553.8867"/><line style="stroke:#000000;stroke-width:1;" x1="0" x2="1381.5977" y1="553.8867" y2="553.8867"/><line style="stroke:#000000;stroke-width:1;" x1="0" x2="1381.5977" y1="556.8867" y2="556.8867"/><rect fill="#EEEEEE" height="23.1328" style="stroke:#000000;stroke-width:2;" width="226.291" x="577.6533" y="543.3203"/><text fill="#000000" font-family="sans-serif" font-size="13" font-weight="bold" lengthAdjust="spacing" textLength="207.7651" x="583.6533" y="559.3872">Delivery to online recipients</text><path d="M212.9995,583.4531 L289.6235,583.4531 L289.6235,590.5859 L279.6235,600.5859 L212.9995,600.5859 L212.9995,583.4531" fill="#EEEEEE" style="stroke:#000000;stroke-width:1.5;"/><rect fill="none" height="90.5313" style="stroke:#000000;stroke-width:1.5;" width="667.4478" x="212.9995" y="583.4531"/><text fill="#000000" font-family="sans-serif" font-size="13" font-weight="bold" lengthAdjust="spacing" textLength="31.624" x="227.9995" y="596.52">loop</text><text fill="#000000" font-family="sans-serif" font-size="11" font-weight="bold" lengthAdjust="spacing" textLength="185.2222" x="304.6235" y="595.6636">[For each logged-in recipient]</text><g class="message" data-entity-1="part6" data-entity-2="part5" id="msg10"><polygon fill="#181818" points="633.8071,632.8516,623.8071,636.8516,633.8071,640.8516,629.8071,636.8516" style="stroke:#181818;stroke-width:1;"/><line style="stroke:#181818;stroke-width:1;stroke-dasharray:2,2;" x1="627.8071" x2="843.4922" y1="636.8516" y2="636.8516"/><text fill="#000000" font-family="sans-serif" font-size="13" lengthAdjust="spacing" textLength="193.375" x="639.8071" y="616.6528">PushMessage(conversationId,</text><text fill="#000000" font-family="sans-serif" font-size="13" lengthAdjust="spacing" textLength="193.5527" x="643.9395" y="631.7856">messageId, messagePayload)</text></g><g class="message" data-entity-1="part4" data-entity-2="part3" id="msg11"><polygon fill="#181818" points="284.6768,661.9844,274.6768,665.9844,284.6768,669.9844,280.6768,665.9844" style="stroke:#181818;stroke-width:1;"/><line style="stroke:#181818;stroke-width:1;" x1="278.6768" x2="438.1533" y1="665.9844" y2="665.9844"/><text fill="#000000" font-family="sans-serif" font-size="13" lengthAdjust="spacing" textLength="141.4766" x="290.6768" y="660.9185">Display new message</text></g><?plantuml-src TLAnRXin3Dtr5OINn6YzTJBW08M35XcA64czUM4argT6aGHHby1_N-fEvzC1wMBhz9x8znwPRNO4HoROe_nysy8pUMFz6H1-4JEUIIdKEQG1e0J8i19-WjlnOhrIBw7t1jC5VXuV1dplBFbSFXjGJ-WJQHjdWWu-f-2WFchUVuznXkTNoneZT-OzKtglCiTZWPmZdMtmB3PrHmqwNgoKskrW7zvYa1JG6s0n1xkTggutTqNi5dvV8i7R6Cp9Is_zMYfvirB5dj16FLiu87DDyBR-Fxxy5HbhLUqrv6Cqc0bSqEX0d8WmnYBuofq4F554AnUVakwg-t6A_-bUd5RlCGKjO1dtO7MuBB9A9jkIVqcXseKS5bs7c5m8hts4Y2bRcGZwpA36Z3UDdCECWxESuGi4xwmdu8ovvwRtz6JVaMJxEBBQ-ZSW-sZVQIdcMg6HRyoI8mQQGZSClK-4InAV_1zPTdHkQUgZ6pRZaywMmOSCkPF3OYgIypqvuSloI-jgE4sRooLpoI_23sb8ebdIF9_9RAoVMGgWSNPTUucqvswQSDlsmNmz-MbcyZ4T3tXn0SrQ2ixheeUTkhSS7Lx0qyV4LZBuVm00?></g></svg>