<?plantuml 1.2026.2?><svg xmlns="http://www.w3.org/2000/svg" xmlns:xlink="http://www.w3.org/1999/xlink" contentStyleType="text/css" data-diagram-type="SEQUENCE" height="771px" preserveAspectRatio="none" style="width:1216px;height:771px;background:#FFFFFF;" version="1.1" viewBox="0 0 1216 771" width="1216px" zoomAndPan="magnify"><title>Use Case 4: Sending a Message</title><defs/><g><text fill="#000000" font-family="sans-serif" font-size="14" font-weight="bold" lengthAdjust="spacing" textLength="249.3135" x="479.7075" y="27.9951">Use Case 4: Sending a Message</text><rect fill="none" height="90.5313" style="stroke:#000000;stroke-width:1.5;" width="581.7837" x="126.7944" y="583.4531"/><g class="participant-lifeline" data-entity-uid="part1" data-qualified-name="Sender" id="part1-lifeline"><g><title>User .Sender.</title><rect fill="#000000" fill-opacity="0.00000" height="572.3906" width="8" x="52.4565" y="118.5938"/><line style="stroke:#181818;stroke-width:0.5;stroke-dasharray:5,5;" x1="56" x2="56" y1="118.5938" y2="690.9844"/></g></g><g class="participant-lifeline" data-entity-uid="part2" data-qualified-name="GUI" id="part2-lifeline"><g><title>Client GUI</title><rect fill="#000000" fill-opacity="0.00000" height="572.3906" width="8" x="170.897" y="118.5938"/><line style="stroke:#181818;stroke-width:0.5;stroke-dasharray:5,5;" x1="174.7944" x2="174.7944" y1="118.5938" y2="690.9844"/></g></g><g class="participant-lifeline" data-entity-uid="part3" data-qualified-name="cGUI" id="part3-lifeline"><g><title>Recipient GUI</title><rect fill="#000000" fill-opacity="0.00000" height="572.3906" width="8" x="269.6768" y="118.5938"/><line style="stroke:#181818;stroke-width:0.5;stroke-dasharray:5,5;" x1="272.9995" x2="272.9995" y1="118.5938" y2="690.9844"/></g></g><g class="participant-lifeline" data-entity-uid="part4" data-qualified-name="Client" id="part4-lifeline"><g><title>Client App</title><rect fill="#000000" fill-opacity="0.00000" height="572.3906" width="8" x="390.6841" y="118.5938"/><line style="stroke:#181818;stroke-width:0.5;stroke-dasharray:5,5;" x1="394.5186" x2="394.5186" y1="118.5938" y2="690.9844"/></g></g><g class="participant-lifeline" data-entity-uid="part5" data-qualified-name="Recipient" id="part5-lifeline"><g><title>Recipient Client</title><rect fill="#000000" fill-opacity="0.00000" height="572.3906" width="8" x="574.3379" y="118.5938"/><line style="stroke:#181818;stroke-width:0.5;stroke-dasharray:5,5;" x1="578.0078" x2="578.0078" y1="118.5938" y2="690.9844"/></g></g><g class="participant-lifeline" data-entity-uid="part6" data-qualified-name="Server" id="part6-lifeline"><g><title>Server</title><rect fill="#000000" fill-opacity="0.00000" height="572.3906" width="8" x="668.623" y="118.5938"/><line style="stroke:#181818;stroke-width:0.5;stroke-dasharray:5,5;" x1="671.668" x2="671.668" y1="118.5938" y2="690.9844"/></g></g><g class="participant-lifeline" data-entity-uid="part7" data-qualified-name="Cache" id="part7-lifeline"><g><title>Server Cache</title><rect fill="#000000" fill-opacity="0.00000" height="572.3906" width="8" x="1144.7793" y="118.5938"/><line style="stroke:#181818;stroke-width:0.5;stroke-dasharray:5,5;" x1="1147.8301" x2="1147.8301" y1="118.5938" y2="690.9844"/></g></g><g class="participant participant-head" data-entity-uid="part1" data-qualified-name="Sender" id="part1-head"><text fill="#000000" font-family="sans-serif" font-size="14" lengthAdjust="spacing" textLength="96.9131" x="5" y="115.292">User (Sender)</text><ellipse cx="56.4565" cy="50.7969" fill="#E2E2F0" rx="8" ry="8" style="stroke:#181818;stroke-width:0.5;"/><path d="M56.4565,58.7969 L56.4565,85.7969 M43.4565,66.7969 L69.4565,66.7969 M56.4565,85.7969 L43.4565,100.7969 M56.4565,85.7969 L69.4565,100.7969" fill="none" style="stroke:#181818;stroke-width:0.5;"/></g><g class="participant participant-tail" data-entity-uid="part1" data-qualified-name="Sender" id="part1-tail"><text fill="#000000" font-family="sans-serif" font-size="14" lengthAdjust="spacing" textLength="96.9131" x="5" y="702.9795">User (Sender)</text><ellipse cx="56.4565" cy="714.7813" fill="#E2E2F0" rx="8" ry="8" style="stroke:#181818;stroke-width:0.5;"/><path d="M56.4565,722.7813 L56.4565,749.7813 M43.4565,730.7813 L69.4565,730.7813 M56.4565,749.7813 L43.4565,764.7813 M56.4565,749.7813 L69.4565,764.7813" fill="none" style="stroke:#181818;stroke-width:0.5;"/></g><g class="participant participant-head" data-entity-uid="part2" data-qualified-name="GUI" id="part2-head"><text fill="#000000" font-family="sans-serif" font-size="14" lengthAdjust="spacing" textLength="70.2051" x="136.7944" y="115.292">Client GUI</text><path d="M154.397,74.2969 L154.397,98.2969 M154.397,86.2969 L171.397,86.2969" fill="none" style="stroke:#181818;stroke-width:0.5;"/><ellipse cx="183.397" cy="86.2969" fill="#E2E2F0" rx="12" ry="12" style="stroke:#181818;stroke-width:0.5;"/></g><g class="participant participant-tail" data-entity-uid="part2" data-qualified-name="GUI" id="part2-tail"><text fill="#000000" font-family="sans-serif" font-size="14" lengthAdjust="spacing" textLength="70.2051" x="136.7944" y="702.9795">Client GUI</text><path d="M154.397,710.2813 L154.397,734.2813 M154.397,722.2813 L171.397,722.2813" fill="none" style="stroke:#181818;stroke-width:0.5;"/><ellipse cx="183.397" cy="722.2813" fill="#E2E2F0" rx="12" ry="12" style="stroke:#181818;stroke-width:0.5;"/></g><g class="participant participant-head" data-entity-uid="part3" data-qualified-name="cGUI" id="part3-head"><text fill="#000000" font-family="sans-serif" font-size="14" lengthAdjust="spacing" textLength="95.3545" x="222.9995" y="115.292">Recipient GUI</text><path d="M253.1768,74.2969 L253.1768,98.2969 M253.1768,86.2969 L270.1768,86.2969" fill="none" style="stroke:#181818;stroke-width:0.5;"/><ellipse cx="282.1768" cy="86.2969" fill="#E2E2F0" rx="12" ry="12" style="stroke:#181818;stroke-width:0.5;"/></g><g class="participant participant-tail" data-entity-uid="part3" data-qualified-name="cGUI" id="part3-tail"><text fill="#000000" font-family="sans-serif" font-size="14" lengthAdjust="spacing" textLength="95.3545" x="222.9995" y="702.9795">Recipient GUI</text><path d="M253.1768,710.2813 L253.1768,734.2813 M253.1768,722.2813 L270.1768,722.2813" fill="none" style="stroke:#181818;stroke-width:0.5;"/><ellipse cx="282.1768" cy="722.2813" fill="#E2E2F0" rx="12" ry="12" style="stroke:#181818;stroke-width:0.5;"/></g><g class="participant participant-head" data-entity-uid="part4" data-qualified-name="Client" id="part4-head"><text fill="#000000" font-family="sans-serif" font-size="14" lengthAdjust="spacing" textLength="72.3311" x="355.5186" y="115.292">Client App</text><ellipse cx="394.6841" cy="86.2969" fill="#E2E2F0" rx="12" ry="12" style="stroke:#181818;stroke-width:0.5;"/><polygon fill="#181818" points="390.6841,74.2969,396.6841,69.2969,394.6841,74.2969,396.6841,79.2969,390.6841,74.2969" style="stroke:#181818;stroke-width:1;"/></g><g class="participant participant-tail" data-entity-uid="part4" data-qualified-name="Client" id="part4-tail"><text fill="#000000" font-family="sans-serif" font-size="14" lengthAdjust="spacing" textLength="72.3311" x="355.5186" y="702.9795">Client App</text><ellipse cx="394.6841" cy="722.2813" fill="#E2E2F0" rx="12" ry="12" style="stroke:#181818;stroke-width:0.5;"/><polygon fill="#181818" points="390.6841,710.2813,396.6841,705.2813,394.6841,710.2813,396.6841,715.2813,390.6841,710.2813" style="stroke:#181818;stroke-width:1;"/></g><g class="participant participant-head" data-entity-uid="part5" data-qualified-name="Recipient" id="part5-head"><text fill="#000000" font-family="sans-serif" font-size="14" lengthAdjust="spacing" textLength="110.6602" x="520.0078" y="115.292">Recipient Client</text><ellipse cx="578.3379" cy="86.2969" fill="#E2E2F0" rx="12" ry="12" style="stroke:#181818;stroke-width:0.5;"/><polygon fill="#181818" points="574.3379,74.2969,580.3379,69.2969,578.3379,74.2969,580.3379,79.2969,574.3379,74.2969" style="stroke:#181818;stroke-width:1;"/></g><g class="participant participant-tail" data-entity-uid="part5" data-qualified-name="Recipient" id="part5-tail"><text fill="#000000" font-family="sans-serif" font-size="14" lengthAdjust="spacing" textLength="110.6602" x="520.0078" y="702.9795">Recipient Client</text><ellipse cx="578.3379" cy="722.2813" fill="#E2E2F0" rx="12" ry="12" style="stroke:#181818;stroke-width:0.5;"/><polygon fill="#181818" points="574.3379,710.2813,580.3379,705.2813,578.3379,710.2813,580.3379,715.2813,574.3379,710.2813" style="stroke:#181818;stroke-width:1;"/></g><g class="participant participant-head" data-entity-uid="part6" data-qualified-name="Server" id="part6-head"><text fill="#000000" font-family="sans-serif" font-size="14" lengthAdjust="spacing" textLength="45.9102" x="646.668" y="115.292">Server</text><ellipse cx="672.623" cy="86.2969" fill="#E2E2F0" rx="12" ry="12" style="stroke:#181818;stroke-width:0.5;"/><polygon fill="#181818" points="668.623,74.2969,674.623,69.2969,672.623,74.2969,674.623,79.2969,668.623,74.2969" style="stroke:#181818;stroke-width:1;"/></g><g class="participant participant-tail" data-entity-uid="part6" data-qualified-name="Server" id="part6-tail"><text fill="#000000" font-family="sans-serif" font-size="14" lengthAdjust="spacing" textLength="45.9102" x="646.668" y="702.9795">Server</text><ellipse cx="672.623" cy="722.2813" fill="#E2E2F0" rx="12" ry="12" style="stroke:#181818;stroke-width:0.5;"/><polygon fill="#181818" points="668.623,710.2813,674.623,705.2813,672.623,710.2813,674.623,715.2813,668.623,710.2813" style="stroke:#181818;stroke-width:1;"/></g><g class="participant participant-head" data-entity-uid="part7" data-qualified-name="Cache" id="part7-head"><rect fill="#E2E2F0" height="30.2969" style="stroke:#181818;stroke-width:0.5;" width="107.8984" x="1096.8301" y="83.2969"/><rect fill="#E2E2F0" height="30.2969" style="stroke:#181818;stroke-width:0.5;" width="107.8984" x="1092.8301" y="87.2969"/><text fill="#000000" font-family="sans-serif" font-size="14" lengthAdjust="spacing" textLength="93.8984" x="1099.8301" y="107.292">Server Cache</text></g><g class="participant participant-tail" data-entity-uid="part7" data-qualified-name="Cache" id="part7-tail"><rect fill="#E2E2F0" height="30.2969" style="stroke:#181818;stroke-width:0.5;" width="107.8984" x="1096.8301" y="689.9844"/><rect fill="#E2E2F0" height="30.2969" style="stroke:#181818;stroke-width:0.5;" width="107.8984" x="1092.8301" y="693.9844"/><text fill="#000000" font-family="sans-serif" font-size="14" lengthAdjust="spacing" textLength="93.8984" x="1099.8301" y="713.9795">Server Cache</text></g><rect fill="#EEEEEE" height="3" style="stroke:#EEEEEE;stroke-width:1;" width="1209.7285" x="0" y="149.1602"/><line style="stroke:#000000;stroke-width:1;" x1="0" x2="1209.7285" y1="149.1602" y2="149.1602"/><line style="stroke:#000000;stroke-width:1;" x1="0" x2="1209.7285" y1="152.1602" y2="152.1602"/><rect fill="#EEEEEE" height="23.1328" style="stroke:#000000;stroke-width:2;" width="156.835" x="526.4468" y="138.5938"/><text fill="#000000" font-family="sans-serif" font-size="13" font-weight="bold" lengthAdjust="spacing" textLength="138.3091" x="532.4468" y="154.6606">Compose and send</text><g class="message" data-entity-1="part1" data-entity-2="part2" id="msg1"><polygon fill="#181818" points="162.897,203.9922,172.897,207.9922,162.897,211.9922,166.897,207.9922" style="stroke:#181818;stroke-width:1;"/><line style="stroke:#181818;stroke-width:1;" x1="56.4565" x2="168.897" y1="207.9922" y2="207.9922"/><text fill="#000000" font-family="sans-serif" font-size="13" lengthAdjust="spacing" textLength="94.4404" x="63.4565" y="187.7935">Type message</text><text fill="#000000" font-family="sans-serif" font-size="13" lengthAdjust="spacing" textLength="79.8091" x="63.4565" y="202.9263">Click "Send"</text></g><g class="message" data-entity-1="part2" data-entity-2="part4" id="msg2"><polygon fill="#181818" points="382.6841,233.125,392.6841,237.125,382.6841,241.125,386.6841,237.125" style="stroke:#181818;stroke-width:1;"/><line style="stroke:#181818;stroke-width:1;" x1="174.897" x2="388.6841" y1="237.125" y2="237.125"/><text fill="#000000" font-family="sans-serif" font-size="13" lengthAdjust="spacing" textLength="195.7871" x="181.897" y="232.0591">PassMessage(MessageObject)</text></g><g class="message" data-entity-1="part4" data-entity-2="part4" id="msg3"><line style="stroke:#181818;stroke-width:1;" x1="394.6841" x2="436.6841" y1="266.2578" y2="266.2578"/><line style="stroke:#181818;stroke-width:1;" x1="436.6841" x2="436.6841" y1="266.2578" y2="279.2578"/><line style="stroke:#181818;stroke-width:1;" x1="395.6841" x2="436.6841" y1="279.2578" y2="279.2578"/><polygon fill="#181818" points="405.6841,275.2578,395.6841,279.2578,405.6841,283.2578,401.6841,279.2578" style="stroke:#181818;stroke-width:1;"/><text fill="#000000" font-family="sans-serif" font-size="13" lengthAdjust="spacing" textLength="169.6538" x="401.6841" y="261.1919">Update local conversation</text></g><g class="message" data-entity-1="part4" data-entity-2="part2" id="msg4"><polygon fill="#181818" points="185.897,304.3906,175.897,308.3906,185.897,312.3906,181.897,308.3906" style="stroke:#181818;stroke-width:1;"/><line style="stroke:#181818;stroke-width:1;stroke-dasharray:2,2;" x1="179.897" x2="393.6841" y1="308.3906" y2="308.3906"/><text fill="#000000" font-family="sans-serif" font-size="13" lengthAdjust="spacing" textLength="138.3472" x="191.897" y="303.3247">Repaint conversation</text></g><g class="message" data-entity-1="part4" data-entity-2="part6" id="msg5"><polygon fill="#181818" points="660.623,333.5234,670.623,337.5234,660.623,341.5234,664.623,337.5234" style="stroke:#181818;stroke-width:1;"/><line style="stroke:#181818;stroke-width:1;" x1="394.6841" x2="666.623" y1="337.5234" y2="337.5234"/><text fill="#000000" font-family="sans-serif" font-size="13" lengthAdjust="spacing" textLength="199.1768" x="401.6841" y="332.4575">SendMessage(MessageObject)</text></g><rect fill="#EEEEEE" height="3" style="stroke:#EEEEEE;stroke-width:1;" width="1209.7285" x="0" y="366.0898"/><line style="stroke:#000000;stroke-width:1;" x1="0" x2="1209.7285" y1="366.0898" y2="366.0898"/><line style="stroke:#000000;stroke-width:1;" x1="0" x2="1209.7285" y1="369.0898" y2="369.0898"/><rect fill="#EEEEEE" height="23.1328" style="stroke:#000000;stroke-width:2;" width="151.0078" x="529.3604" y="355.5234"/><text fill="#000000" font-family="sans-serif" font-size="13" font-weight="bold" lengthAdjust="spacing" textLength="132.4819" x="535.3604" y="371.5903">Server processing</text><g class="message" data-entity-1="part6" data-entity-2="part7" id="msg6"><polygon fill="#181818" points="1136.7793,405.7891,1146.7793,409.7891,1136.7793,413.7891,1140.7793,409.7891" style="stroke:#181818;stroke-width:1;"/><line style="stroke:#181818;stroke-width:1;" x1="672.623" x2="1142.7793" y1="409.7891" y2="409.7891"/><text fill="#000000" font-family="sans-serif" font-size="13" lengthAdjust="spacing" textLength="375.5273" x="679.623" y="404.7231">Append message to conversation and lookup participants</text></g><g class="message" data-entity-1="part7" data-entity-2="part6" id="msg7"><polygon fill="#181818" points="683.623,434.9219,673.623,438.9219,683.623,442.9219,679.623,438.9219" style="stroke:#181818;stroke-width:1;"/><line style="stroke:#181818;stroke-width:1;stroke-dasharray:2,2;" x1="677.623" x2="1147.7793" y1="438.9219" y2="438.9219"/><text fill="#000000" font-family="sans-serif" font-size="13" lengthAdjust="spacing" textLength="196.2886" x="689.623" y="433.856">Participant list + online status</text></g><g class="message" data-entity-1="part6" data-entity-2="part6" id="msg8"><line style="stroke:#181818;stroke-width:1;" x1="672.623" x2="714.623" y1="468.0547" y2="468.0547"/><line style="stroke:#181818;stroke-width:1;" x1="714.623" x2="714.623" y1="468.0547" y2="481.0547"/><line style="stroke:#181818;stroke-width:1;" x1="673.623" x2="714.623" y1="481.0547" y2="481.0547"/><polygon fill="#181818" points="683.623,477.0547,673.623,481.0547,683.623,485.0547,679.623,481.0547" style="stroke:#181818;stroke-width:1;"/><text fill="#000000" font-family="sans-serif" font-size="13" lengthAdjust="spacing" textLength="302.9165" x="679.623" y="462.9888">Check Online participants' active conversation</text></g><g class="message" data-entity-1="part6" data-entity-2="part7" id="msg9"><polygon fill="#181818" points="1136.7793,521.3203,1146.7793,525.3203,1136.7793,529.3203,1140.7793,525.3203" style="stroke:#181818;stroke-width:1;"/><line style="stroke:#181818;stroke-width:1;stroke-dasharray:2,2;" x1="672.623" x2="1142.7793" y1="525.3203" y2="525.3203"/><text fill="#000000" font-family="sans-serif" font-size="13" lengthAdjust="spacing" textLength="360.8896" x="679.623" y="505.1216">Add conversation to participant's unread conversations</text><text fill="#000000" font-family="sans-serif" font-size="13" lengthAdjust="spacing" textLength="452.1563" x="679.623" y="520.2544">for all participants whose active conversation is not this conversation</text></g><rect fill="#EEEEEE" height="3" style="stroke:#EEEEEE;stroke-width:1;" width="1209.7285" x="0" y="553.8867"/><line style="stroke:#000000;stroke-width:1;" x1="0" x2="1209.7285" y1="553.8867" y2="553.8867"/><line style="stroke:#000000;stroke-width:1;" x1="0" x2="1209.7285" y1="556.8867" y2="556.8867"/><rect fill="#EEEEEE" height="23.1328" style="stroke:#000000;stroke-width:2;" width="226.291" x="491.7188" y="543.3203"/><text fill="#000000" font-family="sans-serif" font-size="13" font-weight="bold" lengthAdjust="spacing" textLength="207.7651" x="497.7188" y="559.3872">Delivery to online recipients</text><path d="M126.7944,583.4531 L203.4185,583.4531 L203.4185,590.5859 L193.4185,600.5859 L126.7944,600.5859 L126.7944,583.4531" fill="#EEEEEE" style="stroke:#000000;stroke-width:1.5;"/><rect fill="none" height="90.5313" style="stroke:#000000;stroke-width:1.5;" width="581.7837" x="126.7944" y="583.4531"/><text fill="#000000" font-family="sans-serif" font-size="13" font-weight="bold" lengthAdjust="spacing" textLength="31.624" x="141.7944" y="596.52">loop</text><text fill="#000000" font-family="sans-serif" font-size="11" font-weight="bold" lengthAdjust="spacing" textLength="185.2222" x="218.4185" y="595.6636">[For each logged-in recipient]</text><g class="message" data-entity-1="part6" data-entity-2="part4" id="msg10"><polygon fill="#181818" points="405.6841,632.8516,395.6841,636.8516,405.6841,640.8516,401.6841,636.8516" style="stroke:#181818;stroke-width:1;"/><line style="stroke:#181818;stroke-width:1;stroke-dasharray:2,2;" x1="399.6841" x2="671.623" y1="636.8516" y2="636.8516"/><text fill="#000000" font-family="sans-serif" font-size="13" lengthAdjust="spacing" textLength="193.375" x="411.6841" y="616.6528">PushMessage(conversationId,</text><text fill="#000000" font-family="sans-serif" font-size="13" lengthAdjust="spacing" textLength="193.5527" x="415.8164" y="631.7856">messageId, messagePayload)</text></g><g class="message" data-entity-1="part4" data-entity-2="part2" id="msg11"><polygon fill="#181818" points="185.897,661.9844,175.897,665.9844,185.897,669.9844,181.897,665.9844" style="stroke:#181818;stroke-width:1;"/><line style="stroke:#181818;stroke-width:1;" x1="179.897" x2="393.6841" y1="665.9844" y2="665.9844"/><text fill="#000000" font-family="sans-serif" font-size="13" lengthAdjust="spacing" textLength="141.4766" x="191.897" y="660.9185">Display new message</text></g><?plantuml-src TLAnRXin3Dtr5OINn6YzTJBW08M31Xc264czUM5Eh4-D8WcYBe7_ljH9bzC1wMBhz9x8znwPJB84HoROe_pysC8pEMtS6H0UY1dFf1HsoSSHe0Z8i19-XEjoiLwf5pyuZV42TyVx4TzRGoxbpmRi9lI9EXDcGkTTYjv2VTIy_nd23C-lbZKAT-OzKtolCiinGzPIbuntB3QxdXgqNAoKskrWxz-2bnJGQM0n1xkTggutDrdi5dvV0i5R2URaf7VtcYivlLBPdj2AdYqSaBacU5t_7r_-YeorglOQyZ5eJ0JMTsX1d8WmnYpuapi9UAA0HYw-9DrKzsMA_-cUdLRl8VfEm3pkqUfucMNbJBOv_vn2jGl9BxgECLdlNuS00MCoCX5qYK6LZ3UDdCECWpMSu1juPuqZu8HfuARtz6JVasJxM5Xj_IkGVJJlj1JpMQ6Hh_MI8mQQGbSCWuk4InAVt1zPThHsQUgZ7pVZYyw6mVa4gPV3OYgIyorPuSloI-jgE4wRopbpoI_0Bsb8ebdIF9z9RuoRMGgWTJOjry3zDDwsvxt-VdBJmEHZEXxmOZtgjLIRTsNSfrl3mU8577rCP2L3_mS0?></g></svg>