<?plantuml 1.2026.2?><svg xmlns="http://www.w3.org/2000/svg" xmlns:xlink="http://www.w3.org/1999/xlink" contentStyleType="text/css" data-diagram-type="SEQUENCE" height="702px" preserveAspectRatio="none" style="width:1354px;height:702px;background:#FFFFFF;" version="1.1" viewBox="0 0 1354 702" width="1354px" zoomAndPan="magnify"><title>Use Case 4: Sending a Message</title><defs/><g><text fill="#000000" font-family="sans-serif" font-size="14" font-weight="bold" lengthAdjust="spacing" textLength="249.3135" x="548.4888" y="27.9951">Use Case 4: Sending a Message</text><rect fill="none" height="90.5313" style="stroke:#000000;stroke-width:1.5;" width="572.0264" x="236.877" y="514.3203"/><g class="participant-lifeline" data-entity-uid="part1" data-qualified-name="Sender" id="part1-lifeline"><g><title>User .Sender.</title><rect fill="#000000" fill-opacity="0.00000" height="503.2578" width="8" x="52.4565" y="118.5938"/><line style="stroke:#181818;stroke-width:0.5;stroke-dasharray:5,5;" x1="56" x2="56" y1="118.5938" y2="621.8516"/></g></g><g class="participant-lifeline" data-entity-uid="part2" data-qualified-name="Recipient" id="part2-lifeline"><g><title>User .Recipient.</title><rect fill="#000000" fill-opacity="0.00000" height="503.2578" width="8" x="173.395" y="118.5938"/><line style="stroke:#181818;stroke-width:0.5;stroke-dasharray:5,5;" x1="176.9131" x2="176.9131" y1="118.5938" y2="621.8516"/></g></g><g class="participant-lifeline" data-entity-uid="part3" data-qualified-name="GUI" id="part3-lifeline"><g><title>Client GUI</title><rect fill="#000000" fill-opacity="0.00000" height="503.2578" width="8" x="280.9795" y="118.5938"/><line style="stroke:#181818;stroke-width:0.5;stroke-dasharray:5,5;" x1="284.877" x2="284.877" y1="118.5938" y2="621.8516"/></g></g><g class="participant-lifeline" data-entity-uid="part4" data-qualified-name="Client" id="part4-lifeline"><g><title>Client App</title><rect fill="#000000" fill-opacity="0.00000" height="503.2578" width="8" x="529.9912" y="118.5938"/><line style="stroke:#181818;stroke-width:0.5;stroke-dasharray:5,5;" x1="533.8257" x2="533.8257" y1="118.5938" y2="621.8516"/></g></g><g class="participant-lifeline" data-entity-uid="part5" data-qualified-name="Server" id="part5-lifeline"><g><title>Server</title><rect fill="#000000" fill-opacity="0.00000" height="503.2578" width="8" x="768.9482" y="118.5938"/><line style="stroke:#181818;stroke-width:0.5;stroke-dasharray:5,5;" x1="771.9932" x2="771.9932" y1="118.5938" y2="621.8516"/></g></g><g class="participant-lifeline" data-entity-uid="part6" data-qualified-name="Cache" id="part6-lifeline"><g><title>Server Cache</title><rect fill="#000000" fill-opacity="0.00000" height="503.2578" width="8" x="1009.7588" y="118.5938"/><line style="stroke:#181818;stroke-width:0.5;stroke-dasharray:5,5;" x1="1013.5674" x2="1013.5674" y1="118.5938" y2="621.8516"/></g></g><g class="participant-lifeline" data-entity-uid="part7" data-qualified-name="Store" id="part7-lifeline"><g><title>Server Persistent Storage</title><rect fill="#000000" fill-opacity="0.00000" height="503.2578" width="8" x="1239.6206" y="118.5938"/><line style="stroke:#181818;stroke-width:0.5;stroke-dasharray:5,5;" x1="1242.9502" x2="1242.9502" y1="118.5938" y2="621.8516"/></g></g><g class="participant participant-head" data-entity-uid="part1" data-qualified-name="Sender" id="part1-head"><text fill="#000000" font-family="sans-serif" font-size="14" lengthAdjust="spacing" textLength="96.9131" x="5" y="115.292">User (Sender)</text><ellipse cx="56.4565" cy="50.7969" fill="#E2E2F0" rx="8" ry="8" style="stroke:#181818;stroke-width:0.5;"/><path d="M56.4565,58.7969 L56.4565,85.7969 M43.4565,66.7969 L69.4565,66.7969 M56.4565,85.7969 L43.4565,100.7969 M56.4565,85.7969 L69.4565,100.7969" fill="none" style="stroke:#181818;stroke-width:0.5;"/></g><g class="participant participant-tail" data-entity-uid="part1" data-qualified-name="Sender" id="part1-tail"><text fill="#000000" font-family="sans-serif" font-size="14" lengthAdjust="spacing" textLength="96.9131" x="5" y="633.8467">User (Sender)</text><ellipse cx="56.4565" cy="645.6484" fill="#E2E2F0" rx="8" ry="8" style="stroke:#181818;stroke-width:0.5;"/><path d="M56.4565,653.6484 L56.4565,680.6484 M43.4565,661.6484 L69.4565,661.6484 M56.4565,680.6484 L43.4565,695.6484 M56.4565,680.6484 L69.4565,695.6484" fill="none" style="stroke:#181818;stroke-width:0.5;"/></g><g class="participant participant-head" data-entity-uid="part2" data-qualified-name="Recipient" id="part2-head"><text fill="#000000" font-family="sans-serif" font-size="14" lengthAdjust="spacing" textLength="112.9639" x="117.9131" y="115.292">User (Recipient)</text><ellipse cx="177.395" cy="50.7969" fill="#E2E2F0" rx="8" ry="8" style="stroke:#181818;stroke-width:0.5;"/><path d="M177.395,58.7969 L177.395,85.7969 M164.395,66.7969 L190.395,66.7969 M177.395,85.7969 L164.395,100.7969 M177.395,85.7969 L190.395,100.7969" fill="none" style="stroke:#181818;stroke-width:0.5;"/></g><g class="participant participant-tail" data-entity-uid="part2" data-qualified-name="Recipient" id="part2-tail"><text fill="#000000" font-family="sans-serif" font-size="14" lengthAdjust="spacing" textLength="112.9639" x="117.9131" y="633.8467">User (Recipient)</text><ellipse cx="177.395" cy="645.6484" fill="#E2E2F0" rx="8" ry="8" style="stroke:#181818;stroke-width:0.5;"/><path d="M177.395,653.6484 L177.395,680.6484 M164.395,661.6484 L190.395,661.6484 M177.395,680.6484 L164.395,695.6484 M177.395,680.6484 L190.395,695.6484" fill="none" style="stroke:#181818;stroke-width:0.5;"/></g><g class="participant participant-head" data-entity-uid="part3" data-qualified-name="GUI" id="part3-head"><text fill="#000000" font-family="sans-serif" font-size="14" lengthAdjust="spacing" textLength="70.2051" x="246.877" y="115.292">Client GUI</text><path d="M264.4795,74.2969 L264.4795,98.2969 M264.4795,86.2969 L281.4795,86.2969" fill="none" style="stroke:#181818;stroke-width:0.5;"/><ellipse cx="293.4795" cy="86.2969" fill="#E2E2F0" rx="12" ry="12" style="stroke:#181818;stroke-width:0.5;"/></g><g class="participant participant-tail" data-entity-uid="part3" data-qualified-name="GUI" id="part3-tail"><text fill="#000000" font-family="sans-serif" font-size="14" lengthAdjust="spacing" textLength="70.2051" x="246.877" y="633.8467">Client GUI</text><path d="M264.4795,641.1484 L264.4795,665.1484 M264.4795,653.1484 L281.4795,653.1484" fill="none" style="stroke:#181818;stroke-width:0.5;"/><ellipse cx="293.4795" cy="653.1484" fill="#E2E2F0" rx="12" ry="12" style="stroke:#181818;stroke-width:0.5;"/></g><g class="participant participant-head" data-entity-uid="part4" data-qualified-name="Client" id="part4-head"><text fill="#000000" font-family="sans-serif" font-size="14" lengthAdjust="spacing" textLength="72.3311" x="494.8257" y="115.292">Client App</text><ellipse cx="533.9912" cy="86.2969" fill="#E2E2F0" rx="12" ry="12" style="stroke:#181818;stroke-width:0.5;"/><polygon fill="#181818" points="529.9912,74.2969,535.9912,69.2969,533.9912,74.2969,535.9912,79.2969,529.9912,74.2969" style="stroke:#181818;stroke-width:1;"/></g><g class="participant participant-tail" data-entity-uid="part4" data-qualified-name="Client" id="part4-tail"><text fill="#000000" font-family="sans-serif" font-size="14" lengthAdjust="spacing" textLength="72.3311" x="494.8257" y="633.8467">Client App</text><ellipse cx="533.9912" cy="653.1484" fill="#E2E2F0" rx="12" ry="12" style="stroke:#181818;stroke-width:0.5;"/><polygon fill="#181818" points="529.9912,641.1484,535.9912,636.1484,533.9912,641.1484,535.9912,646.1484,529.9912,641.1484" style="stroke:#181818;stroke-width:1;"/></g><g class="participant participant-head" data-entity-uid="part5" data-qualified-name="Server" id="part5-head"><text fill="#000000" font-family="sans-serif" font-size="14" lengthAdjust="spacing" textLength="45.9102" x="746.9932" y="115.292">Server</text><ellipse cx="772.9482" cy="86.2969" fill="#E2E2F0" rx="12" ry="12" style="stroke:#181818;stroke-width:0.5;"/><polygon fill="#181818" points="768.9482,74.2969,774.9482,69.2969,772.9482,74.2969,774.9482,79.2969,768.9482,74.2969" style="stroke:#181818;stroke-width:1;"/></g><g class="participant participant-tail" data-entity-uid="part5" data-qualified-name="Server" id="part5-tail"><text fill="#000000" font-family="sans-serif" font-size="14" lengthAdjust="spacing" textLength="45.9102" x="746.9932" y="633.8467">Server</text><ellipse cx="772.9482" cy="653.1484" fill="#E2E2F0" rx="12" ry="12" style="stroke:#181818;stroke-width:0.5;"/><polygon fill="#181818" points="768.9482,641.1484,774.9482,636.1484,772.9482,641.1484,774.9482,646.1484,768.9482,641.1484" style="stroke:#181818;stroke-width:1;"/></g><g class="participant participant-head" data-entity-uid="part6" data-qualified-name="Cache" id="part6-head"><rect fill="#E2E2F0" height="46.5938" style="stroke:#181818;stroke-width:0.5;" width="238.3828" x="896.5674" y="67"/><rect fill="#E2E2F0" height="46.5938" style="stroke:#181818;stroke-width:0.5;" width="238.3828" x="892.5674" y="71"/><text fill="#000000" font-family="sans-serif" font-size="14" lengthAdjust="spacing" textLength="93.8984" x="964.8096" y="90.9951">Server Cache</text><text fill="#000000" font-family="sans-serif" font-size="14" lengthAdjust="spacing" textLength="224.3828" x="899.5674" y="107.292">(Users + Conversation headers)</text></g><g class="participant participant-tail" data-entity-uid="part6" data-qualified-name="Cache" id="part6-tail"><rect fill="#E2E2F0" height="46.5938" style="stroke:#181818;stroke-width:0.5;" width="238.3828" x="896.5674" y="620.8516"/><rect fill="#E2E2F0" height="46.5938" style="stroke:#181818;stroke-width:0.5;" width="238.3828" x="892.5674" y="624.8516"/><text fill="#000000" font-family="sans-serif" font-size="14" lengthAdjust="spacing" textLength="93.8984" x="964.8096" y="644.8467">Server Cache</text><text fill="#000000" font-family="sans-serif" font-size="14" lengthAdjust="spacing" textLength="224.3828" x="899.5674" y="661.1436">(Users + Conversation headers)</text></g><g class="participant participant-head" data-entity-uid="part7" data-qualified-name="Store" id="part7-head"><rect fill="#E2E2F0" height="46.5938" style="stroke:#181818;stroke-width:0.5;" width="193.3408" x="1148.9502" y="67"/><rect fill="#E2E2F0" height="46.5938" style="stroke:#181818;stroke-width:0.5;" width="193.3408" x="1144.9502" y="71"/><text fill="#000000" font-family="sans-serif" font-size="14" lengthAdjust="spacing" textLength="179.3408" x="1151.9502" y="90.9951">Server Persistent Storage</text><text fill="#000000" font-family="sans-serif" font-size="14" lengthAdjust="spacing" textLength="79.5771" x="1201.832" y="107.292">(Messages)</text></g><g class="participant participant-tail" data-entity-uid="part7" data-qualified-name="Store" id="part7-tail"><rect fill="#E2E2F0" height="46.5938" style="stroke:#181818;stroke-width:0.5;" width="193.3408" x="1148.9502" y="620.8516"/><rect fill="#E2E2F0" height="46.5938" style="stroke:#181818;stroke-width:0.5;" width="193.3408" x="1144.9502" y="624.8516"/><text fill="#000000" font-family="sans-serif" font-size="14" lengthAdjust="spacing" textLength="179.3408" x="1151.9502" y="644.8467">Server Persistent Storage</text><text fill="#000000" font-family="sans-serif" font-size="14" lengthAdjust="spacing" textLength="79.5771" x="1201.832" y="661.1436">(Messages)</text></g><rect fill="#EEEEEE" height="3" style="stroke:#EEEEEE;stroke-width:1;" width="1347.291" x="0" y="149.1602"/><line style="stroke:#000000;stroke-width:1;" x1="0" x2="1347.291" y1="149.1602" y2="149.1602"/><line style="stroke:#000000;stroke-width:1;" x1="0" x2="1347.291" y1="152.1602" y2="152.1602"/><rect fill="#EEEEEE" height="23.1328" style="stroke:#000000;stroke-width:2;" width="156.835" x="595.228" y="138.5938"/><text fill="#000000" font-family="sans-serif" font-size="13" font-weight="bold" lengthAdjust="spacing" textLength="138.3091" x="601.228" y="154.6606">Compose and send</text><g class="message" data-entity-1="part1" data-entity-2="part3" id="msg1"><polygon fill="#181818" points="272.9795,203.9922,282.9795,207.9922,272.9795,211.9922,276.9795,207.9922" style="stroke:#181818;stroke-width:1;"/><line style="stroke:#181818;stroke-width:1;" x1="56.4565" x2="278.9795" y1="207.9922" y2="207.9922"/><text fill="#000000" font-family="sans-serif" font-size="13" lengthAdjust="spacing" textLength="94.4404" x="63.4565" y="187.7935">Type message</text><text fill="#000000" font-family="sans-serif" font-size="13" lengthAdjust="spacing" textLength="79.8091" x="63.4565" y="202.9263">Click "Send"</text></g><g class="message" data-entity-1="part3" data-entity-2="part4" id="msg2"><polygon fill="#181818" points="521.9912,248.2578,531.9912,252.2578,521.9912,256.2578,525.9912,252.2578" style="stroke:#181818;stroke-width:1;"/><line style="stroke:#181818;stroke-width:1;" x1="284.9795" x2="527.9912" y1="252.2578" y2="252.2578"/><text fill="#000000" font-family="sans-serif" font-size="13" lengthAdjust="spacing" textLength="195.0254" x="291.9795" y="232.0591">SendMessage(conversationId,</text><text fill="#000000" font-family="sans-serif" font-size="13" lengthAdjust="spacing" textLength="220.8794" x="296.1118" y="247.1919">messageText, attachments/meta)</text></g><g class="message" data-entity-1="part4" data-entity-2="part5" id="msg3"><polygon fill="#181818" points="760.9482,292.5234,770.9482,296.5234,760.9482,300.5234,764.9482,296.5234" style="stroke:#181818;stroke-width:1;"/><line style="stroke:#181818;stroke-width:1;" x1="533.9912" x2="766.9482" y1="296.5234" y2="296.5234"/><text fill="#000000" font-family="sans-serif" font-size="13" lengthAdjust="spacing" textLength="189.9473" x="540.9912" y="276.3247">PostMessage(conversationId,</text><text fill="#000000" font-family="sans-serif" font-size="13" lengthAdjust="spacing" textLength="210.8247" x="545.1235" y="291.4575">messagePayload, sessionToken)</text></g><rect fill="#EEEEEE" height="3" style="stroke:#EEEEEE;stroke-width:1;" width="1347.291" x="0" y="325.0898"/><line style="stroke:#000000;stroke-width:1;" x1="0" x2="1347.291" y1="325.0898" y2="325.0898"/><line style="stroke:#000000;stroke-width:1;" x1="0" x2="1347.291" y1="328.0898" y2="328.0898"/><rect fill="#EEEEEE" height="23.1328" style="stroke:#000000;stroke-width:2;" width="151.0078" x="598.1416" y="314.5234"/><text fill="#000000" font-family="sans-serif" font-size="13" font-weight="bold" lengthAdjust="spacing" textLength="132.4819" x="604.1416" y="330.5903">Server processing</text><g class="message" data-entity-1="part5" data-entity-2="part7" id="msg4"><polygon fill="#181818" points="1231.6206,364.7891,1241.6206,368.7891,1231.6206,372.7891,1235.6206,368.7891" style="stroke:#181818;stroke-width:1;"/><line style="stroke:#181818;stroke-width:1;" x1="772.9482" x2="1237.6206" y1="368.7891" y2="368.7891"/><text fill="#000000" font-family="sans-serif" font-size="13" lengthAdjust="spacing" textLength="217.7754" x="779.9482" y="363.7231">Append message to conversation</text></g><g class="message" data-entity-1="part7" data-entity-2="part5" id="msg5"><polygon fill="#181818" points="783.9482,393.9219,773.9482,397.9219,783.9482,401.9219,779.9482,397.9219" style="stroke:#181818;stroke-width:1;"/><line style="stroke:#181818;stroke-width:1;stroke-dasharray:2,2;" x1="777.9482" x2="1242.6206" y1="397.9219" y2="397.9219"/><text fill="#000000" font-family="sans-serif" font-size="13" lengthAdjust="spacing" textLength="206.0703" x="789.9482" y="392.856">Stored (messageId, timestamp)</text></g><g class="message" data-entity-1="part5" data-entity-2="part6" id="msg6"><polygon fill="#181818" points="1001.7588,423.0547,1011.7588,427.0547,1001.7588,431.0547,1005.7588,427.0547" style="stroke:#181818;stroke-width:1;"/><line style="stroke:#181818;stroke-width:1;" x1="772.9482" x2="1007.7588" y1="427.0547" y2="427.0547"/><text fill="#000000" font-family="sans-serif" font-size="13" lengthAdjust="spacing" textLength="216.8105" x="779.9482" y="421.9888">Lookup conversation participants</text></g><g class="message" data-entity-1="part6" data-entity-2="part5" id="msg7"><polygon fill="#181818" points="783.9482,452.1875,773.9482,456.1875,783.9482,460.1875,779.9482,456.1875" style="stroke:#181818;stroke-width:1;"/><line style="stroke:#181818;stroke-width:1;stroke-dasharray:2,2;" x1="777.9482" x2="1012.7588" y1="456.1875" y2="456.1875"/><text fill="#000000" font-family="sans-serif" font-size="13" lengthAdjust="spacing" textLength="196.2886" x="789.9482" y="451.1216">Participant list + online status</text></g><rect fill="#EEEEEE" height="3" style="stroke:#EEEEEE;stroke-width:1;" width="1347.291" x="0" y="484.7539"/><line style="stroke:#000000;stroke-width:1;" x1="0" x2="1347.291" y1="484.7539" y2="484.7539"/><line style="stroke:#000000;stroke-width:1;" x1="0" x2="1347.291" y1="487.7539" y2="487.7539"/><rect fill="#EEEEEE" height="23.1328" style="stroke:#000000;stroke-width:2;" width="226.291" x="560.5" y="474.1875"/><text fill="#000000" font-family="sans-serif" font-size="13" font-weight="bold" lengthAdjust="spacing" textLength="207.7651" x="566.5" y="490.2544">Delivery to online recipients</text><path d="M236.877,514.3203 L313.501,514.3203 L313.501,521.4531 L303.501,531.4531 L236.877,531.4531 L236.877,514.3203" fill="#EEEEEE" style="stroke:#000000;stroke-width:1.5;"/><rect fill="none" height="90.5313" style="stroke:#000000;stroke-width:1.5;" width="572.0264" x="236.877" y="514.3203"/><text fill="#000000" font-family="sans-serif" font-size="13" font-weight="bold" lengthAdjust="spacing" textLength="31.624" x="251.877" y="527.3872">loop</text><text fill="#000000" font-family="sans-serif" font-size="11" font-weight="bold" lengthAdjust="spacing" textLength="185.2222" x="328.501" y="526.5308">[For each logged-in recipient]</text><g class="message" data-entity-1="part5" data-entity-2="part4" id="msg8"><polygon fill="#181818" points="544.9912,563.7188,534.9912,567.7188,544.9912,571.7188,540.9912,567.7188" style="stroke:#181818;stroke-width:1;"/><line style="stroke:#181818;stroke-width:1;stroke-dasharray:2,2;" x1="538.9912" x2="771.9482" y1="567.7188" y2="567.7188"/><text fill="#000000" font-family="sans-serif" font-size="13" lengthAdjust="spacing" textLength="193.375" x="550.9912" y="547.52">PushMessage(conversationId,</text><text fill="#000000" font-family="sans-serif" font-size="13" lengthAdjust="spacing" textLength="193.5527" x="555.1235" y="562.6528">messageId, messagePayload)</text></g><g class="message" data-entity-1="part4" data-entity-2="part3" id="msg9"><polygon fill="#181818" points="295.9795,592.8516,285.9795,596.8516,295.9795,600.8516,291.9795,596.8516" style="stroke:#181818;stroke-width:1;"/><line style="stroke:#181818;stroke-width:1;" x1="289.9795" x2="532.9912" y1="596.8516" y2="596.8516"/><text fill="#000000" font-family="sans-serif" font-size="13" lengthAdjust="spacing" textLength="141.4766" x="301.9795" y="591.7856">Display new message</text></g><?plantuml-src XL9DYzim4BthLmmvnJIXbvuCAPGiBGijc4tsbejg3uc8h14QPNVzxplwIEsSzXBYUKzlvhsPQA95U6M4lPQVRoqSq0t6dK737sJMPrHAzv521Z20PbW9Fy2w59fLnL-mDzwWYmlA_vgm_jBD3JfCyElrELFsDhFbSwLwSZ6GXLfRm3-yd-43XhSwG_cR86knZuOSYuV-WWkq54vkdQPX-09xSb9cdUXmGItpS_EeSH0l3ngTS0p7D4l2914HhDcansgt4ztHa-IdtG0iiS1kfsfUs-_9OGl7oIECvTd9YRd-cbguOQLI848hXii6glwwNmpyF6nExYvnn8-u0HsZE1pb6NyTCUf6gHgRw9NvM-Y8uwTwdPuiwM4ZupCBUAGhkYQRgpduG7t2v3QokrnCRL9WRTfJCbxb818iUwaIwtOnLguCiAulP1g8HZwY7hqqdXla9RRmc-Xwym-gu7M8HavCIm2gR7_PefjXiB93kG1orZW4wH9ldEqzeJN2djB85Gtti-LarH9v-2aNZj80B9tFE6oDcraAxXbj5sliRdpvDFRa-d43ZQZDEyodysJOMps1m_SxMKdM_m00?></g></svg>