<?plantuml 1.2026.2?><svg xmlns="http://www.w3.org/2000/svg" xmlns:xlink="http://www.w3.org/1999/xlink" contentStyleType="text/css" data-diagram-type="SEQUENCE" height="1666px" preserveAspectRatio="none" style="width:1852px;height:1666px;background:#FFFFFF;" version="1.1" viewBox="0 0 1852 1666" width="1852px" zoomAndPan="magnify"><title>Use Case 6: Group Chat Functionality</title><defs/><g><text fill="#000000" font-family="sans-serif" font-size="14" font-weight="bold" lengthAdjust="spacing" textLength="294.5742" x="774.8977" y="27.9951">Use Case 6: Group Chat Functionality</text><rect fill="none" height="353.5313" style="stroke:#000000;stroke-width:1.5;" width="1633.0288" x="10" y="454.9219"/><rect fill="none" height="323.4297" style="stroke:#000000;stroke-width:1.5;" width="1633.0288" x="10" y="865.5859"/><g class="participant-lifeline" data-entity-uid="part1" data-qualified-name="User" id="part1-lifeline"><g><title>User</title><rect fill="#000000" fill-opacity="0.00000" height="1467.1172" width="8" x="34.9551" y="118.5938"/><line style="stroke:#181818;stroke-width:0.5;stroke-dasharray:5,5;" x1="38" x2="38" y1="118.5938" y2="1585.7109"/></g></g><g class="participant-lifeline" data-entity-uid="part2" data-qualified-name="GUI" id="part2-lifeline"><g><title>Client GUI</title><rect fill="#000000" fill-opacity="0.00000" height="1467.1172" width="8" x="446.3271" y="118.5938"/><line style="stroke:#181818;stroke-width:0.5;stroke-dasharray:5,5;" x1="450.2246" x2="450.2246" y1="118.5938" y2="1585.7109"/></g></g><g class="participant-lifeline" data-entity-uid="part3" data-qualified-name="Client" id="part3-lifeline"><g><title>Client App</title><rect fill="#000000" fill-opacity="0.00000" height="1467.1172" width="8" x="701.4199" y="118.5938"/><line style="stroke:#181818;stroke-width:0.5;stroke-dasharray:5,5;" x1="705.2544" x2="705.2544" y1="118.5938" y2="1585.7109"/></g></g><g class="participant-lifeline" data-entity-uid="part4" data-qualified-name="Server" id="part4-lifeline"><g><title>Server</title><rect fill="#000000" fill-opacity="0.00000" height="1467.1172" width="8" x="1038.2134" y="118.5938"/><line style="stroke:#181818;stroke-width:0.5;stroke-dasharray:5,5;" x1="1041.2583" x2="1041.2583" y1="118.5938" y2="1585.7109"/></g></g><g class="participant-lifeline" data-entity-uid="part5" data-qualified-name="ClientCache" id="part5-lifeline"><g><title>Client Cache</title><rect fill="#000000" fill-opacity="0.00000" height="1467.1172" width="8" x="1225.4072" y="118.5938"/><line style="stroke:#181818;stroke-width:0.5;stroke-dasharray:5,5;" x1="1229.1685" x2="1229.1685" y1="118.5938" y2="1585.7109"/></g></g><g class="participant-lifeline" data-entity-uid="part6" data-qualified-name="Cache" id="part6-lifeline"><g><title>Server Cache</title><rect fill="#000000" fill-opacity="0.00000" height="1467.1172" width="8" x="1507.8374" y="118.5938"/><line style="stroke:#181818;stroke-width:0.5;stroke-dasharray:5,5;" x1="1511.646" x2="1511.646" y1="118.5938" y2="1585.7109"/></g></g><g class="participant-lifeline" data-entity-uid="part7" data-qualified-name="Store" id="part7-lifeline"><g><title>Server Persistent Storage</title><rect fill="#000000" fill-opacity="0.00000" height="1467.1172" width="8" x="1737.6992" y="118.5938"/><line style="stroke:#181818;stroke-width:0.5;stroke-dasharray:5,5;" x1="1741.0288" x2="1741.0288" y1="118.5938" y2="1585.7109"/></g></g><g class="participant participant-head" data-entity-uid="part1" data-qualified-name="User" id="part1-head"><text fill="#000000" font-family="sans-serif" font-size="14" lengthAdjust="spacing" textLength="31.9102" x="20" y="115.292">User</text><ellipse cx="38.9551" cy="50.7969" fill="#E2E2F0" rx="8" ry="8" style="stroke:#181818;stroke-width:0.5;"/><path d="M38.9551,58.7969 L38.9551,85.7969 M25.9551,66.7969 L51.9551,66.7969 M38.9551,85.7969 L25.9551,100.7969 M38.9551,85.7969 L51.9551,100.7969" fill="none" style="stroke:#181818;stroke-width:0.5;"/></g><g class="participant participant-tail" data-entity-uid="part1" data-qualified-name="User" id="part1-tail"><text fill="#000000" font-family="sans-serif" font-size="14" lengthAdjust="spacing" textLength="31.9102" x="20" y="1597.7061">User</text><ellipse cx="38.9551" cy="1609.5078" fill="#E2E2F0" rx="8" ry="8" style="stroke:#181818;stroke-width:0.5;"/><path d="M38.9551,1617.5078 L38.9551,1644.5078 M25.9551,1625.5078 L51.9551,1625.5078 M38.9551,1644.5078 L25.9551,1659.5078 M38.9551,1644.5078 L51.9551,1659.5078" fill="none" style="stroke:#181818;stroke-width:0.5;"/></g><g class="participant participant-head" data-entity-uid="part2" data-qualified-name="GUI" id="part2-head"><text fill="#000000" font-family="sans-serif" font-size="14" lengthAdjust="spacing" textLength="70.2051" x="412.2246" y="115.292">Client GUI</text><path d="M429.8271,74.2969 L429.8271,98.2969 M429.8271,86.2969 L446.8271,86.2969" fill="none" style="stroke:#181818;stroke-width:0.5;"/><ellipse cx="458.8271" cy="86.2969" fill="#E2E2F0" rx="12" ry="12" style="stroke:#181818;stroke-width:0.5;"/></g><g class="participant participant-tail" data-entity-uid="part2" data-qualified-name="GUI" id="part2-tail"><text fill="#000000" font-family="sans-serif" font-size="14" lengthAdjust="spacing" textLength="70.2051" x="412.2246" y="1597.7061">Client GUI</text><path d="M429.8271,1605.0078 L429.8271,1629.0078 M429.8271,1617.0078 L446.8271,1617.0078" fill="none" style="stroke:#181818;stroke-width:0.5;"/><ellipse cx="458.8271" cy="1617.0078" fill="#E2E2F0" rx="12" ry="12" style="stroke:#181818;stroke-width:0.5;"/></g><g class="participant participant-head" data-entity-uid="part3" data-qualified-name="Client" id="part3-head"><text fill="#000000" font-family="sans-serif" font-size="14" lengthAdjust="spacing" textLength="72.3311" x="666.2544" y="115.292">Client App</text><ellipse cx="705.4199" cy="86.2969" fill="#E2E2F0" rx="12" ry="12" style="stroke:#181818;stroke-width:0.5;"/><polygon fill="#181818" points="701.4199,74.2969,707.4199,69.2969,705.4199,74.2969,707.4199,79.2969,701.4199,74.2969" style="stroke:#181818;stroke-width:1;"/></g><g class="participant participant-tail" data-entity-uid="part3" data-qualified-name="Client" id="part3-tail"><text fill="#000000" font-family="sans-serif" font-size="14" lengthAdjust="spacing" textLength="72.3311" x="666.2544" y="1597.7061">Client App</text><ellipse cx="705.4199" cy="1617.0078" fill="#E2E2F0" rx="12" ry="12" style="stroke:#181818;stroke-width:0.5;"/><polygon fill="#181818" points="701.4199,1605.0078,707.4199,1600.0078,705.4199,1605.0078,707.4199,1610.0078,701.4199,1605.0078" style="stroke:#181818;stroke-width:1;"/></g><g class="participant participant-head" data-entity-uid="part4" data-qualified-name="Server" id="part4-head"><text fill="#000000" font-family="sans-serif" font-size="14" lengthAdjust="spacing" textLength="45.9102" x="1016.2583" y="115.292">Server</text><ellipse cx="1042.2134" cy="86.2969" fill="#E2E2F0" rx="12" ry="12" style="stroke:#181818;stroke-width:0.5;"/><polygon fill="#181818" points="1038.2134,74.2969,1044.2134,69.2969,1042.2134,74.2969,1044.2134,79.2969,1038.2134,74.2969" style="stroke:#181818;stroke-width:1;"/></g><g class="participant participant-tail" data-entity-uid="part4" data-qualified-name="Server" id="part4-tail"><text fill="#000000" font-family="sans-serif" font-size="14" lengthAdjust="spacing" textLength="45.9102" x="1016.2583" y="1597.7061">Server</text><ellipse cx="1042.2134" cy="1617.0078" fill="#E2E2F0" rx="12" ry="12" style="stroke:#181818;stroke-width:0.5;"/><polygon fill="#181818" points="1038.2134,1605.0078,1044.2134,1600.0078,1042.2134,1605.0078,1044.2134,1610.0078,1038.2134,1605.0078" style="stroke:#181818;stroke-width:1;"/></g><g class="participant participant-head" data-entity-uid="part5" data-qualified-name="ClientCache" id="part5-head"><rect fill="#E2E2F0" height="46.5938" style="stroke:#181818;stroke-width:0.5;" width="298.4775" x="1082.1685" y="67"/><rect fill="#E2E2F0" height="46.5938" style="stroke:#181818;stroke-width:0.5;" width="298.4775" x="1078.1685" y="71"/><text fill="#000000" font-family="sans-serif" font-size="14" lengthAdjust="spacing" textLength="88.5186" x="1183.1479" y="90.9951">Client Cache</text><text fill="#000000" font-family="sans-serif" font-size="14" lengthAdjust="spacing" textLength="284.4775" x="1085.1685" y="107.292">(User directory + Conversation headers)</text></g><g class="participant participant-tail" data-entity-uid="part5" data-qualified-name="ClientCache" id="part5-tail"><rect fill="#E2E2F0" height="46.5938" style="stroke:#181818;stroke-width:0.5;" width="298.4775" x="1082.1685" y="1584.7109"/><rect fill="#E2E2F0" height="46.5938" style="stroke:#181818;stroke-width:0.5;" width="298.4775" x="1078.1685" y="1588.7109"/><text fill="#000000" font-family="sans-serif" font-size="14" lengthAdjust="spacing" textLength="88.5186" x="1183.1479" y="1608.7061">Client Cache</text><text fill="#000000" font-family="sans-serif" font-size="14" lengthAdjust="spacing" textLength="284.4775" x="1085.1685" y="1625.0029">(User directory + Conversation headers)</text></g><g class="participant participant-head" data-entity-uid="part6" data-qualified-name="Cache" id="part6-head"><rect fill="#E2E2F0" height="46.5938" style="stroke:#181818;stroke-width:0.5;" width="238.3828" x="1394.646" y="67"/><rect fill="#E2E2F0" height="46.5938" style="stroke:#181818;stroke-width:0.5;" width="238.3828" x="1390.646" y="71"/><text fill="#000000" font-family="sans-serif" font-size="14" lengthAdjust="spacing" textLength="93.8984" x="1462.8882" y="90.9951">Server Cache</text><text fill="#000000" font-family="sans-serif" font-size="14" lengthAdjust="spacing" textLength="224.3828" x="1397.646" y="107.292">(Users + Conversation headers)</text></g><g class="participant participant-tail" data-entity-uid="part6" data-qualified-name="Cache" id="part6-tail"><rect fill="#E2E2F0" height="46.5938" style="stroke:#181818;stroke-width:0.5;" width="238.3828" x="1394.646" y="1584.7109"/><rect fill="#E2E2F0" height="46.5938" style="stroke:#181818;stroke-width:0.5;" width="238.3828" x="1390.646" y="1588.7109"/><text fill="#000000" font-family="sans-serif" font-size="14" lengthAdjust="spacing" textLength="93.8984" x="1462.8882" y="1608.7061">Server Cache</text><text fill="#000000" font-family="sans-serif" font-size="14" lengthAdjust="spacing" textLength="224.3828" x="1397.646" y="1625.0029">(Users + Conversation headers)</text></g><g class="participant participant-head" data-entity-uid="part7" data-qualified-name="Store" id="part7-head"><rect fill="#E2E2F0" height="46.5938" style="stroke:#181818;stroke-width:0.5;" width="193.3408" x="1647.0288" y="67"/><rect fill="#E2E2F0" height="46.5938" style="stroke:#181818;stroke-width:0.5;" width="193.3408" x="1643.0288" y="71"/><text fill="#000000" font-family="sans-serif" font-size="14" lengthAdjust="spacing" textLength="179.3408" x="1650.0288" y="90.9951">Server Persistent Storage</text><text fill="#000000" font-family="sans-serif" font-size="14" lengthAdjust="spacing" textLength="164.5479" x="1657.4253" y="107.292">(Conversation headers)</text></g><g class="participant participant-tail" data-entity-uid="part7" data-qualified-name="Store" id="part7-tail"><rect fill="#E2E2F0" height="46.5938" style="stroke:#181818;stroke-width:0.5;" width="193.3408" x="1647.0288" y="1584.7109"/><rect fill="#E2E2F0" height="46.5938" style="stroke:#181818;stroke-width:0.5;" width="193.3408" x="1643.0288" y="1588.7109"/><text fill="#000000" font-family="sans-serif" font-size="14" lengthAdjust="spacing" textLength="179.3408" x="1650.0288" y="1608.7061">Server Persistent Storage</text><text fill="#000000" font-family="sans-serif" font-size="14" lengthAdjust="spacing" textLength="164.5479" x="1657.4253" y="1625.0029">(Conversation headers)</text></g><rect fill="#EEEEEE" height="3" style="stroke:#EEEEEE;stroke-width:1;" width="1845.3696" x="0" y="149.1602"/><line style="stroke:#000000;stroke-width:1;" x1="0" x2="1845.3696" y1="149.1602" y2="149.1602"/><line style="stroke:#000000;stroke-width:1;" x1="0" x2="1845.3696" y1="152.1602" y2="152.1602"/><rect fill="#EEEEEE" height="23.1328" style="stroke:#000000;stroke-width:2;" width="214.3193" x="815.5251" y="138.5938"/><text fill="#000000" font-family="sans-serif" font-size="13" font-weight="bold" lengthAdjust="spacing" textLength="195.7935" x="821.5251" y="154.6606">Create group conversation</text><g class="message" data-entity-1="part1" data-entity-2="part2" id="msg1"><polygon fill="#181818" points="438.3271,188.8594,448.3271,192.8594,438.3271,196.8594,442.3271,192.8594" style="stroke:#181818;stroke-width:1;"/><line style="stroke:#181818;stroke-width:1;" x1="38.9551" x2="444.3271" y1="192.8594" y2="192.8594"/><text fill="#000000" font-family="sans-serif" font-size="13" lengthAdjust="spacing" textLength="387.3721" x="45.9551" y="187.7935">From a conversation, select Convert to Group Conversation</text></g><g class="message" data-entity-1="part3" data-entity-2="part4" id="msg2"><polygon fill="#181818" points="1030.2134,217.9922,1040.2134,221.9922,1030.2134,225.9922,1034.2134,221.9922" style="stroke:#181818;stroke-width:1;"/><line style="stroke:#181818;stroke-width:1;" x1="705.4199" x2="1036.2134" y1="221.9922" y2="221.9922"/><text fill="#000000" font-family="sans-serif" font-size="13" lengthAdjust="spacing" textLength="312.7935" x="712.4199" y="216.9263">CreateGroupConversation(currentConversation)</text></g><g class="message" data-entity-1="part4" data-entity-2="part7" id="msg3"><polygon fill="#181818" points="1729.6992,247.125,1739.6992,251.125,1729.6992,255.125,1733.6992,251.125" style="stroke:#181818;stroke-width:1;"/><line style="stroke:#181818;stroke-width:1;" x1="1042.2134" x2="1735.6992" y1="251.125" y2="251.125"/><text fill="#000000" font-family="sans-serif" font-size="13" lengthAdjust="spacing" textLength="155.562" x="1049.2134" y="246.0591">Create conversation file</text></g><g class="message" data-entity-1="part7" data-entity-2="part4" id="msg4"><polygon fill="#181818" points="1053.2134,276.2578,1043.2134,280.2578,1053.2134,284.2578,1049.2134,280.2578" style="stroke:#181818;stroke-width:1;"/><line style="stroke:#181818;stroke-width:1;stroke-dasharray:2,2;" x1="1047.2134" x2="1740.6992" y1="280.2578" y2="280.2578"/><text fill="#000000" font-family="sans-serif" font-size="13" lengthAdjust="spacing" textLength="162.1128" x="1059.2134" y="275.1919">Created (conversationId)</text></g><g class="message" data-entity-1="part4" data-entity-2="part6" id="msg5"><polygon fill="#181818" points="1499.8374,305.3906,1509.8374,309.3906,1499.8374,313.3906,1503.8374,309.3906" style="stroke:#181818;stroke-width:1;"/><line style="stroke:#181818;stroke-width:1;" x1="1042.2134" x2="1505.8374" y1="309.3906" y2="309.3906"/><text fill="#000000" font-family="sans-serif" font-size="13" lengthAdjust="spacing" textLength="165.9531" x="1049.2134" y="304.3247">Update conversation logs</text></g><g class="message" data-entity-1="part4" data-entity-2="part3" id="msg6"><polygon fill="#181818" points="716.4199,334.5234,706.4199,338.5234,716.4199,342.5234,712.4199,338.5234" style="stroke:#181818;stroke-width:1;"/><line style="stroke:#181818;stroke-width:1;stroke-dasharray:2,2;" x1="710.4199" x2="1041.2134" y1="338.5234" y2="338.5234"/><text fill="#000000" font-family="sans-serif" font-size="13" lengthAdjust="spacing" textLength="152.3184" x="722.4199" y="333.4575">CreateConversation OK</text></g><g class="message" data-entity-1="part3" data-entity-2="part5" id="msg7"><polygon fill="#181818" points="1217.4072,363.6563,1227.4072,367.6563,1217.4072,371.6563,1221.4072,367.6563" style="stroke:#181818;stroke-width:1;"/><line style="stroke:#181818;stroke-width:1;" x1="705.4199" x2="1223.4072" y1="367.6563" y2="367.6563"/><text fill="#000000" font-family="sans-serif" font-size="13" lengthAdjust="spacing" textLength="165.1533" x="712.4199" y="362.5903">Add conversation to local</text></g><g class="message" data-entity-1="part3" data-entity-2="part2" id="msg8"><polygon fill="#181818" points="461.3271,392.7891,451.3271,396.7891,461.3271,400.7891,457.3271,396.7891" style="stroke:#181818;stroke-width:1;"/><line style="stroke:#181818;stroke-width:1;" x1="455.3271" x2="704.4199" y1="396.7891" y2="396.7891"/><text fill="#000000" font-family="sans-serif" font-size="13" lengthAdjust="spacing" textLength="230.1152" x="467.3271" y="391.7231">Open new group conversation view</text></g><rect fill="#EEEEEE" height="3" style="stroke:#EEEEEE;stroke-width:1;" width="1845.3696" x="0" y="425.3555"/><line style="stroke:#000000;stroke-width:1;" x1="0" x2="1845.3696" y1="425.3555" y2="425.3555"/><line style="stroke:#000000;stroke-width:1;" x1="0" x2="1845.3696" y1="428.3555" y2="428.3555"/><rect fill="#EEEEEE" height="23.1328" style="stroke:#000000;stroke-width:2;" width="130.8794" x="857.2451" y="414.7891"/><text fill="#000000" font-family="sans-serif" font-size="13" font-weight="bold" lengthAdjust="spacing" textLength="112.3535" x="863.2451" y="430.856">Add users later</text><path d="M10,454.9219 L86.624,454.9219 L86.624,462.0547 L76.624,472.0547 L10,472.0547 L10,454.9219" fill="#EEEEEE" style="stroke:#000000;stroke-width:1.5;"/><rect fill="none" height="353.5313" style="stroke:#000000;stroke-width:1.5;" width="1633.0288" x="10" y="454.9219"/><text fill="#000000" font-family="sans-serif" font-size="13" font-weight="bold" lengthAdjust="spacing" textLength="31.624" x="25" y="467.9888">loop</text><text fill="#000000" font-family="sans-serif" font-size="11" font-weight="bold" lengthAdjust="spacing" textLength="282.0737" x="101.624" y="467.1323">[When Group Chat Creator adds participants]</text><g class="message" data-entity-1="part1" data-entity-2="part2" id="msg9"><polygon fill="#181818" points="438.3271,489.1875,448.3271,493.1875,438.3271,497.1875,442.3271,493.1875" style="stroke:#181818;stroke-width:1;"/><line style="stroke:#181818;stroke-width:1;" x1="38.9551" x2="444.3271" y1="493.1875" y2="493.1875"/><text fill="#000000" font-family="sans-serif" font-size="13" lengthAdjust="spacing" textLength="153.8608" x="45.9551" y="488.1216">Choose "Add Members"</text></g><rect fill="none" height="39.1016" style="stroke:#000000;stroke-width:1.5;" width="1054.1685" x="17" y="501.1875"/><path d="M17,501.1875 L82,501.1875 L82,508.1875 L72,518.1875 L17,518.1875 L17,501.1875" fill="#EEEEEE" style="stroke:#000000;stroke-width:2;"/><text fill="#000000" font-family="sans-serif" font-size="13" font-weight="bold" lengthAdjust="spacing" textLength="20.8838" x="30" y="515.2544">ref</text><text fill="#000000" font-family="sans-serif" font-size="12" lengthAdjust="spacing" textLength="126.2285" x="480.97" y="533.3262">Searching For A User</text><g class="message" data-entity-1="part1" data-entity-2="part2" id="msg10"><polygon fill="#181818" points="438.3271,577.5547,448.3271,581.5547,438.3271,585.5547,442.3271,581.5547" style="stroke:#181818;stroke-width:1;"/><line style="stroke:#181818;stroke-width:1;" x1="38.9551" x2="444.3271" y1="581.5547" y2="581.5547"/><text fill="#000000" font-family="sans-serif" font-size="13" lengthAdjust="spacing" textLength="118.3774" x="45.9551" y="561.356">Select user to add</text><text fill="#000000" font-family="sans-serif" font-size="13" lengthAdjust="spacing" textLength="72.4648" x="45.9551" y="576.4888">Click "Add"</text></g><g class="message" data-entity-1="part2" data-entity-2="part3" id="msg11"><polygon fill="#181818" points="693.4199,606.6875,703.4199,610.6875,693.4199,614.6875,697.4199,610.6875" style="stroke:#181818;stroke-width:1;"/><line style="stroke:#181818;stroke-width:1;" x1="450.3271" x2="699.4199" y1="610.6875" y2="610.6875"/><text fill="#000000" font-family="sans-serif" font-size="13" lengthAdjust="spacing" textLength="187.4463" x="457.3271" y="605.6216">AddParticipant(userIdToAdd)</text></g><g class="message" data-entity-1="part3" data-entity-2="part4" id="msg12"><polygon fill="#181818" points="1030.2134,635.8203,1040.2134,639.8203,1030.2134,643.8203,1034.2134,639.8203" style="stroke:#181818;stroke-width:1;"/><line style="stroke:#181818;stroke-width:1;" x1="705.4199" x2="1036.2134" y1="639.8203" y2="639.8203"/><text fill="#000000" font-family="sans-serif" font-size="13" lengthAdjust="spacing" textLength="187.4463" x="712.4199" y="634.7544">AddParticipant(userIdToAdd)</text></g><g class="message" data-entity-1="part4" data-entity-2="part6" id="msg13"><polygon fill="#181818" points="1499.8374,680.0859,1509.8374,684.0859,1499.8374,688.0859,1503.8374,684.0859" style="stroke:#181818;stroke-width:1;"/><line style="stroke:#181818;stroke-width:1;" x1="1042.2134" x2="1505.8374" y1="684.0859" y2="684.0859"/><text fill="#000000" font-family="sans-serif" font-size="13" lengthAdjust="spacing" textLength="151.7979" x="1049.2134" y="663.8872">Update participants list</text><text fill="#000000" font-family="sans-serif" font-size="13" lengthAdjust="spacing" textLength="67.1011" x="1049.2134" y="679.02">(add user)</text></g><g class="message" data-entity-1="part4" data-entity-2="part3" id="msg14"><polygon fill="#181818" points="716.4199,709.2188,706.4199,713.2188,716.4199,717.2188,712.4199,713.2188" style="stroke:#181818;stroke-width:1;"/><line style="stroke:#181818;stroke-width:1;stroke-dasharray:2,2;" x1="710.4199" x2="1041.2134" y1="713.2188" y2="713.2188"/><text fill="#000000" font-family="sans-serif" font-size="13" lengthAdjust="spacing" textLength="125.2329" x="722.4199" y="708.1528">AddParticipants OK</text></g><rect fill="#EEEEEE" height="3" style="stroke:#EEEEEE;stroke-width:1;" width="1845.3696" x="0" y="741.7852"/><line style="stroke:#000000;stroke-width:1;" x1="0" x2="1845.3696" y1="741.7852" y2="741.7852"/><line style="stroke:#000000;stroke-width:1;" x1="0" x2="1845.3696" y1="744.7852" y2="744.7852"/><rect fill="#EEEEEE" height="23.1328" style="stroke:#000000;stroke-width:2;" width="230.0234" x="807.6731" y="731.2188"/><text fill="#000000" font-family="sans-serif" font-size="13" font-weight="bold" lengthAdjust="spacing" textLength="211.4976" x="813.6731" y="747.2856">Notify logged-in participants</text><rect fill="none" height="39.1016" style="stroke:#000000;stroke-width:1.5;" width="972.7744" x="663.2544" y="764.3516"/><path d="M663.2544,764.3516 L728.2544,764.3516 L728.2544,771.3516 L718.2544,781.3516 L663.2544,781.3516 L663.2544,764.3516" fill="#EEEEEE" style="stroke:#000000;stroke-width:2;"/><text fill="#000000" font-family="sans-serif" font-size="13" font-weight="bold" lengthAdjust="spacing" textLength="20.8838" x="676.2544" y="778.4185">ref</text><text fill="#000000" font-family="sans-serif" font-size="12" lengthAdjust="spacing" textLength="285.3984" x="1006.9424" y="796.4902">Push User Added Message to other participants</text><rect fill="#EEEEEE" height="3" style="stroke:#EEEEEE;stroke-width:1;" width="1845.3696" x="0" y="836.0195"/><line style="stroke:#000000;stroke-width:1;" x1="0" x2="1845.3696" y1="836.0195" y2="836.0195"/><line style="stroke:#000000;stroke-width:1;" x1="0" x2="1845.3696" y1="839.0195" y2="839.0195"/><rect fill="#EEEEEE" height="23.1328" style="stroke:#000000;stroke-width:2;" width="122.9067" x="861.2314" y="825.4531"/><text fill="#000000" font-family="sans-serif" font-size="13" font-weight="bold" lengthAdjust="spacing" textLength="104.3809" x="867.2314" y="841.52">Remove Users</text><path d="M10,865.5859 L86.624,865.5859 L86.624,872.7188 L76.624,882.7188 L10,882.7188 L10,865.5859" fill="#EEEEEE" style="stroke:#000000;stroke-width:1.5;"/><rect fill="none" height="323.4297" style="stroke:#000000;stroke-width:1.5;" width="1633.0288" x="10" y="865.5859"/><text fill="#000000" font-family="sans-serif" font-size="13" font-weight="bold" lengthAdjust="spacing" textLength="31.624" x="25" y="878.6528">loop</text><text fill="#000000" font-family="sans-serif" font-size="11" font-weight="bold" lengthAdjust="spacing" textLength="308.4834" x="101.624" y="877.7964">[When Group Chat Creator Removes participants]</text><g class="message" data-entity-1="part1" data-entity-2="part2" id="msg15"><polygon fill="#181818" points="438.3271,899.8516,448.3271,903.8516,438.3271,907.8516,442.3271,903.8516" style="stroke:#181818;stroke-width:1;"/><line style="stroke:#181818;stroke-width:1;" x1="38.9551" x2="444.3271" y1="903.8516" y2="903.8516"/><text fill="#000000" font-family="sans-serif" font-size="13" lengthAdjust="spacing" textLength="173.9131" x="45.9551" y="898.7856">Select "Remove Members"</text></g><g class="message" data-entity-1="part2" data-entity-2="part1" id="msg16"><polygon fill="#181818" points="49.9551,928.9844,39.9551,932.9844,49.9551,936.9844,45.9551,932.9844" style="stroke:#181818;stroke-width:1;"/><line style="stroke:#181818;stroke-width:1;" x1="43.9551" x2="449.3271" y1="932.9844" y2="932.9844"/><text fill="#000000" font-family="sans-serif" font-size="13" lengthAdjust="spacing" textLength="175.6714" x="55.9551" y="927.9185">Display List of Participands</text></g><g class="message" data-entity-1="part1" data-entity-2="part2" id="msg17"><polygon fill="#181818" points="438.3271,958.1172,448.3271,962.1172,438.3271,966.1172,442.3271,962.1172" style="stroke:#181818;stroke-width:1;"/><line style="stroke:#181818;stroke-width:1;" x1="38.9551" x2="444.3271" y1="962.1172" y2="962.1172"/><text fill="#000000" font-family="sans-serif" font-size="13" lengthAdjust="spacing" textLength="148.5225" x="45.9551" y="957.0513">Select User to Remove</text></g><g class="message" data-entity-1="part2" data-entity-2="part3" id="msg18"><polygon fill="#181818" points="693.4199,987.25,703.4199,991.25,693.4199,995.25,697.4199,991.25" style="stroke:#181818;stroke-width:1;"/><line style="stroke:#181818;stroke-width:1;" x1="450.3271" x2="699.4199" y1="991.25" y2="991.25"/><text fill="#000000" font-family="sans-serif" font-size="13" lengthAdjust="spacing" textLength="136.5889" x="457.3271" y="986.1841">RemoveUser(UserID)</text></g><g class="message" data-entity-1="part3" data-entity-2="part4" id="msg19"><polygon fill="#181818" points="1030.2134,1016.3828,1040.2134,1020.3828,1030.2134,1024.3828,1034.2134,1020.3828" style="stroke:#181818;stroke-width:1;"/><line style="stroke:#181818;stroke-width:1;" x1="705.4199" x2="1036.2134" y1="1020.3828" y2="1020.3828"/><text fill="#000000" font-family="sans-serif" font-size="13" lengthAdjust="spacing" textLength="136.5889" x="712.4199" y="1015.3169">RemoveUser(UserID)</text></g><g class="message" data-entity-1="part4" data-entity-2="part6" id="msg20"><polygon fill="#181818" points="1499.8374,1060.6484,1509.8374,1064.6484,1499.8374,1068.6484,1503.8374,1064.6484" style="stroke:#181818;stroke-width:1;"/><line style="stroke:#181818;stroke-width:1;" x1="1042.2134" x2="1505.8374" y1="1064.6484" y2="1064.6484"/><text fill="#000000" font-family="sans-serif" font-size="13" lengthAdjust="spacing" textLength="151.3853" x="1049.2134" y="1044.4497">Update Particiapnts list</text><text fill="#000000" font-family="sans-serif" font-size="13" lengthAdjust="spacing" textLength="92.2822" x="1049.2134" y="1059.5825">(remove user)</text></g><g class="message" data-entity-1="part4" data-entity-2="part3" id="msg21"><polygon fill="#181818" points="716.4199,1089.7813,706.4199,1093.7813,716.4199,1097.7813,712.4199,1093.7813" style="stroke:#181818;stroke-width:1;"/><line style="stroke:#181818;stroke-width:1;stroke-dasharray:2,2;" x1="710.4199" x2="1041.2134" y1="1093.7813" y2="1093.7813"/><text fill="#000000" font-family="sans-serif" font-size="13" lengthAdjust="spacing" textLength="147.7354" x="722.4199" y="1088.7153">LeaveConversation OK</text></g><rect fill="#EEEEEE" height="3" style="stroke:#EEEEEE;stroke-width:1;" width="1845.3696" x="0" y="1122.3477"/><line style="stroke:#000000;stroke-width:1;" x1="0" x2="1845.3696" y1="1122.3477" y2="1122.3477"/><line style="stroke:#000000;stroke-width:1;" x1="0" x2="1845.3696" y1="1125.3477" y2="1125.3477"/><rect fill="#EEEEEE" height="23.1328" style="stroke:#000000;stroke-width:2;" width="235.0698" x="805.1499" y="1111.7813"/><text fill="#000000" font-family="sans-serif" font-size="13" font-weight="bold" lengthAdjust="spacing" textLength="216.5439" x="811.1499" y="1127.8481">Notify remaining participants</text><rect fill="none" height="39.1016" style="stroke:#000000;stroke-width:1.5;" width="972.7744" x="663.2544" y="1144.9141"/><path d="M663.2544,1144.9141 L728.2544,1144.9141 L728.2544,1151.9141 L718.2544,1161.9141 L663.2544,1161.9141 L663.2544,1144.9141" fill="#EEEEEE" style="stroke:#000000;stroke-width:2;"/><text fill="#000000" font-family="sans-serif" font-size="13" font-weight="bold" lengthAdjust="spacing" textLength="20.8838" x="676.2544" y="1158.981">ref</text><text fill="#000000" font-family="sans-serif" font-size="12" lengthAdjust="spacing" textLength="269.9531" x="1014.665" y="1177.0527">Push User Left Message to other participants</text><rect fill="#EEEEEE" height="3" style="stroke:#EEEEEE;stroke-width:1;" width="1845.3696" x="0" y="1216.582"/><line style="stroke:#000000;stroke-width:1;" x1="0" x2="1845.3696" y1="1216.582" y2="1216.582"/><line style="stroke:#000000;stroke-width:1;" x1="0" x2="1845.3696" y1="1219.582" y2="1219.582"/><rect fill="#EEEEEE" height="23.1328" style="stroke:#000000;stroke-width:2;" width="208.9111" x="818.2292" y="1206.0156"/><text fill="#000000" font-family="sans-serif" font-size="13" font-weight="bold" lengthAdjust="spacing" textLength="190.3853" x="824.2292" y="1222.0825">Leave group conversation</text><g class="message" data-entity-1="part1" data-entity-2="part2" id="msg22"><polygon fill="#181818" points="438.3271,1256.2813,448.3271,1260.2813,438.3271,1264.2813,442.3271,1260.2813" style="stroke:#181818;stroke-width:1;"/><line style="stroke:#181818;stroke-width:1;" x1="38.9551" x2="444.3271" y1="1260.2813" y2="1260.2813"/><text fill="#000000" font-family="sans-serif" font-size="13" lengthAdjust="spacing" textLength="146.98" x="45.9551" y="1255.2153">Choose "Leave Group"</text></g><g class="message" data-entity-1="part2" data-entity-2="part3" id="msg23"><polygon fill="#181818" points="693.4199,1285.4141,703.4199,1289.4141,693.4199,1293.4141,697.4199,1289.4141" style="stroke:#181818;stroke-width:1;"/><line style="stroke:#181818;stroke-width:1;" x1="450.3271" x2="699.4199" y1="1289.4141" y2="1289.4141"/><text fill="#000000" font-family="sans-serif" font-size="13" lengthAdjust="spacing" textLength="231.0928" x="457.3271" y="1284.3481">LeaveConversation(conversationId)</text></g><g class="message" data-entity-1="part3" data-entity-2="part4" id="msg24"><polygon fill="#181818" points="1030.2134,1314.5469,1040.2134,1318.5469,1030.2134,1322.5469,1034.2134,1318.5469" style="stroke:#181818;stroke-width:1;"/><line style="stroke:#181818;stroke-width:1;" x1="705.4199" x2="1036.2134" y1="1318.5469" y2="1318.5469"/><text fill="#000000" font-family="sans-serif" font-size="13" lengthAdjust="spacing" textLength="229.7598" x="712.4199" y="1313.481">RemoveParticipant(conversationId)</text></g><g class="message" data-entity-1="part4" data-entity-2="part6" id="msg25"><polygon fill="#181818" points="1499.8374,1358.8125,1509.8374,1362.8125,1499.8374,1366.8125,1503.8374,1362.8125" style="stroke:#181818;stroke-width:1;"/><line style="stroke:#181818;stroke-width:1;" x1="1042.2134" x2="1505.8374" y1="1362.8125" y2="1362.8125"/><text fill="#000000" font-family="sans-serif" font-size="13" lengthAdjust="spacing" textLength="151.7979" x="1049.2134" y="1342.6138">Update participants list</text><text fill="#000000" font-family="sans-serif" font-size="13" lengthAdjust="spacing" textLength="92.2822" x="1049.2134" y="1357.7466">(remove user)</text></g><g class="message" data-entity-1="part4" data-entity-2="part3" id="msg26"><polygon fill="#181818" points="716.4199,1387.9453,706.4199,1391.9453,716.4199,1395.9453,712.4199,1391.9453" style="stroke:#181818;stroke-width:1;"/><line style="stroke:#181818;stroke-width:1;stroke-dasharray:2,2;" x1="710.4199" x2="1041.2134" y1="1391.9453" y2="1391.9453"/><text fill="#000000" font-family="sans-serif" font-size="13" lengthAdjust="spacing" textLength="147.7354" x="722.4199" y="1386.8794">LeaveConversation OK</text></g><rect fill="#EEEEEE" height="3" style="stroke:#EEEEEE;stroke-width:1;" width="1845.3696" x="0" y="1420.5117"/><line style="stroke:#000000;stroke-width:1;" x1="0" x2="1845.3696" y1="1420.5117" y2="1420.5117"/><line style="stroke:#000000;stroke-width:1;" x1="0" x2="1845.3696" y1="1423.5117" y2="1423.5117"/><rect fill="#EEEEEE" height="23.1328" style="stroke:#000000;stroke-width:2;" width="235.0698" x="805.1499" y="1409.9453"/><text fill="#000000" font-family="sans-serif" font-size="13" font-weight="bold" lengthAdjust="spacing" textLength="216.5439" x="811.1499" y="1426.0122">Notify remaining participants</text><rect fill="none" height="39.1016" style="stroke:#000000;stroke-width:1.5;" width="972.7744" x="663.2544" y="1443.0781"/><path d="M663.2544,1443.0781 L728.2544,1443.0781 L728.2544,1450.0781 L718.2544,1460.0781 L663.2544,1460.0781 L663.2544,1443.0781" fill="#EEEEEE" style="stroke:#000000;stroke-width:2;"/><text fill="#000000" font-family="sans-serif" font-size="13" font-weight="bold" lengthAdjust="spacing" textLength="20.8838" x="676.2544" y="1457.145">ref</text><text fill="#000000" font-family="sans-serif" font-size="12" lengthAdjust="spacing" textLength="269.9531" x="1014.665" y="1475.2168">Push User Left Message to other participants</text><g class="message" data-entity-1="part3" data-entity-2="part5" id="msg27"><polygon fill="#181818" points="1217.4072,1519.4453,1227.4072,1523.4453,1217.4072,1527.4453,1221.4072,1523.4453" style="stroke:#181818;stroke-width:1;"/><line style="stroke:#181818;stroke-width:1;" x1="705.4199" x2="1223.4072" y1="1523.4453" y2="1523.4453"/><text fill="#000000" font-family="sans-serif" font-size="13" lengthAdjust="spacing" textLength="179.3721" x="712.4199" y="1503.2466">Remove/mark conversation</text><text fill="#000000" font-family="sans-serif" font-size="13" lengthAdjust="spacing" textLength="122.5034" x="712.4199" y="1518.3794">as left for this user</text></g><g class="message" data-entity-1="part3" data-entity-2="part2" id="msg28"><polygon fill="#181818" points="461.3271,1563.7109,451.3271,1567.7109,461.3271,1571.7109,457.3271,1567.7109" style="stroke:#181818;stroke-width:1;"/><line style="stroke:#181818;stroke-width:1;" x1="455.3271" x2="704.4199" y1="1567.7109" y2="1567.7109"/><text fill="#000000" font-family="sans-serif" font-size="13" lengthAdjust="spacing" textLength="157.6313" x="467.3271" y="1547.5122">Close conversation view</text><text fill="#000000" font-family="sans-serif" font-size="13" lengthAdjust="spacing" textLength="172.5103" x="467.3271" y="1562.645">Return to conversation list</text></g><?plantuml-src hLN1Rjim3BthAuYSKYp5RZiOo832HOjWtLeq2tR9HRMKMAWY6PBI8dy_Kd9QsOwx5DYbQAJ7H_8zKWugQ0ahBw7a-ETR0RVExXieQnxWPc-geApXMeK3OxmArX7MiIUxDuAx0zok5i0zJ4gjf0dqSy8gQuAp6jgpxFggQTwlbzAzI1UlqxzqfRMCANqRNVAgbZb5F5YRAPK1GZb9HHtW2vJM88Vd50srv09_NFGetyZQt3cPFuzZYUaw70-8KJvGRNJ7jqGuGiJcSoYTv472DifSvRZvdCMkBh-JZWNSEBi3ti7Cm4igfQqqGB17mp8KOwrOo9IgBDgq4Pj3fzNUET8vExjWRMiKJkqUexlbRfIMBCbnEKWaO9g35o8dZR8Ni6h4W5JRhNz34ZGsScJjo7h_8-yp6vS2heJeqg9CsbPSPm5Hulj66Z3ozPGTBqg-HiU8RHydH6CDZdpIrZRmfyRWR5rYZRWXN0WF3NT1LQhX9dW6q36shAt5PPiGyK-vUqBg2MASt82bnWay8-YiRMlsfkvISbVLocpX1ZDTfMtiqI_JY539r3YMipR8Kpt7Z9I9jZOJ5qyVtikTKk12_BPuV87WuInzXCU0CQDpIK3Zpk2Yy5RRJk1eQJwQ3kW0_B91RGuqBrifBfNfigD5cPvT4MVjEr30mzxNIJfC8yaBxt5_IJGRQZpkS39f18t3ezmXAwGtur-paC3zSJXbrwJbFGu4iADDX2xWMlb6ymFSeN1WD_0kYnXXNBK3a8XPt_LqJA3u_YskqUoXrwTGOmQt9V4cCzYbhfB7fno-a_nbiDYPmqZ0bQ697pZy2OFlv2QSuoyP72iwvu4-xd4AYEvFM4_bGNk3Tt5Cytp5-Z7iCplMiU1S1zWv3lnd0qRVyoJ8rnrtpnr7rWO_n9gODxXheLO-Tjb_vKjDDWqUzxLvb67lujUX-n52tVu2?></g></svg>