<?plantuml 1.2026.2?><svg xmlns="http://www.w3.org/2000/svg" xmlns:xlink="http://www.w3.org/1999/xlink" contentStyleType="text/css" data-diagram-type="SEQUENCE" height="2053px" preserveAspectRatio="none" style="width:1637px;height:2053px;background:#FFFFFF;" version="1.1" viewBox="0 0 1637 2053" width="1637px" zoomAndPan="magnify"><title>Use Case 6: Group Chat Functionality</title><defs/><g><text fill="#000000" font-family="sans-serif" font-size="14" font-weight="bold" lengthAdjust="spacing" textLength="294.5742" x="667.5464" y="27.9951">Use Case 6: Group Chat Functionality</text><rect fill="none" height="648.3203" style="stroke:#000000;stroke-width:1.5;" width="1610.667" x="10" y="749.6484"/><rect fill="none" height="119.6641" style="stroke:#000000;stroke-width:1.5;" width="904.4482" x="256.4951" y="1271.3047"/><rect fill="none" height="119.6641" style="stroke:#000000;stroke-width:1.5;" width="904.4482" x="256.4951" y="1747.5625"/><g class="participant-lifeline" data-entity-uid="part1" data-qualified-name="User" id="part1-lifeline"><g><title>User</title><rect fill="#000000" fill-opacity="0.00000" height="1854.1641" width="8" x="34.9551" y="118.5938"/><line style="stroke:#181818;stroke-width:0.5;stroke-dasharray:5,5;" x1="38" x2="38" y1="118.5938" y2="1972.7578"/></g></g><g class="participant-lifeline" data-entity-uid="part2" data-qualified-name="GUI" id="part2-lifeline"><g><title>Client GUI</title><rect fill="#000000" fill-opacity="0.00000" height="1854.1641" width="8" x="300.5977" y="118.5938"/><line style="stroke:#181818;stroke-width:0.5;stroke-dasharray:5,5;" x1="304.4951" x2="304.4951" y1="118.5938" y2="1972.7578"/></g></g><g class="participant-lifeline" data-entity-uid="part3" data-qualified-name="Client" id="part3-lifeline"><g><title>Client App</title><rect fill="#000000" fill-opacity="0.00000" height="1854.1641" width="8" x="555.6904" y="118.5938"/><line style="stroke:#181818;stroke-width:0.5;stroke-dasharray:5,5;" x1="559.5249" x2="559.5249" y1="118.5938" y2="1972.7578"/></g></g><g class="participant-lifeline" data-entity-uid="part4" data-qualified-name="Server" id="part4-lifeline"><g><title>Server</title><rect fill="#000000" fill-opacity="0.00000" height="1854.1641" width="8" x="808.5107" y="118.5938"/><line style="stroke:#181818;stroke-width:0.5;stroke-dasharray:5,5;" x1="811.5557" x2="811.5557" y1="118.5938" y2="1972.7578"/></g></g><g class="participant-lifeline" data-entity-uid="part5" data-qualified-name="ClientCache" id="part5-lifeline"><g><title>Client Cache</title><rect fill="#000000" fill-opacity="0.00000" height="1854.1641" width="8" x="995.7046" y="118.5938"/><line style="stroke:#181818;stroke-width:0.5;stroke-dasharray:5,5;" x1="999.4658" x2="999.4658" y1="118.5938" y2="1972.7578"/></g></g><g class="participant-lifeline" data-entity-uid="part6" data-qualified-name="Cache" id="part6-lifeline"><g><title>Server Cache</title><rect fill="#000000" fill-opacity="0.00000" height="1854.1641" width="8" x="1278.1348" y="118.5938"/><line style="stroke:#181818;stroke-width:0.5;stroke-dasharray:5,5;" x1="1281.9434" x2="1281.9434" y1="118.5938" y2="1972.7578"/></g></g><g class="participant-lifeline" data-entity-uid="part7" data-qualified-name="Store" id="part7-lifeline"><g><title>Server Persistent Storage</title><rect fill="#000000" fill-opacity="0.00000" height="1854.1641" width="8" x="1507.9966" y="118.5938"/><line style="stroke:#181818;stroke-width:0.5;stroke-dasharray:5,5;" x1="1511.3262" x2="1511.3262" y1="118.5938" y2="1972.7578"/></g></g><g class="participant participant-head" data-entity-uid="part1" data-qualified-name="User" id="part1-head"><text fill="#000000" font-family="sans-serif" font-size="14" lengthAdjust="spacing" textLength="31.9102" x="20" y="115.292">User</text><ellipse cx="38.9551" cy="50.7969" fill="#E2E2F0" rx="8" ry="8" style="stroke:#181818;stroke-width:0.5;"/><path d="M38.9551,58.7969 L38.9551,85.7969 M25.9551,66.7969 L51.9551,66.7969 M38.9551,85.7969 L25.9551,100.7969 M38.9551,85.7969 L51.9551,100.7969" fill="none" style="stroke:#181818;stroke-width:0.5;"/></g><g class="participant participant-tail" data-entity-uid="part1" data-qualified-name="User" id="part1-tail"><text fill="#000000" font-family="sans-serif" font-size="14" lengthAdjust="spacing" textLength="31.9102" x="20" y="1984.7529">User</text><ellipse cx="38.9551" cy="1996.5547" fill="#E2E2F0" rx="8" ry="8" style="stroke:#181818;stroke-width:0.5;"/><path d="M38.9551,2004.5547 L38.9551,2031.5547 M25.9551,2012.5547 L51.9551,2012.5547 M38.9551,2031.5547 L25.9551,2046.5547 M38.9551,2031.5547 L51.9551,2046.5547" fill="none" style="stroke:#181818;stroke-width:0.5;"/></g><g class="participant participant-head" data-entity-uid="part2" data-qualified-name="GUI" id="part2-head"><text fill="#000000" font-family="sans-serif" font-size="14" lengthAdjust="spacing" textLength="70.2051" x="266.4951" y="115.292">Client GUI</text><path d="M284.0977,74.2969 L284.0977,98.2969 M284.0977,86.2969 L301.0977,86.2969" fill="none" style="stroke:#181818;stroke-width:0.5;"/><ellipse cx="313.0977" cy="86.2969" fill="#E2E2F0" rx="12" ry="12" style="stroke:#181818;stroke-width:0.5;"/></g><g class="participant participant-tail" data-entity-uid="part2" data-qualified-name="GUI" id="part2-tail"><text fill="#000000" font-family="sans-serif" font-size="14" lengthAdjust="spacing" textLength="70.2051" x="266.4951" y="1984.7529">Client GUI</text><path d="M284.0977,1992.0547 L284.0977,2016.0547 M284.0977,2004.0547 L301.0977,2004.0547" fill="none" style="stroke:#181818;stroke-width:0.5;"/><ellipse cx="313.0977" cy="2004.0547" fill="#E2E2F0" rx="12" ry="12" style="stroke:#181818;stroke-width:0.5;"/></g><g class="participant participant-head" data-entity-uid="part3" data-qualified-name="Client" id="part3-head"><text fill="#000000" font-family="sans-serif" font-size="14" lengthAdjust="spacing" textLength="72.3311" x="520.5249" y="115.292">Client App</text><ellipse cx="559.6904" cy="86.2969" fill="#E2E2F0" rx="12" ry="12" style="stroke:#181818;stroke-width:0.5;"/><polygon fill="#181818" points="555.6904,74.2969,561.6904,69.2969,559.6904,74.2969,561.6904,79.2969,555.6904,74.2969" style="stroke:#181818;stroke-width:1;"/></g><g class="participant participant-tail" data-entity-uid="part3" data-qualified-name="Client" id="part3-tail"><text fill="#000000" font-family="sans-serif" font-size="14" lengthAdjust="spacing" textLength="72.3311" x="520.5249" y="1984.7529">Client App</text><ellipse cx="559.6904" cy="2004.0547" fill="#E2E2F0" rx="12" ry="12" style="stroke:#181818;stroke-width:0.5;"/><polygon fill="#181818" points="555.6904,1992.0547,561.6904,1987.0547,559.6904,1992.0547,561.6904,1997.0547,555.6904,1992.0547" style="stroke:#181818;stroke-width:1;"/></g><g class="participant participant-head" data-entity-uid="part4" data-qualified-name="Server" id="part4-head"><text fill="#000000" font-family="sans-serif" font-size="14" lengthAdjust="spacing" textLength="45.9102" x="786.5557" y="115.292">Server</text><ellipse cx="812.5107" cy="86.2969" fill="#E2E2F0" rx="12" ry="12" style="stroke:#181818;stroke-width:0.5;"/><polygon fill="#181818" points="808.5107,74.2969,814.5107,69.2969,812.5107,74.2969,814.5107,79.2969,808.5107,74.2969" style="stroke:#181818;stroke-width:1;"/></g><g class="participant participant-tail" data-entity-uid="part4" data-qualified-name="Server" id="part4-tail"><text fill="#000000" font-family="sans-serif" font-size="14" lengthAdjust="spacing" textLength="45.9102" x="786.5557" y="1984.7529">Server</text><ellipse cx="812.5107" cy="2004.0547" fill="#E2E2F0" rx="12" ry="12" style="stroke:#181818;stroke-width:0.5;"/><polygon fill="#181818" points="808.5107,1992.0547,814.5107,1987.0547,812.5107,1992.0547,814.5107,1997.0547,808.5107,1992.0547" style="stroke:#181818;stroke-width:1;"/></g><g class="participant participant-head" data-entity-uid="part5" data-qualified-name="ClientCache" id="part5-head"><rect fill="#E2E2F0" height="46.5938" style="stroke:#181818;stroke-width:0.5;" width="298.4775" x="852.4658" y="67"/><rect fill="#E2E2F0" height="46.5938" style="stroke:#181818;stroke-width:0.5;" width="298.4775" x="848.4658" y="71"/><text fill="#000000" font-family="sans-serif" font-size="14" lengthAdjust="spacing" textLength="88.5186" x="953.4453" y="90.9951">Client Cache</text><text fill="#000000" font-family="sans-serif" font-size="14" lengthAdjust="spacing" textLength="284.4775" x="855.4658" y="107.292">(User directory + Conversation headers)</text></g><g class="participant participant-tail" data-entity-uid="part5" data-qualified-name="ClientCache" id="part5-tail"><rect fill="#E2E2F0" height="46.5938" style="stroke:#181818;stroke-width:0.5;" width="298.4775" x="852.4658" y="1971.7578"/><rect fill="#E2E2F0" height="46.5938" style="stroke:#181818;stroke-width:0.5;" width="298.4775" x="848.4658" y="1975.7578"/><text fill="#000000" font-family="sans-serif" font-size="14" lengthAdjust="spacing" textLength="88.5186" x="953.4453" y="1995.7529">Client Cache</text><text fill="#000000" font-family="sans-serif" font-size="14" lengthAdjust="spacing" textLength="284.4775" x="855.4658" y="2012.0498">(User directory + Conversation headers)</text></g><g class="participant participant-head" data-entity-uid="part6" data-qualified-name="Cache" id="part6-head"><rect fill="#E2E2F0" height="46.5938" style="stroke:#181818;stroke-width:0.5;" width="238.3828" x="1164.9434" y="67"/><rect fill="#E2E2F0" height="46.5938" style="stroke:#181818;stroke-width:0.5;" width="238.3828" x="1160.9434" y="71"/><text fill="#000000" font-family="sans-serif" font-size="14" lengthAdjust="spacing" textLength="93.8984" x="1233.1855" y="90.9951">Server Cache</text><text fill="#000000" font-family="sans-serif" font-size="14" lengthAdjust="spacing" textLength="224.3828" x="1167.9434" y="107.292">(Users + Conversation headers)</text></g><g class="participant participant-tail" data-entity-uid="part6" data-qualified-name="Cache" id="part6-tail"><rect fill="#E2E2F0" height="46.5938" style="stroke:#181818;stroke-width:0.5;" width="238.3828" x="1164.9434" y="1971.7578"/><rect fill="#E2E2F0" height="46.5938" style="stroke:#181818;stroke-width:0.5;" width="238.3828" x="1160.9434" y="1975.7578"/><text fill="#000000" font-family="sans-serif" font-size="14" lengthAdjust="spacing" textLength="93.8984" x="1233.1855" y="1995.7529">Server Cache</text><text fill="#000000" font-family="sans-serif" font-size="14" lengthAdjust="spacing" textLength="224.3828" x="1167.9434" y="2012.0498">(Users + Conversation headers)</text></g><g class="participant participant-head" data-entity-uid="part7" data-qualified-name="Store" id="part7-head"><rect fill="#E2E2F0" height="46.5938" style="stroke:#181818;stroke-width:0.5;" width="193.3408" x="1417.3262" y="67"/><rect fill="#E2E2F0" height="46.5938" style="stroke:#181818;stroke-width:0.5;" width="193.3408" x="1413.3262" y="71"/><text fill="#000000" font-family="sans-serif" font-size="14" lengthAdjust="spacing" textLength="179.3408" x="1420.3262" y="90.9951">Server Persistent Storage</text><text fill="#000000" font-family="sans-serif" font-size="14" lengthAdjust="spacing" textLength="164.5479" x="1427.7227" y="107.292">(Conversation headers)</text></g><g class="participant participant-tail" data-entity-uid="part7" data-qualified-name="Store" id="part7-tail"><rect fill="#E2E2F0" height="46.5938" style="stroke:#181818;stroke-width:0.5;" width="193.3408" x="1417.3262" y="1971.7578"/><rect fill="#E2E2F0" height="46.5938" style="stroke:#181818;stroke-width:0.5;" width="193.3408" x="1413.3262" y="1975.7578"/><text fill="#000000" font-family="sans-serif" font-size="14" lengthAdjust="spacing" textLength="179.3408" x="1420.3262" y="1995.7529">Server Persistent Storage</text><text fill="#000000" font-family="sans-serif" font-size="14" lengthAdjust="spacing" textLength="164.5479" x="1427.7227" y="2012.0498">(Conversation headers)</text></g><rect fill="#EEEEEE" height="3" style="stroke:#EEEEEE;stroke-width:1;" width="1630.667" x="0" y="149.1602"/><line style="stroke:#000000;stroke-width:1;" x1="0" x2="1630.667" y1="149.1602" y2="149.1602"/><line style="stroke:#000000;stroke-width:1;" x1="0" x2="1630.667" y1="152.1602" y2="152.1602"/><rect fill="#EEEEEE" height="23.1328" style="stroke:#000000;stroke-width:2;" width="214.3193" x="708.1738" y="138.5938"/><text fill="#000000" font-family="sans-serif" font-size="13" font-weight="bold" lengthAdjust="spacing" textLength="195.7935" x="714.1738" y="154.6606">Create group conversation</text><g class="message" data-entity-1="part1" data-entity-2="part2" id="msg1"><polygon fill="#181818" points="292.5977,188.8594,302.5977,192.8594,292.5977,196.8594,296.5977,192.8594" style="stroke:#181818;stroke-width:1;"/><line style="stroke:#181818;stroke-width:1;" x1="38.9551" x2="298.5977" y1="192.8594" y2="192.8594"/><text fill="#000000" font-family="sans-serif" font-size="13" lengthAdjust="spacing" textLength="241.6426" x="45.9551" y="187.7935">Choose "Create Group Conversation"</text></g><g class="message" data-entity-1="part2" data-entity-2="part3" id="msg2"><polygon fill="#181818" points="547.6904,217.9922,557.6904,221.9922,547.6904,225.9922,551.6904,221.9922" style="stroke:#181818;stroke-width:1;"/><line style="stroke:#181818;stroke-width:1;" x1="304.5977" x2="553.6904" y1="221.9922" y2="221.9922"/><text fill="#000000" font-family="sans-serif" font-size="13" lengthAdjust="spacing" textLength="148.4526" x="311.5977" y="216.9263">Request user directory</text></g><g class="message" data-entity-1="part3" data-entity-2="part4" id="msg3"><polygon fill="#181818" points="800.5107,247.125,810.5107,251.125,800.5107,255.125,804.5107,251.125" style="stroke:#181818;stroke-width:1;"/><line style="stroke:#181818;stroke-width:1;" x1="559.6904" x2="806.5107" y1="251.125" y2="251.125"/><text fill="#000000" font-family="sans-serif" font-size="13" lengthAdjust="spacing" textLength="85.833" x="566.6904" y="246.0591">GetAllUsers()</text></g><g class="message" data-entity-1="part4" data-entity-2="part3" id="msg4"><polygon fill="#181818" points="570.6904,276.2578,560.6904,280.2578,570.6904,284.2578,566.6904,280.2578" style="stroke:#181818;stroke-width:1;"/><line style="stroke:#181818;stroke-width:1;stroke-dasharray:2,2;" x1="564.6904" x2="811.5107" y1="280.2578" y2="280.2578"/><text fill="#000000" font-family="sans-serif" font-size="13" lengthAdjust="spacing" textLength="52.8569" x="576.6904" y="275.1919">User list</text></g><g class="message" data-entity-1="part3" data-entity-2="part5" id="msg5"><polygon fill="#181818" points="987.7046,305.3906,997.7046,309.3906,987.7046,313.3906,991.7046,309.3906" style="stroke:#181818;stroke-width:1;"/><line style="stroke:#181818;stroke-width:1;" x1="559.6904" x2="993.7046" y1="309.3906" y2="309.3906"/><text fill="#000000" font-family="sans-serif" font-size="13" lengthAdjust="spacing" textLength="96.1416" x="566.6904" y="304.3247">Cache user list</text></g><g class="message" data-entity-1="part3" data-entity-2="part2" id="msg6"><polygon fill="#181818" points="315.5977,334.5234,305.5977,338.5234,315.5977,342.5234,311.5977,338.5234" style="stroke:#181818;stroke-width:1;"/><line style="stroke:#181818;stroke-width:1;stroke-dasharray:2,2;" x1="309.5977" x2="558.6904" y1="338.5234" y2="338.5234"/><text fill="#000000" font-family="sans-serif" font-size="13" lengthAdjust="spacing" textLength="176.7061" x="321.5977" y="333.4575">Provide user list for display</text></g><g class="message" data-entity-1="part1" data-entity-2="part2" id="msg7"><polygon fill="#181818" points="292.5977,393.9219,302.5977,397.9219,292.5977,401.9219,296.5977,397.9219" style="stroke:#181818;stroke-width:1;"/><line style="stroke:#181818;stroke-width:1;" x1="38.9551" x2="298.5977" y1="397.9219" y2="397.9219"/><text fill="#000000" font-family="sans-serif" font-size="13" lengthAdjust="spacing" textLength="121.5957" x="45.9551" y="362.5903">Select participants</text><text fill="#000000" font-family="sans-serif" font-size="13" lengthAdjust="spacing" textLength="118.0664" x="45.9551" y="377.7231">Enter group name</text><text fill="#000000" font-family="sans-serif" font-size="13" lengthAdjust="spacing" textLength="90.5493" x="45.9551" y="392.856">Click "Create"</text></g><g class="message" data-entity-1="part2" data-entity-2="part3" id="msg8"><polygon fill="#181818" points="547.6904,438.1875,557.6904,442.1875,547.6904,446.1875,551.6904,442.1875" style="stroke:#181818;stroke-width:1;"/><line style="stroke:#181818;stroke-width:1;" x1="304.5977" x2="553.6904" y1="442.1875" y2="442.1875"/><text fill="#000000" font-family="sans-serif" font-size="13" lengthAdjust="spacing" textLength="215.3633" x="311.5977" y="421.9888">CreateGroupConversation(name,</text><text fill="#000000" font-family="sans-serif" font-size="13" lengthAdjust="spacing" textLength="124.1475" x="315.73" y="437.1216">participantUserIds)</text></g><g class="message" data-entity-1="part3" data-entity-2="part4" id="msg9"><polygon fill="#181818" points="800.5107,482.4531,810.5107,486.4531,800.5107,490.4531,804.5107,486.4531" style="stroke:#181818;stroke-width:1;"/><line style="stroke:#181818;stroke-width:1;" x1="559.6904" x2="806.5107" y1="486.4531" y2="486.4531"/><text fill="#000000" font-family="sans-serif" font-size="13" lengthAdjust="spacing" textLength="216.6074" x="566.6904" y="466.2544">CreateConversation(type=group,</text><text fill="#000000" font-family="sans-serif" font-size="13" lengthAdjust="spacing" textLength="127.5625" x="570.8228" y="481.3872">name, participants)</text></g><g class="message" data-entity-1="part4" data-entity-2="part7" id="msg10"><polygon fill="#181818" points="1499.9966,526.7188,1509.9966,530.7188,1499.9966,534.7188,1503.9966,530.7188" style="stroke:#181818;stroke-width:1;"/><line style="stroke:#181818;stroke-width:1;" x1="812.5107" x2="1505.9966" y1="530.7188" y2="530.7188"/><text fill="#000000" font-family="sans-serif" font-size="13" lengthAdjust="spacing" textLength="181.562" x="819.5107" y="510.52">Create conversation header</text><text fill="#000000" font-family="sans-serif" font-size="13" lengthAdjust="spacing" textLength="237.0024" x="819.5107" y="525.6528">(conversationId, name, participants)</text></g><g class="message" data-entity-1="part7" data-entity-2="part4" id="msg11"><polygon fill="#181818" points="823.5107,555.8516,813.5107,559.8516,823.5107,563.8516,819.5107,559.8516" style="stroke:#181818;stroke-width:1;"/><line style="stroke:#181818;stroke-width:1;stroke-dasharray:2,2;" x1="817.5107" x2="1510.9966" y1="559.8516" y2="559.8516"/><text fill="#000000" font-family="sans-serif" font-size="13" lengthAdjust="spacing" textLength="216.1758" x="829.5107" y="554.7856">Created (conversationId, header)</text></g><g class="message" data-entity-1="part4" data-entity-2="part6" id="msg12"><polygon fill="#181818" points="1270.1348,584.9844,1280.1348,588.9844,1270.1348,592.9844,1274.1348,588.9844" style="stroke:#181818;stroke-width:1;"/><line style="stroke:#181818;stroke-width:1;" x1="812.5107" x2="1276.1348" y1="588.9844" y2="588.9844"/><text fill="#000000" font-family="sans-serif" font-size="13" lengthAdjust="spacing" textLength="191.9341" x="819.5107" y="583.9185">Update conversation headers</text></g><g class="message" data-entity-1="part4" data-entity-2="part3" id="msg13"><polygon fill="#181818" points="570.6904,629.25,560.6904,633.25,570.6904,637.25,566.6904,633.25" style="stroke:#181818;stroke-width:1;"/><line style="stroke:#181818;stroke-width:1;stroke-dasharray:2,2;" x1="564.6904" x2="811.5107" y1="633.25" y2="633.25"/><text fill="#000000" font-family="sans-serif" font-size="13" lengthAdjust="spacing" textLength="152.3184" x="576.6904" y="613.0513">CreateConversation OK</text><text fill="#000000" font-family="sans-serif" font-size="13" lengthAdjust="spacing" textLength="160.3101" x="576.6904" y="628.1841">(conversationId, header)</text></g><g class="message" data-entity-1="part3" data-entity-2="part5" id="msg14"><polygon fill="#181818" points="987.7046,658.3828,997.7046,662.3828,987.7046,666.3828,991.7046,662.3828" style="stroke:#181818;stroke-width:1;"/><line style="stroke:#181818;stroke-width:1;" x1="559.6904" x2="993.7046" y1="662.3828" y2="662.3828"/><text fill="#000000" font-family="sans-serif" font-size="13" lengthAdjust="spacing" textLength="163.4775" x="566.6904" y="657.3169">Add conversation header</text></g><g class="message" data-entity-1="part3" data-entity-2="part2" id="msg15"><polygon fill="#181818" points="315.5977,687.5156,305.5977,691.5156,315.5977,695.5156,311.5977,691.5156" style="stroke:#181818;stroke-width:1;"/><line style="stroke:#181818;stroke-width:1;" x1="309.5977" x2="558.6904" y1="691.5156" y2="691.5156"/><text fill="#000000" font-family="sans-serif" font-size="13" lengthAdjust="spacing" textLength="199.1133" x="321.5977" y="686.4497">Open group conversation view</text></g><rect fill="#EEEEEE" height="3" style="stroke:#EEEEEE;stroke-width:1;" width="1630.667" x="0" y="720.082"/><line style="stroke:#000000;stroke-width:1;" x1="0" x2="1630.667" y1="720.082" y2="720.082"/><line style="stroke:#000000;stroke-width:1;" x1="0" x2="1630.667" y1="723.082" y2="723.082"/><rect fill="#EEEEEE" height="23.1328" style="stroke:#000000;stroke-width:2;" width="130.8794" x="749.8938" y="709.5156"/><text fill="#000000" font-family="sans-serif" font-size="13" font-weight="bold" lengthAdjust="spacing" textLength="112.3535" x="755.8938" y="725.5825">Add users later</text><path d="M10,749.6484 L86.624,749.6484 L86.624,756.7813 L76.624,766.7813 L10,766.7813 L10,749.6484" fill="#EEEEEE" style="stroke:#000000;stroke-width:1.5;"/><rect fill="none" height="648.3203" style="stroke:#000000;stroke-width:1.5;" width="1610.667" x="10" y="749.6484"/><text fill="#000000" font-family="sans-serif" font-size="13" font-weight="bold" lengthAdjust="spacing" textLength="31.624" x="25" y="762.7153">loop</text><text fill="#000000" font-family="sans-serif" font-size="11" font-weight="bold" lengthAdjust="spacing" textLength="188.7563" x="101.624" y="761.8589">[When user adds participants]</text><g class="message" data-entity-1="part1" data-entity-2="part2" id="msg16"><polygon fill="#181818" points="292.5977,783.9141,302.5977,787.9141,292.5977,791.9141,296.5977,787.9141" style="stroke:#181818;stroke-width:1;"/><line style="stroke:#181818;stroke-width:1;" x1="38.9551" x2="298.5977" y1="787.9141" y2="787.9141"/><text fill="#000000" font-family="sans-serif" font-size="13" lengthAdjust="spacing" textLength="153.8608" x="45.9551" y="782.8481">Choose "Add Members"</text></g><g class="message" data-entity-1="part2" data-entity-2="part3" id="msg17"><polygon fill="#181818" points="547.6904,813.0469,557.6904,817.0469,547.6904,821.0469,551.6904,817.0469" style="stroke:#181818;stroke-width:1;"/><line style="stroke:#181818;stroke-width:1;" x1="304.5977" x2="553.6904" y1="817.0469" y2="817.0469"/><text fill="#000000" font-family="sans-serif" font-size="13" lengthAdjust="spacing" textLength="223.7866" x="311.5977" y="811.981">Request user directory (if needed)</text></g><g class="message" data-entity-1="part3" data-entity-2="part4" id="msg18"><polygon fill="#181818" points="800.5107,842.1797,810.5107,846.1797,800.5107,850.1797,804.5107,846.1797" style="stroke:#181818;stroke-width:1;"/><line style="stroke:#181818;stroke-width:1;" x1="559.6904" x2="806.5107" y1="846.1797" y2="846.1797"/><text fill="#000000" font-family="sans-serif" font-size="13" lengthAdjust="spacing" textLength="85.833" x="566.6904" y="841.1138">GetAllUsers()</text></g><g class="message" data-entity-1="part4" data-entity-2="part3" id="msg19"><polygon fill="#181818" points="570.6904,871.3125,560.6904,875.3125,570.6904,879.3125,566.6904,875.3125" style="stroke:#181818;stroke-width:1;"/><line style="stroke:#181818;stroke-width:1;stroke-dasharray:2,2;" x1="564.6904" x2="811.5107" y1="875.3125" y2="875.3125"/><text fill="#000000" font-family="sans-serif" font-size="13" lengthAdjust="spacing" textLength="52.8569" x="576.6904" y="870.2466">User list</text></g><g class="message" data-entity-1="part3" data-entity-2="part5" id="msg20"><polygon fill="#181818" points="987.7046,900.4453,997.7046,904.4453,987.7046,908.4453,991.7046,904.4453" style="stroke:#181818;stroke-width:1;"/><line style="stroke:#181818;stroke-width:1;" x1="559.6904" x2="993.7046" y1="904.4453" y2="904.4453"/><text fill="#000000" font-family="sans-serif" font-size="13" lengthAdjust="spacing" textLength="146.7959" x="566.6904" y="899.3794">Cache/refresh user list</text></g><g class="message" data-entity-1="part3" data-entity-2="part2" id="msg21"><polygon fill="#181818" points="315.5977,929.5781,305.5977,933.5781,315.5977,937.5781,311.5977,933.5781" style="stroke:#181818;stroke-width:1;"/><line style="stroke:#181818;stroke-width:1;stroke-dasharray:2,2;" x1="309.5977" x2="558.6904" y1="933.5781" y2="933.5781"/><text fill="#000000" font-family="sans-serif" font-size="13" lengthAdjust="spacing" textLength="104.4063" x="321.5977" y="928.5122">Provide user list</text></g><g class="message" data-entity-1="part1" data-entity-2="part2" id="msg22"><polygon fill="#181818" points="292.5977,973.8438,302.5977,977.8438,292.5977,981.8438,296.5977,977.8438" style="stroke:#181818;stroke-width:1;"/><line style="stroke:#181818;stroke-width:1;" x1="38.9551" x2="298.5977" y1="977.8438" y2="977.8438"/><text fill="#000000" font-family="sans-serif" font-size="13" lengthAdjust="spacing" textLength="125.1504" x="45.9551" y="957.645">Select users to add</text><text fill="#000000" font-family="sans-serif" font-size="13" lengthAdjust="spacing" textLength="72.4648" x="45.9551" y="972.7778">Click "Add"</text></g><g class="message" data-entity-1="part2" data-entity-2="part3" id="msg23"><polygon fill="#181818" points="547.6904,1018.1094,557.6904,1022.1094,547.6904,1026.1094,551.6904,1022.1094" style="stroke:#181818;stroke-width:1;"/><line style="stroke:#181818;stroke-width:1;" x1="304.5977" x2="553.6904" y1="1022.1094" y2="1022.1094"/><text fill="#000000" font-family="sans-serif" font-size="13" lengthAdjust="spacing" textLength="207.6509" x="311.5977" y="1001.9106">AddParticipants(conversationId,</text><text fill="#000000" font-family="sans-serif" font-size="13" lengthAdjust="spacing" textLength="93.5771" x="315.73" y="1017.0435">userIdsToAdd)</text></g><g class="message" data-entity-1="part3" data-entity-2="part4" id="msg24"><polygon fill="#181818" points="800.5107,1062.375,810.5107,1066.375,800.5107,1070.375,804.5107,1066.375" style="stroke:#181818;stroke-width:1;"/><line style="stroke:#181818;stroke-width:1;" x1="559.6904" x2="806.5107" y1="1066.375" y2="1066.375"/><text fill="#000000" font-family="sans-serif" font-size="13" lengthAdjust="spacing" textLength="207.6509" x="566.6904" y="1046.1763">AddParticipants(conversationId,</text><text fill="#000000" font-family="sans-serif" font-size="13" lengthAdjust="spacing" textLength="93.5771" x="570.8228" y="1061.3091">userIdsToAdd)</text></g><g class="message" data-entity-1="part4" data-entity-2="part7" id="msg25"><polygon fill="#181818" points="1499.9966,1106.6406,1509.9966,1110.6406,1499.9966,1114.6406,1503.9966,1110.6406" style="stroke:#181818;stroke-width:1;"/><line style="stroke:#181818;stroke-width:1;" x1="812.5107" x2="1505.9966" y1="1110.6406" y2="1110.6406"/><text fill="#000000" font-family="sans-serif" font-size="13" lengthAdjust="spacing" textLength="151.7979" x="819.5107" y="1090.4419">Update participants list</text><text fill="#000000" font-family="sans-serif" font-size="13" lengthAdjust="spacing" textLength="73.874" x="819.5107" y="1105.5747">(add users)</text></g><g class="message" data-entity-1="part7" data-entity-2="part4" id="msg26"><polygon fill="#181818" points="823.5107,1135.7734,813.5107,1139.7734,823.5107,1143.7734,819.5107,1139.7734" style="stroke:#181818;stroke-width:1;"/><line style="stroke:#181818;stroke-width:1;stroke-dasharray:2,2;" x1="817.5107" x2="1510.9966" y1="1139.7734" y2="1139.7734"/><text fill="#000000" font-family="sans-serif" font-size="13" lengthAdjust="spacing" textLength="105.2632" x="829.5107" y="1134.7075">Updated header</text></g><g class="message" data-entity-1="part4" data-entity-2="part6" id="msg27"><polygon fill="#181818" points="1270.1348,1164.9063,1280.1348,1168.9063,1270.1348,1172.9063,1274.1348,1168.9063" style="stroke:#181818;stroke-width:1;"/><line style="stroke:#181818;stroke-width:1;" x1="812.5107" x2="1276.1348" y1="1168.9063" y2="1168.9063"/><text fill="#000000" font-family="sans-serif" font-size="13" lengthAdjust="spacing" textLength="191.9341" x="819.5107" y="1163.8403">Update conversation headers</text></g><g class="message" data-entity-1="part4" data-entity-2="part3" id="msg28"><polygon fill="#181818" points="570.6904,1209.1719,560.6904,1213.1719,570.6904,1217.1719,566.6904,1213.1719" style="stroke:#181818;stroke-width:1;"/><line style="stroke:#181818;stroke-width:1;stroke-dasharray:2,2;" x1="564.6904" x2="811.5107" y1="1213.1719" y2="1213.1719"/><text fill="#000000" font-family="sans-serif" font-size="13" lengthAdjust="spacing" textLength="125.2329" x="576.6904" y="1192.9731">AddParticipants OK</text><text fill="#000000" font-family="sans-serif" font-size="13" lengthAdjust="spacing" textLength="114.1309" x="576.6904" y="1208.106">(updated header)</text></g><rect fill="#EEEEEE" height="3" style="stroke:#EEEEEE;stroke-width:1;" width="1630.667" x="0" y="1241.7383"/><line style="stroke:#000000;stroke-width:1;" x1="0" x2="1630.667" y1="1241.7383" y2="1241.7383"/><line style="stroke:#000000;stroke-width:1;" x1="0" x2="1630.667" y1="1244.7383" y2="1244.7383"/><rect fill="#EEEEEE" height="23.1328" style="stroke:#000000;stroke-width:2;" width="230.0234" x="700.3218" y="1231.1719"/><text fill="#000000" font-family="sans-serif" font-size="13" font-weight="bold" lengthAdjust="spacing" textLength="211.4976" x="706.3218" y="1247.2388">Notify logged-in participants</text><path d="M256.4951,1271.3047 L333.1191,1271.3047 L333.1191,1278.4375 L323.1191,1288.4375 L256.4951,1288.4375 L256.4951,1271.3047" fill="#EEEEEE" style="stroke:#000000;stroke-width:1.5;"/><rect fill="none" height="119.6641" style="stroke:#000000;stroke-width:1.5;" width="904.4482" x="256.4951" y="1271.3047"/><text fill="#000000" font-family="sans-serif" font-size="13" font-weight="bold" lengthAdjust="spacing" textLength="31.624" x="271.4951" y="1284.3716">loop</text><text fill="#000000" font-family="sans-serif" font-size="11" font-weight="bold" lengthAdjust="spacing" textLength="236.7202" x="348.1191" y="1283.5151">[For each logged-in participant client]</text><g class="message" data-entity-1="part4" data-entity-2="part3" id="msg29"><polygon fill="#181818" points="570.6904,1320.7031,560.6904,1324.7031,570.6904,1328.7031,566.6904,1324.7031" style="stroke:#181818;stroke-width:1;"/><line style="stroke:#181818;stroke-width:1;stroke-dasharray:2,2;" x1="564.6904" x2="811.5107" y1="1324.7031" y2="1324.7031"/><text fill="#000000" font-family="sans-serif" font-size="13" lengthAdjust="spacing" textLength="164.1187" x="576.6904" y="1304.5044">PushConversationUpdate</text><text fill="#000000" font-family="sans-serif" font-size="13" lengthAdjust="spacing" textLength="218.499" x="576.6904" y="1319.6372">(conversationId, updated header)</text></g><g class="message" data-entity-1="part3" data-entity-2="part5" id="msg30"><polygon fill="#181818" points="987.7046,1349.8359,997.7046,1353.8359,987.7046,1357.8359,991.7046,1353.8359" style="stroke:#181818;stroke-width:1;"/><line style="stroke:#181818;stroke-width:1;" x1="559.6904" x2="993.7046" y1="1353.8359" y2="1353.8359"/><text fill="#000000" font-family="sans-serif" font-size="13" lengthAdjust="spacing" textLength="147.894" x="566.6904" y="1348.77">Update cached header</text></g><g class="message" data-entity-1="part3" data-entity-2="part2" id="msg31"><polygon fill="#181818" points="315.5977,1378.9688,305.5977,1382.9688,315.5977,1386.9688,311.5977,1382.9688" style="stroke:#181818;stroke-width:1;"/><line style="stroke:#181818;stroke-width:1;" x1="309.5977" x2="558.6904" y1="1382.9688" y2="1382.9688"/><text fill="#000000" font-family="sans-serif" font-size="13" lengthAdjust="spacing" textLength="146.0532" x="321.5977" y="1377.9028">Update participants UI</text></g><rect fill="#EEEEEE" height="3" style="stroke:#EEEEEE;stroke-width:1;" width="1630.667" x="0" y="1425.5352"/><line style="stroke:#000000;stroke-width:1;" x1="0" x2="1630.667" y1="1425.5352" y2="1425.5352"/><line style="stroke:#000000;stroke-width:1;" x1="0" x2="1630.667" y1="1428.5352" y2="1428.5352"/><rect fill="#EEEEEE" height="23.1328" style="stroke:#000000;stroke-width:2;" width="208.9111" x="710.8779" y="1414.9688"/><text fill="#000000" font-family="sans-serif" font-size="13" font-weight="bold" lengthAdjust="spacing" textLength="190.3853" x="716.8779" y="1431.0356">Leave group conversation</text><g class="message" data-entity-1="part1" data-entity-2="part2" id="msg32"><polygon fill="#181818" points="292.5977,1465.2344,302.5977,1469.2344,292.5977,1473.2344,296.5977,1469.2344" style="stroke:#181818;stroke-width:1;"/><line style="stroke:#181818;stroke-width:1;" x1="38.9551" x2="298.5977" y1="1469.2344" y2="1469.2344"/><text fill="#000000" font-family="sans-serif" font-size="13" lengthAdjust="spacing" textLength="146.98" x="45.9551" y="1464.1685">Choose "Leave Group"</text></g><g class="message" data-entity-1="part2" data-entity-2="part3" id="msg33"><polygon fill="#181818" points="547.6904,1494.3672,557.6904,1498.3672,547.6904,1502.3672,551.6904,1498.3672" style="stroke:#181818;stroke-width:1;"/><line style="stroke:#181818;stroke-width:1;" x1="304.5977" x2="553.6904" y1="1498.3672" y2="1498.3672"/><text fill="#000000" font-family="sans-serif" font-size="13" lengthAdjust="spacing" textLength="231.0928" x="311.5977" y="1493.3013">LeaveConversation(conversationId)</text></g><g class="message" data-entity-1="part3" data-entity-2="part4" id="msg34"><polygon fill="#181818" points="800.5107,1538.6328,810.5107,1542.6328,800.5107,1546.6328,804.5107,1542.6328" style="stroke:#181818;stroke-width:1;"/><line style="stroke:#181818;stroke-width:1;" x1="559.6904" x2="806.5107" y1="1542.6328" y2="1542.6328"/><text fill="#000000" font-family="sans-serif" font-size="13" lengthAdjust="spacing" textLength="228.8203" x="566.6904" y="1522.4341">RemoveParticipant(conversationId,</text><text fill="#000000" font-family="sans-serif" font-size="13" lengthAdjust="spacing" textLength="79.3647" x="570.8228" y="1537.5669">userId=self)</text></g><g class="message" data-entity-1="part4" data-entity-2="part7" id="msg35"><polygon fill="#181818" points="1499.9966,1582.8984,1509.9966,1586.8984,1499.9966,1590.8984,1503.9966,1586.8984" style="stroke:#181818;stroke-width:1;"/><line style="stroke:#181818;stroke-width:1;" x1="812.5107" x2="1505.9966" y1="1586.8984" y2="1586.8984"/><text fill="#000000" font-family="sans-serif" font-size="13" lengthAdjust="spacing" textLength="151.7979" x="819.5107" y="1566.6997">Update participants list</text><text fill="#000000" font-family="sans-serif" font-size="13" lengthAdjust="spacing" textLength="92.2822" x="819.5107" y="1581.8325">(remove user)</text></g><g class="message" data-entity-1="part7" data-entity-2="part4" id="msg36"><polygon fill="#181818" points="823.5107,1612.0313,813.5107,1616.0313,823.5107,1620.0313,819.5107,1616.0313" style="stroke:#181818;stroke-width:1;"/><line style="stroke:#181818;stroke-width:1;stroke-dasharray:2,2;" x1="817.5107" x2="1510.9966" y1="1616.0313" y2="1616.0313"/><text fill="#000000" font-family="sans-serif" font-size="13" lengthAdjust="spacing" textLength="105.2632" x="829.5107" y="1610.9653">Updated header</text></g><g class="message" data-entity-1="part4" data-entity-2="part6" id="msg37"><polygon fill="#181818" points="1270.1348,1641.1641,1280.1348,1645.1641,1270.1348,1649.1641,1274.1348,1645.1641" style="stroke:#181818;stroke-width:1;"/><line style="stroke:#181818;stroke-width:1;" x1="812.5107" x2="1276.1348" y1="1645.1641" y2="1645.1641"/><text fill="#000000" font-family="sans-serif" font-size="13" lengthAdjust="spacing" textLength="191.9341" x="819.5107" y="1640.0981">Update conversation headers</text></g><g class="message" data-entity-1="part4" data-entity-2="part3" id="msg38"><polygon fill="#181818" points="570.6904,1685.4297,560.6904,1689.4297,570.6904,1693.4297,566.6904,1689.4297" style="stroke:#181818;stroke-width:1;"/><line style="stroke:#181818;stroke-width:1;stroke-dasharray:2,2;" x1="564.6904" x2="811.5107" y1="1689.4297" y2="1689.4297"/><text fill="#000000" font-family="sans-serif" font-size="13" lengthAdjust="spacing" textLength="147.7354" x="576.6904" y="1669.231">LeaveConversation OK</text><text fill="#000000" font-family="sans-serif" font-size="13" lengthAdjust="spacing" textLength="114.1309" x="576.6904" y="1684.3638">(updated header)</text></g><rect fill="#EEEEEE" height="3" style="stroke:#EEEEEE;stroke-width:1;" width="1630.667" x="0" y="1717.9961"/><line style="stroke:#000000;stroke-width:1;" x1="0" x2="1630.667" y1="1717.9961" y2="1717.9961"/><line style="stroke:#000000;stroke-width:1;" x1="0" x2="1630.667" y1="1720.9961" y2="1720.9961"/><rect fill="#EEEEEE" height="23.1328" style="stroke:#000000;stroke-width:2;" width="308.8232" x="660.9219" y="1707.4297"/><text fill="#000000" font-family="sans-serif" font-size="13" font-weight="bold" lengthAdjust="spacing" textLength="290.2974" x="666.9219" y="1723.4966">Notify remaining logged-in participants</text><path d="M256.4951,1747.5625 L333.1191,1747.5625 L333.1191,1754.6953 L323.1191,1764.6953 L256.4951,1764.6953 L256.4951,1747.5625" fill="#EEEEEE" style="stroke:#000000;stroke-width:1.5;"/><rect fill="none" height="119.6641" style="stroke:#000000;stroke-width:1.5;" width="904.4482" x="256.4951" y="1747.5625"/><text fill="#000000" font-family="sans-serif" font-size="13" font-weight="bold" lengthAdjust="spacing" textLength="31.624" x="271.4951" y="1760.6294">loop</text><text fill="#000000" font-family="sans-serif" font-size="11" font-weight="bold" lengthAdjust="spacing" textLength="303.397" x="348.1191" y="1759.7729">[For each remaining logged-in participant client]</text><g class="message" data-entity-1="part4" data-entity-2="part3" id="msg39"><polygon fill="#181818" points="570.6904,1796.9609,560.6904,1800.9609,570.6904,1804.9609,566.6904,1800.9609" style="stroke:#181818;stroke-width:1;"/><line style="stroke:#181818;stroke-width:1;stroke-dasharray:2,2;" x1="564.6904" x2="811.5107" y1="1800.9609" y2="1800.9609"/><text fill="#000000" font-family="sans-serif" font-size="13" lengthAdjust="spacing" textLength="164.1187" x="576.6904" y="1780.7622">PushConversationUpdate</text><text fill="#000000" font-family="sans-serif" font-size="13" lengthAdjust="spacing" textLength="218.499" x="576.6904" y="1795.895">(conversationId, updated header)</text></g><g class="message" data-entity-1="part3" data-entity-2="part5" id="msg40"><polygon fill="#181818" points="987.7046,1826.0938,997.7046,1830.0938,987.7046,1834.0938,991.7046,1830.0938" style="stroke:#181818;stroke-width:1;"/><line style="stroke:#181818;stroke-width:1;" x1="559.6904" x2="993.7046" y1="1830.0938" y2="1830.0938"/><text fill="#000000" font-family="sans-serif" font-size="13" lengthAdjust="spacing" textLength="147.894" x="566.6904" y="1825.0278">Update cached header</text></g><g class="message" data-entity-1="part3" data-entity-2="part2" id="msg41"><polygon fill="#181818" points="315.5977,1855.2266,305.5977,1859.2266,315.5977,1863.2266,311.5977,1859.2266" style="stroke:#181818;stroke-width:1;"/><line style="stroke:#181818;stroke-width:1;" x1="309.5977" x2="558.6904" y1="1859.2266" y2="1859.2266"/><text fill="#000000" font-family="sans-serif" font-size="13" lengthAdjust="spacing" textLength="146.0532" x="321.5977" y="1854.1606">Update participants UI</text></g><g class="message" data-entity-1="part3" data-entity-2="part5" id="msg42"><polygon fill="#181818" points="987.7046,1906.4922,997.7046,1910.4922,987.7046,1914.4922,991.7046,1910.4922" style="stroke:#181818;stroke-width:1;"/><line style="stroke:#181818;stroke-width:1;" x1="559.6904" x2="993.7046" y1="1910.4922" y2="1910.4922"/><text fill="#000000" font-family="sans-serif" font-size="13" lengthAdjust="spacing" textLength="179.3721" x="566.6904" y="1890.2935">Remove/mark conversation</text><text fill="#000000" font-family="sans-serif" font-size="13" lengthAdjust="spacing" textLength="122.5034" x="566.6904" y="1905.4263">as left for this user</text></g><g class="message" data-entity-1="part3" data-entity-2="part2" id="msg43"><polygon fill="#181818" points="315.5977,1950.7578,305.5977,1954.7578,315.5977,1958.7578,311.5977,1954.7578" style="stroke:#181818;stroke-width:1;"/><line style="stroke:#181818;stroke-width:1;" x1="309.5977" x2="558.6904" y1="1954.7578" y2="1954.7578"/><text fill="#000000" font-family="sans-serif" font-size="13" lengthAdjust="spacing" textLength="157.6313" x="321.5977" y="1934.5591">Close conversation view</text><text fill="#000000" font-family="sans-serif" font-size="13" lengthAdjust="spacing" textLength="172.5103" x="321.5977" y="1949.6919">Return to conversation list</text></g><?plantuml-src hLPDRnen4BtlhnXn0ZKejnwGY1IX9aBz24eQzSB5MGzWnTXRsql5l-_ONeANzIQWzW1YxPddcJVlUN72IOHdYp1ZzFLv0lT6rnNCDip1NQrA9xHYKhXzKR3IQUDZJV6YQyMPsSFzynoOXS5C2bJEFmwAKYjdj8HcBTc-hQhZzXEQ7Pgm7N_wBIan76cRx1ahDvX2X8Mb6leoW0k3lgWzV8APLeHXcS-63J9E3wCJo3UmvkmKp9w7yKJ7jJ0M52EiyxNvFRRsW3r0nNGACuFC8Qm3pMKQDvqMeQlnZUTnGZFGccOoQ3AQmIGPWyBJJ-6HcmayukyQhOEwHKxHK4U1iMOQChfRAKFRmr7HT39Ea48XalfAafE9J1ekwqxOeVY5qJl1amXOQL-JhIGZBRKQVK9FBrJCE56AYYbdb-gBSXGIQL9iIwpI4UNhWOvExt4va9HoDFIvLqkLell3vzoEYWmp4QQ5uFOLJaCX7YVWjMez4dWJvN50QOytoe34aQxE-LKUCSXit2cCGoSzugP5D2DwhdXF4JOtycxdyF0rK-xXl3vbt7AUEpC93qD_g53bNB0J-2SOnUFKmPYIUIcGFQJM5VpQK6AG5UFSjdWh0B8Eyb3VSVj2O0EAESirC1GhK8WS-OXoFl8GmBikIW6wFhesk39eDucVZWczZYfEssry54bpslFpvXgY8DCwhIuI_avdlOn4arT-QWhDyt0fHaBLcryQgQQp32sI_DX11e7ZZYrY9Z-8BCK-mmRviPrq56rGjmuARP18VsWdLdkGUhr6FXQgtG995Y28zeukFwHwyf5GXfCfE5lFehQRr9UneumrJslqU3swEx3YdnBsqlYWgTnadkSKYOeN_kEj-WtPxg9NMam8btNd8WzxhGkutUOeSsi_ubRlC1bQhmgd5kMAfdU914r03m2vc_b4Wlzw3tVwxz7VKNrK7nDAgFKxEcohy8ECenx_hnelq-9vIWmQx06EihZUClFQed-fw0-Sn5NyK-8smeRXdhwYPjABjVDsMgf7TBLH_efjRNgv_0K0?></g></svg>