<?plantuml 1.2026.2?><svg xmlns="http://www.w3.org/2000/svg" xmlns:xlink="http://www.w3.org/1999/xlink" contentStyleType="text/css" data-diagram-type="SEQUENCE" height="1465px" preserveAspectRatio="none" style="width:1852px;height:1465px;background:#FFFFFF;" version="1.1" viewBox="0 0 1852 1465" width="1852px" zoomAndPan="magnify"><title>Use Case 6: Group Chat Functionality</title><defs/><g><text fill="#000000" font-family="sans-serif" font-size="14" font-weight="bold" lengthAdjust="spacing" textLength="294.5742" x="774.8977" y="27.9951">Use Case 6: Group Chat Functionality</text><rect fill="none" height="443.0938" style="stroke:#000000;stroke-width:1.5;" width="1633.0288" x="10" y="454.9219"/><rect fill="none" height="119.6641" style="stroke:#000000;stroke-width:1.5;" width="988.4214" x="402.2246" y="771.3516"/><rect fill="none" height="119.6641" style="stroke:#000000;stroke-width:1.5;" width="988.4214" x="402.2246" y="1159.0781"/><g class="participant-lifeline" data-entity-uid="part1" data-qualified-name="User" id="part1-lifeline"><g><title>User</title><rect fill="#000000" fill-opacity="0.00000" height="1265.6797" width="8" x="34.9551" y="118.5938"/><line style="stroke:#181818;stroke-width:0.5;stroke-dasharray:5,5;" x1="38" x2="38" y1="118.5938" y2="1384.2734"/></g></g><g class="participant-lifeline" data-entity-uid="part2" data-qualified-name="GUI" id="part2-lifeline"><g><title>Client GUI</title><rect fill="#000000" fill-opacity="0.00000" height="1265.6797" width="8" x="446.3271" y="118.5938"/><line style="stroke:#181818;stroke-width:0.5;stroke-dasharray:5,5;" x1="450.2246" x2="450.2246" y1="118.5938" y2="1384.2734"/></g></g><g class="participant-lifeline" data-entity-uid="part3" data-qualified-name="Client" id="part3-lifeline"><g><title>Client App</title><rect fill="#000000" fill-opacity="0.00000" height="1265.6797" width="8" x="701.4199" y="118.5938"/><line style="stroke:#181818;stroke-width:0.5;stroke-dasharray:5,5;" x1="705.2544" x2="705.2544" y1="118.5938" y2="1384.2734"/></g></g><g class="participant-lifeline" data-entity-uid="part4" data-qualified-name="Server" id="part4-lifeline"><g><title>Server</title><rect fill="#000000" fill-opacity="0.00000" height="1265.6797" width="8" x="1038.2134" y="118.5938"/><line style="stroke:#181818;stroke-width:0.5;stroke-dasharray:5,5;" x1="1041.2583" x2="1041.2583" y1="118.5938" y2="1384.2734"/></g></g><g class="participant-lifeline" data-entity-uid="part5" data-qualified-name="ClientCache" id="part5-lifeline"><g><title>Client Cache</title><rect fill="#000000" fill-opacity="0.00000" height="1265.6797" width="8" x="1225.4072" y="118.5938"/><line style="stroke:#181818;stroke-width:0.5;stroke-dasharray:5,5;" x1="1229.1685" x2="1229.1685" y1="118.5938" y2="1384.2734"/></g></g><g class="participant-lifeline" data-entity-uid="part6" data-qualified-name="Cache" id="part6-lifeline"><g><title>Server Cache</title><rect fill="#000000" fill-opacity="0.00000" height="1265.6797" width="8" x="1507.8374" y="118.5938"/><line style="stroke:#181818;stroke-width:0.5;stroke-dasharray:5,5;" x1="1511.646" x2="1511.646" y1="118.5938" y2="1384.2734"/></g></g><g class="participant-lifeline" data-entity-uid="part7" data-qualified-name="Store" id="part7-lifeline"><g><title>Server Persistent Storage</title><rect fill="#000000" fill-opacity="0.00000" height="1265.6797" width="8" x="1737.6992" y="118.5938"/><line style="stroke:#181818;stroke-width:0.5;stroke-dasharray:5,5;" x1="1741.0288" x2="1741.0288" y1="118.5938" y2="1384.2734"/></g></g><g class="participant participant-head" data-entity-uid="part1" data-qualified-name="User" id="part1-head"><text fill="#000000" font-family="sans-serif" font-size="14" lengthAdjust="spacing" textLength="31.9102" x="20" y="115.292">User</text><ellipse cx="38.9551" cy="50.7969" fill="#E2E2F0" rx="8" ry="8" style="stroke:#181818;stroke-width:0.5;"/><path d="M38.9551,58.7969 L38.9551,85.7969 M25.9551,66.7969 L51.9551,66.7969 M38.9551,85.7969 L25.9551,100.7969 M38.9551,85.7969 L51.9551,100.7969" fill="none" style="stroke:#181818;stroke-width:0.5;"/></g><g class="participant participant-tail" data-entity-uid="part1" data-qualified-name="User" id="part1-tail"><text fill="#000000" font-family="sans-serif" font-size="14" lengthAdjust="spacing" textLength="31.9102" x="20" y="1396.2686">User</text><ellipse cx="38.9551" cy="1408.0703" fill="#E2E2F0" rx="8" ry="8" style="stroke:#181818;stroke-width:0.5;"/><path d="M38.9551,1416.0703 L38.9551,1443.0703 M25.9551,1424.0703 L51.9551,1424.0703 M38.9551,1443.0703 L25.9551,1458.0703 M38.9551,1443.0703 L51.9551,1458.0703" fill="none" style="stroke:#181818;stroke-width:0.5;"/></g><g class="participant participant-head" data-entity-uid="part2" data-qualified-name="GUI" id="part2-head"><text fill="#000000" font-family="sans-serif" font-size="14" lengthAdjust="spacing" textLength="70.2051" x="412.2246" y="115.292">Client GUI</text><path d="M429.8271,74.2969 L429.8271,98.2969 M429.8271,86.2969 L446.8271,86.2969" fill="none" style="stroke:#181818;stroke-width:0.5;"/><ellipse cx="458.8271" cy="86.2969" fill="#E2E2F0" rx="12" ry="12" style="stroke:#181818;stroke-width:0.5;"/></g><g class="participant participant-tail" data-entity-uid="part2" data-qualified-name="GUI" id="part2-tail"><text fill="#000000" font-family="sans-serif" font-size="14" lengthAdjust="spacing" textLength="70.2051" x="412.2246" y="1396.2686">Client GUI</text><path d="M429.8271,1403.5703 L429.8271,1427.5703 M429.8271,1415.5703 L446.8271,1415.5703" fill="none" style="stroke:#181818;stroke-width:0.5;"/><ellipse cx="458.8271" cy="1415.5703" fill="#E2E2F0" rx="12" ry="12" style="stroke:#181818;stroke-width:0.5;"/></g><g class="participant participant-head" data-entity-uid="part3" data-qualified-name="Client" id="part3-head"><text fill="#000000" font-family="sans-serif" font-size="14" lengthAdjust="spacing" textLength="72.3311" x="666.2544" y="115.292">Client App</text><ellipse cx="705.4199" cy="86.2969" fill="#E2E2F0" rx="12" ry="12" style="stroke:#181818;stroke-width:0.5;"/><polygon fill="#181818" points="701.4199,74.2969,707.4199,69.2969,705.4199,74.2969,707.4199,79.2969,701.4199,74.2969" style="stroke:#181818;stroke-width:1;"/></g><g class="participant participant-tail" data-entity-uid="part3" data-qualified-name="Client" id="part3-tail"><text fill="#000000" font-family="sans-serif" font-size="14" lengthAdjust="spacing" textLength="72.3311" x="666.2544" y="1396.2686">Client App</text><ellipse cx="705.4199" cy="1415.5703" fill="#E2E2F0" rx="12" ry="12" style="stroke:#181818;stroke-width:0.5;"/><polygon fill="#181818" points="701.4199,1403.5703,707.4199,1398.5703,705.4199,1403.5703,707.4199,1408.5703,701.4199,1403.5703" style="stroke:#181818;stroke-width:1;"/></g><g class="participant participant-head" data-entity-uid="part4" data-qualified-name="Server" id="part4-head"><text fill="#000000" font-family="sans-serif" font-size="14" lengthAdjust="spacing" textLength="45.9102" x="1016.2583" y="115.292">Server</text><ellipse cx="1042.2134" cy="86.2969" fill="#E2E2F0" rx="12" ry="12" style="stroke:#181818;stroke-width:0.5;"/><polygon fill="#181818" points="1038.2134,74.2969,1044.2134,69.2969,1042.2134,74.2969,1044.2134,79.2969,1038.2134,74.2969" style="stroke:#181818;stroke-width:1;"/></g><g class="participant participant-tail" data-entity-uid="part4" data-qualified-name="Server" id="part4-tail"><text fill="#000000" font-family="sans-serif" font-size="14" lengthAdjust="spacing" textLength="45.9102" x="1016.2583" y="1396.2686">Server</text><ellipse cx="1042.2134" cy="1415.5703" fill="#E2E2F0" rx="12" ry="12" style="stroke:#181818;stroke-width:0.5;"/><polygon fill="#181818" points="1038.2134,1403.5703,1044.2134,1398.5703,1042.2134,1403.5703,1044.2134,1408.5703,1038.2134,1403.5703" style="stroke:#181818;stroke-width:1;"/></g><g class="participant participant-head" data-entity-uid="part5" data-qualified-name="ClientCache" id="part5-head"><rect fill="#E2E2F0" height="46.5938" style="stroke:#181818;stroke-width:0.5;" width="298.4775" x="1082.1685" y="67"/><rect fill="#E2E2F0" height="46.5938" style="stroke:#181818;stroke-width:0.5;" width="298.4775" x="1078.1685" y="71"/><text fill="#000000" font-family="sans-serif" font-size="14" lengthAdjust="spacing" textLength="88.5186" x="1183.1479" y="90.9951">Client Cache</text><text fill="#000000" font-family="sans-serif" font-size="14" lengthAdjust="spacing" textLength="284.4775" x="1085.1685" y="107.292">(User directory + Conversation headers)</text></g><g class="participant participant-tail" data-entity-uid="part5" data-qualified-name="ClientCache" id="part5-tail"><rect fill="#E2E2F0" height="46.5938" style="stroke:#181818;stroke-width:0.5;" width="298.4775" x="1082.1685" y="1383.2734"/><rect fill="#E2E2F0" height="46.5938" style="stroke:#181818;stroke-width:0.5;" width="298.4775" x="1078.1685" y="1387.2734"/><text fill="#000000" font-family="sans-serif" font-size="14" lengthAdjust="spacing" textLength="88.5186" x="1183.1479" y="1407.2686">Client Cache</text><text fill="#000000" font-family="sans-serif" font-size="14" lengthAdjust="spacing" textLength="284.4775" x="1085.1685" y="1423.5654">(User directory + Conversation headers)</text></g><g class="participant participant-head" data-entity-uid="part6" data-qualified-name="Cache" id="part6-head"><rect fill="#E2E2F0" height="46.5938" style="stroke:#181818;stroke-width:0.5;" width="238.3828" x="1394.646" y="67"/><rect fill="#E2E2F0" height="46.5938" style="stroke:#181818;stroke-width:0.5;" width="238.3828" x="1390.646" y="71"/><text fill="#000000" font-family="sans-serif" font-size="14" lengthAdjust="spacing" textLength="93.8984" x="1462.8882" y="90.9951">Server Cache</text><text fill="#000000" font-family="sans-serif" font-size="14" lengthAdjust="spacing" textLength="224.3828" x="1397.646" y="107.292">(Users + Conversation headers)</text></g><g class="participant participant-tail" data-entity-uid="part6" data-qualified-name="Cache" id="part6-tail"><rect fill="#E2E2F0" height="46.5938" style="stroke:#181818;stroke-width:0.5;" width="238.3828" x="1394.646" y="1383.2734"/><rect fill="#E2E2F0" height="46.5938" style="stroke:#181818;stroke-width:0.5;" width="238.3828" x="1390.646" y="1387.2734"/><text fill="#000000" font-family="sans-serif" font-size="14" lengthAdjust="spacing" textLength="93.8984" x="1462.8882" y="1407.2686">Server Cache</text><text fill="#000000" font-family="sans-serif" font-size="14" lengthAdjust="spacing" textLength="224.3828" x="1397.646" y="1423.5654">(Users + Conversation headers)</text></g><g class="participant participant-head" data-entity-uid="part7" data-qualified-name="Store" id="part7-head"><rect fill="#E2E2F0" height="46.5938" style="stroke:#181818;stroke-width:0.5;" width="193.3408" x="1647.0288" y="67"/><rect fill="#E2E2F0" height="46.5938" style="stroke:#181818;stroke-width:0.5;" width="193.3408" x="1643.0288" y="71"/><text fill="#000000" font-family="sans-serif" font-size="14" lengthAdjust="spacing" textLength="179.3408" x="1650.0288" y="90.9951">Server Persistent Storage</text><text fill="#000000" font-family="sans-serif" font-size="14" lengthAdjust="spacing" textLength="164.5479" x="1657.4253" y="107.292">(Conversation headers)</text></g><g class="participant participant-tail" data-entity-uid="part7" data-qualified-name="Store" id="part7-tail"><rect fill="#E2E2F0" height="46.5938" style="stroke:#181818;stroke-width:0.5;" width="193.3408" x="1647.0288" y="1383.2734"/><rect fill="#E2E2F0" height="46.5938" style="stroke:#181818;stroke-width:0.5;" width="193.3408" x="1643.0288" y="1387.2734"/><text fill="#000000" font-family="sans-serif" font-size="14" lengthAdjust="spacing" textLength="179.3408" x="1650.0288" y="1407.2686">Server Persistent Storage</text><text fill="#000000" font-family="sans-serif" font-size="14" lengthAdjust="spacing" textLength="164.5479" x="1657.4253" y="1423.5654">(Conversation headers)</text></g><rect fill="#EEEEEE" height="3" style="stroke:#EEEEEE;stroke-width:1;" width="1845.3696" x="0" y="149.1602"/><line style="stroke:#000000;stroke-width:1;" x1="0" x2="1845.3696" y1="149.1602" y2="149.1602"/><line style="stroke:#000000;stroke-width:1;" x1="0" x2="1845.3696" y1="152.1602" y2="152.1602"/><rect fill="#EEEEEE" height="23.1328" style="stroke:#000000;stroke-width:2;" width="214.3193" x="815.5251" y="138.5938"/><text fill="#000000" font-family="sans-serif" font-size="13" font-weight="bold" lengthAdjust="spacing" textLength="195.7935" x="821.5251" y="154.6606">Create group conversation</text><g class="message" data-entity-1="part1" data-entity-2="part2" id="msg1"><polygon fill="#181818" points="438.3271,188.8594,448.3271,192.8594,438.3271,196.8594,442.3271,192.8594" style="stroke:#181818;stroke-width:1;"/><line style="stroke:#181818;stroke-width:1;" x1="38.9551" x2="444.3271" y1="192.8594" y2="192.8594"/><text fill="#000000" font-family="sans-serif" font-size="13" lengthAdjust="spacing" textLength="387.3721" x="45.9551" y="187.7935">From a conversation, select Convert to Group Conversation</text></g><g class="message" data-entity-1="part3" data-entity-2="part4" id="msg2"><polygon fill="#181818" points="1030.2134,217.9922,1040.2134,221.9922,1030.2134,225.9922,1034.2134,221.9922" style="stroke:#181818;stroke-width:1;"/><line style="stroke:#181818;stroke-width:1;" x1="705.4199" x2="1036.2134" y1="221.9922" y2="221.9922"/><text fill="#000000" font-family="sans-serif" font-size="13" lengthAdjust="spacing" textLength="312.7935" x="712.4199" y="216.9263">CreateGroupConversation(currentConversation)</text></g><g class="message" data-entity-1="part4" data-entity-2="part7" id="msg3"><polygon fill="#181818" points="1729.6992,247.125,1739.6992,251.125,1729.6992,255.125,1733.6992,251.125" style="stroke:#181818;stroke-width:1;"/><line style="stroke:#181818;stroke-width:1;" x1="1042.2134" x2="1735.6992" y1="251.125" y2="251.125"/><text fill="#000000" font-family="sans-serif" font-size="13" lengthAdjust="spacing" textLength="155.562" x="1049.2134" y="246.0591">Create conversation file</text></g><g class="message" data-entity-1="part7" data-entity-2="part4" id="msg4"><polygon fill="#181818" points="1053.2134,276.2578,1043.2134,280.2578,1053.2134,284.2578,1049.2134,280.2578" style="stroke:#181818;stroke-width:1;"/><line style="stroke:#181818;stroke-width:1;stroke-dasharray:2,2;" x1="1047.2134" x2="1740.6992" y1="280.2578" y2="280.2578"/><text fill="#000000" font-family="sans-serif" font-size="13" lengthAdjust="spacing" textLength="162.1128" x="1059.2134" y="275.1919">Created (conversationId)</text></g><g class="message" data-entity-1="part4" data-entity-2="part6" id="msg5"><polygon fill="#181818" points="1499.8374,305.3906,1509.8374,309.3906,1499.8374,313.3906,1503.8374,309.3906" style="stroke:#181818;stroke-width:1;"/><line style="stroke:#181818;stroke-width:1;" x1="1042.2134" x2="1505.8374" y1="309.3906" y2="309.3906"/><text fill="#000000" font-family="sans-serif" font-size="13" lengthAdjust="spacing" textLength="165.9531" x="1049.2134" y="304.3247">Update conversation logs</text></g><g class="message" data-entity-1="part4" data-entity-2="part3" id="msg6"><polygon fill="#181818" points="716.4199,334.5234,706.4199,338.5234,716.4199,342.5234,712.4199,338.5234" style="stroke:#181818;stroke-width:1;"/><line style="stroke:#181818;stroke-width:1;stroke-dasharray:2,2;" x1="710.4199" x2="1041.2134" y1="338.5234" y2="338.5234"/><text fill="#000000" font-family="sans-serif" font-size="13" lengthAdjust="spacing" textLength="152.3184" x="722.4199" y="333.4575">CreateConversation OK</text></g><g class="message" data-entity-1="part3" data-entity-2="part5" id="msg7"><polygon fill="#181818" points="1217.4072,363.6563,1227.4072,367.6563,1217.4072,371.6563,1221.4072,367.6563" style="stroke:#181818;stroke-width:1;"/><line style="stroke:#181818;stroke-width:1;" x1="705.4199" x2="1223.4072" y1="367.6563" y2="367.6563"/><text fill="#000000" font-family="sans-serif" font-size="13" lengthAdjust="spacing" textLength="165.1533" x="712.4199" y="362.5903">Add conversation to local</text></g><g class="message" data-entity-1="part3" data-entity-2="part2" id="msg8"><polygon fill="#181818" points="461.3271,392.7891,451.3271,396.7891,461.3271,400.7891,457.3271,396.7891" style="stroke:#181818;stroke-width:1;"/><line style="stroke:#181818;stroke-width:1;" x1="455.3271" x2="704.4199" y1="396.7891" y2="396.7891"/><text fill="#000000" font-family="sans-serif" font-size="13" lengthAdjust="spacing" textLength="230.1152" x="467.3271" y="391.7231">Open new group conversation view</text></g><rect fill="#EEEEEE" height="3" style="stroke:#EEEEEE;stroke-width:1;" width="1845.3696" x="0" y="425.3555"/><line style="stroke:#000000;stroke-width:1;" x1="0" x2="1845.3696" y1="425.3555" y2="425.3555"/><line style="stroke:#000000;stroke-width:1;" x1="0" x2="1845.3696" y1="428.3555" y2="428.3555"/><rect fill="#EEEEEE" height="23.1328" style="stroke:#000000;stroke-width:2;" width="130.8794" x="857.2451" y="414.7891"/><text fill="#000000" font-family="sans-serif" font-size="13" font-weight="bold" lengthAdjust="spacing" textLength="112.3535" x="863.2451" y="430.856">Add users later</text><path d="M10,454.9219 L86.624,454.9219 L86.624,462.0547 L76.624,472.0547 L10,472.0547 L10,454.9219" fill="#EEEEEE" style="stroke:#000000;stroke-width:1.5;"/><rect fill="none" height="443.0938" style="stroke:#000000;stroke-width:1.5;" width="1633.0288" x="10" y="454.9219"/><text fill="#000000" font-family="sans-serif" font-size="13" font-weight="bold" lengthAdjust="spacing" textLength="31.624" x="25" y="467.9888">loop</text><text fill="#000000" font-family="sans-serif" font-size="11" font-weight="bold" lengthAdjust="spacing" textLength="188.7563" x="101.624" y="467.1323">[When user adds participants]</text><g class="message" data-entity-1="part1" data-entity-2="part2" id="msg9"><polygon fill="#181818" points="438.3271,489.1875,448.3271,493.1875,438.3271,497.1875,442.3271,493.1875" style="stroke:#181818;stroke-width:1;"/><line style="stroke:#181818;stroke-width:1;" x1="38.9551" x2="444.3271" y1="493.1875" y2="493.1875"/><text fill="#000000" font-family="sans-serif" font-size="13" lengthAdjust="spacing" textLength="153.8608" x="45.9551" y="488.1216">Choose "Add Members"</text></g><rect fill="none" height="39.1016" style="stroke:#000000;stroke-width:1.5;" width="1054.1685" x="17" y="501.1875"/><path d="M17,501.1875 L82,501.1875 L82,508.1875 L72,518.1875 L17,518.1875 L17,501.1875" fill="#EEEEEE" style="stroke:#000000;stroke-width:2;"/><text fill="#000000" font-family="sans-serif" font-size="13" font-weight="bold" lengthAdjust="spacing" textLength="20.8838" x="30" y="515.2544">ref</text><text fill="#000000" font-family="sans-serif" font-size="12" lengthAdjust="spacing" textLength="126.2285" x="480.97" y="533.3262">Searching For A User</text><g class="message" data-entity-1="part1" data-entity-2="part2" id="msg10"><polygon fill="#181818" points="438.3271,577.5547,448.3271,581.5547,438.3271,585.5547,442.3271,581.5547" style="stroke:#181818;stroke-width:1;"/><line style="stroke:#181818;stroke-width:1;" x1="38.9551" x2="444.3271" y1="581.5547" y2="581.5547"/><text fill="#000000" font-family="sans-serif" font-size="13" lengthAdjust="spacing" textLength="118.3774" x="45.9551" y="561.356">Select user to add</text><text fill="#000000" font-family="sans-serif" font-size="13" lengthAdjust="spacing" textLength="72.4648" x="45.9551" y="576.4888">Click "Add"</text></g><g class="message" data-entity-1="part2" data-entity-2="part3" id="msg11"><polygon fill="#181818" points="693.4199,606.6875,703.4199,610.6875,693.4199,614.6875,697.4199,610.6875" style="stroke:#181818;stroke-width:1;"/><line style="stroke:#181818;stroke-width:1;" x1="450.3271" x2="699.4199" y1="610.6875" y2="610.6875"/><text fill="#000000" font-family="sans-serif" font-size="13" lengthAdjust="spacing" textLength="187.4463" x="457.3271" y="605.6216">AddParticipant(userIdToAdd)</text></g><g class="message" data-entity-1="part3" data-entity-2="part4" id="msg12"><polygon fill="#181818" points="1030.2134,635.8203,1040.2134,639.8203,1030.2134,643.8203,1034.2134,639.8203" style="stroke:#181818;stroke-width:1;"/><line style="stroke:#181818;stroke-width:1;" x1="705.4199" x2="1036.2134" y1="639.8203" y2="639.8203"/><text fill="#000000" font-family="sans-serif" font-size="13" lengthAdjust="spacing" textLength="187.4463" x="712.4199" y="634.7544">AddParticipant(userIdToAdd)</text></g><g class="message" data-entity-1="part4" data-entity-2="part6" id="msg13"><polygon fill="#181818" points="1499.8374,680.0859,1509.8374,684.0859,1499.8374,688.0859,1503.8374,684.0859" style="stroke:#181818;stroke-width:1;"/><line style="stroke:#181818;stroke-width:1;" x1="1042.2134" x2="1505.8374" y1="684.0859" y2="684.0859"/><text fill="#000000" font-family="sans-serif" font-size="13" lengthAdjust="spacing" textLength="151.7979" x="1049.2134" y="663.8872">Update participants list</text><text fill="#000000" font-family="sans-serif" font-size="13" lengthAdjust="spacing" textLength="67.1011" x="1049.2134" y="679.02">(add user)</text></g><g class="message" data-entity-1="part4" data-entity-2="part3" id="msg14"><polygon fill="#181818" points="716.4199,709.2188,706.4199,713.2188,716.4199,717.2188,712.4199,713.2188" style="stroke:#181818;stroke-width:1;"/><line style="stroke:#181818;stroke-width:1;stroke-dasharray:2,2;" x1="710.4199" x2="1041.2134" y1="713.2188" y2="713.2188"/><text fill="#000000" font-family="sans-serif" font-size="13" lengthAdjust="spacing" textLength="125.2329" x="722.4199" y="708.1528">AddParticipants OK</text></g><rect fill="#EEEEEE" height="3" style="stroke:#EEEEEE;stroke-width:1;" width="1845.3696" x="0" y="741.7852"/><line style="stroke:#000000;stroke-width:1;" x1="0" x2="1845.3696" y1="741.7852" y2="741.7852"/><line style="stroke:#000000;stroke-width:1;" x1="0" x2="1845.3696" y1="744.7852" y2="744.7852"/><rect fill="#EEEEEE" height="23.1328" style="stroke:#000000;stroke-width:2;" width="230.0234" x="807.6731" y="731.2188"/><text fill="#000000" font-family="sans-serif" font-size="13" font-weight="bold" lengthAdjust="spacing" textLength="211.4976" x="813.6731" y="747.2856">Notify logged-in participants</text><path d="M402.2246,771.3516 L478.8486,771.3516 L478.8486,778.4844 L468.8486,788.4844 L402.2246,788.4844 L402.2246,771.3516" fill="#EEEEEE" style="stroke:#000000;stroke-width:1.5;"/><rect fill="none" height="119.6641" style="stroke:#000000;stroke-width:1.5;" width="988.4214" x="402.2246" y="771.3516"/><text fill="#000000" font-family="sans-serif" font-size="13" font-weight="bold" lengthAdjust="spacing" textLength="31.624" x="417.2246" y="784.4185">loop</text><text fill="#000000" font-family="sans-serif" font-size="11" font-weight="bold" lengthAdjust="spacing" textLength="236.7202" x="493.8486" y="783.562">[For each logged-in participant client]</text><g class="message" data-entity-1="part4" data-entity-2="part3" id="msg15"><polygon fill="#181818" points="716.4199,820.75,706.4199,824.75,716.4199,828.75,712.4199,824.75" style="stroke:#181818;stroke-width:1;"/><line style="stroke:#181818;stroke-width:1;stroke-dasharray:2,2;" x1="710.4199" x2="1041.2134" y1="824.75" y2="824.75"/><text fill="#000000" font-family="sans-serif" font-size="13" lengthAdjust="spacing" textLength="164.1187" x="722.4199" y="804.5513">PushConversationUpdate</text><text fill="#000000" font-family="sans-serif" font-size="13" lengthAdjust="spacing" textLength="218.499" x="722.4199" y="819.6841">(conversationId, updated header)</text></g><g class="message" data-entity-1="part3" data-entity-2="part5" id="msg16"><polygon fill="#181818" points="1217.4072,849.8828,1227.4072,853.8828,1217.4072,857.8828,1221.4072,853.8828" style="stroke:#181818;stroke-width:1;"/><line style="stroke:#181818;stroke-width:1;" x1="705.4199" x2="1223.4072" y1="853.8828" y2="853.8828"/><text fill="#000000" font-family="sans-serif" font-size="13" lengthAdjust="spacing" textLength="147.894" x="712.4199" y="848.8169">Update cached header</text></g><g class="message" data-entity-1="part3" data-entity-2="part2" id="msg17"><polygon fill="#181818" points="461.3271,879.0156,451.3271,883.0156,461.3271,887.0156,457.3271,883.0156" style="stroke:#181818;stroke-width:1;"/><line style="stroke:#181818;stroke-width:1;" x1="455.3271" x2="704.4199" y1="883.0156" y2="883.0156"/><text fill="#000000" font-family="sans-serif" font-size="13" lengthAdjust="spacing" textLength="146.0532" x="467.3271" y="877.9497">Update participants UI</text></g><rect fill="#EEEEEE" height="3" style="stroke:#EEEEEE;stroke-width:1;" width="1845.3696" x="0" y="925.582"/><line style="stroke:#000000;stroke-width:1;" x1="0" x2="1845.3696" y1="925.582" y2="925.582"/><line style="stroke:#000000;stroke-width:1;" x1="0" x2="1845.3696" y1="928.582" y2="928.582"/><rect fill="#EEEEEE" height="23.1328" style="stroke:#000000;stroke-width:2;" width="208.9111" x="818.2292" y="915.0156"/><text fill="#000000" font-family="sans-serif" font-size="13" font-weight="bold" lengthAdjust="spacing" textLength="190.3853" x="824.2292" y="931.0825">Leave group conversation</text><g class="message" data-entity-1="part1" data-entity-2="part2" id="msg18"><polygon fill="#181818" points="438.3271,965.2813,448.3271,969.2813,438.3271,973.2813,442.3271,969.2813" style="stroke:#181818;stroke-width:1;"/><line style="stroke:#181818;stroke-width:1;" x1="38.9551" x2="444.3271" y1="969.2813" y2="969.2813"/><text fill="#000000" font-family="sans-serif" font-size="13" lengthAdjust="spacing" textLength="146.98" x="45.9551" y="964.2153">Choose "Leave Group"</text></g><g class="message" data-entity-1="part2" data-entity-2="part3" id="msg19"><polygon fill="#181818" points="693.4199,994.4141,703.4199,998.4141,693.4199,1002.4141,697.4199,998.4141" style="stroke:#181818;stroke-width:1;"/><line style="stroke:#181818;stroke-width:1;" x1="450.3271" x2="699.4199" y1="998.4141" y2="998.4141"/><text fill="#000000" font-family="sans-serif" font-size="13" lengthAdjust="spacing" textLength="231.0928" x="457.3271" y="993.3481">LeaveConversation(conversationId)</text></g><g class="message" data-entity-1="part3" data-entity-2="part4" id="msg20"><polygon fill="#181818" points="1030.2134,1023.5469,1040.2134,1027.5469,1030.2134,1031.5469,1034.2134,1027.5469" style="stroke:#181818;stroke-width:1;"/><line style="stroke:#181818;stroke-width:1;" x1="705.4199" x2="1036.2134" y1="1027.5469" y2="1027.5469"/><text fill="#000000" font-family="sans-serif" font-size="13" lengthAdjust="spacing" textLength="229.7598" x="712.4199" y="1022.481">RemoveParticipant(conversationId)</text></g><g class="message" data-entity-1="part4" data-entity-2="part6" id="msg21"><polygon fill="#181818" points="1499.8374,1067.8125,1509.8374,1071.8125,1499.8374,1075.8125,1503.8374,1071.8125" style="stroke:#181818;stroke-width:1;"/><line style="stroke:#181818;stroke-width:1;" x1="1042.2134" x2="1505.8374" y1="1071.8125" y2="1071.8125"/><text fill="#000000" font-family="sans-serif" font-size="13" lengthAdjust="spacing" textLength="151.7979" x="1049.2134" y="1051.6138">Update participants list</text><text fill="#000000" font-family="sans-serif" font-size="13" lengthAdjust="spacing" textLength="92.2822" x="1049.2134" y="1066.7466">(remove user)</text></g><g class="message" data-entity-1="part4" data-entity-2="part3" id="msg22"><polygon fill="#181818" points="716.4199,1096.9453,706.4199,1100.9453,716.4199,1104.9453,712.4199,1100.9453" style="stroke:#181818;stroke-width:1;"/><line style="stroke:#181818;stroke-width:1;stroke-dasharray:2,2;" x1="710.4199" x2="1041.2134" y1="1100.9453" y2="1100.9453"/><text fill="#000000" font-family="sans-serif" font-size="13" lengthAdjust="spacing" textLength="147.7354" x="722.4199" y="1095.8794">LeaveConversation OK</text></g><rect fill="#EEEEEE" height="3" style="stroke:#EEEEEE;stroke-width:1;" width="1845.3696" x="0" y="1129.5117"/><line style="stroke:#000000;stroke-width:1;" x1="0" x2="1845.3696" y1="1129.5117" y2="1129.5117"/><line style="stroke:#000000;stroke-width:1;" x1="0" x2="1845.3696" y1="1132.5117" y2="1132.5117"/><rect fill="#EEEEEE" height="23.1328" style="stroke:#000000;stroke-width:2;" width="308.8232" x="768.2732" y="1118.9453"/><text fill="#000000" font-family="sans-serif" font-size="13" font-weight="bold" lengthAdjust="spacing" textLength="290.2974" x="774.2732" y="1135.0122">Notify remaining logged-in participants</text><path d="M402.2246,1159.0781 L478.8486,1159.0781 L478.8486,1166.2109 L468.8486,1176.2109 L402.2246,1176.2109 L402.2246,1159.0781" fill="#EEEEEE" style="stroke:#000000;stroke-width:1.5;"/><rect fill="none" height="119.6641" style="stroke:#000000;stroke-width:1.5;" width="988.4214" x="402.2246" y="1159.0781"/><text fill="#000000" font-family="sans-serif" font-size="13" font-weight="bold" lengthAdjust="spacing" textLength="31.624" x="417.2246" y="1172.145">loop</text><text fill="#000000" font-family="sans-serif" font-size="11" font-weight="bold" lengthAdjust="spacing" textLength="303.397" x="493.8486" y="1171.2886">[For each remaining logged-in participant client]</text><g class="message" data-entity-1="part4" data-entity-2="part3" id="msg23"><polygon fill="#181818" points="716.4199,1208.4766,706.4199,1212.4766,716.4199,1216.4766,712.4199,1212.4766" style="stroke:#181818;stroke-width:1;"/><line style="stroke:#181818;stroke-width:1;stroke-dasharray:2,2;" x1="710.4199" x2="1041.2134" y1="1212.4766" y2="1212.4766"/><text fill="#000000" font-family="sans-serif" font-size="13" lengthAdjust="spacing" textLength="164.1187" x="722.4199" y="1192.2778">PushConversationUpdate</text><text fill="#000000" font-family="sans-serif" font-size="13" lengthAdjust="spacing" textLength="218.499" x="722.4199" y="1207.4106">(conversationId, updated header)</text></g><g class="message" data-entity-1="part3" data-entity-2="part5" id="msg24"><polygon fill="#181818" points="1217.4072,1237.6094,1227.4072,1241.6094,1217.4072,1245.6094,1221.4072,1241.6094" style="stroke:#181818;stroke-width:1;"/><line style="stroke:#181818;stroke-width:1;" x1="705.4199" x2="1223.4072" y1="1241.6094" y2="1241.6094"/><text fill="#000000" font-family="sans-serif" font-size="13" lengthAdjust="spacing" textLength="147.894" x="712.4199" y="1236.5435">Update cached header</text></g><g class="message" data-entity-1="part3" data-entity-2="part2" id="msg25"><polygon fill="#181818" points="461.3271,1266.7422,451.3271,1270.7422,461.3271,1274.7422,457.3271,1270.7422" style="stroke:#181818;stroke-width:1;"/><line style="stroke:#181818;stroke-width:1;" x1="455.3271" x2="704.4199" y1="1270.7422" y2="1270.7422"/><text fill="#000000" font-family="sans-serif" font-size="13" lengthAdjust="spacing" textLength="146.0532" x="467.3271" y="1265.6763">Update participants UI</text></g><g class="message" data-entity-1="part3" data-entity-2="part5" id="msg26"><polygon fill="#181818" points="1217.4072,1318.0078,1227.4072,1322.0078,1217.4072,1326.0078,1221.4072,1322.0078" style="stroke:#181818;stroke-width:1;"/><line style="stroke:#181818;stroke-width:1;" x1="705.4199" x2="1223.4072" y1="1322.0078" y2="1322.0078"/><text fill="#000000" font-family="sans-serif" font-size="13" lengthAdjust="spacing" textLength="179.3721" x="712.4199" y="1301.8091">Remove/mark conversation</text><text fill="#000000" font-family="sans-serif" font-size="13" lengthAdjust="spacing" textLength="122.5034" x="712.4199" y="1316.9419">as left for this user</text></g><g class="message" data-entity-1="part3" data-entity-2="part2" id="msg27"><polygon fill="#181818" points="461.3271,1362.2734,451.3271,1366.2734,461.3271,1370.2734,457.3271,1366.2734" style="stroke:#181818;stroke-width:1;"/><line style="stroke:#181818;stroke-width:1;" x1="455.3271" x2="704.4199" y1="1366.2734" y2="1366.2734"/><text fill="#000000" font-family="sans-serif" font-size="13" lengthAdjust="spacing" textLength="157.6313" x="467.3271" y="1346.0747">Close conversation view</text><text fill="#000000" font-family="sans-serif" font-size="13" lengthAdjust="spacing" textLength="172.5103" x="467.3271" y="1361.2075">Return to conversation list</text></g><?plantuml-src hLLDRzim3BthLn0v9LYAtNO8a065WHJ1Fbeq2tR9HRMKMAWY6PBS8lz-9EqqifDiBR13YrfwV2GV7zLaajMmZXeAYR--pE0k-AQ6ef895eqha_5EMfCEGiWo-K3O89vyuvGC1xXRBq5661NMQ9VeSoHAxrBm5hgpxFgsha_NAnrUTE3hza-wibPpojX55xAiT4x11nitfZ90cQ2fg0DyWi8xv8YIeg7IKk77P43vHjRbpidY-pXMcAx7yO0O4nFLHdToHuHNYCHy3aNGCcdOiSnbZflF1NTryvLqdC4Y-3t87cOAKLCfNQK9aZyEB4C9qOc5J6sLioujOtFek6n289spiudeMgDmQlSOtIztQwmMhHmtPuaKZ7FmKkMaBFiCrhKw8xL-5z-G1EL6ZgmzMU-_vNrcTfd1hL9zMfJ9-bBQB80blg-r0wTVButZnUXNdXYnDUmGYpK4cfFrleRV5GRJ1KYb8jGo95EQMheK1K1lb4NbFQxNYAX-wFqJaeqG4_GMFBLAu2b1frqZqpSzLrg6iZ9k1mlSljjs_mRqgzOKN0ksYkLi7FAKpvoHCj6UPdBYwSEft345BjKlZySJ19-xvszu3BWssbmIiBWbk1goKxCNUBMqo6C6r1n--cIs1tB8JgiRu_hiE1G07Wl9fB6CoqWeEG-2BsP_Q6ALkwnj1ClkktaA3L-eRhadp7V5ZKUVqzSnO83dALuIRRr4f7PAq0-PyRkMB-zwFOwMQmDuyKTYO0E-wpy7WwKzjyAZtgDbSpSCOyH7x12OhdF4XO6SbSY6EDa1uwLnj1xNZT6tnJyYJWRvl_Ruc3dUPmqsnHNYTawVzp8yzuooSVZFo-fjWYqgaYeJMVpXorXOSi_PWxXnZperWL_K_iEDu_m3?></g></svg>