<?plantuml 1.2026.2?><svg xmlns="http://www.w3.org/2000/svg" xmlns:xlink="http://www.w3.org/1999/xlink" contentStyleType="text/css" data-diagram-type="SEQUENCE" height="716px" preserveAspectRatio="none" style="width:1241px;height:716px;background:#FFFFFF;" version="1.1" viewBox="0 0 1241 716" width="1241px" zoomAndPan="magnify"><title>Use Case 7: Change User Login Info (IT User)</title><defs/><g><text fill="#000000" font-family="sans-serif" font-size="14" font-weight="bold" lengthAdjust="spacing" textLength="354.2178" x="439.7305" y="27.9951">Use Case 7: Change User Login Info (IT User)</text><g class="participant-lifeline" data-entity-uid="part1" data-qualified-name="ITUser" id="part1-lifeline"><g><title>User .IT.</title><rect fill="#000000" fill-opacity="0.00000" height="517.3594" width="8" x="33.9824" y="118.5938"/><line style="stroke:#181818;stroke-width:0.5;stroke-dasharray:5,5;" x1="37" x2="37" y1="118.5938" y2="635.9531"/></g></g><g class="participant-lifeline" data-entity-uid="part2" data-qualified-name="GUI" id="part2-lifeline"><g><title>Client GUI</title><rect fill="#000000" fill-opacity="0.00000" height="517.3594" width="8" x="240.0078" y="118.5938"/><line style="stroke:#181818;stroke-width:0.5;stroke-dasharray:5,5;" x1="243.9053" x2="243.9053" y1="118.5938" y2="635.9531"/></g></g><g class="participant-lifeline" data-entity-uid="part3" data-qualified-name="Client" id="part3-lifeline"><g><title>Client App</title><rect fill="#000000" fill-opacity="0.00000" height="517.3594" width="8" x="510.4746" y="118.5938"/><line style="stroke:#181818;stroke-width:0.5;stroke-dasharray:5,5;" x1="514.3091" x2="514.3091" y1="118.5938" y2="635.9531"/></g></g><g class="participant-lifeline" data-entity-uid="part4" data-qualified-name="Server" id="part4-lifeline"><g><title>Server</title><rect fill="#000000" fill-opacity="0.00000" height="517.3594" width="8" x="761.7651" y="118.5938"/><line style="stroke:#181818;stroke-width:0.5;stroke-dasharray:5,5;" x1="764.8101" x2="764.8101" y1="118.5938" y2="635.9531"/></g></g><g class="participant-lifeline" data-entity-uid="part5" data-qualified-name="Cache" id="part5-lifeline"><g><title>Server Cache</title><rect fill="#000000" fill-opacity="0.00000" height="517.3594" width="8" x="962.3887" y="118.5938"/><line style="stroke:#181818;stroke-width:0.5;stroke-dasharray:5,5;" x1="965.4395" x2="965.4395" y1="118.5938" y2="635.9531"/></g></g><g class="participant-lifeline" data-entity-uid="part6" data-qualified-name="Store" id="part6-lifeline"><g><title>Server Persistent Storage</title><rect fill="#000000" fill-opacity="0.00000" height="517.3594" width="8" x="1127.0083" y="118.5938"/><line style="stroke:#181818;stroke-width:0.5;stroke-dasharray:5,5;" x1="1130.3379" x2="1130.3379" y1="118.5938" y2="635.9531"/></g></g><g class="participant participant-head" data-entity-uid="part1" data-qualified-name="ITUser" id="part1-head"><text fill="#000000" font-family="sans-serif" font-size="14" lengthAdjust="spacing" textLength="59.9648" x="5" y="115.292">User (IT)</text><ellipse cx="37.9824" cy="50.7969" fill="#E2E2F0" rx="8" ry="8" style="stroke:#181818;stroke-width:0.5;"/><path d="M37.9824,58.7969 L37.9824,85.7969 M24.9824,66.7969 L50.9824,66.7969 M37.9824,85.7969 L24.9824,100.7969 M37.9824,85.7969 L50.9824,100.7969" fill="none" style="stroke:#181818;stroke-width:0.5;"/></g><g class="participant participant-tail" data-entity-uid="part1" data-qualified-name="ITUser" id="part1-tail"><text fill="#000000" font-family="sans-serif" font-size="14" lengthAdjust="spacing" textLength="59.9648" x="5" y="647.9482">User (IT)</text><ellipse cx="37.9824" cy="659.75" fill="#E2E2F0" rx="8" ry="8" style="stroke:#181818;stroke-width:0.5;"/><path d="M37.9824,667.75 L37.9824,694.75 M24.9824,675.75 L50.9824,675.75 M37.9824,694.75 L24.9824,709.75 M37.9824,694.75 L50.9824,709.75" fill="none" style="stroke:#181818;stroke-width:0.5;"/></g><g class="participant participant-head" data-entity-uid="part2" data-qualified-name="GUI" id="part2-head"><text fill="#000000" font-family="sans-serif" font-size="14" lengthAdjust="spacing" textLength="70.2051" x="205.9053" y="115.292">Client GUI</text><path d="M223.5078,74.2969 L223.5078,98.2969 M223.5078,86.2969 L240.5078,86.2969" fill="none" style="stroke:#181818;stroke-width:0.5;"/><ellipse cx="252.5078" cy="86.2969" fill="#E2E2F0" rx="12" ry="12" style="stroke:#181818;stroke-width:0.5;"/></g><g class="participant participant-tail" data-entity-uid="part2" data-qualified-name="GUI" id="part2-tail"><text fill="#000000" font-family="sans-serif" font-size="14" lengthAdjust="spacing" textLength="70.2051" x="205.9053" y="647.9482">Client GUI</text><path d="M223.5078,655.25 L223.5078,679.25 M223.5078,667.25 L240.5078,667.25" fill="none" style="stroke:#181818;stroke-width:0.5;"/><ellipse cx="252.5078" cy="667.25" fill="#E2E2F0" rx="12" ry="12" style="stroke:#181818;stroke-width:0.5;"/></g><g class="participant participant-head" data-entity-uid="part3" data-qualified-name="Client" id="part3-head"><text fill="#000000" font-family="sans-serif" font-size="14" lengthAdjust="spacing" textLength="72.3311" x="475.3091" y="115.292">Client App</text><ellipse cx="514.4746" cy="86.2969" fill="#E2E2F0" rx="12" ry="12" style="stroke:#181818;stroke-width:0.5;"/><polygon fill="#181818" points="510.4746,74.2969,516.4746,69.2969,514.4746,74.2969,516.4746,79.2969,510.4746,74.2969" style="stroke:#181818;stroke-width:1;"/></g><g class="participant participant-tail" data-entity-uid="part3" data-qualified-name="Client" id="part3-tail"><text fill="#000000" font-family="sans-serif" font-size="14" lengthAdjust="spacing" textLength="72.3311" x="475.3091" y="647.9482">Client App</text><ellipse cx="514.4746" cy="667.25" fill="#E2E2F0" rx="12" ry="12" style="stroke:#181818;stroke-width:0.5;"/><polygon fill="#181818" points="510.4746,655.25,516.4746,650.25,514.4746,655.25,516.4746,660.25,510.4746,655.25" style="stroke:#181818;stroke-width:1;"/></g><g class="participant participant-head" data-entity-uid="part4" data-qualified-name="Server" id="part4-head"><text fill="#000000" font-family="sans-serif" font-size="14" lengthAdjust="spacing" textLength="45.9102" x="739.8101" y="115.292">Server</text><ellipse cx="765.7651" cy="86.2969" fill="#E2E2F0" rx="12" ry="12" style="stroke:#181818;stroke-width:0.5;"/><polygon fill="#181818" points="761.7651,74.2969,767.7651,69.2969,765.7651,74.2969,767.7651,79.2969,761.7651,74.2969" style="stroke:#181818;stroke-width:1;"/></g><g class="participant participant-tail" data-entity-uid="part4" data-qualified-name="Server" id="part4-tail"><text fill="#000000" font-family="sans-serif" font-size="14" lengthAdjust="spacing" textLength="45.9102" x="739.8101" y="647.9482">Server</text><ellipse cx="765.7651" cy="667.25" fill="#E2E2F0" rx="12" ry="12" style="stroke:#181818;stroke-width:0.5;"/><polygon fill="#181818" points="761.7651,655.25,767.7651,650.25,765.7651,655.25,767.7651,660.25,761.7651,655.25" style="stroke:#181818;stroke-width:1;"/></g><g class="participant participant-head" data-entity-uid="part5" data-qualified-name="Cache" id="part5-head"><rect fill="#E2E2F0" height="46.5938" style="stroke:#181818;stroke-width:0.5;" width="107.8984" x="914.4395" y="67"/><rect fill="#E2E2F0" height="46.5938" style="stroke:#181818;stroke-width:0.5;" width="107.8984" x="910.4395" y="71"/><text fill="#000000" font-family="sans-serif" font-size="14" lengthAdjust="spacing" textLength="93.8984" x="917.4395" y="90.9951">Server Cache</text><text fill="#000000" font-family="sans-serif" font-size="14" lengthAdjust="spacing" textLength="78.8184" x="924.9795" y="107.292">(User data)</text></g><g class="participant participant-tail" data-entity-uid="part5" data-qualified-name="Cache" id="part5-tail"><rect fill="#E2E2F0" height="46.5938" style="stroke:#181818;stroke-width:0.5;" width="107.8984" x="914.4395" y="634.9531"/><rect fill="#E2E2F0" height="46.5938" style="stroke:#181818;stroke-width:0.5;" width="107.8984" x="910.4395" y="638.9531"/><text fill="#000000" font-family="sans-serif" font-size="14" lengthAdjust="spacing" textLength="93.8984" x="917.4395" y="658.9482">Server Cache</text><text fill="#000000" font-family="sans-serif" font-size="14" lengthAdjust="spacing" textLength="78.8184" x="924.9795" y="675.2451">(User data)</text></g><g class="participant participant-head" data-entity-uid="part6" data-qualified-name="Store" id="part6-head"><rect fill="#E2E2F0" height="46.5938" style="stroke:#181818;stroke-width:0.5;" width="193.3408" x="1036.3379" y="67"/><rect fill="#E2E2F0" height="46.5938" style="stroke:#181818;stroke-width:0.5;" width="193.3408" x="1032.3379" y="71"/><text fill="#000000" font-family="sans-serif" font-size="14" lengthAdjust="spacing" textLength="179.3408" x="1039.3379" y="90.9951">Server Persistent Storage</text><text fill="#000000" font-family="sans-serif" font-size="14" lengthAdjust="spacing" textLength="99.8525" x="1079.082" y="107.292">(User records)</text></g><g class="participant participant-tail" data-entity-uid="part6" data-qualified-name="Store" id="part6-tail"><rect fill="#E2E2F0" height="46.5938" style="stroke:#181818;stroke-width:0.5;" width="193.3408" x="1036.3379" y="634.9531"/><rect fill="#E2E2F0" height="46.5938" style="stroke:#181818;stroke-width:0.5;" width="193.3408" x="1032.3379" y="638.9531"/><text fill="#000000" font-family="sans-serif" font-size="14" lengthAdjust="spacing" textLength="179.3408" x="1039.3379" y="658.9482">Server Persistent Storage</text><text fill="#000000" font-family="sans-serif" font-size="14" lengthAdjust="spacing" textLength="99.8525" x="1079.082" y="675.2451">(User records)</text></g><rect fill="#EEEEEE" height="3" style="stroke:#EEEEEE;stroke-width:1;" width="1234.6787" x="0" y="149.1602"/><line style="stroke:#000000;stroke-width:1;" x1="0" x2="1234.6787" y1="149.1602" y2="149.1602"/><line style="stroke:#000000;stroke-width:1;" x1="0" x2="1234.6787" y1="152.1602" y2="152.1602"/><rect fill="#EEEEEE" height="23.1328" style="stroke:#000000;stroke-width:2;" width="131.1206" x="551.7791" y="138.5938"/><text fill="#000000" font-family="sans-serif" font-size="13" font-weight="bold" lengthAdjust="spacing" textLength="112.5947" x="557.7791" y="154.6606">Search for user</text><rect fill="none" height="39.1016" style="stroke:#000000;stroke-width:1.5;" width="1023.3379" x="2" y="171.7266"/><path d="M2,171.7266 L67,171.7266 L67,178.7266 L57,188.7266 L2,188.7266 L2,171.7266" fill="#EEEEEE" style="stroke:#000000;stroke-width:2;"/><text fill="#000000" font-family="sans-serif" font-size="13" font-weight="bold" lengthAdjust="spacing" textLength="20.8838" x="15" y="185.7935">ref</text><text fill="#000000" font-family="sans-serif" font-size="12" lengthAdjust="spacing" textLength="126.2285" x="450.5547" y="203.8652">Searching For A User</text><g class="message" data-entity-1="part1" data-entity-2="part2" id="msg1"><polygon fill="#181818" points="232.0078,232.9609,242.0078,236.9609,232.0078,240.9609,236.0078,236.9609" style="stroke:#181818;stroke-width:1;"/><line style="stroke:#181818;stroke-width:1;" x1="37.9824" x2="238.0078" y1="236.9609" y2="236.9609"/><text fill="#000000" font-family="sans-serif" font-size="13" lengthAdjust="spacing" textLength="73.8677" x="44.9824" y="231.895">Select User</text></g><g class="message" data-entity-1="part2" data-entity-2="part1" id="msg2"><polygon fill="#181818" points="48.9824,262.0938,38.9824,266.0938,48.9824,270.0938,44.9824,266.0938" style="stroke:#181818;stroke-width:1;"/><line style="stroke:#181818;stroke-width:1;stroke-dasharray:2,2;" x1="42.9824" x2="243.0078" y1="266.0938" y2="266.0938"/><text fill="#000000" font-family="sans-serif" font-size="13" lengthAdjust="spacing" textLength="139.5913" x="54.9824" y="261.0278">Display Actions Menu</text></g><rect fill="#EEEEEE" height="3" style="stroke:#EEEEEE;stroke-width:1;" width="1234.6787" x="0" y="294.6602"/><line style="stroke:#000000;stroke-width:1;" x1="0" x2="1234.6787" y1="294.6602" y2="294.6602"/><line style="stroke:#000000;stroke-width:1;" x1="0" x2="1234.6787" y1="297.6602" y2="297.6602"/><rect fill="#EEEEEE" height="23.1328" style="stroke:#000000;stroke-width:2;" width="128.3022" x="553.1882" y="284.0938"/><text fill="#000000" font-family="sans-serif" font-size="13" font-weight="bold" lengthAdjust="spacing" textLength="109.7764" x="559.1882" y="300.1606">Submit change</text><g class="message" data-entity-1="part1" data-entity-2="part2" id="msg3"><polygon fill="#181818" points="232.0078,364.625,242.0078,368.625,232.0078,372.625,236.0078,368.625" style="stroke:#181818;stroke-width:1;"/><line style="stroke:#181818;stroke-width:1;" x1="37.9824" x2="238.0078" y1="368.625" y2="368.625"/><text fill="#000000" font-family="sans-serif" font-size="13" lengthAdjust="spacing" textLength="182.0254" x="44.9824" y="333.2935">Choose "Change Login Info"</text><text fill="#000000" font-family="sans-serif" font-size="13" lengthAdjust="spacing" textLength="130.2095" x="44.9824" y="348.4263">Enter new login info</text><text fill="#000000" font-family="sans-serif" font-size="13" lengthAdjust="spacing" textLength="93.1836" x="44.9824" y="363.5591">Click "Submit"</text></g><g class="message" data-entity-1="part2" data-entity-2="part3" id="msg4"><polygon fill="#181818" points="502.4746,408.8906,512.4746,412.8906,502.4746,416.8906,506.4746,412.8906" style="stroke:#181818;stroke-width:1;"/><line style="stroke:#181818;stroke-width:1;" x1="244.0078" x2="508.4746" y1="412.8906" y2="412.8906"/><text fill="#000000" font-family="sans-serif" font-size="13" lengthAdjust="spacing" textLength="246.4668" x="251.0078" y="392.6919">SubmitLoginInfoChange(targetUserId,</text><text fill="#000000" font-family="sans-serif" font-size="13" lengthAdjust="spacing" textLength="91.8442" x="255.1401" y="407.8247">newLoginInfo)</text></g><g class="message" data-entity-1="part3" data-entity-2="part4" id="msg5"><polygon fill="#181818" points="753.7651,453.1563,763.7651,457.1563,753.7651,461.1563,757.7651,457.1563" style="stroke:#181818;stroke-width:1;"/><line style="stroke:#181818;stroke-width:1;" x1="514.4746" x2="759.7651" y1="457.1563" y2="457.1563"/><text fill="#000000" font-family="sans-serif" font-size="13" lengthAdjust="spacing" textLength="227.2905" x="521.4746" y="436.9575">UpdateUserLoginInfo(targetUserId,</text><text fill="#000000" font-family="sans-serif" font-size="13" lengthAdjust="spacing" textLength="91.8442" x="525.6069" y="452.0903">newLoginInfo)</text></g><g class="message" data-entity-1="part4" data-entity-2="part6" id="msg6"><polygon fill="#181818" points="1119.0083,497.4219,1129.0083,501.4219,1119.0083,505.4219,1123.0083,501.4219" style="stroke:#181818;stroke-width:1;"/><line style="stroke:#181818;stroke-width:1;" x1="765.7651" x2="1125.0083" y1="501.4219" y2="501.4219"/><text fill="#000000" font-family="sans-serif" font-size="13" lengthAdjust="spacing" textLength="157.4092" x="772.7651" y="481.2231">Write updated login info</text><text fill="#000000" font-family="sans-serif" font-size="13" lengthAdjust="spacing" textLength="94.25" x="772.7651" y="496.356">for target user</text></g><g class="message" data-entity-1="part6" data-entity-2="part4" id="msg7"><polygon fill="#181818" points="776.7651,526.5547,766.7651,530.5547,776.7651,534.5547,772.7651,530.5547" style="stroke:#181818;stroke-width:1;"/><line style="stroke:#181818;stroke-width:1;stroke-dasharray:2,2;" x1="770.7651" x2="1130.0083" y1="530.5547" y2="530.5547"/><text fill="#000000" font-family="sans-serif" font-size="13" lengthAdjust="spacing" textLength="92.6313" x="782.7651" y="525.4888">Update stored</text></g><g class="message" data-entity-1="part4" data-entity-2="part5" id="msg8"><polygon fill="#181818" points="954.3887,555.6875,964.3887,559.6875,954.3887,563.6875,958.3887,559.6875" style="stroke:#181818;stroke-width:1;"/><line style="stroke:#181818;stroke-width:1;" x1="765.7651" x2="960.3887" y1="559.6875" y2="559.6875"/><text fill="#000000" font-family="sans-serif" font-size="13" lengthAdjust="spacing" textLength="176.6235" x="772.7651" y="554.6216">Update cached user record</text></g><g class="message" data-entity-1="part4" data-entity-2="part3" id="msg9"><polygon fill="#181818" points="525.4746,584.8203,515.4746,588.8203,525.4746,592.8203,521.4746,588.8203" style="stroke:#181818;stroke-width:1;"/><line style="stroke:#181818;stroke-width:1;stroke-dasharray:2,2;" x1="519.4746" x2="764.7651" y1="588.8203" y2="588.8203"/><text fill="#000000" font-family="sans-serif" font-size="13" lengthAdjust="spacing" textLength="69.9702" x="531.4746" y="583.7544">Update OK</text></g><g class="message" data-entity-1="part3" data-entity-2="part2" id="msg10"><polygon fill="#181818" points="255.0078,613.9531,245.0078,617.9531,255.0078,621.9531,251.0078,617.9531" style="stroke:#181818;stroke-width:1;"/><line style="stroke:#181818;stroke-width:1;" x1="249.0078" x2="513.4746" y1="617.9531" y2="617.9531"/><text fill="#000000" font-family="sans-serif" font-size="13" lengthAdjust="spacing" textLength="176.5981" x="261.0078" y="612.8872">Show success confirmation</text></g><?plantuml-src XLBBQiCm4BphAnQV4d3E1OC3mNrWsj924dhnHPKLMzIHZ2GtvE-xAud4QG-z67bdTZIx8w_y867l95GSFtS5L3tNNIXPU36Tqb3hWu55lGkr9MDSU6EXtWKATv250nAM6ViqaswvFSFJlWvODIYfFVrcJ1ZjhHaWrMRmPXoly5RQxwGSZmGDWnHU6UtGgEZb38s5HY-2ZPPxlhnjsABTcuPtQProdYucZ7UNRYk5iQr30LQMQ8HRqSC1fvq8BKjcvG4CQSJnSneiJmFboNaU7HMfN-aE7b5Y4_R7qjvMQseb3lcCwsQqj1KYaLF0lNBZmC-mIPEyIZr1S3Pz7fK74RD2NxzKgzuOZ3DBOLvpp1hze3qojJp14CeAout64SGNRYW8Pz79EWrMfFk23Ab4sONdjfEUBgxRlD6aUQ7WEqdPeapSIm7x4UEHr73X_IV2KcQaGZaMy66Lbp05gVPc1WegoeMyM0n-zSS0E0BQcNGABC62_jgOUNmH5-fi9udyzZmRD4RQcnEuIGZf7E2ZFYXxv1JW3m00?></g></svg>