<?plantuml 1.2026.2?><svg xmlns="http://www.w3.org/2000/svg" xmlns:xlink="http://www.w3.org/1999/xlink" contentStyleType="text/css" data-diagram-type="SEQUENCE" height="1053px" preserveAspectRatio="none" style="width:1286px;height:1053px;background:#FFFFFF;" version="1.1" viewBox="0 0 1286 1053" width="1286px" zoomAndPan="magnify"><title>Use Case 7: Change User Login Info (IT User)</title><defs/><g><text fill="#000000" font-family="sans-serif" font-size="14" font-weight="bold" lengthAdjust="spacing" textLength="354.2178" x="461.9822" y="27.9951">Use Case 7: Change User Login Info (IT User)</text><rect fill="none" height="162.7969" style="stroke:#000000;stroke-width:1.5;" width="944.9429" x="10" y="353.5234"/><g class="participant-lifeline" data-entity-uid="part1" data-qualified-name="ITUser" id="part1-lifeline"><g><title>User .IT.</title><rect fill="#000000" fill-opacity="0.00000" height="853.9844" width="8" x="48.9824" y="118.5938"/><line style="stroke:#181818;stroke-width:0.5;stroke-dasharray:5,5;" x1="52" x2="52" y1="118.5938" y2="972.5781"/></g></g><g class="participant-lifeline" data-entity-uid="part2" data-qualified-name="GUI" id="part2-lifeline"><g><title>Client GUI</title><rect fill="#000000" fill-opacity="0.00000" height="853.9844" width="8" x="255.0078" y="118.5938"/><line style="stroke:#181818;stroke-width:0.5;stroke-dasharray:5,5;" x1="258.9053" x2="258.9053" y1="118.5938" y2="972.5781"/></g></g><g class="participant-lifeline" data-entity-uid="part3" data-qualified-name="Client" id="part3-lifeline"><g><title>Client App</title><rect fill="#000000" fill-opacity="0.00000" height="853.9844" width="8" x="525.4746" y="118.5938"/><line style="stroke:#181818;stroke-width:0.5;stroke-dasharray:5,5;" x1="529.3091" x2="529.3091" y1="118.5938" y2="972.5781"/></g></g><g class="participant-lifeline" data-entity-uid="part4" data-qualified-name="Server" id="part4-lifeline"><g><title>Server</title><rect fill="#000000" fill-opacity="0.00000" height="853.9844" width="8" x="776.7651" y="118.5938"/><line style="stroke:#181818;stroke-width:0.5;stroke-dasharray:5,5;" x1="779.8101" x2="779.8101" y1="118.5938" y2="972.5781"/></g></g><g class="participant-lifeline" data-entity-uid="part5" data-qualified-name="ClientCache" id="part5-lifeline"><g><title>Client Cache</title><rect fill="#000000" fill-opacity="0.00000" height="853.9844" width="8" x="876.8315" y="118.5938"/><line style="stroke:#181818;stroke-width:0.5;stroke-dasharray:5,5;" x1="880.7202" x2="880.7202" y1="118.5938" y2="972.5781"/></g></g><g class="participant-lifeline" data-entity-uid="part6" data-qualified-name="Cache" id="part6-lifeline"><g><title>Server Cache</title><rect fill="#000000" fill-opacity="0.00000" height="853.9844" width="8" x="1006.8921" y="118.5938"/><line style="stroke:#181818;stroke-width:0.5;stroke-dasharray:5,5;" x1="1009.9429" x2="1009.9429" y1="118.5938" y2="972.5781"/></g></g><g class="participant-lifeline" data-entity-uid="part7" data-qualified-name="Store" id="part7-lifeline"><g><title>Server Persistent Storage</title><rect fill="#000000" fill-opacity="0.00000" height="853.9844" width="8" x="1171.5117" y="118.5938"/><line style="stroke:#181818;stroke-width:0.5;stroke-dasharray:5,5;" x1="1174.8413" x2="1174.8413" y1="118.5938" y2="972.5781"/></g></g><g class="participant participant-head" data-entity-uid="part1" data-qualified-name="ITUser" id="part1-head"><text fill="#000000" font-family="sans-serif" font-size="14" lengthAdjust="spacing" textLength="59.9648" x="20" y="115.292">User (IT)</text><ellipse cx="52.9824" cy="50.7969" fill="#E2E2F0" rx="8" ry="8" style="stroke:#181818;stroke-width:0.5;"/><path d="M52.9824,58.7969 L52.9824,85.7969 M39.9824,66.7969 L65.9824,66.7969 M52.9824,85.7969 L39.9824,100.7969 M52.9824,85.7969 L65.9824,100.7969" fill="none" style="stroke:#181818;stroke-width:0.5;"/></g><g class="participant participant-tail" data-entity-uid="part1" data-qualified-name="ITUser" id="part1-tail"><text fill="#000000" font-family="sans-serif" font-size="14" lengthAdjust="spacing" textLength="59.9648" x="20" y="984.5732">User (IT)</text><ellipse cx="52.9824" cy="996.375" fill="#E2E2F0" rx="8" ry="8" style="stroke:#181818;stroke-width:0.5;"/><path d="M52.9824,1004.375 L52.9824,1031.375 M39.9824,1012.375 L65.9824,1012.375 M52.9824,1031.375 L39.9824,1046.375 M52.9824,1031.375 L65.9824,1046.375" fill="none" style="stroke:#181818;stroke-width:0.5;"/></g><g class="participant participant-head" data-entity-uid="part2" data-qualified-name="GUI" id="part2-head"><text fill="#000000" font-family="sans-serif" font-size="14" lengthAdjust="spacing" textLength="70.2051" x="220.9053" y="115.292">Client GUI</text><path d="M238.5078,74.2969 L238.5078,98.2969 M238.5078,86.2969 L255.5078,86.2969" fill="none" style="stroke:#181818;stroke-width:0.5;"/><ellipse cx="267.5078" cy="86.2969" fill="#E2E2F0" rx="12" ry="12" style="stroke:#181818;stroke-width:0.5;"/></g><g class="participant participant-tail" data-entity-uid="part2" data-qualified-name="GUI" id="part2-tail"><text fill="#000000" font-family="sans-serif" font-size="14" lengthAdjust="spacing" textLength="70.2051" x="220.9053" y="984.5732">Client GUI</text><path d="M238.5078,991.875 L238.5078,1015.875 M238.5078,1003.875 L255.5078,1003.875" fill="none" style="stroke:#181818;stroke-width:0.5;"/><ellipse cx="267.5078" cy="1003.875" fill="#E2E2F0" rx="12" ry="12" style="stroke:#181818;stroke-width:0.5;"/></g><g class="participant participant-head" data-entity-uid="part3" data-qualified-name="Client" id="part3-head"><text fill="#000000" font-family="sans-serif" font-size="14" lengthAdjust="spacing" textLength="72.3311" x="490.3091" y="115.292">Client App</text><ellipse cx="529.4746" cy="86.2969" fill="#E2E2F0" rx="12" ry="12" style="stroke:#181818;stroke-width:0.5;"/><polygon fill="#181818" points="525.4746,74.2969,531.4746,69.2969,529.4746,74.2969,531.4746,79.2969,525.4746,74.2969" style="stroke:#181818;stroke-width:1;"/></g><g class="participant participant-tail" data-entity-uid="part3" data-qualified-name="Client" id="part3-tail"><text fill="#000000" font-family="sans-serif" font-size="14" lengthAdjust="spacing" textLength="72.3311" x="490.3091" y="984.5732">Client App</text><ellipse cx="529.4746" cy="1003.875" fill="#E2E2F0" rx="12" ry="12" style="stroke:#181818;stroke-width:0.5;"/><polygon fill="#181818" points="525.4746,991.875,531.4746,986.875,529.4746,991.875,531.4746,996.875,525.4746,991.875" style="stroke:#181818;stroke-width:1;"/></g><g class="participant participant-head" data-entity-uid="part4" data-qualified-name="Server" id="part4-head"><text fill="#000000" font-family="sans-serif" font-size="14" lengthAdjust="spacing" textLength="45.9102" x="754.8101" y="115.292">Server</text><ellipse cx="780.7651" cy="86.2969" fill="#E2E2F0" rx="12" ry="12" style="stroke:#181818;stroke-width:0.5;"/><polygon fill="#181818" points="776.7651,74.2969,782.7651,69.2969,780.7651,74.2969,782.7651,79.2969,776.7651,74.2969" style="stroke:#181818;stroke-width:1;"/></g><g class="participant participant-tail" data-entity-uid="part4" data-qualified-name="Server" id="part4-tail"><text fill="#000000" font-family="sans-serif" font-size="14" lengthAdjust="spacing" textLength="45.9102" x="754.8101" y="984.5732">Server</text><ellipse cx="780.7651" cy="1003.875" fill="#E2E2F0" rx="12" ry="12" style="stroke:#181818;stroke-width:0.5;"/><polygon fill="#181818" points="776.7651,991.875,782.7651,986.875,780.7651,991.875,782.7651,996.875,776.7651,991.875" style="stroke:#181818;stroke-width:1;"/></g><g class="participant participant-head" data-entity-uid="part5" data-qualified-name="ClientCache" id="part5-head"><rect fill="#E2E2F0" height="46.5938" style="stroke:#181818;stroke-width:0.5;" width="124.2227" x="820.7202" y="67"/><rect fill="#E2E2F0" height="46.5938" style="stroke:#181818;stroke-width:0.5;" width="124.2227" x="816.7202" y="71"/><text fill="#000000" font-family="sans-serif" font-size="14" lengthAdjust="spacing" textLength="88.5186" x="834.5723" y="90.9951">Client Cache</text><text fill="#000000" font-family="sans-serif" font-size="14" lengthAdjust="spacing" textLength="110.2227" x="823.7202" y="107.292">(User directory)</text></g><g class="participant participant-tail" data-entity-uid="part5" data-qualified-name="ClientCache" id="part5-tail"><rect fill="#E2E2F0" height="46.5938" style="stroke:#181818;stroke-width:0.5;" width="124.2227" x="820.7202" y="971.5781"/><rect fill="#E2E2F0" height="46.5938" style="stroke:#181818;stroke-width:0.5;" width="124.2227" x="816.7202" y="975.5781"/><text fill="#000000" font-family="sans-serif" font-size="14" lengthAdjust="spacing" textLength="88.5186" x="834.5723" y="995.5732">Client Cache</text><text fill="#000000" font-family="sans-serif" font-size="14" lengthAdjust="spacing" textLength="110.2227" x="823.7202" y="1011.8701">(User directory)</text></g><g class="participant participant-head" data-entity-uid="part6" data-qualified-name="Cache" id="part6-head"><rect fill="#E2E2F0" height="46.5938" style="stroke:#181818;stroke-width:0.5;" width="107.8984" x="958.9429" y="67"/><rect fill="#E2E2F0" height="46.5938" style="stroke:#181818;stroke-width:0.5;" width="107.8984" x="954.9429" y="71"/><text fill="#000000" font-family="sans-serif" font-size="14" lengthAdjust="spacing" textLength="93.8984" x="961.9429" y="90.9951">Server Cache</text><text fill="#000000" font-family="sans-serif" font-size="14" lengthAdjust="spacing" textLength="78.8184" x="969.4829" y="107.292">(User data)</text></g><g class="participant participant-tail" data-entity-uid="part6" data-qualified-name="Cache" id="part6-tail"><rect fill="#E2E2F0" height="46.5938" style="stroke:#181818;stroke-width:0.5;" width="107.8984" x="958.9429" y="971.5781"/><rect fill="#E2E2F0" height="46.5938" style="stroke:#181818;stroke-width:0.5;" width="107.8984" x="954.9429" y="975.5781"/><text fill="#000000" font-family="sans-serif" font-size="14" lengthAdjust="spacing" textLength="93.8984" x="961.9429" y="995.5732">Server Cache</text><text fill="#000000" font-family="sans-serif" font-size="14" lengthAdjust="spacing" textLength="78.8184" x="969.4829" y="1011.8701">(User data)</text></g><g class="participant participant-head" data-entity-uid="part7" data-qualified-name="Store" id="part7-head"><rect fill="#E2E2F0" height="46.5938" style="stroke:#181818;stroke-width:0.5;" width="193.3408" x="1080.8413" y="67"/><rect fill="#E2E2F0" height="46.5938" style="stroke:#181818;stroke-width:0.5;" width="193.3408" x="1076.8413" y="71"/><text fill="#000000" font-family="sans-serif" font-size="14" lengthAdjust="spacing" textLength="179.3408" x="1083.8413" y="90.9951">Server Persistent Storage</text><text fill="#000000" font-family="sans-serif" font-size="14" lengthAdjust="spacing" textLength="99.8525" x="1123.5854" y="107.292">(User records)</text></g><g class="participant participant-tail" data-entity-uid="part7" data-qualified-name="Store" id="part7-tail"><rect fill="#E2E2F0" height="46.5938" style="stroke:#181818;stroke-width:0.5;" width="193.3408" x="1080.8413" y="971.5781"/><rect fill="#E2E2F0" height="46.5938" style="stroke:#181818;stroke-width:0.5;" width="193.3408" x="1076.8413" y="975.5781"/><text fill="#000000" font-family="sans-serif" font-size="14" lengthAdjust="spacing" textLength="179.3408" x="1083.8413" y="995.5732">Server Persistent Storage</text><text fill="#000000" font-family="sans-serif" font-size="14" lengthAdjust="spacing" textLength="99.8525" x="1123.5854" y="1011.8701">(User records)</text></g><rect fill="#EEEEEE" height="3" style="stroke:#EEEEEE;stroke-width:1;" width="1279.1821" x="0" y="149.1602"/><line style="stroke:#000000;stroke-width:1;" x1="0" x2="1279.1821" y1="149.1602" y2="149.1602"/><line style="stroke:#000000;stroke-width:1;" x1="0" x2="1279.1821" y1="152.1602" y2="152.1602"/><rect fill="#EEEEEE" height="23.1328" style="stroke:#000000;stroke-width:2;" width="131.1206" x="574.0308" y="138.5938"/><text fill="#000000" font-family="sans-serif" font-size="13" font-weight="bold" lengthAdjust="spacing" textLength="112.5947" x="580.0308" y="154.6606">Search for user</text><g class="message" data-entity-1="part1" data-entity-2="part2" id="msg1"><polygon fill="#181818" points="247.0078,188.8594,257.0078,192.8594,247.0078,196.8594,251.0078,192.8594" style="stroke:#181818;stroke-width:1;"/><line style="stroke:#181818;stroke-width:1;" x1="52.9824" x2="253.0078" y1="192.8594" y2="192.8594"/><text fill="#000000" font-family="sans-serif" font-size="13" lengthAdjust="spacing" textLength="177.0679" x="59.9824" y="187.7935">Navigate to "Search Users"</text></g><g class="message" data-entity-1="part2" data-entity-2="part3" id="msg2"><polygon fill="#181818" points="517.4746,217.9922,527.4746,221.9922,517.4746,225.9922,521.4746,221.9922" style="stroke:#181818;stroke-width:1;"/><line style="stroke:#181818;stroke-width:1;" x1="259.0078" x2="523.4746" y1="221.9922" y2="221.9922"/><text fill="#000000" font-family="sans-serif" font-size="13" lengthAdjust="spacing" textLength="148.4526" x="266.0078" y="216.9263">Request user directory</text></g><g class="message" data-entity-1="part3" data-entity-2="part4" id="msg3"><polygon fill="#181818" points="768.7651,247.125,778.7651,251.125,768.7651,255.125,772.7651,251.125" style="stroke:#181818;stroke-width:1;"/><line style="stroke:#181818;stroke-width:1;" x1="529.4746" x2="774.7651" y1="251.125" y2="251.125"/><text fill="#000000" font-family="sans-serif" font-size="13" lengthAdjust="spacing" textLength="85.833" x="536.4746" y="246.0591">GetAllUsers()</text></g><g class="message" data-entity-1="part4" data-entity-2="part3" id="msg4"><polygon fill="#181818" points="540.4746,276.2578,530.4746,280.2578,540.4746,284.2578,536.4746,280.2578" style="stroke:#181818;stroke-width:1;"/><line style="stroke:#181818;stroke-width:1;stroke-dasharray:2,2;" x1="534.4746" x2="779.7651" y1="280.2578" y2="280.2578"/><text fill="#000000" font-family="sans-serif" font-size="13" lengthAdjust="spacing" textLength="52.8569" x="546.4746" y="275.1919">User list</text></g><g class="message" data-entity-1="part3" data-entity-2="part5" id="msg5"><polygon fill="#181818" points="868.8315,305.3906,878.8315,309.3906,868.8315,313.3906,872.8315,309.3906" style="stroke:#181818;stroke-width:1;"/><line style="stroke:#181818;stroke-width:1;" x1="529.4746" x2="874.8315" y1="309.3906" y2="309.3906"/><text fill="#000000" font-family="sans-serif" font-size="13" lengthAdjust="spacing" textLength="96.1416" x="536.4746" y="304.3247">Cache user list</text></g><g class="message" data-entity-1="part3" data-entity-2="part2" id="msg6"><polygon fill="#181818" points="270.0078,334.5234,260.0078,338.5234,270.0078,342.5234,266.0078,338.5234" style="stroke:#181818;stroke-width:1;"/><line style="stroke:#181818;stroke-width:1;stroke-dasharray:2,2;" x1="264.0078" x2="528.4746" y1="338.5234" y2="338.5234"/><text fill="#000000" font-family="sans-serif" font-size="13" lengthAdjust="spacing" textLength="176.7061" x="276.0078" y="333.4575">Provide user list for display</text></g><path d="M10,353.5234 L86.624,353.5234 L86.624,360.6563 L76.624,370.6563 L10,370.6563 L10,353.5234" fill="#EEEEEE" style="stroke:#000000;stroke-width:1.5;"/><rect fill="none" height="162.7969" style="stroke:#000000;stroke-width:1.5;" width="944.9429" x="10" y="353.5234"/><text fill="#000000" font-family="sans-serif" font-size="13" font-weight="bold" lengthAdjust="spacing" textLength="31.624" x="25" y="366.5903">loop</text><text fill="#000000" font-family="sans-serif" font-size="11" font-weight="bold" lengthAdjust="spacing" textLength="129.6797" x="101.624" y="365.7339">[While IT user types]</text><g class="message" data-entity-1="part1" data-entity-2="part2" id="msg7"><polygon fill="#181818" points="247.0078,387.7891,257.0078,391.7891,247.0078,395.7891,251.0078,391.7891" style="stroke:#181818;stroke-width:1;"/><line style="stroke:#181818;stroke-width:1;" x1="52.9824" x2="253.0078" y1="391.7891" y2="391.7891"/><text fill="#000000" font-family="sans-serif" font-size="13" lengthAdjust="spacing" textLength="172.9673" x="59.9824" y="386.7231">Type in search bar (query)</text></g><g class="message" data-entity-1="part2" data-entity-2="part3" id="msg8"><polygon fill="#181818" points="517.4746,416.9219,527.4746,420.9219,517.4746,424.9219,521.4746,420.9219" style="stroke:#181818;stroke-width:1;"/><line style="stroke:#181818;stroke-width:1;" x1="259.0078" x2="523.4746" y1="420.9219" y2="420.9219"/><text fill="#000000" font-family="sans-serif" font-size="13" lengthAdjust="spacing" textLength="171.4248" x="266.0078" y="415.856">FindMatchingUsers(query)</text></g><g class="message" data-entity-1="part3" data-entity-2="part5" id="msg9"><polygon fill="#181818" points="868.8315,446.0547,878.8315,450.0547,868.8315,454.0547,872.8315,450.0547" style="stroke:#181818;stroke-width:1;"/><line style="stroke:#181818;stroke-width:1;" x1="529.4746" x2="874.8315" y1="450.0547" y2="450.0547"/><text fill="#000000" font-family="sans-serif" font-size="13" lengthAdjust="spacing" textLength="88.8545" x="536.4746" y="444.9888">Filter user list</text></g><g class="message" data-entity-1="part5" data-entity-2="part3" id="msg10"><polygon fill="#181818" points="540.4746,475.1875,530.4746,479.1875,540.4746,483.1875,536.4746,479.1875" style="stroke:#181818;stroke-width:1;"/><line style="stroke:#181818;stroke-width:1;stroke-dasharray:2,2;" x1="534.4746" x2="879.8315" y1="479.1875" y2="479.1875"/><text fill="#000000" font-family="sans-serif" font-size="13" lengthAdjust="spacing" textLength="99.0298" x="546.4746" y="474.1216">Matching users</text></g><g class="message" data-entity-1="part3" data-entity-2="part2" id="msg11"><polygon fill="#181818" points="270.0078,504.3203,260.0078,508.3203,270.0078,512.3203,266.0078,508.3203" style="stroke:#181818;stroke-width:1;"/><line style="stroke:#181818;stroke-width:1;stroke-dasharray:2,2;" x1="264.0078" x2="528.4746" y1="508.3203" y2="508.3203"/><text fill="#000000" font-family="sans-serif" font-size="13" lengthAdjust="spacing" textLength="152.5278" x="276.0078" y="503.2544">Display matching users</text></g><g class="message" data-entity-1="part1" data-entity-2="part2" id="msg12"><polygon fill="#181818" points="247.0078,540.4531,257.0078,544.4531,247.0078,548.4531,251.0078,544.4531" style="stroke:#181818;stroke-width:1;"/><line style="stroke:#181818;stroke-width:1;" x1="52.9824" x2="253.0078" y1="544.4531" y2="544.4531"/><text fill="#000000" font-family="sans-serif" font-size="13" lengthAdjust="spacing" textLength="116.4795" x="59.9824" y="539.3872">Select target user</text></g><g class="message" data-entity-1="part2" data-entity-2="part3" id="msg13"><polygon fill="#181818" points="517.4746,569.5859,527.4746,573.5859,517.4746,577.5859,521.4746,573.5859" style="stroke:#181818;stroke-width:1;"/><line style="stroke:#181818;stroke-width:1;" x1="259.0078" x2="523.4746" y1="573.5859" y2="573.5859"/><text fill="#000000" font-family="sans-serif" font-size="13" lengthAdjust="spacing" textLength="213.8779" x="266.0078" y="568.52">Open user actions (targetUserId)</text></g><g class="message" data-entity-1="part3" data-entity-2="part2" id="msg14"><polygon fill="#181818" points="270.0078,598.7188,260.0078,602.7188,270.0078,606.7188,266.0078,602.7188" style="stroke:#181818;stroke-width:1;"/><line style="stroke:#181818;stroke-width:1;stroke-dasharray:2,2;" x1="264.0078" x2="528.4746" y1="602.7188" y2="602.7188"/><text fill="#000000" font-family="sans-serif" font-size="13" lengthAdjust="spacing" textLength="227.189" x="276.0078" y="597.6528">Display "Change Login Info" option</text></g><rect fill="#EEEEEE" height="3" style="stroke:#EEEEEE;stroke-width:1;" width="1279.1821" x="0" y="631.2852"/><line style="stroke:#000000;stroke-width:1;" x1="0" x2="1279.1821" y1="631.2852" y2="631.2852"/><line style="stroke:#000000;stroke-width:1;" x1="0" x2="1279.1821" y1="634.2852" y2="634.2852"/><rect fill="#EEEEEE" height="23.1328" style="stroke:#000000;stroke-width:2;" width="128.3022" x="575.4399" y="620.7188"/><text fill="#000000" font-family="sans-serif" font-size="13" font-weight="bold" lengthAdjust="spacing" textLength="109.7764" x="581.4399" y="636.7856">Submit change</text><g class="message" data-entity-1="part1" data-entity-2="part2" id="msg15"><polygon fill="#181818" points="247.0078,701.25,257.0078,705.25,247.0078,709.25,251.0078,705.25" style="stroke:#181818;stroke-width:1;"/><line style="stroke:#181818;stroke-width:1;" x1="52.9824" x2="253.0078" y1="705.25" y2="705.25"/><text fill="#000000" font-family="sans-serif" font-size="13" lengthAdjust="spacing" textLength="182.0254" x="59.9824" y="669.9185">Choose "Change Login Info"</text><text fill="#000000" font-family="sans-serif" font-size="13" lengthAdjust="spacing" textLength="130.2095" x="59.9824" y="685.0513">Enter new login info</text><text fill="#000000" font-family="sans-serif" font-size="13" lengthAdjust="spacing" textLength="93.1836" x="59.9824" y="700.1841">Click "Submit"</text></g><g class="message" data-entity-1="part2" data-entity-2="part3" id="msg16"><polygon fill="#181818" points="517.4746,745.5156,527.4746,749.5156,517.4746,753.5156,521.4746,749.5156" style="stroke:#181818;stroke-width:1;"/><line style="stroke:#181818;stroke-width:1;" x1="259.0078" x2="523.4746" y1="749.5156" y2="749.5156"/><text fill="#000000" font-family="sans-serif" font-size="13" lengthAdjust="spacing" textLength="246.4668" x="266.0078" y="729.3169">SubmitLoginInfoChange(targetUserId,</text><text fill="#000000" font-family="sans-serif" font-size="13" lengthAdjust="spacing" textLength="91.8442" x="270.1401" y="744.4497">newLoginInfo)</text></g><g class="message" data-entity-1="part3" data-entity-2="part4" id="msg17"><polygon fill="#181818" points="768.7651,789.7813,778.7651,793.7813,768.7651,797.7813,772.7651,793.7813" style="stroke:#181818;stroke-width:1;"/><line style="stroke:#181818;stroke-width:1;" x1="529.4746" x2="774.7651" y1="793.7813" y2="793.7813"/><text fill="#000000" font-family="sans-serif" font-size="13" lengthAdjust="spacing" textLength="227.2905" x="536.4746" y="773.5825">UpdateUserLoginInfo(targetUserId,</text><text fill="#000000" font-family="sans-serif" font-size="13" lengthAdjust="spacing" textLength="91.8442" x="540.6069" y="788.7153">newLoginInfo)</text></g><g class="message" data-entity-1="part4" data-entity-2="part7" id="msg18"><polygon fill="#181818" points="1163.5117,834.0469,1173.5117,838.0469,1163.5117,842.0469,1167.5117,838.0469" style="stroke:#181818;stroke-width:1;"/><line style="stroke:#181818;stroke-width:1;" x1="780.7651" x2="1169.5117" y1="838.0469" y2="838.0469"/><text fill="#000000" font-family="sans-serif" font-size="13" lengthAdjust="spacing" textLength="157.4092" x="787.7651" y="817.8481">Write updated login info</text><text fill="#000000" font-family="sans-serif" font-size="13" lengthAdjust="spacing" textLength="94.25" x="787.7651" y="832.981">for target user</text></g><g class="message" data-entity-1="part7" data-entity-2="part4" id="msg19"><polygon fill="#181818" points="791.7651,863.1797,781.7651,867.1797,791.7651,871.1797,787.7651,867.1797" style="stroke:#181818;stroke-width:1;"/><line style="stroke:#181818;stroke-width:1;stroke-dasharray:2,2;" x1="785.7651" x2="1174.5117" y1="867.1797" y2="867.1797"/><text fill="#000000" font-family="sans-serif" font-size="13" lengthAdjust="spacing" textLength="92.6313" x="797.7651" y="862.1138">Update stored</text></g><g class="message" data-entity-1="part4" data-entity-2="part6" id="msg20"><polygon fill="#181818" points="998.8921,892.3125,1008.8921,896.3125,998.8921,900.3125,1002.8921,896.3125" style="stroke:#181818;stroke-width:1;"/><line style="stroke:#181818;stroke-width:1;" x1="780.7651" x2="1004.8921" y1="896.3125" y2="896.3125"/><text fill="#000000" font-family="sans-serif" font-size="13" lengthAdjust="spacing" textLength="176.6235" x="787.7651" y="891.2466">Update cached user record</text></g><g class="message" data-entity-1="part4" data-entity-2="part3" id="msg21"><polygon fill="#181818" points="540.4746,921.4453,530.4746,925.4453,540.4746,929.4453,536.4746,925.4453" style="stroke:#181818;stroke-width:1;"/><line style="stroke:#181818;stroke-width:1;stroke-dasharray:2,2;" x1="534.4746" x2="779.7651" y1="925.4453" y2="925.4453"/><text fill="#000000" font-family="sans-serif" font-size="13" lengthAdjust="spacing" textLength="69.9702" x="546.4746" y="920.3794">Update OK</text></g><g class="message" data-entity-1="part3" data-entity-2="part2" id="msg22"><polygon fill="#181818" points="270.0078,950.5781,260.0078,954.5781,270.0078,958.5781,266.0078,954.5781" style="stroke:#181818;stroke-width:1;"/><line style="stroke:#181818;stroke-width:1;" x1="264.0078" x2="528.4746" y1="954.5781" y2="954.5781"/><text fill="#000000" font-family="sans-serif" font-size="13" lengthAdjust="spacing" textLength="176.5981" x="276.0078" y="949.5122">Show success confirmation</text></g><?plantuml-src XLHDRzim3BthLn0-9S1o7c0W1OfiBO9rQx4aw2KNHL9ieQhaINAA_FjH7t5bfqKlXaq-Fl5HZ_RIAm4x9s15yV6zXbLBTHD35XvC8pMizT70RBsDiJaXb7bZORsD4EgWYYy8c5VaO7hDgJt3_MuTSoibXVRXioBCQ6-DWXmhqhTTzvxU27lApEarf9GIp4kZNQvUKTQAaY86zdeMc-7IYj3bUJwf7Qho8UCgwkcaO8Caeu8dOPrqFfmOShGPgl54Oxb30h9SeWXgMGj7d5GViiiboHDRt8HfrF27dcH3lG1l0dk41u2hI1WUmfAo6lwAVxrmFX4DqaWMZi3KMmttmjyg5KbcSv8xNXHCiG65_HV5nJphFA3-2dPf-icQa-G58YhaqdMAdWbHndJmt4hq5FebWlov4uu0JDHlCGneBfU47oWw25NYZI5selzEQlwRUjPAtIHn0_8J6NTIUM4B7J2oJJcI2t44kuBoqkcF90vUnq2XEPbUwKO4uu2djX7fkgPN-TW9dTgYsM6pX0uyQpuddvrUvRryNyaAJ1Seajtwmwlqm1BescohrXZSxmzOzlgd3hFIuWrK34iCxpKsmbxGc97uof8f76a2Iw8TIVcsru5pWE2FuzgmkmvtJeI20VSLoM3hcxISDJnRYLlKHoe-qX2yMLv6skR5LGFWGe8NrDb7ESt25q_tbjRym-LAuCTVXT1aYzQyWUiP4yu1_kMEqgAPyEh-0m00?></g></svg>