<?plantuml 1.2026.2?><svg xmlns="http://www.w3.org/2000/svg" xmlns:xlink="http://www.w3.org/1999/xlink" contentStyleType="text/css" data-diagram-type="SEQUENCE" height="788px" preserveAspectRatio="none" style="width:1084px;height:788px;background:#FFFFFF;" version="1.1" viewBox="0 0 1084 788" width="1084px" zoomAndPan="magnify"><title>Use Case 8: User Account Creation (IT User)</title><defs/><g><text fill="#000000" font-family="sans-serif" font-size="14" font-weight="bold" lengthAdjust="spacing" textLength="346.835" x="364.8984" y="27.9951">Use Case 8: User Account Creation (IT User)</text><rect fill="none" height="293.1328" style="stroke:#000000;stroke-width:1.5;" width="829.8701" x="237.7617" y="397.7891"/><g class="participant-lifeline" data-entity-uid="part1" data-qualified-name="ITUser" id="part1-lifeline"><g><title>User .IT.</title><rect fill="#000000" fill-opacity="0.00000" height="589.3281" width="8" x="33.9824" y="118.5938"/><line style="stroke:#181818;stroke-width:0.5;stroke-dasharray:5,5;" x1="37" x2="37" y1="118.5938" y2="707.9219"/></g></g><g class="participant-lifeline" data-entity-uid="part2" data-qualified-name="GUI" id="part2-lifeline"><g><title>Client GUI</title><rect fill="#000000" fill-opacity="0.00000" height="589.3281" width="8" x="281.8643" y="118.5938"/><line style="stroke:#181818;stroke-width:0.5;stroke-dasharray:5,5;" x1="285.7617" x2="285.7617" y1="118.5938" y2="707.9219"/></g></g><g class="participant-lifeline" data-entity-uid="part3" data-qualified-name="Client" id="part3-lifeline"><g><title>Client App</title><rect fill="#000000" fill-opacity="0.00000" height="589.3281" width="8" x="482.4624" y="118.5938"/><line style="stroke:#181818;stroke-width:0.5;stroke-dasharray:5,5;" x1="486.2969" x2="486.2969" y1="118.5938" y2="707.9219"/></g></g><g class="participant-lifeline" data-entity-uid="part4" data-qualified-name="Server" id="part4-lifeline"><g><title>Server</title><rect fill="#000000" fill-opacity="0.00000" height="589.3281" width="8" x="648.6436" y="118.5938"/><line style="stroke:#181818;stroke-width:0.5;stroke-dasharray:5,5;" x1="651.6885" x2="651.6885" y1="118.5938" y2="707.9219"/></g></g><g class="participant-lifeline" data-entity-uid="part5" data-qualified-name="Cache" id="part5-lifeline"><g><title>Server Cache</title><rect fill="#000000" fill-opacity="0.00000" height="589.3281" width="8" x="790.3418" y="118.5938"/><line style="stroke:#181818;stroke-width:0.5;stroke-dasharray:5,5;" x1="793.3926" x2="793.3926" y1="118.5938" y2="707.9219"/></g></g><g class="participant-lifeline" data-entity-uid="part6" data-qualified-name="Store" id="part6-lifeline"><g><title>Server Persistent Storage</title><rect fill="#000000" fill-opacity="0.00000" height="589.3281" width="8" x="954.9614" y="118.5938"/><line style="stroke:#181818;stroke-width:0.5;stroke-dasharray:5,5;" x1="958.291" x2="958.291" y1="118.5938" y2="707.9219"/></g></g><g class="participant participant-head" data-entity-uid="part1" data-qualified-name="ITUser" id="part1-head"><text fill="#000000" font-family="sans-serif" font-size="14" lengthAdjust="spacing" textLength="59.9648" x="5" y="115.292">User (IT)</text><ellipse cx="37.9824" cy="50.7969" fill="#E2E2F0" rx="8" ry="8" style="stroke:#181818;stroke-width:0.5;"/><path d="M37.9824,58.7969 L37.9824,85.7969 M24.9824,66.7969 L50.9824,66.7969 M37.9824,85.7969 L24.9824,100.7969 M37.9824,85.7969 L50.9824,100.7969" fill="none" style="stroke:#181818;stroke-width:0.5;"/></g><g class="participant participant-tail" data-entity-uid="part1" data-qualified-name="ITUser" id="part1-tail"><text fill="#000000" font-family="sans-serif" font-size="14" lengthAdjust="spacing" textLength="59.9648" x="5" y="719.917">User (IT)</text><ellipse cx="37.9824" cy="731.7188" fill="#E2E2F0" rx="8" ry="8" style="stroke:#181818;stroke-width:0.5;"/><path d="M37.9824,739.7188 L37.9824,766.7188 M24.9824,747.7188 L50.9824,747.7188 M37.9824,766.7188 L24.9824,781.7188 M37.9824,766.7188 L50.9824,781.7188" fill="none" style="stroke:#181818;stroke-width:0.5;"/></g><g class="participant participant-head" data-entity-uid="part2" data-qualified-name="GUI" id="part2-head"><text fill="#000000" font-family="sans-serif" font-size="14" lengthAdjust="spacing" textLength="70.2051" x="247.7617" y="115.292">Client GUI</text><path d="M265.3643,74.2969 L265.3643,98.2969 M265.3643,86.2969 L282.3643,86.2969" fill="none" style="stroke:#181818;stroke-width:0.5;"/><ellipse cx="294.3643" cy="86.2969" fill="#E2E2F0" rx="12" ry="12" style="stroke:#181818;stroke-width:0.5;"/></g><g class="participant participant-tail" data-entity-uid="part2" data-qualified-name="GUI" id="part2-tail"><text fill="#000000" font-family="sans-serif" font-size="14" lengthAdjust="spacing" textLength="70.2051" x="247.7617" y="719.917">Client GUI</text><path d="M265.3643,727.2188 L265.3643,751.2188 M265.3643,739.2188 L282.3643,739.2188" fill="none" style="stroke:#181818;stroke-width:0.5;"/><ellipse cx="294.3643" cy="739.2188" fill="#E2E2F0" rx="12" ry="12" style="stroke:#181818;stroke-width:0.5;"/></g><g class="participant participant-head" data-entity-uid="part3" data-qualified-name="Client" id="part3-head"><text fill="#000000" font-family="sans-serif" font-size="14" lengthAdjust="spacing" textLength="72.3311" x="447.2969" y="115.292">Client App</text><ellipse cx="486.4624" cy="86.2969" fill="#E2E2F0" rx="12" ry="12" style="stroke:#181818;stroke-width:0.5;"/><polygon fill="#181818" points="482.4624,74.2969,488.4624,69.2969,486.4624,74.2969,488.4624,79.2969,482.4624,74.2969" style="stroke:#181818;stroke-width:1;"/></g><g class="participant participant-tail" data-entity-uid="part3" data-qualified-name="Client" id="part3-tail"><text fill="#000000" font-family="sans-serif" font-size="14" lengthAdjust="spacing" textLength="72.3311" x="447.2969" y="719.917">Client App</text><ellipse cx="486.4624" cy="739.2188" fill="#E2E2F0" rx="12" ry="12" style="stroke:#181818;stroke-width:0.5;"/><polygon fill="#181818" points="482.4624,727.2188,488.4624,722.2188,486.4624,727.2188,488.4624,732.2188,482.4624,727.2188" style="stroke:#181818;stroke-width:1;"/></g><g class="participant participant-head" data-entity-uid="part4" data-qualified-name="Server" id="part4-head"><text fill="#000000" font-family="sans-serif" font-size="14" lengthAdjust="spacing" textLength="45.9102" x="626.6885" y="115.292">Server</text><ellipse cx="652.6436" cy="86.2969" fill="#E2E2F0" rx="12" ry="12" style="stroke:#181818;stroke-width:0.5;"/><polygon fill="#181818" points="648.6436,74.2969,654.6436,69.2969,652.6436,74.2969,654.6436,79.2969,648.6436,74.2969" style="stroke:#181818;stroke-width:1;"/></g><g class="participant participant-tail" data-entity-uid="part4" data-qualified-name="Server" id="part4-tail"><text fill="#000000" font-family="sans-serif" font-size="14" lengthAdjust="spacing" textLength="45.9102" x="626.6885" y="719.917">Server</text><ellipse cx="652.6436" cy="739.2188" fill="#E2E2F0" rx="12" ry="12" style="stroke:#181818;stroke-width:0.5;"/><polygon fill="#181818" points="648.6436,727.2188,654.6436,722.2188,652.6436,727.2188,654.6436,732.2188,648.6436,727.2188" style="stroke:#181818;stroke-width:1;"/></g><g class="participant participant-head" data-entity-uid="part5" data-qualified-name="Cache" id="part5-head"><rect fill="#E2E2F0" height="46.5938" style="stroke:#181818;stroke-width:0.5;" width="107.8984" x="742.3926" y="67"/><rect fill="#E2E2F0" height="46.5938" style="stroke:#181818;stroke-width:0.5;" width="107.8984" x="738.3926" y="71"/><text fill="#000000" font-family="sans-serif" font-size="14" lengthAdjust="spacing" textLength="93.8984" x="745.3926" y="90.9951">Server Cache</text><text fill="#000000" font-family="sans-serif" font-size="14" lengthAdjust="spacing" textLength="78.8184" x="752.9326" y="107.292">(User data)</text></g><g class="participant participant-tail" data-entity-uid="part5" data-qualified-name="Cache" id="part5-tail"><rect fill="#E2E2F0" height="46.5938" style="stroke:#181818;stroke-width:0.5;" width="107.8984" x="742.3926" y="706.9219"/><rect fill="#E2E2F0" height="46.5938" style="stroke:#181818;stroke-width:0.5;" width="107.8984" x="738.3926" y="710.9219"/><text fill="#000000" font-family="sans-serif" font-size="14" lengthAdjust="spacing" textLength="93.8984" x="745.3926" y="730.917">Server Cache</text><text fill="#000000" font-family="sans-serif" font-size="14" lengthAdjust="spacing" textLength="78.8184" x="752.9326" y="747.2139">(User data)</text></g><g class="participant participant-head" data-entity-uid="part6" data-qualified-name="Store" id="part6-head"><rect fill="#E2E2F0" height="46.5938" style="stroke:#181818;stroke-width:0.5;" width="193.3408" x="864.291" y="67"/><rect fill="#E2E2F0" height="46.5938" style="stroke:#181818;stroke-width:0.5;" width="193.3408" x="860.291" y="71"/><text fill="#000000" font-family="sans-serif" font-size="14" lengthAdjust="spacing" textLength="179.3408" x="867.291" y="90.9951">Server Persistent Storage</text><text fill="#000000" font-family="sans-serif" font-size="14" lengthAdjust="spacing" textLength="99.8525" x="907.0352" y="107.292">(User records)</text></g><g class="participant participant-tail" data-entity-uid="part6" data-qualified-name="Store" id="part6-tail"><rect fill="#E2E2F0" height="46.5938" style="stroke:#181818;stroke-width:0.5;" width="193.3408" x="864.291" y="706.9219"/><rect fill="#E2E2F0" height="46.5938" style="stroke:#181818;stroke-width:0.5;" width="193.3408" x="860.291" y="710.9219"/><text fill="#000000" font-family="sans-serif" font-size="14" lengthAdjust="spacing" textLength="179.3408" x="867.291" y="730.917">Server Persistent Storage</text><text fill="#000000" font-family="sans-serif" font-size="14" lengthAdjust="spacing" textLength="99.8525" x="907.0352" y="747.2139">(User records)</text></g><rect fill="#EEEEEE" height="3" style="stroke:#EEEEEE;stroke-width:1;" width="1077.6318" x="0" y="149.1602"/><line style="stroke:#000000;stroke-width:1;" x1="0" x2="1077.6318" y1="149.1602" y2="149.1602"/><line style="stroke:#000000;stroke-width:1;" x1="0" x2="1077.6318" y1="152.1602" y2="152.1602"/><rect fill="#EEEEEE" height="23.1328" style="stroke:#000000;stroke-width:2;" width="184.4092" x="446.6113" y="138.5938"/><text fill="#000000" font-family="sans-serif" font-size="13" font-weight="bold" lengthAdjust="spacing" textLength="165.8833" x="452.6113" y="154.6606">Open account creation</text><g class="message" data-entity-1="part1" data-entity-2="part2" id="msg1"><polygon fill="#181818" points="273.8643,188.8594,283.8643,192.8594,273.8643,196.8594,277.8643,192.8594" style="stroke:#181818;stroke-width:1;"/><line style="stroke:#181818;stroke-width:1;" x1="37.9824" x2="279.8643" y1="192.8594" y2="192.8594"/><text fill="#000000" font-family="sans-serif" font-size="13" lengthAdjust="spacing" textLength="222.7773" x="44.9824" y="187.7935">Select "Create New User Account"</text></g><g class="message" data-entity-1="part2" data-entity-2="part1" id="msg2"><polygon fill="#181818" points="48.9824,233.125,38.9824,237.125,48.9824,241.125,44.9824,237.125" style="stroke:#181818;stroke-width:1;"/><line style="stroke:#181818;stroke-width:1;stroke-dasharray:2,2;" x1="42.9824" x2="284.8643" y1="237.125" y2="237.125"/><text fill="#000000" font-family="sans-serif" font-size="13" lengthAdjust="spacing" textLength="121.5449" x="54.9824" y="216.9263">Display form fields</text><text fill="#000000" font-family="sans-serif" font-size="13" lengthAdjust="spacing" textLength="223.8818" x="54.9824" y="232.0591">(name, username, password, role)</text></g><rect fill="#EEEEEE" height="3" style="stroke:#EEEEEE;stroke-width:1;" width="1077.6318" x="0" y="265.6914"/><line style="stroke:#000000;stroke-width:1;" x1="0" x2="1077.6318" y1="265.6914" y2="265.6914"/><line style="stroke:#000000;stroke-width:1;" x1="0" x2="1077.6318" y1="268.6914" y2="268.6914"/><rect fill="#EEEEEE" height="23.1328" style="stroke:#000000;stroke-width:2;" width="170.6221" x="453.5049" y="255.125"/><text fill="#000000" font-family="sans-serif" font-size="13" font-weight="bold" lengthAdjust="spacing" textLength="152.0962" x="459.5049" y="271.1919">Submit account data</text><g class="message" data-entity-1="part1" data-entity-2="part2" id="msg3"><polygon fill="#181818" points="273.8643,320.5234,283.8643,324.5234,273.8643,328.5234,277.8643,324.5234" style="stroke:#181818;stroke-width:1;"/><line style="stroke:#181818;stroke-width:1;" x1="37.9824" x2="279.8643" y1="324.5234" y2="324.5234"/><text fill="#000000" font-family="sans-serif" font-size="13" lengthAdjust="spacing" textLength="138.2583" x="44.9824" y="304.3247">Enter account details</text><text fill="#000000" font-family="sans-serif" font-size="13" lengthAdjust="spacing" textLength="90.5493" x="44.9824" y="319.4575">Click "Create"</text></g><g class="message" data-entity-1="part2" data-entity-2="part3" id="msg4"><polygon fill="#181818" points="474.4624,349.6563,484.4624,353.6563,474.4624,357.6563,478.4624,353.6563" style="stroke:#181818;stroke-width:1;"/><line style="stroke:#181818;stroke-width:1;" x1="285.8643" x2="480.4624" y1="353.6563" y2="353.6563"/><text fill="#000000" font-family="sans-serif" font-size="13" lengthAdjust="spacing" textLength="96.2749" x="292.8643" y="348.5903">newUser(User)</text></g><g class="message" data-entity-1="part3" data-entity-2="part4" id="msg5"><polygon fill="#181818" points="640.6436,378.7891,650.6436,382.7891,640.6436,386.7891,644.6436,382.7891" style="stroke:#181818;stroke-width:1;"/><line style="stroke:#181818;stroke-width:1;" x1="486.4624" x2="646.6436" y1="382.7891" y2="382.7891"/><text fill="#000000" font-family="sans-serif" font-size="13" lengthAdjust="spacing" textLength="96.2749" x="493.4624" y="377.7231">newUser(User)</text></g><path d="M237.7617,397.7891 L302.2046,397.7891 L302.2046,404.9219 L292.2046,414.9219 L237.7617,414.9219 L237.7617,397.7891" fill="#EEEEEE" style="stroke:#000000;stroke-width:1.5;"/><rect fill="none" height="293.1328" style="stroke:#000000;stroke-width:1.5;" width="829.8701" x="237.7617" y="397.7891"/><text fill="#000000" font-family="sans-serif" font-size="13" font-weight="bold" lengthAdjust="spacing" textLength="19.4429" x="252.7617" y="410.856">alt</text><text fill="#000000" font-family="sans-serif" font-size="11" font-weight="bold" lengthAdjust="spacing" textLength="371.9375" x="317.2046" y="409.9995">[Create rejected (invalid / not permitted / username taken)]</text><g class="message" data-entity-1="part4" data-entity-2="part3" id="msg6"><polygon fill="#181818" points="497.4624,432.0547,487.4624,436.0547,497.4624,440.0547,493.4624,436.0547" style="stroke:#181818;stroke-width:1;"/><line style="stroke:#181818;stroke-width:1;stroke-dasharray:2,2;" x1="491.4624" x2="651.6436" y1="436.0547" y2="436.0547"/><text fill="#000000" font-family="sans-serif" font-size="13" lengthAdjust="spacing" textLength="142.1812" x="503.4624" y="430.9888">Create failed (reason)</text></g><g class="message" data-entity-1="part3" data-entity-2="part2" id="msg7"><polygon fill="#181818" points="296.8643,461.1875,286.8643,465.1875,296.8643,469.1875,292.8643,465.1875" style="stroke:#181818;stroke-width:1;"/><line style="stroke:#181818;stroke-width:1;" x1="290.8643" x2="485.4624" y1="465.1875" y2="465.1875"/><text fill="#000000" font-family="sans-serif" font-size="13" lengthAdjust="spacing" textLength="133.7515" x="302.8643" y="460.1216">Show error message</text></g><line style="stroke:#000000;stroke-width:1;stroke-dasharray:2,2;" x1="237.7617" x2="1067.6318" y1="474.1875" y2="474.1875"/><text fill="#000000" font-family="sans-serif" font-size="11" font-weight="bold" lengthAdjust="spacing" textLength="111.375" x="242.7617" y="484.3979">[Create accepted]</text><g class="message" data-entity-1="part4" data-entity-2="part6" id="msg8"><polygon fill="#181818" points="946.9614,505.125,956.9614,509.125,946.9614,513.125,950.9614,509.125" style="stroke:#181818;stroke-width:1;"/><line style="stroke:#181818;stroke-width:1;" x1="652.6436" x2="952.9614" y1="509.125" y2="509.125"/><text fill="#000000" font-family="sans-serif" font-size="13" lengthAdjust="spacing" textLength="144.3076" x="659.6436" y="504.0591">Store new user record</text></g><g class="message" data-entity-1="part6" data-entity-2="part4" id="msg9"><polygon fill="#181818" points="663.6436,534.2578,653.6436,538.2578,663.6436,542.2578,659.6436,538.2578" style="stroke:#181818;stroke-width:1;"/><line style="stroke:#181818;stroke-width:1;stroke-dasharray:2,2;" x1="657.6436" x2="957.9614" y1="538.2578" y2="538.2578"/><text fill="#000000" font-family="sans-serif" font-size="13" lengthAdjust="spacing" textLength="75.1816" x="669.6436" y="533.1919">User stored</text></g><g class="message" data-entity-1="part4" data-entity-2="part5" id="msg10"><polygon fill="#181818" points="782.3418,563.3906,792.3418,567.3906,782.3418,571.3906,786.3418,567.3906" style="stroke:#181818;stroke-width:1;"/><line style="stroke:#181818;stroke-width:1;" x1="652.6436" x2="788.3418" y1="567.3906" y2="567.3906"/><text fill="#000000" font-family="sans-serif" font-size="13" lengthAdjust="spacing" textLength="117.6982" x="659.6436" y="562.3247">Add user to cache</text></g><g class="message" data-entity-1="part4" data-entity-2="part3" id="msg11"><polygon fill="#181818" points="497.4624,592.5234,487.4624,596.5234,497.4624,600.5234,493.4624,596.5234" style="stroke:#181818;stroke-width:1;"/><line style="stroke:#181818;stroke-width:1;stroke-dasharray:2,2;" x1="491.4624" x2="651.6436" y1="596.5234" y2="596.5234"/><text fill="#000000" font-family="sans-serif" font-size="13" lengthAdjust="spacing" textLength="66.3711" x="503.4624" y="591.4575">Create OK</text></g><g class="message" data-entity-1="part3" data-entity-2="part3" id="msg12"><line style="stroke:#181818;stroke-width:1;" x1="486.4624" x2="528.4624" y1="625.6563" y2="625.6563"/><line style="stroke:#181818;stroke-width:1;" x1="528.4624" x2="528.4624" y1="625.6563" y2="638.6563"/><line style="stroke:#181818;stroke-width:1;" x1="487.4624" x2="528.4624" y1="638.6563" y2="638.6563"/><polygon fill="#181818" points="497.4624,634.6563,487.4624,638.6563,497.4624,642.6563,493.4624,638.6563" style="stroke:#181818;stroke-width:1;"/><text fill="#000000" font-family="sans-serif" font-size="13" lengthAdjust="spacing" textLength="102.7939" x="493.4624" y="620.5903">Update user list</text></g><g class="message" data-entity-1="part3" data-entity-2="part2" id="msg13"><polygon fill="#181818" points="296.8643,678.9219,286.8643,682.9219,296.8643,686.9219,292.8643,682.9219" style="stroke:#181818;stroke-width:1;"/><line style="stroke:#181818;stroke-width:1;" x1="290.8643" x2="485.4624" y1="682.9219" y2="682.9219"/><text fill="#000000" font-family="sans-serif" font-size="13" lengthAdjust="spacing" textLength="176.5981" x="302.8643" y="662.7231">Show success confirmation</text><text fill="#000000" font-family="sans-serif" font-size="13" lengthAdjust="spacing" textLength="135.3892" x="302.8643" y="677.856">and new user details</text></g><?plantuml-src VLDDQnin4BthLmm-UI4crx1WWt5BCO6cuFYMoqGQDsgqqYB9CVdtdP5aUqr3BqOxRpxUUpFEDZk2VIBO8FyyzFAEiDOw77s6JIJCDdYORvyBqYc5EeS8s-UIY0bcvS49tKozSfN1-0a_zjk2RPmbxiEVCwM3pp4uQB49l1x7AxoZ-D4wrwT0pf4M8ebvwZUQe3NmukU5Xi6CtMt1ZkdU5FoYc6pACbWm_7sfZgH3D8aRgEKIdaRoWCq9VNPYkLHD-s8bkdecBBDOZAGG_AJJZOap9MOiEBlMzV3Dfj7X9nn27E1WoPd433mET0T7pgYl4LCwCPqxO5UeAvHsnzV1vWifKVi5eUy-Yu7d9Cfe7KzWi_NxcMPZjMhRwC7JIPhCsvRRPZYXklPF0hfs7iIs_M43oC3S-Wzqri0z-91XfCXi1RY_w8ACx-GxrNQnc31etGxCLdhnLmgSUMLItNuB9w0O-GO7IectfyZ9_TPgLaqZZxmCMDK3wDiTi8h2fUrQrUXYehDOcIHiODAbd5aFQsDgVGwW9VGV9K-FC65_1lUZ4R0qSNo7yAN2T6GXAG7_Amus3kNsNZnwSrNG5gl8cxy0?></g></svg>