<?plantuml 1.2026.2?><svg xmlns="http://www.w3.org/2000/svg" xmlns:xlink="http://www.w3.org/1999/xlink" contentStyleType="text/css" data-diagram-type="SEQUENCE" height="805px" preserveAspectRatio="none" style="width:1181px;height:805px;background:#FFFFFF;" version="1.1" viewBox="0 0 1181 805" width="1181px" zoomAndPan="magnify"><title>Use Case 8: User Account Creation (IT User)</title><defs/><g><text fill="#000000" font-family="sans-serif" font-size="14" font-weight="bold" lengthAdjust="spacing" textLength="346.835" x="413.2327" y="27.9951">Use Case 8: User Account Creation (IT User)</text><rect fill="none" height="251" style="stroke:#000000;stroke-width:1.5;" width="927.6431" x="236.6572" y="457.1875"/><g class="participant-lifeline" data-entity-uid="part1" data-qualified-name="ITUser" id="part1-lifeline"><g><title>User .IT.</title><rect fill="#000000" fill-opacity="0.00000" height="606.5938" width="8" x="33.9824" y="118.5938"/><line style="stroke:#181818;stroke-width:0.5;stroke-dasharray:5,5;" x1="37" x2="37" y1="118.5938" y2="725.1875"/></g></g><g class="participant-lifeline" data-entity-uid="part2" data-qualified-name="GUI" id="part2-lifeline"><g><title>Client GUI</title><rect fill="#000000" fill-opacity="0.00000" height="606.5938" width="8" x="280.7598" y="118.5938"/><line style="stroke:#181818;stroke-width:0.5;stroke-dasharray:5,5;" x1="284.6572" x2="284.6572" y1="118.5938" y2="725.1875"/></g></g><g class="participant-lifeline" data-entity-uid="part3" data-qualified-name="Client" id="part3-lifeline"><g><title>Client App</title><rect fill="#000000" fill-opacity="0.00000" height="606.5938" width="8" x="528.6416" y="118.5938"/><line style="stroke:#181818;stroke-width:0.5;stroke-dasharray:5,5;" x1="532.4761" x2="532.4761" y1="118.5938" y2="725.1875"/></g></g><g class="participant-lifeline" data-entity-uid="part4" data-qualified-name="Server" id="part4-lifeline"><g><title>Server</title><rect fill="#000000" fill-opacity="0.00000" height="606.5938" width="8" x="745.312" y="118.5938"/><line style="stroke:#181818;stroke-width:0.5;stroke-dasharray:5,5;" x1="748.3569" x2="748.3569" y1="118.5938" y2="725.1875"/></g></g><g class="participant-lifeline" data-entity-uid="part5" data-qualified-name="Cache" id="part5-lifeline"><g><title>Server Cache</title><rect fill="#000000" fill-opacity="0.00000" height="606.5938" width="8" x="887.0103" y="118.5938"/><line style="stroke:#181818;stroke-width:0.5;stroke-dasharray:5,5;" x1="890.061" x2="890.061" y1="118.5938" y2="725.1875"/></g></g><g class="participant-lifeline" data-entity-uid="part6" data-qualified-name="Store" id="part6-lifeline"><g><title>Server Persistent Storage</title><rect fill="#000000" fill-opacity="0.00000" height="606.5938" width="8" x="1051.6299" y="118.5938"/><line style="stroke:#181818;stroke-width:0.5;stroke-dasharray:5,5;" x1="1054.9595" x2="1054.9595" y1="118.5938" y2="725.1875"/></g></g><g class="participant participant-head" data-entity-uid="part1" data-qualified-name="ITUser" id="part1-head"><text fill="#000000" font-family="sans-serif" font-size="14" lengthAdjust="spacing" textLength="59.9648" x="5" y="115.292">User (IT)</text><ellipse cx="37.9824" cy="50.7969" fill="#E2E2F0" rx="8" ry="8" style="stroke:#181818;stroke-width:0.5;"/><path d="M37.9824,58.7969 L37.9824,85.7969 M24.9824,66.7969 L50.9824,66.7969 M37.9824,85.7969 L24.9824,100.7969 M37.9824,85.7969 L50.9824,100.7969" fill="none" style="stroke:#181818;stroke-width:0.5;"/></g><g class="participant participant-tail" data-entity-uid="part1" data-qualified-name="ITUser" id="part1-tail"><text fill="#000000" font-family="sans-serif" font-size="14" lengthAdjust="spacing" textLength="59.9648" x="5" y="737.1826">User (IT)</text><ellipse cx="37.9824" cy="748.9844" fill="#E2E2F0" rx="8" ry="8" style="stroke:#181818;stroke-width:0.5;"/><path d="M37.9824,756.9844 L37.9824,783.9844 M24.9824,764.9844 L50.9824,764.9844 M37.9824,783.9844 L24.9824,798.9844 M37.9824,783.9844 L50.9824,798.9844" fill="none" style="stroke:#181818;stroke-width:0.5;"/></g><g class="participant participant-head" data-entity-uid="part2" data-qualified-name="GUI" id="part2-head"><text fill="#000000" font-family="sans-serif" font-size="14" lengthAdjust="spacing" textLength="70.2051" x="246.6572" y="115.292">Client GUI</text><path d="M264.2598,74.2969 L264.2598,98.2969 M264.2598,86.2969 L281.2598,86.2969" fill="none" style="stroke:#181818;stroke-width:0.5;"/><ellipse cx="293.2598" cy="86.2969" fill="#E2E2F0" rx="12" ry="12" style="stroke:#181818;stroke-width:0.5;"/></g><g class="participant participant-tail" data-entity-uid="part2" data-qualified-name="GUI" id="part2-tail"><text fill="#000000" font-family="sans-serif" font-size="14" lengthAdjust="spacing" textLength="70.2051" x="246.6572" y="737.1826">Client GUI</text><path d="M264.2598,744.4844 L264.2598,768.4844 M264.2598,756.4844 L281.2598,756.4844" fill="none" style="stroke:#181818;stroke-width:0.5;"/><ellipse cx="293.2598" cy="756.4844" fill="#E2E2F0" rx="12" ry="12" style="stroke:#181818;stroke-width:0.5;"/></g><g class="participant participant-head" data-entity-uid="part3" data-qualified-name="Client" id="part3-head"><text fill="#000000" font-family="sans-serif" font-size="14" lengthAdjust="spacing" textLength="72.3311" x="493.4761" y="115.292">Client App</text><ellipse cx="532.6416" cy="86.2969" fill="#E2E2F0" rx="12" ry="12" style="stroke:#181818;stroke-width:0.5;"/><polygon fill="#181818" points="528.6416,74.2969,534.6416,69.2969,532.6416,74.2969,534.6416,79.2969,528.6416,74.2969" style="stroke:#181818;stroke-width:1;"/></g><g class="participant participant-tail" data-entity-uid="part3" data-qualified-name="Client" id="part3-tail"><text fill="#000000" font-family="sans-serif" font-size="14" lengthAdjust="spacing" textLength="72.3311" x="493.4761" y="737.1826">Client App</text><ellipse cx="532.6416" cy="756.4844" fill="#E2E2F0" rx="12" ry="12" style="stroke:#181818;stroke-width:0.5;"/><polygon fill="#181818" points="528.6416,744.4844,534.6416,739.4844,532.6416,744.4844,534.6416,749.4844,528.6416,744.4844" style="stroke:#181818;stroke-width:1;"/></g><g class="participant participant-head" data-entity-uid="part4" data-qualified-name="Server" id="part4-head"><text fill="#000000" font-family="sans-serif" font-size="14" lengthAdjust="spacing" textLength="45.9102" x="723.3569" y="115.292">Server</text><ellipse cx="749.312" cy="86.2969" fill="#E2E2F0" rx="12" ry="12" style="stroke:#181818;stroke-width:0.5;"/><polygon fill="#181818" points="745.312,74.2969,751.312,69.2969,749.312,74.2969,751.312,79.2969,745.312,74.2969" style="stroke:#181818;stroke-width:1;"/></g><g class="participant participant-tail" data-entity-uid="part4" data-qualified-name="Server" id="part4-tail"><text fill="#000000" font-family="sans-serif" font-size="14" lengthAdjust="spacing" textLength="45.9102" x="723.3569" y="737.1826">Server</text><ellipse cx="749.312" cy="756.4844" fill="#E2E2F0" rx="12" ry="12" style="stroke:#181818;stroke-width:0.5;"/><polygon fill="#181818" points="745.312,744.4844,751.312,739.4844,749.312,744.4844,751.312,749.4844,745.312,744.4844" style="stroke:#181818;stroke-width:1;"/></g><g class="participant participant-head" data-entity-uid="part5" data-qualified-name="Cache" id="part5-head"><rect fill="#E2E2F0" height="46.5938" style="stroke:#181818;stroke-width:0.5;" width="107.8984" x="839.061" y="67"/><rect fill="#E2E2F0" height="46.5938" style="stroke:#181818;stroke-width:0.5;" width="107.8984" x="835.061" y="71"/><text fill="#000000" font-family="sans-serif" font-size="14" lengthAdjust="spacing" textLength="93.8984" x="842.061" y="90.9951">Server Cache</text><text fill="#000000" font-family="sans-serif" font-size="14" lengthAdjust="spacing" textLength="78.8184" x="849.6011" y="107.292">(User data)</text></g><g class="participant participant-tail" data-entity-uid="part5" data-qualified-name="Cache" id="part5-tail"><rect fill="#E2E2F0" height="46.5938" style="stroke:#181818;stroke-width:0.5;" width="107.8984" x="839.061" y="724.1875"/><rect fill="#E2E2F0" height="46.5938" style="stroke:#181818;stroke-width:0.5;" width="107.8984" x="835.061" y="728.1875"/><text fill="#000000" font-family="sans-serif" font-size="14" lengthAdjust="spacing" textLength="93.8984" x="842.061" y="748.1826">Server Cache</text><text fill="#000000" font-family="sans-serif" font-size="14" lengthAdjust="spacing" textLength="78.8184" x="849.6011" y="764.4795">(User data)</text></g><g class="participant participant-head" data-entity-uid="part6" data-qualified-name="Store" id="part6-head"><rect fill="#E2E2F0" height="46.5938" style="stroke:#181818;stroke-width:0.5;" width="193.3408" x="960.9595" y="67"/><rect fill="#E2E2F0" height="46.5938" style="stroke:#181818;stroke-width:0.5;" width="193.3408" x="956.9595" y="71"/><text fill="#000000" font-family="sans-serif" font-size="14" lengthAdjust="spacing" textLength="179.3408" x="963.9595" y="90.9951">Server Persistent Storage</text><text fill="#000000" font-family="sans-serif" font-size="14" lengthAdjust="spacing" textLength="99.8525" x="1003.7036" y="107.292">(User records)</text></g><g class="participant participant-tail" data-entity-uid="part6" data-qualified-name="Store" id="part6-tail"><rect fill="#E2E2F0" height="46.5938" style="stroke:#181818;stroke-width:0.5;" width="193.3408" x="960.9595" y="724.1875"/><rect fill="#E2E2F0" height="46.5938" style="stroke:#181818;stroke-width:0.5;" width="193.3408" x="956.9595" y="728.1875"/><text fill="#000000" font-family="sans-serif" font-size="14" lengthAdjust="spacing" textLength="179.3408" x="963.9595" y="748.1826">Server Persistent Storage</text><text fill="#000000" font-family="sans-serif" font-size="14" lengthAdjust="spacing" textLength="99.8525" x="1003.7036" y="764.4795">(User records)</text></g><rect fill="#EEEEEE" height="3" style="stroke:#EEEEEE;stroke-width:1;" width="1174.3003" x="0" y="149.1602"/><line style="stroke:#000000;stroke-width:1;" x1="0" x2="1174.3003" y1="149.1602" y2="149.1602"/><line style="stroke:#000000;stroke-width:1;" x1="0" x2="1174.3003" y1="152.1602" y2="152.1602"/><rect fill="#EEEEEE" height="23.1328" style="stroke:#000000;stroke-width:2;" width="184.4092" x="494.9456" y="138.5938"/><text fill="#000000" font-family="sans-serif" font-size="13" font-weight="bold" lengthAdjust="spacing" textLength="165.8833" x="500.9456" y="154.6606">Open account creation</text><g class="message" data-entity-1="part1" data-entity-2="part2" id="msg1"><polygon fill="#181818" points="272.7598,188.8594,282.7598,192.8594,272.7598,196.8594,276.7598,192.8594" style="stroke:#181818;stroke-width:1;"/><line style="stroke:#181818;stroke-width:1;" x1="37.9824" x2="278.7598" y1="192.8594" y2="192.8594"/><text fill="#000000" font-family="sans-serif" font-size="13" lengthAdjust="spacing" textLength="222.7773" x="44.9824" y="187.7935">Select "Create New User Account"</text></g><g class="message" data-entity-1="part2" data-entity-2="part3" id="msg2"><polygon fill="#181818" points="520.6416,217.9922,530.6416,221.9922,520.6416,225.9922,524.6416,221.9922" style="stroke:#181818;stroke-width:1;"/><line style="stroke:#181818;stroke-width:1;" x1="284.7598" x2="526.6416" y1="221.9922" y2="221.9922"/><text fill="#000000" font-family="sans-serif" font-size="13" lengthAdjust="spacing" textLength="182.8062" x="291.7598" y="216.9263">Open account creation form</text></g><g class="message" data-entity-1="part3" data-entity-2="part2" id="msg3"><polygon fill="#181818" points="295.7598,262.2578,285.7598,266.2578,295.7598,270.2578,291.7598,266.2578" style="stroke:#181818;stroke-width:1;"/><line style="stroke:#181818;stroke-width:1;stroke-dasharray:2,2;" x1="289.7598" x2="531.6416" y1="266.2578" y2="266.2578"/><text fill="#000000" font-family="sans-serif" font-size="13" lengthAdjust="spacing" textLength="121.5449" x="301.7598" y="246.0591">Display form fields</text><text fill="#000000" font-family="sans-serif" font-size="13" lengthAdjust="spacing" textLength="223.8818" x="301.7598" y="261.1919">(name, username, password, role)</text></g><rect fill="#EEEEEE" height="3" style="stroke:#EEEEEE;stroke-width:1;" width="1174.3003" x="0" y="294.8242"/><line style="stroke:#000000;stroke-width:1;" x1="0" x2="1174.3003" y1="294.8242" y2="294.8242"/><line style="stroke:#000000;stroke-width:1;" x1="0" x2="1174.3003" y1="297.8242" y2="297.8242"/><rect fill="#EEEEEE" height="23.1328" style="stroke:#000000;stroke-width:2;" width="170.6221" x="501.8391" y="284.2578"/><text fill="#000000" font-family="sans-serif" font-size="13" font-weight="bold" lengthAdjust="spacing" textLength="152.0962" x="507.8391" y="300.3247">Submit account data</text><g class="message" data-entity-1="part1" data-entity-2="part2" id="msg4"><polygon fill="#181818" points="272.7598,349.6563,282.7598,353.6563,272.7598,357.6563,276.7598,353.6563" style="stroke:#181818;stroke-width:1;"/><line style="stroke:#181818;stroke-width:1;" x1="37.9824" x2="278.7598" y1="353.6563" y2="353.6563"/><text fill="#000000" font-family="sans-serif" font-size="13" lengthAdjust="spacing" textLength="138.2583" x="44.9824" y="333.4575">Enter account details</text><text fill="#000000" font-family="sans-serif" font-size="13" lengthAdjust="spacing" textLength="90.5493" x="44.9824" y="348.5903">Click "Create"</text></g><g class="message" data-entity-1="part2" data-entity-2="part3" id="msg5"><polygon fill="#181818" points="520.6416,393.9219,530.6416,397.9219,520.6416,401.9219,524.6416,397.9219" style="stroke:#181818;stroke-width:1;"/><line style="stroke:#181818;stroke-width:1;" x1="284.7598" x2="526.6416" y1="397.9219" y2="397.9219"/><text fill="#000000" font-family="sans-serif" font-size="13" lengthAdjust="spacing" textLength="223.6597" x="291.7598" y="377.7231">SubmitNewUser(name, username,</text><text fill="#000000" font-family="sans-serif" font-size="13" lengthAdjust="spacing" textLength="100.1914" x="295.8921" y="392.856">password, role)</text></g><g class="message" data-entity-1="part3" data-entity-2="part4" id="msg6"><polygon fill="#181818" points="737.312,438.1875,747.312,442.1875,737.312,446.1875,741.312,442.1875" style="stroke:#181818;stroke-width:1;"/><line style="stroke:#181818;stroke-width:1;" x1="532.6416" x2="743.312" y1="442.1875" y2="442.1875"/><text fill="#000000" font-family="sans-serif" font-size="13" lengthAdjust="spacing" textLength="192.6704" x="539.6416" y="421.9888">CreateUser(name, username,</text><text fill="#000000" font-family="sans-serif" font-size="13" lengthAdjust="spacing" textLength="100.1914" x="543.7739" y="437.1216">password, role)</text></g><path d="M236.6572,457.1875 L301.1001,457.1875 L301.1001,464.3203 L291.1001,474.3203 L236.6572,474.3203 L236.6572,457.1875" fill="#EEEEEE" style="stroke:#000000;stroke-width:1.5;"/><rect fill="none" height="251" style="stroke:#000000;stroke-width:1.5;" width="927.6431" x="236.6572" y="457.1875"/><text fill="#000000" font-family="sans-serif" font-size="13" font-weight="bold" lengthAdjust="spacing" textLength="19.4429" x="251.6572" y="470.2544">alt</text><text fill="#000000" font-family="sans-serif" font-size="11" font-weight="bold" lengthAdjust="spacing" textLength="371.9375" x="316.1001" y="469.3979">[Create rejected (invalid / not permitted / username taken)]</text><g class="message" data-entity-1="part4" data-entity-2="part3" id="msg7"><polygon fill="#181818" points="543.6416,491.4531,533.6416,495.4531,543.6416,499.4531,539.6416,495.4531" style="stroke:#181818;stroke-width:1;"/><line style="stroke:#181818;stroke-width:1;stroke-dasharray:2,2;" x1="537.6416" x2="748.312" y1="495.4531" y2="495.4531"/><text fill="#000000" font-family="sans-serif" font-size="13" lengthAdjust="spacing" textLength="142.1812" x="549.6416" y="490.3872">Create failed (reason)</text></g><g class="message" data-entity-1="part3" data-entity-2="part2" id="msg8"><polygon fill="#181818" points="295.7598,520.5859,285.7598,524.5859,295.7598,528.5859,291.7598,524.5859" style="stroke:#181818;stroke-width:1;"/><line style="stroke:#181818;stroke-width:1;" x1="289.7598" x2="531.6416" y1="524.5859" y2="524.5859"/><text fill="#000000" font-family="sans-serif" font-size="13" lengthAdjust="spacing" textLength="133.7515" x="301.7598" y="519.52">Show error message</text></g><line style="stroke:#000000;stroke-width:1;stroke-dasharray:2,2;" x1="236.6572" x2="1164.3003" y1="533.5859" y2="533.5859"/><text fill="#000000" font-family="sans-serif" font-size="11" font-weight="bold" lengthAdjust="spacing" textLength="111.375" x="241.6572" y="543.7964">[Create accepted]</text><g class="message" data-entity-1="part4" data-entity-2="part6" id="msg9"><polygon fill="#181818" points="1043.6299,564.5234,1053.6299,568.5234,1043.6299,572.5234,1047.6299,568.5234" style="stroke:#181818;stroke-width:1;"/><line style="stroke:#181818;stroke-width:1;" x1="749.312" x2="1049.6299" y1="568.5234" y2="568.5234"/><text fill="#000000" font-family="sans-serif" font-size="13" lengthAdjust="spacing" textLength="144.3076" x="756.312" y="563.4575">Store new user record</text></g><g class="message" data-entity-1="part6" data-entity-2="part4" id="msg10"><polygon fill="#181818" points="760.312,593.6563,750.312,597.6563,760.312,601.6563,756.312,597.6563" style="stroke:#181818;stroke-width:1;"/><line style="stroke:#181818;stroke-width:1;stroke-dasharray:2,2;" x1="754.312" x2="1054.6299" y1="597.6563" y2="597.6563"/><text fill="#000000" font-family="sans-serif" font-size="13" lengthAdjust="spacing" textLength="158.0439" x="766.312" y="592.5903">User stored (newUserId)</text></g><g class="message" data-entity-1="part4" data-entity-2="part5" id="msg11"><polygon fill="#181818" points="879.0103,622.7891,889.0103,626.7891,879.0103,630.7891,883.0103,626.7891" style="stroke:#181818;stroke-width:1;"/><line style="stroke:#181818;stroke-width:1;" x1="749.312" x2="885.0103" y1="626.7891" y2="626.7891"/><text fill="#000000" font-family="sans-serif" font-size="13" lengthAdjust="spacing" textLength="117.6982" x="756.312" y="621.7231">Add user to cache</text></g><g class="message" data-entity-1="part4" data-entity-2="part3" id="msg12"><polygon fill="#181818" points="543.6416,651.9219,533.6416,655.9219,543.6416,659.9219,539.6416,655.9219" style="stroke:#181818;stroke-width:1;"/><line style="stroke:#181818;stroke-width:1;stroke-dasharray:2,2;" x1="537.6416" x2="748.312" y1="655.9219" y2="655.9219"/><text fill="#000000" font-family="sans-serif" font-size="13" lengthAdjust="spacing" textLength="149.2334" x="549.6416" y="650.856">Create OK (newUserId)</text></g><g class="message" data-entity-1="part3" data-entity-2="part2" id="msg13"><polygon fill="#181818" points="295.7598,696.1875,285.7598,700.1875,295.7598,704.1875,291.7598,700.1875" style="stroke:#181818;stroke-width:1;"/><line style="stroke:#181818;stroke-width:1;" x1="289.7598" x2="531.6416" y1="700.1875" y2="700.1875"/><text fill="#000000" font-family="sans-serif" font-size="13" lengthAdjust="spacing" textLength="176.5981" x="301.7598" y="679.9888">Show success confirmation</text><text fill="#000000" font-family="sans-serif" font-size="13" lengthAdjust="spacing" textLength="135.3892" x="301.7598" y="695.1216">and new user details</text></g><?plantuml-src ZLFBQYCn4BphAngVF12JQnYmmNX3C0l9WfERBnsflT568msI9YP_dzPZx76INVPYP7LtTLMf9kfe29u2mGRvvwPDPmzhATrW8smyOTJEmdpxc2kD42YZyx1zp8qOO9OFtD3Cn3DFAVJlSFUqpRMDqSGu_7ScfBFHEmFrRb9Uz_svl2F_Lf7BCPMC8Pc81EOfNsXIBHTxEyyq54PiBWTsJFTYu1Vve4DCYrCDVv-cFKddLM00iLp2GqyMi3eXHoUMIr6rBrP9Lyk4qouMare8xkbuOU9C93EukOXj_u9xSBuJrO_52Fr3XzxWUox2GPDHWRbQxEWA1jvHJZs6S6JYLy3-KPF9xuRdJiVJckJBDzHlRKnMZqqKKHlUm3JawoZe2_y2pJ8Jr6SoU_kLpgXgLT-sBRcY_vr7KvD8_49_s6jICDVs3OrMS0tMHUZ9CwTKk3vXGSHNiesepxwOIAXe1vQRiFXVSDnv9beUziKTWRpdk7SK0WT5a4cVIfbcswZdbQS5gvArjaRESX26Swn4kLrCRCXl4T8rax35qArg9e0vt2sibIfGqO5CL_yGzV3p0kixJM5WwY40Vt87xRiSmBr5gywSQnO4MVK1?></g></svg>