<?plantuml 1.2026.2?><svg xmlns="http://www.w3.org/2000/svg" xmlns:xlink="http://www.w3.org/1999/xlink" contentStyleType="text/css" data-diagram-type="SEQUENCE" height="555px" preserveAspectRatio="none" style="width:698px;height:555px;background:#FFFFFF;" version="1.1" viewBox="0 0 698 555" width="698px" zoomAndPan="magnify"><title>Search for a User</title><defs/><g><text fill="#000000" font-family="sans-serif" font-size="14" font-weight="bold" lengthAdjust="spacing" textLength="136.9785" x="282.116" y="27.9951">Search for a User</text><rect fill="none" height="132.6641" style="stroke:#000000;stroke-width:1.5;" width="558.1431" x="134.0674" y="325.5234"/><g class="participant-lifeline" data-entity-uid="part1" data-qualified-name="User" id="part1-lifeline"><g><title>User</title><rect fill="#000000" fill-opacity="0.00000" height="356.5938" width="8" x="19.9551" y="118.5938"/><line style="stroke:#181818;stroke-width:0.5;stroke-dasharray:5,5;" x1="23" x2="23" y1="118.5938" y2="475.1875"/></g></g><g class="participant-lifeline" data-entity-uid="part2" data-qualified-name="GUI" id="part2-lifeline"><g><title>Client GUI</title><rect fill="#000000" fill-opacity="0.00000" height="356.5938" width="8" x="178.1699" y="118.5938"/><line style="stroke:#181818;stroke-width:0.5;stroke-dasharray:5,5;" x1="182.0674" x2="182.0674" y1="118.5938" y2="475.1875"/></g></g><g class="participant-lifeline" data-entity-uid="part3" data-qualified-name="Client" id="part3-lifeline"><g><title>Client App</title><rect fill="#000000" fill-opacity="0.00000" height="356.5938" width="8" x="357.6914" y="118.5938"/><line style="stroke:#181818;stroke-width:0.5;stroke-dasharray:5,5;" x1="361.5259" x2="361.5259" y1="118.5938" y2="475.1875"/></g></g><g class="participant-lifeline" data-entity-uid="part4" data-qualified-name="Server" id="part4-lifeline"><g><title>Server</title><rect fill="#000000" fill-opacity="0.00000" height="356.5938" width="8" x="500.9829" y="118.5938"/><line style="stroke:#181818;stroke-width:0.5;stroke-dasharray:5,5;" x1="504.0278" x2="504.0278" y1="118.5938" y2="475.1875"/></g></g><g class="participant-lifeline" data-entity-uid="part5" data-qualified-name="LocalStore" id="part5-lifeline"><g><title>Client Local Store</title><rect fill="#000000" fill-opacity="0.00000" height="356.5938" width="8" x="607.5742" y="118.5938"/><line style="stroke:#181818;stroke-width:0.5;stroke-dasharray:5,5;" x1="610.938" x2="610.938" y1="118.5938" y2="475.1875"/></g></g><g class="participant participant-head" data-entity-uid="part1" data-qualified-name="User" id="part1-head"><text fill="#000000" font-family="sans-serif" font-size="14" lengthAdjust="spacing" textLength="31.9102" x="5" y="115.292">User</text><ellipse cx="23.9551" cy="50.7969" fill="#E2E2F0" rx="8" ry="8" style="stroke:#181818;stroke-width:0.5;"/><path d="M23.9551,58.7969 L23.9551,85.7969 M10.9551,66.7969 L36.9551,66.7969 M23.9551,85.7969 L10.9551,100.7969 M23.9551,85.7969 L36.9551,100.7969" fill="none" style="stroke:#181818;stroke-width:0.5;"/></g><g class="participant participant-tail" data-entity-uid="part1" data-qualified-name="User" id="part1-tail"><text fill="#000000" font-family="sans-serif" font-size="14" lengthAdjust="spacing" textLength="31.9102" x="5" y="487.1826">User</text><ellipse cx="23.9551" cy="498.9844" fill="#E2E2F0" rx="8" ry="8" style="stroke:#181818;stroke-width:0.5;"/><path d="M23.9551,506.9844 L23.9551,533.9844 M10.9551,514.9844 L36.9551,514.9844 M23.9551,533.9844 L10.9551,548.9844 M23.9551,533.9844 L36.9551,548.9844" fill="none" style="stroke:#181818;stroke-width:0.5;"/></g><g class="participant participant-head" data-entity-uid="part2" data-qualified-name="GUI" id="part2-head"><text fill="#000000" font-family="sans-serif" font-size="14" lengthAdjust="spacing" textLength="70.2051" x="144.0674" y="115.292">Client GUI</text><path d="M161.6699,74.2969 L161.6699,98.2969 M161.6699,86.2969 L178.6699,86.2969" fill="none" style="stroke:#181818;stroke-width:0.5;"/><ellipse cx="190.6699" cy="86.2969" fill="#E2E2F0" rx="12" ry="12" style="stroke:#181818;stroke-width:0.5;"/></g><g class="participant participant-tail" data-entity-uid="part2" data-qualified-name="GUI" id="part2-tail"><text fill="#000000" font-family="sans-serif" font-size="14" lengthAdjust="spacing" textLength="70.2051" x="144.0674" y="487.1826">Client GUI</text><path d="M161.6699,494.4844 L161.6699,518.4844 M161.6699,506.4844 L178.6699,506.4844" fill="none" style="stroke:#181818;stroke-width:0.5;"/><ellipse cx="190.6699" cy="506.4844" fill="#E2E2F0" rx="12" ry="12" style="stroke:#181818;stroke-width:0.5;"/></g><g class="participant participant-head" data-entity-uid="part3" data-qualified-name="Client" id="part3-head"><text fill="#000000" font-family="sans-serif" font-size="14" lengthAdjust="spacing" textLength="72.3311" x="322.5259" y="115.292">Client App</text><ellipse cx="361.6914" cy="86.2969" fill="#E2E2F0" rx="12" ry="12" style="stroke:#181818;stroke-width:0.5;"/><polygon fill="#181818" points="357.6914,74.2969,363.6914,69.2969,361.6914,74.2969,363.6914,79.2969,357.6914,74.2969" style="stroke:#181818;stroke-width:1;"/></g><g class="participant participant-tail" data-entity-uid="part3" data-qualified-name="Client" id="part3-tail"><text fill="#000000" font-family="sans-serif" font-size="14" lengthAdjust="spacing" textLength="72.3311" x="322.5259" y="487.1826">Client App</text><ellipse cx="361.6914" cy="506.4844" fill="#E2E2F0" rx="12" ry="12" style="stroke:#181818;stroke-width:0.5;"/><polygon fill="#181818" points="357.6914,494.4844,363.6914,489.4844,361.6914,494.4844,363.6914,499.4844,357.6914,494.4844" style="stroke:#181818;stroke-width:1;"/></g><g class="participant participant-head" data-entity-uid="part4" data-qualified-name="Server" id="part4-head"><text fill="#000000" font-family="sans-serif" font-size="14" lengthAdjust="spacing" textLength="45.9102" x="479.0278" y="115.292">Server</text><ellipse cx="504.9829" cy="86.2969" fill="#E2E2F0" rx="12" ry="12" style="stroke:#181818;stroke-width:0.5;"/><polygon fill="#181818" points="500.9829,74.2969,506.9829,69.2969,504.9829,74.2969,506.9829,79.2969,500.9829,74.2969" style="stroke:#181818;stroke-width:1;"/></g><g class="participant participant-tail" data-entity-uid="part4" data-qualified-name="Server" id="part4-tail"><text fill="#000000" font-family="sans-serif" font-size="14" lengthAdjust="spacing" textLength="45.9102" x="479.0278" y="487.1826">Server</text><ellipse cx="504.9829" cy="506.4844" fill="#E2E2F0" rx="12" ry="12" style="stroke:#181818;stroke-width:0.5;"/><polygon fill="#181818" points="500.9829,494.4844,506.9829,489.4844,504.9829,494.4844,506.9829,499.4844,500.9829,494.4844" style="stroke:#181818;stroke-width:1;"/></g><g class="participant participant-head" data-entity-uid="part5" data-qualified-name="LocalStore" id="part5-head"><rect fill="#E2E2F0" height="46.5938" style="stroke:#181818;stroke-width:0.5;" width="137.2725" x="544.938" y="67"/><rect fill="#E2E2F0" height="46.5938" style="stroke:#181818;stroke-width:0.5;" width="137.2725" x="540.938" y="71"/><text fill="#000000" font-family="sans-serif" font-size="14" lengthAdjust="spacing" textLength="123.2725" x="547.938" y="90.9951">Client Local Store</text><text fill="#000000" font-family="sans-serif" font-size="14" lengthAdjust="spacing" textLength="110.2227" x="554.4629" y="107.292">(User directory)</text></g><g class="participant participant-tail" data-entity-uid="part5" data-qualified-name="LocalStore" id="part5-tail"><rect fill="#E2E2F0" height="46.5938" style="stroke:#181818;stroke-width:0.5;" width="137.2725" x="544.938" y="474.1875"/><rect fill="#E2E2F0" height="46.5938" style="stroke:#181818;stroke-width:0.5;" width="137.2725" x="540.938" y="478.1875"/><text fill="#000000" font-family="sans-serif" font-size="14" lengthAdjust="spacing" textLength="123.2725" x="547.938" y="498.1826">Client Local Store</text><text fill="#000000" font-family="sans-serif" font-size="14" lengthAdjust="spacing" textLength="110.2227" x="554.4629" y="514.4795">(User directory)</text></g><g class="message" data-entity-1="part1" data-entity-2="part2" id="msg1"><polygon fill="#181818" points="170.1699,145.7266,180.1699,149.7266,170.1699,153.7266,174.1699,149.7266" style="stroke:#181818;stroke-width:1;"/><line style="stroke:#181818;stroke-width:1;" x1="23.9551" x2="176.1699" y1="149.7266" y2="149.7266"/><text fill="#000000" font-family="sans-serif" font-size="13" lengthAdjust="spacing" textLength="134.2148" x="30.9551" y="144.6606">Type into search bar</text></g><g class="message" data-entity-1="part2" data-entity-2="part3" id="msg2"><polygon fill="#181818" points="349.6914,174.8594,359.6914,178.8594,349.6914,182.8594,353.6914,178.8594" style="stroke:#181818;stroke-width:1;"/><line style="stroke:#181818;stroke-width:1;" x1="182.1699" x2="355.6914" y1="178.8594" y2="178.8594"/><text fill="#000000" font-family="sans-serif" font-size="13" lengthAdjust="spacing" textLength="119.2915" x="189.1699" y="173.7935">Request user data</text></g><g class="message" data-entity-1="part3" data-entity-2="part4" id="msg3"><polygon fill="#181818" points="492.9829,203.9922,502.9829,207.9922,492.9829,211.9922,496.9829,207.9922" style="stroke:#181818;stroke-width:1;"/><line style="stroke:#181818;stroke-width:1;" x1="361.6914" x2="498.9829" y1="207.9922" y2="207.9922"/><text fill="#000000" font-family="sans-serif" font-size="13" lengthAdjust="spacing" textLength="119.2915" x="368.6914" y="202.9263">Request user data</text></g><g class="message" data-entity-1="part4" data-entity-2="part3" id="msg4"><polygon fill="#181818" points="372.6914,233.125,362.6914,237.125,372.6914,241.125,368.6914,237.125" style="stroke:#181818;stroke-width:1;"/><line style="stroke:#181818;stroke-width:1;stroke-dasharray:2,2;" x1="366.6914" x2="503.9829" y1="237.125" y2="237.125"/><text fill="#000000" font-family="sans-serif" font-size="13" lengthAdjust="spacing" textLength="109.8525" x="378.6914" y="232.0591">Return user data</text></g><g class="message" data-entity-1="part3" data-entity-2="part5" id="msg5"><polygon fill="#181818" points="599.5742,277.3906,609.5742,281.3906,599.5742,285.3906,603.5742,281.3906" style="stroke:#181818;stroke-width:1;"/><line style="stroke:#181818;stroke-width:1;" x1="361.6914" x2="605.5742" y1="281.3906" y2="281.3906"/><text fill="#000000" font-family="sans-serif" font-size="13" lengthAdjust="spacing" textLength="118.8027" x="368.6914" y="261.1919">Update local store</text><text fill="#000000" font-family="sans-serif" font-size="13" lengthAdjust="spacing" textLength="152.5151" x="368.6914" y="276.3247">with any new user data</text></g><g class="message" data-entity-1="part3" data-entity-2="part2" id="msg6"><polygon fill="#181818" points="193.1699,306.5234,183.1699,310.5234,193.1699,314.5234,189.1699,310.5234" style="stroke:#181818;stroke-width:1;"/><line style="stroke:#181818;stroke-width:1;stroke-dasharray:2,2;" x1="187.1699" x2="360.6914" y1="310.5234" y2="310.5234"/><text fill="#000000" font-family="sans-serif" font-size="13" lengthAdjust="spacing" textLength="114.5942" x="199.1699" y="305.4575">Provide user data</text></g><path d="M134.0674,325.5234 L210.6914,325.5234 L210.6914,332.6563 L200.6914,342.6563 L134.0674,342.6563 L134.0674,325.5234" fill="#EEEEEE" style="stroke:#000000;stroke-width:1.5;"/><rect fill="none" height="132.6641" style="stroke:#000000;stroke-width:1.5;" width="558.1431" x="134.0674" y="325.5234"/><text fill="#000000" font-family="sans-serif" font-size="13" font-weight="bold" lengthAdjust="spacing" textLength="31.624" x="149.0674" y="338.5903">loop</text><text fill="#000000" font-family="sans-serif" font-size="11" font-weight="bold" lengthAdjust="spacing" textLength="133.8691" x="225.6914" y="337.7339">[While user is typing]</text><g class="message" data-entity-1="part2" data-entity-2="part5" id="msg7"><polygon fill="#181818" points="599.5742,374.9219,609.5742,378.9219,599.5742,382.9219,603.5742,378.9219" style="stroke:#181818;stroke-width:1;"/><line style="stroke:#181818;stroke-width:1;" x1="182.1699" x2="605.5742" y1="378.9219" y2="378.9219"/><text fill="#000000" font-family="sans-serif" font-size="13" lengthAdjust="spacing" textLength="91.9204" x="189.1699" y="358.7231">Match profiles</text><text fill="#000000" font-family="sans-serif" font-size="13" lengthAdjust="spacing" textLength="125.5249" x="189.1699" y="373.856">against search text</text></g><g class="message" data-entity-1="part5" data-entity-2="part2" id="msg8"><polygon fill="#181818" points="193.1699,404.0547,183.1699,408.0547,193.1699,412.0547,189.1699,408.0547" style="stroke:#181818;stroke-width:1;"/><line style="stroke:#181818;stroke-width:1;stroke-dasharray:2,2;" x1="187.1699" x2="610.5742" y1="408.0547" y2="408.0547"/><text fill="#000000" font-family="sans-serif" font-size="13" lengthAdjust="spacing" textLength="144.5107" x="199.1699" y="402.9888">Matching user profiles</text></g><g class="message" data-entity-1="part2" data-entity-2="part2" id="msg9"><line style="stroke:#181818;stroke-width:1;" x1="182.1699" x2="224.1699" y1="437.1875" y2="437.1875"/><line style="stroke:#181818;stroke-width:1;" x1="224.1699" x2="224.1699" y1="437.1875" y2="450.1875"/><line style="stroke:#181818;stroke-width:1;" x1="183.1699" x2="224.1699" y1="450.1875" y2="450.1875"/><polygon fill="#181818" points="193.1699,446.1875,183.1699,450.1875,193.1699,454.1875,189.1699,450.1875" style="stroke:#181818;stroke-width:1;"/><text fill="#000000" font-family="sans-serif" font-size="13" lengthAdjust="spacing" textLength="165.5215" x="189.1699" y="432.1216">Display matching profiles</text></g><?plantuml-src RL3BJiCm4BpxAqOvmQ4_q0CI0WaXWOGe4PTUjicsjUIkZRrfoT_ZE6aRfDxidTbvh5frZ1LJRFRO-WX2dJWQGutcNtblV2SjnHulzIieeNfobaM7RsKQBngzmpIRmOyXNE4LnoF70e_F0NAE6xLU4jvyGswL7NckKAOeuxNS3LdGsiX3ilw-CgPC5Wz3a2M--i2meXvfRBEXQ8R4cJ3gBV79FnqdHLUaICbCJfapnhh5cR8l_Wbf5-McphNA4dN88CEL7cdiSRAw1qaFuTCDWNETZ-YFjkKPmpZl0xxtrarJcw1ziB8pm5HqRlvEcgyGej_cZRGMsf6LN6mwZ_AlviNPvI_UPJFhZZPdXQjB8JtR51prE9p95nvB-mS0?></g></svg>