<?plantuml 1.2026.2?><svg xmlns="http://www.w3.org/2000/svg" xmlns:xlink="http://www.w3.org/1999/xlink" contentStyleType="text/css" data-diagram-type="CLASS" height="1529px" preserveAspectRatio="none" style="width:792px;height:1529px;background:#FFFFFF;" version="1.1" viewBox="0 0 792 1529" width="792px" zoomAndPan="magnify"><defs/><g><!--cluster Payload Layer--><g class="cluster" data-qualified-name="Payload Layer" data-source-line="1" id="ent0002"><path d="M97.5,1029.5 L209.9873,1029.5 A3.75,3.75 0 0 1 212.4873,1032 L219.4873,1051.7969 L298.5,1051.7969 A2.5,2.5 0 0 1 301,1054.2969 L301,1191 A2.5,2.5 0 0 1 298.5,1193.5 L97.5,1193.5 A2.5,2.5 0 0 1 95,1191 L95,1032 A2.5,2.5 0 0 1 97.5,1029.5" fill="none" style="stroke:#000000;stroke-width:1.5;"/><line style="stroke:#000000;stroke-width:1.5;" x1="95" x2="219.4873" y1="1051.7969" y2="1051.7969"/><text fill="#000000" font-family="sans-serif" font-size="14" font-weight="bold" lengthAdjust="spacing" textLength="111.4873" x="99" y="1044.4951">Payload Layer</text></g><!--cluster Client Layer--><g class="cluster" data-qualified-name="Client Layer" data-source-line="10" id="ent0004"><path d="M8.5,341 L104.2939,341 A3.75,3.75 0 0 1 106.7939,343.5 L113.7939,363.2969 L782.5,363.2969 A2.5,2.5 0 0 1 785,365.7969 L785,953.5 A2.5,2.5 0 0 1 782.5,956 L8.5,956 A2.5,2.5 0 0 1 6,953.5 L6,343.5 A2.5,2.5 0 0 1 8.5,341" fill="none" style="stroke:#000000;stroke-width:1.5;"/><line style="stroke:#000000;stroke-width:1.5;" x1="6" x2="113.7939" y1="363.2969" y2="363.2969"/><text fill="#000000" font-family="sans-serif" font-size="14" font-weight="bold" lengthAdjust="spacing" textLength="94.7939" x="10" y="355.9951">Client Layer</text></g><!--cluster Model Layer--><g class="cluster" data-qualified-name="Model Layer" data-source-line="55" id="ent0008"><path d="M449.5,1005 L547.1328,1005 A3.75,3.75 0 0 1 549.6328,1007.5 L556.6328,1027.2969 L728.5,1027.2969 A2.5,2.5 0 0 1 731,1029.7969 L731,1519.5 A2.5,2.5 0 0 1 728.5,1522 L449.5,1522 A2.5,2.5 0 0 1 447,1519.5 L447,1007.5 A2.5,2.5 0 0 1 449.5,1005" fill="none" style="stroke:#000000;stroke-width:1.5;"/><line style="stroke:#000000;stroke-width:1.5;" x1="447" x2="556.6328" y1="1027.2969" y2="1027.2969"/><text fill="#000000" font-family="sans-serif" font-size="14" font-weight="bold" lengthAdjust="spacing" textLength="96.6328" x="451" y="1019.9951">Model Layer</text></g><!--cluster GUI Layer--><g class="cluster" data-qualified-name="GUI Layer" data-source-line="81" id="ent0011"><path d="M372.5,6 L450.3359,6 A3.75,3.75 0 0 1 452.8359,8.5 L459.8359,28.2969 L748.5,28.2969 A2.5,2.5 0 0 1 751,30.7969 L751,281.5 A2.5,2.5 0 0 1 748.5,284 L372.5,284 A2.5,2.5 0 0 1 370,281.5 L370,8.5 A2.5,2.5 0 0 1 372.5,6" fill="none" style="stroke:#000000;stroke-width:1.5;"/><line style="stroke:#000000;stroke-width:1.5;" x1="370" x2="459.8359" y1="28.2969" y2="28.2969"/><text fill="#000000" font-family="sans-serif" font-size="14" font-weight="bold" lengthAdjust="spacing" textLength="76.8359" x="374" y="20.9951">GUI Layer</text></g><!--class Wrapper--><g class="entity" data-qualified-name="Payload Layer.Wrapper" data-source-line="2" id="ent0003"><rect fill="#F1F1F1" height="113.1875" rx="2.5" ry="2.5" style="stroke:#181818;stroke-width:0.5;" width="174.3535" x="111" y="1064.5"/><ellipse cx="163.7666" cy="1080.5" fill="#ADD1B2" rx="11" ry="11" style="stroke:#181818;stroke-width:1;"/><path d="M166.7354,1086.1406 Q166.1572,1086.4375 165.5166,1086.5781 Q164.876,1086.7344 164.1729,1086.7344 Q161.6729,1086.7344 160.3447,1085.0938 Q159.0322,1083.4375 159.0322,1080.3125 Q159.0322,1077.1875 160.3447,1075.5313 Q161.6729,1073.875 164.1729,1073.875 Q164.876,1073.875 165.5166,1074.0313 Q166.1729,1074.1875 166.7354,1074.4844 L166.7354,1077.2031 Q166.1104,1076.625 165.5166,1076.3594 Q164.9229,1076.0781 164.2979,1076.0781 Q162.9541,1076.0781 162.2666,1077.1563 Q161.5791,1078.2188 161.5791,1080.3125 Q161.5791,1082.4063 162.2666,1083.4844 Q162.9541,1084.5469 164.2979,1084.5469 Q164.9229,1084.5469 165.5166,1084.2813 Q166.1104,1084 166.7354,1083.4219 L166.7354,1086.1406 Z " fill="#000000"/><text fill="#000000" font-family="sans-serif" font-size="14" lengthAdjust="spacing" textLength="60.3203" x="184.2666" y="1085.3467">Wrapper</text><line style="stroke:#181818;stroke-width:0.5;" x1="112" x2="284.3535" y1="1096.5" y2="1096.5"/><g data-visibility-modifier="PRIVATE_FIELD"><rect fill="none" height="6" style="stroke:#C82930;stroke-width:1;" width="6" x="119" y="1107.1484"/></g><text fill="#000000" font-family="sans-serif" font-size="14" lengthAdjust="spacing" textLength="100.3037" x="131" y="1113.4951">requestID : int</text><g data-visibility-modifier="PRIVATE_FIELD"><rect fill="none" height="6" style="stroke:#C82930;stroke-width:1;" width="6" x="119" y="1123.4453"/></g><text fill="#000000" font-family="sans-serif" font-size="14" lengthAdjust="spacing" textLength="114.8848" x="131" y="1129.792">payload : Object</text><line style="stroke:#181818;stroke-width:0.5;" x1="112" x2="284.3535" y1="1137.0938" y2="1137.0938"/><g data-visibility-modifier="PUBLIC_METHOD"><ellipse cx="122" cy="1150.7422" fill="#84BE84" rx="3" ry="3" style="stroke:#038048;stroke-width:1;"/></g><text fill="#000000" font-family="sans-serif" font-size="14" lengthAdjust="spacing" textLength="138.1885" x="131" y="1154.0889">getRequestID() : int</text><g data-visibility-modifier="PUBLIC_METHOD"><ellipse cx="122" cy="1167.0391" fill="#84BE84" rx="3" ry="3" style="stroke:#038048;stroke-width:1;"/></g><text fill="#000000" font-family="sans-serif" font-size="14" lengthAdjust="spacing" textLength="148.3535" x="131" y="1170.3857">getPayload() : Object</text></g><!--class Client--><g class="entity" data-qualified-name="Client Layer.Client" data-source-line="12" id="ent0005"><rect fill="#F1F1F1" height="227.2656" rx="2.5" ry="2.5" style="stroke:#181818;stroke-width:0.5;" width="351.8076" x="22" y="713"/><ellipse cx="173.3887" cy="729" fill="#ADD1B2" rx="11" ry="11" style="stroke:#181818;stroke-width:1;"/><path d="M176.3574,734.6406 Q175.7793,734.9375 175.1387,735.0781 Q174.498,735.2344 173.7949,735.2344 Q171.2949,735.2344 169.9668,733.5938 Q168.6543,731.9375 168.6543,728.8125 Q168.6543,725.6875 169.9668,724.0313 Q171.2949,722.375 173.7949,722.375 Q174.498,722.375 175.1387,722.5313 Q175.7949,722.6875 176.3574,722.9844 L176.3574,725.7031 Q175.7324,725.125 175.1387,724.8594 Q174.5449,724.5781 173.9199,724.5781 Q172.5762,724.5781 171.8887,725.6563 Q171.2012,726.7188 171.2012,728.8125 Q171.2012,730.9063 171.8887,731.9844 Q172.5762,733.0469 173.9199,733.0469 Q174.5449,733.0469 175.1387,732.7813 Q175.7324,732.5 176.3574,731.9219 L176.3574,734.6406 Z " fill="#000000"/><text fill="#000000" font-family="sans-serif" font-size="14" lengthAdjust="spacing" textLength="40.5303" x="193.8887" y="733.8467">Client</text><line style="stroke:#181818;stroke-width:0.5;" x1="23" x2="372.8076" y1="745" y2="745"/><g data-visibility-modifier="PRIVATE_FIELD"><rect fill="none" height="6" style="stroke:#C82930;stroke-width:1;" width="6" x="30" y="755.6484"/></g><text fill="#000000" font-family="sans-serif" font-size="14" lengthAdjust="spacing" textLength="156.0234" x="42" y="761.9951">serverAddress : String</text><g data-visibility-modifier="PRIVATE_FIELD"><rect fill="none" height="6" style="stroke:#C82930;stroke-width:1;" width="6" x="30" y="771.9453"/></g><text fill="#000000" font-family="sans-serif" font-size="14" lengthAdjust="spacing" textLength="104.4395" x="42" y="778.292">serverPort : int</text><g data-visibility-modifier="PRIVATE_FIELD"><rect fill="none" height="6" style="stroke:#C82930;stroke-width:1;" width="6" x="30" y="788.2422"/></g><text fill="#000000" font-family="sans-serif" font-size="14" lengthAdjust="spacing" textLength="138.168" x="42" y="794.5889">loggedInUser : User</text><g data-visibility-modifier="PRIVATE_FIELD"><rect fill="none" height="6" style="stroke:#C82930;stroke-width:1;" width="6" x="30" y="804.5391"/></g><text fill="#000000" font-family="sans-serif" font-size="14" lengthAdjust="spacing" textLength="156.1602" x="42" y="810.8857">isConnected : boolean</text><g data-visibility-modifier="PRIVATE_FIELD"><rect fill="none" height="6" style="stroke:#C82930;stroke-width:1;" width="6" x="30" y="820.8359"/></g><text fill="#000000" font-family="sans-serif" font-size="14" lengthAdjust="spacing" textLength="205.0713" x="42" y="827.1826">connectionTimeout : int = 30</text><line style="stroke:#181818;stroke-width:0.5;" x1="23" x2="372.8076" y1="834.4844" y2="834.4844"/><g data-visibility-modifier="PUBLIC_METHOD"><ellipse cx="33" cy="848.1328" fill="#84BE84" rx="3" ry="3" style="stroke:#038048;stroke-width:1;"/></g><text fill="#000000" font-family="sans-serif" font-size="14" lengthAdjust="spacing" textLength="136.3223" x="42" y="851.4795">connect() : boolean</text><g data-visibility-modifier="PUBLIC_METHOD"><ellipse cx="33" cy="864.4297" fill="#84BE84" rx="3" ry="3" style="stroke:#038048;stroke-width:1;"/></g><text fill="#000000" font-family="sans-serif" font-size="14" lengthAdjust="spacing" textLength="130.0469" x="42" y="867.7764">disconnect() : void</text><g data-visibility-modifier="PUBLIC_METHOD"><ellipse cx="33" cy="880.7266" fill="#84BE84" rx="3" ry="3" style="stroke:#038048;stroke-width:1;"/></g><text fill="#000000" font-family="sans-serif" font-size="14" lengthAdjust="spacing" textLength="202.2002" x="42" y="884.0732">sendData(w: Wrapper) : void</text><g data-visibility-modifier="PUBLIC_METHOD"><ellipse cx="33" cy="897.0234" fill="#84BE84" rx="3" ry="3" style="stroke:#038048;stroke-width:1;"/></g><text fill="#000000" font-family="sans-serif" font-size="14" lengthAdjust="spacing" textLength="151.2178" x="42" y="900.3701">receiveData() : String</text><g data-visibility-modifier="PUBLIC_METHOD"><ellipse cx="33" cy="913.3203" fill="#84BE84" rx="3" ry="3" style="stroke:#038048;stroke-width:1;"/></g><text fill="#000000" font-family="sans-serif" font-size="14" lengthAdjust="spacing" textLength="298.1289" x="42" y="916.667">authenticate(u: String, p: String) : boolean</text><g data-visibility-modifier="PUBLIC_METHOD"><ellipse cx="33" cy="929.6172" fill="#84BE84" rx="3" ry="3" style="stroke:#038048;stroke-width:1;"/></g><text fill="#000000" font-family="sans-serif" font-size="14" lengthAdjust="spacing" textLength="325.8076" x="42" y="932.9639">requestMessages(c: Conversation, n: int) : List</text></g><!--class ClientController--><g class="entity" data-qualified-name="Client Layer.ClientController" data-source-line="26" id="ent0006"><rect fill="#F1F1F1" height="259.8594" rx="2.5" ry="2.5" style="stroke:#181818;stroke-width:0.5;" width="392.625" x="125.5" y="376"/><ellipse cx="262.7109" cy="392" fill="#ADD1B2" rx="11" ry="11" style="stroke:#181818;stroke-width:1;"/><path d="M265.6797,397.6406 Q265.1016,397.9375 264.4609,398.0781 Q263.8203,398.2344 263.1172,398.2344 Q260.6172,398.2344 259.2891,396.5938 Q257.9766,394.9375 257.9766,391.8125 Q257.9766,388.6875 259.2891,387.0313 Q260.6172,385.375 263.1172,385.375 Q263.8203,385.375 264.4609,385.5313 Q265.1172,385.6875 265.6797,385.9844 L265.6797,388.7031 Q265.0547,388.125 264.4609,387.8594 Q263.8672,387.5781 263.2422,387.5781 Q261.8984,387.5781 261.2109,388.6563 Q260.5234,389.7188 260.5234,391.8125 Q260.5234,393.9063 261.2109,394.9844 Q261.8984,396.0469 263.2422,396.0469 Q263.8672,396.0469 264.4609,395.7813 Q265.0547,395.5 265.6797,394.9219 L265.6797,397.6406 Z " fill="#000000"/><text fill="#000000" font-family="sans-serif" font-size="14" lengthAdjust="spacing" textLength="109.7031" x="283.2109" y="396.8467">ClientController</text><line style="stroke:#181818;stroke-width:0.5;" x1="126.5" x2="517.125" y1="408" y2="408"/><g data-visibility-modifier="PRIVATE_FIELD"><rect fill="none" height="6" style="stroke:#C82930;stroke-width:1;" width="6" x="133.5" y="418.6484"/></g><text fill="#000000" font-family="sans-serif" font-size="14" lengthAdjust="spacing" textLength="92.5996" x="145.5" y="424.9951">client : Client</text><g data-visibility-modifier="PRIVATE_FIELD"><rect fill="none" height="6" style="stroke:#C82930;stroke-width:1;" width="6" x="133.5" y="434.9453"/></g><text fill="#000000" font-family="sans-serif" font-size="14" lengthAdjust="spacing" textLength="138.168" x="145.5" y="441.292">loggedInUser : User</text><g data-visibility-modifier="PRIVATE_FIELD"><rect fill="none" height="6" style="stroke:#C82930;stroke-width:1;" width="6" x="133.5" y="451.2422"/></g><text fill="#000000" font-family="sans-serif" font-size="14" lengthAdjust="spacing" textLength="179.9971" x="145.5" y="457.5889">activeConversationId : int</text><g data-visibility-modifier="PRIVATE_FIELD"><rect fill="none" height="6" style="stroke:#C82930;stroke-width:1;" width="6" x="133.5" y="467.5391"/></g><text fill="#000000" font-family="sans-serif" font-size="14" lengthAdjust="spacing" textLength="179.7168" x="145.5" y="473.8857">isAuthenticated : boolean</text><line style="stroke:#181818;stroke-width:0.5;" x1="126.5" x2="517.125" y1="481.1875" y2="481.1875"/><g data-visibility-modifier="PUBLIC_METHOD"><ellipse cx="136.5" cy="494.8359" fill="#84BE84" rx="3" ry="3" style="stroke:#038048;stroke-width:1;"/></g><text fill="#000000" font-family="sans-serif" font-size="14" lengthAdjust="spacing" textLength="362.3662" x="145.5" y="498.1826">login(username: String, password: String) : boolean</text><g data-visibility-modifier="PUBLIC_METHOD"><ellipse cx="136.5" cy="511.1328" fill="#84BE84" rx="3" ry="3" style="stroke:#038048;stroke-width:1;"/></g><text fill="#000000" font-family="sans-serif" font-size="14" lengthAdjust="spacing" textLength="98.4375" x="145.5" y="514.4795">logout() : void</text><g data-visibility-modifier="PUBLIC_METHOD"><ellipse cx="136.5" cy="527.4297" fill="#84BE84" rx="3" ry="3" style="stroke:#038048;stroke-width:1;"/></g><text fill="#000000" font-family="sans-serif" font-size="14" lengthAdjust="spacing" textLength="343.4922" x="145.5" y="530.7764">sendChatMessage(text: String, convId: int) : void</text><g data-visibility-modifier="PUBLIC_METHOD"><ellipse cx="136.5" cy="543.7266" fill="#84BE84" rx="3" ry="3" style="stroke:#038048;stroke-width:1;"/></g><text fill="#000000" font-family="sans-serif" font-size="14" lengthAdjust="spacing" textLength="250.5029" x="145.5" y="547.0732">loadConversation(convId: int) : void</text><g data-visibility-modifier="PUBLIC_METHOD"><ellipse cx="136.5" cy="560.0234" fill="#84BE84" rx="3" ry="3" style="stroke:#038048;stroke-width:1;"/></g><text fill="#000000" font-family="sans-serif" font-size="14" lengthAdjust="spacing" textLength="306.8037" x="145.5" y="563.3701">loadMoreMessages(convId: int, n: int) : void</text><g data-visibility-modifier="PUBLIC_METHOD"><ellipse cx="136.5" cy="576.3203" fill="#84BE84" rx="3" ry="3" style="stroke:#038048;stroke-width:1;"/></g><text fill="#000000" font-family="sans-serif" font-size="14" lengthAdjust="spacing" textLength="243.168" x="145.5" y="579.667">handleIncoming(raw: String) : void</text><g data-visibility-modifier="PUBLIC_METHOD"><ellipse cx="136.5" cy="592.6172" fill="#84BE84" rx="3" ry="3" style="stroke:#038048;stroke-width:1;"/></g><text fill="#000000" font-family="sans-serif" font-size="14" lengthAdjust="spacing" textLength="366.625" x="145.5" y="595.9639">wrapAndSend(requestID: int, payload: Object) : void</text><g data-visibility-modifier="PUBLIC_METHOD"><ellipse cx="136.5" cy="608.9141" fill="#84BE84" rx="3" ry="3" style="stroke:#038048;stroke-width:1;"/></g><text fill="#000000" font-family="sans-serif" font-size="14" lengthAdjust="spacing" textLength="281.8799" x="145.5" y="612.2607">unwrapResponse(raw: String) : Wrapper</text><g data-visibility-modifier="PUBLIC_METHOD"><ellipse cx="136.5" cy="625.2109" fill="#84BE84" rx="3" ry="3" style="stroke:#038048;stroke-width:1;"/></g><text fill="#000000" font-family="sans-serif" font-size="14" lengthAdjust="spacing" textLength="128.7207" x="145.5" y="628.5576">updateGUI() : void</text></g><!--class ConversationHandler--><g class="entity" data-qualified-name="Client Layer.ConversationHandler" data-source-line="42" id="ent0007"><rect fill="#F1F1F1" height="194.6719" rx="2.5" ry="2.5" style="stroke:#181818;stroke-width:0.5;" width="361.1729" x="408.5" y="729"/><ellipse cx="510.9946" cy="745" fill="#ADD1B2" rx="11" ry="11" style="stroke:#181818;stroke-width:1;"/><path d="M513.9634,750.6406 Q513.3853,750.9375 512.7446,751.0781 Q512.104,751.2344 511.4009,751.2344 Q508.9009,751.2344 507.5728,749.5938 Q506.2603,747.9375 506.2603,744.8125 Q506.2603,741.6875 507.5728,740.0313 Q508.9009,738.375 511.4009,738.375 Q512.104,738.375 512.7446,738.5313 Q513.4009,738.6875 513.9634,738.9844 L513.9634,741.7031 Q513.3384,741.125 512.7446,740.8594 Q512.1509,740.5781 511.5259,740.5781 Q510.1821,740.5781 509.4946,741.6563 Q508.8071,742.7188 508.8071,744.8125 Q508.8071,746.9063 509.4946,747.9844 Q510.1821,749.0469 511.5259,749.0469 Q512.1509,749.0469 512.7446,748.7813 Q513.3384,748.5 513.9634,747.9219 L513.9634,750.6406 Z " fill="#000000"/><text fill="#000000" font-family="sans-serif" font-size="14" lengthAdjust="spacing" textLength="147.6836" x="531.4946" y="749.8467">ConversationHandler</text><line style="stroke:#181818;stroke-width:0.5;" x1="409.5" x2="768.6729" y1="761" y2="761"/><g data-visibility-modifier="PRIVATE_FIELD"><rect fill="none" height="6" style="stroke:#C82930;stroke-width:1;" width="6" x="416.5" y="771.6484"/></g><text fill="#000000" font-family="sans-serif" font-size="14" lengthAdjust="spacing" textLength="135.8643" x="428.5" y="777.9951">conversations : List</text><g data-visibility-modifier="PRIVATE_FIELD"><rect fill="none" height="6" style="stroke:#C82930;stroke-width:1;" width="6" x="416.5" y="787.9453"/></g><text fill="#000000" font-family="sans-serif" font-size="14" lengthAdjust="spacing" textLength="179.9971" x="428.5" y="794.292">activeConversationId : int</text><line style="stroke:#181818;stroke-width:0.5;" x1="409.5" x2="768.6729" y1="801.5938" y2="801.5938"/><g data-visibility-modifier="PUBLIC_METHOD"><ellipse cx="419.5" cy="815.2422" fill="#84BE84" rx="3" ry="3" style="stroke:#038048;stroke-width:1;"/></g><text fill="#000000" font-family="sans-serif" font-size="14" lengthAdjust="spacing" textLength="315.3555" x="428.5" y="818.5889">loadConversations(conversations: List) : void</text><g data-visibility-modifier="PUBLIC_METHOD"><ellipse cx="419.5" cy="831.5391" fill="#84BE84" rx="3" ry="3" style="stroke:#038048;stroke-width:1;"/></g><text fill="#000000" font-family="sans-serif" font-size="14" lengthAdjust="spacing" textLength="306.5029" x="428.5" y="834.8857">getConversation(convId: int) : Conversation</text><g data-visibility-modifier="PUBLIC_METHOD"><ellipse cx="419.5" cy="847.8359" fill="#84BE84" rx="3" ry="3" style="stroke:#038048;stroke-width:1;"/></g><text fill="#000000" font-family="sans-serif" font-size="14" lengthAdjust="spacing" textLength="189.2119" x="428.5" y="851.1826">getAllConversations() : List</text><g data-visibility-modifier="PUBLIC_METHOD"><ellipse cx="419.5" cy="864.1328" fill="#84BE84" rx="3" ry="3" style="stroke:#038048;stroke-width:1;"/></g><text fill="#000000" font-family="sans-serif" font-size="14" lengthAdjust="spacing" textLength="285.5303" x="428.5" y="867.4795">setActiveConversation(convId: int) : void</text><g data-visibility-modifier="PUBLIC_METHOD"><ellipse cx="419.5" cy="880.4297" fill="#84BE84" rx="3" ry="3" style="stroke:#038048;stroke-width:1;"/></g><text fill="#000000" font-family="sans-serif" font-size="14" lengthAdjust="spacing" textLength="276.1992" x="428.5" y="883.7764">getActiveConversation() : Conversation</text><g data-visibility-modifier="PUBLIC_METHOD"><ellipse cx="419.5" cy="896.7266" fill="#84BE84" rx="3" ry="3" style="stroke:#038048;stroke-width:1;"/></g><text fill="#000000" font-family="sans-serif" font-size="14" lengthAdjust="spacing" textLength="335.1729" x="428.5" y="900.0732">appendMessage(convId: int, m: Message) : void</text><g data-visibility-modifier="PUBLIC_METHOD"><ellipse cx="419.5" cy="913.0234" fill="#84BE84" rx="3" ry="3" style="stroke:#038048;stroke-width:1;"/></g><text fill="#000000" font-family="sans-serif" font-size="14" lengthAdjust="spacing" textLength="259.7041" x="428.5" y="916.3701">getMessages(convId: int, n: int) : List</text></g><!--class Conversation--><g class="entity" data-qualified-name="Model Layer.Conversation" data-source-line="56" id="ent0009"><rect fill="#F1F1F1" height="162.0781" rx="2.5" ry="2.5" style="stroke:#181818;stroke-width:0.5;" width="252.0439" x="463" y="1040"/><ellipse cx="538.4927" cy="1056" fill="#A9DCDF" rx="11" ry="11" style="stroke:#181818;stroke-width:1;"/><path d="M538.6021,1051.3438 L537.4458,1056.4219 L539.7739,1056.4219 L538.6021,1051.3438 Z M537.1177,1049.1094 L540.1021,1049.1094 L543.4614,1061.5 L541.0083,1061.5 L540.2427,1058.4375 L536.9614,1058.4375 L536.2114,1061.5 L533.7739,1061.5 L537.1177,1049.1094 Z " fill="#000000"/><text fill="#000000" font-family="sans-serif" font-size="14" font-style="italic" lengthAdjust="spacing" textLength="92.5586" x="558.9927" y="1060.8467">Conversation</text><line style="stroke:#181818;stroke-width:0.5;" x1="464" x2="714.0439" y1="1072" y2="1072"/><g data-visibility-modifier="PRIVATE_FIELD"><rect fill="none" height="6" style="stroke:#C82930;stroke-width:1;" width="6" x="471" y="1082.6484"/></g><text fill="#000000" font-family="sans-serif" font-size="14" lengthAdjust="spacing" textLength="135.3652" x="483" y="1088.9951">conversationId : int</text><g data-visibility-modifier="PRIVATE_FIELD"><rect fill="none" height="6" style="stroke:#C82930;stroke-width:1;" width="6" x="471" y="1098.9453"/></g><text fill="#000000" font-family="sans-serif" font-size="14" lengthAdjust="spacing" textLength="121.3994" x="483" y="1105.292">participants : List</text><g data-visibility-modifier="PRIVATE_FIELD"><rect fill="none" height="6" style="stroke:#C82930;stroke-width:1;" width="6" x="471" y="1115.2422"/></g><text fill="#000000" font-family="sans-serif" font-size="14" lengthAdjust="spacing" textLength="108.3018" x="483" y="1121.5889">messages : List</text><g data-visibility-modifier="PRIVATE_FIELD"><rect fill="none" height="6" style="stroke:#C82930;stroke-width:1;" width="6" x="471" y="1131.5391"/></g><text fill="#000000" font-family="sans-serif" font-size="14" lengthAdjust="spacing" textLength="112.5332" x="483" y="1137.8857">createdAt : long</text><line style="stroke:#181818;stroke-width:0.5;" x1="464" x2="714.0439" y1="1145.1875" y2="1145.1875"/><g data-visibility-modifier="PUBLIC_METHOD"><ellipse cx="474" cy="1158.8359" fill="#84BE84" rx="3" ry="3" style="stroke:#038048;stroke-width:1;"/></g><text fill="#000000" font-family="sans-serif" font-size="14" lengthAdjust="spacing" textLength="226.0439" x="483" y="1162.1826">addMessage(m: Message) : void</text><g data-visibility-modifier="PUBLIC_METHOD"><ellipse cx="474" cy="1175.1328" fill="#84BE84" rx="3" ry="3" style="stroke:#038048;stroke-width:1;"/></g><text fill="#000000" font-family="sans-serif" font-size="14" lengthAdjust="spacing" textLength="176.9482" x="483" y="1178.4795">getMessages(n: int) : List</text><g data-visibility-modifier="PUBLIC_METHOD"><ellipse cx="474" cy="1191.4297" fill="#84BE84" rx="3" ry="3" style="stroke:#038048;stroke-width:1;"/></g><text fill="#000000" font-family="sans-serif" font-size="14" lengthAdjust="spacing" textLength="154.8682" x="483" y="1194.7764">getParticipants() : List</text></g><!--class Message--><g class="entity" data-qualified-name="Model Layer.Message" data-source-line="66" id="ent0010"><rect fill="#F1F1F1" height="227.2656" rx="2.5" ry="2.5" style="stroke:#181818;stroke-width:0.5;" width="220.0039" x="479" y="1279"/><ellipse cx="554.0723" cy="1295" fill="#ADD1B2" rx="11" ry="11" style="stroke:#181818;stroke-width:1;"/><path d="M557.041,1300.6406 Q556.4629,1300.9375 555.8223,1301.0781 Q555.1816,1301.2344 554.4785,1301.2344 Q551.9785,1301.2344 550.6504,1299.5938 Q549.3379,1297.9375 549.3379,1294.8125 Q549.3379,1291.6875 550.6504,1290.0313 Q551.9785,1288.375 554.4785,1288.375 Q555.1816,1288.375 555.8223,1288.5313 Q556.4785,1288.6875 557.041,1288.9844 L557.041,1291.7031 Q556.416,1291.125 555.8223,1290.8594 Q555.2285,1290.5781 554.6035,1290.5781 Q553.2598,1290.5781 552.5723,1291.6563 Q551.8848,1292.7188 551.8848,1294.8125 Q551.8848,1296.9063 552.5723,1297.9844 Q553.2598,1299.0469 554.6035,1299.0469 Q555.2285,1299.0469 555.8223,1298.7813 Q556.416,1298.5 557.041,1297.9219 L557.041,1300.6406 Z " fill="#000000"/><text fill="#000000" font-family="sans-serif" font-size="14" lengthAdjust="spacing" textLength="61.3594" x="574.5723" y="1299.8467">Message</text><line style="stroke:#181818;stroke-width:0.5;" x1="480" x2="698.0039" y1="1311" y2="1311"/><g data-visibility-modifier="PRIVATE_FIELD"><rect fill="none" height="6" style="stroke:#C82930;stroke-width:1;" width="6" x="487" y="1321.6484"/></g><text fill="#000000" font-family="sans-serif" font-size="14" lengthAdjust="spacing" textLength="107.8027" x="499" y="1327.9951">messageId : int</text><g data-visibility-modifier="PRIVATE_FIELD"><rect fill="none" height="6" style="stroke:#C82930;stroke-width:1;" width="6" x="487" y="1337.9453"/></g><text fill="#000000" font-family="sans-serif" font-size="14" lengthAdjust="spacing" textLength="83.2754" x="499" y="1344.292">text : String</text><g data-visibility-modifier="PRIVATE_FIELD"><rect fill="none" height="6" style="stroke:#C82930;stroke-width:1;" width="6" x="487" y="1354.2422"/></g><text fill="#000000" font-family="sans-serif" font-size="14" lengthAdjust="spacing" textLength="119.3486" x="499" y="1360.5889">timestamp : long</text><g data-visibility-modifier="PRIVATE_FIELD"><rect fill="none" height="6" style="stroke:#C82930;stroke-width:1;" width="6" x="487" y="1370.5391"/></g><text fill="#000000" font-family="sans-serif" font-size="14" lengthAdjust="spacing" textLength="93.5635" x="499" y="1376.8857">sender : User</text><g data-visibility-modifier="PRIVATE_FIELD"><rect fill="none" height="6" style="stroke:#C82930;stroke-width:1;" width="6" x="487" y="1386.8359"/></g><text fill="#000000" font-family="sans-serif" font-size="14" lengthAdjust="spacing" textLength="135.3652" x="499" y="1393.1826">conversationId : int</text><g data-visibility-modifier="PRIVATE_FIELD"><rect fill="none" height="6" style="stroke:#C82930;stroke-width:1;" width="6" x="487" y="1403.1328"/></g><text fill="#000000" font-family="sans-serif" font-size="14" lengthAdjust="spacing" textLength="116.5801" x="499" y="1409.4795">isRead : boolean</text><g data-visibility-modifier="PRIVATE_FIELD"><rect fill="none" height="6" style="stroke:#C82930;stroke-width:1;" width="6" x="487" y="1419.4297"/></g><text fill="#000000" font-family="sans-serif" font-size="14" lengthAdjust="spacing" textLength="194.0039" x="499" y="1425.7764">encoding : String = "UTF-8"</text><line style="stroke:#181818;stroke-width:0.5;" x1="480" x2="698.0039" y1="1433.0781" y2="1433.0781"/><g data-visibility-modifier="PUBLIC_METHOD"><ellipse cx="490" cy="1446.7266" fill="#84BE84" rx="3" ry="3" style="stroke:#038048;stroke-width:1;"/></g><text fill="#000000" font-family="sans-serif" font-size="14" lengthAdjust="spacing" textLength="120.251" x="499" y="1450.0732">getText() : String</text><g data-visibility-modifier="PUBLIC_METHOD"><ellipse cx="490" cy="1463.0234" fill="#84BE84" rx="3" ry="3" style="stroke:#038048;stroke-width:1;"/></g><text fill="#000000" font-family="sans-serif" font-size="14" lengthAdjust="spacing" textLength="156.3242" x="499" y="1466.3701">getTimestamp() : long</text><g data-visibility-modifier="PUBLIC_METHOD"><ellipse cx="490" cy="1479.3203" fill="#84BE84" rx="3" ry="3" style="stroke:#038048;stroke-width:1;"/></g><text fill="#000000" font-family="sans-serif" font-size="14" lengthAdjust="spacing" textLength="142.9258" x="499" y="1482.667">markAsRead() : void</text><g data-visibility-modifier="PUBLIC_METHOD"><ellipse cx="490" cy="1495.6172" fill="#84BE84" rx="3" ry="3" style="stroke:#038048;stroke-width:1;"/></g><text fill="#000000" font-family="sans-serif" font-size="14" lengthAdjust="spacing" textLength="124.1953" x="499" y="1498.9639">serialize() : String</text></g><!--class GUIModule--><g class="entity" data-qualified-name="GUI Layer.GUIModule" data-source-line="82" id="ent0012"><rect fill="#F1F1F1" height="210.9688" rx="2.5" ry="2.5" style="stroke:#181818;stroke-width:0.5;" width="313.8477" x="413" y="49"/><ellipse cx="527.6079" cy="65" fill="#ADD1B2" rx="11" ry="11" style="stroke:#181818;stroke-width:1;"/><path d="M530.5767,70.6406 Q529.9985,70.9375 529.3579,71.0781 Q528.7173,71.2344 528.0142,71.2344 Q525.5142,71.2344 524.186,69.5938 Q522.8735,67.9375 522.8735,64.8125 Q522.8735,61.6875 524.186,60.0313 Q525.5142,58.375 528.0142,58.375 Q528.7173,58.375 529.3579,58.5313 Q530.0142,58.6875 530.5767,58.9844 L530.5767,61.7031 Q529.9517,61.125 529.3579,60.8594 Q528.7642,60.5781 528.1392,60.5781 Q526.7954,60.5781 526.1079,61.6563 Q525.4204,62.7188 525.4204,64.8125 Q525.4204,66.9063 526.1079,67.9844 Q526.7954,69.0469 528.1392,69.0469 Q528.7642,69.0469 529.3579,68.7813 Q529.9517,68.5 530.5767,67.9219 L530.5767,70.6406 Z " fill="#000000"/><text fill="#000000" font-family="sans-serif" font-size="14" lengthAdjust="spacing" textLength="76.1318" x="548.1079" y="69.8467">GUIModule</text><line style="stroke:#181818;stroke-width:0.5;" x1="414" x2="725.8477" y1="81" y2="81"/><g data-visibility-modifier="PRIVATE_FIELD"><rect fill="none" height="6" style="stroke:#C82930;stroke-width:1;" width="6" x="421" y="91.6484"/></g><text fill="#000000" font-family="sans-serif" font-size="14" lengthAdjust="spacing" textLength="139.9863" x="433" y="97.9951">currentView : String</text><g data-visibility-modifier="PRIVATE_FIELD"><rect fill="none" height="6" style="stroke:#C82930;stroke-width:1;" width="6" x="421" y="107.9453"/></g><text fill="#000000" font-family="sans-serif" font-size="14" lengthAdjust="spacing" textLength="92.5996" x="433" y="114.292">client : Client</text><line style="stroke:#181818;stroke-width:0.5;" x1="414" x2="725.8477" y1="121.5938" y2="121.5938"/><g data-visibility-modifier="PUBLIC_METHOD"><ellipse cx="424" cy="135.2422" fill="#84BE84" rx="3" ry="3" style="stroke:#038048;stroke-width:1;"/></g><text fill="#000000" font-family="sans-serif" font-size="14" lengthAdjust="spacing" textLength="176.8047" x="433" y="138.5889">showLoginScreen() : void</text><g data-visibility-modifier="PUBLIC_METHOD"><ellipse cx="424" cy="151.5391" fill="#84BE84" rx="3" ry="3" style="stroke:#038048;stroke-width:1;"/></g><text fill="#000000" font-family="sans-serif" font-size="14" lengthAdjust="spacing" textLength="190.2031" x="433" y="154.8857">showConversations() : void</text><g data-visibility-modifier="PUBLIC_METHOD"><ellipse cx="424" cy="167.8359" fill="#84BE84" rx="3" ry="3" style="stroke:#038048;stroke-width:1;"/></g><text fill="#000000" font-family="sans-serif" font-size="14" lengthAdjust="spacing" textLength="268.4268" x="433" y="171.1826">showMessages(c: Conversation) : void</text><g data-visibility-modifier="PUBLIC_METHOD"><ellipse cx="424" cy="184.1328" fill="#84BE84" rx="3" ry="3" style="stroke:#038048;stroke-width:1;"/></g><text fill="#000000" font-family="sans-serif" font-size="14" lengthAdjust="spacing" textLength="162.6953" x="433" y="187.4795">showSearchBar() : void</text><g data-visibility-modifier="PUBLIC_METHOD"><ellipse cx="424" cy="200.4297" fill="#84BE84" rx="3" ry="3" style="stroke:#038048;stroke-width:1;"/></g><text fill="#000000" font-family="sans-serif" font-size="14" lengthAdjust="spacing" textLength="254.5771" x="433" y="203.7764">notifyUnread(c: Conversation) : void</text><g data-visibility-modifier="PUBLIC_METHOD"><ellipse cx="424" cy="216.7266" fill="#84BE84" rx="3" ry="3" style="stroke:#038048;stroke-width:1;"/></g><text fill="#000000" font-family="sans-serif" font-size="14" lengthAdjust="spacing" textLength="287.8477" x="433" y="220.0732">markConvAsRead(c: Conversation) : void</text><g data-visibility-modifier="PUBLIC_METHOD"><ellipse cx="424" cy="233.0234" fill="#84BE84" rx="3" ry="3" style="stroke:#038048;stroke-width:1;"/></g><text fill="#000000" font-family="sans-serif" font-size="14" lengthAdjust="spacing" textLength="198.707" x="433" y="236.3701">showUserInfo(u: User) : void</text><g data-visibility-modifier="PUBLIC_METHOD"><ellipse cx="424" cy="249.3203" fill="#84BE84" rx="3" ry="3" style="stroke:#038048;stroke-width:1;"/></g><text fill="#000000" font-family="sans-serif" font-size="14" lengthAdjust="spacing" textLength="171.0693" x="433" y="252.667">displayInputText() : void</text></g><!--link ClientController to Client--><g class="link" data-entity-1="ent0006" data-entity-2="ent0005" data-link-type="dependency" data-source-line="95" id="lnk13"><path codeLine="95" d="M271.74,636.09 C261.84,661.52 253.6966,682.4287 244.0266,707.2687" fill="none" id="ClientController-to-Client" style="stroke:#181818;stroke-width:1;"/><polygon fill="#181818" points="241.85,712.86,248.8425,705.9242,243.6639,708.2006,241.3874,703.022,241.85,712.86" style="stroke:#181818;stroke-width:1;"/><text fill="#000000" font-family="sans-serif" font-size="13" lengthAdjust="spacing" textLength="29.7832" x="261" y="679.0669">uses</text><text fill="#000000" font-family="sans-serif" font-size="13" lengthAdjust="spacing" textLength="8.271" x="260.6218" y="656.1192">1</text><text fill="#000000" font-family="sans-serif" font-size="13" lengthAdjust="spacing" textLength="8.271" x="236.543" y="701.7833">1</text></g><!--link ClientController to ConversationHandler--><g class="link" data-entity-1="ent0006" data-entity-2="ent0007" data-link-type="dependency" data-source-line="96" id="lnk14"><path codeLine="96" d="M430.21,636.09 C456.09,666.95 479.4254,694.7919 503.8454,723.9219" fill="none" id="ClientController-to-ConversationHandler" style="stroke:#181818;stroke-width:1;"/><polygon fill="#181818" points="507.7,728.52,504.9835,719.0532,504.4878,724.6883,498.8527,724.1927,507.7,728.52" style="stroke:#181818;stroke-width:1;"/><text fill="#000000" font-family="sans-serif" font-size="13" lengthAdjust="spacing" textLength="59.8584" x="464" y="679.0669">manages</text><text fill="#000000" font-family="sans-serif" font-size="13" lengthAdjust="spacing" textLength="8.271" x="428.2533" y="656.1192">1</text><text fill="#000000" font-family="sans-serif" font-size="13" lengthAdjust="spacing" textLength="8.271" x="493.4394" y="717.8576">1</text></g><!--link Client to Wrapper--><g class="link" data-entity-1="ent0005" data-entity-2="ent0003" data-link-type="dependency" data-source-line="97" id="lnk15"><path codeLine="97" d="M198,940.17 C198,982.66 198,1023.14 198,1058.2" fill="none" id="Client-to-Wrapper" style="stroke:#181818;stroke-width:1;stroke-dasharray:7,7;"/><polygon fill="#181818" points="198,1064.2,202,1055.2,198,1059.2,194,1055.2,198,1064.2" style="stroke:#181818;stroke-width:1;"/><text fill="#000000" font-family="sans-serif" font-size="13" lengthAdjust="spacing" textLength="152.8325" x="199" y="985.0669">serializes requests with</text></g><!--reverse link ConversationHandler to Conversation--><g class="link" data-entity-1="ent0007" data-entity-2="ent0009" data-link-type="aggregation" data-source-line="98" id="lnk16"><path codeLine="98" d="M589,936.09 C589,973.53 589,1003.9 589,1039.63" fill="none" id="ConversationHandler-backto-Conversation" style="stroke:#181818;stroke-width:1;"/><polygon fill="none" points="589,924.09,585,930.09,589,936.09,593,930.09,589,924.09" style="stroke:#181818;stroke-width:1;"/><text fill="#000000" font-family="sans-serif" font-size="13" lengthAdjust="spacing" textLength="34.8296" x="590" y="985.0669">holds</text><text fill="#000000" font-family="sans-serif" font-size="13" lengthAdjust="spacing" textLength="8.271" x="580.7099" y="943.8914">1</text><text fill="#000000" font-family="sans-serif" font-size="13" lengthAdjust="spacing" textLength="6.5" x="582.7618" y="1029.062">*</text></g><!--reverse link Conversation to Message--><g class="link" data-entity-1="ent0009" data-entity-2="ent0010" data-link-type="composition" data-source-line="99" id="lnk17"><path codeLine="99" d="M589,1214.13 C589,1238.18 589,1253.02 589,1278.76" fill="none" id="Conversation-backto-Message" style="stroke:#181818;stroke-width:1;"/><polygon fill="#181818" points="589,1202.13,585,1208.13,589,1214.13,593,1208.13,589,1202.13" style="stroke:#181818;stroke-width:1;"/><text fill="#000000" font-family="sans-serif" font-size="13" lengthAdjust="spacing" textLength="55.0278" x="590" y="1245.0669">contains</text><text fill="#000000" font-family="sans-serif" font-size="13" lengthAdjust="spacing" textLength="8.271" x="580.6539" y="1222.0929">1</text><text fill="#000000" font-family="sans-serif" font-size="13" lengthAdjust="spacing" textLength="23.0356" x="565.2643" y="1268.0557">1..*</text></g><!--link GUI Layer to ClientController--><g class="link" data-entity-1="ent0011" data-entity-2="ent0006" data-link-type="dependency" data-source-line="100" id="lnk18"><path codeLine="100" d="M369.9551,205.724 C369.863,206.299 369.7703,206.8777 369.677,207.4601 C369.3037,209.7898 368.9211,212.1782 368.5297,214.6214 C367.7468,219.5078 366.9289,224.613 366.0813,229.9037 C359.3,272.23 351.5643,320.5106 343.6993,369.5956" fill="none" id="GUI Layer-to-ClientController" style="stroke:#181818;stroke-width:1;"/><polygon fill="#181818" points="342.75,375.52,348.1235,367.2662,343.5411,370.583,340.2243,366.0005,342.75,375.52" style="stroke:#181818;stroke-width:1;"/><text fill="#000000" font-family="sans-serif" font-size="13" lengthAdjust="spacing" textLength="71.6587" x="354" y="321.0669">commands</text><text fill="#000000" font-family="sans-serif" font-size="13" lengthAdjust="spacing" textLength="8.271" x="369.99" y="152.6269">1</text><text fill="#000000" font-family="sans-serif" font-size="13" lengthAdjust="spacing" textLength="8.271" x="335.6837" y="365.0486">1</text></g><!--link GUIModule to ConversationHandler--><g class="link" data-entity-1="ent0012" data-entity-2="ent0007" data-link-type="dependency" data-source-line="101" id="lnk19"><path codeLine="101" d="M572.97,260.19 C576.61,388.54 582.56,598.3324 586.09,722.8824" fill="none" id="GUIModule-to-ConversationHandler" style="stroke:#181818;stroke-width:1;"/><polygon fill="#181818" points="586.26,728.88,590.0034,719.7703,586.1183,723.882,582.0066,719.9969,586.26,728.88" style="stroke:#181818;stroke-width:1;"/><text fill="#000000" font-family="sans-serif" font-size="13" lengthAdjust="spacing" textLength="71.0049" x="584" y="510.5669">reads from</text><text fill="#000000" font-family="sans-serif" font-size="13" lengthAdjust="spacing" textLength="8.271" x="564.915" y="279.8674">1</text><text fill="#000000" font-family="sans-serif" font-size="13" lengthAdjust="spacing" textLength="8.271" x="577.7477" y="717.9163">1</text></g><?plantuml-src ZLR9Rjim4BthAmYVbCL6WruA0GtW9cWh8463E6xFZ3YnsKYaIb9stI3_tg5CMPH4BxfucOLltZpDiAJPArq06JtGJIuf8tTq0sf4tYA2JvPJhSalHSiIbFlFFcEYu4y5sgIt925S6CzIkaG9-V7y6xBMT44MO1wRkFYi5rcR7OhQw8M_H-zHL3PGRt8EmhH8FQZEv2FLe5QWfemfG8U4p8pYOZ5mU93A36h9vM81B1Lpz46Z_V2iNDz88H0Zs6gVfSo12i-URQrSYYTUWAnSVlAPVFpWbUtSwfhxIIu8uzftM4dEFAi6mMwfeV4wQTeKy5AG0Lz1xNWsfE22qCeiaJUUKGDnrJXSahBv6iRcH72Fn69ZT9mb11b1CZMrLLyIKHTiW--uRbevQ1V662Npl2UnRDlBn7cTt1QAbA_01vAoGMUvdderis1vU0mNSONP1It0OmMXhwLYXyd1Q6pvlgRTB6d3MspWhscpOxTNATiHrukrRuTVMdpS_LugQ5lKklljwOKjgM0vf2AJ1MAA5LtxjVQSrwYxgM0ph2hUZGLtWXi6pSiSYAw4ZNy4NKgXeN-KqxJlNp9isBTvscMsAokFeEzrAJrbUNRjY_Da0GqRiQLszskRD50l3hb3_VDjtQXfddVFE-iZjyeoqm7u8n9P16CEOB4T4QmHRqTGHKBS_-63ZidGcnB-mB-N378tx-i-qcTj5BOfqE-zZGuCWP8gVFzvIOK9oA1mO8UMJ84T6bCxd7BPdQHinyp9P0JgznPY2p7UFqXThhSX_43PTjw45g71BQKDBSf-MUDwP8LcRNPioZu23Iz7mE72yFmT45oBe_dJr_6dKPU19qGRtbhMs42kFNgzAAXwdTO8mbDOSPhpVz1FtjKUJfhGdGZ_HbLMENJrLYc5E-KdXtM8u7qR3S4ivVhEhfiPQWj442-w30T0m6dVEjxZFWEgikKNgaBvX3JyPJCNof9uF9zbtBeuray3O2MLYXTfBnxsUy0DBq5bJZUfAAjM3zxiVuy6DudHrOYCnzVrfxiLTfw4u6BNH-82UoJ18eMbruMIoUHwTqC-_2IjvdHpTz9apSqo2fra4SZnc8pEkqXShgNCcUu4rX7dDk9gCi4W9uG-27nd3UL2HxwsXtHvdBYm0Yl78rlfanFOiihHv4N98leF?></g></svg>