<?plantuml 1.2026.2?><svg xmlns="http://www.w3.org/2000/svg" xmlns:xlink="http://www.w3.org/1999/xlink" contentStyleType="text/css" data-diagram-type="CLASS" height="701px" preserveAspectRatio="none" style="width:869px;height:701px;background:#FFFFFF;" version="1.1" viewBox="0 0 869 701" width="869px" zoomAndPan="magnify"><defs/><g><!--cluster Model Layer--><g class="cluster" data-qualified-name="Model Layer" data-source-line="3" id="ent0002"><path d="M8.5,6 L106.1328,6 A3.75,3.75 0 0 1 108.6328,8.5 L115.6328,28.2969 L859.5,28.2969 A2.5,2.5 0 0 1 862,30.7969 L862,691.5 A2.5,2.5 0 0 1 859.5,694 L8.5,694 A2.5,2.5 0 0 1 6,691.5 L6,8.5 A2.5,2.5 0 0 1 8.5,6" fill="none" style="stroke:#000000;stroke-width:1.5;"/><line style="stroke:#000000;stroke-width:1.5;" x1="6" x2="115.6328" y1="28.2969" y2="28.2969"/><text fill="#000000" font-family="sans-serif" font-size="14" font-weight="bold" lengthAdjust="spacing" textLength="96.6328" x="10" y="20.9951">Model Layer</text></g><!--class User--><g class="entity" data-qualified-name="Model Layer.User" data-source-line="5" id="ent0003"><rect fill="#F1F1F1" height="235.5313" rx="2.5" ry="2.5" style="stroke:#181818;stroke-width:0.5;" width="392.7344" x="452.5" y="41"/><ellipse cx="605.2559" cy="61.1328" fill="#A9DCDF" rx="11" ry="11" style="stroke:#181818;stroke-width:1;"/><path d="M605.3652,56.4766 L604.209,61.5547 L606.5371,61.5547 L605.3652,56.4766 Z M603.8809,54.2422 L606.8652,54.2422 L610.2246,66.6328 L607.7715,66.6328 L607.0059,63.5703 L603.7246,63.5703 L602.9746,66.6328 L600.5371,66.6328 L603.8809,54.2422 Z " fill="#000000"/><text fill="#000000" font-family="sans-serif" font-size="12" font-style="italic" lengthAdjust="spacing" textLength="82.7227" x="623.7559" y="57.1387">&#171;serializable&#187;</text><text fill="#000000" font-family="sans-serif" font-size="14" font-style="italic" lengthAdjust="spacing" textLength="31.9102" x="649.1621" y="72.9639">User</text><line style="stroke:#181818;stroke-width:0.5;" x1="453.5" x2="844.2344" y1="81.2656" y2="81.2656"/><text fill="#000000" font-family="sans-serif" font-size="14" lengthAdjust="spacing" textLength="119.5469" x="458.5" y="98.2607">-static count : Int</text><text fill="#000000" font-family="sans-serif" font-size="14" lengthAdjust="spacing" textLength="104.002" x="458.5" y="114.5576">-userId : String</text><text fill="#000000" font-family="sans-serif" font-size="14" lengthAdjust="spacing" textLength="143.541" x="458.5" y="130.8545">-logininfo : LoginInfo</text><text fill="#000000" font-family="sans-serif" font-size="14" lengthAdjust="spacing" textLength="128.5908" x="458.5" y="147.1514">-realName : String</text><text fill="#000000" font-family="sans-serif" font-size="14" lengthAdjust="spacing" textLength="115.9033" x="458.5" y="163.4482">-position : String</text><text fill="#000000" font-family="sans-serif" font-size="14" lengthAdjust="spacing" textLength="116.6484" x="458.5" y="179.7451">-itUser : Boolean</text><text fill="#000000" font-family="sans-serif" font-size="14" lengthAdjust="spacing" textLength="259.0205" x="458.5" y="196.042">-conversationIDs : ArrayList&lt;String&gt;</text><text fill="#000000" font-family="sans-serif" font-size="14" lengthAdjust="spacing" textLength="380.7344" x="458.5" y="212.3389">-unreadConversationIDs : Unordered, Unique&lt;String&gt;</text><line style="stroke:#181818;stroke-width:0.5;" x1="453.5" x2="844.2344" y1="219.6406" y2="219.6406"/><text fill="#000000" font-family="sans-serif" font-size="14" lengthAdjust="spacing" textLength="54.5645" x="458.5" y="236.6357">+User()</text><text fill="#000000" font-family="sans-serif" font-size="14" lengthAdjust="spacing" textLength="311.2129" x="458.5" y="252.9326">+User(username : String, password : String)</text><text fill="#000000" font-family="sans-serif" font-size="14" lengthAdjust="spacing" textLength="306.7695" x="458.5" y="269.2295">+getters and setters for all values (various)</text></g><!--class LoginInfo--><g class="entity" data-qualified-name="Model Layer.LoginInfo" data-source-line="19" id="ent0004"><rect fill="#F1F1F1" height="154.0469" rx="2.5" ry="2.5" style="stroke:#181818;stroke-width:0.5;" width="266.7549" x="578.5" y="352"/><ellipse cx="668.2661" cy="372.1328" fill="#ADD1B2" rx="11" ry="11" style="stroke:#181818;stroke-width:1;"/><path d="M671.2349,377.7734 Q670.6567,378.0703 670.0161,378.2109 Q669.3755,378.3672 668.6724,378.3672 Q666.1724,378.3672 664.8442,376.7266 Q663.5317,375.0703 663.5317,371.9453 Q663.5317,368.8203 664.8442,367.1641 Q666.1724,365.5078 668.6724,365.5078 Q669.3755,365.5078 670.0161,365.6641 Q670.6724,365.8203 671.2349,366.1172 L671.2349,368.8359 Q670.6099,368.2578 670.0161,367.9922 Q669.4224,367.7109 668.7974,367.7109 Q667.4536,367.7109 666.7661,368.7891 Q666.0786,369.8516 666.0786,371.9453 Q666.0786,374.0391 666.7661,375.1172 Q667.4536,376.1797 668.7974,376.1797 Q669.4224,376.1797 670.0161,375.9141 Q670.6099,375.6328 671.2349,375.0547 L671.2349,377.7734 Z " fill="#000000"/><text fill="#000000" font-family="sans-serif" font-size="12" font-style="italic" lengthAdjust="spacing" textLength="82.7227" x="686.7661" y="368.1387">&#171;serializable&#187;</text><text fill="#000000" font-family="sans-serif" font-size="14" lengthAdjust="spacing" textLength="64.5107" x="695.8721" y="383.9639">LoginInfo</text><line style="stroke:#181818;stroke-width:0.5;" x1="579.5" x2="844.2549" y1="392.2656" y2="392.2656"/><text fill="#000000" font-family="sans-serif" font-size="14" lengthAdjust="spacing" textLength="130.6895" x="584.5" y="409.2607">-username : String</text><text fill="#000000" font-family="sans-serif" font-size="14" lengthAdjust="spacing" textLength="127.1621" x="584.5" y="425.5576">-password : String</text><line style="stroke:#181818;stroke-width:0.5;" x1="579.5" x2="844.2549" y1="432.8594" y2="432.8594"/><text fill="#000000" font-family="sans-serif" font-size="14" lengthAdjust="spacing" textLength="244.9453" x="584.5" y="449.8545">+LoginInfo(un : String, pw : String)</text><text fill="#000000" font-family="sans-serif" font-size="14" lengthAdjust="spacing" textLength="172.6553" x="584.5" y="466.1514">+getUsername() : String</text><text fill="#000000" font-family="sans-serif" font-size="14" lengthAdjust="spacing" textLength="167.3096" x="584.5" y="482.4482">+getPassword() : String</text><text fill="#000000" font-family="sans-serif" font-size="14" lengthAdjust="spacing" textLength="254.7549" x="584.5" y="498.7451">+Equals(other : LoginInfo) : Boolean</text></g><!--class Conversation--><g class="entity" data-qualified-name="Model Layer.Conversation" data-source-line="29" id="ent0005"><rect fill="#F1F1F1" height="178.375" rx="2.5" ry="2.5" style="stroke:#181818;stroke-width:0.5;" width="285.499" x="77.5" y="70"/><ellipse cx="169.7202" cy="86" fill="#A9DCDF" rx="11" ry="11" style="stroke:#181818;stroke-width:1;"/><path d="M169.8296,81.3438 L168.6733,86.4219 L171.0015,86.4219 L169.8296,81.3438 Z M168.3452,79.1094 L171.3296,79.1094 L174.689,91.5 L172.2358,91.5 L171.4702,88.4375 L168.189,88.4375 L167.439,91.5 L165.0015,91.5 L168.3452,79.1094 Z " fill="#000000"/><text fill="#000000" font-family="sans-serif" font-size="14" font-style="italic" lengthAdjust="spacing" textLength="92.5586" x="190.2202" y="90.8467">Conversation</text><line style="stroke:#181818;stroke-width:0.5;" x1="78.5" x2="361.999" y1="102" y2="102"/><text fill="#000000" font-family="sans-serif" font-size="14" lengthAdjust="spacing" textLength="163.9463" x="83.5" y="118.9951">-conversationId : String</text><text fill="#000000" font-family="sans-serif" font-size="14" lengthAdjust="spacing" textLength="181.8223" x="83.5" y="135.292">-participants : List&lt;User&gt;</text><text fill="#000000" font-family="sans-serif" font-size="14" lengthAdjust="spacing" textLength="198.1738" x="83.5" y="151.5889">-messages : List&lt;Message&gt;</text><text fill="#000000" font-family="sans-serif" font-size="14" lengthAdjust="spacing" textLength="136.0967" x="83.5" y="167.8857">-createdAt : Instant</text><text fill="#000000" font-family="sans-serif" font-size="14" lengthAdjust="spacing" textLength="212.7549" x="83.5" y="184.1826">-mostRecentMessage : Instant</text><line style="stroke:#181818;stroke-width:0.5;" x1="78.5" x2="361.999" y1="191.4844" y2="191.4844"/><text fill="#000000" font-family="sans-serif" font-size="14" lengthAdjust="spacing" textLength="237.7744" x="83.5" y="208.4795">+addMessage(m: Message) : void</text><text fill="#000000" font-family="sans-serif" font-size="14" lengthAdjust="spacing" textLength="273.499" x="83.5" y="224.7764">+getMessages(n: int) : List&lt;Message&gt;</text><text fill="#000000" font-family="sans-serif" font-size="14" lengthAdjust="spacing" textLength="221.9697" x="83.5" y="241.0732">+getParticipants() : List&lt;User&gt;</text></g><!--class GroupChat--><g class="entity" data-qualified-name="Model Layer.GroupChat" data-source-line="40" id="ent0006"><rect fill="#F1F1F1" height="145.7813" rx="2.5" ry="2.5" style="stroke:#181818;stroke-width:0.5;" width="256.8906" x="22.5" y="356"/><ellipse cx="108.8721" cy="372" fill="#ADD1B2" rx="11" ry="11" style="stroke:#181818;stroke-width:1;"/><path d="M111.8408,377.6406 Q111.2627,377.9375 110.6221,378.0781 Q109.9814,378.2344 109.2783,378.2344 Q106.7783,378.2344 105.4502,376.5938 Q104.1377,374.9375 104.1377,371.8125 Q104.1377,368.6875 105.4502,367.0313 Q106.7783,365.375 109.2783,365.375 Q109.9814,365.375 110.6221,365.5313 Q111.2783,365.6875 111.8408,365.9844 L111.8408,368.7031 Q111.2158,368.125 110.6221,367.8594 Q110.0283,367.5781 109.4033,367.5781 Q108.0596,367.5781 107.3721,368.6563 Q106.6846,369.7188 106.6846,371.8125 Q106.6846,373.9063 107.3721,374.9844 Q108.0596,376.0469 109.4033,376.0469 Q110.0283,376.0469 110.6221,375.7813 Q111.2158,375.5 111.8408,374.9219 L111.8408,377.6406 Z " fill="#000000"/><text fill="#000000" font-family="sans-serif" font-size="14" lengthAdjust="spacing" textLength="75.6465" x="129.3721" y="376.8467">GroupChat</text><line style="stroke:#181818;stroke-width:0.5;" x1="23.5" x2="278.3906" y1="388" y2="388"/><text fill="#000000" font-family="sans-serif" font-size="14" lengthAdjust="spacing" textLength="142.7207" x="28.5" y="404.9951">-groupName : String</text><text fill="#000000" font-family="sans-serif" font-size="14" lengthAdjust="spacing" textLength="101.0352" x="28.5" y="421.292">-creator : User</text><line style="stroke:#181818;stroke-width:0.5;" x1="23.5" x2="278.3906" y1="428.5938" y2="428.5938"/><text fill="#000000" font-family="sans-serif" font-size="14" lengthAdjust="spacing" textLength="217.7725" x="28.5" y="445.5889">+addParticipant(u: User) : void</text><text fill="#000000" font-family="sans-serif" font-size="14" lengthAdjust="spacing" textLength="244.8906" x="28.5" y="461.8857">+removeParticipant(u: User) : void</text><text fill="#000000" font-family="sans-serif" font-size="14" lengthAdjust="spacing" textLength="149.625" x="28.5" y="478.1826">+setName(n : String)</text><text fill="#000000" font-family="sans-serif" font-size="14" lengthAdjust="spacing" textLength="142.3447" x="28.5" y="494.4795">+getName() : String</text></g><!--class Message--><g class="entity" data-qualified-name="Model Layer.Message" data-source-line="49" id="ent0007"><rect fill="#F1F1F1" height="184.3125" rx="2.5" ry="2.5" style="stroke:#181818;stroke-width:0.5;" width="228.4941" x="315" y="337"/><ellipse cx="385.6357" cy="364.1172" fill="#ADD1B2" rx="11" ry="11" style="stroke:#181818;stroke-width:1;"/><path d="M388.6045,369.7578 Q388.0264,370.0547 387.3857,370.1953 Q386.7451,370.3516 386.042,370.3516 Q383.542,370.3516 382.2139,368.7109 Q380.9014,367.0547 380.9014,363.9297 Q380.9014,360.8047 382.2139,359.1484 Q383.542,357.4922 386.042,357.4922 Q386.7451,357.4922 387.3857,357.6484 Q388.042,357.8047 388.6045,358.1016 L388.6045,360.8203 Q387.9795,360.2422 387.3857,359.9766 Q386.792,359.6953 386.167,359.6953 Q384.8232,359.6953 384.1357,360.7734 Q383.4482,361.8359 383.4482,363.9297 Q383.4482,366.0234 384.1357,367.1016 Q384.8232,368.1641 386.167,368.1641 Q386.792,368.1641 387.3857,367.8984 Q387.9795,367.6172 388.6045,367.0391 L388.6045,369.7578 Z " fill="#000000"/><text fill="#000000" font-family="sans-serif" font-size="12" font-style="italic" lengthAdjust="spacing" textLength="79.5234" x="405.7354" y="353.1387">&#171;immutable&#187;</text><text fill="#000000" font-family="sans-serif" font-size="12" font-style="italic" lengthAdjust="spacing" textLength="82.7227" x="404.1357" y="367.1074">&#171;serializable&#187;</text><text fill="#000000" font-family="sans-serif" font-size="14" lengthAdjust="spacing" textLength="61.3594" x="414.8174" y="382.9326">Message</text><line style="stroke:#181818;stroke-width:0.5;" x1="316" x2="542.4941" y1="391.2344" y2="391.2344"/><text fill="#000000" font-family="sans-serif" font-size="14" lengthAdjust="spacing" textLength="88.3271" x="321" y="408.2295">-text : String</text><text fill="#000000" font-family="sans-serif" font-size="14" lengthAdjust="spacing" textLength="142.9121" x="321" y="424.5264">-timestamp : Instant</text><text fill="#000000" font-family="sans-serif" font-size="14" lengthAdjust="spacing" textLength="123.3955" x="321" y="440.8232">-senderID : String</text><line style="stroke:#181818;stroke-width:0.5;" x1="316" x2="542.4941" y1="448.125" y2="448.125"/><text fill="#000000" font-family="sans-serif" font-size="14" lengthAdjust="spacing" textLength="216.4941" x="321" y="465.1201">+Message(t : String, s : String)</text><text fill="#000000" font-family="sans-serif" font-size="14" lengthAdjust="spacing" textLength="131.9814" x="321" y="481.417">+getText() : String</text><text fill="#000000" font-family="sans-serif" font-size="14" lengthAdjust="spacing" textLength="186.5664" x="321" y="497.7139">+getTimestamp() : Instant</text><text fill="#000000" font-family="sans-serif" font-size="14" lengthAdjust="spacing" textLength="165.5801" x="321" y="514.0107">+getSenderID() : String</text></g><!--class Report--><g class="entity" data-qualified-name="Model Layer.Report" data-source-line="59" id="ent0008"><rect fill="#F1F1F1" height="96.8906" rx="2.5" ry="2.5" style="stroke:#181818;stroke-width:0.5;" width="191.8262" x="333" y="581"/><ellipse cx="401.144" cy="597" fill="#ADD1B2" rx="11" ry="11" style="stroke:#181818;stroke-width:1;"/><path d="M404.1128,602.6406 Q403.5347,602.9375 402.894,603.0781 Q402.2534,603.2344 401.5503,603.2344 Q399.0503,603.2344 397.7222,601.5938 Q396.4097,599.9375 396.4097,596.8125 Q396.4097,593.6875 397.7222,592.0313 Q399.0503,590.375 401.5503,590.375 Q402.2534,590.375 402.894,590.5313 Q403.5503,590.6875 404.1128,590.9844 L404.1128,593.7031 Q403.4878,593.125 402.894,592.8594 Q402.3003,592.5781 401.6753,592.5781 Q400.3315,592.5781 399.644,593.6563 Q398.9565,594.7188 398.9565,596.8125 Q398.9565,598.9063 399.644,599.9844 Q400.3315,601.0469 401.6753,601.0469 Q402.3003,601.0469 402.894,600.7813 Q403.4878,600.5 404.1128,599.9219 L404.1128,602.6406 Z " fill="#000000"/><text fill="#000000" font-family="sans-serif" font-size="14" lengthAdjust="spacing" textLength="47.0381" x="421.644" y="601.8467">Report</text><line style="stroke:#181818;stroke-width:0.5;" x1="334" x2="523.8262" y1="613" y2="613"/><text fill="#000000" font-family="sans-serif" font-size="14" lengthAdjust="spacing" textLength="135.2627" x="339" y="629.9951">-resolved : Boolean</text><line style="stroke:#181818;stroke-width:0.5;" x1="334" x2="523.8262" y1="637.2969" y2="637.2969"/><text fill="#000000" font-family="sans-serif" font-size="14" lengthAdjust="spacing" textLength="179.8262" x="339" y="654.292">+getResolved() : Boolean</text><text fill="#000000" font-family="sans-serif" font-size="14" lengthAdjust="spacing" textLength="73.6709" x="339" y="670.5889">+resolve()</text></g><!--reverse link Conversation to GroupChat--><g class="link" data-entity-1="ent0005" data-entity-2="ent0006" data-link-type="extension" data-source-line="65" id="lnk9"><path codeLine="65" d="M192.8247,265.5522 C183.8347,300.4922 178.1,322.73 169.56,355.91" fill="none" id="Conversation-backto-GroupChat" style="stroke:#181818;stroke-width:1;"/><polygon fill="none" points="197.31,248.12,187.014,264.0571,198.6355,267.0473,197.31,248.12" style="stroke:#181818;stroke-width:1;"/></g><!--reverse link Message to Report--><g class="link" data-entity-1="ent0007" data-entity-2="ent0008" data-link-type="extension" data-source-line="66" id="lnk10"><path codeLine="66" d="M429,539.12 C429,559.81 429,562.97 429,580.98" fill="none" id="Message-backto-Report" style="stroke:#181818;stroke-width:1;"/><polygon fill="none" points="429,521.12,423,539.12,435,539.12,429,521.12" style="stroke:#181818;stroke-width:1;"/></g><!--reverse link User to LoginInfo--><g class="link" data-entity-1="ent0003" data-entity-2="ent0004" data-link-type="composition" data-source-line="67" id="lnk11"><path codeLine="67" d="M679.2864,288.8415 C685.2464,314.1915 688.65,328.68 694.13,351.96" fill="none" id="User-backto-LoginInfo" style="stroke:#181818;stroke-width:1;"/><polygon fill="#181818" points="676.54,277.16,674.0194,283.9162,679.2864,288.8415,681.807,282.0853,676.54,277.16" style="stroke:#181818;stroke-width:1;"/><text fill="#000000" font-family="sans-serif" font-size="13" lengthAdjust="spacing" textLength="8.271" x="669.9164" y="296.509">1</text><text fill="#000000" font-family="sans-serif" font-size="13" lengthAdjust="spacing" textLength="8.271" x="684.0701" y="340.9733">1</text></g><!--reverse link Conversation to Message--><g class="link" data-entity-1="ent0005" data-entity-2="ent0007" data-link-type="composition" data-source-line="68" id="lnk12"><path codeLine="68" d="M296.0991,257.5831 C318.2291,285.9631 335.42,308 357.73,336.61" fill="none" id="Conversation-backto-Message" style="stroke:#181818;stroke-width:1;"/><polygon fill="#181818" points="288.72,248.12,289.2552,255.3112,296.0991,257.5831,295.5639,250.3918,288.72,248.12" style="stroke:#181818;stroke-width:1;"/><text fill="#000000" font-family="sans-serif" font-size="13" lengthAdjust="spacing" textLength="8.271" x="286.2721" y="268.4798">1</text><text fill="#000000" font-family="sans-serif" font-size="13" lengthAdjust="spacing" textLength="6.5" x="346.0439" y="326.0222">*</text></g><?plantuml-src VLJRRgCm47tdAqPvWbwatTSeYjHjLwj8RRLAcW-Om3Ir2ZQrXtJRRlzzns0kWNHv03F7Spt7TizAbsYnW3H7vwwOhTfLJAlKw8rw9_WMHIMcpxWdcDsPZ7AunJUoC_Y88W3SERQOSkCDMqSM5WjvAypLE-voMYvb9yXp2OwHLGgfgJJ375QQ0r29moeJqqQowtsmvcQljDAFHe1Rlrx9Ec2MCB_7WiO-fN6AbT5Zk-Awj3dyC2OdrC4iJHx8ElGkgnid-9Mr-7Qh72yQ_oMqDMh9cLrF7BRQs8miPHUoL2yLjOwrttazaZWP_lXkzR3s2oXbUAyIfpEr3djYbdo0EWCNre_60kOv732lo45yGAjCvRpBf-UaeQARs8IFZy7KzQaPZei9jNGHuqeFQtyzLVKs18-JSHW1VuSCK_3dIuMvYmq_rMnrAPC1TTBaL7b3OZh17T6RJVkq8aTLecPFP4swBtiPy8AS4zbts5tptyAfw84fksgaBDhkv5mOnsjAINDmwNT0w1EpB61nCOUmz4qUZChwGGN0nNeEIdDoifGmqhwPE1ctCz35Bskgyle9kPlItbjE7QQwG-Dvy77woWUvuge1HwLRAio1_hlltElPPurxCIKGrStSJuGpQA2TwMAXYgBYSCTyUUam_U5nOwo4MyQYd53dICjXNjsCTTcInGFXkrEwVv1q9pN_qEQiqM7M6jw4n5-slQRIs9uqIyxa1ye6vwAEimxsE3b2mdQnDb6FZilYx-Lbhuke6x0tDscZ-lQSVP_1cTZyjx-GZq9rMyvcxSoYpty0?></g></svg>