<?plantuml 1.2026.2?><svg xmlns="http://www.w3.org/2000/svg" xmlns:xlink="http://www.w3.org/1999/xlink" contentStyleType="text/css" data-diagram-type="CLASS" height="1274px" preserveAspectRatio="none" style="width:1494px;height:1274px;background:#FFFFFF;" version="1.1" viewBox="0 0 1494 1274" width="1494px" zoomAndPan="magnify"><defs/><g><!--cluster Model Layer--><g class="cluster" data-qualified-name="Model Layer" data-source-line="2" id="ent0002"><path d="M8.5,6 L106.1328,6 A3.75,3.75 0 0 1 108.6328,8.5 L115.6328,28.2969 L1484.5,28.2969 A2.5,2.5 0 0 1 1487,30.7969 L1487,1264.5 A2.5,2.5 0 0 1 1484.5,1267 L8.5,1267 A2.5,2.5 0 0 1 6,1264.5 L6,8.5 A2.5,2.5 0 0 1 8.5,6" fill="none" style="stroke:#000000;stroke-width:1.5;"/><line style="stroke:#000000;stroke-width:1.5;" x1="6" x2="115.6328" y1="28.2969" y2="28.2969"/><text fill="#000000" font-family="sans-serif" font-size="14" font-weight="bold" lengthAdjust="spacing" textLength="96.6328" x="10" y="20.9951">Model Layer</text></g><!--class User--><g class="entity" data-qualified-name="Model Layer.User" data-source-line="4" id="ent0003"><rect fill="#F1F1F1" height="235.5313" rx="2.5" ry="2.5" style="stroke:#181818;stroke-width:0.5;" width="401.6826" x="345" y="102"/><ellipse cx="502.23" cy="122.1328" fill="#A9DCDF" rx="11" ry="11" style="stroke:#181818;stroke-width:1;"/><path d="M502.3394,117.4766 L501.1831,122.5547 L503.5112,122.5547 L502.3394,117.4766 Z M500.855,115.2422 L503.8394,115.2422 L507.1987,127.6328 L504.7456,127.6328 L503.98,124.5703 L500.6987,124.5703 L499.9487,127.6328 L497.5112,127.6328 L500.855,115.2422 Z " fill="#000000"/><text fill="#000000" font-family="sans-serif" font-size="12" font-style="italic" lengthAdjust="spacing" textLength="82.7227" x="520.73" y="118.1387">&#171;serializable&#187;</text><text fill="#000000" font-family="sans-serif" font-size="14" font-style="italic" lengthAdjust="spacing" textLength="31.9102" x="546.1362" y="133.9639">User</text><line style="stroke:#181818;stroke-width:0.5;" x1="346" x2="745.6826" y1="142.2656" y2="142.2656"/><g data-visibility-modifier="PRIVATE_FIELD"><rect fill="none" height="6" style="stroke:#C82930;stroke-width:1;" width="6" x="353" y="152.9141"/></g><text fill="#000000" font-family="sans-serif" font-size="14" lengthAdjust="spacing" textLength="114.4951" x="365" y="159.2607">static count : Int</text><g data-visibility-modifier="PRIVATE_FIELD"><rect fill="none" height="6" style="stroke:#C82930;stroke-width:1;" width="6" x="353" y="169.2109"/></g><text fill="#000000" font-family="sans-serif" font-size="14" lengthAdjust="spacing" textLength="98.9502" x="365" y="175.5576">userId : String</text><g data-visibility-modifier="PRIVATE_FIELD"><rect fill="none" height="6" style="stroke:#C82930;stroke-width:1;" width="6" x="353" y="185.5078"/></g><text fill="#000000" font-family="sans-serif" font-size="14" lengthAdjust="spacing" textLength="138.4893" x="365" y="191.8545">logininfo : LoginInfo</text><g data-visibility-modifier="PRIVATE_FIELD"><rect fill="none" height="6" style="stroke:#C82930;stroke-width:1;" width="6" x="353" y="201.8047"/></g><text fill="#000000" font-family="sans-serif" font-size="14" lengthAdjust="spacing" textLength="123.5391" x="365" y="208.1514">realName : String</text><g data-visibility-modifier="PRIVATE_FIELD"><rect fill="none" height="6" style="stroke:#C82930;stroke-width:1;" width="6" x="353" y="218.1016"/></g><text fill="#000000" font-family="sans-serif" font-size="14" lengthAdjust="spacing" textLength="110.8516" x="365" y="224.4482">position : String</text><g data-visibility-modifier="PRIVATE_FIELD"><rect fill="none" height="6" style="stroke:#C82930;stroke-width:1;" width="6" x="353" y="234.3984"/></g><text fill="#000000" font-family="sans-serif" font-size="14" lengthAdjust="spacing" textLength="111.5967" x="365" y="240.7451">itUser : Boolean</text><g data-visibility-modifier="PRIVATE_FIELD"><rect fill="none" height="6" style="stroke:#C82930;stroke-width:1;" width="6" x="353" y="250.6953"/></g><text fill="#000000" font-family="sans-serif" font-size="14" lengthAdjust="spacing" textLength="253.9688" x="365" y="257.042">conversationIDs : ArrayList&lt;String&gt;</text><g data-visibility-modifier="PRIVATE_FIELD"><rect fill="none" height="6" style="stroke:#C82930;stroke-width:1;" width="6" x="353" y="266.9922"/></g><text fill="#000000" font-family="sans-serif" font-size="14" lengthAdjust="spacing" textLength="375.6826" x="365" y="273.3389">unreadConversationIDs : Unordered, Unique&lt;String&gt;</text><line style="stroke:#181818;stroke-width:0.5;" x1="346" x2="745.6826" y1="280.6406" y2="280.6406"/><g data-visibility-modifier="PUBLIC_METHOD"><ellipse cx="356" cy="294.2891" fill="#84BE84" rx="3" ry="3" style="stroke:#038048;stroke-width:1;"/></g><text fill="#000000" font-family="sans-serif" font-size="14" lengthAdjust="spacing" textLength="42.834" x="365" y="297.6357">User()</text><g data-visibility-modifier="PUBLIC_METHOD"><ellipse cx="356" cy="310.5859" fill="#84BE84" rx="3" ry="3" style="stroke:#038048;stroke-width:1;"/></g><text fill="#000000" font-family="sans-serif" font-size="14" lengthAdjust="spacing" textLength="299.4824" x="365" y="313.9326">User(username : String, password : String)</text><g data-visibility-modifier="PUBLIC_METHOD"><ellipse cx="356" cy="326.8828" fill="#84BE84" rx="3" ry="3" style="stroke:#038048;stroke-width:1;"/></g><text fill="#000000" font-family="sans-serif" font-size="14" lengthAdjust="spacing" textLength="295.0391" x="365" y="330.2295">getters and setters for all values (various)</text></g><!--class LoginInfo--><g class="entity" data-qualified-name="Model Layer.LoginInfo" data-source-line="18" id="ent0004"><rect fill="#F1F1F1" height="154.0469" rx="2.5" ry="2.5" style="stroke:#181818;stroke-width:0.5;" width="269.0244" x="582.5" y="699.5"/><ellipse cx="673.4009" cy="719.6328" fill="#ADD1B2" rx="11" ry="11" style="stroke:#181818;stroke-width:1;"/><path d="M676.3696,725.2734 Q675.7915,725.5703 675.1509,725.7109 Q674.5103,725.8672 673.8071,725.8672 Q671.3071,725.8672 669.979,724.2266 Q668.6665,722.5703 668.6665,719.4453 Q668.6665,716.3203 669.979,714.6641 Q671.3071,713.0078 673.8071,713.0078 Q674.5103,713.0078 675.1509,713.1641 Q675.8071,713.3203 676.3696,713.6172 L676.3696,716.3359 Q675.7446,715.7578 675.1509,715.4922 Q674.5571,715.2109 673.9321,715.2109 Q672.5884,715.2109 671.9009,716.2891 Q671.2134,717.3516 671.2134,719.4453 Q671.2134,721.5391 671.9009,722.6172 Q672.5884,723.6797 673.9321,723.6797 Q674.5571,723.6797 675.1509,723.4141 Q675.7446,723.1328 676.3696,722.5547 L676.3696,725.2734 Z " fill="#000000"/><text fill="#000000" font-family="sans-serif" font-size="12" font-style="italic" lengthAdjust="spacing" textLength="82.7227" x="691.9009" y="715.6387">&#171;serializable&#187;</text><text fill="#000000" font-family="sans-serif" font-size="14" lengthAdjust="spacing" textLength="64.5107" x="701.0068" y="731.4639">LoginInfo</text><line style="stroke:#181818;stroke-width:0.5;" x1="583.5" x2="850.5244" y1="739.7656" y2="739.7656"/><g data-visibility-modifier="PRIVATE_FIELD"><rect fill="none" height="6" style="stroke:#C82930;stroke-width:1;" width="6" x="590.5" y="750.4141"/></g><text fill="#000000" font-family="sans-serif" font-size="14" lengthAdjust="spacing" textLength="125.6377" x="602.5" y="756.7607">username : String</text><g data-visibility-modifier="PRIVATE_FIELD"><rect fill="none" height="6" style="stroke:#C82930;stroke-width:1;" width="6" x="590.5" y="766.7109"/></g><text fill="#000000" font-family="sans-serif" font-size="14" lengthAdjust="spacing" textLength="122.1104" x="602.5" y="773.0576">password : String</text><line style="stroke:#181818;stroke-width:0.5;" x1="583.5" x2="850.5244" y1="780.3594" y2="780.3594"/><g data-visibility-modifier="PUBLIC_METHOD"><ellipse cx="593.5" cy="794.0078" fill="#84BE84" rx="3" ry="3" style="stroke:#038048;stroke-width:1;"/></g><text fill="#000000" font-family="sans-serif" font-size="14" lengthAdjust="spacing" textLength="233.2148" x="602.5" y="797.3545">LoginInfo(un : String, pw : String)</text><g data-visibility-modifier="PUBLIC_METHOD"><ellipse cx="593.5" cy="810.3047" fill="#84BE84" rx="3" ry="3" style="stroke:#038048;stroke-width:1;"/></g><text fill="#000000" font-family="sans-serif" font-size="14" lengthAdjust="spacing" textLength="160.9248" x="602.5" y="813.6514">getUsername() : String</text><g data-visibility-modifier="PUBLIC_METHOD"><ellipse cx="593.5" cy="826.6016" fill="#84BE84" rx="3" ry="3" style="stroke:#038048;stroke-width:1;"/></g><text fill="#000000" font-family="sans-serif" font-size="14" lengthAdjust="spacing" textLength="155.5791" x="602.5" y="829.9482">getPassword() : String</text><g data-visibility-modifier="PUBLIC_METHOD"><ellipse cx="593.5" cy="842.8984" fill="#84BE84" rx="3" ry="3" style="stroke:#038048;stroke-width:1;"/></g><text fill="#000000" font-family="sans-serif" font-size="14" lengthAdjust="spacing" textLength="243.0244" x="602.5" y="846.2451">Equals(other : LoginInfo) : Boolean</text></g><!--class Conversation--><g class="entity" data-qualified-name="Model Layer.Conversation" data-source-line="28" id="ent0005"><rect fill="#F1F1F1" height="178.375" rx="2.5" ry="2.5" style="stroke:#181818;stroke-width:0.5;" width="287.7686" x="22" y="131"/><ellipse cx="115.355" cy="147" fill="#A9DCDF" rx="11" ry="11" style="stroke:#181818;stroke-width:1;"/><path d="M115.4644,142.3438 L114.3081,147.4219 L116.6362,147.4219 L115.4644,142.3438 Z M113.98,140.1094 L116.9644,140.1094 L120.3237,152.5 L117.8706,152.5 L117.105,149.4375 L113.8237,149.4375 L113.0737,152.5 L110.6362,152.5 L113.98,140.1094 Z " fill="#000000"/><text fill="#000000" font-family="sans-serif" font-size="14" font-style="italic" lengthAdjust="spacing" textLength="92.5586" x="135.855" y="151.8467">Conversation</text><line style="stroke:#181818;stroke-width:0.5;" x1="23" x2="308.7686" y1="163" y2="163"/><g data-visibility-modifier="PRIVATE_FIELD"><rect fill="none" height="6" style="stroke:#C82930;stroke-width:1;" width="6" x="30" y="173.6484"/></g><text fill="#000000" font-family="sans-serif" font-size="14" lengthAdjust="spacing" textLength="158.8945" x="42" y="179.9951">conversationId : String</text><g data-visibility-modifier="PRIVATE_FIELD"><rect fill="none" height="6" style="stroke:#C82930;stroke-width:1;" width="6" x="30" y="189.9453"/></g><text fill="#000000" font-family="sans-serif" font-size="14" lengthAdjust="spacing" textLength="176.7705" x="42" y="196.292">participants : List&lt;User&gt;</text><g data-visibility-modifier="PRIVATE_FIELD"><rect fill="none" height="6" style="stroke:#C82930;stroke-width:1;" width="6" x="30" y="206.2422"/></g><text fill="#000000" font-family="sans-serif" font-size="14" lengthAdjust="spacing" textLength="193.1221" x="42" y="212.5889">messages : List&lt;Message&gt;</text><g data-visibility-modifier="PRIVATE_FIELD"><rect fill="none" height="6" style="stroke:#C82930;stroke-width:1;" width="6" x="30" y="222.5391"/></g><text fill="#000000" font-family="sans-serif" font-size="14" lengthAdjust="spacing" textLength="131.0449" x="42" y="228.8857">createdAt : Instant</text><g data-visibility-modifier="PRIVATE_FIELD"><rect fill="none" height="6" style="stroke:#C82930;stroke-width:1;" width="6" x="30" y="238.8359"/></g><text fill="#000000" font-family="sans-serif" font-size="14" lengthAdjust="spacing" textLength="207.7031" x="42" y="245.1826">mostRecentMessage : Instant</text><line style="stroke:#181818;stroke-width:0.5;" x1="23" x2="308.7686" y1="252.4844" y2="252.4844"/><g data-visibility-modifier="PUBLIC_METHOD"><ellipse cx="33" cy="266.1328" fill="#84BE84" rx="3" ry="3" style="stroke:#038048;stroke-width:1;"/></g><text fill="#000000" font-family="sans-serif" font-size="14" lengthAdjust="spacing" textLength="226.0439" x="42" y="269.4795">addMessage(m: Message) : void</text><g data-visibility-modifier="PUBLIC_METHOD"><ellipse cx="33" cy="282.4297" fill="#84BE84" rx="3" ry="3" style="stroke:#038048;stroke-width:1;"/></g><text fill="#000000" font-family="sans-serif" font-size="14" lengthAdjust="spacing" textLength="261.7686" x="42" y="285.7764">getMessages(n: int) : List&lt;Message&gt;</text><g data-visibility-modifier="PUBLIC_METHOD"><ellipse cx="33" cy="298.7266" fill="#84BE84" rx="3" ry="3" style="stroke:#038048;stroke-width:1;"/></g><text fill="#000000" font-family="sans-serif" font-size="14" lengthAdjust="spacing" textLength="210.2393" x="42" y="302.0732">getParticipants() : List&lt;User&gt;</text></g><!--class GroupChat--><g class="entity" data-qualified-name="Model Layer.GroupChat" data-source-line="39" id="ent0006"><rect fill="#F1F1F1" height="162.0781" rx="2.5" ry="2.5" style="stroke:#181818;stroke-width:0.5;" width="259.1602" x="22.5" y="695.5"/><ellipse cx="110.0068" cy="711.5" fill="#ADD1B2" rx="11" ry="11" style="stroke:#181818;stroke-width:1;"/><path d="M112.9756,717.1406 Q112.3975,717.4375 111.7568,717.5781 Q111.1162,717.7344 110.4131,717.7344 Q107.9131,717.7344 106.585,716.0938 Q105.2725,714.4375 105.2725,711.3125 Q105.2725,708.1875 106.585,706.5313 Q107.9131,704.875 110.4131,704.875 Q111.1162,704.875 111.7568,705.0313 Q112.4131,705.1875 112.9756,705.4844 L112.9756,708.2031 Q112.3506,707.625 111.7568,707.3594 Q111.1631,707.0781 110.5381,707.0781 Q109.1943,707.0781 108.5068,708.1563 Q107.8193,709.2188 107.8193,711.3125 Q107.8193,713.4063 108.5068,714.4844 Q109.1943,715.5469 110.5381,715.5469 Q111.1631,715.5469 111.7568,715.2813 Q112.3506,715 112.9756,714.4219 L112.9756,717.1406 Z " fill="#000000"/><text fill="#000000" font-family="sans-serif" font-size="14" lengthAdjust="spacing" textLength="75.6465" x="130.5068" y="716.3467">GroupChat</text><line style="stroke:#181818;stroke-width:0.5;" x1="23.5" x2="280.6602" y1="727.5" y2="727.5"/><g data-visibility-modifier="PRIVATE_FIELD"><rect fill="none" height="6" style="stroke:#C82930;stroke-width:1;" width="6" x="30.5" y="738.1484"/></g><text fill="#000000" font-family="sans-serif" font-size="14" lengthAdjust="spacing" textLength="137.6689" x="42.5" y="744.4951">groupName : String</text><g data-visibility-modifier="PRIVATE_FIELD"><rect fill="none" height="6" style="stroke:#C82930;stroke-width:1;" width="6" x="30.5" y="754.4453"/></g><text fill="#000000" font-family="sans-serif" font-size="14" lengthAdjust="spacing" textLength="95.9834" x="42.5" y="760.792">creator : User</text><line style="stroke:#181818;stroke-width:0.5;" x1="23.5" x2="280.6602" y1="768.0938" y2="768.0938"/><g data-visibility-modifier="PUBLIC_METHOD"><ellipse cx="33.5" cy="781.7422" fill="#84BE84" rx="3" ry="3" style="stroke:#038048;stroke-width:1;"/></g><text fill="#000000" font-family="sans-serif" font-size="14" lengthAdjust="spacing" textLength="226.1191" x="42.5" y="785.0889">GroupChat(base : Conversation)</text><g data-visibility-modifier="PUBLIC_METHOD"><ellipse cx="33.5" cy="798.0391" fill="#84BE84" rx="3" ry="3" style="stroke:#038048;stroke-width:1;"/></g><text fill="#000000" font-family="sans-serif" font-size="14" lengthAdjust="spacing" textLength="206.042" x="42.5" y="801.3857">addParticipant(u: User) : void</text><g data-visibility-modifier="PUBLIC_METHOD"><ellipse cx="33.5" cy="814.3359" fill="#84BE84" rx="3" ry="3" style="stroke:#038048;stroke-width:1;"/></g><text fill="#000000" font-family="sans-serif" font-size="14" lengthAdjust="spacing" textLength="233.1602" x="42.5" y="817.6826">removeParticipant(u: User) : void</text><g data-visibility-modifier="PUBLIC_METHOD"><ellipse cx="33.5" cy="830.6328" fill="#84BE84" rx="3" ry="3" style="stroke:#038048;stroke-width:1;"/></g><text fill="#000000" font-family="sans-serif" font-size="14" lengthAdjust="spacing" textLength="137.8945" x="42.5" y="833.9795">setName(n : String)</text><g data-visibility-modifier="PUBLIC_METHOD"><ellipse cx="33.5" cy="846.9297" fill="#84BE84" rx="3" ry="3" style="stroke:#038048;stroke-width:1;"/></g><text fill="#000000" font-family="sans-serif" font-size="14" lengthAdjust="spacing" textLength="130.6143" x="42.5" y="850.2764">getName() : String</text></g><!--class Message--><g class="entity" data-qualified-name="Model Layer.Message" data-source-line="49" id="ent0007"><rect fill="#F1F1F1" height="184.3125" rx="2.5" ry="2.5" style="stroke:#181818;stroke-width:0.5;" width="230.7637" x="316.5" y="684.5"/><ellipse cx="388.2705" cy="711.6172" fill="#ADD1B2" rx="11" ry="11" style="stroke:#181818;stroke-width:1;"/><path d="M391.2393,717.2578 Q390.6611,717.5547 390.0205,717.6953 Q389.3799,717.8516 388.6768,717.8516 Q386.1768,717.8516 384.8486,716.2109 Q383.5361,714.5547 383.5361,711.4297 Q383.5361,708.3047 384.8486,706.6484 Q386.1768,704.9922 388.6768,704.9922 Q389.3799,704.9922 390.0205,705.1484 Q390.6768,705.3047 391.2393,705.6016 L391.2393,708.3203 Q390.6143,707.7422 390.0205,707.4766 Q389.4268,707.1953 388.8018,707.1953 Q387.458,707.1953 386.7705,708.2734 Q386.083,709.3359 386.083,711.4297 Q386.083,713.5234 386.7705,714.6016 Q387.458,715.6641 388.8018,715.6641 Q389.4268,715.6641 390.0205,715.3984 Q390.6143,715.1172 391.2393,714.5391 L391.2393,717.2578 Z " fill="#000000"/><text fill="#000000" font-family="sans-serif" font-size="12" font-style="italic" lengthAdjust="spacing" textLength="79.5234" x="408.3701" y="700.6387">&#171;immutable&#187;</text><text fill="#000000" font-family="sans-serif" font-size="12" font-style="italic" lengthAdjust="spacing" textLength="82.7227" x="406.7705" y="714.6074">&#171;serializable&#187;</text><text fill="#000000" font-family="sans-serif" font-size="14" lengthAdjust="spacing" textLength="61.3594" x="417.4521" y="730.4326">Message</text><line style="stroke:#181818;stroke-width:0.5;" x1="317.5" x2="546.2637" y1="738.7344" y2="738.7344"/><g data-visibility-modifier="PRIVATE_FIELD"><rect fill="none" height="6" style="stroke:#C82930;stroke-width:1;" width="6" x="324.5" y="749.3828"/></g><text fill="#000000" font-family="sans-serif" font-size="14" lengthAdjust="spacing" textLength="83.2754" x="336.5" y="755.7295">text : String</text><g data-visibility-modifier="PRIVATE_FIELD"><rect fill="none" height="6" style="stroke:#C82930;stroke-width:1;" width="6" x="324.5" y="765.6797"/></g><text fill="#000000" font-family="sans-serif" font-size="14" lengthAdjust="spacing" textLength="137.8604" x="336.5" y="772.0264">timestamp : Instant</text><g data-visibility-modifier="PRIVATE_FIELD"><rect fill="none" height="6" style="stroke:#C82930;stroke-width:1;" width="6" x="324.5" y="781.9766"/></g><text fill="#000000" font-family="sans-serif" font-size="14" lengthAdjust="spacing" textLength="118.3438" x="336.5" y="788.3232">senderID : String</text><line style="stroke:#181818;stroke-width:0.5;" x1="317.5" x2="546.2637" y1="795.625" y2="795.625"/><g data-visibility-modifier="PUBLIC_METHOD"><ellipse cx="327.5" cy="809.2734" fill="#84BE84" rx="3" ry="3" style="stroke:#038048;stroke-width:1;"/></g><text fill="#000000" font-family="sans-serif" font-size="14" lengthAdjust="spacing" textLength="204.7637" x="336.5" y="812.6201">Message(t : String, s : String)</text><g data-visibility-modifier="PUBLIC_METHOD"><ellipse cx="327.5" cy="825.5703" fill="#84BE84" rx="3" ry="3" style="stroke:#038048;stroke-width:1;"/></g><text fill="#000000" font-family="sans-serif" font-size="14" lengthAdjust="spacing" textLength="120.251" x="336.5" y="828.917">getText() : String</text><g data-visibility-modifier="PUBLIC_METHOD"><ellipse cx="327.5" cy="841.8672" fill="#84BE84" rx="3" ry="3" style="stroke:#038048;stroke-width:1;"/></g><text fill="#000000" font-family="sans-serif" font-size="14" lengthAdjust="spacing" textLength="174.8359" x="336.5" y="845.2139">getTimestamp() : Instant</text><g data-visibility-modifier="PUBLIC_METHOD"><ellipse cx="327.5" cy="858.1641" fill="#84BE84" rx="3" ry="3" style="stroke:#038048;stroke-width:1;"/></g><text fill="#000000" font-family="sans-serif" font-size="14" lengthAdjust="spacing" textLength="153.8496" x="336.5" y="861.5107">getSenderID() : String</text></g><!--class Wrapper--><g class="entity" data-qualified-name="Model Layer.Wrapper" data-source-line="59" id="ent0008"><rect fill="#F1F1F1" height="200.6094" rx="2.5" ry="2.5" style="stroke:#181818;stroke-width:0.5;" width="368.125" x="782" y="119.5"/><ellipse cx="922.2432" cy="146.6172" fill="#ADD1B2" rx="11" ry="11" style="stroke:#181818;stroke-width:1;"/><path d="M925.2119,152.2578 Q924.6338,152.5547 923.9932,152.6953 Q923.3525,152.8516 922.6494,152.8516 Q920.1494,152.8516 918.8213,151.2109 Q917.5088,149.5547 917.5088,146.4297 Q917.5088,143.3047 918.8213,141.6484 Q920.1494,139.9922 922.6494,139.9922 Q923.3525,139.9922 923.9932,140.1484 Q924.6494,140.3047 925.2119,140.6016 L925.2119,143.3203 Q924.5869,142.7422 923.9932,142.4766 Q923.3994,142.1953 922.7744,142.1953 Q921.4307,142.1953 920.7432,143.2734 Q920.0557,144.3359 920.0557,146.4297 Q920.0557,148.5234 920.7432,149.6016 Q921.4307,150.6641 922.7744,150.6641 Q923.3994,150.6641 923.9932,150.3984 Q924.5869,150.1172 925.2119,149.5391 L925.2119,152.2578 Z " fill="#000000"/><text fill="#000000" font-family="sans-serif" font-size="12" font-style="italic" lengthAdjust="spacing" textLength="83.1387" x="940.7432" y="135.6387">&#171;immutabke&#187;</text><text fill="#000000" font-family="sans-serif" font-size="12" font-style="italic" lengthAdjust="spacing" textLength="82.7227" x="940.9512" y="149.6074">&#171;serializable&#187;</text><text fill="#000000" font-family="sans-serif" font-size="14" lengthAdjust="spacing" textLength="60.3203" x="952.1523" y="165.4326">Wrapper</text><line style="stroke:#181818;stroke-width:0.5;" x1="783" x2="1149.125" y1="173.7344" y2="173.7344"/><g data-visibility-modifier="PRIVATE_FIELD"><rect fill="none" height="6" style="stroke:#C82930;stroke-width:1;" width="6" x="790" y="184.3828"/></g><text fill="#000000" font-family="sans-serif" font-size="14" lengthAdjust="spacing" textLength="114.8848" x="802" y="190.7295">payload : Object</text><g data-visibility-modifier="PRIVATE_FIELD"><rect fill="none" height="6" style="stroke:#C82930;stroke-width:1;" width="6" x="790" y="200.6797"/></g><text fill="#000000" font-family="sans-serif" font-size="14" lengthAdjust="spacing" textLength="193.3135" x="802" y="207.0264">requestType : RequestType</text><g data-visibility-modifier="PRIVATE_FIELD"><rect fill="none" height="6" style="stroke:#C82930;stroke-width:1;" width="6" x="790" y="216.9766"/></g><text fill="#000000" font-family="sans-serif" font-size="14" lengthAdjust="spacing" textLength="214.0537" x="802" y="223.3232">responseType : ResponseType</text><line style="stroke:#181818;stroke-width:0.5;" x1="783" x2="1149.125" y1="230.625" y2="230.625"/><g data-visibility-modifier="PUBLIC_METHOD"><ellipse cx="793" cy="244.2734" fill="#84BE84" rx="3" ry="3" style="stroke:#038048;stroke-width:1;"/></g><text fill="#000000" font-family="sans-serif" font-size="14" lengthAdjust="spacing" textLength="342.125" x="802" y="247.6201">Wrapper(payload : Object, type : ResponseType)</text><g data-visibility-modifier="PUBLIC_METHOD"><ellipse cx="793" cy="260.5703" fill="#84BE84" rx="3" ry="3" style="stroke:#038048;stroke-width:1;"/></g><text fill="#000000" font-family="sans-serif" font-size="14" lengthAdjust="spacing" textLength="331.7549" x="802" y="263.917">Wrapper(payload : Object, type : RequestType)</text><g data-visibility-modifier="PUBLIC_METHOD"><ellipse cx="793" cy="276.8672" fill="#84BE84" rx="3" ry="3" style="stroke:#038048;stroke-width:1;"/></g><text fill="#000000" font-family="sans-serif" font-size="14" lengthAdjust="spacing" textLength="148.3535" x="802" y="280.2139">getPayload() : Object</text><g data-visibility-modifier="PUBLIC_METHOD"><ellipse cx="793" cy="293.1641" fill="#84BE84" rx="3" ry="3" style="stroke:#038048;stroke-width:1;"/></g><text fill="#000000" font-family="sans-serif" font-size="14" lengthAdjust="spacing" textLength="243.0654" x="802" y="296.5107">getResponseType() : ResposeType</text><g data-visibility-modifier="PUBLIC_METHOD"><ellipse cx="793" cy="309.4609" fill="#84BE84" rx="3" ry="3" style="stroke:#038048;stroke-width:1;"/></g><text fill="#000000" font-family="sans-serif" font-size="14" lengthAdjust="spacing" textLength="231.1982" x="802" y="312.8076">getRequestType() : RequestType</text></g><!--class RequestType--><g class="entity" data-qualified-name="Model Layer.RequestType" data-source-line="70" id="ent0009"><rect fill="#F1F1F1" height="357.6406" rx="2.5" ry="2.5" style="stroke:#181818;stroke-width:0.5;" width="285.9775" x="1185" y="41"/><ellipse cx="1277.8218" cy="57" fill="#EB937F" rx="11" ry="11" style="stroke:#181818;stroke-width:1;"/><path d="M1281.9312,63 L1274.2124,63 L1274.2124,50.6094 L1281.9312,50.6094 L1281.9312,52.7656 L1276.6655,52.7656 L1276.6655,55.4375 L1281.4312,55.4375 L1281.4312,57.5938 L1276.6655,57.5938 L1276.6655,60.8438 L1281.9312,60.8438 L1281.9312,63 Z " fill="#000000"/><text fill="#000000" font-family="sans-serif" font-size="14" lengthAdjust="spacing" textLength="91.834" x="1298.3218" y="61.8467">RequestType</text><line style="stroke:#181818;stroke-width:0.5;" x1="1186" x2="1469.9775" y1="73" y2="73"/><text fill="#000000" font-family="sans-serif" font-size="14" lengthAdjust="spacing" textLength="44.2695" x="1191" y="89.9951">LOGIN</text><text fill="#000000" font-family="sans-serif" font-size="14" lengthAdjust="spacing" textLength="59.4863" x="1191" y="106.292">LOGOUT</text><text fill="#000000" font-family="sans-serif" font-size="14" lengthAdjust="spacing" textLength="69.5625" x="1191" y="122.5889">REGISTER</text><text fill="#000000" font-family="sans-serif" font-size="14" lengthAdjust="spacing" textLength="113.627" x="1191" y="138.8857">GET_USER_INFO</text><text fill="#000000" font-family="sans-serif" font-size="14" lengthAdjust="spacing" textLength="113.9551" x="1191" y="155.1826">SEND_MESSAGE</text><text fill="#000000" font-family="sans-serif" font-size="14" lengthAdjust="spacing" textLength="129.5137" x="1191" y="171.4795">ADD_PARTICIPANT</text><text fill="#000000" font-family="sans-serif" font-size="14" lengthAdjust="spacing" textLength="158.4707" x="1191" y="187.7764">REMOVE_PARTICIPANT</text><text fill="#000000" font-family="sans-serif" font-size="14" lengthAdjust="spacing" textLength="174.3779" x="1191" y="204.0732">CREATE_CONVERSATION</text><text fill="#000000" font-family="sans-serif" font-size="14" lengthAdjust="spacing" textLength="231.6631" x="1191" y="220.3701">CREATE_GROUP_CONVERSATION</text><text fill="#000000" font-family="sans-serif" font-size="14" lengthAdjust="spacing" textLength="147.3008" x="1191" y="236.667">GET_CONVERSATION</text><text fill="#000000" font-family="sans-serif" font-size="14" lengthAdjust="spacing" textLength="232.9551" x="1191" y="252.9639">UPDATE_ACTIVE_CONVERSATION</text><text fill="#000000" font-family="sans-serif" font-size="14" lengthAdjust="spacing" textLength="141.8252" x="1191" y="269.2607">UPDATE_USER_INFO</text><text fill="#000000" font-family="sans-serif" font-size="14" lengthAdjust="spacing" textLength="165.3066" x="1191" y="285.5576">CHANGE_GROUP_NAME</text><text fill="#000000" font-family="sans-serif" font-size="14" lengthAdjust="spacing" textLength="273.9775" x="1191" y="301.8545">QUERY_CONVERSATION_LOG_BY_USER</text><text fill="#000000" font-family="sans-serif" font-size="14" lengthAdjust="spacing" textLength="251.1797" x="1191" y="318.1514">QUERY_CONVERSATION_LOG_BY_ID</text><text fill="#000000" font-family="sans-serif" font-size="14" lengthAdjust="spacing" textLength="174.2617" x="1191" y="334.4482">SEARCH_SIMILAR_USERS</text><text fill="#000000" font-family="sans-serif" font-size="14" lengthAdjust="spacing" textLength="204.1143" x="1191" y="350.7451">QUERY_CONVERSATION_LOG</text><text fill="#000000" font-family="sans-serif" font-size="14" lengthAdjust="spacing" textLength="221.8467" x="1191" y="367.042">REQUEST_CONVERSATION_LOG</text><text fill="#000000" font-family="sans-serif" font-size="14" lengthAdjust="spacing" textLength="89.2432" x="1191" y="383.3389">REGISTER_IT</text><line style="stroke:#181818;stroke-width:0.5;" x1="1186" x2="1469.9775" y1="390.6406" y2="390.6406"/></g><!--class ReponseType--><g class="entity" data-qualified-name="Model Layer.ReponseType" data-source-line="92" id="ent0010"><rect fill="#F1F1F1" height="634.6875" rx="2.5" ry="2.5" style="stroke:#181818;stroke-width:0.5;" width="277.1729" x="886.5" y="459"/><ellipse cx="973.3813" cy="475" fill="#EB937F" rx="11" ry="11" style="stroke:#181818;stroke-width:1;"/><path d="M977.4907,481 L969.772,481 L969.772,468.6094 L977.4907,468.6094 L977.4907,470.7656 L972.2251,470.7656 L972.2251,473.4375 L976.9907,473.4375 L976.9907,475.5938 L972.2251,475.5938 L972.2251,478.8438 L977.4907,478.8438 L977.4907,481 Z " fill="#000000"/><text fill="#000000" font-family="sans-serif" font-size="14" lengthAdjust="spacing" textLength="94.9102" x="993.8813" y="479.8467">ReponseType</text><line style="stroke:#181818;stroke-width:0.5;" x1="887.5" x2="1162.6729" y1="491" y2="491"/><text fill="#000000" font-family="sans-serif" font-size="14" lengthAdjust="spacing" textLength="116.5732" x="892.5" y="507.9951">LOGIN_SUCCESS</text><text fill="#000000" font-family="sans-serif" font-size="14" lengthAdjust="spacing" textLength="80.8281" x="892.5" y="524.292">LOGIN_FAIL</text><text fill="#000000" font-family="sans-serif" font-size="14" lengthAdjust="spacing" textLength="131.79" x="892.5" y="540.5889">LOGOUT_SUCCESS</text><text fill="#000000" font-family="sans-serif" font-size="14" lengthAdjust="spacing" textLength="96.0449" x="892.5" y="556.8857">LOGOUT_FAIL</text><text fill="#000000" font-family="sans-serif" font-size="14" lengthAdjust="spacing" textLength="186.5732" x="892.5" y="573.1826">REGISTER_USER_SUCCESS</text><text fill="#000000" font-family="sans-serif" font-size="14" lengthAdjust="spacing" textLength="150.8281" x="892.5" y="589.4795">REGISTER_USER_FAIL</text><text fill="#000000" font-family="sans-serif" font-size="14" lengthAdjust="spacing" textLength="122.1377" x="892.5" y="605.7764">USER_INFO_SENT</text><text fill="#000000" font-family="sans-serif" font-size="14" lengthAdjust="spacing" textLength="159.1816" x="892.5" y="622.0732">USER_INFO_NOT_SENT</text><text fill="#000000" font-family="sans-serif" font-size="14" lengthAdjust="spacing" textLength="111.7266" x="892.5" y="638.3701">MESSAGE_SENT</text><text fill="#000000" font-family="sans-serif" font-size="14" lengthAdjust="spacing" textLength="148.7705" x="892.5" y="654.667">MESSAGE_NOT_SENT</text><text fill="#000000" font-family="sans-serif" font-size="14" lengthAdjust="spacing" textLength="139.4053" x="892.5" y="670.9639">SENDING_MESSAGE</text><text fill="#000000" font-family="sans-serif" font-size="14" lengthAdjust="spacing" textLength="201.8174" x="892.5" y="687.2607">ADD_PARTICIPANT_SUCCESS</text><text fill="#000000" font-family="sans-serif" font-size="14" lengthAdjust="spacing" textLength="166.0723" x="892.5" y="703.5576">ADD_PARTICIPANT_FAIL</text><text fill="#000000" font-family="sans-serif" font-size="14" lengthAdjust="spacing" textLength="230.7744" x="892.5" y="719.8545">REMOVE_PARTICIPANT_SUCCESS</text><text fill="#000000" font-family="sans-serif" font-size="14" lengthAdjust="spacing" textLength="195.0293" x="892.5" y="736.1514">REMOVE_PARTICIPANT_FAIL</text><text fill="#000000" font-family="sans-serif" font-size="14" lengthAdjust="spacing" textLength="201.6875" x="892.5" y="752.4482">GROUP_CREATION_SUCCESS</text><text fill="#000000" font-family="sans-serif" font-size="14" lengthAdjust="spacing" textLength="165.9424" x="892.5" y="768.7451">GROUP_CREATION_FAIL</text><text fill="#000000" font-family="sans-serif" font-size="14" lengthAdjust="spacing" textLength="246.6816" x="892.5" y="785.042">CREATE_CONVERSATION_SUCCESS</text><text fill="#000000" font-family="sans-serif" font-size="14" lengthAdjust="spacing" textLength="210.9365" x="892.5" y="801.3389">CREATE_CONVERSATION_FAIL</text><text fill="#000000" font-family="sans-serif" font-size="14" lengthAdjust="spacing" textLength="155.8115" x="892.5" y="817.6357">CONVERSATION_SENT</text><text fill="#000000" font-family="sans-serif" font-size="14" lengthAdjust="spacing" textLength="192.8555" x="892.5" y="833.9326">CONVERSATION_NOT_SENT</text><text fill="#000000" font-family="sans-serif" font-size="14" lengthAdjust="spacing" textLength="243.7354" x="892.5" y="850.2295">ACTIVE_CONVERSATION_UPDATED</text><text fill="#000000" font-family="sans-serif" font-size="14" lengthAdjust="spacing" textLength="192.377" x="892.5" y="866.5264">SENDING_CONVERSATIONS</text><text fill="#000000" font-family="sans-serif" font-size="14" lengthAdjust="spacing" textLength="175.4854" x="892.5" y="882.8232">SENDING_ACTIVE_USERS</text><text fill="#000000" font-family="sans-serif" font-size="14" lengthAdjust="spacing" textLength="189.458" x="892.5" y="899.1201">UPDATED_USER_RECEIVED</text><text fill="#000000" font-family="sans-serif" font-size="14" lengthAdjust="spacing" textLength="226.502" x="892.5" y="915.417">UPDATED_USER_NOT_RECEIVED</text><text fill="#000000" font-family="sans-serif" font-size="14" lengthAdjust="spacing" textLength="126.4512" x="892.5" y="931.7139">USER_LOGGED_IN</text><text fill="#000000" font-family="sans-serif" font-size="14" lengthAdjust="spacing" textLength="141.668" x="892.5" y="948.0107">USER_LOGGED_OUT</text><text fill="#000000" font-family="sans-serif" font-size="14" lengthAdjust="spacing" textLength="149.1396" x="892.5" y="964.3076">PARTICIPANT_ADDED</text><text fill="#000000" font-family="sans-serif" font-size="14" lengthAdjust="spacing" textLength="169.251" x="892.5" y="980.6045">PARTICIPANT_REMOVED</text><text fill="#000000" font-family="sans-serif" font-size="14" lengthAdjust="spacing" textLength="176.0869" x="892.5" y="996.9014">GROUP_NAME_CHANGED</text><text fill="#000000" font-family="sans-serif" font-size="14" lengthAdjust="spacing" textLength="265.1729" x="892.5" y="1013.1982">CONVERSATION_LOG_QUERY_RESULT</text><text fill="#000000" font-family="sans-serif" font-size="14" lengthAdjust="spacing" textLength="4.4502" x="892.5" y="1029.4951">&#160;</text><text fill="#000000" font-family="sans-serif" font-size="14" lengthAdjust="spacing" textLength="172.3613" x="892.5" y="1045.792">LIST_OF_USERS_SIMILAR</text><text fill="#000000" font-family="sans-serif" font-size="14" lengthAdjust="spacing" textLength="229.5234" x="892.5" y="1062.0889">CONVERSATION_LOG_NOT_SENT</text><text fill="#000000" font-family="sans-serif" font-size="14" lengthAdjust="spacing" textLength="192.4795" x="892.5" y="1078.3857">CONVERSATION_LOG_SENT</text><line style="stroke:#181818;stroke-width:0.5;" x1="887.5" x2="1162.6729" y1="1085.6875" y2="1085.6875"/></g><!--class Report--><g class="entity" data-qualified-name="Model Layer.Report" data-source-line="131" id="ent0011"><rect fill="#F1F1F1" height="96.8906" rx="2.5" ry="2.5" style="stroke:#181818;stroke-width:0.5;" width="194.0957" x="335" y="1154"/><ellipse cx="404.2788" cy="1170" fill="#ADD1B2" rx="11" ry="11" style="stroke:#181818;stroke-width:1;"/><path d="M407.2476,1175.6406 Q406.6694,1175.9375 406.0288,1176.0781 Q405.3882,1176.2344 404.6851,1176.2344 Q402.1851,1176.2344 400.8569,1174.5938 Q399.5444,1172.9375 399.5444,1169.8125 Q399.5444,1166.6875 400.8569,1165.0313 Q402.1851,1163.375 404.6851,1163.375 Q405.3882,1163.375 406.0288,1163.5313 Q406.6851,1163.6875 407.2476,1163.9844 L407.2476,1166.7031 Q406.6226,1166.125 406.0288,1165.8594 Q405.4351,1165.5781 404.8101,1165.5781 Q403.4663,1165.5781 402.7788,1166.6563 Q402.0913,1167.7188 402.0913,1169.8125 Q402.0913,1171.9063 402.7788,1172.9844 Q403.4663,1174.0469 404.8101,1174.0469 Q405.4351,1174.0469 406.0288,1173.7813 Q406.6226,1173.5 407.2476,1172.9219 L407.2476,1175.6406 Z " fill="#000000"/><text fill="#000000" font-family="sans-serif" font-size="14" lengthAdjust="spacing" textLength="47.0381" x="424.7788" y="1174.8467">Report</text><line style="stroke:#181818;stroke-width:0.5;" x1="336" x2="528.0957" y1="1186" y2="1186"/><g data-visibility-modifier="PRIVATE_FIELD"><rect fill="none" height="6" style="stroke:#C82930;stroke-width:1;" width="6" x="343" y="1196.6484"/></g><text fill="#000000" font-family="sans-serif" font-size="14" lengthAdjust="spacing" textLength="130.2109" x="355" y="1202.9951">resolved : Boolean</text><line style="stroke:#181818;stroke-width:0.5;" x1="336" x2="528.0957" y1="1210.2969" y2="1210.2969"/><g data-visibility-modifier="PUBLIC_METHOD"><ellipse cx="346" cy="1223.9453" fill="#84BE84" rx="3" ry="3" style="stroke:#038048;stroke-width:1;"/></g><text fill="#000000" font-family="sans-serif" font-size="14" lengthAdjust="spacing" textLength="168.0957" x="355" y="1227.292">getResolved() : Boolean</text><g data-visibility-modifier="PUBLIC_METHOD"><ellipse cx="346" cy="1240.2422" fill="#84BE84" rx="3" ry="3" style="stroke:#038048;stroke-width:1;"/></g><text fill="#000000" font-family="sans-serif" font-size="14" lengthAdjust="spacing" textLength="61.9404" x="355" y="1243.5889">resolve()</text></g><!--reverse link Conversation to GroupChat--><g class="link" data-entity-1="ent0005" data-entity-2="ent0006" data-link-type="extension" data-source-line="137" id="lnk12"><path codeLine="137" d="M163.3165,327.1643 C160.6365,433.5043 156.61,592.73 154.02,695.35" fill="none" id="Conversation-backto-GroupChat" style="stroke:#181818;stroke-width:1;"/><polygon fill="none" points="163.77,309.17,157.3184,327.0131,169.3146,327.3155,163.77,309.17" style="stroke:#181818;stroke-width:1;"/></g><!--reverse link Message to Report--><g class="link" data-entity-1="ent0007" data-entity-2="ent0011" data-link-type="extension" data-source-line="138" id="lnk13"><path codeLine="138" d="M432,886.72 C432,974.22 432,1084.91 432,1153.81" fill="none" id="Message-backto-Report" style="stroke:#181818;stroke-width:1;"/><polygon fill="none" points="432,868.72,426,886.72,438,886.72,432,868.72" style="stroke:#181818;stroke-width:1;"/></g><!--reverse link User to LoginInfo--><g class="link" data-entity-1="ent0003" data-entity-2="ent0004" data-link-type="composition" data-source-line="139" id="lnk14"><path codeLine="139" d="M585.6965,349.727 C619.2665,458.577 664.73,605.99 693.49,699.26" fill="none" id="User-backto-LoginInfo" style="stroke:#181818;stroke-width:1;"/><polygon fill="#181818" points="582.16,338.26,580.1059,345.1724,585.6965,349.727,587.7506,342.8147,582.16,338.26" style="stroke:#181818;stroke-width:1;"/><text fill="#000000" font-family="sans-serif" font-size="13" lengthAdjust="spacing" textLength="8.271" x="576.0363" y="357.6148">1</text><text fill="#000000" font-family="sans-serif" font-size="13" lengthAdjust="spacing" textLength="8.271" x="682.9653" y="688.5189">1</text></g><!--reverse link Conversation to Message--><g class="link" data-entity-1="ent0005" data-entity-2="ent0007" data-link-type="composition" data-source-line="140" id="lnk15"><path codeLine="140" d="M224.2792,319.4285 C249.8292,363.7885 274.31,408.37 299,459 C335.31,533.47 371.4,620.38 396.81,684.26" fill="none" id="Conversation-backto-Message" style="stroke:#181818;stroke-width:1;"/><polygon fill="#181818" points="218.29,309.03,217.8184,316.2257,224.2792,319.4285,224.7508,312.2328,218.29,309.03" style="stroke:#181818;stroke-width:1;"/><text fill="#000000" font-family="sans-serif" font-size="13" lengthAdjust="spacing" textLength="8.271" x="214.4615" y="329.382">1</text><text fill="#000000" font-family="sans-serif" font-size="13" lengthAdjust="spacing" textLength="6.5" x="387.7961" y="673.3717">*</text></g><?plantuml-src ZLR1afiu4Btp5IgV89avx7NADLK468Sg6ti1prPEbCOe3Xii4IISdStctxSbX13WpEuSFAXVTwlxzPEWmQUl-4pGQiTAKgCjVYNj2lrm78Jm2nSjFWbqgZ7dwCX9YzPh-ArmNVsDNsho-0YU2Fxk4HTOL2TqOXqLw075L6YWWu2u15CcsegUjRLcvufMz3C3O2kVOtZMM4jmdU0BcSSqZ5UYOdHkhuGgxG5zOAmcc6hpYT4hQJcM8N780VVR5hzkAoxMVVmZ6cgai6SPB0AEbBKbQKbv1u_LjuuCWIhklQB4zUo5x9RQjT-X1iZx3dcCQGWu4o5WFuHfYRX-_inQXEiQNN7T4OxSAsuhrd4PybFEf1-5OMmnZnyMw_GMX_DYT2qcezjHk_Rljwe-wkIkDqy3u47li0IZRnskkSl45pKjiwLdZGwQN2hF7emHt6IyvRBF5kHODPWAEKWrT5dseyOlX7EGlS5s_Ng0Jw07GKg_bp9esyZvmhX8oObGeKD63wJxn6MfCVVoWFIZRFBAgd8aIWFSfG-eeiAxMOgcT6p6zURjMBhOjAnhWYzO69REqdBhCAaEcPo3pAFtCl7k2-Oon6RU6zkp2dAxFiEilvPSs9MywVTUYbwMvewAyv2ZEauMwhAw78XVhwlBfHFw8lhbpIJ8NsBUlQX0009VciLyEQ5mukDmBjvXei8w7VpMuSXXkvi78n_sLAYzgu8plV6YxRxfFrhSDEe2rar_lTMqx5cA_xLcM9w9_SkVv2IS_bQ5-ukB_BMHWqt7bKPvmoWd1XwNZYnGR-_EKzyXiOpmdFyLO2hm72rpvQe8q8KhkvrQWSgWYzCU9fTs6Bi31WdjBhODfB7TR-94aGzF-sEk7jDe4sTvbAh59igBOnQbHPmyxPKbYvAms4LPvcyYPV33i3ZuQHu7yS5FXXox_NEqC0TfvETH4UoJvoZD_3pU9xPza-wFXoKgQrWOZuTGXlX17Zz7luIdfGSV_MGpR9Fukxx-tuzH-ccIeG0sYW-VLFH_kCIX9iLFWuz55k_YhP-gmEoDI4So152MBw61_YBEhQcPqUkX5Tan2608UlNanrjhZZOgbmOsoHKnWzVKQfmDUGNCF7V6PRBFUvFqqbBe3SDYuY4L4oURjqHZIfdRhShdYhBANq0cJ4jAwaiIF8JCpCRzXa1Dp2ri39n4oCudbWaVDpHRz7eD9tpP3ja4qHb6cUdmVe1f54G0Xyx4AaimY1al26G37d0BsClXAh0fXSb0e6tfUGyjdkMPAlfJ5YvfaKUcFmzfb1stkTCh5gHNx9_wPeOJX9n5fA5mWIYhzMQKfwKTN_vmgRFwIahh-sguK9NTzIQ8TWTh_-APV7Qj_xc_7xyF7FCEbkP-MqTzXQz-Mw5tO9F_nm_xIIhZycurl5QTd_y2?></g></svg>