<?plantuml 1.2026.2?><svg xmlns="http://www.w3.org/2000/svg" xmlns:xlink="http://www.w3.org/1999/xlink" contentStyleType="text/css" data-diagram-type="CLASS" height="701px" preserveAspectRatio="none" style="width:875px;height:701px;background:#FFFFFF;" version="1.1" viewBox="0 0 875 701" width="875px" zoomAndPan="magnify"><defs/><g><!--cluster Model Layer--><g class="cluster" data-qualified-name="Model Layer" data-source-line="2" id="ent0002"><path d="M8.5,6 L106.1328,6 A3.75,3.75 0 0 1 108.6328,8.5 L115.6328,28.2969 L865.5,28.2969 A2.5,2.5 0 0 1 868,30.7969 L868,691.5 A2.5,2.5 0 0 1 865.5,694 L8.5,694 A2.5,2.5 0 0 1 6,691.5 L6,8.5 A2.5,2.5 0 0 1 8.5,6" fill="none" style="stroke:#000000;stroke-width:1.5;"/><line style="stroke:#000000;stroke-width:1.5;" x1="6" x2="115.6328" y1="28.2969" y2="28.2969"/><text fill="#000000" font-family="sans-serif" font-size="14" font-weight="bold" lengthAdjust="spacing" textLength="96.6328" x="10" y="20.9951">Model Layer</text></g><!--class User--><g class="entity" data-qualified-name="Model Layer.User" data-source-line="4" id="ent0003"><rect fill="#F1F1F1" height="235.5313" rx="2.5" ry="2.5" style="stroke:#181818;stroke-width:0.5;" width="401.6826" x="450" y="41"/><ellipse cx="607.23" cy="61.1328" fill="#A9DCDF" rx="11" ry="11" style="stroke:#181818;stroke-width:1;"/><path d="M607.3394,56.4766 L606.1831,61.5547 L608.5112,61.5547 L607.3394,56.4766 Z M605.855,54.2422 L608.8394,54.2422 L612.1987,66.6328 L609.7456,66.6328 L608.98,63.5703 L605.6987,63.5703 L604.9487,66.6328 L602.5112,66.6328 L605.855,54.2422 Z " fill="#000000"/><text fill="#000000" font-family="sans-serif" font-size="12" font-style="italic" lengthAdjust="spacing" textLength="82.7227" x="625.73" y="57.1387">&#171;serializable&#187;</text><text fill="#000000" font-family="sans-serif" font-size="14" font-style="italic" lengthAdjust="spacing" textLength="31.9102" x="651.1362" y="72.9639">User</text><line style="stroke:#181818;stroke-width:0.5;" x1="451" x2="850.6826" y1="81.2656" y2="81.2656"/><g data-visibility-modifier="PRIVATE_FIELD"><rect fill="none" height="6" style="stroke:#C82930;stroke-width:1;" width="6" x="458" y="91.9141"/></g><text fill="#000000" font-family="sans-serif" font-size="14" lengthAdjust="spacing" textLength="114.4951" x="470" y="98.2607">static count : Int</text><g data-visibility-modifier="PRIVATE_FIELD"><rect fill="none" height="6" style="stroke:#C82930;stroke-width:1;" width="6" x="458" y="108.2109"/></g><text fill="#000000" font-family="sans-serif" font-size="14" lengthAdjust="spacing" textLength="98.9502" x="470" y="114.5576">userId : String</text><g data-visibility-modifier="PRIVATE_FIELD"><rect fill="none" height="6" style="stroke:#C82930;stroke-width:1;" width="6" x="458" y="124.5078"/></g><text fill="#000000" font-family="sans-serif" font-size="14" lengthAdjust="spacing" textLength="138.4893" x="470" y="130.8545">logininfo : LoginInfo</text><g data-visibility-modifier="PRIVATE_FIELD"><rect fill="none" height="6" style="stroke:#C82930;stroke-width:1;" width="6" x="458" y="140.8047"/></g><text fill="#000000" font-family="sans-serif" font-size="14" lengthAdjust="spacing" textLength="123.5391" x="470" y="147.1514">realName : String</text><g data-visibility-modifier="PRIVATE_FIELD"><rect fill="none" height="6" style="stroke:#C82930;stroke-width:1;" width="6" x="458" y="157.1016"/></g><text fill="#000000" font-family="sans-serif" font-size="14" lengthAdjust="spacing" textLength="110.8516" x="470" y="163.4482">position : String</text><g data-visibility-modifier="PRIVATE_FIELD"><rect fill="none" height="6" style="stroke:#C82930;stroke-width:1;" width="6" x="458" y="173.3984"/></g><text fill="#000000" font-family="sans-serif" font-size="14" lengthAdjust="spacing" textLength="111.5967" x="470" y="179.7451">itUser : Boolean</text><g data-visibility-modifier="PRIVATE_FIELD"><rect fill="none" height="6" style="stroke:#C82930;stroke-width:1;" width="6" x="458" y="189.6953"/></g><text fill="#000000" font-family="sans-serif" font-size="14" lengthAdjust="spacing" textLength="253.9688" x="470" y="196.042">conversationIDs : ArrayList&lt;String&gt;</text><g data-visibility-modifier="PRIVATE_FIELD"><rect fill="none" height="6" style="stroke:#C82930;stroke-width:1;" width="6" x="458" y="205.9922"/></g><text fill="#000000" font-family="sans-serif" font-size="14" lengthAdjust="spacing" textLength="375.6826" x="470" y="212.3389">unreadConversationIDs : Unordered, Unique&lt;String&gt;</text><line style="stroke:#181818;stroke-width:0.5;" x1="451" x2="850.6826" y1="219.6406" y2="219.6406"/><g data-visibility-modifier="PUBLIC_METHOD"><ellipse cx="461" cy="233.2891" fill="#84BE84" rx="3" ry="3" style="stroke:#038048;stroke-width:1;"/></g><text fill="#000000" font-family="sans-serif" font-size="14" lengthAdjust="spacing" textLength="42.834" x="470" y="236.6357">User()</text><g data-visibility-modifier="PUBLIC_METHOD"><ellipse cx="461" cy="249.5859" fill="#84BE84" rx="3" ry="3" style="stroke:#038048;stroke-width:1;"/></g><text fill="#000000" font-family="sans-serif" font-size="14" lengthAdjust="spacing" textLength="299.4824" x="470" y="252.9326">User(username : String, password : String)</text><g data-visibility-modifier="PUBLIC_METHOD"><ellipse cx="461" cy="265.8828" fill="#84BE84" rx="3" ry="3" style="stroke:#038048;stroke-width:1;"/></g><text fill="#000000" font-family="sans-serif" font-size="14" lengthAdjust="spacing" textLength="295.0391" x="470" y="269.2295">getters and setters for all values (various)</text></g><!--class LoginInfo--><g class="entity" data-qualified-name="Model Layer.LoginInfo" data-source-line="18" id="ent0004"><rect fill="#F1F1F1" height="154.0469" rx="2.5" ry="2.5" style="stroke:#181818;stroke-width:0.5;" width="269.0244" x="582.5" y="352"/><ellipse cx="673.4009" cy="372.1328" fill="#ADD1B2" rx="11" ry="11" style="stroke:#181818;stroke-width:1;"/><path d="M676.3696,377.7734 Q675.7915,378.0703 675.1509,378.2109 Q674.5103,378.3672 673.8071,378.3672 Q671.3071,378.3672 669.979,376.7266 Q668.6665,375.0703 668.6665,371.9453 Q668.6665,368.8203 669.979,367.1641 Q671.3071,365.5078 673.8071,365.5078 Q674.5103,365.5078 675.1509,365.6641 Q675.8071,365.8203 676.3696,366.1172 L676.3696,368.8359 Q675.7446,368.2578 675.1509,367.9922 Q674.5571,367.7109 673.9321,367.7109 Q672.5884,367.7109 671.9009,368.7891 Q671.2134,369.8516 671.2134,371.9453 Q671.2134,374.0391 671.9009,375.1172 Q672.5884,376.1797 673.9321,376.1797 Q674.5571,376.1797 675.1509,375.9141 Q675.7446,375.6328 676.3696,375.0547 L676.3696,377.7734 Z " fill="#000000"/><text fill="#000000" font-family="sans-serif" font-size="12" font-style="italic" lengthAdjust="spacing" textLength="82.7227" x="691.9009" y="368.1387">&#171;serializable&#187;</text><text fill="#000000" font-family="sans-serif" font-size="14" lengthAdjust="spacing" textLength="64.5107" x="701.0068" y="383.9639">LoginInfo</text><line style="stroke:#181818;stroke-width:0.5;" x1="583.5" x2="850.5244" y1="392.2656" y2="392.2656"/><g data-visibility-modifier="PRIVATE_FIELD"><rect fill="none" height="6" style="stroke:#C82930;stroke-width:1;" width="6" x="590.5" y="402.9141"/></g><text fill="#000000" font-family="sans-serif" font-size="14" lengthAdjust="spacing" textLength="125.6377" x="602.5" y="409.2607">username : String</text><g data-visibility-modifier="PRIVATE_FIELD"><rect fill="none" height="6" style="stroke:#C82930;stroke-width:1;" width="6" x="590.5" y="419.2109"/></g><text fill="#000000" font-family="sans-serif" font-size="14" lengthAdjust="spacing" textLength="122.1104" x="602.5" y="425.5576">password : String</text><line style="stroke:#181818;stroke-width:0.5;" x1="583.5" x2="850.5244" y1="432.8594" y2="432.8594"/><g data-visibility-modifier="PUBLIC_METHOD"><ellipse cx="593.5" cy="446.5078" fill="#84BE84" rx="3" ry="3" style="stroke:#038048;stroke-width:1;"/></g><text fill="#000000" font-family="sans-serif" font-size="14" lengthAdjust="spacing" textLength="233.2148" x="602.5" y="449.8545">LoginInfo(un : String, pw : String)</text><g data-visibility-modifier="PUBLIC_METHOD"><ellipse cx="593.5" cy="462.8047" fill="#84BE84" rx="3" ry="3" style="stroke:#038048;stroke-width:1;"/></g><text fill="#000000" font-family="sans-serif" font-size="14" lengthAdjust="spacing" textLength="160.9248" x="602.5" y="466.1514">getUsername() : String</text><g data-visibility-modifier="PUBLIC_METHOD"><ellipse cx="593.5" cy="479.1016" fill="#84BE84" rx="3" ry="3" style="stroke:#038048;stroke-width:1;"/></g><text fill="#000000" font-family="sans-serif" font-size="14" lengthAdjust="spacing" textLength="155.5791" x="602.5" y="482.4482">getPassword() : String</text><g data-visibility-modifier="PUBLIC_METHOD"><ellipse cx="593.5" cy="495.3984" fill="#84BE84" rx="3" ry="3" style="stroke:#038048;stroke-width:1;"/></g><text fill="#000000" font-family="sans-serif" font-size="14" lengthAdjust="spacing" textLength="243.0244" x="602.5" y="498.7451">Equals(other : LoginInfo) : Boolean</text></g><!--class Conversation--><g class="entity" data-qualified-name="Model Layer.Conversation" data-source-line="28" id="ent0005"><rect fill="#F1F1F1" height="178.375" rx="2.5" ry="2.5" style="stroke:#181818;stroke-width:0.5;" width="287.7686" x="75" y="70"/><ellipse cx="168.355" cy="86" fill="#A9DCDF" rx="11" ry="11" style="stroke:#181818;stroke-width:1;"/><path d="M168.4644,81.3438 L167.3081,86.4219 L169.6362,86.4219 L168.4644,81.3438 Z M166.98,79.1094 L169.9644,79.1094 L173.3237,91.5 L170.8706,91.5 L170.105,88.4375 L166.8237,88.4375 L166.0737,91.5 L163.6362,91.5 L166.98,79.1094 Z " fill="#000000"/><text fill="#000000" font-family="sans-serif" font-size="14" font-style="italic" lengthAdjust="spacing" textLength="92.5586" x="188.855" y="90.8467">Conversation</text><line style="stroke:#181818;stroke-width:0.5;" x1="76" x2="361.7686" y1="102" y2="102"/><g data-visibility-modifier="PRIVATE_FIELD"><rect fill="none" height="6" style="stroke:#C82930;stroke-width:1;" width="6" x="83" y="112.6484"/></g><text fill="#000000" font-family="sans-serif" font-size="14" lengthAdjust="spacing" textLength="158.8945" x="95" y="118.9951">conversationId : String</text><g data-visibility-modifier="PRIVATE_FIELD"><rect fill="none" height="6" style="stroke:#C82930;stroke-width:1;" width="6" x="83" y="128.9453"/></g><text fill="#000000" font-family="sans-serif" font-size="14" lengthAdjust="spacing" textLength="176.7705" x="95" y="135.292">participants : List&lt;User&gt;</text><g data-visibility-modifier="PRIVATE_FIELD"><rect fill="none" height="6" style="stroke:#C82930;stroke-width:1;" width="6" x="83" y="145.2422"/></g><text fill="#000000" font-family="sans-serif" font-size="14" lengthAdjust="spacing" textLength="193.1221" x="95" y="151.5889">messages : List&lt;Message&gt;</text><g data-visibility-modifier="PRIVATE_FIELD"><rect fill="none" height="6" style="stroke:#C82930;stroke-width:1;" width="6" x="83" y="161.5391"/></g><text fill="#000000" font-family="sans-serif" font-size="14" lengthAdjust="spacing" textLength="131.0449" x="95" y="167.8857">createdAt : Instant</text><g data-visibility-modifier="PRIVATE_FIELD"><rect fill="none" height="6" style="stroke:#C82930;stroke-width:1;" width="6" x="83" y="177.8359"/></g><text fill="#000000" font-family="sans-serif" font-size="14" lengthAdjust="spacing" textLength="207.7031" x="95" y="184.1826">mostRecentMessage : Instant</text><line style="stroke:#181818;stroke-width:0.5;" x1="76" x2="361.7686" y1="191.4844" y2="191.4844"/><g data-visibility-modifier="PUBLIC_METHOD"><ellipse cx="86" cy="205.1328" fill="#84BE84" rx="3" ry="3" style="stroke:#038048;stroke-width:1;"/></g><text fill="#000000" font-family="sans-serif" font-size="14" lengthAdjust="spacing" textLength="226.0439" x="95" y="208.4795">addMessage(m: Message) : void</text><g data-visibility-modifier="PUBLIC_METHOD"><ellipse cx="86" cy="221.4297" fill="#84BE84" rx="3" ry="3" style="stroke:#038048;stroke-width:1;"/></g><text fill="#000000" font-family="sans-serif" font-size="14" lengthAdjust="spacing" textLength="261.7686" x="95" y="224.7764">getMessages(n: int) : List&lt;Message&gt;</text><g data-visibility-modifier="PUBLIC_METHOD"><ellipse cx="86" cy="237.7266" fill="#84BE84" rx="3" ry="3" style="stroke:#038048;stroke-width:1;"/></g><text fill="#000000" font-family="sans-serif" font-size="14" lengthAdjust="spacing" textLength="210.2393" x="95" y="241.0732">getParticipants() : List&lt;User&gt;</text></g><!--class GroupChat--><g class="entity" data-qualified-name="Model Layer.GroupChat" data-source-line="39" id="ent0006"><rect fill="#F1F1F1" height="162.0781" rx="2.5" ry="2.5" style="stroke:#181818;stroke-width:0.5;" width="259.1602" x="22.5" y="348"/><ellipse cx="110.0068" cy="364" fill="#ADD1B2" rx="11" ry="11" style="stroke:#181818;stroke-width:1;"/><path d="M112.9756,369.6406 Q112.3975,369.9375 111.7568,370.0781 Q111.1162,370.2344 110.4131,370.2344 Q107.9131,370.2344 106.585,368.5938 Q105.2725,366.9375 105.2725,363.8125 Q105.2725,360.6875 106.585,359.0313 Q107.9131,357.375 110.4131,357.375 Q111.1162,357.375 111.7568,357.5313 Q112.4131,357.6875 112.9756,357.9844 L112.9756,360.7031 Q112.3506,360.125 111.7568,359.8594 Q111.1631,359.5781 110.5381,359.5781 Q109.1943,359.5781 108.5068,360.6563 Q107.8193,361.7188 107.8193,363.8125 Q107.8193,365.9063 108.5068,366.9844 Q109.1943,368.0469 110.5381,368.0469 Q111.1631,368.0469 111.7568,367.7813 Q112.3506,367.5 112.9756,366.9219 L112.9756,369.6406 Z " fill="#000000"/><text fill="#000000" font-family="sans-serif" font-size="14" lengthAdjust="spacing" textLength="75.6465" x="130.5068" y="368.8467">GroupChat</text><line style="stroke:#181818;stroke-width:0.5;" x1="23.5" x2="280.6602" y1="380" y2="380"/><g data-visibility-modifier="PRIVATE_FIELD"><rect fill="none" height="6" style="stroke:#C82930;stroke-width:1;" width="6" x="30.5" y="390.6484"/></g><text fill="#000000" font-family="sans-serif" font-size="14" lengthAdjust="spacing" textLength="137.6689" x="42.5" y="396.9951">groupName : String</text><g data-visibility-modifier="PRIVATE_FIELD"><rect fill="none" height="6" style="stroke:#C82930;stroke-width:1;" width="6" x="30.5" y="406.9453"/></g><text fill="#000000" font-family="sans-serif" font-size="14" lengthAdjust="spacing" textLength="95.9834" x="42.5" y="413.292">creator : User</text><line style="stroke:#181818;stroke-width:0.5;" x1="23.5" x2="280.6602" y1="420.5938" y2="420.5938"/><g data-visibility-modifier="PUBLIC_METHOD"><ellipse cx="33.5" cy="434.2422" fill="#84BE84" rx="3" ry="3" style="stroke:#038048;stroke-width:1;"/></g><text fill="#000000" font-family="sans-serif" font-size="14" lengthAdjust="spacing" textLength="226.1191" x="42.5" y="437.5889">GroupChat(base : Conversation)</text><g data-visibility-modifier="PUBLIC_METHOD"><ellipse cx="33.5" cy="450.5391" fill="#84BE84" rx="3" ry="3" style="stroke:#038048;stroke-width:1;"/></g><text fill="#000000" font-family="sans-serif" font-size="14" lengthAdjust="spacing" textLength="206.042" x="42.5" y="453.8857">addParticipant(u: User) : void</text><g data-visibility-modifier="PUBLIC_METHOD"><ellipse cx="33.5" cy="466.8359" fill="#84BE84" rx="3" ry="3" style="stroke:#038048;stroke-width:1;"/></g><text fill="#000000" font-family="sans-serif" font-size="14" lengthAdjust="spacing" textLength="233.1602" x="42.5" y="470.1826">removeParticipant(u: User) : void</text><g data-visibility-modifier="PUBLIC_METHOD"><ellipse cx="33.5" cy="483.1328" fill="#84BE84" rx="3" ry="3" style="stroke:#038048;stroke-width:1;"/></g><text fill="#000000" font-family="sans-serif" font-size="14" lengthAdjust="spacing" textLength="137.8945" x="42.5" y="486.4795">setName(n : String)</text><g data-visibility-modifier="PUBLIC_METHOD"><ellipse cx="33.5" cy="499.4297" fill="#84BE84" rx="3" ry="3" style="stroke:#038048;stroke-width:1;"/></g><text fill="#000000" font-family="sans-serif" font-size="14" lengthAdjust="spacing" textLength="130.6143" x="42.5" y="502.7764">getName() : String</text></g><!--class Message--><g class="entity" data-qualified-name="Model Layer.Message" data-source-line="49" id="ent0007"><rect fill="#F1F1F1" height="184.3125" rx="2.5" ry="2.5" style="stroke:#181818;stroke-width:0.5;" width="230.7637" x="316.5" y="337"/><ellipse cx="388.2705" cy="364.1172" fill="#ADD1B2" rx="11" ry="11" style="stroke:#181818;stroke-width:1;"/><path d="M391.2393,369.7578 Q390.6611,370.0547 390.0205,370.1953 Q389.3799,370.3516 388.6768,370.3516 Q386.1768,370.3516 384.8486,368.7109 Q383.5361,367.0547 383.5361,363.9297 Q383.5361,360.8047 384.8486,359.1484 Q386.1768,357.4922 388.6768,357.4922 Q389.3799,357.4922 390.0205,357.6484 Q390.6768,357.8047 391.2393,358.1016 L391.2393,360.8203 Q390.6143,360.2422 390.0205,359.9766 Q389.4268,359.6953 388.8018,359.6953 Q387.458,359.6953 386.7705,360.7734 Q386.083,361.8359 386.083,363.9297 Q386.083,366.0234 386.7705,367.1016 Q387.458,368.1641 388.8018,368.1641 Q389.4268,368.1641 390.0205,367.8984 Q390.6143,367.6172 391.2393,367.0391 L391.2393,369.7578 Z " fill="#000000"/><text fill="#000000" font-family="sans-serif" font-size="12" font-style="italic" lengthAdjust="spacing" textLength="79.5234" x="408.3701" y="353.1387">&#171;immutable&#187;</text><text fill="#000000" font-family="sans-serif" font-size="12" font-style="italic" lengthAdjust="spacing" textLength="82.7227" x="406.7705" y="367.1074">&#171;serializable&#187;</text><text fill="#000000" font-family="sans-serif" font-size="14" lengthAdjust="spacing" textLength="61.3594" x="417.4521" y="382.9326">Message</text><line style="stroke:#181818;stroke-width:0.5;" x1="317.5" x2="546.2637" y1="391.2344" y2="391.2344"/><g data-visibility-modifier="PRIVATE_FIELD"><rect fill="none" height="6" style="stroke:#C82930;stroke-width:1;" width="6" x="324.5" y="401.8828"/></g><text fill="#000000" font-family="sans-serif" font-size="14" lengthAdjust="spacing" textLength="83.2754" x="336.5" y="408.2295">text : String</text><g data-visibility-modifier="PRIVATE_FIELD"><rect fill="none" height="6" style="stroke:#C82930;stroke-width:1;" width="6" x="324.5" y="418.1797"/></g><text fill="#000000" font-family="sans-serif" font-size="14" lengthAdjust="spacing" textLength="137.8604" x="336.5" y="424.5264">timestamp : Instant</text><g data-visibility-modifier="PRIVATE_FIELD"><rect fill="none" height="6" style="stroke:#C82930;stroke-width:1;" width="6" x="324.5" y="434.4766"/></g><text fill="#000000" font-family="sans-serif" font-size="14" lengthAdjust="spacing" textLength="118.3438" x="336.5" y="440.8232">senderID : String</text><line style="stroke:#181818;stroke-width:0.5;" x1="317.5" x2="546.2637" y1="448.125" y2="448.125"/><g data-visibility-modifier="PUBLIC_METHOD"><ellipse cx="327.5" cy="461.7734" fill="#84BE84" rx="3" ry="3" style="stroke:#038048;stroke-width:1;"/></g><text fill="#000000" font-family="sans-serif" font-size="14" lengthAdjust="spacing" textLength="204.7637" x="336.5" y="465.1201">Message(t : String, s : String)</text><g data-visibility-modifier="PUBLIC_METHOD"><ellipse cx="327.5" cy="478.0703" fill="#84BE84" rx="3" ry="3" style="stroke:#038048;stroke-width:1;"/></g><text fill="#000000" font-family="sans-serif" font-size="14" lengthAdjust="spacing" textLength="120.251" x="336.5" y="481.417">getText() : String</text><g data-visibility-modifier="PUBLIC_METHOD"><ellipse cx="327.5" cy="494.3672" fill="#84BE84" rx="3" ry="3" style="stroke:#038048;stroke-width:1;"/></g><text fill="#000000" font-family="sans-serif" font-size="14" lengthAdjust="spacing" textLength="174.8359" x="336.5" y="497.7139">getTimestamp() : Instant</text><g data-visibility-modifier="PUBLIC_METHOD"><ellipse cx="327.5" cy="510.6641" fill="#84BE84" rx="3" ry="3" style="stroke:#038048;stroke-width:1;"/></g><text fill="#000000" font-family="sans-serif" font-size="14" lengthAdjust="spacing" textLength="153.8496" x="336.5" y="514.0107">getSenderID() : String</text></g><!--class Report--><g class="entity" data-qualified-name="Model Layer.Report" data-source-line="59" id="ent0008"><rect fill="#F1F1F1" height="96.8906" rx="2.5" ry="2.5" style="stroke:#181818;stroke-width:0.5;" width="194.0957" x="335" y="581"/><ellipse cx="404.2788" cy="597" fill="#ADD1B2" rx="11" ry="11" style="stroke:#181818;stroke-width:1;"/><path d="M407.2476,602.6406 Q406.6694,602.9375 406.0288,603.0781 Q405.3882,603.2344 404.6851,603.2344 Q402.1851,603.2344 400.8569,601.5938 Q399.5444,599.9375 399.5444,596.8125 Q399.5444,593.6875 400.8569,592.0313 Q402.1851,590.375 404.6851,590.375 Q405.3882,590.375 406.0288,590.5313 Q406.6851,590.6875 407.2476,590.9844 L407.2476,593.7031 Q406.6226,593.125 406.0288,592.8594 Q405.4351,592.5781 404.8101,592.5781 Q403.4663,592.5781 402.7788,593.6563 Q402.0913,594.7188 402.0913,596.8125 Q402.0913,598.9063 402.7788,599.9844 Q403.4663,601.0469 404.8101,601.0469 Q405.4351,601.0469 406.0288,600.7813 Q406.6226,600.5 407.2476,599.9219 L407.2476,602.6406 Z " fill="#000000"/><text fill="#000000" font-family="sans-serif" font-size="14" lengthAdjust="spacing" textLength="47.0381" x="424.7788" y="601.8467">Report</text><line style="stroke:#181818;stroke-width:0.5;" x1="336" x2="528.0957" y1="613" y2="613"/><g data-visibility-modifier="PRIVATE_FIELD"><rect fill="none" height="6" style="stroke:#C82930;stroke-width:1;" width="6" x="343" y="623.6484"/></g><text fill="#000000" font-family="sans-serif" font-size="14" lengthAdjust="spacing" textLength="130.2109" x="355" y="629.9951">resolved : Boolean</text><line style="stroke:#181818;stroke-width:0.5;" x1="336" x2="528.0957" y1="637.2969" y2="637.2969"/><g data-visibility-modifier="PUBLIC_METHOD"><ellipse cx="346" cy="650.9453" fill="#84BE84" rx="3" ry="3" style="stroke:#038048;stroke-width:1;"/></g><text fill="#000000" font-family="sans-serif" font-size="14" lengthAdjust="spacing" textLength="168.0957" x="355" y="654.292">getResolved() : Boolean</text><g data-visibility-modifier="PUBLIC_METHOD"><ellipse cx="346" cy="667.2422" fill="#84BE84" rx="3" ry="3" style="stroke:#038048;stroke-width:1;"/></g><text fill="#000000" font-family="sans-serif" font-size="14" lengthAdjust="spacing" textLength="61.9404" x="355" y="670.5889">resolve()</text></g><!--reverse link Conversation to GroupChat--><g class="link" data-entity-1="ent0005" data-entity-2="ent0006" data-link-type="extension" data-source-line="65" id="lnk9"><path codeLine="65" d="M192.6031,265.5822 C184.5531,297.7722 179.87,316.52 172.01,347.97" fill="none" id="Conversation-backto-GroupChat" style="stroke:#181818;stroke-width:1;"/><polygon fill="none" points="196.97,248.12,186.7823,264.1266,198.4238,267.0379,196.97,248.12" style="stroke:#181818;stroke-width:1;"/></g><!--reverse link Message to Report--><g class="link" data-entity-1="ent0007" data-entity-2="ent0008" data-link-type="extension" data-source-line="66" id="lnk10"><path codeLine="66" d="M432,539.12 C432,559.81 432,562.97 432,580.98" fill="none" id="Message-backto-Report" style="stroke:#181818;stroke-width:1;"/><polygon fill="none" points="432,521.12,426,539.12,438,539.12,432,521.12" style="stroke:#181818;stroke-width:1;"/></g><!--reverse link User to LoginInfo--><g class="link" data-entity-1="ent0003" data-entity-2="ent0004" data-link-type="composition" data-source-line="67" id="lnk11"><path codeLine="67" d="M682.7226,288.8111 C688.9726,314.1611 692.54,328.68 698.27,351.96" fill="none" id="User-backto-LoginInfo" style="stroke:#181818;stroke-width:1;"/><polygon fill="#181818" points="679.85,277.16,677.4026,283.9431,682.7226,288.8111,685.17,282.028,679.85,277.16" style="stroke:#181818;stroke-width:1;"/><text fill="#000000" font-family="sans-serif" font-size="13" lengthAdjust="spacing" textLength="8.271" x="673.3036" y="296.509">1</text><text fill="#000000" font-family="sans-serif" font-size="13" lengthAdjust="spacing" textLength="8.271" x="688.1153" y="340.9733">1</text></g><!--reverse link Conversation to Message--><g class="link" data-entity-1="ent0005" data-entity-2="ent0007" data-link-type="composition" data-source-line="68" id="lnk12"><path codeLine="68" d="M296.5052,257.5152 C319.0552,285.8952 336.63,308 359.36,336.61" fill="none" id="Conversation-backto-Message" style="stroke:#181818;stroke-width:1;"/><polygon fill="#181818" points="289.04,248.12,289.6409,255.306,296.5052,257.5152,295.9044,250.3292,289.04,248.12" style="stroke:#181818;stroke-width:1;"/><text fill="#000000" font-family="sans-serif" font-size="13" lengthAdjust="spacing" textLength="8.271" x="286.7369" y="268.4798">1</text><text fill="#000000" font-family="sans-serif" font-size="13" lengthAdjust="spacing" textLength="6.5" x="347.597" y="326.0222">*</text></g><?plantuml-src VLHDJ-Cm4BttLunwSe0Uzbf5bLXOhIeLj2hq1xZnKAnDx61Fmh8i_ttjn4dS9D13wyxpVBnvCovvzfkV49PtMc0EE_w6PWdlYmK0FreoF2F8Scuj72mQI5FtBNak__9ZZfkDkmdkim9Bd6G6cQuKmHgsYW9GEOUjSAO7CbATWZNN9wcaUj8EsFdprfq3Pf3dzxp0iK-fhIIfrTWkgIbj3T-rpf6hOCwqgj5OxbssjzRXryRmjvsqbBR-6-XgL2wdk9au79Gs0WsAAtUKBnLsZetVPTCIbiH_F5iLrtu5fMlUgulJcpg74nAvVC2L01lEJze0ptEeULwX1LPp8tLblSk7rwILek_OH8_tgEjgheVZOa8jVKHMgRZsrxcg3o4uIyPX7FWhP9Y2FrugdbkcwRbHgq-PHD8vajF9YuNf1-vCNZ7bQTmuof8hya8selkoDm4lq5etzZrsr_xluCpD0w6uRaVPpNO_peMsjCSC5GMNuGO4dbo8WB5Y3U7eITPQYg5H0R1ChK4gIcPB2IqToB1aJ2UQYvz6L-NDCwU-IoTlcLkcXg7sElWu8LVlpuxSUfUuyyb0Bog8LMs44J-3XQxnotkNVkXzQMoOk0GM3UFxoNH5BBl6fwaiYeh2G_JfoqJuXyRiIRe185wK4tqjAhVnszlny7QAKhGTTcuv7bswsSLux78sQ9orWHz2uazfxx7KPb3MeDLvZI9QdYREFjXPSeQ4wyxQHZtRgVJVQZM8l-WRxCrjsaNpn2w_BU72sVply6gVXUglN2oxdYq-_WC0?></g></svg>