<?plantuml 1.2026.2?><svg xmlns="http://www.w3.org/2000/svg" xmlns:xlink="http://www.w3.org/1999/xlink" contentStyleType="text/css" data-diagram-type="CLASS" height="1447px" preserveAspectRatio="none" style="width:1896px;height:1447px;background:#FFFFFF;" version="1.1" viewBox="0 0 1896 1447" width="1896px" zoomAndPan="magnify"><defs/><g><!--cluster Payload Layer--><g class="cluster" data-qualified-name="Payload Layer" data-source-line="3" id="ent0002"><path d="M90.5,63 L202.9873,63 A3.75,3.75 0 0 1 205.4873,65.5 L212.4873,85.2969 L528.5,85.2969 A2.5,2.5 0 0 1 531,87.7969 L531,224.5 A2.5,2.5 0 0 1 528.5,227 L90.5,227 A2.5,2.5 0 0 1 88,224.5 L88,65.5 A2.5,2.5 0 0 1 90.5,63" fill="none" style="stroke:#000000;stroke-width:1.5;"/><line style="stroke:#000000;stroke-width:1.5;" x1="88" x2="212.4873" y1="85.2969" y2="85.2969"/><text fill="#000000" font-family="sans-serif" font-size="14" font-weight="bold" lengthAdjust="spacing" textLength="111.4873" x="92" y="77.9951">Payload Layer</text></g><!--cluster Client Layer--><g class="cluster" data-qualified-name="Client Layer" data-source-line="17" id="ent0007"><path d="M638.5,6 L734.2939,6 A3.75,3.75 0 0 1 736.7939,8.5 L743.7939,28.2969 L1109.5,28.2969 A2.5,2.5 0 0 1 1112,30.7969 L1112,281.5 A2.5,2.5 0 0 1 1109.5,284 L638.5,284 A2.5,2.5 0 0 1 636,281.5 L636,8.5 A2.5,2.5 0 0 1 638.5,6" fill="none" style="stroke:#000000;stroke-width:1.5;"/><line style="stroke:#000000;stroke-width:1.5;" x1="636" x2="743.7939" y1="28.2969" y2="28.2969"/><text fill="#000000" font-family="sans-serif" font-size="14" font-weight="bold" lengthAdjust="spacing" textLength="94.7939" x="640" y="20.9951">Client Layer</text></g><!--cluster Server Layer--><g class="cluster" data-qualified-name="Server Layer" data-source-line="34" id="ent0009"><path d="M8.5,333 L110.2754,333 A3.75,3.75 0 0 1 112.7754,335.5 L119.7754,355.2969 L1540.5,355.2969 A2.5,2.5 0 0 1 1543,357.7969 L1543,1332 A2.5,2.5 0 0 1 1540.5,1334.5 L8.5,1334.5 A2.5,2.5 0 0 1 6,1332 L6,335.5 A2.5,2.5 0 0 1 8.5,333" fill="none" style="stroke:#000000;stroke-width:1.5;"/><line style="stroke:#000000;stroke-width:1.5;" x1="6" x2="119.7754" y1="355.2969" y2="355.2969"/><text fill="#000000" font-family="sans-serif" font-size="14" font-weight="bold" lengthAdjust="spacing" textLength="100.7754" x="10" y="347.9951">Server Layer</text></g><!--cluster Model Layer--><g class="cluster" data-qualified-name="Model Layer" data-source-line="128" id="ent0024"><path d="M1569.5,832.5 L1667.1328,832.5 A3.75,3.75 0 0 1 1669.6328,835 L1676.6328,854.7969 L1886.5,854.7969 A2.5,2.5 0 0 1 1889,857.2969 L1889,1437.5 A2.5,2.5 0 0 1 1886.5,1440 L1569.5,1440 A2.5,2.5 0 0 1 1567,1437.5 L1567,835 A2.5,2.5 0 0 1 1569.5,832.5" fill="none" style="stroke:#000000;stroke-width:1.5;"/><line style="stroke:#000000;stroke-width:1.5;" x1="1567" x2="1676.6328" y1="854.7969" y2="854.7969"/><text fill="#000000" font-family="sans-serif" font-size="14" font-weight="bold" lengthAdjust="spacing" textLength="96.6328" x="1571" y="847.4951">Model Layer</text></g><!--class Wrapper--><g class="entity" data-qualified-name="Payload Layer.Wrapper" data-source-line="4" id="ent0003"><rect fill="#F1F1F1" height="113.1875" rx="2.5" ry="2.5" style="stroke:#181818;stroke-width:0.5;" width="172.084" x="104" y="98"/><ellipse cx="155.6318" cy="114" fill="#ADD1B2" rx="11" ry="11" style="stroke:#181818;stroke-width:1;"/><path d="M158.6006,119.6406 Q158.0225,119.9375 157.3818,120.0781 Q156.7412,120.2344 156.0381,120.2344 Q153.5381,120.2344 152.21,118.5938 Q150.8975,116.9375 150.8975,113.8125 Q150.8975,110.6875 152.21,109.0313 Q153.5381,107.375 156.0381,107.375 Q156.7412,107.375 157.3818,107.5313 Q158.0381,107.6875 158.6006,107.9844 L158.6006,110.7031 Q157.9756,110.125 157.3818,109.8594 Q156.7881,109.5781 156.1631,109.5781 Q154.8193,109.5781 154.1318,110.6563 Q153.4443,111.7188 153.4443,113.8125 Q153.4443,115.9063 154.1318,116.9844 Q154.8193,118.0469 156.1631,118.0469 Q156.7881,118.0469 157.3818,117.7813 Q157.9756,117.5 158.6006,116.9219 L158.6006,119.6406 Z " fill="#000000"/><text fill="#000000" font-family="sans-serif" font-size="14" lengthAdjust="spacing" textLength="60.3203" x="176.1318" y="118.8467">Wrapper</text><line style="stroke:#181818;stroke-width:0.5;" x1="105" x2="275.084" y1="130" y2="130"/><text fill="#000000" font-family="sans-serif" font-size="14" lengthAdjust="spacing" textLength="105.3555" x="110" y="146.9951">-requestID : int</text><text fill="#000000" font-family="sans-serif" font-size="14" lengthAdjust="spacing" textLength="119.9365" x="110" y="163.292">-payload : Object</text><line style="stroke:#181818;stroke-width:1;" x1="105" x2="275.084" y1="170.5938" y2="170.5938"/><text fill="#000000" font-family="sans-serif" font-size="14" lengthAdjust="spacing" textLength="149.9189" x="110" y="187.5889">+getRequestID() : int</text><text fill="#000000" font-family="sans-serif" font-size="14" lengthAdjust="spacing" textLength="160.084" x="110" y="203.8857">+getPayload() : Object</text></g><g class="entity" data-qualified-name="Payload Layer.GMN4" data-source-line="13" id="ent0005"><path d="M311,142 L311,150.5 L276.24,154.5 L311,158.5 L311,167.1328 A0,0 0 0 0 311,167.1328 L514.6411,167.1328 A0,0 0 0 0 514.6411,167.1328 L514.6411,152 L504.6411,142 L311,142 A0,0 0 0 0 311,142" fill="#FEFFDD" style="stroke:#181818;stroke-width:0.5;"/><path d="M504.6411,142 L504.6411,152 L514.6411,152 L504.6411,142" fill="#FEFFDD" style="stroke:#181818;stroke-width:0.5;"/><text fill="#000000" font-family="sans-serif" font-size="13" lengthAdjust="spacing" textLength="182.6411" x="317" y="159.0669">Belongs to client and server</text></g><!--class Client--><g class="entity" data-qualified-name="Client Layer.Client" data-source-line="18" id="ent0008"><rect fill="#F1F1F1" height="227.2656" rx="2.5" ry="2.5" style="stroke:#181818;stroke-width:0.5;" width="443.2588" x="652.5" y="41"/><ellipse cx="849.6143" cy="57" fill="#ADD1B2" rx="11" ry="11" style="stroke:#181818;stroke-width:1;"/><path d="M852.583,62.6406 Q852.0049,62.9375 851.3643,63.0781 Q850.7236,63.2344 850.0205,63.2344 Q847.5205,63.2344 846.1924,61.5938 Q844.8799,59.9375 844.8799,56.8125 Q844.8799,53.6875 846.1924,52.0313 Q847.5205,50.375 850.0205,50.375 Q850.7236,50.375 851.3643,50.5313 Q852.0205,50.6875 852.583,50.9844 L852.583,53.7031 Q851.958,53.125 851.3643,52.8594 Q850.7705,52.5781 850.1455,52.5781 Q848.8018,52.5781 848.1143,53.6563 Q847.4268,54.7188 847.4268,56.8125 Q847.4268,58.9063 848.1143,59.9844 Q848.8018,61.0469 850.1455,61.0469 Q850.7705,61.0469 851.3643,60.7813 Q851.958,60.5 852.583,59.9219 L852.583,62.6406 Z " fill="#000000"/><text fill="#000000" font-family="sans-serif" font-size="14" lengthAdjust="spacing" textLength="40.5303" x="870.1143" y="61.8467">Client</text><line style="stroke:#181818;stroke-width:0.5;" x1="653.5" x2="1094.7588" y1="73" y2="73"/><text fill="#000000" font-family="sans-serif" font-size="14" lengthAdjust="spacing" textLength="161.0752" x="658.5" y="89.9951">-serverAddress : String</text><text fill="#000000" font-family="sans-serif" font-size="14" lengthAdjust="spacing" textLength="109.4912" x="658.5" y="106.292">-serverPort : int</text><text fill="#000000" font-family="sans-serif" font-size="14" lengthAdjust="spacing" textLength="143.2197" x="658.5" y="122.5889">-loggedInUser : User</text><text fill="#000000" font-family="sans-serif" font-size="14" lengthAdjust="spacing" textLength="161.2119" x="658.5" y="138.8857">-isConnected : boolean</text><text fill="#000000" font-family="sans-serif" font-size="14" lengthAdjust="spacing" textLength="210.123" x="658.5" y="155.1826">-connectionTimeout : int = 30</text><line style="stroke:#181818;stroke-width:1;" x1="653.5" x2="1094.7588" y1="162.4844" y2="162.4844"/><text fill="#000000" font-family="sans-serif" font-size="14" lengthAdjust="spacing" textLength="148.0527" x="658.5" y="179.4795">+connect() : boolean</text><text fill="#000000" font-family="sans-serif" font-size="14" lengthAdjust="spacing" textLength="141.7773" x="658.5" y="195.7764">+disconnect() : void</text><text fill="#000000" font-family="sans-serif" font-size="14" lengthAdjust="spacing" textLength="249.5391" x="658.5" y="212.0732">+sendMessage(m : Message) : void</text><text fill="#000000" font-family="sans-serif" font-size="14" lengthAdjust="spacing" textLength="431.2588" x="658.5" y="228.3701">+requestMessages(c : Conversation, n : int) : List&lt;Message&gt;</text><text fill="#000000" font-family="sans-serif" font-size="14" lengthAdjust="spacing" textLength="318.7598" x="658.5" y="244.667">+authenticate(u : String, p : String) : boolean</text><text fill="#000000" font-family="sans-serif" font-size="14" lengthAdjust="spacing" textLength="162.9482" x="658.5" y="260.9639">+receiveData() : String</text></g><!--class Server--><g class="entity" data-qualified-name="Server Layer.Server" data-source-line="35" id="ent0010"><rect fill="#F1F1F1" height="341.3438" rx="2.5" ry="2.5" style="stroke:#181818;stroke-width:0.5;" width="418.0615" x="665" y="368"/><ellipse cx="846.8257" cy="384" fill="#ADD1B2" rx="11" ry="11" style="stroke:#181818;stroke-width:1;"/><path d="M849.7944,389.6406 Q849.2163,389.9375 848.5757,390.0781 Q847.9351,390.2344 847.2319,390.2344 Q844.7319,390.2344 843.4038,388.5938 Q842.0913,386.9375 842.0913,383.8125 Q842.0913,380.6875 843.4038,379.0313 Q844.7319,377.375 847.2319,377.375 Q847.9351,377.375 848.5757,377.5313 Q849.2319,377.6875 849.7944,377.9844 L849.7944,380.7031 Q849.1694,380.125 848.5757,379.8594 Q847.9819,379.5781 847.3569,379.5781 Q846.0132,379.5781 845.3257,380.6563 Q844.6382,381.7188 844.6382,383.8125 Q844.6382,385.9063 845.3257,386.9844 Q846.0132,388.0469 847.3569,388.0469 Q847.9819,388.0469 848.5757,387.7813 Q849.1694,387.5 849.7944,386.9219 L849.7944,389.6406 Z " fill="#000000"/><text fill="#000000" font-family="sans-serif" font-size="14" lengthAdjust="spacing" textLength="45.9102" x="867.3257" y="388.8467">Server</text><line style="stroke:#181818;stroke-width:0.5;" x1="666" x2="1082.0615" y1="400" y2="400"/><text fill="#000000" font-family="sans-serif" font-size="14" lengthAdjust="spacing" textLength="139.8291" x="671" y="416.9951">-PORT : int = 54927</text><text fill="#000000" font-family="sans-serif" font-size="14" lengthAdjust="spacing" textLength="90.2822" x="671" y="433.292">-clientID : int</text><text fill="#000000" font-family="sans-serif" font-size="14" lengthAdjust="spacing" textLength="135.1465" x="671" y="449.5889">-isConnected : bool</text><text fill="#000000" font-family="sans-serif" font-size="14" lengthAdjust="spacing" textLength="212.0371" x="671" y="465.8857">-userData accountDataHandle</text><text fill="#000000" font-family="sans-serif" font-size="14" lengthAdjust="spacing" textLength="227.3701" x="671" y="482.1826">-FileManager fileManagerHandle</text><text fill="#000000" font-family="sans-serif" font-size="14" lengthAdjust="spacing" textLength="406.0615" x="671" y="498.4795">-clientList : ConcurrentHashMap&lt;clientID, ClientHandler&gt;</text><text fill="#000000" font-family="sans-serif" font-size="14" lengthAdjust="spacing" textLength="151.8398" x="671" y="514.7764">-clientSocket : Socket</text><text fill="#000000" font-family="sans-serif" font-size="14" lengthAdjust="spacing" textLength="215.2021" x="671" y="531.0732">-serverRequestSocket : Socket</text><line style="stroke:#181818;stroke-width:1;" x1="666" x2="1082.0615" y1="538.375" y2="538.375"/><text fill="#000000" font-family="sans-serif" font-size="14" lengthAdjust="spacing" textLength="100.8779" x="671" y="555.3701">+main() : void</text><text fill="#000000" font-family="sans-serif" font-size="14" lengthAdjust="spacing" textLength="142.0439" x="671" y="571.667">+stopServer() : void</text><text fill="#000000" font-family="sans-serif" font-size="14" lengthAdjust="spacing" textLength="153.6719" x="671" y="587.9639">+acceptClient() : bool</text><text fill="#000000" font-family="sans-serif" font-size="14" lengthAdjust="spacing" textLength="152.749" x="671" y="604.2607">+isConnected() : bool</text><text fill="#000000" font-family="sans-serif" font-size="14" lengthAdjust="spacing" textLength="189.5605" x="671" y="620.5576">+login(string, string) : bool</text><text fill="#000000" font-family="sans-serif" font-size="14" lengthAdjust="spacing" textLength="110.168" x="671" y="636.8545">+logout() : void</text><text fill="#000000" font-family="sans-serif" font-size="14" lengthAdjust="spacing" textLength="213.6982" x="671" y="653.1514">+getClient(int) : ClientHandler</text><text fill="#000000" font-family="sans-serif" font-size="14" lengthAdjust="spacing" textLength="269.4932" x="671" y="669.4482">+submitRequest(ClientRequest) : void</text><text fill="#000000" font-family="sans-serif" font-size="14" lengthAdjust="spacing" textLength="221.7373" x="671" y="685.7451">+writeALog(FileManager) : void</text><text fill="#000000" font-family="sans-serif" font-size="14" lengthAdjust="spacing" textLength="205.5703" x="671" y="702.042">+saveToFile(UserData) : void</text></g><!--class UserData--><g class="entity" data-qualified-name="Server Layer.UserData" data-source-line="57" id="ent0011"><rect fill="#F1F1F1" height="145.7813" rx="2.5" ry="2.5" style="stroke:#181818;stroke-width:0.5;" width="326.9795" x="21.5" y="875.5"/><ellipse cx="148.0708" cy="891.5" fill="#ADD1B2" rx="11" ry="11" style="stroke:#181818;stroke-width:1;"/><path d="M151.0396,897.1406 Q150.4614,897.4375 149.8208,897.5781 Q149.1802,897.7344 148.4771,897.7344 Q145.9771,897.7344 144.6489,896.0938 Q143.3364,894.4375 143.3364,891.3125 Q143.3364,888.1875 144.6489,886.5313 Q145.9771,884.875 148.4771,884.875 Q149.1802,884.875 149.8208,885.0313 Q150.4771,885.1875 151.0396,885.4844 L151.0396,888.2031 Q150.4146,887.625 149.8208,887.3594 Q149.2271,887.0781 148.6021,887.0781 Q147.2583,887.0781 146.5708,888.1563 Q145.8833,889.2188 145.8833,891.3125 Q145.8833,893.4063 146.5708,894.4844 Q147.2583,895.5469 148.6021,895.5469 Q149.2271,895.5469 149.8208,895.2813 Q150.4146,895 151.0396,894.4219 L151.0396,897.1406 Z " fill="#000000"/><text fill="#000000" font-family="sans-serif" font-size="14" lengthAdjust="spacing" textLength="65.3379" x="168.5708" y="896.3467">UserData</text><line style="stroke:#181818;stroke-width:0.5;" x1="22.5" x2="347.4795" y1="907.5" y2="907.5"/><text fill="#000000" font-family="sans-serif" font-size="14" lengthAdjust="spacing" textLength="210.2939" x="27.5" y="924.4951">-userAccountList : List&lt;User&gt;</text><text fill="#000000" font-family="sans-serif" font-size="14" lengthAdjust="spacing" textLength="301.9023" x="27.5" y="940.792">-Conversations : static List&lt;Conversation&gt;</text><line style="stroke:#181818;stroke-width:1;" x1="22.5" x2="347.4795" y1="948.0938" y2="948.0938"/><text fill="#000000" font-family="sans-serif" font-size="14" lengthAdjust="spacing" textLength="164.9785" x="27.5" y="965.0889">+getAccountList() : List</text><text fill="#000000" font-family="sans-serif" font-size="14" lengthAdjust="spacing" textLength="200.7646" x="27.5" y="981.3857">+getConversationList() : List</text><text fill="#000000" font-family="sans-serif" font-size="14" lengthAdjust="spacing" textLength="314.9795" x="27.5" y="997.6826">+addConversation(int ConversationID) : void</text><text fill="#000000" font-family="sans-serif" font-size="14" lengthAdjust="spacing" textLength="156.0713" x="27.5" y="1013.9795">+addUser(User) : void</text></g><!--class ClientHandler--><g class="entity" data-qualified-name="Server Layer.ClientHandler" data-source-line="67" id="ent0012"><rect fill="#F1F1F1" height="325.0469" rx="2.5" ry="2.5" style="stroke:#181818;stroke-width:0.5;" width="281.5889" x="384" y="786"/><ellipse cx="472.7168" cy="802" fill="#ADD1B2" rx="11" ry="11" style="stroke:#181818;stroke-width:1;"/><path d="M475.6855,807.6406 Q475.1074,807.9375 474.4668,808.0781 Q473.8262,808.2344 473.123,808.2344 Q470.623,808.2344 469.2949,806.5938 Q467.9824,804.9375 467.9824,801.8125 Q467.9824,798.6875 469.2949,797.0313 Q470.623,795.375 473.123,795.375 Q473.8262,795.375 474.4668,795.5313 Q475.123,795.6875 475.6855,795.9844 L475.6855,798.7031 Q475.0605,798.125 474.4668,797.8594 Q473.873,797.5781 473.248,797.5781 Q471.9043,797.5781 471.2168,798.6563 Q470.5293,799.7188 470.5293,801.8125 Q470.5293,803.9063 471.2168,804.9844 Q471.9043,806.0469 473.248,806.0469 Q473.873,806.0469 474.4668,805.7813 Q475.0605,805.5 475.6855,804.9219 L475.6855,807.6406 Z " fill="#000000"/><text fill="#000000" font-family="sans-serif" font-size="14" lengthAdjust="spacing" textLength="95.6553" x="493.2168" y="806.8467">ClientHandler</text><line style="stroke:#181818;stroke-width:0.5;" x1="385" x2="664.5889" y1="818" y2="818"/><text fill="#000000" font-family="sans-serif" font-size="14" lengthAdjust="spacing" textLength="105.3555" x="390" y="834.9951">-requestID : int</text><text fill="#000000" font-family="sans-serif" font-size="14" lengthAdjust="spacing" textLength="111.7949" x="390" y="851.292">-socket : Socket</text><text fill="#000000" font-family="sans-serif" font-size="14" lengthAdjust="spacing" textLength="108.8965" x="390" y="867.5889">-server : Server</text><text fill="#000000" font-family="sans-serif" font-size="14" lengthAdjust="spacing" textLength="115.9922" x="390" y="883.8857">-clientInput : var</text><text fill="#000000" font-family="sans-serif" font-size="14" lengthAdjust="spacing" textLength="124.4004" x="390" y="900.1826">-isLoggedIn : bool</text><text fill="#000000" font-family="sans-serif" font-size="14" lengthAdjust="spacing" textLength="106.3535" x="390" y="916.4795">-account : User</text><text fill="#000000" font-family="sans-serif" font-size="14" lengthAdjust="spacing" textLength="109.8467" x="390" y="932.7764">-msg : Message</text><text fill="#000000" font-family="sans-serif" font-size="14" lengthAdjust="spacing" textLength="183.4766" x="390" y="949.0732">-logQueueToSave : Queue</text><text fill="#000000" font-family="sans-serif" font-size="14" lengthAdjust="spacing" textLength="144.3887" x="390" y="965.3701">-ConversationID : int</text><line style="stroke:#181818;stroke-width:1;" x1="385" x2="664.5889" y1="972.6719" y2="972.6719"/><text fill="#000000" font-family="sans-serif" font-size="14" lengthAdjust="spacing" textLength="208.9131" x="390" y="989.667">+ClientHandler(Socket) : void</text><text fill="#000000" font-family="sans-serif" font-size="14" lengthAdjust="spacing" textLength="207.8877" x="390" y="1005.9639">+setUserAccount(User) : void</text><text fill="#000000" font-family="sans-serif" font-size="14" lengthAdjust="spacing" textLength="175.1777" x="390" y="1022.2607">+waitForRequest() : void</text><text fill="#000000" font-family="sans-serif" font-size="14" lengthAdjust="spacing" textLength="153.9795" x="390" y="1038.5576">+getSocket() : Socket</text><text fill="#000000" font-family="sans-serif" font-size="14" lengthAdjust="spacing" textLength="257.7422" x="390" y="1054.8545">+sendConversationData(User) : bool</text><text fill="#000000" font-family="sans-serif" font-size="14" lengthAdjust="spacing" textLength="222.5645" x="390" y="1071.1514">+sendMessage(Message) : bool</text><text fill="#000000" font-family="sans-serif" font-size="14" lengthAdjust="spacing" textLength="269.5889" x="390" y="1087.4482">+updateActiveConversation(int) : void</text><text fill="#000000" font-family="sans-serif" font-size="14" lengthAdjust="spacing" textLength="228.5322" x="390" y="1103.7451">+getActiveConversationID() : int</text></g><!--class FileManager--><g class="entity" data-qualified-name="Server Layer.FileManager" data-source-line="88" id="ent0013"><rect fill="#F1F1F1" height="276.1563" rx="2.5" ry="2.5" style="stroke:#181818;stroke-width:0.5;" width="345.3887" x="701.5" y="810.5"/><ellipse cx="827.0386" cy="826.5" fill="#ADD1B2" rx="11" ry="11" style="stroke:#181818;stroke-width:1;"/><path d="M830.0073,832.1406 Q829.4292,832.4375 828.7886,832.5781 Q828.1479,832.7344 827.4448,832.7344 Q824.9448,832.7344 823.6167,831.0938 Q822.3042,829.4375 822.3042,826.3125 Q822.3042,823.1875 823.6167,821.5313 Q824.9448,819.875 827.4448,819.875 Q828.1479,819.875 828.7886,820.0313 Q829.4448,820.1875 830.0073,820.4844 L830.0073,823.2031 Q829.3823,822.625 828.7886,822.3594 Q828.1948,822.0781 827.5698,822.0781 Q826.2261,822.0781 825.5386,823.1563 Q824.8511,824.2188 824.8511,826.3125 Q824.8511,828.4063 825.5386,829.4844 Q826.2261,830.5469 827.5698,830.5469 Q828.1948,830.5469 828.7886,830.2813 Q829.3823,830 830.0073,829.4219 L830.0073,832.1406 Z " fill="#000000"/><text fill="#000000" font-family="sans-serif" font-size="14" lengthAdjust="spacing" textLength="85.8115" x="847.5386" y="831.3467">FileManager</text><line style="stroke:#181818;stroke-width:0.5;" x1="702.5" x2="1045.8887" y1="842.5" y2="842.5"/><text fill="#000000" font-family="sans-serif" font-size="14" lengthAdjust="spacing" textLength="177.3584" x="707.5" y="859.4951">-conversationFolder : File</text><text fill="#000000" font-family="sans-serif" font-size="14" lengthAdjust="spacing" textLength="150.8418" x="707.5" y="875.792">-userDataFolder : File</text><text fill="#000000" font-family="sans-serif" font-size="14" lengthAdjust="spacing" textLength="108.2197" x="707.5" y="892.0889">-logFolder : File</text><text fill="#000000" font-family="sans-serif" font-size="14" lengthAdjust="spacing" textLength="214.8467" x="707.5" y="908.3857">-listOfConversationFiles : File[]</text><text fill="#000000" font-family="sans-serif" font-size="14" lengthAdjust="spacing" textLength="154.1982" x="707.5" y="924.6826">-listOfUserFiles : File[]</text><text fill="#000000" font-family="sans-serif" font-size="14" lengthAdjust="spacing" textLength="147.54" x="707.5" y="940.9795">-listOfLogFiles : File[]</text><line style="stroke:#181818;stroke-width:1;" x1="702.5" x2="1045.8887" y1="948.2813" y2="948.2813"/><text fill="#000000" font-family="sans-serif" font-size="14" lengthAdjust="spacing" textLength="226.4951" x="707.5" y="965.2764">+loadUserData(UserData) : void</text><text fill="#000000" font-family="sans-serif" font-size="14" lengthAdjust="spacing" textLength="287.1436" x="707.5" y="981.5732">+loadConversationData(UserData) : void</text><text fill="#000000" font-family="sans-serif" font-size="14" lengthAdjust="spacing" textLength="308.6699" x="707.5" y="997.8701">+fetchConversationData(int) : Conversation</text><text fill="#000000" font-family="sans-serif" font-size="14" lengthAdjust="spacing" textLength="333.3887" x="707.5" y="1014.167">+fetchOlderMessages(int, int) : List&lt;Message&gt;</text><text fill="#000000" font-family="sans-serif" font-size="14" lengthAdjust="spacing" textLength="268.4951" x="707.5" y="1030.4639">+appendMessage(int, Message) : void</text><text fill="#000000" font-family="sans-serif" font-size="14" lengthAdjust="spacing" textLength="229.3457" x="707.5" y="1046.7607">+saveUserData(UserData) : void</text><text fill="#000000" font-family="sans-serif" font-size="14" lengthAdjust="spacing" textLength="223.9863" x="707.5" y="1063.0576">+createLog(String, String) : Log</text><text fill="#000000" font-family="sans-serif" font-size="14" lengthAdjust="spacing" textLength="199.8555" x="707.5" y="1079.3545">+saveLog(Log, String) : void</text></g><!--class Log--><g class="entity" data-qualified-name="Server Layer.Log" data-source-line="106" id="ent0014"><rect fill="#F1F1F1" height="129.4844" rx="2.5" ry="2.5" style="stroke:#181818;stroke-width:0.5;" width="237.2783" x="1289.5" y="884"/><ellipse cx="1391.2632" cy="900" fill="#ADD1B2" rx="11" ry="11" style="stroke:#181818;stroke-width:1;"/><path d="M1394.2319,905.6406 Q1393.6538,905.9375 1393.0132,906.0781 Q1392.3726,906.2344 1391.6694,906.2344 Q1389.1694,906.2344 1387.8413,904.5938 Q1386.5288,902.9375 1386.5288,899.8125 Q1386.5288,896.6875 1387.8413,895.0313 Q1389.1694,893.375 1391.6694,893.375 Q1392.3726,893.375 1393.0132,893.5313 Q1393.6694,893.6875 1394.2319,893.9844 L1394.2319,896.7031 Q1393.6069,896.125 1393.0132,895.8594 Q1392.4194,895.5781 1391.7944,895.5781 Q1390.4507,895.5781 1389.7632,896.6563 Q1389.0757,897.7188 1389.0757,899.8125 Q1389.0757,901.9063 1389.7632,902.9844 Q1390.4507,904.0469 1391.7944,904.0469 Q1392.4194,904.0469 1393.0132,903.7813 Q1393.6069,903.5 1394.2319,902.9219 L1394.2319,905.6406 Z " fill="#000000"/><text fill="#000000" font-family="sans-serif" font-size="14" lengthAdjust="spacing" textLength="25.252" x="1411.7632" y="904.8467">Log</text><line style="stroke:#181818;stroke-width:0.5;" x1="1290.5" x2="1525.7783" y1="916" y2="916"/><text fill="#000000" font-family="sans-serif" font-size="14" lengthAdjust="spacing" textLength="113.1553" x="1295.5" y="932.9951">-filePath : String</text><text fill="#000000" font-family="sans-serif" font-size="14" lengthAdjust="spacing" textLength="116.1289" x="1295.5" y="949.292">-logType : String</text><line style="stroke:#181818;stroke-width:1;" x1="1290.5" x2="1525.7783" y1="956.5938" y2="956.5938"/><text fill="#000000" font-family="sans-serif" font-size="14" lengthAdjust="spacing" textLength="225.2783" x="1295.5" y="973.5889">+writeEntry(data : String) : void</text><text fill="#000000" font-family="sans-serif" font-size="14" lengthAdjust="spacing" textLength="127.2441" x="1295.5" y="989.8857">+readAll() : String</text><text fill="#000000" font-family="sans-serif" font-size="14" lengthAdjust="spacing" textLength="116.9287" x="1295.5" y="1006.1826">+backup() : void</text></g><g class="entity" data-qualified-name="Server Layer.GMN15" data-source-line="116" id="ent0016"><path d="M1081.5,936 L1081.5,961.1328 L1254.374,961.1328 L1254.374,946 L1244.374,936 L1081.5,936" fill="#FEFFDD" style="stroke:#181818;stroke-width:0.5;"/><path d="M1244.374,936 L1244.374,946 L1254.374,946 L1244.374,936" fill="#FEFFDD" style="stroke:#181818;stroke-width:1;"/><text fill="#000000" font-family="sans-serif" font-size="13" lengthAdjust="spacing" textLength="151.874" x="1087.5" y="953.0669">Must be Synnchronized</text></g><g class="entity" data-qualified-name="Server Layer.GMN18" data-source-line="120" id="ent0019"><path d="M764,1293.5 L764,1318.6328 A0,0 0 0 0 764,1318.6328 L984.2656,1318.6328 A0,0 0 0 0 984.2656,1318.6328 L984.2656,1303.5 L974.2656,1293.5 L878,1293.5 L874,1086.69 L870,1293.5 L764,1293.5 A0,0 0 0 0 764,1293.5" fill="#FEFFDD" style="stroke:#181818;stroke-width:0.5;"/><path d="M974.2656,1293.5 L974.2656,1303.5 L984.2656,1303.5 L974.2656,1293.5" fill="#FEFFDD" style="stroke:#181818;stroke-width:0.5;"/><text fill="#000000" font-family="sans-serif" font-size="13" lengthAdjust="spacing" textLength="199.2656" x="770" y="1310.5669">may have to be synchronized?</text></g><g class="entity" data-qualified-name="Server Layer.GMN21" data-source-line="124" id="ent0022"><path d="M1298,1293.5 L1298,1318.6328 A0,0 0 0 0 1298,1318.6328 L1518.2656,1318.6328 A0,0 0 0 0 1518.2656,1318.6328 L1518.2656,1303.5 L1508.2656,1293.5 L1412,1293.5 L1408,1013.06 L1404,1293.5 L1298,1293.5 A0,0 0 0 0 1298,1293.5" fill="#FEFFDD" style="stroke:#181818;stroke-width:0.5;"/><path d="M1508.2656,1293.5 L1508.2656,1303.5 L1518.2656,1303.5 L1508.2656,1293.5" fill="#FEFFDD" style="stroke:#181818;stroke-width:0.5;"/><text fill="#000000" font-family="sans-serif" font-size="13" lengthAdjust="spacing" textLength="199.2656" x="1304" y="1310.5669">may have to be synchronized?</text></g><!--class Conversation--><g class="entity" data-qualified-name="Model Layer.Conversation" data-source-line="129" id="ent0025"><rect fill="#F1F1F1" height="162.0781" rx="2.5" ry="2.5" style="stroke:#181818;stroke-width:0.5;" width="289.9492" x="1583" y="867.5"/><ellipse cx="1677.4453" cy="883.5" fill="#A9DCDF" rx="11" ry="11" style="stroke:#181818;stroke-width:1;"/><path d="M1677.5547,878.8438 L1676.3984,883.9219 L1678.7266,883.9219 L1677.5547,878.8438 Z M1676.0703,876.6094 L1679.0547,876.6094 L1682.4141,889 L1679.9609,889 L1679.1953,885.9375 L1675.9141,885.9375 L1675.1641,889 L1672.7266,889 L1676.0703,876.6094 Z " fill="#000000"/><text fill="#000000" font-family="sans-serif" font-size="14" font-style="italic" lengthAdjust="spacing" textLength="92.5586" x="1697.9453" y="888.3467">Conversation</text><line style="stroke:#181818;stroke-width:0.5;" x1="1584" x2="1871.9492" y1="899.5" y2="899.5"/><text fill="#000000" font-family="sans-serif" font-size="14" lengthAdjust="spacing" textLength="140.417" x="1589" y="916.4951">-conversationId : int</text><text fill="#000000" font-family="sans-serif" font-size="14" lengthAdjust="spacing" textLength="181.8223" x="1589" y="932.792">-participants : List&lt;User&gt;</text><text fill="#000000" font-family="sans-serif" font-size="14" lengthAdjust="spacing" textLength="198.1738" x="1589" y="949.0889">-messages : List&lt;Message&gt;</text><text fill="#000000" font-family="sans-serif" font-size="14" lengthAdjust="spacing" textLength="117.585" x="1589" y="965.3857">-createdAt : long</text><line style="stroke:#181818;stroke-width:1;" x1="1584" x2="1871.9492" y1="972.6875" y2="972.6875"/><text fill="#000000" font-family="sans-serif" font-size="14" lengthAdjust="spacing" textLength="242.2246" x="1589" y="989.6826">+addMessage(m : Message) : void</text><text fill="#000000" font-family="sans-serif" font-size="14" lengthAdjust="spacing" textLength="277.9492" x="1589" y="1005.9795">+getMessages(n : int) : List&lt;Message&gt;</text><text fill="#000000" font-family="sans-serif" font-size="14" lengthAdjust="spacing" textLength="221.9697" x="1589" y="1022.2764">+getParticipants() : List&lt;User&gt;</text></g><!--class Message--><g class="entity" data-qualified-name="Model Layer.Message" data-source-line="140" id="ent0026"><rect fill="#F1F1F1" height="235.5313" rx="2.5" ry="2.5" style="stroke:#181818;stroke-width:0.5;" width="211.0557" x="1622.5" y="1188"/><ellipse cx="1686.0161" cy="1208.1328" fill="#ADD1B2" rx="11" ry="11" style="stroke:#181818;stroke-width:1;"/><path d="M1688.9849,1213.7734 Q1688.4067,1214.0703 1687.7661,1214.2109 Q1687.1255,1214.3672 1686.4224,1214.3672 Q1683.9224,1214.3672 1682.5942,1212.7266 Q1681.2817,1211.0703 1681.2817,1207.9453 Q1681.2817,1204.8203 1682.5942,1203.1641 Q1683.9224,1201.5078 1686.4224,1201.5078 Q1687.1255,1201.5078 1687.7661,1201.6641 Q1688.4224,1201.8203 1688.9849,1202.1172 L1688.9849,1204.8359 Q1688.3599,1204.2578 1687.7661,1203.9922 Q1687.1724,1203.7109 1686.5474,1203.7109 Q1685.2036,1203.7109 1684.5161,1204.7891 Q1683.8286,1205.8516 1683.8286,1207.9453 Q1683.8286,1210.0391 1684.5161,1211.1172 Q1685.2036,1212.1797 1686.5474,1212.1797 Q1687.1724,1212.1797 1687.7661,1211.9141 Q1688.3599,1211.6328 1688.9849,1211.0547 L1688.9849,1213.7734 Z " fill="#000000"/><text fill="#000000" font-family="sans-serif" font-size="12" font-style="italic" lengthAdjust="spacing" textLength="79.5234" x="1704.5161" y="1204.1387">&#171;immutable&#187;</text><text fill="#000000" font-family="sans-serif" font-size="14" lengthAdjust="spacing" textLength="61.3594" x="1713.5981" y="1219.9639">Message</text><line style="stroke:#181818;stroke-width:0.5;" x1="1623.5" x2="1832.5557" y1="1228.2656" y2="1228.2656"/><text fill="#000000" font-family="sans-serif" font-size="14" lengthAdjust="spacing" textLength="112.8545" x="1628.5" y="1245.2607">-messageId : int</text><text fill="#000000" font-family="sans-serif" font-size="14" lengthAdjust="spacing" textLength="88.3271" x="1628.5" y="1261.5576">-text : String</text><text fill="#000000" font-family="sans-serif" font-size="14" lengthAdjust="spacing" textLength="124.4004" x="1628.5" y="1277.8545">-timestamp : long</text><text fill="#000000" font-family="sans-serif" font-size="14" lengthAdjust="spacing" textLength="98.6152" x="1628.5" y="1294.1514">-sender : User</text><text fill="#000000" font-family="sans-serif" font-size="14" lengthAdjust="spacing" textLength="140.417" x="1628.5" y="1310.4482">-conversationId : int</text><text fill="#000000" font-family="sans-serif" font-size="14" lengthAdjust="spacing" textLength="121.6318" x="1628.5" y="1326.7451">-isRead : boolean</text><text fill="#000000" font-family="sans-serif" font-size="14" lengthAdjust="spacing" textLength="199.0557" x="1628.5" y="1343.042">-encoding : String = "UTF-8"</text><line style="stroke:#181818;stroke-width:1;" x1="1623.5" x2="1832.5557" y1="1350.3438" y2="1350.3438"/><text fill="#000000" font-family="sans-serif" font-size="14" lengthAdjust="spacing" textLength="131.9814" x="1628.5" y="1367.3389">+getText() : String</text><text fill="#000000" font-family="sans-serif" font-size="14" lengthAdjust="spacing" textLength="168.0547" x="1628.5" y="1383.6357">+getTimestamp() : long</text><text fill="#000000" font-family="sans-serif" font-size="14" lengthAdjust="spacing" textLength="154.6563" x="1628.5" y="1399.9326">+markAsRead() : void</text><text fill="#000000" font-family="sans-serif" font-size="14" lengthAdjust="spacing" textLength="135.9258" x="1628.5" y="1416.2295">+serialize() : String</text></g><!--link GMN15 to UserData--><g class="link" data-entity-1="ent0016" data-entity-2="ent0011" data-link-type="association" data-source-line="116" id="lnk17"><path d="M1165,935.97 C1155.39,898.91 1121.44,789.77 1046.5,747.5 C982.43,711.36 452.4,719.22 384.5,747.5 C322.32,773.39 269.55,829.14 233.94,875.37" fill="none" id="GMN15-UserData" style="stroke:#181818;stroke-width:1;stroke-dasharray:7,7;"/></g><!--link Client to Server--><g class="link" data-entity-1="ent0008" data-entity-2="ent0010" data-link-type="dependency" data-source-line="156" id="lnk27"><path codeLine="156" d="M874,274.05 C874,305.3 874,327.94 874,361.69" fill="none" id="Client-Server" style="stroke:#181818;stroke-width:1;stroke-dasharray:7,7;"/><polygon fill="#181818" points="874,268.05,870,277.05,874,273.05,878,277.05,874,268.05" style="stroke:#181818;stroke-width:1;"/><polygon fill="#181818" points="874,367.69,878,358.69,874,362.69,870,358.69,874,367.69" style="stroke:#181818;stroke-width:1;"/><text fill="#000000" font-family="sans-serif" font-size="13" lengthAdjust="spacing" textLength="40.9106" x="875" y="313.0669">TCP/IP</text></g><!--reverse link Server to UserData--><g class="link" data-entity-1="ent0010" data-entity-2="ent0011" data-link-type="composition" data-source-line="158" id="lnk28"><path codeLine="158" d="M653.7686,630.6102 C559.5186,673.2902 459.76,724 367,786 C328.19,811.94 288.98,845.57 256.94,875.43" fill="none" id="Server-backto-UserData" style="stroke:#181818;stroke-width:1;"/><polygon fill="#181818" points="664.7,625.66,657.5842,624.4913,653.7686,630.6102,660.8843,631.7789,664.7,625.66" style="stroke:#181818;stroke-width:1;"/><text fill="#000000" font-family="sans-serif" font-size="13" lengthAdjust="spacing" textLength="8.271" x="649.0383" y="625.5859">1</text><text fill="#000000" font-family="sans-serif" font-size="13" lengthAdjust="spacing" textLength="8.271" x="255.9613" y="864.2062">1</text></g><!--reverse link Server to ClientHandler--><g class="link" data-entity-1="ent0010" data-entity-2="ent0012" data-link-type="composition" data-source-line="159" id="lnk29"><path codeLine="159" d="M720.9697,718.3989 C699.2597,743.7789 684.73,760.77 663.17,785.97" fill="none" id="Server-backto-ClientHandler" style="stroke:#181818;stroke-width:1;"/><polygon fill="#181818" points="728.77,709.28,721.8302,711.2394,720.9697,718.3989,727.9095,716.4396,728.77,709.28" style="stroke:#181818;stroke-width:1;"/><text fill="#000000" font-family="sans-serif" font-size="13" lengthAdjust="spacing" textLength="8.271" x="714.0128" y="729.4204">1</text><text fill="#000000" font-family="sans-serif" font-size="13" lengthAdjust="spacing" textLength="23.0356" x="646.3164" y="774.8031">1..*</text></g><!--reverse link Server to FileManager--><g class="link" data-entity-1="ent0010" data-entity-2="ent0013" data-link-type="composition" data-source-line="160" id="lnk30"><path codeLine="160" d="M874,721.28 C874,754.97 874,777.95 874,810.39" fill="none" id="Server-backto-FileManager" style="stroke:#181818;stroke-width:1;"/><polygon fill="#181818" points="874,709.28,870,715.28,874,721.28,878,715.28,874,709.28" style="stroke:#181818;stroke-width:1;"/><text fill="#000000" font-family="sans-serif" font-size="13" lengthAdjust="spacing" textLength="8.271" x="865.8235" y="729.4204">1</text><text fill="#000000" font-family="sans-serif" font-size="13" lengthAdjust="spacing" textLength="8.271" x="865.778" y="799.4932">1</text></g><!--reverse link Server to Log--><g class="link" data-entity-1="ent0010" data-entity-2="ent0014" data-link-type="composition" data-source-line="161" id="lnk31"><path codeLine="161" d="M1093.2893,658.1546 C1156.9093,696.7546 1214.81,736.57 1272,786 C1305.42,814.88 1337.51,852.36 1362.12,883.94" fill="none" id="Server-backto-Log" style="stroke:#181818;stroke-width:1;"/><polygon fill="#181818" points="1083.03,651.93,1086.0848,658.4621,1093.2893,658.1546,1090.2345,651.6225,1083.03,651.93" style="stroke:#181818;stroke-width:1;"/><text fill="#000000" font-family="sans-serif" font-size="13" lengthAdjust="spacing" textLength="56.6401" x="1233" y="752.0669">writes to</text><text fill="#000000" font-family="sans-serif" font-size="13" lengthAdjust="spacing" textLength="8.271" x="1091.3556" y="653.1307">1</text><text fill="#000000" font-family="sans-serif" font-size="13" lengthAdjust="spacing" textLength="23.0356" x="1332.8308" y="873.1061">1..*</text></g><!--reverse link Server to Conversation--><g class="link" data-entity-1="ent0010" data-entity-2="ent0025" data-link-type="composition" data-source-line="162" id="lnk32"><path codeLine="162" d="M1094.7352,598.537 C1231.2552,639.867 1398.75,700.44 1543,786 C1580.77,808.4 1618.09,838.92 1649.22,867.4" fill="none" id="Server-backto-Conversation" style="stroke:#181818;stroke-width:1;"/><polygon fill="#181818" points="1083.25,595.06,1087.8336,600.6269,1094.7352,598.537,1090.1516,592.9701,1083.25,595.06" style="stroke:#181818;stroke-width:1;"/><text fill="#000000" font-family="sans-serif" font-size="13" lengthAdjust="spacing" textLength="39.9395" x="1476" y="752.0669">stores</text><text fill="#000000" font-family="sans-serif" font-size="13" lengthAdjust="spacing" textLength="8.271" x="1090.9174" y="593.8862">1</text><text fill="#000000" font-family="sans-serif" font-size="13" lengthAdjust="spacing" textLength="23.0356" x="1617.9013" y="856.3016">1..*</text></g><!--reverse link Conversation to Message--><g class="link" data-entity-1="ent0025" data-entity-2="ent0026" data-link-type="composition" data-source-line="164" id="lnk33"><path codeLine="164" d="M1728,1041.72 C1728,1088.42 1728,1136.11 1728,1187.97" fill="none" id="Conversation-backto-Message" style="stroke:#181818;stroke-width:1;"/><polygon fill="#181818" points="1728,1029.72,1724,1035.72,1728,1041.72,1732,1035.72,1728,1029.72" style="stroke:#181818;stroke-width:1;"/><text fill="#000000" font-family="sans-serif" font-size="13" lengthAdjust="spacing" textLength="55.0278" x="1729" y="1154.0669">contains</text><text fill="#000000" font-family="sans-serif" font-size="13" lengthAdjust="spacing" textLength="8.271" x="1719.6581" y="1049.691">1</text><text fill="#000000" font-family="sans-serif" font-size="13" lengthAdjust="spacing" textLength="23.0356" x="1704.2626" y="1177.0144">1..*</text></g><?plantuml-src ZLTRS-iq47xFhz3aoPpJbCDjW4m94rew9pFDD3JfyC3me5ZRHDIMZ2G7mfd-TrOtMxxGyj36rkvAU_dsqre_Sr5HHKkI5rJhfJ6Axsi3groABVy7o8V9fABvCpq0cMxekP2KaJjw1ZKbdoR4Mv5V5QqgK6w5a1bHy6SDsgnko9nmOS9g5Spdv7x_1-HXUUP-tfC3c8TebdsM63fHEDe96kkN2VuJqW1H_70qH3v5JvpXJr18ST34I7IJWp242aOqg9DJ07onnfEN9CHhhpY8CAp70FqcIyOKe71EjfWsSUW8DrAPJlY5F1o0hSGZob5WVuA4wsif1CO4DZbxAGkW8iXoB-5Ix7W9iWvxaX_8Ln-w2GoQBaNf7ky9upeLdYHdGQ8n2MiC0MFFIXI5vvvMA6SGwYn7CNgCGMfgFRiWmdjbxUwuDbT1TH4seBKvOlfuJWraTPEl2r8rpqEl5UJ0Jt133NLkDpb-wLHiwx8zh5XOZnNRt3_icjHzy_NtNtuR4-mgsuFgi291K6FLh4U4vhciXR7F7n5M1GI5Mrx0cWfqJP6dzhcZuu-qYVA9p6kbSE4ZrSSrhQwYHnS1TTvMBJhMMva_WxNt3nteXJuQLObeAIaN0pGOMVcqzIKOBLJ6kzC0BCYINFL527ayHOTYwqwXMnK4TVyyxFXmM41L9nFHtNfVyaWQcTS8Rxtj_bBSmF9E7hAaFFtWwGbsqigpnr3aHCDHZGTMb3RGifXOUZY4cheUi7gnPcctMBxG1XzphvVA5WDEJ3REOdibIKfinrGeOwcApMR7bzLDlz2CMRzT2iR3xrJY3SRNhu3KhaOgJlfGL8xYJhGbnxj0dDrE30tOPT9I7reMQtdtbnfgBEuMIunYzpPIcAxpiGQTU3CVo815pMEBWNxk700fDxSoDkO8sls-dkVQN7c2JdrqR1WFIDee9VA4n1EDkcB8lakyIaxGnyJGdw5UvrPEy90ItgVsqchiRcN1NBMjOez5nsHOhj5b1FNzK-gG5UgWzDll7JMRe5V42AWnwQoX9CfYauznGTGPhSk8xXEO_3XGZiIMhAVwzpO5pOsBoXUlNh0uzBG0SDhZLxbbkRTYonKWKYnRnckwlQ9nDTd9wk1VgZ0a35HeW65ln0qrn_x8X4NVdIleBSzI-lvP67NEc2NU-V0yFp1GjYoAxh1W1NkS5Uegwxld9iS2djpW67FXJDOrqlWUoFOiH7vKKk0apDAHCLhlfJ6ojFP96xWjIdecHyitE7tYJlhSRlJZwpl55F_V7T9XQ2qP5EaiHFTuwzBSHF9Eq3RQhIlM6zaLtbEyeiBeiNkj300TXUKi88ajBKlRMRnRLhnhtfuzaOkQBdXZodIV2Qs_pLtOU9o0CfYIgojUbhMX-m8MYoOZ8QnUCWpyRVh0DJYKusLULfq87Httf_nNqipr0z3Xx0yYbmpFQWx5qNNwkBkTVJSTp0axT6w8V2k87ZffuwET0DNpqXqy_2fGd1O8j96vEtm8NLrUBkA8FIUxwytdgyra4XQcNqp9kzdC_JPzDP1TNhwRzkQw4VkqhyQtiFmoznnXl_N-ww0K-NO0a_ZfXk6aopsJY96vBPt1ULd_2m00?></g></svg>