<?plantuml 1.2026.2?><svg xmlns="http://www.w3.org/2000/svg" xmlns:xlink="http://www.w3.org/1999/xlink" contentStyleType="text/css" data-diagram-type="CLASS" height="755px" preserveAspectRatio="none" style="width:1258px;height:755px;background:#FFFFFF;" version="1.1" viewBox="0 0 1258 755" width="1258px" zoomAndPan="magnify"><defs/><g><!--cluster GUI--><g class="cluster" data-qualified-name="GUI" data-source-line="2" id="ent0002"><path d="M59,124 L88.0684,124 A3.75,3.75 0 0 1 90.5684,126.5 L97.5684,146.2969 L1249,146.2969 A2.5,2.5 0 0 1 1251.5,148.7969 L1251.5,745.5 A2.5,2.5 0 0 1 1249,748 L59,748 A2.5,2.5 0 0 1 56.5,745.5 L56.5,126.5 A2.5,2.5 0 0 1 59,124" fill="none" style="stroke:#000000;stroke-width:1.5;"/><line style="stroke:#000000;stroke-width:1.5;" x1="56.5" x2="97.5684" y1="146.2969" y2="146.2969"/><text fill="#000000" font-family="sans-serif" font-size="14" font-weight="bold" lengthAdjust="spacing" textLength="28.0684" x="60.5" y="138.9951">GUI</text></g><!--class MainWindow--><g class="entity" data-qualified-name="GUI.MainWindow" data-source-line="3" id="ent0003"><rect fill="#F1F1F1" height="219.2344" rx="2.5" ry="2.5" style="stroke:#181818;stroke-width:0.5;" width="429.1973" x="439" y="167"/><ellipse cx="597.1113" cy="187.1328" fill="#ADD1B2" rx="11" ry="11" style="stroke:#181818;stroke-width:1;"/><path d="M600.0801,192.7734 Q599.502,193.0703 598.8613,193.2109 Q598.2207,193.3672 597.5176,193.3672 Q595.0176,193.3672 593.6895,191.7266 Q592.377,190.0703 592.377,186.9453 Q592.377,183.8203 593.6895,182.1641 Q595.0176,180.5078 597.5176,180.5078 Q598.2207,180.5078 598.8613,180.6641 Q599.5176,180.8203 600.0801,181.1172 L600.0801,183.8359 Q599.4551,183.2578 598.8613,182.9922 Q598.2676,182.7109 597.6426,182.7109 Q596.2988,182.7109 595.6113,183.7891 Q594.9238,184.8516 594.9238,186.9453 Q594.9238,189.0391 595.6113,190.1172 Q596.2988,191.1797 597.6426,191.1797 Q598.2676,191.1797 598.8613,190.9141 Q599.4551,190.6328 600.0801,190.0547 L600.0801,192.7734 Z " fill="#000000"/><text fill="#000000" font-family="sans-serif" font-size="12" font-style="italic" lengthAdjust="spacing" textLength="108.4746" x="615.6113" y="183.1387">&#171;extends JFrame&#187;</text><text fill="#000000" font-family="sans-serif" font-size="14" lengthAdjust="spacing" textLength="88.9287" x="625.3843" y="198.9639">MainWindow</text><line style="stroke:#181818;stroke-width:0.5;" x1="440" x2="867.1973" y1="207.2656" y2="207.2656"/><g data-visibility-modifier="PRIVATE_FIELD"><rect fill="none" height="6" style="stroke:#C82930;stroke-width:1;" width="6" x="447" y="217.9141"/></g><text fill="#000000" font-family="sans-serif" font-size="14" lengthAdjust="spacing" textLength="144.252" x="459" y="224.2607">contentPane : JPanel</text><g data-visibility-modifier="PRIVATE_FIELD"><rect fill="none" height="6" style="stroke:#C82930;stroke-width:1;" width="6" x="447" y="234.2109"/></g><text fill="#000000" font-family="sans-serif" font-size="14" lengthAdjust="spacing" textLength="141.7979" x="459" y="240.5576">Layout : CardLayout</text><g data-visibility-modifier="PRIVATE_FIELD"><rect fill="none" height="6" style="stroke:#C82930;stroke-width:1;" width="6" x="447" y="250.5078"/></g><text fill="#000000" font-family="sans-serif" font-size="14" lengthAdjust="spacing" textLength="197.4629" x="459" y="256.8545">navigator : ScreenNavigator</text><g data-visibility-modifier="PRIVATE_FIELD"><rect fill="none" height="6" style="stroke:#C82930;stroke-width:1;" width="6" x="447" y="266.8047"/></g><text fill="#000000" font-family="sans-serif" font-size="14" lengthAdjust="spacing" textLength="182.041" x="459" y="273.1514">modelHandle : DataModel</text><g data-visibility-modifier="PRIVATE_FIELD"><rect fill="none" height="6" style="stroke:#C82930;stroke-width:1;" width="6" x="447" y="283.1016"/></g><text fill="#000000" font-family="sans-serif" font-size="14" lengthAdjust="spacing" textLength="211.1416" x="459" y="289.4482">clientHandle : ClientController</text><line style="stroke:#181818;stroke-width:0.5;" x1="440" x2="867.1973" y1="296.75" y2="296.75"/><g data-visibility-modifier="PUBLIC_METHOD"><ellipse cx="450" cy="310.3984" fill="#84BE84" rx="3" ry="3" style="stroke:#038048;stroke-width:1;"/></g><text fill="#000000" font-family="sans-serif" font-size="14" lengthAdjust="spacing" textLength="403.1973" x="459" y="313.7451">MainWindow(model : DataModel, client : ClientController)</text><g data-visibility-modifier="PRIVATE_METHOD"><rect fill="#F24D5C" height="6" style="stroke:#C82930;stroke-width:1;" width="6" x="447" y="323.6953"/></g><text fill="#000000" font-family="sans-serif" font-size="14" lengthAdjust="spacing" textLength="168.2529" x="459" y="330.042">initializeScreens() : void</text><g data-visibility-modifier="PUBLIC_METHOD"><ellipse cx="450" cy="342.9922" fill="#84BE84" rx="3" ry="3" style="stroke:#038048;stroke-width:1;"/></g><text fill="#000000" font-family="sans-serif" font-size="14" lengthAdjust="spacing" textLength="104.5352" x="459" y="346.3389">startup() : void</text><g data-visibility-modifier="PROTECTED_METHOD"><polygon fill="#FFFF44" points="450,354.2891,454,358.2891,450,362.2891,446,358.2891" style="stroke:#B38D22;stroke-width:1;"/></g><text fill="#000000" font-family="sans-serif" font-size="14" lengthAdjust="spacing" textLength="165.0264" x="459" y="362.6357">getModel() : DataModel</text><g data-visibility-modifier="PROTECTED_METHOD"><polygon fill="#FFFF44" points="450,370.5859,454,374.5859,450,378.5859,446,374.5859" style="stroke:#B38D22;stroke-width:1;"/></g><text fill="#000000" font-family="sans-serif" font-size="14" lengthAdjust="spacing" textLength="197.7637" x="459" y="378.9326">getClient() : ClientController</text></g><!--class ScreenNavigator--><g class="entity" data-qualified-name="GUI.ScreenNavigator" data-source-line="17" id="ent0004"><rect fill="#F1F1F1" height="113.1875" rx="2.5" ry="2.5" style="stroke:#181818;stroke-width:0.5;" width="320.2529" x="493.5" y="446"/><ellipse cx="590.9053" cy="462" fill="#ADD1B2" rx="11" ry="11" style="stroke:#181818;stroke-width:1;"/><path d="M593.874,467.6406 Q593.2959,467.9375 592.6553,468.0781 Q592.0146,468.2344 591.3115,468.2344 Q588.8115,468.2344 587.4834,466.5938 Q586.1709,464.9375 586.1709,461.8125 Q586.1709,458.6875 587.4834,457.0313 Q588.8115,455.375 591.3115,455.375 Q592.0146,455.375 592.6553,455.5313 Q593.3115,455.6875 593.874,455.9844 L593.874,458.7031 Q593.249,458.125 592.6553,457.8594 Q592.0615,457.5781 591.4365,457.5781 Q590.0928,457.5781 589.4053,458.6563 Q588.7178,459.7188 588.7178,461.8125 Q588.7178,463.9063 589.4053,464.9844 Q590.0928,466.0469 591.4365,466.0469 Q592.0615,466.0469 592.6553,465.7813 Q593.249,465.5 593.874,464.9219 L593.874,467.6406 Z " fill="#000000"/><text fill="#000000" font-family="sans-serif" font-size="14" lengthAdjust="spacing" textLength="116.9424" x="611.4053" y="466.8467">ScreenNavigator</text><line style="stroke:#181818;stroke-width:0.5;" x1="494.5" x2="812.7529" y1="478" y2="478"/><g data-visibility-modifier="PRIVATE_FIELD"><rect fill="none" height="6" style="stroke:#C82930;stroke-width:1;" width="6" x="501.5" y="488.6484"/></g><text fill="#000000" font-family="sans-serif" font-size="14" lengthAdjust="spacing" textLength="122.4795" x="513.5" y="494.9951">container : JPanel</text><g data-visibility-modifier="PRIVATE_FIELD"><rect fill="none" height="6" style="stroke:#C82930;stroke-width:1;" width="6" x="501.5" y="504.9453"/></g><text fill="#000000" font-family="sans-serif" font-size="14" lengthAdjust="spacing" textLength="137.8877" x="513.5" y="511.292">layout : CardLayout</text><line style="stroke:#181818;stroke-width:0.5;" x1="494.5" x2="812.7529" y1="518.5938" y2="518.5938"/><g data-visibility-modifier="PUBLIC_METHOD"><ellipse cx="504.5" cy="532.2422" fill="#84BE84" rx="3" ry="3" style="stroke:#038048;stroke-width:1;"/></g><text fill="#000000" font-family="sans-serif" font-size="14" lengthAdjust="spacing" textLength="294.2529" x="513.5" y="535.5889">ScreenNavigator(l: CardLayout, c : JPanel)</text><g data-visibility-modifier="PUBLIC_METHOD"><ellipse cx="504.5" cy="548.5391" fill="#84BE84" rx="3" ry="3" style="stroke:#038048;stroke-width:1;"/></g><text fill="#000000" font-family="sans-serif" font-size="14" lengthAdjust="spacing" textLength="159.7012" x="513.5" y="551.8857">show(s : Screen) : void</text></g><!--class LoginScreen--><g class="entity" data-qualified-name="GUI.LoginScreen" data-source-line="25" id="ent0005"><rect fill="#F1F1F1" height="105.1563" rx="2.5" ry="2.5" style="stroke:#181818;stroke-width:0.5;" width="261.6348" x="88.5" y="619"/><ellipse cx="165.5049" cy="639.1328" fill="#ADD1B2" rx="11" ry="11" style="stroke:#181818;stroke-width:1;"/><path d="M168.4736,644.7734 Q167.8955,645.0703 167.2549,645.2109 Q166.6143,645.3672 165.9111,645.3672 Q163.4111,645.3672 162.083,643.7266 Q160.7705,642.0703 160.7705,638.9453 Q160.7705,635.8203 162.083,634.1641 Q163.4111,632.5078 165.9111,632.5078 Q166.6143,632.5078 167.2549,632.6641 Q167.9111,632.8203 168.4736,633.1172 L168.4736,635.8359 Q167.8486,635.2578 167.2549,634.9922 Q166.6611,634.7109 166.0361,634.7109 Q164.6924,634.7109 164.0049,635.7891 Q163.3174,636.8516 163.3174,638.9453 Q163.3174,641.0391 164.0049,642.1172 Q164.6924,643.1797 166.0361,643.1797 Q166.6611,643.1797 167.2549,642.9141 Q167.8486,642.6328 168.4736,642.0547 L168.4736,644.7734 Z " fill="#000000"/><text fill="#000000" font-family="sans-serif" font-size="12" font-style="italic" lengthAdjust="spacing" textLength="103.125" x="184.0049" y="635.1387">&#171;extends JPanel&#187;</text><text fill="#000000" font-family="sans-serif" font-size="14" lengthAdjust="spacing" textLength="86.4541" x="192.3403" y="650.9639">LoginScreen</text><line style="stroke:#181818;stroke-width:0.5;" x1="89.5" x2="349.1348" y1="659.2656" y2="659.2656"/><g data-visibility-modifier="PRIVATE_FIELD"><rect fill="none" height="6" style="stroke:#C82930;stroke-width:1;" width="6" x="96.5" y="669.9141"/></g><text fill="#000000" font-family="sans-serif" font-size="14" lengthAdjust="spacing" textLength="197.6543" x="108.5" y="676.2607">controller : ScreenNavigator</text><line style="stroke:#181818;stroke-width:0.5;" x1="89.5" x2="349.1348" y1="683.5625" y2="683.5625"/><g data-visibility-modifier="PUBLIC_METHOD"><ellipse cx="99.5" cy="697.2109" fill="#84BE84" rx="3" ry="3" style="stroke:#038048;stroke-width:1;"/></g><text fill="#000000" font-family="sans-serif" font-size="14" lengthAdjust="spacing" textLength="235.6348" x="108.5" y="700.5576">LoginScreen(c : ScreenNavigator)</text><g data-visibility-modifier="PRIVATE_METHOD"><rect fill="#F24D5C" height="6" style="stroke:#C82930;stroke-width:1;" width="6" x="96.5" y="710.5078"/></g><text fill="#000000" font-family="sans-serif" font-size="14" lengthAdjust="spacing" textLength="112.5195" x="108.5" y="716.8545">initialize() : void</text></g><!--class UserScreen--><g class="entity" data-qualified-name="GUI.UserScreen" data-source-line="31" id="ent0006"><rect fill="#F1F1F1" height="105.1563" rx="2.5" ry="2.5" style="stroke:#181818;stroke-width:0.5;" width="255.5303" x="385.5" y="619"/><ellipse cx="459.4526" cy="639.1328" fill="#ADD1B2" rx="11" ry="11" style="stroke:#181818;stroke-width:1;"/><path d="M462.4214,644.7734 Q461.8433,645.0703 461.2026,645.2109 Q460.562,645.3672 459.8589,645.3672 Q457.3589,645.3672 456.0308,643.7266 Q454.7183,642.0703 454.7183,638.9453 Q454.7183,635.8203 456.0308,634.1641 Q457.3589,632.5078 459.8589,632.5078 Q460.562,632.5078 461.2026,632.6641 Q461.8589,632.8203 462.4214,633.1172 L462.4214,635.8359 Q461.7964,635.2578 461.2026,634.9922 Q460.6089,634.7109 459.9839,634.7109 Q458.6401,634.7109 457.9526,635.7891 Q457.2651,636.8516 457.2651,638.9453 Q457.2651,641.0391 457.9526,642.1172 Q458.6401,643.1797 459.9839,643.1797 Q460.6089,643.1797 461.2026,642.9141 Q461.7964,642.6328 462.4214,642.0547 L462.4214,644.7734 Z " fill="#000000"/><text fill="#000000" font-family="sans-serif" font-size="12" font-style="italic" lengthAdjust="spacing" textLength="103.125" x="477.9526" y="635.1387">&#171;extends JPanel&#187;</text><text fill="#000000" font-family="sans-serif" font-size="14" lengthAdjust="spacing" textLength="80.3496" x="489.3403" y="650.9639">UserScreen</text><line style="stroke:#181818;stroke-width:0.5;" x1="386.5" x2="640.0303" y1="659.2656" y2="659.2656"/><g data-visibility-modifier="PRIVATE_FIELD"><rect fill="none" height="6" style="stroke:#C82930;stroke-width:1;" width="6" x="393.5" y="669.9141"/></g><text fill="#000000" font-family="sans-serif" font-size="14" lengthAdjust="spacing" textLength="197.6543" x="405.5" y="676.2607">controller : ScreenNavigator</text><line style="stroke:#181818;stroke-width:0.5;" x1="386.5" x2="640.0303" y1="683.5625" y2="683.5625"/><g data-visibility-modifier="PUBLIC_METHOD"><ellipse cx="396.5" cy="697.2109" fill="#84BE84" rx="3" ry="3" style="stroke:#038048;stroke-width:1;"/></g><text fill="#000000" font-family="sans-serif" font-size="14" lengthAdjust="spacing" textLength="229.5303" x="405.5" y="700.5576">UserScreen(c : ScreenNavigator)</text><g data-visibility-modifier="PRIVATE_METHOD"><rect fill="#F24D5C" height="6" style="stroke:#C82930;stroke-width:1;" width="6" x="393.5" y="710.5078"/></g><text fill="#000000" font-family="sans-serif" font-size="14" lengthAdjust="spacing" textLength="112.5195" x="405.5" y="716.8545">initialize() : void</text></g><!--class ITScreen--><g class="entity" data-qualified-name="GUI.ITScreen" data-source-line="37" id="ent0007"><rect fill="#F1F1F1" height="105.1563" rx="2.5" ry="2.5" style="stroke:#181818;stroke-width:0.5;" width="236.3008" x="676.5" y="619"/><ellipse cx="740.8379" cy="639.1328" fill="#ADD1B2" rx="11" ry="11" style="stroke:#181818;stroke-width:1;"/><path d="M743.8066,644.7734 Q743.2285,645.0703 742.5879,645.2109 Q741.9473,645.3672 741.2441,645.3672 Q738.7441,645.3672 737.416,643.7266 Q736.1035,642.0703 736.1035,638.9453 Q736.1035,635.8203 737.416,634.1641 Q738.7441,632.5078 741.2441,632.5078 Q741.9473,632.5078 742.5879,632.6641 Q743.2441,632.8203 743.8066,633.1172 L743.8066,635.8359 Q743.1816,635.2578 742.5879,634.9922 Q741.9941,634.7109 741.3691,634.7109 Q740.0254,634.7109 739.3379,635.7891 Q738.6504,636.8516 738.6504,638.9453 Q738.6504,641.0391 739.3379,642.1172 Q740.0254,643.1797 741.3691,643.1797 Q741.9941,643.1797 742.5879,642.9141 Q743.1816,642.6328 743.8066,642.0547 L743.8066,644.7734 Z " fill="#000000"/><text fill="#000000" font-family="sans-serif" font-size="12" font-style="italic" lengthAdjust="spacing" textLength="103.125" x="759.3379" y="635.1387">&#171;extends JPanel&#187;</text><text fill="#000000" font-family="sans-serif" font-size="14" lengthAdjust="spacing" textLength="61.1201" x="780.3403" y="650.9639">ITScreen</text><line style="stroke:#181818;stroke-width:0.5;" x1="677.5" x2="911.8008" y1="659.2656" y2="659.2656"/><g data-visibility-modifier="PRIVATE_FIELD"><rect fill="none" height="6" style="stroke:#C82930;stroke-width:1;" width="6" x="684.5" y="669.9141"/></g><text fill="#000000" font-family="sans-serif" font-size="14" lengthAdjust="spacing" textLength="197.6543" x="696.5" y="676.2607">controller : ScreenNavigator</text><line style="stroke:#181818;stroke-width:0.5;" x1="677.5" x2="911.8008" y1="683.5625" y2="683.5625"/><g data-visibility-modifier="PUBLIC_METHOD"><ellipse cx="687.5" cy="697.2109" fill="#84BE84" rx="3" ry="3" style="stroke:#038048;stroke-width:1;"/></g><text fill="#000000" font-family="sans-serif" font-size="14" lengthAdjust="spacing" textLength="210.3008" x="696.5" y="700.5576">ITScreen(c : ScreenNavigator)</text><g data-visibility-modifier="PRIVATE_METHOD"><rect fill="#F24D5C" height="6" style="stroke:#C82930;stroke-width:1;" width="6" x="684.5" y="710.5078"/></g><text fill="#000000" font-family="sans-serif" font-size="14" lengthAdjust="spacing" textLength="112.5195" x="696.5" y="716.8545">initialize() : void</text></g><!--class AccountScreen--><g class="entity" data-qualified-name="GUI.AccountScreen" data-source-line="43" id="ent0008"><rect fill="#F1F1F1" height="105.1563" rx="2.5" ry="2.5" style="stroke:#181818;stroke-width:0.5;" width="280.3926" x="947.5" y="619"/><ellipse cx="1030.8403" cy="639.1328" fill="#ADD1B2" rx="11" ry="11" style="stroke:#181818;stroke-width:1;"/><path d="M1033.8091,644.7734 Q1033.231,645.0703 1032.5903,645.2109 Q1031.9497,645.3672 1031.2466,645.3672 Q1028.7466,645.3672 1027.4185,643.7266 Q1026.106,642.0703 1026.106,638.9453 Q1026.106,635.8203 1027.4185,634.1641 Q1028.7466,632.5078 1031.2466,632.5078 Q1031.9497,632.5078 1032.5903,632.6641 Q1033.2466,632.8203 1033.8091,633.1172 L1033.8091,635.8359 Q1033.1841,635.2578 1032.5903,634.9922 Q1031.9966,634.7109 1031.3716,634.7109 Q1030.0278,634.7109 1029.3403,635.7891 Q1028.6528,636.8516 1028.6528,638.9453 Q1028.6528,641.0391 1029.3403,642.1172 Q1030.0278,643.1797 1031.3716,643.1797 Q1031.9966,643.1797 1032.5903,642.9141 Q1033.1841,642.6328 1033.8091,642.0547 L1033.8091,644.7734 Z " fill="#000000"/><text fill="#000000" font-family="sans-serif" font-size="12" font-style="italic" lengthAdjust="spacing" textLength="103.125" x="1052.3838" y="635.1387">&#171;extends JPanel&#187;</text><text fill="#000000" font-family="sans-serif" font-size="14" lengthAdjust="spacing" textLength="105.2119" x="1051.3403" y="650.9639">AccountScreen</text><line style="stroke:#181818;stroke-width:0.5;" x1="948.5" x2="1226.8926" y1="659.2656" y2="659.2656"/><g data-visibility-modifier="PRIVATE_FIELD"><rect fill="none" height="6" style="stroke:#C82930;stroke-width:1;" width="6" x="955.5" y="669.9141"/></g><text fill="#000000" font-family="sans-serif" font-size="14" lengthAdjust="spacing" textLength="197.6543" x="967.5" y="676.2607">controller : ScreenNavigator</text><line style="stroke:#181818;stroke-width:0.5;" x1="948.5" x2="1226.8926" y1="683.5625" y2="683.5625"/><g data-visibility-modifier="PUBLIC_METHOD"><ellipse cx="958.5" cy="697.2109" fill="#84BE84" rx="3" ry="3" style="stroke:#038048;stroke-width:1;"/></g><text fill="#000000" font-family="sans-serif" font-size="14" lengthAdjust="spacing" textLength="254.3926" x="967.5" y="700.5576">AccountScreen(c : ScreenNavigator)</text><g data-visibility-modifier="PRIVATE_METHOD"><rect fill="#F24D5C" height="6" style="stroke:#C82930;stroke-width:1;" width="6" x="955.5" y="710.5078"/></g><text fill="#000000" font-family="sans-serif" font-size="14" lengthAdjust="spacing" textLength="112.5195" x="967.5" y="716.8545">initialize() : void</text></g><!--class Screens--><g class="entity" data-qualified-name="GUI.Screens" data-source-line="48" id="ent0009"><rect fill="#F1F1F1" height="105.1875" rx="2.5" ry="2.5" style="stroke:#181818;stroke-width:0.5;" width="87.7334" x="370.5" y="450"/><ellipse cx="385.5" cy="466" fill="#EB937F" rx="11" ry="11" style="stroke:#181818;stroke-width:1;"/><path d="M389.6094,472 L381.8906,472 L381.8906,459.6094 L389.6094,459.6094 L389.6094,461.7656 L384.3438,461.7656 L384.3438,464.4375 L389.1094,464.4375 L389.1094,466.5938 L384.3438,466.5938 L384.3438,469.8438 L389.6094,469.8438 L389.6094,472 Z " fill="#000000"/><text fill="#000000" font-family="sans-serif" font-size="14" lengthAdjust="spacing" textLength="55.7334" x="399.5" y="470.8467">Screens</text><line style="stroke:#181818;stroke-width:0.5;" x1="371.5" x2="457.2334" y1="482" y2="482"/><text fill="#000000" font-family="sans-serif" font-size="14" lengthAdjust="spacing" textLength="44.2695" x="376.5" y="498.9951">LOGIN</text><text fill="#000000" font-family="sans-serif" font-size="14" lengthAdjust="spacing" textLength="49.5742" x="376.5" y="515.292">CLIENT</text><text fill="#000000" font-family="sans-serif" font-size="14" lengthAdjust="spacing" textLength="12.6807" x="376.5" y="531.5889">IT</text><text fill="#000000" font-family="sans-serif" font-size="14" lengthAdjust="spacing" textLength="69.4189" x="376.5" y="547.8857">ACCOUNT</text></g><!--class ClientModel--><g class="entity" data-qualified-name="ClientModel" data-source-line="61" id="ent0015"><rect fill="#F1F1F1" height="32" rx="2.5" ry="2.5" style="stroke:#181818;stroke-width:0.5;" width="114.5645" x="7" y="7"/><ellipse cx="22" cy="23" fill="#ADD1B2" rx="11" ry="11" style="stroke:#181818;stroke-width:1;"/><path d="M24.9688,28.6406 Q24.3906,28.9375 23.75,29.0781 Q23.1094,29.2344 22.4063,29.2344 Q19.9063,29.2344 18.5781,27.5938 Q17.2656,25.9375 17.2656,22.8125 Q17.2656,19.6875 18.5781,18.0313 Q19.9063,16.375 22.4063,16.375 Q23.1094,16.375 23.75,16.5313 Q24.4063,16.6875 24.9688,16.9844 L24.9688,19.7031 Q24.3438,19.125 23.75,18.8594 Q23.1563,18.5781 22.5313,18.5781 Q21.1875,18.5781 20.5,19.6563 Q19.8125,20.7188 19.8125,22.8125 Q19.8125,24.9063 20.5,25.9844 Q21.1875,27.0469 22.5313,27.0469 Q23.1563,27.0469 23.75,26.7813 Q24.3438,26.5 24.9688,25.9219 L24.9688,28.6406 Z " fill="#000000"/><text fill="#000000" font-family="sans-serif" font-size="14" lengthAdjust="spacing" textLength="82.5645" x="36" y="27.8467">ClientModel</text></g><!--reverse link MainWindow to ScreenNavigator--><g class="link" data-entity-1="ent0003" data-entity-2="ent0004" data-link-type="composition" data-source-line="56" id="lnk10"><path codeLine="56" d="M653.5,398.22 C653.5,418.84 653.5,427.61 653.5,445.73" fill="none" id="MainWindow-backto-ScreenNavigator" style="stroke:#181818;stroke-width:1;"/><polygon fill="#181818" points="653.5,386.22,649.5,392.22,653.5,398.22,657.5,392.22,653.5,386.22" style="stroke:#181818;stroke-width:1;"/><text fill="#000000" font-family="sans-serif" font-size="13" lengthAdjust="spacing" textLength="8.271" x="645.2337" y="406.1592">1</text><text fill="#000000" font-family="sans-serif" font-size="13" lengthAdjust="spacing" textLength="8.271" x="645.0136" y="434.9607">1</text></g><!--link ScreenNavigator to LoginScreen--><g class="link" data-entity-1="ent0004" data-entity-2="ent0005" data-link-type="composition" data-source-line="57" id="lnk11"><path codeLine="57" d="M497.7808,563.4202 C446.6208,583.1102 411.7792,596.5097 361.7892,615.7497" fill="none" id="ScreenNavigator-LoginScreen" style="stroke:#181818;stroke-width:1;"/><polygon fill="none" points="508.98,559.11,501.9437,557.5321,497.7808,563.4202,504.8172,564.9982,508.98,559.11" style="stroke:#181818;stroke-width:1;"/><polygon fill="#181818" points="350.59,620.06,357.6263,621.6379,361.7892,615.7497,354.7528,614.1718,350.59,620.06" style="stroke:#181818;stroke-width:1;"/><text fill="#000000" font-family="sans-serif" font-size="13" lengthAdjust="spacing" textLength="8.271" x="481.952" y="579.3875">1</text><text fill="#000000" font-family="sans-serif" font-size="13" lengthAdjust="spacing" textLength="8.271" x="357.9951" y="613.903">1</text></g><!--link ScreenNavigator to UserScreen--><g class="link" data-entity-1="ent0004" data-entity-2="ent0006" data-link-type="composition" data-source-line="58" id="lnk12"><path codeLine="58" d="M599.1696,568.3051 C583.0196,587.5651 580.4194,590.6741 564.5494,609.6041" fill="none" id="ScreenNavigator-UserScreen" style="stroke:#181818;stroke-width:1;"/><polygon fill="none" points="606.88,559.11,599.9598,561.1374,599.1696,568.3051,606.0899,566.2777,606.88,559.11" style="stroke:#181818;stroke-width:1;"/><polygon fill="#181818" points="556.84,618.8,563.76,616.7718,564.5494,609.6041,557.6294,611.6322,556.84,618.8" style="stroke:#181818;stroke-width:1;"/><text fill="#000000" font-family="sans-serif" font-size="13" lengthAdjust="spacing" textLength="8.271" x="592.3955" y="579.3875">1</text><text fill="#000000" font-family="sans-serif" font-size="13" lengthAdjust="spacing" textLength="8.271" x="554.1761" y="607.7759">1</text></g><!--link ScreenNavigator to ITScreen--><g class="link" data-entity-1="ent0004" data-entity-2="ent0007" data-link-type="composition" data-source-line="59" id="lnk13"><path codeLine="59" d="M708.1911,568.2793 C724.4511,587.5393 727.1165,590.7028 743.1065,609.6328" fill="none" id="ScreenNavigator-ITScreen" style="stroke:#181818;stroke-width:1;"/><polygon fill="none" points="700.45,559.11,701.2641,566.275,708.1911,568.2793,707.377,561.1143,700.45,559.11" style="stroke:#181818;stroke-width:1;"/><polygon fill="#181818" points="750.85,618.8,750.034,611.6352,743.1065,609.6328,743.9225,616.7975,750.85,618.8" style="stroke:#181818;stroke-width:1;"/><text fill="#000000" font-family="sans-serif" font-size="13" lengthAdjust="spacing" textLength="8.271" x="697.9541" y="579.3875">1</text><text fill="#000000" font-family="sans-serif" font-size="13" lengthAdjust="spacing" textLength="8.271" x="736.445" y="607.7759">1</text></g><!--link ScreenNavigator to AccountScreen--><g class="link" data-entity-1="ent0004" data-entity-2="ent0008" data-link-type="composition" data-source-line="60" id="lnk14"><path codeLine="60" d="M809.2194,563.4197 C859.3994,582.7297 893.0208,595.6598 942.3108,614.6298" fill="none" id="ScreenNavigator-AccountScreen" style="stroke:#181818;stroke-width:1;"/><polygon fill="none" points="798.02,559.11,802.1831,564.998,809.2194,563.4197,805.0563,557.5317,798.02,559.11" style="stroke:#181818;stroke-width:1;"/><polygon fill="#181818" points="953.51,618.94,949.3471,613.0518,942.3108,614.6298,946.4737,620.518,953.51,618.94" style="stroke:#181818;stroke-width:1;"/><text fill="#000000" font-family="sans-serif" font-size="13" lengthAdjust="spacing" textLength="8.271" x="808.0253" y="579.3875">1</text><text fill="#000000" font-family="sans-serif" font-size="13" lengthAdjust="spacing" textLength="8.271" x="931.2735" y="609.812">1</text></g><!--reverse link ClientModel to GUI--><g class="link" data-entity-1="ent0015" data-entity-2="ent0002" data-link-type="dependency" data-source-line="61" id="lnk16"><path codeLine="61" d="M64.5,45.35 C64.5,58.79 64.5,73.9169 64.5,98.1333 C64.5,104.1874 64.5,110.4346 64.5,116.803 C64.5,118.3952 64.5,119.9948 64.5,121.601 C64.5,122.0025 64.5,122.4045 64.5,122.8068" fill="none" id="ClientModel-backto-GUI" style="stroke:#181818;stroke-width:1;stroke-dasharray:7,7;"/><polygon fill="#181818" points="64.5,39.35,60.5,48.35,64.5,44.35,68.5,48.35,64.5,39.35" style="stroke:#181818;stroke-width:1;"/><text fill="#000000" font-family="sans-serif" font-size="13" lengthAdjust="spacing" textLength="31.0591" x="28.6382" y="59.0402">Uses</text></g><!--link Screens to ScreenNavigator--><g class="link" data-entity-1="ent0009" data-entity-2="ent0004" data-link-type="dependency" data-source-line="62" id="lnk18"><path codeLine="62" d="M458.85,502.5 C470.38,502.5 475.91,502.5 487.44,502.5" fill="none" id="Screens-to-ScreenNavigator" style="stroke:#181818;stroke-width:1;stroke-dasharray:7,7;"/><polygon fill="#181818" points="493.44,502.5,484.44,498.5,488.44,502.5,484.44,506.5,493.44,502.5" style="stroke:#181818;stroke-width:1;"/><text fill="#000000" font-family="sans-serif" font-size="13" lengthAdjust="spacing" textLength="31.0591" x="465.957" y="497.6029">Uses</text></g><?plantuml-src fLHTQy8m57tFhmZkfUfQsEiGGRhDLVmOJDbprbuqB4qaYMvE_E-xQMjRFn2cBsrpFyuvzoJDWYT08LtQ3KqX_GHjo9B5NsmEj3-BjYGMp1WwObn-S9ceRzhfm8y5cHWwUD4iXMvtItmQAub1-yOaq4SwS6-1uI7Rg9N5ICXqaYymAjcQpvbL6XFliGQGutq4iwbAGBmocGW7zSGi6xa8TIo28qcP2xDbYDHQ2G6Qj6j2lGodZd1Vz9_fR28ubzno9lWlv9gCryJAjU89HM1ZcRQhPHaZTtGEDiFDOYLBdiW9iio9Ih8ZXQr7m--Dn1b0rsqKPsni7tTxefx7OKk4fjE_G4jCQNWvHYLcgEPSvjdw9cS8rIRdCvpPk7OTm8jFAmuzhemi1SmCw5lug_whwAFfBUJxxgkeUt6iLjBUmdy0yJyH85TfKMssP3ZfHsCI3gFdyPH4Kz8BmyaCFtVkgDJkWSP3e-Nx-3mHSxHsbShtMwwqTaGkbLKxUQbgR_cbcWDRIFuhvjT90qbCenC4WRleJZ6Aj0WAP_u0?></g></svg>