<?plantuml 1.2026.2?><svg xmlns="http://www.w3.org/2000/svg" xmlns:xlink="http://www.w3.org/1999/xlink" contentStyleType="text/css" data-diagram-type="CLASS" height="404px" preserveAspectRatio="none" style="width:1262px;height:404px;background:#FFFFFF;" version="1.1" viewBox="0 0 1262 404" width="1262px" zoomAndPan="magnify"><defs/><g><!--cluster ServerApp--><g class="cluster" data-qualified-name="ServerApp" data-source-line="2" id="ent0002"><path d="M8.5,49.57 L92.3857,49.57 A3.75,3.75 0 0 1 94.8857,52.07 L101.8857,71.8669 L225.5,71.8669 A2.5,2.5 0 0 1 228,74.3669 L228,292.07 A2.5,2.5 0 0 1 225.5,294.57 L8.5,294.57 A2.5,2.5 0 0 1 6,292.07 L6,52.07 A2.5,2.5 0 0 1 8.5,49.57" fill="none" style="stroke:#000000;stroke-width:1.5;"/><line style="stroke:#000000;stroke-width:1.5;" x1="6" x2="101.8857" y1="71.8669" y2="71.8669"/><text fill="#000000" font-family="sans-serif" font-size="14" font-weight="bold" lengthAdjust="spacing" textLength="82.8857" x="10" y="64.5651">ServerApp</text></g><!--cluster ClientApp--><g class="cluster" data-qualified-name="ClientApp" data-source-line="11" id="ent0007"><path d="M676.5,49.57 L754.4043,49.57 A3.75,3.75 0 0 1 756.9043,52.07 L763.9043,71.8669 L1023.5,71.8669 A2.5,2.5 0 0 1 1026,74.3669 L1026,165.07 A2.5,2.5 0 0 1 1023.5,167.57 L676.5,167.57 A2.5,2.5 0 0 1 674,165.07 L674,52.07 A2.5,2.5 0 0 1 676.5,49.57" fill="none" style="stroke:#000000;stroke-width:1.5;"/><line style="stroke:#000000;stroke-width:1.5;" x1="674" x2="763.9043" y1="71.8669" y2="71.8669"/><text fill="#000000" font-family="sans-serif" font-size="14" font-weight="bold" lengthAdjust="spacing" textLength="76.9043" x="678" y="64.5651">ClientApp</text></g><!--cluster GUI--><g class="cluster" data-qualified-name="GUI" data-source-line="17" id="ent0011"><path d="M1068.5,49.57 L1097.5684,49.57 A3.75,3.75 0 0 1 1100.0684,52.07 L1107.0684,71.8669 L1252.5,71.8669 A2.5,2.5 0 0 1 1255,74.3669 L1255,292.07 A2.5,2.5 0 0 1 1252.5,294.57 L1068.5,294.57 A2.5,2.5 0 0 1 1066,292.07 L1066,52.07 A2.5,2.5 0 0 1 1068.5,49.57" fill="none" style="stroke:#000000;stroke-width:1.5;"/><line style="stroke:#000000;stroke-width:1.5;" x1="1066" x2="1107.0684" y1="71.8669" y2="71.8669"/><text fill="#000000" font-family="sans-serif" font-size="14" font-weight="bold" lengthAdjust="spacing" textLength="28.0684" x="1070" y="64.5651">GUI</text></g><!--class Server--><g class="entity" data-qualified-name="ServerApp.Server" data-source-line="3" id="ent0003"><rect fill="#F1F1F1" height="32" rx="2.5" ry="2.5" style="stroke:#181818;stroke-width:0.5;" width="77.9102" x="65" y="111.57"/><ellipse cx="80" cy="127.57" fill="#ADD1B2" rx="11" ry="11" style="stroke:#181818;stroke-width:1;"/><path d="M82.9688,133.2106 Q82.3906,133.5075 81.75,133.6481 Q81.1094,133.8044 80.4063,133.8044 Q77.9063,133.8044 76.5781,132.1638 Q75.2656,130.5075 75.2656,127.3825 Q75.2656,124.2575 76.5781,122.6013 Q77.9063,120.945 80.4063,120.945 Q81.1094,120.945 81.75,121.1013 Q82.4063,121.2575 82.9688,121.5544 L82.9688,124.2731 Q82.3438,123.695 81.75,123.4294 Q81.1563,123.1481 80.5313,123.1481 Q79.1875,123.1481 78.5,124.2263 Q77.8125,125.2888 77.8125,127.3825 Q77.8125,129.4763 78.5,130.5544 Q79.1875,131.6169 80.5313,131.6169 Q81.1563,131.6169 81.75,131.3513 Q82.3438,131.07 82.9688,130.4919 L82.9688,133.2106 Z " fill="#000000"/><text fill="#000000" font-family="sans-serif" font-size="14" lengthAdjust="spacing" textLength="45.9102" x="94" y="132.4167">Server</text></g><!--class ServerComponents--><g class="entity" data-qualified-name="ServerApp.ServerComponents" data-source-line="4" id="ent0004"><rect fill="#F1F1F1" height="32" rx="2.5" ry="2.5" style="stroke:#181818;stroke-width:0.5;" width="166.4834" x="38" y="238.57"/><ellipse cx="53" cy="254.57" fill="#ADD1B2" rx="11" ry="11" style="stroke:#181818;stroke-width:1;"/><path d="M55.9688,260.2106 Q55.3906,260.5075 54.75,260.6481 Q54.1094,260.8044 53.4063,260.8044 Q50.9063,260.8044 49.5781,259.1638 Q48.2656,257.5075 48.2656,254.3825 Q48.2656,251.2575 49.5781,249.6013 Q50.9063,247.945 53.4063,247.945 Q54.1094,247.945 54.75,248.1013 Q55.4063,248.2575 55.9688,248.5544 L55.9688,251.2731 Q55.3438,250.695 54.75,250.4294 Q54.1563,250.1481 53.5313,250.1481 Q52.1875,250.1481 51.5,251.2263 Q50.8125,252.2888 50.8125,254.3825 Q50.8125,256.4763 51.5,257.5544 Q52.1875,258.6169 53.5313,258.6169 Q54.1563,258.6169 54.75,258.3513 Q55.3438,258.07 55.9688,257.4919 L55.9688,260.2106 Z " fill="#000000"/><text fill="#000000" font-family="sans-serif" font-size="14" lengthAdjust="spacing" textLength="134.4834" x="67" y="259.4167">ServerComponents</text></g><!--class Client--><g class="entity" data-qualified-name="ClientApp.Client" data-source-line="12" id="ent0008"><rect fill="#F1F1F1" height="32" rx="2.5" ry="2.5" style="stroke:#181818;stroke-width:0.5;" width="72.5303" x="717.5" y="111.57"/><ellipse cx="732.5" cy="127.57" fill="#ADD1B2" rx="11" ry="11" style="stroke:#181818;stroke-width:1;"/><path d="M735.4688,133.2106 Q734.8906,133.5075 734.25,133.6481 Q733.6094,133.8044 732.9063,133.8044 Q730.4063,133.8044 729.0781,132.1638 Q727.7656,130.5075 727.7656,127.3825 Q727.7656,124.2575 729.0781,122.6013 Q730.4063,120.945 732.9063,120.945 Q733.6094,120.945 734.25,121.1013 Q734.9063,121.2575 735.4688,121.5544 L735.4688,124.2731 Q734.8438,123.695 734.25,123.4294 Q733.6563,123.1481 733.0313,123.1481 Q731.6875,123.1481 731,124.2263 Q730.3125,125.2888 730.3125,127.3825 Q730.3125,129.4763 731,130.5544 Q731.6875,131.6169 733.0313,131.6169 Q733.6563,131.6169 734.25,131.3513 Q734.8438,131.07 735.4688,130.4919 L735.4688,133.2106 Z " fill="#000000"/><text fill="#000000" font-family="sans-serif" font-size="14" lengthAdjust="spacing" textLength="40.5303" x="746.5" y="132.4167">Client</text></g><!--class ClientController--><g class="entity" data-qualified-name="ClientApp.ClientController" data-source-line="13" id="ent0009"><rect fill="#F1F1F1" height="32" rx="2.5" ry="2.5" style="stroke:#181818;stroke-width:0.5;" width="141.7031" x="860" y="111.57"/><ellipse cx="875" cy="127.57" fill="#ADD1B2" rx="11" ry="11" style="stroke:#181818;stroke-width:1;"/><path d="M877.9688,133.2106 Q877.3906,133.5075 876.75,133.6481 Q876.1094,133.8044 875.4063,133.8044 Q872.9063,133.8044 871.5781,132.1638 Q870.2656,130.5075 870.2656,127.3825 Q870.2656,124.2575 871.5781,122.6013 Q872.9063,120.945 875.4063,120.945 Q876.1094,120.945 876.75,121.1013 Q877.4063,121.2575 877.9688,121.5544 L877.9688,124.2731 Q877.3438,123.695 876.75,123.4294 Q876.1563,123.1481 875.5313,123.1481 Q874.1875,123.1481 873.5,124.2263 Q872.8125,125.2888 872.8125,127.3825 Q872.8125,129.4763 873.5,130.5544 Q874.1875,131.6169 875.5313,131.6169 Q876.1563,131.6169 876.75,131.3513 Q877.3438,131.07 877.9688,130.4919 L877.9688,133.2106 Z " fill="#000000"/><text fill="#000000" font-family="sans-serif" font-size="14" lengthAdjust="spacing" textLength="109.7031" x="889" y="132.4167">ClientController</text></g><!--class MainWindow--><g class="entity" data-qualified-name="GUI.MainWindow" data-source-line="18" id="ent0012"><rect fill="#F1F1F1" height="32" rx="2.5" ry="2.5" style="stroke:#181818;stroke-width:0.5;" width="120.9287" x="1109.5" y="111.57"/><ellipse cx="1124.5" cy="127.57" fill="#ADD1B2" rx="11" ry="11" style="stroke:#181818;stroke-width:1;"/><path d="M1127.4688,133.2106 Q1126.8906,133.5075 1126.25,133.6481 Q1125.6094,133.8044 1124.9063,133.8044 Q1122.4063,133.8044 1121.0781,132.1638 Q1119.7656,130.5075 1119.7656,127.3825 Q1119.7656,124.2575 1121.0781,122.6013 Q1122.4063,120.945 1124.9063,120.945 Q1125.6094,120.945 1126.25,121.1013 Q1126.9063,121.2575 1127.4688,121.5544 L1127.4688,124.2731 Q1126.8438,123.695 1126.25,123.4294 Q1125.6563,123.1481 1125.0313,123.1481 Q1123.6875,123.1481 1123,124.2263 Q1122.3125,125.2888 1122.3125,127.3825 Q1122.3125,129.4763 1123,130.5544 Q1123.6875,131.6169 1125.0313,131.6169 Q1125.6563,131.6169 1126.25,131.3513 Q1126.8438,131.07 1127.4688,130.4919 L1127.4688,133.2106 Z " fill="#000000"/><text fill="#000000" font-family="sans-serif" font-size="14" lengthAdjust="spacing" textLength="88.9287" x="1138.5" y="132.4167">MainWindow</text></g><!--class Screens--><g class="entity" data-qualified-name="GUI.Screens" data-source-line="19" id="ent0013"><rect fill="#F1F1F1" height="32" rx="2.5" ry="2.5" style="stroke:#181818;stroke-width:0.5;" width="87.7334" x="1109" y="238.57"/><ellipse cx="1124" cy="254.57" fill="#ADD1B2" rx="11" ry="11" style="stroke:#181818;stroke-width:1;"/><path d="M1126.9688,260.2106 Q1126.3906,260.5075 1125.75,260.6481 Q1125.1094,260.8044 1124.4063,260.8044 Q1121.9063,260.8044 1120.5781,259.1638 Q1119.2656,257.5075 1119.2656,254.3825 Q1119.2656,251.2575 1120.5781,249.6013 Q1121.9063,247.945 1124.4063,247.945 Q1125.1094,247.945 1125.75,248.1013 Q1126.4063,248.2575 1126.9688,248.5544 L1126.9688,251.2731 Q1126.3438,250.695 1125.75,250.4294 Q1125.1563,250.1481 1124.5313,250.1481 Q1123.1875,250.1481 1122.5,251.2263 Q1121.8125,252.2888 1121.8125,254.3825 Q1121.8125,256.4763 1122.5,257.5544 Q1123.1875,258.6169 1124.5313,258.6169 Q1125.1563,258.6169 1125.75,258.3513 Q1126.3438,258.07 1126.9688,257.4919 L1126.9688,260.2106 Z " fill="#000000"/><text fill="#000000" font-family="sans-serif" font-size="14" lengthAdjust="spacing" textLength="55.7334" x="1138" y="259.4167">Screens</text></g><!--class Wrapper--><g class="entity" data-qualified-name="Wrapper" data-source-line="9" id="ent0006"><rect fill="#F1F1F1" height="32" rx="2.5" ry="2.5" style="stroke:#181818;stroke-width:0.5;" width="92.3203" x="297" y="111.57"/><ellipse cx="312" cy="127.57" fill="#ADD1B2" rx="11" ry="11" style="stroke:#181818;stroke-width:1;"/><path d="M314.9688,133.2106 Q314.3906,133.5075 313.75,133.6481 Q313.1094,133.8044 312.4063,133.8044 Q309.9063,133.8044 308.5781,132.1638 Q307.2656,130.5075 307.2656,127.3825 Q307.2656,124.2575 308.5781,122.6013 Q309.9063,120.945 312.4063,120.945 Q313.1094,120.945 313.75,121.1013 Q314.4063,121.2575 314.9688,121.5544 L314.9688,124.2731 Q314.3438,123.695 313.75,123.4294 Q313.1563,123.1481 312.5313,123.1481 Q311.1875,123.1481 310.5,124.2263 Q309.8125,125.2888 309.8125,127.3825 Q309.8125,129.4763 310.5,130.5544 Q311.1875,131.6169 312.5313,131.6169 Q313.1563,131.6169 313.75,131.3513 Q314.3438,131.07 314.9688,130.4919 L314.9688,133.2106 Z " fill="#000000"/><text fill="#000000" font-family="sans-serif" font-size="14" lengthAdjust="spacing" textLength="60.3203" x="326" y="132.4167">Wrapper</text></g><!--class DataModel--><g class="entity" data-qualified-name="DataModel" data-source-line="32" id="ent0020"><rect fill="#F1F1F1" height="32" rx="2.5" ry="2.5" style="stroke:#181818;stroke-width:0.5;" width="107.4619" x="788.5" y="365.57"/><ellipse cx="803.5" cy="381.57" fill="#ADD1B2" rx="11" ry="11" style="stroke:#181818;stroke-width:1;"/><path d="M806.4688,387.2106 Q805.8906,387.5075 805.25,387.6481 Q804.6094,387.8044 803.9063,387.8044 Q801.4063,387.8044 800.0781,386.1638 Q798.7656,384.5075 798.7656,381.3825 Q798.7656,378.2575 800.0781,376.6013 Q801.4063,374.945 803.9063,374.945 Q804.6094,374.945 805.25,375.1013 Q805.9063,375.2575 806.4688,375.5544 L806.4688,378.2731 Q805.8438,377.695 805.25,377.4294 Q804.6563,377.1481 804.0313,377.1481 Q802.6875,377.1481 802,378.2263 Q801.3125,379.2888 801.3125,381.3825 Q801.3125,383.4763 802,384.5544 Q802.6875,385.6169 804.0313,385.6169 Q804.6563,385.6169 805.25,385.3513 Q805.8438,385.07 806.4688,384.4919 L806.4688,387.2106 Z " fill="#000000"/><text fill="#000000" font-family="sans-serif" font-size="14" lengthAdjust="spacing" textLength="75.4619" x="817.5" y="386.4167">DataModel</text></g><!--reverse link Server to ServerComponents--><g class="link" data-entity-1="ent0003" data-entity-2="ent0004" data-link-type="composition" data-source-line="6" id="lnk5"><path codeLine="6" d="M107.7018,155.7899 C110.9918,179.9099 115.69,214.55 118.95,238.51" fill="none" id="Server-backto-ServerComponents" style="stroke:#181818;stroke-width:1;"/><polygon fill="#181818" points="106.08,143.9,102.9276,150.3856,107.7018,155.7899,110.8542,149.3044,106.08,143.9" style="stroke:#181818;stroke-width:1;"/></g><!--reverse link Client to ClientController--><g class="link" data-entity-1="ent0008" data-entity-2="ent0009" data-link-type="dependency" data-source-line="14" id="lnk10"><path codeLine="14" d="M796.67,127.57 C816.62,127.57 835.99,127.57 859.66,127.57" fill="none" id="Client-backto-ClientController" style="stroke:#181818;stroke-width:1;"/><polygon fill="#181818" points="790.67,127.57,799.67,131.57,795.67,127.57,799.67,123.57,790.67,127.57" style="stroke:#181818;stroke-width:1;"/><text fill="#000000" font-family="sans-serif" font-size="13" lengthAdjust="spacing" textLength="31.0591" x="809.75" y="120.6369">Uses</text></g><!--reverse link MainWindow to Screens--><g class="link" data-entity-1="ent0012" data-entity-2="ent0013" data-link-type="dependency" data-source-line="21" id="lnk14"><path codeLine="21" d="M1167.1091,149.845 C1163.8191,173.965 1158.31,214.55 1155.05,238.51" fill="none" id="MainWindow-backto-Screens" style="stroke:#181818;stroke-width:1;"/><polygon fill="#181818" points="1167.92,143.9,1162.7404,152.2768,1167.2443,148.8541,1170.667,153.358,1167.92,143.9" style="stroke:#181818;stroke-width:1;"/><text fill="#000000" font-family="sans-serif" font-size="13" lengthAdjust="spacing" textLength="70.5225" x="1161" y="204.6369">Display On</text></g><!--link ServerApp to Wrapper--><!--link Wrapper to ClientApp--><!--link ClientApp to GUI--><!--link Server to Wrapper--><g class="link" data-entity-1="ent0003" data-entity-2="ent0006" data-link-type="dependency" data-source-line="29" id="lnk18"><path codeLine="29" d="M149.2,127.57 C191.31,127.57 246.19,127.57 290.82,127.57" fill="none" id="Server-Wrapper" style="stroke:#181818;stroke-width:1;stroke-dasharray:7,7;"/><polygon fill="#181818" points="143.2,127.57,152.2,131.57,148.2,127.57,152.2,123.57,143.2,127.57" style="stroke:#181818;stroke-width:1;"/><polygon fill="#181818" points="296.82,127.57,287.82,123.57,291.82,127.57,287.82,131.57,296.82,127.57" style="stroke:#181818;stroke-width:1;"/><text fill="#000000" font-family="sans-serif" font-size="13" lengthAdjust="spacing" textLength="117.7808" x="161.5" y="120.6369">Send Requests By</text></g><!--link Wrapper to Client--><g class="link" data-entity-1="ent0006" data-entity-2="ent0008" data-link-type="dependency" data-source-line="30" id="lnk19"><path codeLine="30" d="M365.3441,107.6036 C391.9241,84.8036 440.07,48.02 493.5,32.57 C540.57,18.96 673.26,6.34 714,33.57 C740.1,51.01 748.3777,83.3308 751.5277,105.2808" fill="none" id="Wrapper-Client" style="stroke:#181818;stroke-width:1;stroke-dasharray:7,7;"/><polygon fill="#181818" points="360.79,111.51,370.2254,108.6864,364.5851,108.2546,365.0168,102.6143,360.79,111.51" style="stroke:#181818;stroke-width:1;"/><polygon fill="#181818" points="752.38,111.22,755.061,101.7431,751.6697,106.2707,747.1421,102.8795,752.38,111.22" style="stroke:#181818;stroke-width:1;"/><text fill="#000000" font-family="sans-serif" font-size="13" lengthAdjust="spacing" textLength="117.7808" x="494.5" y="21.6369">Send Requests By</text></g><!--link Client to DataModel--><g class="link" data-entity-1="ent0008" data-entity-2="ent0020" data-link-type="dependency" data-source-line="34" id="lnk21"><path codeLine="34" d="M759.24,143.58 C774.86,188.29 818.972,314.6354 834.692,359.6554" fill="none" id="Client-to-DataModel" style="stroke:#181818;stroke-width:1;"/><polygon fill="#181818" points="836.67,365.32,837.4795,355.5045,835.0217,360.5995,829.9267,358.1417,836.67,365.32" style="stroke:#181818;stroke-width:1;"/><text fill="#000000" font-family="sans-serif" font-size="13" lengthAdjust="spacing" textLength="61.7056" x="817" y="259.1369">Writes To</text></g><!--reverse link Screens to DataModel--><g class="link" data-entity-1="ent0013" data-entity-2="ent0020" data-link-type="dependency" data-source-line="35" id="lnk22"><path codeLine="35" d="M1109.9226,272.887 C1050.1426,296.907 939.51,341.38 879.65,365.44" fill="none" id="Screens-backto-DataModel" style="stroke:#181818;stroke-width:1;"/><polygon fill="#181818" points="1115.49,270.65,1105.6476,270.2939,1110.8505,272.5142,1108.6303,277.7171,1115.49,270.65" style="stroke:#181818;stroke-width:1;"/><text fill="#000000" font-family="sans-serif" font-size="13" lengthAdjust="spacing" textLength="77.5938" x="989" y="331.6369">Reads From</text></g><!--reverse link ClientController to Screens--><g class="link" data-entity-1="ent0009" data-entity-2="ent0013" data-link-type="dependency" data-source-line="36" id="lnk23"><path codeLine="36" d="M950.1835,147.8712 C968.2335,165.4912 995.94,190.32 1028,208.57 C1053.36,223.01 1084.17,234.16 1108.87,241.76" fill="none" id="ClientController-backto-Screens" style="stroke:#181818;stroke-width:1;"/><polygon fill="#181818" points="945.89,143.68,949.5361,152.8291,949.4679,147.1727,955.1243,147.1045,945.89,143.68" style="stroke:#181818;stroke-width:1;"/><text fill="#000000" font-family="sans-serif" font-size="13" lengthAdjust="spacing" textLength="121.8433" x="1029" y="204.6369">Passes Commands</text></g><?plantuml-src RP9DJiCm48NtFiMiaPm3H1KIf0Ang40jLHTL5oOUDLQJiR4DAAguEzFyEAt2Al7Cc_dyNb8PZO2DYoqqs7oW3yAfygIE21lqt-WVd3kBibOX38Npxysni8spX1G3DqHVWpifPst1xNvmvvLptQB4Ach3cYjMNqYi_bXOYjxMTJVRbs0XzsIzejD1pbIGmpPWHnv1pzkN4R5IXdQ6jFsPB9KUaJedKvSHSkpai3J1rQg5Lxgi5IaaaDuSgxYlZDP81ta_sXJ3Sov8faLwculumYdMHJPwpT9wzhX1qh36poyCCS1ZcuYBR1h8Hjv_0uFzfOfgPJNMS4bWa4kEWFWYKpDdjeaOuDsA8HVEg9FTgDQeT80dRnin-p9NcRBoZUcyZt-MHf4EVm00?></g></svg>