<?plantuml 1.2026.2?><svg xmlns="http://www.w3.org/2000/svg" xmlns:xlink="http://www.w3.org/1999/xlink" contentStyleType="text/css" data-diagram-type="CLASS" height="538px" preserveAspectRatio="none" style="width:1207px;height:538px;background:#FFFFFF;" version="1.1" viewBox="0 0 1207 538" width="1207px" zoomAndPan="magnify"><defs/><g><!--cluster ServerApp--><g class="cluster" data-qualified-name="ServerApp" data-source-line="2" id="ent0002"><path d="M8.5,56.39 L92.3857,56.39 A3.75,3.75 0 0 1 94.8857,58.89 L101.8857,78.6869 L565.5,78.6869 A2.5,2.5 0 0 1 568,81.1869 L568,298.89 A2.5,2.5 0 0 1 565.5,301.39 L8.5,301.39 A2.5,2.5 0 0 1 6,298.89 L6,58.89 A2.5,2.5 0 0 1 8.5,56.39" fill="none" style="stroke:#000000;stroke-width:1.5;"/><line style="stroke:#000000;stroke-width:1.5;" x1="6" x2="101.8857" y1="78.6869" y2="78.6869"/><text fill="#000000" font-family="sans-serif" font-size="14" font-weight="bold" lengthAdjust="spacing" textLength="82.8857" x="10" y="71.3851">ServerApp</text></g><!--cluster ClientApp--><g class="cluster" data-qualified-name="ClientApp" data-source-line="17" id="ent0013"><path d="M621.5,202.39 L699.4043,202.39 A3.75,3.75 0 0 1 701.9043,204.89 L708.9043,224.6869 L968.5,224.6869 A2.5,2.5 0 0 1 971,227.1869 L971,298.89 A2.5,2.5 0 0 1 968.5,301.39 L621.5,301.39 A2.5,2.5 0 0 1 619,298.89 L619,204.89 A2.5,2.5 0 0 1 621.5,202.39" fill="none" style="stroke:#000000;stroke-width:1.5;"/><line style="stroke:#000000;stroke-width:1.5;" x1="619" x2="708.9043" y1="224.6869" y2="224.6869"/><text fill="#000000" font-family="sans-serif" font-size="14" font-weight="bold" lengthAdjust="spacing" textLength="76.9043" x="623" y="217.3851">ClientApp</text></g><!--cluster GUI--><g class="cluster" data-qualified-name="GUI" data-source-line="23" id="ent0017"><path d="M1013.5,202.39 L1042.5684,202.39 A3.75,3.75 0 0 1 1045.0684,204.89 L1052.0684,224.6869 L1197.5,224.6869 A2.5,2.5 0 0 1 1200,227.1869 L1200,425.89 A2.5,2.5 0 0 1 1197.5,428.39 L1013.5,428.39 A2.5,2.5 0 0 1 1011,425.89 L1011,204.89 A2.5,2.5 0 0 1 1013.5,202.39" fill="none" style="stroke:#000000;stroke-width:1.5;"/><line style="stroke:#000000;stroke-width:1.5;" x1="1011" x2="1052.0684" y1="224.6869" y2="224.6869"/><text fill="#000000" font-family="sans-serif" font-size="14" font-weight="bold" lengthAdjust="spacing" textLength="28.0684" x="1015" y="217.3851">GUI</text></g><!--class Server--><g class="entity" data-qualified-name="ServerApp.Server" data-source-line="3" id="ent0003"><rect fill="#F1F1F1" height="32" rx="2.5" ry="2.5" style="stroke:#181818;stroke-width:0.5;" width="77.9102" x="274" y="99.39"/><ellipse cx="289" cy="115.39" fill="#ADD1B2" rx="11" ry="11" style="stroke:#181818;stroke-width:1;"/><path d="M291.9688,121.0306 Q291.3906,121.3275 290.75,121.4681 Q290.1094,121.6244 289.4063,121.6244 Q286.9063,121.6244 285.5781,119.9837 Q284.2656,118.3275 284.2656,115.2025 Q284.2656,112.0775 285.5781,110.4212 Q286.9063,108.765 289.4063,108.765 Q290.1094,108.765 290.75,108.9212 Q291.4063,109.0775 291.9688,109.3744 L291.9688,112.0931 Q291.3438,111.515 290.75,111.2494 Q290.1563,110.9681 289.5313,110.9681 Q288.1875,110.9681 287.5,112.0462 Q286.8125,113.1087 286.8125,115.2025 Q286.8125,117.2962 287.5,118.3744 Q288.1875,119.4369 289.5313,119.4369 Q290.1563,119.4369 290.75,119.1712 Q291.3438,118.89 291.9688,118.3119 L291.9688,121.0306 Z " fill="#000000"/><text fill="#000000" font-family="sans-serif" font-size="14" lengthAdjust="spacing" textLength="45.9102" x="303" y="120.2367">Server</text></g><!--class UserData--><g class="entity" data-qualified-name="ServerApp.UserData" data-source-line="4" id="ent0004"><rect fill="#F1F1F1" height="32" rx="2.5" ry="2.5" style="stroke:#181818;stroke-width:0.5;" width="97.3379" x="37.5" y="245.39"/><ellipse cx="52.5" cy="261.39" fill="#ADD1B2" rx="11" ry="11" style="stroke:#181818;stroke-width:1;"/><path d="M55.4688,267.0306 Q54.8906,267.3275 54.25,267.4681 Q53.6094,267.6244 52.9063,267.6244 Q50.4063,267.6244 49.0781,265.9838 Q47.7656,264.3275 47.7656,261.2025 Q47.7656,258.0775 49.0781,256.4213 Q50.4063,254.765 52.9063,254.765 Q53.6094,254.765 54.25,254.9213 Q54.9063,255.0775 55.4688,255.3744 L55.4688,258.0931 Q54.8438,257.515 54.25,257.2494 Q53.6563,256.9681 53.0313,256.9681 Q51.6875,256.9681 51,258.0463 Q50.3125,259.1088 50.3125,261.2025 Q50.3125,263.2963 51,264.3744 Q51.6875,265.4369 53.0313,265.4369 Q53.6563,265.4369 54.25,265.1713 Q54.8438,264.89 55.4688,264.3119 L55.4688,267.0306 Z " fill="#000000"/><text fill="#000000" font-family="sans-serif" font-size="14" lengthAdjust="spacing" textLength="65.3379" x="66.5" y="266.2367">UserData</text></g><!--class ClientHandler--><g class="entity" data-qualified-name="ServerApp.ClientHandler" data-source-line="5" id="ent0005"><rect fill="#F1F1F1" height="32" rx="2.5" ry="2.5" style="stroke:#181818;stroke-width:0.5;" width="127.6553" x="170" y="245.39"/><ellipse cx="185" cy="261.39" fill="#ADD1B2" rx="11" ry="11" style="stroke:#181818;stroke-width:1;"/><path d="M187.9688,267.0306 Q187.3906,267.3275 186.75,267.4681 Q186.1094,267.6244 185.4063,267.6244 Q182.9063,267.6244 181.5781,265.9838 Q180.2656,264.3275 180.2656,261.2025 Q180.2656,258.0775 181.5781,256.4213 Q182.9063,254.765 185.4063,254.765 Q186.1094,254.765 186.75,254.9213 Q187.4063,255.0775 187.9688,255.3744 L187.9688,258.0931 Q187.3438,257.515 186.75,257.2494 Q186.1563,256.9681 185.5313,256.9681 Q184.1875,256.9681 183.5,258.0463 Q182.8125,259.1088 182.8125,261.2025 Q182.8125,263.2963 183.5,264.3744 Q184.1875,265.4369 185.5313,265.4369 Q186.1563,265.4369 186.75,265.1713 Q187.3438,264.89 187.9688,264.3119 L187.9688,267.0306 Z " fill="#000000"/><text fill="#000000" font-family="sans-serif" font-size="14" lengthAdjust="spacing" textLength="95.6553" x="199" y="266.2367">ClientHandler</text></g><!--class FileManager--><g class="entity" data-qualified-name="ServerApp.FileManager" data-source-line="6" id="ent0006"><rect fill="#F1F1F1" height="32" rx="2.5" ry="2.5" style="stroke:#181818;stroke-width:0.5;" width="117.8115" x="333" y="245.39"/><ellipse cx="348" cy="261.39" fill="#ADD1B2" rx="11" ry="11" style="stroke:#181818;stroke-width:1;"/><path d="M350.9688,267.0306 Q350.3906,267.3275 349.75,267.4681 Q349.1094,267.6244 348.4063,267.6244 Q345.9063,267.6244 344.5781,265.9838 Q343.2656,264.3275 343.2656,261.2025 Q343.2656,258.0775 344.5781,256.4213 Q345.9063,254.765 348.4063,254.765 Q349.1094,254.765 349.75,254.9213 Q350.4063,255.0775 350.9688,255.3744 L350.9688,258.0931 Q350.3438,257.515 349.75,257.2494 Q349.1563,256.9681 348.5313,256.9681 Q347.1875,256.9681 346.5,258.0463 Q345.8125,259.1088 345.8125,261.2025 Q345.8125,263.2963 346.5,264.3744 Q347.1875,265.4369 348.5313,265.4369 Q349.1563,265.4369 349.75,265.1713 Q350.3438,264.89 350.9688,264.3119 L350.9688,267.0306 Z " fill="#000000"/><text fill="#000000" font-family="sans-serif" font-size="14" lengthAdjust="spacing" textLength="85.8115" x="362" y="266.2367">FileManager</text></g><!--class Log--><g class="entity" data-qualified-name="ServerApp.Log" data-source-line="7" id="ent0007"><rect fill="#F1F1F1" height="32" rx="2.5" ry="2.5" style="stroke:#181818;stroke-width:0.5;" width="57.252" x="486.5" y="245.39"/><ellipse cx="501.5" cy="261.39" fill="#ADD1B2" rx="11" ry="11" style="stroke:#181818;stroke-width:1;"/><path d="M504.4688,267.0306 Q503.8906,267.3275 503.25,267.4681 Q502.6094,267.6244 501.9063,267.6244 Q499.4063,267.6244 498.0781,265.9838 Q496.7656,264.3275 496.7656,261.2025 Q496.7656,258.0775 498.0781,256.4213 Q499.4063,254.765 501.9063,254.765 Q502.6094,254.765 503.25,254.9213 Q503.9063,255.0775 504.4688,255.3744 L504.4688,258.0931 Q503.8438,257.515 503.25,257.2494 Q502.6563,256.9681 502.0313,256.9681 Q500.6875,256.9681 500,258.0463 Q499.3125,259.1088 499.3125,261.2025 Q499.3125,263.2963 500,264.3744 Q500.6875,265.4369 502.0313,265.4369 Q502.6563,265.4369 503.25,265.1713 Q503.8438,264.89 504.4688,264.3119 L504.4688,267.0306 Z " fill="#000000"/><text fill="#000000" font-family="sans-serif" font-size="14" lengthAdjust="spacing" textLength="25.252" x="515.5" y="266.2367">Log</text></g><!--class Client--><g class="entity" data-qualified-name="ClientApp.Client" data-source-line="18" id="ent0014"><rect fill="#F1F1F1" height="32" rx="2.5" ry="2.5" style="stroke:#181818;stroke-width:0.5;" width="72.5303" x="662.5" y="245.39"/><ellipse cx="677.5" cy="261.39" fill="#ADD1B2" rx="11" ry="11" style="stroke:#181818;stroke-width:1;"/><path d="M680.4688,267.0306 Q679.8906,267.3275 679.25,267.4681 Q678.6094,267.6244 677.9063,267.6244 Q675.4063,267.6244 674.0781,265.9838 Q672.7656,264.3275 672.7656,261.2025 Q672.7656,258.0775 674.0781,256.4213 Q675.4063,254.765 677.9063,254.765 Q678.6094,254.765 679.25,254.9213 Q679.9063,255.0775 680.4688,255.3744 L680.4688,258.0931 Q679.8438,257.515 679.25,257.2494 Q678.6563,256.9681 678.0313,256.9681 Q676.6875,256.9681 676,258.0463 Q675.3125,259.1088 675.3125,261.2025 Q675.3125,263.2963 676,264.3744 Q676.6875,265.4369 678.0313,265.4369 Q678.6563,265.4369 679.25,265.1713 Q679.8438,264.89 680.4688,264.3119 L680.4688,267.0306 Z " fill="#000000"/><text fill="#000000" font-family="sans-serif" font-size="14" lengthAdjust="spacing" textLength="40.5303" x="691.5" y="266.2367">Client</text></g><!--class ClientController--><g class="entity" data-qualified-name="ClientApp.ClientController" data-source-line="19" id="ent0015"><rect fill="#F1F1F1" height="32" rx="2.5" ry="2.5" style="stroke:#181818;stroke-width:0.5;" width="141.7031" x="805" y="245.39"/><ellipse cx="820" cy="261.39" fill="#ADD1B2" rx="11" ry="11" style="stroke:#181818;stroke-width:1;"/><path d="M822.9688,267.0306 Q822.3906,267.3275 821.75,267.4681 Q821.1094,267.6244 820.4063,267.6244 Q817.9063,267.6244 816.5781,265.9838 Q815.2656,264.3275 815.2656,261.2025 Q815.2656,258.0775 816.5781,256.4213 Q817.9063,254.765 820.4063,254.765 Q821.1094,254.765 821.75,254.9213 Q822.4063,255.0775 822.9688,255.3744 L822.9688,258.0931 Q822.3438,257.515 821.75,257.2494 Q821.1563,256.9681 820.5313,256.9681 Q819.1875,256.9681 818.5,258.0463 Q817.8125,259.1088 817.8125,261.2025 Q817.8125,263.2963 818.5,264.3744 Q819.1875,265.4369 820.5313,265.4369 Q821.1563,265.4369 821.75,265.1713 Q822.3438,264.89 822.9688,264.3119 L822.9688,267.0306 Z " fill="#000000"/><text fill="#000000" font-family="sans-serif" font-size="14" lengthAdjust="spacing" textLength="109.7031" x="834" y="266.2367">ClientController</text></g><!--class MainWindow--><g class="entity" data-qualified-name="GUI.MainWindow" data-source-line="24" id="ent0018"><rect fill="#F1F1F1" height="32" rx="2.5" ry="2.5" style="stroke:#181818;stroke-width:0.5;" width="120.9287" x="1054.5" y="245.39"/><ellipse cx="1069.5" cy="261.39" fill="#ADD1B2" rx="11" ry="11" style="stroke:#181818;stroke-width:1;"/><path d="M1072.4688,267.0306 Q1071.8906,267.3275 1071.25,267.4681 Q1070.6094,267.6244 1069.9063,267.6244 Q1067.4063,267.6244 1066.0781,265.9838 Q1064.7656,264.3275 1064.7656,261.2025 Q1064.7656,258.0775 1066.0781,256.4213 Q1067.4063,254.765 1069.9063,254.765 Q1070.6094,254.765 1071.25,254.9213 Q1071.9063,255.0775 1072.4688,255.3744 L1072.4688,258.0931 Q1071.8438,257.515 1071.25,257.2494 Q1070.6563,256.9681 1070.0313,256.9681 Q1068.6875,256.9681 1068,258.0463 Q1067.3125,259.1088 1067.3125,261.2025 Q1067.3125,263.2963 1068,264.3744 Q1068.6875,265.4369 1070.0313,265.4369 Q1070.6563,265.4369 1071.25,265.1713 Q1071.8438,264.89 1072.4688,264.3119 L1072.4688,267.0306 Z " fill="#000000"/><text fill="#000000" font-family="sans-serif" font-size="14" lengthAdjust="spacing" textLength="88.9287" x="1083.5" y="266.2367">MainWindow</text></g><!--class Screens--><g class="entity" data-qualified-name="GUI.Screens" data-source-line="25" id="ent0019"><rect fill="#F1F1F1" height="32" rx="2.5" ry="2.5" style="stroke:#181818;stroke-width:0.5;" width="87.7334" x="1054" y="372.39"/><ellipse cx="1069" cy="388.39" fill="#ADD1B2" rx="11" ry="11" style="stroke:#181818;stroke-width:1;"/><path d="M1071.9688,394.0306 Q1071.3906,394.3275 1070.75,394.4681 Q1070.1094,394.6244 1069.4063,394.6244 Q1066.9063,394.6244 1065.5781,392.9838 Q1064.2656,391.3275 1064.2656,388.2025 Q1064.2656,385.0775 1065.5781,383.4213 Q1066.9063,381.765 1069.4063,381.765 Q1070.1094,381.765 1070.75,381.9213 Q1071.4063,382.0775 1071.9688,382.3744 L1071.9688,385.0931 Q1071.3438,384.515 1070.75,384.2494 Q1070.1563,383.9681 1069.5313,383.9681 Q1068.1875,383.9681 1067.5,385.0463 Q1066.8125,386.1088 1066.8125,388.2025 Q1066.8125,390.2963 1067.5,391.3744 Q1068.1875,392.4369 1069.5313,392.4369 Q1070.1563,392.4369 1070.75,392.1713 Q1071.3438,391.89 1071.9688,391.3119 L1071.9688,394.0306 Z " fill="#000000"/><text fill="#000000" font-family="sans-serif" font-size="14" lengthAdjust="spacing" textLength="55.7334" x="1083" y="393.2367">Screens</text></g><!--class Wrapper--><g class="entity" data-qualified-name="Wrapper" data-source-line="15" id="ent0012"><rect fill="#F1F1F1" height="32" rx="2.5" ry="2.5" style="stroke:#181818;stroke-width:0.5;" width="92.3203" x="592" y="99.39"/><ellipse cx="607" cy="115.39" fill="#ADD1B2" rx="11" ry="11" style="stroke:#181818;stroke-width:1;"/><path d="M609.9688,121.0306 Q609.3906,121.3275 608.75,121.4681 Q608.1094,121.6244 607.4063,121.6244 Q604.9063,121.6244 603.5781,119.9837 Q602.2656,118.3275 602.2656,115.2025 Q602.2656,112.0775 603.5781,110.4212 Q604.9063,108.765 607.4063,108.765 Q608.1094,108.765 608.75,108.9212 Q609.4063,109.0775 609.9688,109.3744 L609.9688,112.0931 Q609.3438,111.515 608.75,111.2494 Q608.1563,110.9681 607.5313,110.9681 Q606.1875,110.9681 605.5,112.0462 Q604.8125,113.1087 604.8125,115.2025 Q604.8125,117.2962 605.5,118.3744 Q606.1875,119.4369 607.5313,119.4369 Q608.1563,119.4369 608.75,119.1712 Q609.3438,118.89 609.9688,118.3119 L609.9688,121.0306 Z " fill="#000000"/><text fill="#000000" font-family="sans-serif" font-size="14" lengthAdjust="spacing" textLength="60.3203" x="621" y="120.2367">Wrapper</text></g><!--class DataModel--><g class="entity" data-qualified-name="DataModel" data-source-line="38" id="ent0026"><rect fill="#F1F1F1" height="32" rx="2.5" ry="2.5" style="stroke:#181818;stroke-width:0.5;" width="107.4619" x="765.5" y="499.39"/><ellipse cx="780.5" cy="515.39" fill="#ADD1B2" rx="11" ry="11" style="stroke:#181818;stroke-width:1;"/><path d="M783.4688,521.0306 Q782.8906,521.3275 782.25,521.4681 Q781.6094,521.6244 780.9063,521.6244 Q778.4063,521.6244 777.0781,519.9838 Q775.7656,518.3275 775.7656,515.2025 Q775.7656,512.0775 777.0781,510.4213 Q778.4063,508.765 780.9063,508.765 Q781.6094,508.765 782.25,508.9213 Q782.9063,509.0775 783.4688,509.3744 L783.4688,512.0931 Q782.8438,511.515 782.25,511.2494 Q781.6563,510.9681 781.0313,510.9681 Q779.6875,510.9681 779,512.0463 Q778.3125,513.1088 778.3125,515.2025 Q778.3125,517.2963 779,518.3744 Q779.6875,519.4369 781.0313,519.4369 Q781.6563,519.4369 782.25,519.1713 Q782.8438,518.89 783.4688,518.3119 L783.4688,521.0306 Z " fill="#000000"/><text fill="#000000" font-family="sans-serif" font-size="14" lengthAdjust="spacing" textLength="75.4619" x="794.5" y="520.2367">DataModel</text></g><!--link Server to UserData--><g class="link" data-entity-1="ent0003" data-entity-2="ent0004" data-link-type="composition" data-source-line="9" id="lnk8"><path codeLine="9" d="M273.78,131.19 C233,146.98 172.31,171.7 152,186.39 C128.99,203.04 115.2678,219.2577 103.4178,235.5877" fill="none" id="Server-to-UserData" style="stroke:#181818;stroke-width:1;"/><polygon fill="#181818" points="96.37,245.3,103.1313,242.7931,103.4178,235.5877,96.6565,238.0946,96.37,245.3" style="stroke:#181818;stroke-width:1;"/><text fill="#000000" font-family="sans-serif" font-size="13" lengthAdjust="spacing" textLength="8.271" x="257.8446" y="129.7995">1</text><text fill="#000000" font-family="sans-serif" font-size="13" lengthAdjust="spacing" textLength="8.271" x="90.5482" y="234.2807">1</text></g><!--link Server to ClientHandler--><g class="link" data-entity-1="ent0003" data-entity-2="ent0005" data-link-type="composition" data-source-line="10" id="lnk9"><path codeLine="10" d="M304.69,131.53 C289.56,159.11 263.4336,206.7502 248.2036,234.5002" fill="none" id="Server-to-ClientHandler" style="stroke:#181818;stroke-width:1;"/><polygon fill="#181818" points="242.43,245.02,248.8234,241.6846,248.2036,234.5002,241.8102,237.8356,242.43,245.02" style="stroke:#181818;stroke-width:1;"/><text fill="#000000" font-family="sans-serif" font-size="13" lengthAdjust="spacing" textLength="6.5" x="295.0413" y="151.4496">*</text><text fill="#000000" font-family="sans-serif" font-size="13" lengthAdjust="spacing" textLength="8.271" x="235.9994" y="234.202">1</text></g><!--link Server to FileManager--><g class="link" data-entity-1="ent0003" data-entity-2="ent0006" data-link-type="composition" data-source-line="11" id="lnk10"><path codeLine="11" d="M321.31,131.53 C336.44,159.11 362.5664,206.7502 377.7964,234.5002" fill="none" id="Server-to-FileManager" style="stroke:#181818;stroke-width:1;"/><polygon fill="#181818" points="383.57,245.02,384.1898,237.8356,377.7964,234.5002,377.1766,241.6846,383.57,245.02" style="stroke:#181818;stroke-width:1;"/><text fill="#000000" font-family="sans-serif" font-size="13" lengthAdjust="spacing" textLength="8.271" x="314.7975" y="151.4496">1</text><text fill="#000000" font-family="sans-serif" font-size="13" lengthAdjust="spacing" textLength="8.271" x="371.5287" y="234.202">1</text></g><!--link Server to Log--><g class="link" data-entity-1="ent0003" data-entity-2="ent0007" data-link-type="composition" data-source-line="12" id="lnk11"><path codeLine="12" d="M352.17,127.1 C385.81,137.82 434.1,156.98 468,186.39 C486.97,202.85 495.9674,217.9409 503.5574,234.3309" fill="none" id="Server-to-Log" style="stroke:#181818;stroke-width:1;"/><polygon fill="#181818" points="508.6,245.22,509.7084,238.0946,503.5574,234.3309,502.449,241.4563,508.6,245.22" style="stroke:#181818;stroke-width:1;"/><text fill="#000000" font-family="sans-serif" font-size="13" lengthAdjust="spacing" textLength="8.271" x="359.8918" y="124.9286">1</text><text fill="#000000" font-family="sans-serif" font-size="13" lengthAdjust="spacing" textLength="23.0356" x="479.6348" y="234.4682">1..*</text></g><!--link Client to ClientController--><g class="link" data-entity-1="ent0014" data-entity-2="ent0015" data-link-type="dependency" data-source-line="20" id="lnk16"><path codeLine="20" d="M735.67,261.39 C755.62,261.39 774.99,261.39 798.66,261.39" fill="none" id="Client-to-ClientController" style="stroke:#181818;stroke-width:1;"/><polygon fill="#181818" points="804.66,261.39,795.66,257.39,799.66,261.39,795.66,265.39,804.66,261.39" style="stroke:#181818;stroke-width:1;"/><text fill="#000000" font-family="sans-serif" font-size="13" lengthAdjust="spacing" textLength="31.0591" x="754.75" y="254.4569">Uses</text><text fill="#000000" font-family="sans-serif" font-size="13" lengthAdjust="spacing" textLength="8.271" x="742.9803" y="257.1328">1</text><text fill="#000000" font-family="sans-serif" font-size="13" lengthAdjust="spacing" textLength="8.271" x="788.9198" y="257.6903">1</text></g><!--reverse link MainWindow to Screens--><g class="link" data-entity-1="ent0018" data-entity-2="ent0019" data-link-type="dependency" data-source-line="27" id="lnk20"><path codeLine="27" d="M1112.1091,283.665 C1108.8191,307.785 1103.31,348.37 1100.05,372.33" fill="none" id="MainWindow-backto-Screens" style="stroke:#181818;stroke-width:1;"/><polygon fill="#181818" points="1112.92,277.72,1107.7404,286.0968,1112.2443,282.6741,1115.667,287.178,1112.92,277.72" style="stroke:#181818;stroke-width:1;"/><text fill="#000000" font-family="sans-serif" font-size="13" lengthAdjust="spacing" textLength="70.5225" x="1106" y="338.4569">Display On</text></g><!--link ServerApp to Wrapper--><!--link Wrapper to ClientApp--><!--link ClientApp to GUI--><!--link Server to Wrapper--><g class="link" data-entity-1="ent0003" data-entity-2="ent0012" data-link-type="dependency" data-source-line="35" id="lnk24"><path codeLine="35" d="M358.2,115.39 C418.47,115.39 521.64,115.39 585.85,115.39" fill="none" id="Server-Wrapper" style="stroke:#181818;stroke-width:1;stroke-dasharray:7,7;"/><polygon fill="#181818" points="352.2,115.39,361.2,119.39,357.2,115.39,361.2,111.39,352.2,115.39" style="stroke:#181818;stroke-width:1;"/><polygon fill="#181818" points="591.85,115.39,582.85,111.39,586.85,115.39,582.85,119.39,591.85,115.39" style="stroke:#181818;stroke-width:1;"/><text fill="#000000" font-family="sans-serif" font-size="13" lengthAdjust="spacing" textLength="117.7808" x="413.5" y="108.4569">Send Requests By</text></g><!--link Wrapper to Client--><g class="link" data-entity-1="ent0012" data-entity-2="ent0014" data-link-type="dependency" data-source-line="36" id="lnk25"><path codeLine="36" d="M646.7515,137.0543 C658.4415,164.6343 678.3888,211.7456 690.1488,239.4956" fill="none" id="Wrapper-Client" style="stroke:#181818;stroke-width:1;stroke-dasharray:7,7;"/><polygon fill="#181818" points="644.41,131.53,644.2394,141.3774,646.3612,136.1335,651.6051,138.2554,644.41,131.53" style="stroke:#181818;stroke-width:1;"/><polygon fill="#181818" points="692.49,245.02,692.6612,235.1726,690.539,240.4163,685.2953,238.2942,692.49,245.02" style="stroke:#181818;stroke-width:1;"/><text fill="#000000" font-family="sans-serif" font-size="13" lengthAdjust="spacing" textLength="117.7808" x="665" y="174.4569">Send Requests By</text></g><!--link Client to DataModel--><g class="link" data-entity-1="ent0014" data-entity-2="ent0026" data-link-type="dependency" data-source-line="40" id="lnk27"><path codeLine="40" d="M706.15,277.4 C727.44,322.11 787.7202,448.7029 809.1602,493.7229" fill="none" id="Client-to-DataModel" style="stroke:#181818;stroke-width:1;"/><polygon fill="#181818" points="811.74,499.14,811.4817,489.2945,809.5902,494.6258,804.2589,492.7342,811.74,499.14" style="stroke:#181818;stroke-width:1;"/><text fill="#000000" font-family="sans-serif" font-size="13" lengthAdjust="spacing" textLength="61.7056" x="785" y="392.9569">Writes To</text></g><!--reverse link Screens to DataModel--><g class="link" data-entity-1="ent0019" data-entity-2="ent0026" data-link-type="dependency" data-source-line="41" id="lnk28"><path codeLine="41" d="M1058.8741,406.9225 C1005.2441,430.9425 906.47,475.2 852.77,499.26" fill="none" id="Screens-backto-DataModel" style="stroke:#181818;stroke-width:1;"/><polygon fill="#181818" points="1064.35,404.47,1054.5012,404.4982,1059.7868,406.5138,1057.7712,411.7994,1064.35,404.47" style="stroke:#181818;stroke-width:1;"/><text fill="#000000" font-family="sans-serif" font-size="13" lengthAdjust="spacing" textLength="77.5938" x="951" y="465.4569">Reads From</text></g><!--reverse link ClientController to Screens--><g class="link" data-entity-1="ent0015" data-entity-2="ent0019" data-link-type="dependency" data-source-line="42" id="lnk29"><path codeLine="42" d="M895.1835,281.6912 C913.2335,299.3112 940.94,324.14 973,342.39 C998.36,356.83 1029.17,367.98 1053.87,375.58" fill="none" id="ClientController-backto-Screens" style="stroke:#181818;stroke-width:1;"/><polygon fill="#181818" points="890.89,277.5,894.5361,286.6491,894.4679,280.9927,900.1243,280.9245,890.89,277.5" style="stroke:#181818;stroke-width:1;"/><text fill="#000000" font-family="sans-serif" font-size="13" lengthAdjust="spacing" textLength="121.8433" x="974" y="338.4569">Passes Commands</text></g><?plantuml-src RLBBQiCm4BphAvOS3JBq6aAXJUW36bgIXXn23sgqn2Aof4fgImZzzwvZMtRYN6nvPpopiwj2IGGiNJn0YUKd-i2SsEx53c69_WVzdND7jjKYXAPm_6i-Lm7zJ4IH2bEjqCGdOQJkqHwKnhamfDZLNkoEpgmMXD7DYFECdaaI4fIrq9au37_jsLo2UPwDAaj6bhN_sWldJlsajBL-BsrTk0WtjIPwg-jyTUbaip7M2xF_uBTThnqNnbMom7fsZwldrcWkb5ah8-rlCbjkFQ89LNyT2XFEMsGCCnMS5WTuDPKiIyi2xjMkY9j2IOc66ch3ikOz9AJeB9s696euBMoIjtdp94yPbsWaBF3h6qCCS7z8ZfCyRrskqPhGrUBdLgA6AdT3vnJSa7q7ZibHHGpmRbap3PhCYNR6Mg2GTFkyBTbW7xr94lEDt4blQikIhbVu1m00?></g></svg>