<?plantuml 1.2026.2?><svg xmlns="http://www.w3.org/2000/svg" xmlns:xlink="http://www.w3.org/1999/xlink" contentStyleType="text/css" data-diagram-type="CLASS" height="2029px" preserveAspectRatio="none" style="width:1471px;height:2029px;background:#FFFFFF;" version="1.1" viewBox="0 0 1471 2029" width="1471px" zoomAndPan="magnify"><defs/><g><!--cluster Model Layer--><g class="cluster" data-qualified-name="Model Layer" data-source-line="3" id="ent0002"><path d="M358.5,1002 L456.1328,1002 A3.75,3.75 0 0 1 458.6328,1004.5 L465.6328,1024.2969 L1336.5,1024.2969 A2.5,2.5 0 0 1 1339,1026.7969 L1339,2019.5 A2.5,2.5 0 0 1 1336.5,2022 L358.5,2022 A2.5,2.5 0 0 1 356,2019.5 L356,1004.5 A2.5,2.5 0 0 1 358.5,1002" fill="none" style="stroke:#000000;stroke-width:1.5;"/><line style="stroke:#000000;stroke-width:1.5;" x1="356" x2="465.6328" y1="1024.2969" y2="1024.2969"/><text fill="#000000" font-family="sans-serif" font-size="14" font-weight="bold" lengthAdjust="spacing" textLength="96.6328" x="360" y="1016.9951">Model Layer</text></g><!--cluster Server Layer--><g class="cluster" data-qualified-name="Server Layer" data-source-line="81" id="ent0011"><path d="M8.5,644 L110.2754,644 A3.75,3.75 0 0 1 112.7754,646.5 L119.7754,666.2969 L329.5,666.2969 A2.5,2.5 0 0 1 332,668.7969 L332,1196 A2.5,2.5 0 0 1 329.5,1198.5 L8.5,1198.5 A2.5,2.5 0 0 1 6,1196 L6,646.5 A2.5,2.5 0 0 1 8.5,644" fill="none" style="stroke:#000000;stroke-width:1.5;"/><line style="stroke:#000000;stroke-width:1.5;" x1="6" x2="119.7754" y1="666.2969" y2="666.2969"/><text fill="#000000" font-family="sans-serif" font-size="14" font-weight="bold" lengthAdjust="spacing" textLength="100.7754" x="10" y="658.9951">Server Layer</text></g><!--cluster Client Layer--><g class="cluster" data-qualified-name="Client Layer" data-source-line="107" id="ent0014"><path d="M424.5,317 L520.2939,317 A3.75,3.75 0 0 1 522.7939,319.5 L529.7939,339.2969 L885.5,339.2969 A2.5,2.5 0 0 1 888,341.7969 L888,592.5 A2.5,2.5 0 0 1 885.5,595 L424.5,595 A2.5,2.5 0 0 1 422,592.5 L422,319.5 A2.5,2.5 0 0 1 424.5,317" fill="none" style="stroke:#000000;stroke-width:1.5;"/><line style="stroke:#000000;stroke-width:1.5;" x1="422" x2="529.7939" y1="339.2969" y2="339.2969"/><text fill="#000000" font-family="sans-serif" font-size="14" font-weight="bold" lengthAdjust="spacing" textLength="94.7939" x="426" y="331.9951">Client Layer</text></g><!--cluster GUI Layer--><g class="cluster" data-qualified-name="GUI Layer" data-source-line="123" id="ent0016"><path d="M485.5,6 L563.3359,6 A3.75,3.75 0 0 1 565.8359,8.5 L572.8359,28.2969 L824.5,28.2969 A2.5,2.5 0 0 1 827,30.7969 L827,265.5 A2.5,2.5 0 0 1 824.5,268 L485.5,268 A2.5,2.5 0 0 1 483,265.5 L483,8.5 A2.5,2.5 0 0 1 485.5,6" fill="none" style="stroke:#000000;stroke-width:1.5;"/><line style="stroke:#000000;stroke-width:1.5;" x1="483" x2="572.8359" y1="28.2969" y2="28.2969"/><text fill="#000000" font-family="sans-serif" font-size="14" font-weight="bold" lengthAdjust="spacing" textLength="76.8359" x="487" y="20.9951">GUI Layer</text></g><!--class User--><g class="entity" data-qualified-name="Model Layer.User" data-source-line="5" id="ent0003"><rect fill="#F1F1F1" height="227.2656" rx="2.5" ry="2.5" style="stroke:#181818;stroke-width:0.5;" width="311.6055" x="803" y="1589"/><ellipse cx="938.5977" cy="1605" fill="#A9DCDF" rx="11" ry="11" style="stroke:#181818;stroke-width:1;"/><path d="M938.707,1600.3438 L937.5508,1605.4219 L939.8789,1605.4219 L938.707,1600.3438 Z M937.2227,1598.1094 L940.207,1598.1094 L943.5664,1610.5 L941.1133,1610.5 L940.3477,1607.4375 L937.0664,1607.4375 L936.3164,1610.5 L933.8789,1610.5 L937.2227,1598.1094 Z " fill="#000000"/><text fill="#000000" font-family="sans-serif" font-size="14" font-style="italic" lengthAdjust="spacing" textLength="31.9102" x="959.0977" y="1609.8467">User</text><line style="stroke:#181818;stroke-width:0.5;" x1="804" x2="1113.6055" y1="1621" y2="1621"/><text fill="#000000" font-family="sans-serif" font-size="14" lengthAdjust="spacing" textLength="87.1514" x="809" y="1637.9951">#userId : int</text><text fill="#000000" font-family="sans-serif" font-size="14" lengthAdjust="spacing" textLength="137.3682" x="809" y="1654.292">#username : String</text><text fill="#000000" font-family="sans-serif" font-size="14" lengthAdjust="spacing" textLength="133.8408" x="809" y="1670.5889">#password : String</text><text fill="#000000" font-family="sans-serif" font-size="14" lengthAdjust="spacing" textLength="135.2695" x="809" y="1686.8857">#realName : String</text><text fill="#000000" font-family="sans-serif" font-size="14" lengthAdjust="spacing" textLength="122.582" x="809" y="1703.1826">#position : String</text><text fill="#000000" font-family="sans-serif" font-size="14" lengthAdjust="spacing" textLength="157.1445" x="809" y="1719.4795">#isLoggedIn : boolean</text><line style="stroke:#181818;stroke-width:0.5;" x1="804" x2="1113.6055" y1="1726.7813" y2="1726.7813"/><text fill="#000000" font-family="sans-serif" font-size="14" lengthAdjust="spacing" textLength="126.3486" x="809" y="1743.7764">+login() : boolean</text><text fill="#000000" font-family="sans-serif" font-size="14" lengthAdjust="spacing" textLength="110.168" x="809" y="1760.0732">+logout() : void</text><text fill="#000000" font-family="sans-serif" font-size="14" lengthAdjust="spacing" textLength="186.5049" x="809" y="1776.3701">+findUser(q: String) : User</text><text fill="#000000" font-family="sans-serif" font-size="14" lengthAdjust="spacing" textLength="245.0889" x="809" y="1792.667">+sendMessage(m: Message) : void</text><text fill="#000000" font-family="sans-serif" font-size="14" lengthAdjust="spacing" textLength="299.6055" x="809" y="1808.9639">+getConversations() : List&lt;Conversation&gt;</text></g><!--class RegularUser--><g class="entity" data-qualified-name="Model Layer.RegularUser" data-source-line="19" id="ent0004"><rect fill="#F1F1F1" height="113.1875" rx="2.5" ry="2.5" style="stroke:#181818;stroke-width:0.5;" width="285.2256" x="816.5" y="1885"/><ellipse cx="911.7451" cy="1901" fill="#ADD1B2" rx="11" ry="11" style="stroke:#181818;stroke-width:1;"/><path d="M914.7139,1906.6406 Q914.1357,1906.9375 913.4951,1907.0781 Q912.8545,1907.2344 912.1514,1907.2344 Q909.6514,1907.2344 908.3232,1905.5938 Q907.0107,1903.9375 907.0107,1900.8125 Q907.0107,1897.6875 908.3232,1896.0313 Q909.6514,1894.375 912.1514,1894.375 Q912.8545,1894.375 913.4951,1894.5313 Q914.1514,1894.6875 914.7139,1894.9844 L914.7139,1897.7031 Q914.0889,1897.125 913.4951,1896.8594 Q912.9014,1896.5781 912.2764,1896.5781 Q910.9326,1896.5781 910.2451,1897.6563 Q909.5576,1898.7188 909.5576,1900.8125 Q909.5576,1902.9063 910.2451,1903.9844 Q910.9326,1905.0469 912.2764,1905.0469 Q912.9014,1905.0469 913.4951,1904.7813 Q914.0889,1904.5 914.7139,1903.9219 L914.7139,1906.6406 Z " fill="#000000"/><text fill="#000000" font-family="sans-serif" font-size="14" lengthAdjust="spacing" textLength="86.2354" x="932.2451" y="1905.8467">RegularUser</text><line style="stroke:#181818;stroke-width:0.5;" x1="817.5" x2="1100.7256" y1="1917" y2="1917"/><text fill="#000000" font-family="sans-serif" font-size="14" lengthAdjust="spacing" textLength="128.0781" x="822.5" y="1933.9951">-unreadCount : int</text><line style="stroke:#181818;stroke-width:0.5;" x1="817.5" x2="1100.7256" y1="1941.2969" y2="1941.2969"/><text fill="#000000" font-family="sans-serif" font-size="14" lengthAdjust="spacing" textLength="232.3125" x="822.5" y="1958.292">+createGroupChat() : GroupChat</text><text fill="#000000" font-family="sans-serif" font-size="14" lengthAdjust="spacing" textLength="273.2256" x="822.5" y="1974.5889">+leaveGroupChat(g: GroupChat) : void</text><text fill="#000000" font-family="sans-serif" font-size="14" lengthAdjust="spacing" textLength="271.8994" x="822.5" y="1990.8857">+reportMessage(m: Message) : Report</text></g><!--class ITUser--><g class="entity" data-qualified-name="Model Layer.ITUser" data-source-line="26" id="ent0005"><rect fill="#F1F1F1" height="129.4844" rx="2.5" ry="2.5" style="stroke:#181818;stroke-width:0.5;" width="338.2109" x="419" y="1877"/><ellipse cx="561.5601" cy="1893" fill="#ADD1B2" rx="11" ry="11" style="stroke:#181818;stroke-width:1;"/><path d="M564.5288,1898.6406 Q563.9507,1898.9375 563.3101,1899.0781 Q562.6694,1899.2344 561.9663,1899.2344 Q559.4663,1899.2344 558.1382,1897.5938 Q556.8257,1895.9375 556.8257,1892.8125 Q556.8257,1889.6875 558.1382,1888.0313 Q559.4663,1886.375 561.9663,1886.375 Q562.6694,1886.375 563.3101,1886.5313 Q563.9663,1886.6875 564.5288,1886.9844 L564.5288,1889.7031 Q563.9038,1889.125 563.3101,1888.8594 Q562.7163,1888.5781 562.0913,1888.5781 Q560.7476,1888.5781 560.0601,1889.6563 Q559.3726,1890.7188 559.3726,1892.8125 Q559.3726,1894.9063 560.0601,1895.9844 Q560.7476,1897.0469 562.0913,1897.0469 Q562.7163,1897.0469 563.3101,1896.7813 Q563.9038,1896.5 564.5288,1895.9219 L564.5288,1898.6406 Z " fill="#000000"/><text fill="#000000" font-family="sans-serif" font-size="14" lengthAdjust="spacing" textLength="44.5908" x="582.0601" y="1897.8467">ITUser</text><line style="stroke:#181818;stroke-width:0.5;" x1="420" x2="756.2109" y1="1909" y2="1909"/><text fill="#000000" font-family="sans-serif" font-size="14" lengthAdjust="spacing" textLength="117.9883" x="425" y="1925.9951">-adminLevel : int</text><line style="stroke:#181818;stroke-width:0.5;" x1="420" x2="756.2109" y1="1933.2969" y2="1933.2969"/><text fill="#000000" font-family="sans-serif" font-size="14" lengthAdjust="spacing" textLength="201.6123" x="425" y="1950.292">+createUserAccount() : User</text><text fill="#000000" font-family="sans-serif" font-size="14" lengthAdjust="spacing" textLength="201.1338" x="425" y="1966.5889">+editUserInfo(u: User) : void</text><text fill="#000000" font-family="sans-serif" font-size="14" lengthAdjust="spacing" textLength="326.2109" x="425" y="1982.8857">+viewAllConversations() : List&lt;Conversation&gt;</text><text fill="#000000" font-family="sans-serif" font-size="14" lengthAdjust="spacing" textLength="217.8135" x="425" y="1999.1826">+viewReports() : List&lt;Report&gt;</text></g><!--class Conversation--><g class="entity" data-qualified-name="Model Layer.Conversation" data-source-line="34" id="ent0006"><rect fill="#F1F1F1" height="162.0781" rx="2.5" ry="2.5" style="stroke:#181818;stroke-width:0.5;" width="285.499" x="641.5" y="1037"/><ellipse cx="733.7202" cy="1053" fill="#A9DCDF" rx="11" ry="11" style="stroke:#181818;stroke-width:1;"/><path d="M733.8296,1048.3438 L732.6733,1053.4219 L735.0015,1053.4219 L733.8296,1048.3438 Z M732.3452,1046.1094 L735.3296,1046.1094 L738.689,1058.5 L736.2358,1058.5 L735.4702,1055.4375 L732.189,1055.4375 L731.439,1058.5 L729.0015,1058.5 L732.3452,1046.1094 Z " fill="#000000"/><text fill="#000000" font-family="sans-serif" font-size="14" font-style="italic" lengthAdjust="spacing" textLength="92.5586" x="754.2202" y="1057.8467">Conversation</text><line style="stroke:#181818;stroke-width:0.5;" x1="642.5" x2="925.999" y1="1069" y2="1069"/><text fill="#000000" font-family="sans-serif" font-size="14" lengthAdjust="spacing" textLength="140.417" x="647.5" y="1085.9951">-conversationId : int</text><text fill="#000000" font-family="sans-serif" font-size="14" lengthAdjust="spacing" textLength="181.8223" x="647.5" y="1102.292">-participants : List&lt;User&gt;</text><text fill="#000000" font-family="sans-serif" font-size="14" lengthAdjust="spacing" textLength="198.1738" x="647.5" y="1118.5889">-messages : List&lt;Message&gt;</text><text fill="#000000" font-family="sans-serif" font-size="14" lengthAdjust="spacing" textLength="117.585" x="647.5" y="1134.8857">-createdAt : long</text><line style="stroke:#181818;stroke-width:0.5;" x1="642.5" x2="925.999" y1="1142.1875" y2="1142.1875"/><text fill="#000000" font-family="sans-serif" font-size="14" lengthAdjust="spacing" textLength="237.7744" x="647.5" y="1159.1826">+addMessage(m: Message) : void</text><text fill="#000000" font-family="sans-serif" font-size="14" lengthAdjust="spacing" textLength="273.499" x="647.5" y="1175.4795">+getMessages(n: int) : List&lt;Message&gt;</text><text fill="#000000" font-family="sans-serif" font-size="14" lengthAdjust="spacing" textLength="221.9697" x="647.5" y="1191.7764">+getParticipants() : List&lt;User&gt;</text></g><!--class DirectMessage--><g class="entity" data-qualified-name="Model Layer.DirectMessage" data-source-line="44" id="ent0007"><rect fill="#F1F1F1" height="96.8906" rx="2.5" ry="2.5" style="stroke:#181818;stroke-width:0.5;" width="224.7822" x="1097.5" y="1345.5"/><ellipse cx="1153.8486" cy="1361.5" fill="#ADD1B2" rx="11" ry="11" style="stroke:#181818;stroke-width:1;"/><path d="M1156.8174,1367.1406 Q1156.2393,1367.4375 1155.5986,1367.5781 Q1154.958,1367.7344 1154.2549,1367.7344 Q1151.7549,1367.7344 1150.4268,1366.0938 Q1149.1143,1364.4375 1149.1143,1361.3125 Q1149.1143,1358.1875 1150.4268,1356.5313 Q1151.7549,1354.875 1154.2549,1354.875 Q1154.958,1354.875 1155.5986,1355.0313 Q1156.2549,1355.1875 1156.8174,1355.4844 L1156.8174,1358.2031 Q1156.1924,1357.625 1155.5986,1357.3594 Q1155.0049,1357.0781 1154.3799,1357.0781 Q1153.0361,1357.0781 1152.3486,1358.1563 Q1151.6611,1359.2188 1151.6611,1361.3125 Q1151.6611,1363.4063 1152.3486,1364.4844 Q1153.0361,1365.5469 1154.3799,1365.5469 Q1155.0049,1365.5469 1155.5986,1365.2813 Q1156.1924,1365 1156.8174,1364.4219 L1156.8174,1367.1406 Z " fill="#000000"/><text fill="#000000" font-family="sans-serif" font-size="14" lengthAdjust="spacing" textLength="103.585" x="1174.3486" y="1366.3467">DirectMessage</text><line style="stroke:#181818;stroke-width:0.5;" x1="1098.5" x2="1321.2822" y1="1377.5" y2="1377.5"/><text fill="#000000" font-family="sans-serif" font-size="14" lengthAdjust="spacing" textLength="90.6924" x="1103.5" y="1394.4951">-userA : User</text><text fill="#000000" font-family="sans-serif" font-size="14" lengthAdjust="spacing" textLength="90.7197" x="1103.5" y="1410.792">-userB : User</text><line style="stroke:#181818;stroke-width:0.5;" x1="1098.5" x2="1321.2822" y1="1418.0938" y2="1418.0938"/><text fill="#000000" font-family="sans-serif" font-size="14" lengthAdjust="spacing" textLength="212.7822" x="1103.5" y="1435.0889">+getOtherUser(u: User) : User</text></g><!--class GroupChat--><g class="entity" data-qualified-name="Model Layer.GroupChat" data-source-line="50" id="ent0008"><rect fill="#F1F1F1" height="113.1875" rx="2.5" ry="2.5" style="stroke:#181818;stroke-width:0.5;" width="256.8906" x="655.5" y="1337.5"/><ellipse cx="741.8721" cy="1353.5" fill="#ADD1B2" rx="11" ry="11" style="stroke:#181818;stroke-width:1;"/><path d="M744.8408,1359.1406 Q744.2627,1359.4375 743.6221,1359.5781 Q742.9814,1359.7344 742.2783,1359.7344 Q739.7783,1359.7344 738.4502,1358.0938 Q737.1377,1356.4375 737.1377,1353.3125 Q737.1377,1350.1875 738.4502,1348.5313 Q739.7783,1346.875 742.2783,1346.875 Q742.9814,1346.875 743.6221,1347.0313 Q744.2783,1347.1875 744.8408,1347.4844 L744.8408,1350.2031 Q744.2158,1349.625 743.6221,1349.3594 Q743.0283,1349.0781 742.4033,1349.0781 Q741.0596,1349.0781 740.3721,1350.1563 Q739.6846,1351.2188 739.6846,1353.3125 Q739.6846,1355.4063 740.3721,1356.4844 Q741.0596,1357.5469 742.4033,1357.5469 Q743.0283,1357.5469 743.6221,1357.2813 Q744.2158,1357 744.8408,1356.4219 L744.8408,1359.1406 Z " fill="#000000"/><text fill="#000000" font-family="sans-serif" font-size="14" lengthAdjust="spacing" textLength="75.6465" x="762.3721" y="1358.3467">GroupChat</text><line style="stroke:#181818;stroke-width:0.5;" x1="656.5" x2="911.3906" y1="1369.5" y2="1369.5"/><text fill="#000000" font-family="sans-serif" font-size="14" lengthAdjust="spacing" textLength="142.7207" x="661.5" y="1386.4951">-groupName : String</text><text fill="#000000" font-family="sans-serif" font-size="14" lengthAdjust="spacing" textLength="101.0352" x="661.5" y="1402.792">-creator : User</text><line style="stroke:#181818;stroke-width:0.5;" x1="656.5" x2="911.3906" y1="1410.0938" y2="1410.0938"/><text fill="#000000" font-family="sans-serif" font-size="14" lengthAdjust="spacing" textLength="217.7725" x="661.5" y="1427.0889">+addParticipant(u: User) : void</text><text fill="#000000" font-family="sans-serif" font-size="14" lengthAdjust="spacing" textLength="244.8906" x="661.5" y="1443.3857">+removeParticipant(u: User) : void</text></g><!--class Message--><g class="entity" data-qualified-name="Model Layer.Message" data-source-line="57" id="ent0009"><rect fill="#F1F1F1" height="235.5313" rx="2.5" ry="2.5" style="stroke:#181818;stroke-width:0.5;" width="211.0557" x="409.5" y="1276"/><ellipse cx="473.0161" cy="1296.1328" fill="#ADD1B2" rx="11" ry="11" style="stroke:#181818;stroke-width:1;"/><path d="M475.9849,1301.7734 Q475.4067,1302.0703 474.7661,1302.2109 Q474.1255,1302.3672 473.4224,1302.3672 Q470.9224,1302.3672 469.5942,1300.7266 Q468.2817,1299.0703 468.2817,1295.9453 Q468.2817,1292.8203 469.5942,1291.1641 Q470.9224,1289.5078 473.4224,1289.5078 Q474.1255,1289.5078 474.7661,1289.6641 Q475.4224,1289.8203 475.9849,1290.1172 L475.9849,1292.8359 Q475.3599,1292.2578 474.7661,1291.9922 Q474.1724,1291.7109 473.5474,1291.7109 Q472.2036,1291.7109 471.5161,1292.7891 Q470.8286,1293.8516 470.8286,1295.9453 Q470.8286,1298.0391 471.5161,1299.1172 Q472.2036,1300.1797 473.5474,1300.1797 Q474.1724,1300.1797 474.7661,1299.9141 Q475.3599,1299.6328 475.9849,1299.0547 L475.9849,1301.7734 Z " fill="#000000"/><text fill="#000000" font-family="sans-serif" font-size="12" font-style="italic" lengthAdjust="spacing" textLength="79.5234" x="491.5161" y="1292.1387">&#171;immutable&#187;</text><text fill="#000000" font-family="sans-serif" font-size="14" lengthAdjust="spacing" textLength="61.3594" x="500.5981" y="1307.9639">Message</text><line style="stroke:#181818;stroke-width:0.5;" x1="410.5" x2="619.5557" y1="1316.2656" y2="1316.2656"/><text fill="#000000" font-family="sans-serif" font-size="14" lengthAdjust="spacing" textLength="112.8545" x="415.5" y="1333.2607">-messageId : int</text><text fill="#000000" font-family="sans-serif" font-size="14" lengthAdjust="spacing" textLength="88.3271" x="415.5" y="1349.5576">-text : String</text><text fill="#000000" font-family="sans-serif" font-size="14" lengthAdjust="spacing" textLength="124.4004" x="415.5" y="1365.8545">-timestamp : long</text><text fill="#000000" font-family="sans-serif" font-size="14" lengthAdjust="spacing" textLength="98.6152" x="415.5" y="1382.1514">-sender : User</text><text fill="#000000" font-family="sans-serif" font-size="14" lengthAdjust="spacing" textLength="140.417" x="415.5" y="1398.4482">-conversationId : int</text><text fill="#000000" font-family="sans-serif" font-size="14" lengthAdjust="spacing" textLength="121.6318" x="415.5" y="1414.7451">-isRead : boolean</text><text fill="#000000" font-family="sans-serif" font-size="14" lengthAdjust="spacing" textLength="199.0557" x="415.5" y="1431.042">-encoding : String = "UTF-8"</text><line style="stroke:#181818;stroke-width:0.5;" x1="410.5" x2="619.5557" y1="1438.3438" y2="1438.3438"/><text fill="#000000" font-family="sans-serif" font-size="14" lengthAdjust="spacing" textLength="131.9814" x="415.5" y="1455.3389">+getText() : String</text><text fill="#000000" font-family="sans-serif" font-size="14" lengthAdjust="spacing" textLength="168.0547" x="415.5" y="1471.6357">+getTimestamp() : long</text><text fill="#000000" font-family="sans-serif" font-size="14" lengthAdjust="spacing" textLength="154.6563" x="415.5" y="1487.9326">+markAsRead() : void</text><text fill="#000000" font-family="sans-serif" font-size="14" lengthAdjust="spacing" textLength="135.9258" x="415.5" y="1504.2295">+serialize() : String</text></g><!--class Report--><g class="entity" data-qualified-name="Model Layer.Report" data-source-line="71" id="ent0010"><rect fill="#F1F1F1" height="145.7813" rx="2.5" ry="2.5" style="stroke:#181818;stroke-width:0.5;" width="213.9541" x="382" y="1045"/><ellipse cx="461.208" cy="1061" fill="#ADD1B2" rx="11" ry="11" style="stroke:#181818;stroke-width:1;"/><path d="M464.1768,1066.6406 Q463.5986,1066.9375 462.958,1067.0781 Q462.3174,1067.2344 461.6143,1067.2344 Q459.1143,1067.2344 457.7861,1065.5938 Q456.4736,1063.9375 456.4736,1060.8125 Q456.4736,1057.6875 457.7861,1056.0313 Q459.1143,1054.375 461.6143,1054.375 Q462.3174,1054.375 462.958,1054.5313 Q463.6143,1054.6875 464.1768,1054.9844 L464.1768,1057.7031 Q463.5518,1057.125 462.958,1056.8594 Q462.3643,1056.5781 461.7393,1056.5781 Q460.3955,1056.5781 459.708,1057.6563 Q459.0205,1058.7188 459.0205,1060.8125 Q459.0205,1062.9063 459.708,1063.9844 Q460.3955,1065.0469 461.7393,1065.0469 Q462.3643,1065.0469 462.958,1064.7813 Q463.5518,1064.5 464.1768,1063.9219 L464.1768,1066.6406 Z " fill="#000000"/><text fill="#000000" font-family="sans-serif" font-size="14" lengthAdjust="spacing" textLength="47.0381" x="481.708" y="1065.8467">Report</text><line style="stroke:#181818;stroke-width:0.5;" x1="383" x2="594.9541" y1="1077" y2="1077"/><text fill="#000000" font-family="sans-serif" font-size="14" lengthAdjust="spacing" textLength="93.0029" x="388" y="1093.9951">-reportId : int</text><text fill="#000000" font-family="sans-serif" font-size="14" lengthAdjust="spacing" textLength="201.9541" x="388" y="1110.292">-reportedMessage : Message</text><text fill="#000000" font-family="sans-serif" font-size="14" lengthAdjust="spacing" textLength="129.0352" x="388" y="1126.5889">-reportedBy : User</text><text fill="#000000" font-family="sans-serif" font-size="14" lengthAdjust="spacing" textLength="110.6465" x="388" y="1142.8857">-sentTo : ITUser</text><text fill="#000000" font-family="sans-serif" font-size="14" lengthAdjust="spacing" textLength="124.4004" x="388" y="1159.1826">-timestamp : long</text><line style="stroke:#181818;stroke-width:0.5;" x1="383" x2="594.9541" y1="1166.4844" y2="1166.4844"/><text fill="#000000" font-family="sans-serif" font-size="14" lengthAdjust="spacing" textLength="149.5771" x="388" y="1183.4795">+getDetails() : String</text></g><!--class Server--><g class="entity" data-qualified-name="Server Layer.Server" data-source-line="82" id="ent0012"><rect fill="#F1F1F1" height="259.8594" rx="2.5" ry="2.5" style="stroke:#181818;stroke-width:0.5;" width="293.1553" x="22.5" y="679"/><ellipse cx="141.8726" cy="695" fill="#ADD1B2" rx="11" ry="11" style="stroke:#181818;stroke-width:1;"/><path d="M144.8413,700.6406 Q144.2632,700.9375 143.6226,701.0781 Q142.9819,701.2344 142.2788,701.2344 Q139.7788,701.2344 138.4507,699.5938 Q137.1382,697.9375 137.1382,694.8125 Q137.1382,691.6875 138.4507,690.0313 Q139.7788,688.375 142.2788,688.375 Q142.9819,688.375 143.6226,688.5313 Q144.2788,688.6875 144.8413,688.9844 L144.8413,691.7031 Q144.2163,691.125 143.6226,690.8594 Q143.0288,690.5781 142.4038,690.5781 Q141.0601,690.5781 140.3726,691.6563 Q139.6851,692.7188 139.6851,694.8125 Q139.6851,696.9063 140.3726,697.9844 Q141.0601,699.0469 142.4038,699.0469 Q143.0288,699.0469 143.6226,698.7813 Q144.2163,698.5 144.8413,697.9219 L144.8413,700.6406 Z " fill="#000000"/><text fill="#000000" font-family="sans-serif" font-size="14" lengthAdjust="spacing" textLength="45.9102" x="162.3726" y="699.8467">Server</text><line style="stroke:#181818;stroke-width:0.5;" x1="23.5" x2="314.6553" y1="711" y2="711"/><text fill="#000000" font-family="sans-serif" font-size="14" lengthAdjust="spacing" textLength="139.8291" x="28.5" y="727.9951">-PORT : int = 54927</text><text fill="#000000" font-family="sans-serif" font-size="14" lengthAdjust="spacing" textLength="228.2656" x="28.5" y="744.292">-connectedClients : List&lt;Client&gt;</text><text fill="#000000" font-family="sans-serif" font-size="14" lengthAdjust="spacing" textLength="256.9355" x="28.5" y="760.5889">-conversations : List&lt;Conversation&gt;</text><text fill="#000000" font-family="sans-serif" font-size="14" lengthAdjust="spacing" textLength="136.3428" x="28.5" y="776.8857">-users : List&lt;User&gt;</text><text fill="#000000" font-family="sans-serif" font-size="14" lengthAdjust="spacing" textLength="143.8213" x="28.5" y="793.1826">-isRunning : boolean</text><line style="stroke:#181818;stroke-width:0.5;" x1="23.5" x2="314.6553" y1="800.4844" y2="800.4844"/><text fill="#000000" font-family="sans-serif" font-size="14" lengthAdjust="spacing" textLength="98.5059" x="28.5" y="817.4795">+start() : void</text><text fill="#000000" font-family="sans-serif" font-size="14" lengthAdjust="spacing" textLength="96.1338" x="28.5" y="833.7764">+stop() : void</text><text fill="#000000" font-family="sans-serif" font-size="14" lengthAdjust="spacing" textLength="153.3916" x="28.5" y="850.0732">+acceptClient() : void</text><text fill="#000000" font-family="sans-serif" font-size="14" lengthAdjust="spacing" textLength="281.1553" x="28.5" y="866.3701">+broadcastMessage(m: Message) : void</text><text fill="#000000" font-family="sans-serif" font-size="14" lengthAdjust="spacing" textLength="208.6738" x="28.5" y="882.667">+getData(req: String) : String</text><text fill="#000000" font-family="sans-serif" font-size="14" lengthAdjust="spacing" textLength="132.0977" x="28.5" y="898.9639">+saveData() : void</text><text fill="#000000" font-family="sans-serif" font-size="14" lengthAdjust="spacing" textLength="150.3564" x="28.5" y="915.2607">+backupData() : void</text><text fill="#000000" font-family="sans-serif" font-size="14" lengthAdjust="spacing" textLength="163.5703" x="28.5" y="931.5576">+loadFromFiles() : void</text></g><!--class Log--><g class="entity" data-qualified-name="Server Layer.Log" data-source-line="98" id="ent0013"><rect fill="#F1F1F1" height="129.4844" rx="2.5" ry="2.5" style="stroke:#181818;stroke-width:0.5;" width="232.8281" x="52.5" y="1053.5"/><ellipse cx="152.0381" cy="1069.5" fill="#ADD1B2" rx="11" ry="11" style="stroke:#181818;stroke-width:1;"/><path d="M155.0068,1075.1406 Q154.4287,1075.4375 153.7881,1075.5781 Q153.1475,1075.7344 152.4443,1075.7344 Q149.9443,1075.7344 148.6162,1074.0938 Q147.3037,1072.4375 147.3037,1069.3125 Q147.3037,1066.1875 148.6162,1064.5313 Q149.9443,1062.875 152.4443,1062.875 Q153.1475,1062.875 153.7881,1063.0313 Q154.4443,1063.1875 155.0068,1063.4844 L155.0068,1066.2031 Q154.3818,1065.625 153.7881,1065.3594 Q153.1943,1065.0781 152.5693,1065.0781 Q151.2256,1065.0781 150.5381,1066.1563 Q149.8506,1067.2188 149.8506,1069.3125 Q149.8506,1071.4063 150.5381,1072.4844 Q151.2256,1073.5469 152.5693,1073.5469 Q153.1943,1073.5469 153.7881,1073.2813 Q154.3818,1073 155.0068,1072.4219 L155.0068,1075.1406 Z " fill="#000000"/><text fill="#000000" font-family="sans-serif" font-size="14" lengthAdjust="spacing" textLength="25.252" x="172.5381" y="1074.3467">Log</text><line style="stroke:#181818;stroke-width:0.5;" x1="53.5" x2="284.3281" y1="1085.5" y2="1085.5"/><text fill="#000000" font-family="sans-serif" font-size="14" lengthAdjust="spacing" textLength="113.1553" x="58.5" y="1102.4951">-filePath : String</text><text fill="#000000" font-family="sans-serif" font-size="14" lengthAdjust="spacing" textLength="116.1289" x="58.5" y="1118.792">-logType : String</text><line style="stroke:#181818;stroke-width:0.5;" x1="53.5" x2="284.3281" y1="1126.0938" y2="1126.0938"/><text fill="#000000" font-family="sans-serif" font-size="14" lengthAdjust="spacing" textLength="220.8281" x="58.5" y="1143.0889">+writeEntry(data: String) : void</text><text fill="#000000" font-family="sans-serif" font-size="14" lengthAdjust="spacing" textLength="127.2441" x="58.5" y="1159.3857">+readAll() : String</text><text fill="#000000" font-family="sans-serif" font-size="14" lengthAdjust="spacing" textLength="116.9287" x="58.5" y="1175.6826">+backup() : void</text></g><!--class Client--><g class="entity" data-qualified-name="Client Layer.Client" data-source-line="108" id="ent0015"><rect fill="#F1F1F1" height="227.2656" rx="2.5" ry="2.5" style="stroke:#181818;stroke-width:0.5;" width="434.3584" x="438" y="352"/><ellipse cx="630.6641" cy="368" fill="#ADD1B2" rx="11" ry="11" style="stroke:#181818;stroke-width:1;"/><path d="M633.6328,373.6406 Q633.0547,373.9375 632.4141,374.0781 Q631.7734,374.2344 631.0703,374.2344 Q628.5703,374.2344 627.2422,372.5938 Q625.9297,370.9375 625.9297,367.8125 Q625.9297,364.6875 627.2422,363.0313 Q628.5703,361.375 631.0703,361.375 Q631.7734,361.375 632.4141,361.5313 Q633.0703,361.6875 633.6328,361.9844 L633.6328,364.7031 Q633.0078,364.125 632.4141,363.8594 Q631.8203,363.5781 631.1953,363.5781 Q629.8516,363.5781 629.1641,364.6563 Q628.4766,365.7188 628.4766,367.8125 Q628.4766,369.9063 629.1641,370.9844 Q629.8516,372.0469 631.1953,372.0469 Q631.8203,372.0469 632.4141,371.7813 Q633.0078,371.5 633.6328,370.9219 L633.6328,373.6406 Z " fill="#000000"/><text fill="#000000" font-family="sans-serif" font-size="14" lengthAdjust="spacing" textLength="40.5303" x="651.1641" y="372.8467">Client</text><line style="stroke:#181818;stroke-width:0.5;" x1="439" x2="871.3584" y1="384" y2="384"/><text fill="#000000" font-family="sans-serif" font-size="14" lengthAdjust="spacing" textLength="161.0752" x="444" y="400.9951">-serverAddress : String</text><text fill="#000000" font-family="sans-serif" font-size="14" lengthAdjust="spacing" textLength="109.4912" x="444" y="417.292">-serverPort : int</text><text fill="#000000" font-family="sans-serif" font-size="14" lengthAdjust="spacing" textLength="143.2197" x="444" y="433.5889">-loggedInUser : User</text><text fill="#000000" font-family="sans-serif" font-size="14" lengthAdjust="spacing" textLength="161.2119" x="444" y="449.8857">-isConnected : boolean</text><text fill="#000000" font-family="sans-serif" font-size="14" lengthAdjust="spacing" textLength="210.123" x="444" y="466.1826">-connectionTimeout : int = 30</text><line style="stroke:#181818;stroke-width:0.5;" x1="439" x2="871.3584" y1="473.4844" y2="473.4844"/><text fill="#000000" font-family="sans-serif" font-size="14" lengthAdjust="spacing" textLength="148.0527" x="444" y="490.4795">+connect() : boolean</text><text fill="#000000" font-family="sans-serif" font-size="14" lengthAdjust="spacing" textLength="141.7773" x="444" y="506.7764">+disconnect() : void</text><text fill="#000000" font-family="sans-serif" font-size="14" lengthAdjust="spacing" textLength="245.0889" x="444" y="523.0732">+sendMessage(m: Message) : void</text><text fill="#000000" font-family="sans-serif" font-size="14" lengthAdjust="spacing" textLength="422.3584" x="444" y="539.3701">+requestMessages(c: Conversation, n: int) : List&lt;Message&gt;</text><text fill="#000000" font-family="sans-serif" font-size="14" lengthAdjust="spacing" textLength="309.8594" x="444" y="555.667">+authenticate(u: String, p: String) : boolean</text><text fill="#000000" font-family="sans-serif" font-size="14" lengthAdjust="spacing" textLength="162.9482" x="444" y="571.9639">+receiveData() : String</text></g><!--class GUIModule--><g class="entity" data-qualified-name="GUI Layer.GUIModule" data-source-line="124" id="ent0017"><rect fill="#F1F1F1" height="210.9688" rx="2.5" ry="2.5" style="stroke:#181818;stroke-width:0.5;" width="311.5781" x="499" y="41"/><ellipse cx="612.4731" cy="57" fill="#ADD1B2" rx="11" ry="11" style="stroke:#181818;stroke-width:1;"/><path d="M615.4419,62.6406 Q614.8638,62.9375 614.2231,63.0781 Q613.5825,63.2344 612.8794,63.2344 Q610.3794,63.2344 609.0513,61.5938 Q607.7388,59.9375 607.7388,56.8125 Q607.7388,53.6875 609.0513,52.0313 Q610.3794,50.375 612.8794,50.375 Q613.5825,50.375 614.2231,50.5313 Q614.8794,50.6875 615.4419,50.9844 L615.4419,53.7031 Q614.8169,53.125 614.2231,52.8594 Q613.6294,52.5781 613.0044,52.5781 Q611.6606,52.5781 610.9731,53.6563 Q610.2856,54.7188 610.2856,56.8125 Q610.2856,58.9063 610.9731,59.9844 Q611.6606,61.0469 613.0044,61.0469 Q613.6294,61.0469 614.2231,60.7813 Q614.8169,60.5 615.4419,59.9219 L615.4419,62.6406 Z " fill="#000000"/><text fill="#000000" font-family="sans-serif" font-size="14" lengthAdjust="spacing" textLength="76.1318" x="632.9731" y="61.8467">GUIModule</text><line style="stroke:#181818;stroke-width:0.5;" x1="500" x2="809.5781" y1="73" y2="73"/><text fill="#000000" font-family="sans-serif" font-size="14" lengthAdjust="spacing" textLength="145.0381" x="505" y="89.9951">-currentView : String</text><text fill="#000000" font-family="sans-serif" font-size="14" lengthAdjust="spacing" textLength="97.6514" x="505" y="106.292">-client : Client</text><line style="stroke:#181818;stroke-width:0.5;" x1="500" x2="809.5781" y1="113.5938" y2="113.5938"/><text fill="#000000" font-family="sans-serif" font-size="14" lengthAdjust="spacing" textLength="188.5352" x="505" y="130.5889">+showLoginScreen() : void</text><text fill="#000000" font-family="sans-serif" font-size="14" lengthAdjust="spacing" textLength="201.9336" x="505" y="146.8857">+showConversations() : void</text><text fill="#000000" font-family="sans-serif" font-size="14" lengthAdjust="spacing" textLength="280.1572" x="505" y="163.1826">+showMessages(c: Conversation) : void</text><text fill="#000000" font-family="sans-serif" font-size="14" lengthAdjust="spacing" textLength="174.4258" x="505" y="179.4795">+showSearchBar() : void</text><text fill="#000000" font-family="sans-serif" font-size="14" lengthAdjust="spacing" textLength="266.3076" x="505" y="195.7764">+notifyUnread(c: Conversation) : void</text><text fill="#000000" font-family="sans-serif" font-size="14" lengthAdjust="spacing" textLength="299.5781" x="505" y="212.0732">+markConvAsRead(c: Conversation) : void</text><text fill="#000000" font-family="sans-serif" font-size="14" lengthAdjust="spacing" textLength="210.4375" x="505" y="228.3701">+showUserInfo(u: User) : void</text><text fill="#000000" font-family="sans-serif" font-size="14" lengthAdjust="spacing" textLength="182.7998" x="505" y="244.667">+displayInputText() : void</text></g><!--reverse link User to RegularUser--><g class="link" data-entity-1="ent0003" data-entity-2="ent0004" data-link-type="extension" data-source-line="138" id="lnk18"><path codeLine="138" d="M959,1834.1 C959,1857.99 959,1864.19 959,1884.83" fill="none" id="User-backto-RegularUser" style="stroke:#181818;stroke-width:1;"/><polygon fill="none" points="959,1816.1,953,1834.1,965,1834.1,959,1816.1" style="stroke:#181818;stroke-width:1;"/></g><!--reverse link User to ITUser--><g class="link" data-entity-1="ent0003" data-entity-2="ent0005" data-link-type="extension" data-source-line="139" id="lnk19"><path codeLine="139" d="M787.5709,1813.0102 C748.5609,1837.9302 722.94,1854.3 687.53,1876.92" fill="none" id="User-backto-ITUser" style="stroke:#181818;stroke-width:1;"/><polygon fill="none" points="802.74,1803.32,784.3409,1807.9538,790.801,1818.0665,802.74,1803.32" style="stroke:#181818;stroke-width:1;"/></g><!--reverse link Conversation to DirectMessage--><g class="link" data-entity-1="ent0006" data-entity-2="ent0007" data-link-type="extension" data-source-line="140" id="lnk20"><path codeLine="140" d="M942.3849,1197.2533 C989.4949,1222.5033 1025.37,1244.19 1070,1276 C1099.92,1297.33 1131.47,1323.35 1157.03,1345.43" fill="none" id="Conversation-backto-DirectMessage" style="stroke:#181818;stroke-width:1;"/><polygon fill="none" points="926.52,1188.75,939.5505,1202.5416,945.2193,1191.965,926.52,1188.75" style="stroke:#181818;stroke-width:1;"/></g><!--reverse link Conversation to GroupChat--><g class="link" data-entity-1="ent0006" data-entity-2="ent0008" data-link-type="extension" data-source-line="141" id="lnk21"><path codeLine="141" d="M784,1217.36 C784,1261.73 784,1297.72 784,1337.41" fill="none" id="Conversation-backto-GroupChat" style="stroke:#181818;stroke-width:1;"/><polygon fill="none" points="784,1199.36,778,1217.36,790,1217.36,784,1199.36" style="stroke:#181818;stroke-width:1;"/></g><!--reverse link Server to Conversation--><g class="link" data-entity-1="ent0012" data-entity-2="ent0006" data-link-type="composition" data-source-line="143" id="lnk22"><path codeLine="143" d="M326.7838,864.8625 C415.5538,897.9625 518.47,940.66 614,994 C636.58,1006.61 659.72,1021.68 681.36,1036.89" fill="none" id="Server-backto-Conversation" style="stroke:#181818;stroke-width:1;"/><polygon fill="#181818" points="315.54,860.67,319.7644,866.5142,326.7838,864.8625,322.5594,859.0183,315.54,860.67" style="stroke:#181818;stroke-width:1;"/><text fill="#000000" font-family="sans-serif" font-size="13" lengthAdjust="spacing" textLength="39.9395" x="592" y="982.0669">stores</text><text fill="#000000" font-family="sans-serif" font-size="13" lengthAdjust="spacing" textLength="8.271" x="323.7758" y="860.1599">1</text><text fill="#000000" font-family="sans-serif" font-size="13" lengthAdjust="spacing" textLength="23.0356" x="648.1738" y="1026.0675">1..*</text></g><!--reverse link Conversation to Message--><g class="link" data-entity-1="ent0006" data-entity-2="ent0009" data-link-type="composition" data-source-line="144" id="lnk23"><path codeLine="144" d="M696.703,1207.9229 C670.273,1234.8429 648.77,1256.75 620.63,1285.41" fill="none" id="Conversation-backto-Message" style="stroke:#181818;stroke-width:1;"/><polygon fill="#181818" points="705.11,1199.36,698.0522,1200.8391,696.703,1207.9229,703.7608,1206.4438,705.11,1199.36" style="stroke:#181818;stroke-width:1;"/><text fill="#000000" font-family="sans-serif" font-size="13" lengthAdjust="spacing" textLength="55.0278" x="674" y="1242.0669">contains</text><text fill="#000000" font-family="sans-serif" font-size="13" lengthAdjust="spacing" textLength="8.271" x="689.9768" y="1219.0657">1</text><text fill="#000000" font-family="sans-serif" font-size="13" lengthAdjust="spacing" textLength="23.0356" x="628.499" y="1274.6973">1..*</text></g><!--reverse link Server to Log--><g class="link" data-entity-1="ent0012" data-entity-2="ent0013" data-link-type="composition" data-source-line="145" id="lnk24"><path codeLine="145" d="M169,951.31 C169,990.63 169,1020.14 169,1053.13" fill="none" id="Server-backto-Log" style="stroke:#181818;stroke-width:1;"/><polygon fill="#181818" points="169,939.31,165,945.31,169,951.31,173,945.31,169,939.31" style="stroke:#181818;stroke-width:1;"/><text fill="#000000" font-family="sans-serif" font-size="13" lengthAdjust="spacing" textLength="56.6401" x="170" y="982.0669">writes to</text><text fill="#000000" font-family="sans-serif" font-size="13" lengthAdjust="spacing" textLength="8.271" x="160.7844" y="958.9209">1</text><text fill="#000000" font-family="sans-serif" font-size="13" lengthAdjust="spacing" textLength="23.0356" x="144.7535" y="1042.2622">1..*</text></g><!--reverse link Conversation to User--><g class="link" data-entity-1="ent0006" data-entity-2="ent0003" data-link-type="aggregation" data-source-line="147" id="lnk25"><path codeLine="147" d="M885.9452,1208.0382 C906.6352,1230.6782 917.87,1247.99 930,1276 C973.02,1375.37 976.35,1500.08 971.3,1588.73" fill="none" id="Conversation-backto-User" style="stroke:#181818;stroke-width:1;"/><polygon fill="none" points="877.85,1199.18,878.9449,1206.3075,885.9452,1208.0382,884.8503,1200.9107,877.85,1199.18" style="stroke:#181818;stroke-width:1;"/><text fill="#000000" font-family="sans-serif" font-size="13" lengthAdjust="spacing" textLength="77.3589" x="973" y="1398.5669">participants</text><text fill="#000000" font-family="sans-serif" font-size="13" lengthAdjust="spacing" textLength="8.271" x="877.8421" y="1219.1474">1</text><text fill="#000000" font-family="sans-serif" font-size="13" lengthAdjust="spacing" textLength="23.0356" x="948.365" y="1578.0238">2..*</text></g><!--link Message to User--><g class="link" data-entity-1="ent0009" data-entity-2="ent0003" data-link-type="dependency" data-source-line="149" id="lnk26"><path codeLine="149" d="M620.7,1498.31 C626.45,1503.06 632.24,1507.65 638,1512 C689.25,1550.71 743.8179,1584.9004 797.7779,1615.9104" fill="none" id="Message-to-User" style="stroke:#181818;stroke-width:1;"/><polygon fill="#181818" points="802.98,1618.9,797.1698,1610.9475,798.6449,1616.4087,793.1837,1617.8837,802.98,1618.9" style="stroke:#181818;stroke-width:1;"/><text fill="#000000" font-family="sans-serif" font-size="13" lengthAdjust="spacing" textLength="44.605" x="705" y="1555.0669">sender</text><text fill="#000000" font-family="sans-serif" font-size="13" lengthAdjust="spacing" textLength="8.271" x="628.4209" y="1502.205">1</text><text fill="#000000" font-family="sans-serif" font-size="13" lengthAdjust="spacing" textLength="8.271" x="786.7461" y="1611.2661">1</text></g><!--link Client to User--><g class="link" data-entity-1="ent0015" data-entity-2="ent0003" data-link-type="dependency" data-source-line="150" id="lnk27"><path codeLine="150" d="M872.3,479.7 C1084.59,505.76 1376,582.58 1376,808 C1376,808 1376,808 1376,1395 C1376,1449.41 1375.21,1470.52 1340,1512 C1281.79,1580.57 1198.3735,1624.635 1121.0235,1654.245" fill="none" id="Client-to-User" style="stroke:#181818;stroke-width:1;"/><polygon fill="#181818" points="1115.42,1656.39,1125.2552,1656.9081,1120.0896,1654.6025,1122.3952,1649.4368,1115.42,1656.39" style="stroke:#181818;stroke-width:1;"/><text fill="#000000" font-family="sans-serif" font-size="13" lengthAdjust="spacing" textLength="86.0234" x="1377" y="1122.5669">loggedInUser</text></g><!--link Report to Message--><g class="link" data-entity-1="ent0010" data-entity-2="ent0009" data-link-type="dependency" data-source-line="151" id="lnk28"><path codeLine="151" d="M495.87,1191.35 C498.33,1217.27 500.6047,1241.2267 503.3247,1269.9667" fill="none" id="Report-to-Message" style="stroke:#181818;stroke-width:1;"/><polygon fill="#181818" points="503.89,1275.94,507.0242,1266.6032,503.4189,1270.9622,499.0598,1267.3569,503.89,1275.94" style="stroke:#181818;stroke-width:1;"/><text fill="#000000" font-family="sans-serif" font-size="13" lengthAdjust="spacing" textLength="69.418" x="501" y="1242.0669">references</text></g><!--link Report to ITUser--><g class="link" data-entity-1="ent0010" data-entity-2="ent0005" data-link-type="dependency" data-source-line="152" id="lnk29"><path codeLine="152" d="M432.79,1191.26 C416.31,1216.63 400.45,1246.26 392,1276 C363.34,1376.9 369.67,1409.51 392,1512 C421.95,1649.48 497.071,1790.4883 545.151,1871.6183" fill="none" id="Report-to-ITUser" style="stroke:#181818;stroke-width:1;"/><polygon fill="#181818" points="548.21,1876.78,547.0627,1866.9982,545.6609,1872.4786,540.1805,1871.0768,548.21,1876.78" style="stroke:#181818;stroke-width:1;"/><text fill="#000000" font-family="sans-serif" font-size="13" lengthAdjust="spacing" textLength="44.002" x="404" y="1555.0669">sentTo</text></g><!--link GUIModule to Client--><g class="link" data-entity-1="ent0017" data-entity-2="ent0015" data-link-type="dependency" data-source-line="154" id="lnk30"><path codeLine="154" d="M655,252.18 C655,284.1 655,313.32 655,345.75" fill="none" id="GUIModule-to-Client" style="stroke:#181818;stroke-width:1;stroke-dasharray:7,7;"/><polygon fill="#181818" points="655,351.75,659,342.75,655,346.75,651,342.75,655,351.75" style="stroke:#181818;stroke-width:1;"/><text fill="#000000" font-family="sans-serif" font-size="13" lengthAdjust="spacing" textLength="29.7832" x="656" y="297.0669">uses</text></g><!--link Client to Server--><g class="link" data-entity-1="ent0015" data-entity-2="ent0012" data-link-type="dependency" data-source-line="155" id="lnk31"><path codeLine="155" d="M494.86,579.03 C437.05,619.65 377.0491,661.8103 320.4691,701.5703" fill="none" id="Client-to-Server" style="stroke:#181818;stroke-width:1;stroke-dasharray:7,7;"/><polygon fill="#181818" points="315.56,705.02,325.2235,703.1181,319.6509,702.1452,320.6238,696.5727,315.56,705.02" style="stroke:#181818;stroke-width:1;"/><text fill="#000000" font-family="sans-serif" font-size="13" lengthAdjust="spacing" textLength="40.9106" x="449" y="624.0669">TCP/IP</text></g><?plantuml-src ZLRVRzis47xNNq5uBsvJPsstOPkH6N2SfJ3WhaRix9sMpWuHYTH8ogdNzN_VKQGaafAJz2NrtObtzzrtFzGZuoMLj21fJfMQQotPhjAmJ0NVi7-1l4-IagQFz01az5baa9CLFO4SaMz9GWZTAIrfgktNv5w1H0N1Vp-G2dyiCp8bZ6jFn6a1ADoW8tvmyX8_VX8oY-KIQFxNaBrGJ3F1OpbJAt4uGBOqcfqGEL1Ugov8BWwCZzyCoKMbQyLHiCn9zund9fdnFuq7Os0apa01ppw3KeZBk9WIzz_ebGFeXU17a8gQQ5NjPSMKllB5CxJ-Ri2q6Dx1eSgfzA2Sa8eZ4jb2L5nxU5wG5CKQFabHbOi7QhDeVpK90Zrw9WVF8WfNGYca7ixghjQ5aIwtGP0qAnXVmH4fqe_HMCxJr6GmZg24Z6dpSydtObnPLHJPaS7JFCzV2MRpXOtPCxI25k-8lFupRLAf9mp8F47IIirILbAkLUF1n3vp-iAYr-eScetQufBDJKLpuIXyWIY-YbTEeSQy3kdDe9FQSks5sK7H1EgLyuP9I9k7E-gPmla5iwBhi8Revuj-W9grVWsTYUUb9L_huM0a_Ivt20aPUa9yl8pEy4L28Oxml9qNKvFprHKhYahJNGwpMHkVgsDKVGrVTHomPcYhQL7w9PtKim9aYE4pl6Bg3fiz6bGJ0ZmL6VfgdP8_oEX-UplvRTGLOOjHrKNsuhAA9hHQw_6jeF9nNdkCPo06osYEEo1yC1XLffzQeEpyYBAnGcX8JLfEH_hhKmWGWgQt0cLsoZo7S9tW3MZASXN7-jrRNnkGY7ctlveqdBn9O_tbRcjJG8H_-VdtZxzsDUFO8P0jSWPUqzkViu7AglCZohRHuE100bISsrA7omfJbxrTfRGeOnbDKoYr3IpMxQIWMKgLVisSkQ6QZYK4Qp3WbiBjKXl5NX3rgXpIvEZ-LehYbkMWniCTYMkyhSSUxTPKFyJTXfjxUoeX3kX9CWr_SYrFumoz-u474u9ck57wlMBZ3iFoIMGnxPF8oR-rz3MSccUPH6JZoAroRNh7RvNStIxrLWsQWQb5mxtUN72iH6AP7iTRfkNkJ--R5MnD1gwVZ2bV6NJ_AmuS94O5gbj6wJJOek_8yzk9LhWpECveN8HcGbkGtf7IBreOCAueO1xZphJwf_jblqGen0ksohlbbbPIOW1_ux7GMpwsdbDNs0QL1_6qCfVa1fSJy1vegEuVAP71ERG6J3T0PVfmJMNy3XUQxK_tzLdumZjcm1kr6_8lEttX5aFAb3azBNbPTUl6RvMQlbV_JIR-AUj9tK0FpgrQ4HmW0_hkiatSo1vz696tg1bzkBnyEmelkAaPZDXzuKFH5zrMmZR01SBLcQVDG9hQsQA85ad_LM6CFzR6he7z0p596bV6TZAPrN-TeJqG4ZT2ZD8f_8cGk6rhr5tO4lQ054unJq_lBlEfsw99qb7_ydBMpAgfMK6gSMiKBlSfsIxMFoxN_mC0?></g></svg>