<svg xmlns="http://www.w3.org/2000/svg" xmlns:xlink="http://www.w3.org/1999/xlink" xmlns:lucid="lucid" width="1562" height="1142"><g transform="translate(-19 141)" lucid:page-tab-id="0_0"><path d="M0-500h2000v2000H0z" fill="#fff"/><path d="M420-134a6 6 0 0 1 6-6h708a6 6 0 0 1 6 6V994a6 6 0 0 1-6 6H426a6 6 0 0 1-6-6z" stroke="#000" stroke-width="2" fill-opacity="0"/><use xlink:href="#a" transform="matrix(1,0,0,1,428,-132) translate(313.02430555555554 21.52777777777778)"/><path d="M1407.75 292.77v-.52A52.25 52.25 0 0 1 1460 240a52.25 52.25 0 0 1 52.25 52.25A52.25 52.25 0 0 1 1460 344.5a52.25 52.25 0 0 1-52.25-52.25v-.52" stroke="#000" stroke-width="2" fill="#fff"/><path d="M1340 246a6 6 0 0 1 6-6h228a6 6 0 0 1 6 6v406a6 6 0 0 1-6 6h-228a6 6 0 0 1-6-6z" fill="none"/><path d="M1460 344.5v146.3L1580 658m-120-167.2L1340 658m0-261.25h240" stroke="#000" stroke-width="2" fill="none"/><use xlink:href="#b" transform="matrix(1,0,0,1,1260,658) translate(163.623046875 21.52777777777778)"/><use xlink:href="#c" transform="matrix(1,0,0,1,1260,658) translate(190.185546875 21.52777777777778)"/><path d="M90.25 300.25v-.5A49.75 49.75 0 0 1 140 250a49.75 49.75 0 0 1 49.75 49.75A49.75 49.75 0 0 1 140 349.5a49.75 49.75 0 0 1-49.75-49.75v-.5" stroke="#000" stroke-width="2" fill="#fff"/><path d="M20 256a6 6 0 0 1 6-6h228a6 6 0 0 1 6 6v386a6 6 0 0 1-6 6H26a6 6 0 0 1-6-6z" fill="none"/><path d="M140 349.5v139.3L260 648M140 488.8L20 648m0-248.75h240" stroke="#000" stroke-width="2" fill="none"/><use xlink:href="#d" transform="matrix(1,0,0,1,-60,648) translate(132.11805555555554 21.52777777777778)"/><use xlink:href="#e" transform="matrix(1,0,0,1,-60,648) translate(218.29427083333331 21.52777777777778)"/><path d="M630-6c0 16.57-31.34 30-70 30s-70-13.43-70-30 31.34-30 70-30 70 13.43 70 30z" stroke="#000" stroke-width="2" fill="#fff"/><use xlink:href="#f" transform="matrix(1,0,0,1,490,-36) translate(48.148183593750005 34.966875)"/><path d="M840 10c0 16.57-31.34 30-70 30s-70-13.43-70-30 31.34-30 70-30 70 13.43 70 30z" stroke="#000" stroke-width="2" fill="#fff"/><use xlink:href="#g" transform="matrix(1,0,0,1,700,-20) translate(38.6788037109375 34.966875)"/><use xlink:href="#h" transform="matrix(1,0,0,1,700,-20) translate(73.1560107421875 34.966875)"/><path d="M855 520c0 33.14-35.82 60-80 60s-80-26.86-80-60 35.82-60 80-60 80 26.86 80 60z" stroke="#000" stroke-width="2" fill="#fff"/><use xlink:href="#i" transform="matrix(1,0,0,1,695,460) translate(26.97729003906249 57.466875)"/><use xlink:href="#j" transform="matrix(1,0,0,1,695,460) translate(84.3330419921875 57.466875)"/><use xlink:href="#k" transform="matrix(1,0,0,1,695,460) translate(61.50354003906249 77.72162109375)"/><path d="M940 380c0 33.14-35.82 60-80 60s-80-26.86-80-60 35.82-60 80-60 80 26.86 80 60z" stroke="#000" stroke-width="2" fill="#fff"/><use xlink:href="#l" transform="matrix(1,0,0,1,780,320) translate(35.20424804687499 57.466875)"/><use xlink:href="#m" transform="matrix(1,0,0,1,780,320) translate(77.6509375 57.466875)"/><use xlink:href="#n" transform="matrix(1,0,0,1,780,320) translate(91.75896484375001 57.466875)"/><use xlink:href="#o" transform="matrix(1,0,0,1,780,320) translate(27.631196289062494 77.72162109375)"/><path d="M141.9 458.8L488.1-4.8M141.92 458.77l-2.7 3.63" stroke="#1071e5" stroke-width="3" fill="none"/><path d="M489.14-8.02l-.1 1L489-6l.04 1 .1 1v.03l-2.24-1.68 2.4-3.2z" stroke="#1071e5" stroke-width=".05" fill="#1071e5"/><path d="M142.06 458.94L420 180 697.72 10.78M142.1 458.9l-3.22 3.23" stroke="#1071e5" stroke-width="3" fill="none"/><path d="M699.03 9l-.03 1 .03 1 .08.66-.65.4-1.53-2.52 2.2-1.34z" stroke="#1071e5" stroke-width=".05" fill="#1071e5"/><path d="M640 182c0 23.2-35.82 42-80 42s-80-18.8-80-42 35.82-42 80-42 80 18.8 80 42z" stroke="#000" stroke-width="2" fill="#fff"/><use xlink:href="#p" transform="matrix(1,0,0,1,480,140) translate(58.65496093749999 37.216875)"/><use xlink:href="#o" transform="matrix(1,0,0,1,480,140) translate(27.631196289062498 57.47162109375)"/><path d="M640 531c0 33.14-35.82 60-80 60s-80-26.86-80-60 35.82-60 80-60 80 26.86 80 60z" stroke="#000" stroke-width="2" fill="#fff"/><use xlink:href="#q" transform="matrix(1,0,0,1,480,471) translate(15.676972656249982 64.966875)"/><use xlink:href="#r" transform="matrix(1,0,0,1,480,471) translate(53.92231445312498 64.966875)"/><use xlink:href="#k" transform="matrix(1,0,0,1,480,471) translate(107.330107421875 64.966875)"/><path d="M660 720c0 33.14-35.82 60-80 60s-80-26.86-80-60 35.82-60 80-60 80 26.86 80 60z" stroke="#000" stroke-width="2" fill="#fff"/><use xlink:href="#s" transform="matrix(1,0,0,1,500,660) translate(29.609262695312495 57.466875)"/><use xlink:href="#j" transform="matrix(1,0,0,1,500,660) translate(81.70106933593749 57.466875)"/><use xlink:href="#k" transform="matrix(1,0,0,1,500,660) translate(61.50354003906249 77.72162109375)"/><path d="M1100 110c0 27.6-40.3 50-90 50s-90-22.4-90-50 40.3-50 90-50 90 22.4 90 50z" stroke="#000" stroke-width="2" fill="#fff"/><use xlink:href="#i" transform="matrix(1,0,0,1,920,60) translate(28.33755371093749 56.841875)"/><use xlink:href="#t" transform="matrix(1,0,0,1,920,60) translate(85.6933056640625 56.841875)"/><path d="M1100 320c0 22.1-40.3 40-90 40s-90-17.9-90-40 40.3-40 90-40 90 17.9 90 40z" stroke="#000" stroke-width="2" fill="#fff"/><use xlink:href="#u" transform="matrix(1,0,0,1,920,280) translate(38.260581054687506 36.216875)"/><use xlink:href="#v" transform="matrix(1,0,0,1,920,280) translate(98.0357861328125 36.216875)"/><use xlink:href="#w" transform="matrix(1,0,0,1,920,280) translate(44.897729492187494 56.47162109375)"/><path d="M1100 550c0 27.6-40.3 50-90 50s-90-22.4-90-50 40.3-50 90-50 90 22.4 90 50z" stroke="#000" stroke-width="2" fill="#fff"/><use xlink:href="#x" transform="matrix(1,0,0,1,920,500) translate(10.6248681640625 56.841875)"/><use xlink:href="#y" transform="matrix(1,0,0,1,920,500) translate(54.0932861328125 56.841875)"/><use xlink:href="#z" transform="matrix(1,0,0,1,920,500) translate(130.7801416015625 56.841875)"/><path d="M1120 880c0 33.14-35.82 60-80 60s-80-26.86-80-60 35.82-60 80-60 80 26.86 80 60z" stroke="#000" stroke-width="2" fill="#fff"/><use xlink:href="#A" transform="matrix(1,0,0,1,960,820) translate(13.940034179687496 57.466875)"/><use xlink:href="#t" transform="matrix(1,0,0,1,960,820) translate(80.0908251953125 57.466875)"/><use xlink:href="#B" transform="matrix(1,0,0,1,960,820) translate(55.050302734374995 77.72162109375)"/><path d="M980 720c0 27.6-44.77 50-100 50s-100-22.4-100-50 44.77-50 100-50 100 22.4 100 50z" stroke="#000" stroke-width="2" fill="#fff"/><use xlink:href="#C" transform="matrix(1,0,0,1,780,670) translate(38.03920898437499 56.841875)"/><use xlink:href="#D" transform="matrix(1,0,0,1,780,670) translate(98.296669921875 56.841875)"/><use xlink:href="#z" transform="matrix(1,0,0,1,780,670) translate(123.36580078125 56.841875)"/><path d="M830 150c0 23.2-26.86 42-60 42s-60-18.8-60-42 26.86-42 60-42 60 18.8 60 42z" stroke="#000" stroke-width="2" fill="#fff"/><use xlink:href="#C" transform="matrix(1,0,0,1,710,108) translate(11.199072265624993 47.716875)"/><use xlink:href="#E" transform="matrix(1,0,0,1,710,108) translate(71.45653320312499 47.716875)"/><path d="M247.94 397.6l470.7-222.36M247.97 397.6l-4.1 1.93" stroke="#1071e5" stroke-width="3" fill="none"/><path d="M721.1 175.72l-1.86.87-1.26-2.67.92-.44z" stroke="#1071e5" stroke-width=".05" fill="#1071e5"/><path d="M142.17 459.06L479 190.33M142.2 459.04l-3.54 2.83" stroke="#1071e5" stroke-width="3" fill="none"/><path d="M479.8 188.08l.44 1.5.47 1.28-.8.64-1.84-2.3 1.68-1.34z" stroke="#1071e5" stroke-width=".05" fill="#1071e5"/><path d="M700 360c0 33.14-35.82 60-80 60s-80-26.86-80-60 35.82-60 80-60 80 26.86 80 60z" stroke="#000" stroke-width="2" fill="#fff"/><use xlink:href="#F" transform="matrix(1,0,0,1,540,300) translate(21.341435546874997 64.966875)"/><use xlink:href="#G" transform="matrix(1,0,0,1,540,300) translate(66.68983398437501 64.966875)"/><path d="M142.46 459.63l395.08-99.26M142.5 459.63l-4.4 1.1" stroke="#1071e5" stroke-width="3" fill="none"/><path d="M539 360v.4l.04 1.1-1.17.3-.72-2.86 1.9-.47z" stroke="#1071e5" stroke-width=".05" fill="#1071e5"/><path d="M142.5 460.1L480 480l309.13-68.24M142.54 460.1l-4.53-.28" stroke="#1071e5" stroke-width="3" fill="none"/><path d="M791.38 412.45l.25.27-2.22.5-.63-2.9.8-.17z" stroke="#1071e5" stroke-width=".05" fill="#1071e5"/><path d="M140.47 460.3l337.06 70.4M140.5 460.3l-4.44-.9" stroke="#1071e5" stroke-width="3" fill="none"/><path d="M479.05 529.5L479 531v.4l.05 1.12-1.86-.4.6-2.88z" stroke="#1071e5" stroke-width=".05" fill="#1071e5"/><path d="M141.42 490.94L580 640l193.56-58.57M141.46 490.96l-4.3-1.46" stroke="#1071e5" stroke-width="3" fill="none"/><path d="M778.3 581.54l-4.34 1.32-.58-1.9 1.6.04h.94l2.2-.1z" stroke="#1071e5" stroke-width=".05" fill="#1071e5"/><path d="M141.26 491.27L497.74 719.2M141.3 491.3l-3.83-2.45" stroke="#1071e5" stroke-width="3" fill="none"/><path d="M499.05 718.28l-.05 1.7v.42l.06 1.4-2.15-1.4 1.6-2.47z" stroke="#1071e5" stroke-width=".05" fill="#1071e5"/><path d="M1457.92 458.96l-356.3-342.75M1457.9 458.93l3.26 3.15" stroke="#e81313" stroke-width="3" fill="none"/><path d="M1102.67 115.17l-2.05 2.13-.44-.43.1-.36.3-1.62.22-1.5z" stroke="#e81313" stroke-width=".05" fill="#e81313"/><path d="M1457.6 459.45l-355.2-138.9M1457.57 459.44l4.22 1.65" stroke="#e81313" stroke-width="3" fill="none"/><path d="M1102.97 319.2l-1.07 2.73-.97-.37.04-.5.03-1.05v-.3l-.05-1.05-.02-.26z" stroke="#e81313" stroke-width=".05" fill="#e81313"/><path d="M1457.55 460.37l-355.1 89.26M1457.5 460.38l4.4-1.1" stroke="#e81313" stroke-width="3" fill="none"/><path d="M1102.85 551.05l-1.9.48.05-1.52v-.46l-.05-1.05 1.18-.3z" stroke="#e81313" stroke-width=".05" fill="#e81313"/><path d="M1457.9 461.02l-390.34 360.3M1457.87 461.04l3.33-3.08" stroke="#e81313" stroke-width="3" fill="none"/><path d="M1068.6 822.38l-.48.44-2.07-.6-1.32-.3 1.86-1.7z" stroke="#e81313" stroke-width=".05" fill="#e81313"/><path d="M1459.68 460.7L982.32 719.3M1459.65 460.73l4-2.16" stroke="#e81313" stroke-width="3" fill="none"/><path d="M983.05 720.56l-2.1 1.15.02-.38.03-1.3v-.58l-.06-1.1.7-.37z" stroke="#e81313" stroke-width=".05" fill="#e81313"/><path d="M770.3 193.4l2.72 3.83m2.73 3.8l.54.78m2.72 3.83l5.45 7.63m2.73 3.82l.55.76m2.72 3.82l5.46 7.64m2.73 3.82l.54.76m2.73 3.82l5.45 7.64m2.73 3.82l.56.76m2.72 3.82l5.46 7.63m2.73 3.82l.54.76m2.74 3.8l5.45 7.65m2.72 3.83l.55.76m2.72 3.8l5.45 7.65m2.73 3.82l.54.76m2.73 3.82l2.73 3.82" stroke="#3a414a" fill="none"/><path d="M770 193l.57-.02.1.16-.76.55-.5-.72z" stroke="#3a414a" stroke-width=".05" fill="#3a414a"/><path d="M859.06 317.68l-12.06-8.9 7.54-5.4z" stroke="#3a414a" fill="#3a414a"/><g><use xlink:href="#H" transform="matrix(1,0,0,1,788.7832290936647,198.96749753853572) translate(0 12.916666666666668)"/></g><path d="M619.77 298.55l-.7-1.37m-.92-1.82l-1.38-2.74m-.93-1.83l-1.38-2.75m-.93-1.83l-1.4-2.74m-.9-1.82l-1.4-2.74m-.92-1.83l-1.38-2.75m-.93-1.83l-1.4-2.74m-.92-1.82l-1.4-2.75m-.9-1.8l-1.4-2.75m-.92-1.83l-1.4-2.74m-.92-1.82l-1.38-2.75m-.93-1.8l-1.4-2.75m-.9-1.83l-1.4-2.74m-.92-1.83l-1.38-2.74m-.92-1.8l-.7-1.38" stroke="#3a414a" fill="none"/><path d="M620.54 299.02L620 299h-.53l-.13-.24.85-.43z" stroke="#3a414a" stroke-width=".05" fill="#3a414a"/><path d="M580.73 221.44l10.58 10.64-8.26 4.18z" stroke="#3a414a" fill="#3a414a"/><g><use xlink:href="#H" transform="matrix(1,0,0,1,618.3739408581008,271.1655792467709) translate(0 12.916666666666668)"/></g><path d="M918.84 550.48l-.46 1.4m-.6 1.87l-.93 2.8m-.6 1.88l-.93 2.8m-.62 1.88l-.92 2.82m-.6 1.87l-.93 2.8m-.6 1.87l-.93 2.8m-.62 1.88l-.92 2.8m-.6 1.88l-.93 2.8m-.62 1.88l-.92 2.82m-.6 1.87l-.92 2.8m-.6 1.87l-.93 2.8m-.62 1.88l-.92 2.8m-.6 1.88l-.92 2.8m-.6 1.88l-.93 2.82m-.62 1.87l-.92 2.8m-.6 1.87l-.92 2.8m-.62 1.88l-.9 2.8m-.63 1.88l-.92 2.8m-.6 1.88l-.92 2.82m-.62 1.87l-.92 2.8m-.6 1.87l-.93 2.8m-.6 1.88l-.92 2.8m-.62 1.88l-.46 1.4" stroke="#3a414a" fill="none"/><path d="M919.04 548.37L919 550v.54l-.6-.2.65-2z" stroke="#3a414a" stroke-width=".05" fill="#3a414a"/><path d="M880.5 667.46l.04-15 8.8 2.9z" stroke="#3a414a" fill="#3a414a"/><path d="M920 597a6 6 0 0 1 6-6h48a6 6 0 0 1 6 6v19a6 6 0 0 1-6 6h-48a6 6 0 0 1-6-6z" fill="none"/><g><use xlink:href="#I" transform="matrix(1,0,0,1,920,591) translate(-10.530598958333329 20.350260416666668)"/></g><defs><path d="M657 26c-323 0-524-166-541-416h195c15 169 171 246 346 246 202 0 356-106 356-265 5-203-294-238-475-293-239-73-380-191-380-389 0-252 224-419 512-419 294 0 499 171 508 396H992c-17-145-151-228-328-228-193 0-321 102-321 242 0 156 175 211 284 241l149 41c160 44 422 134 422 412 0 244-197 432-541 432" id="J"/><path d="M140 405l46-156c120 36 205 19 263-150l32-93L54-1118h197c107 313 237 620 324 950 87-331 219-637 326-950h196L606 167c-68 178-176 259-334 259-64 0-113-12-132-21" id="K"/><path d="M538 24C308 24 148-78 108-271l171-41c32 123 123 178 257 178 156 0 256-77 256-169 0-77-54-128-164-154l-186-44c-203-48-300-148-300-305 0-192 176-326 414-326 230 0 351 112 402 269l-163 42c-31-80-94-158-238-158-133 0-233 69-233 162 0 83 57 129 188 160l169 40c203 48 298 149 298 302 0 196-179 339-441 339" id="L"/><path d="M598-1118v154H368v674c0 100 37 144 132 144 23 0 62-6 92-12L629-6c-37 13-88 20-134 20-193 0-307-107-307-290v-688H20v-154h168v-266h180v266h230" id="M"/><path d="M628 24c-324 0-524-230-524-574 0-343 198-582 503-582 237 0 487 146 487 559v75H286c9 234 145 362 343 362 132 0 231-58 273-172l174 48C1024-91 857 24 628 24zM287-650h624c-17-190-120-322-304-322-192 0-309 151-320 322" id="N"/><path d="M158 0v-1118h175l1 205c55-151 181-225 313-225 147 0 245 90 285 228 53-141 190-228 352-228 194 0 352 125 352 384V0h-181v-749c0-161-105-225-225-225-151 0-243 103-243 244V0H807v-767c0-124-93-207-219-207-131 0-250 92-250 270V0H158" id="O"/><g id="a"><use transform="matrix(0.010850694444444444,0,0,0.010850694444444444,0,0)" xlink:href="#J"/><use transform="matrix(0.010850694444444444,0,0,0.010850694444444444,14.2578125,0)" xlink:href="#K"/><use transform="matrix(0.010850694444444444,0,0,0.010850694444444444,26.74696180555556,0)" xlink:href="#L"/><use transform="matrix(0.010850694444444444,0,0,0.010850694444444444,38.4765625,0)" xlink:href="#M"/><use transform="matrix(0.010850694444444444,0,0,0.010850694444444444,45.5295138888889,0)" xlink:href="#N"/><use transform="matrix(0.010850694444444444,0,0,0.010850694444444444,58.48524305555555,0)" xlink:href="#O"/></g><path d="M370-1490V0H180v-1490h190" id="P"/><path d="M98-1322v-168h1126v168H757V0H567v-1322H98" id="Q"/><g id="b"><use transform="matrix(0.010850694444444444,0,0,0.010850694444444444,0,0)" xlink:href="#P"/><use transform="matrix(0.010850694444444444,0,0,0.010850694444444444,5.967881944444445,0)" xlink:href="#Q"/></g><path d="M537 14c-226 0-379-139-379-422v-710h180v695c0 172 97 275 253 275 160 0 281-109 281-300v-670h181V0H879v-209C806-46 684 14 537 14" id="R"/><path d="M158 0v-1118h174v172h12c41-113 157-188 290-188 26 0 70 2 91 3v181c-11-2-60-10-108-10-161 0-279 109-279 260V0H158" id="S"/><g id="c"><use transform="matrix(0.010850694444444444,0,0,0.010850694444444444,0,0)" xlink:href="#R"/><use transform="matrix(0.010850694444444444,0,0,0.010850694444444444,13.140190972222221,0)" xlink:href="#L"/><use transform="matrix(0.010850694444444444,0,0,0.010850694444444444,24.869791666666664,0)" xlink:href="#N"/><use transform="matrix(0.010850694444444444,0,0,0.010850694444444444,37.82552083333333,0)" xlink:href="#S"/></g><path d="M180 0v-1490h510c348 0 508 194 508 460 0 198-88 351-276 417L1256 0h-220L726-579c-117 2-238 0-356 1V0H180zm190-747h312c235 0 327-108 327-283 0-177-92-293-329-293H370v576" id="T"/><path d="M611 442c-248 0-391-105-460-228l146-94c47 65 117 165 314 165 178 0 307-82 307-266v-224h-17C863-141 792-18 576-18c-268 0-472-195-472-546 0-346 197-568 476-568 216 0 288 133 326 193h17v-179h175V29c0 289-215 413-487 413zm-5-620c203 0 314-146 314-390 0-237-108-403-314-403-213 0-319 180-319 403 0 230 109 390 319 390" id="U"/><path d="M338-1490V0H158v-1490h180" id="V"/><path d="M471 26C259 26 90-98 90-318c0-256 228-303 435-329 202-27 287-16 287-108 0-139-79-219-234-219-161 0-248 86-283 164l-173-57c86-203 278-265 451-265 150 0 419 46 419 395V0H815v-152h-12C765-73 660 26 471 26zm31-159c199 0 310-134 310-271v-155c-30 35-226 55-295 64-131 17-246 59-246 186 0 116 97 176 231 176" id="W"/><g id="d"><use transform="matrix(0.010850694444444444,0,0,0.010850694444444444,0,0)" xlink:href="#T"/><use transform="matrix(0.010850694444444444,0,0,0.010850694444444444,13.975694444444445,0)" xlink:href="#N"/><use transform="matrix(0.010850694444444444,0,0,0.010850694444444444,26.931423611111104,0)" xlink:href="#U"/><use transform="matrix(0.010850694444444444,0,0,0.010850694444444444,40.55989583333333,0)" xlink:href="#R"/><use transform="matrix(0.010850694444444444,0,0,0.010850694444444444,53.70008680555556,0)" xlink:href="#V"/><use transform="matrix(0.010850694444444444,0,0,0.010850694444444444,59.082031249999986,0)" xlink:href="#W"/><use transform="matrix(0.010850694444444444,0,0,0.010850694444444444,71.5603298611111,0)" xlink:href="#S"/></g><path d="M763 24c-353 0-583-224-583-531v-983h190v968c0 214 149 370 393 370 243 0 391-156 391-370v-968h190v983c0 307-230 531-581 531" id="X"/><g id="e"><use transform="matrix(0.010850694444444444,0,0,0.010850694444444444,0,0)" xlink:href="#X"/><use transform="matrix(0.010850694444444444,0,0,0.010850694444444444,16.536458333333332,0)" xlink:href="#L"/><use transform="matrix(0.010850694444444444,0,0,0.010850694444444444,28.266059027777775,0)" xlink:href="#N"/><use transform="matrix(0.010850694444444444,0,0,0.010850694444444444,41.22178819444444,0)" xlink:href="#S"/></g><path d="M180 0v-1490h190v1322h690V0H180" id="Y"/><path d="M613 24c-304 0-509-231-509-576 0-350 205-580 509-580 305 0 511 230 511 580 0 345-206 576-511 576zm0-161c226 0 329-195 329-415 0-222-103-419-329-419-223 0-326 196-326 419 0 220 103 415 326 415" id="Z"/><path d="M158 0v-1118h180V0H158zm91-1301c-68 0-125-53-125-119s57-119 125-119c69 0 126 53 126 119s-57 119-126 119" id="aa"/><path d="M338-670V0H158v-1118h173l1 207c72-158 192-221 342-221 226 0 378 139 378 422V0H872v-695c0-172-96-275-252-275-161 0-282 109-282 300" id="ab"/><g id="f"><use transform="matrix(0.008173828125000001,0,0,0.008173828125000001,0,0)" xlink:href="#Y"/><use transform="matrix(0.008173828125000001,0,0,0.008173828125000001,9.465292968750001,0)" xlink:href="#Z"/><use transform="matrix(0.008173828125000001,0,0,0.008173828125000001,19.50275390625,0)" xlink:href="#U"/><use transform="matrix(0.008173828125000001,0,0,0.008173828125000001,29.76908203125,0)" xlink:href="#aa"/><use transform="matrix(0.008173828125000001,0,0,0.008173828125000001,33.82330078125,0)" xlink:href="#ab"/></g><g id="g"><use transform="matrix(0.008173828125000001,0,0,0.008173828125000001,0,0)" xlink:href="#Y"/><use transform="matrix(0.008173828125000001,0,0,0.008173828125000001,9.465292968750001,0)" xlink:href="#Z"/><use transform="matrix(0.008173828125000001,0,0,0.008173828125000001,19.50275390625,0)" xlink:href="#U"/></g><path d="M784 20c-382 0-662-292-662-764 0-473 280-766 662-766s660 293 660 766c0 472-278 764-660 764zm0-176c266 0 475-207 475-588 0-383-209-590-475-590-268 0-477 208-477 590 0 380 209 588 477 588" id="ac"/><g id="h"><use transform="matrix(0.008173828125000001,0,0,0.008173828125000001,0,0)" xlink:href="#ac"/><use transform="matrix(0.008173828125000001,0,0,0.008173828125000001,12.800214843750002,0)" xlink:href="#R"/><use transform="matrix(0.008173828125000001,0,0,0.008173828125000001,22.698720703125005,0)" xlink:href="#M"/></g><path d="M783 20c-382 0-661-292-661-764 0-473 279-766 661-766 302 0 548 182 601 489h-190c-42-204-217-313-411-313-268 0-476 208-476 590 0 381 209 588 476 588 195 0 369-110 411-313h190c-52 303-296 489-601 489" id="ad"/><g id="i"><use transform="matrix(0.008173828125000001,0,0,0.008173828125000001,0,0)" xlink:href="#ad"/><use transform="matrix(0.008173828125000001,0,0,0.008173828125000001,12.228046875000002,0)" xlink:href="#S"/><use transform="matrix(0.008173828125000001,0,0,0.008173828125000001,18.252158203125003,0)" xlink:href="#N"/><use transform="matrix(0.008173828125000001,0,0,0.008173828125000001,28.175185546875007,0)" xlink:href="#W"/><use transform="matrix(0.008173828125000001,0,0,0.008173828125000001,37.57508789062501,0)" xlink:href="#M"/><use transform="matrix(0.008173828125000001,0,0,0.008173828125000001,42.88807617187501,0)" xlink:href="#N"/></g><path d="M789 20c-398 0-667-293-667-764 0-473 273-766 655-766 315 0 558 198 612 487h-196c-61-191-204-311-415-311-262 0-471 207-471 590 0 380 208 588 482 588 249 0 420-165 425-427H828v-166h572v163c0 370-256 606-611 606" id="ae"/><path d="M158 418v-1536h174v179h20c37-59 106-193 324-193 279 0 474 222 474 576 0 356-194 580-473 580-213 0-288-135-325-197h-14v591H158zm492-555c209 0 317-186 317-421 0-232-105-413-317-413-206 0-314 166-314 413 0 249 111 421 314 421" id="af"/><g id="j"><use transform="matrix(0.008173828125000001,0,0,0.008173828125000001,0,0)" xlink:href="#ae"/><use transform="matrix(0.008173828125000001,0,0,0.008173828125000001,12.489609375000002,0)" xlink:href="#S"/><use transform="matrix(0.008173828125000001,0,0,0.008173828125000001,18.513720703125003,0)" xlink:href="#Z"/><use transform="matrix(0.008173828125000001,0,0,0.008173828125000001,28.551181640625003,0)" xlink:href="#R"/><use transform="matrix(0.008173828125000001,0,0,0.008173828125000001,38.4496875,0)" xlink:href="#af"/></g><path d="M338-670V0H158v-1490h180v566c73-149 190-208 336-208 226 0 379 139 379 422V0H872v-695c0-172-96-275-252-275-161 0-282 109-282 300" id="ag"/><g id="k"><use transform="matrix(0.008173828125000001,0,0,0.008173828125000001,0,0)" xlink:href="#ad"/><use transform="matrix(0.008173828125000001,0,0,0.008173828125000001,12.228046875000002,0)" xlink:href="#ag"/><use transform="matrix(0.008173828125000001,0,0,0.008173828125000001,22.126552734375004,0)" xlink:href="#W"/><use transform="matrix(0.008173828125000001,0,0,0.008173828125000001,31.526455078125004,0)" xlink:href="#M"/></g><g id="l"><use transform="matrix(0.008173828125000001,0,0,0.008173828125000001,0,0)" xlink:href="#J"/><use transform="matrix(0.008173828125000001,0,0,0.008173828125000001,10.740410156250002,0)" xlink:href="#M"/><use transform="matrix(0.008173828125000001,0,0,0.008173828125000001,16.298613281250002,0)" xlink:href="#W"/><use transform="matrix(0.008173828125000001,0,0,0.008173828125000001,25.698515625000006,0)" xlink:href="#S"/><use transform="matrix(0.008173828125000001,0,0,0.008173828125000001,32.26209960937501,0)" xlink:href="#M"/></g><use transform="matrix(0.008173828125000001,0,0,0.008173828125000001,0,0)" xlink:href="#W" id="m"/><path d="M409 0L70-1118h191c89 329 165 560 243 925 75-353 154-601 240-925h192c85 325 161 564 235 922 77-354 157-598 244-922h191L1267 0h-179c-86-307-176-590-250-913C763-588 675-308 588 0H409" id="ah"/><g id="n"><use transform="matrix(0.008173828125000001,0,0,0.008173828125000001,0,0)" xlink:href="#ab"/><use transform="matrix(0.008173828125000001,0,0,0.008173828125000001,9.89033203125,0)" xlink:href="#N"/><use transform="matrix(0.008173828125000001,0,0,0.008173828125000001,19.347451171875,0)" xlink:href="#ah"/></g><path d="M481 0L54-1118h197c107 314 236 620 325 951 87-331 217-637 324-951h197L670 0H481" id="ai"/><g id="o"><use transform="matrix(0.008173828125000001,0,0,0.008173828125000001,0,0)" xlink:href="#ad"/><use transform="matrix(0.008173828125000001,0,0,0.008173828125000001,12.228046875000002,0)" xlink:href="#Z"/><use transform="matrix(0.008173828125000001,0,0,0.008173828125000001,22.265507812500008,0)" xlink:href="#ab"/><use transform="matrix(0.008173828125000001,0,0,0.008173828125000001,31.910625000000007,0)" xlink:href="#ai"/><use transform="matrix(0.008173828125000001,0,0,0.008173828125000001,40.99174804687501,0)" xlink:href="#N"/><use transform="matrix(0.008173828125000001,0,0,0.008173828125000001,50.75129882812501,0)" xlink:href="#S"/><use transform="matrix(0.008173828125000001,0,0,0.008173828125000001,57.053320312500006,0)" xlink:href="#L"/><use transform="matrix(0.008173828125000001,0,0,0.008173828125000001,65.889228515625,0)" xlink:href="#W"/><use transform="matrix(0.008173828125000001,0,0,0.008173828125000001,75.289130859375,0)" xlink:href="#M"/><use transform="matrix(0.008173828125000001,0,0,0.008173828125000001,80.765595703125,0)" xlink:href="#aa"/><use transform="matrix(0.008173828125000001,0,0,0.008173828125000001,84.819814453125,0)" xlink:href="#Z"/><use transform="matrix(0.008173828125000001,0,0,0.008173828125000001,94.857275390625,0)" xlink:href="#ab"/></g><g id="p"><use transform="matrix(0.008173828125000001,0,0,0.008173828125000001,0,0)" xlink:href="#ac"/><use transform="matrix(0.008173828125000001,0,0,0.008173828125000001,12.800214843750002,0)" xlink:href="#af"/><use transform="matrix(0.008173828125000001,0,0,0.008173828125000001,23.0501953125,0)" xlink:href="#N"/><use transform="matrix(0.008173828125000001,0,0,0.008173828125000001,32.80974609375,0)" xlink:href="#ab"/></g><path d="M545 20c-263 0-445-160-445-446v-80h190v80c0 182 102 279 255 279 152 0 254-97 254-279v-1064h190v1064c0 286-181 446-444 446" id="aj"/><g id="q"><use transform="matrix(0.008173828125000001,0,0,0.008173828125000001,0,0)" xlink:href="#aj"/><use transform="matrix(0.008173828125000001,0,0,0.008173828125000001,9.555205078125,0)" xlink:href="#Z"/><use transform="matrix(0.008173828125000001,0,0,0.008173828125000001,19.592666015625,0)" xlink:href="#aa"/><use transform="matrix(0.008173828125000001,0,0,0.008173828125000001,23.646884765625,0)" xlink:href="#ab"/></g><g id="r"><use transform="matrix(0.008173828125000001,0,0,0.008173828125000001,0,0)" xlink:href="#ae"/><use transform="matrix(0.008173828125000001,0,0,0.008173828125000001,12.489609375000002,0)" xlink:href="#S"/><use transform="matrix(0.008173828125000001,0,0,0.008173828125000001,18.513720703125003,0)" xlink:href="#Z"/><use transform="matrix(0.008173828125000001,0,0,0.008173828125000001,28.551181640625003,0)" xlink:href="#R"/><use transform="matrix(0.008173828125000001,0,0,0.008173828125000001,38.4496875,0)" xlink:href="#af"/></g><g id="s"><use transform="matrix(0.008173828125000001,0,0,0.008173828125000001,0,0)" xlink:href="#Y"/><use transform="matrix(0.008173828125000001,0,0,0.008173828125000001,9.465292968750001,0)" xlink:href="#N"/><use transform="matrix(0.008173828125000001,0,0,0.008173828125000001,19.3883203125,0)" xlink:href="#W"/><use transform="matrix(0.008173828125000001,0,0,0.008173828125000001,28.5430078125,0)" xlink:href="#ai"/><use transform="matrix(0.008173828125000001,0,0,0.008173828125000001,37.624130859375,0)" xlink:href="#N"/></g><path d="M52 0l541-1490h220L1361 0h-200l-149-416H398L254 0H52zm404-582h497c-103-290-145-390-251-756-108 377-145 460-246 756" id="ak"/><path d="M613 24c-304 0-509-231-509-576 0-350 205-580 509-580 216 0 392 114 453 309l-173 49c-33-115-133-197-280-197-223 0-326 196-326 419 0 220 103 415 326 415 150 0 252-85 285-206l172 49C1010-95 832 24 613 24" id="al"/><g id="t"><use transform="matrix(0.008173828125000001,0,0,0.008173828125000001,0,0)" xlink:href="#ak"/><use transform="matrix(0.008173828125000001,0,0,0.008173828125000001,11.549619140625001,0)" xlink:href="#al"/><use transform="matrix(0.008173828125000001,0,0,0.008173828125000001,21.112998046875003,0)" xlink:href="#al"/><use transform="matrix(0.008173828125000001,0,0,0.008173828125000001,30.676376953125004,0)" xlink:href="#Z"/><use transform="matrix(0.008173828125000001,0,0,0.008173828125000001,40.71383789062501,0)" xlink:href="#R"/><use transform="matrix(0.008173828125000001,0,0,0.008173828125000001,50.61234375,0)" xlink:href="#ab"/><use transform="matrix(0.008173828125000001,0,0,0.008173828125000001,60.502675781250005,0)" xlink:href="#M"/></g><path d="M180 0v-1490h270l367 940c28 72 75 218 110 339 35-117 81-264 110-339l362-940h271V0h-187c2-448-5-837 7-1287-157 497-311 829-483 1287H842C666-458 514-784 354-1284c12 438 5 843 7 1284H180" id="am"/><path d="M577 24c-279 0-473-224-473-580 0-354 195-576 474-576 218 0 287 134 324 193h14v-551h180V0H922v-173h-20C865-111 790 24 577 24zm27-161c203 0 314-172 314-421 0-247-108-413-314-413-212 0-317 181-317 413 0 235 108 421 317 421" id="an"/><path d="M678-1118v154H420V0H240v-964H20v-154h220v-149c0-194 155-293 318-293 85 0 141 18 168 30l-50 154c-19-6-47-17-97-17-111 0-159 58-159 166v109h258" id="ao"/><g id="u"><use transform="matrix(0.008173828125000001,0,0,0.008173828125000001,0,0)" xlink:href="#am"/><use transform="matrix(0.008173828125000001,0,0,0.008173828125000001,15.121582031250002,0)" xlink:href="#Z"/><use transform="matrix(0.008173828125000001,0,0,0.008173828125000001,25.15904296875,0)" xlink:href="#an"/><use transform="matrix(0.008173828125000001,0,0,0.008173828125000001,35.409023437500004,0)" xlink:href="#aa"/><use transform="matrix(0.008173828125000001,0,0,0.008173828125000001,39.4632421875,0)" xlink:href="#ao"/><use transform="matrix(0.008173828125000001,0,0,0.008173828125000001,45.65900390625,0)" xlink:href="#K"/></g><g id="v"><use transform="matrix(0.008173828125000001,0,0,0.008173828125000001,0,0)" xlink:href="#Y"/><use transform="matrix(0.008173828125000001,0,0,0.008173828125000001,9.465292968750001,0)" xlink:href="#Z"/><use transform="matrix(0.008173828125000001,0,0,0.008173828125000001,19.50275390625,0)" xlink:href="#U"/><use transform="matrix(0.008173828125000001,0,0,0.008173828125000001,29.76908203125,0)" xlink:href="#aa"/><use transform="matrix(0.008173828125000001,0,0,0.008173828125000001,33.82330078125,0)" xlink:href="#ab"/></g><g id="w"><use transform="matrix(0.008173828125000001,0,0,0.008173828125000001,0,0)" xlink:href="#P"/><use transform="matrix(0.008173828125000001,0,0,0.008173828125000001,4.495605468750001,0)" xlink:href="#ab"/><use transform="matrix(0.008173828125000001,0,0,0.008173828125000001,14.3859375,0)" xlink:href="#ao"/><use transform="matrix(0.008173828125000001,0,0,0.008173828125000001,20.09126953125,0)" xlink:href="#Z"/><use transform="matrix(0.008173828125000001,0,0,0.008173828125000001,30.12873046875,0)" xlink:href="#S"/><use transform="matrix(0.008173828125000001,0,0,0.008173828125000001,36.692314453125,0)" xlink:href="#O"/><use transform="matrix(0.008173828125000001,0,0,0.008173828125000001,51.356162109375006,0)" xlink:href="#W"/><use transform="matrix(0.008173828125000001,0,0,0.008173828125000001,60.756064453125006,0)" xlink:href="#M"/><use transform="matrix(0.008173828125000001,0,0,0.008173828125000001,66.232529296875,0)" xlink:href="#aa"/><use transform="matrix(0.008173828125000001,0,0,0.008173828125000001,70.286748046875,0)" xlink:href="#Z"/><use transform="matrix(0.008173828125000001,0,0,0.008173828125000001,80.324208984375,0)" xlink:href="#ab"/></g><path d="M600 0L52-1490h200c166 485 304 806 458 1336 156-533 285-846 449-1336h202L819 0H600" id="ap"/><g id="x"><use transform="matrix(0.008173828125000001,0,0,0.008173828125000001,0,0)" xlink:href="#ap"/><use transform="matrix(0.008173828125000001,0,0,0.008173828125000001,11.549619140625001,0)" xlink:href="#aa"/><use transform="matrix(0.008173828125000001,0,0,0.008173828125000001,15.603837890625002,0)" xlink:href="#N"/><use transform="matrix(0.008173828125000001,0,0,0.008173828125000001,25.060957031250002,0)" xlink:href="#ah"/></g><g id="y"><use transform="matrix(0.008173828125000001,0,0,0.008173828125000001,0,0)" xlink:href="#am"/><use transform="matrix(0.008173828125000001,0,0,0.008173828125000001,15.121582031250002,0)" xlink:href="#N"/><use transform="matrix(0.008173828125000001,0,0,0.008173828125000001,24.881132812500002,0)" xlink:href="#L"/><use transform="matrix(0.008173828125000001,0,0,0.008173828125000001,33.717041015625,0)" xlink:href="#L"/><use transform="matrix(0.008173828125000001,0,0,0.008173828125000001,42.55294921875,0)" xlink:href="#W"/><use transform="matrix(0.008173828125000001,0,0,0.008173828125000001,51.9528515625,0)" xlink:href="#U"/><use transform="matrix(0.008173828125000001,0,0,0.008173828125000001,62.2191796875,0)" xlink:href="#N"/></g><g id="z"><use transform="matrix(0.008173828125000001,0,0,0.008173828125000001,0,0)" xlink:href="#Y"/><use transform="matrix(0.008173828125000001,0,0,0.008173828125000001,9.465292968750001,0)" xlink:href="#Z"/><use transform="matrix(0.008173828125000001,0,0,0.008173828125000001,19.50275390625,0)" xlink:href="#U"/><use transform="matrix(0.008173828125000001,0,0,0.008173828125000001,29.76908203125,0)" xlink:href="#L"/></g><g id="A"><use transform="matrix(0.008173828125000001,0,0,0.008173828125000001,0,0)" xlink:href="#ad"/><use transform="matrix(0.008173828125000001,0,0,0.008173828125000001,12.228046875000002,0)" xlink:href="#ag"/><use transform="matrix(0.008173828125000001,0,0,0.008173828125000001,22.126552734375004,0)" xlink:href="#W"/><use transform="matrix(0.008173828125000001,0,0,0.008173828125000001,31.526455078125004,0)" xlink:href="#ab"/><use transform="matrix(0.008173828125000001,0,0,0.008173828125000001,41.41678710937501,0)" xlink:href="#U"/><use transform="matrix(0.008173828125000001,0,0,0.008173828125000001,51.68311523437501,0)" xlink:href="#N"/></g><g id="B"><use transform="matrix(0.008173828125000001,0,0,0.008173828125000001,0,0)" xlink:href="#J"/><use transform="matrix(0.008173828125000001,0,0,0.008173828125000001,10.740410156250002,0)" xlink:href="#M"/><use transform="matrix(0.008173828125000001,0,0,0.008173828125000001,16.298613281250002,0)" xlink:href="#W"/><use transform="matrix(0.008173828125000001,0,0,0.008173828125000001,25.698515625000006,0)" xlink:href="#M"/><use transform="matrix(0.008173828125000001,0,0,0.008173828125000001,31.174980468750007,0)" xlink:href="#R"/><use transform="matrix(0.008173828125000001,0,0,0.008173828125000001,41.07348632812501,0)" xlink:href="#L"/></g><g id="C"><use transform="matrix(0.008173828125000001,0,0,0.008173828125000001,0,0)" xlink:href="#J"/><use transform="matrix(0.008173828125000001,0,0,0.008173828125000001,10.740410156250002,0)" xlink:href="#N"/><use transform="matrix(0.008173828125000001,0,0,0.008173828125000001,20.663437499999997,0)" xlink:href="#W"/><use transform="matrix(0.008173828125000001,0,0,0.008173828125000001,30.06333984375,0)" xlink:href="#S"/><use transform="matrix(0.008173828125000001,0,0,0.008173828125000001,36.087451171875,0)" xlink:href="#al"/><use transform="matrix(0.008173828125000001,0,0,0.008173828125000001,45.650830078125004,0)" xlink:href="#ag"/></g><path d="M180 0v-1490h528c311 0 458 177 458 395 0 191-114 278-244 313v14c139 9 302 137 302 371 0 225-148 397-499 397H180zm190-168h350c232 0 321-102 321-231 0-149-120-277-311-277H370v508zm0-668h328c160 0 286-101 286-255 0-129-87-231-280-231H370v486" id="aq"/><g id="D"><use transform="matrix(0.008173828125000001,0,0,0.008173828125000001,0,0)" xlink:href="#aq"/><use transform="matrix(0.008173828125000001,0,0,0.008173828125000001,10.952929687500001,0)" xlink:href="#K"/></g><g id="E"><use transform="matrix(0.008173828125000001,0,0,0.008173828125000001,0,0)" xlink:href="#X"/><use transform="matrix(0.008173828125000001,0,0,0.008173828125000001,12.456914062500001,0)" xlink:href="#L"/><use transform="matrix(0.008173828125000001,0,0,0.008173828125000001,21.292822265625002,0)" xlink:href="#N"/><use transform="matrix(0.008173828125000001,0,0,0.008173828125000001,31.052373046875005,0)" xlink:href="#S"/></g><g id="F"><use transform="matrix(0.008173828125000001,0,0,0.008173828125000001,0,0)" xlink:href="#J"/><use transform="matrix(0.008173828125000001,0,0,0.008173828125000001,10.740410156250002,0)" xlink:href="#N"/><use transform="matrix(0.008173828125000001,0,0,0.008173828125000001,20.499960937500003,0)" xlink:href="#ab"/><use transform="matrix(0.008173828125000001,0,0,0.008173828125000001,30.390292968750003,0)" xlink:href="#an"/></g><g id="G"><use transform="matrix(0.008173828125000001,0,0,0.008173828125000001,0,0)" xlink:href="#am"/><use transform="matrix(0.008173828125000001,0,0,0.008173828125000001,15.121582031250002,0)" xlink:href="#N"/><use transform="matrix(0.008173828125000001,0,0,0.008173828125000001,24.881132812500002,0)" xlink:href="#L"/><use transform="matrix(0.008173828125000001,0,0,0.008173828125000001,33.717041015625,0)" xlink:href="#L"/><use transform="matrix(0.008173828125000001,0,0,0.008173828125000001,42.55294921875,0)" xlink:href="#W"/><use transform="matrix(0.008173828125000001,0,0,0.008173828125000001,51.9528515625,0)" xlink:href="#U"/><use transform="matrix(0.008173828125000001,0,0,0.008173828125000001,62.2191796875,0)" xlink:href="#N"/></g><path fill="#333" d="M174-520v-126l944-476v196L406-588v12l712 338v194" id="ar"/><path fill="#333" d="M158 0v-1118h180V0H158zm91-1301c-68 0-125-53-125-119s57-119 125-119c69 0 126 53 126 119s-57 119-126 119" id="as"/><path fill="#333" d="M338-670V0H158v-1118h173l1 207c72-158 192-221 342-221 226 0 378 139 378 422V0H872v-695c0-172-96-275-252-275-161 0-282 109-282 300" id="at"/><path fill="#333" d="M613 24c-304 0-509-231-509-576 0-350 205-580 509-580 216 0 392 114 453 309l-173 49c-33-115-133-197-280-197-223 0-326 196-326 419 0 220 103 415 326 415 150 0 252-85 285-206l172 49C1010-95 832 24 613 24" id="au"/><path fill="#333" d="M338-1490V0H158v-1490h180" id="av"/><path fill="#333" d="M537 14c-226 0-379-139-379-422v-710h180v695c0 172 97 275 253 275 160 0 281-109 281-300v-670h181V0H879v-209C806-46 684 14 537 14" id="aw"/><path fill="#333" d="M577 24c-279 0-473-224-473-580 0-354 195-576 474-576 218 0 287 134 324 193h14v-551h180V0H922v-173h-20C865-111 790 24 577 24zm27-161c203 0 314-172 314-421 0-247-108-413-314-413-212 0-317 181-317 413 0 235 108 421 317 421" id="ax"/><path fill="#333" d="M628 24c-324 0-524-230-524-574 0-343 198-582 503-582 237 0 487 146 487 559v75H286c9 234 145 362 343 362 132 0 231-58 273-172l174 48C1024-91 857 24 628 24zM287-650h624c-17-190-120-322-304-322-192 0-309 151-320 322" id="ay"/><path fill="#333" d="M1181-520L237-44v-194l712-338v-12L237-926v-196l944 476v126" id="az"/><g id="H"><use transform="matrix(0.006510416666666667,0,0,0.006510416666666667,0,0)" xlink:href="#ar"/><use transform="matrix(0.006510416666666667,0,0,0.006510416666666667,8.821614583333334,0)" xlink:href="#ar"/><use transform="matrix(0.006510416666666667,0,0,0.006510416666666667,17.643229166666668,0)" xlink:href="#as"/><use transform="matrix(0.006510416666666667,0,0,0.006510416666666667,20.872395833333336,0)" xlink:href="#at"/><use transform="matrix(0.006510416666666667,0,0,0.006510416666666667,28.75,0)" xlink:href="#au"/><use transform="matrix(0.006510416666666667,0,0,0.006510416666666667,36.3671875,0)" xlink:href="#av"/><use transform="matrix(0.006510416666666667,0,0,0.006510416666666667,39.596354166666664,0)" xlink:href="#aw"/><use transform="matrix(0.006510416666666667,0,0,0.006510416666666667,47.48046875,0)" xlink:href="#ax"/><use transform="matrix(0.006510416666666667,0,0,0.006510416666666667,55.64453125,0)" xlink:href="#ay"/><use transform="matrix(0.006510416666666667,0,0,0.006510416666666667,63.41796875,0)" xlink:href="#az"/><use transform="matrix(0.006510416666666667,0,0,0.006510416666666667,72.23958333333333,0)" xlink:href="#az"/></g><path d="M174-520v-126l944-476v196L406-588v12l712 338v194" id="aA"/><path d="M1181-520L237-44v-194l712-338v-12L237-926v-196l944 476v126" id="aB"/><g id="I"><use transform="matrix(0.006510416666666667,0,0,0.006510416666666667,0,0)" xlink:href="#aA"/><use transform="matrix(0.006510416666666667,0,0,0.006510416666666667,8.821614583333334,0)" xlink:href="#aA"/><use transform="matrix(0.006510416666666667,0,0,0.006510416666666667,17.643229166666668,0)" xlink:href="#aa"/><use transform="matrix(0.006510416666666667,0,0,0.006510416666666667,20.872395833333336,0)" xlink:href="#ab"/><use transform="matrix(0.006510416666666667,0,0,0.006510416666666667,28.75,0)" xlink:href="#al"/><use transform="matrix(0.006510416666666667,0,0,0.006510416666666667,36.3671875,0)" xlink:href="#V"/><use transform="matrix(0.006510416666666667,0,0,0.006510416666666667,39.596354166666664,0)" xlink:href="#R"/><use transform="matrix(0.006510416666666667,0,0,0.006510416666666667,47.48046875,0)" xlink:href="#an"/><use transform="matrix(0.006510416666666667,0,0,0.006510416666666667,55.64453125,0)" xlink:href="#N"/><use transform="matrix(0.006510416666666667,0,0,0.006510416666666667,63.41796875,0)" xlink:href="#aB"/><use transform="matrix(0.006510416666666667,0,0,0.006510416666666667,72.23958333333333,0)" xlink:href="#aB"/></g></defs></g></svg>