<?plantuml 1.2026.2?><svg xmlns="http://www.w3.org/2000/svg" xmlns:xlink="http://www.w3.org/1999/xlink" contentStyleType="text/css" data-diagram-type="DESCRIPTION" height="968px" preserveAspectRatio="none" style="width:451px;height:968px;background:#FFFFFF;" version="1.1" viewBox="0 0 451 968" width="451px" zoomAndPan="magnify"><defs/><g><!--entity User--><g class="entity" data-qualified-name="User" data-source-line="3" id="ent0002"><ellipse cx="100.4551" cy="634" fill="#F1F1F1" rx="8" ry="8" style="stroke:#181818;stroke-width:0.5;"/><path d="M100.4551,642 L100.4551,669 M87.4551,650 L113.4551,650 M100.4551,669 L87.4551,684 M100.4551,669 L113.4551,684" fill="none" style="stroke:#181818;stroke-width:0.5;"/><text fill="#000000" font-family="sans-serif" font-size="14" lengthAdjust="spacing" textLength="31.9102" x="84.5" y="698.4951">User</text></g><!--entity Admin--><g class="entity" data-qualified-name="Admin" data-source-line="4" id="ent0003"><ellipse cx="100.4976" cy="138" fill="#F1F1F1" rx="8" ry="8" style="stroke:#181818;stroke-width:0.5;"/><path d="M100.4976,146 L100.4976,173 M87.4976,154 L113.4976,154 M100.4976,173 L87.4976,188 M100.4976,173 L113.4976,188" fill="none" style="stroke:#181818;stroke-width:0.5;"/><text fill="#000000" font-family="sans-serif" font-size="14" lengthAdjust="spacing" textLength="61.9951" x="69.5" y="202.4951">IT Admin</text></g><!--entity Communication System--><g class="entity" data-qualified-name="Communication System" data-source-line="6" id="ent0004"><rect fill="#F1F1F1" height="36.2969" rx="2.5" ry="2.5" style="stroke:#181818;stroke-width:0.5;" width="187.002" x="7" y="58.5"/><text fill="#000000" font-family="sans-serif" font-size="14" lengthAdjust="spacing" textLength="167.002" x="17" y="81.4951">Communication System</text></g><!--entity Login--><g class="entity" data-qualified-name="Login" data-source-line="8" id="ent0005"><ellipse cx="349.3804" cy="388.5236" fill="#F1F1F1" rx="29.8804" ry="14.5236" style="stroke:#181818;stroke-width:0.5;"/><text fill="#000000" font-family="sans-serif" font-size="14" lengthAdjust="spacing" textLength="38.0146" x="330.3731" y="393.1721">Login</text></g><!--entity Logout--><g class="entity" data-qualified-name="Logout" data-source-line="9" id="ent0007"><ellipse cx="349.5682" cy="452.5236" fill="#F1F1F1" rx="37.0682" ry="14.5236" style="stroke:#181818;stroke-width:0.5;"/><text fill="#000000" font-family="sans-serif" font-size="14" lengthAdjust="spacing" textLength="48.1797" x="325.4783" y="457.1721">Logout</text></g><!--entity Open Conversation--><g class="entity" data-qualified-name="Open Conversation" data-source-line="10" id="ent0009"><ellipse cx="349.5866" cy="520.7173" fill="#F1F1F1" rx="81.5866" ry="18.7173" style="stroke:#181818;stroke-width:0.5;"/><text fill="#000000" font-family="sans-serif" font-size="14" lengthAdjust="spacing" textLength="134.4014" x="282.3859" y="525.3658">Open Conversation</text></g><!--entity Send Message--><g class="entity" data-qualified-name="Send Message" data-source-line="11" id="ent0011"><ellipse cx="349.4129" cy="590.4826" fill="#F1F1F1" rx="67.9129" ry="15.9826" style="stroke:#181818;stroke-width:0.5;"/><text fill="#000000" font-family="sans-serif" font-size="14" lengthAdjust="spacing" textLength="101.0693" x="298.8782" y="595.131">Send Message</text></g><!--entity Start New Conversation--><g class="entity" data-qualified-name="Start New Conversation" data-source-line="12" id="ent0013"><ellipse cx="349.5481" cy="663.5096" fill="#F1F1F1" rx="95.5481" ry="21.5096" style="stroke:#181818;stroke-width:0.5;"/><text fill="#000000" font-family="sans-serif" font-size="14" lengthAdjust="spacing" textLength="166.1953" x="266.4504" y="668.1581">Start New Conversation</text></g><!--entity Search User--><g class="entity" data-qualified-name="Search User" data-source-line="13" id="ent0015"><ellipse cx="349.2897" cy="735.2579" fill="#F1F1F1" rx="61.7897" ry="14.7579" style="stroke:#181818;stroke-width:0.5;"/><text fill="#000000" font-family="sans-serif" font-size="14" lengthAdjust="spacing" textLength="84.7656" x="306.9069" y="739.9064">Search User</text></g><!--entity Create Group Chat--><g class="entity" data-qualified-name="Create Group Chat" data-source-line="14" id="ent0017"><ellipse cx="349.2958" cy="804.4592" fill="#F1F1F1" rx="80.2958" ry="18.4592" style="stroke:#181818;stroke-width:0.5;"/><text fill="#000000" font-family="sans-serif" font-size="14" lengthAdjust="spacing" textLength="131.373" x="283.6093" y="809.1076">Create Group Chat</text></g><!--entity Join Group Chat--><g class="entity" data-qualified-name="Join Group Chat" data-source-line="15" id="ent0019"><ellipse cx="349.4481" cy="874.6896" fill="#F1F1F1" rx="71.4481" ry="16.6896" style="stroke:#181818;stroke-width:0.5;"/><text fill="#000000" font-family="sans-serif" font-size="14" lengthAdjust="spacing" textLength="110.0039" x="294.4461" y="879.3381">Join Group Chat</text></g><!--entity Leave Group Chat--><g class="entity" data-qualified-name="Leave Group Chat" data-source-line="16" id="ent0021"><ellipse cx="349.7099" cy="944.542" fill="#F1F1F1" rx="78.2099" ry="18.042" style="stroke:#181818;stroke-width:0.5;"/><text fill="#000000" font-family="sans-serif" font-size="14" lengthAdjust="spacing" textLength="126.4375" x="286.4912" y="949.1904">Leave Group Chat</text></g><!--entity Create Account--><g class="entity" data-qualified-name="Create Account" data-source-line="18" id="ent0023"><ellipse cx="349.6651" cy="22.533" fill="#F1F1F1" rx="70.6651" ry="16.533" style="stroke:#181818;stroke-width:0.5;"/><text fill="#000000" font-family="sans-serif" font-size="14" lengthAdjust="spacing" textLength="108.0488" x="295.6407" y="27.1815">Create Account</text></g><!--entity Change Login Info--><g class="entity" data-qualified-name="Change Login Info" data-source-line="19" id="ent0025"><ellipse cx="349.4514" cy="92.5903" fill="#F1F1F1" rx="78.4514" ry="18.0903" style="stroke:#181818;stroke-width:0.5;"/><text fill="#000000" font-family="sans-serif" font-size="14" lengthAdjust="spacing" textLength="127.0117" x="285.9456" y="97.2387">Change Login Info</text></g><!--entity Change Account Status--><g class="entity" data-qualified-name="Change Account Status" data-source-line="20" id="ent0027"><ellipse cx="349.5122" cy="167.3024" fill="#F1F1F1" rx="94.5122" ry="21.3024" style="stroke:#181818;stroke-width:0.5;"/><text fill="#000000" font-family="sans-serif" font-size="14" lengthAdjust="spacing" textLength="163.8848" x="267.5698" y="171.9509">Change Account Status</text></g><!--entity Check Message Logs--><g class="entity" data-qualified-name="Check Message Logs" data-source-line="21" id="ent0029"><ellipse cx="349.5439" cy="243.7088" fill="#F1F1F1" rx="86.5439" ry="19.7088" style="stroke:#181818;stroke-width:0.5;"/><text fill="#000000" font-family="sans-serif" font-size="14" lengthAdjust="spacing" textLength="145.8721" x="276.6079" y="248.3572">Check Message Logs</text></g><!--entity Search Message by ID--><g class="entity" data-qualified-name="Search Message by ID" data-source-line="22" id="ent0031"><ellipse cx="349.6436" cy="318.5287" fill="#F1F1F1" rx="90.6436" ry="20.5287" style="stroke:#181818;stroke-width:0.5;"/><text fill="#000000" font-family="sans-serif" font-size="14" lengthAdjust="spacing" textLength="155.1963" x="272.0454" y="323.1772">Search Message by ID</text></g><!--link User to Login--><g class="link" data-entity-1="ent0002" data-entity-2="ent0005" data-link-type="dependency" data-source-line="8" id="lnk6"><path d="M115.78,625.32 C137.61,572 184.23,475.6 254,420.5 C273.3,405.26 294.3994,398.3193 314.5794,394.0593" fill="none" id="User-to-Login" style="stroke:#181818;stroke-width:1;"/><polygon fill="#181818" points="320.45,392.82,310.8179,390.7652,315.5578,393.8527,312.4703,398.5927,320.45,392.82" style="stroke:#181818;stroke-width:1;"/></g><!--link User to Logout--><g class="link" data-entity-1="ent0002" data-entity-2="ent0007" data-link-type="dependency" data-source-line="9" id="lnk8"><path d="M116.54,638.36 C140.81,599.88 192.16,526.43 254,484.5 C272.64,471.86 290.9045,465.2866 310.0845,460.4166" fill="none" id="User-to-Logout" style="stroke:#181818;stroke-width:1;"/><polygon fill="#181818" points="315.9,458.94,306.1924,457.2779,311.0538,460.1705,308.1612,465.0319,315.9,458.94" style="stroke:#181818;stroke-width:1;"/></g><!--link User to Open Conversation--><g class="link" data-entity-1="ent0002" data-entity-2="ent0009" data-link-type="dependency" data-source-line="10" id="lnk10"><path d="M116.74,651.08 C143.35,629.83 200.52,586.04 254,557.5 C269.39,549.29 281.3976,544.0115 297.2176,538.0315" fill="none" id="User-to-Open Conversation" style="stroke:#181818;stroke-width:1;"/><polygon fill="#181818" points="302.83,535.91,292.997,535.3507,298.153,537.6779,295.8257,542.8339,302.83,535.91" style="stroke:#181818;stroke-width:1;"/></g><!--link User to Send Message--><g class="link" data-entity-1="ent0002" data-entity-2="ent0011" data-link-type="dependency" data-source-line="11" id="lnk12"><path d="M116.58,659.04 C153.66,648.09 244.576,621.2104 300.716,604.6204" fill="none" id="User-to-Send Message" style="stroke:#181818;stroke-width:1;"/><polygon fill="#181818" points="306.47,602.92,296.7054,601.6346,301.675,604.337,298.9726,609.3066,306.47,602.92" style="stroke:#181818;stroke-width:1;"/></g><!--link User to Start New Conversation--><g class="link" data-entity-1="ent0002" data-entity-2="ent0013" data-link-type="dependency" data-source-line="12" id="lnk14"><path d="M116.58,663.5 C143.6,663.5 196.28,663.5 247.85,663.5" fill="none" id="User-to-Start New Conversation" style="stroke:#181818;stroke-width:1;"/><polygon fill="#181818" points="253.85,663.5,244.85,659.5,248.85,663.5,244.85,667.5,253.85,663.5" style="stroke:#181818;stroke-width:1;"/></g><!--link User to Search User--><g class="link" data-entity-1="ent0002" data-entity-2="ent0015" data-link-type="dependency" data-source-line="13" id="lnk16"><path d="M116.58,667.9 C154.29,678.89 247.8699,706.1604 303.5299,722.3904" fill="none" id="User-to-Search User" style="stroke:#181818;stroke-width:1;"/><polygon fill="#181818" points="309.29,724.07,301.7696,717.7105,304.4899,722.6703,299.5301,725.3907,309.29,724.07" style="stroke:#181818;stroke-width:1;"/></g><!--link User to Create Group Chat--><g class="link" data-entity-1="ent0002" data-entity-2="ent0017" data-link-type="dependency" data-source-line="14" id="lnk18"><path d="M116.74,675.84 C143.33,696.95 200.49,740.41 254,768.5 C269.23,776.5 281.0195,781.5771 296.7195,787.3571" fill="none" id="User-to-Create Group Chat" style="stroke:#181818;stroke-width:1;"/><polygon fill="#181818" points="302.35,789.43,295.2861,782.5669,297.6579,787.7026,292.5222,790.0743,302.35,789.43" style="stroke:#181818;stroke-width:1;"/></g><!--link User to Join Group Chat--><g class="link" data-entity-1="ent0002" data-entity-2="ent0019" data-link-type="dependency" data-source-line="15" id="lnk20"><path d="M116.51,687.9 C140.91,725.67 192.67,798.32 254,840.5 C267.79,849.99 278.8438,855.2251 294.3738,860.4551" fill="none" id="User-to-Join Group Chat" style="stroke:#181818;stroke-width:1;"/><polygon fill="#181818" points="300.06,862.37,292.8073,855.7068,295.3215,860.7742,290.2541,863.2884,300.06,862.37" style="stroke:#181818;stroke-width:1;"/></g><!--link User to Leave Group Chat--><g class="link" data-entity-1="ent0002" data-entity-2="ent0021" data-link-type="dependency" data-source-line="16" id="lnk22"><path d="M115.99,701.63 C138.06,754.96 184.97,851.64 254,908.5 C266.06,918.43 275.5344,923.7236 290.0944,929.1236" fill="none" id="User-to-Leave Group Chat" style="stroke:#181818;stroke-width:1;"/><polygon fill="#181818" points="295.72,931.21,288.6726,924.33,291.032,929.4713,285.8907,931.8308,295.72,931.21" style="stroke:#181818;stroke-width:1;"/></g><!--link Admin to Create Account--><g class="link" data-entity-1="ent0003" data-entity-2="ent0023" data-link-type="dependency" data-source-line="18" id="lnk24"><path d="M131.63,151.27 C150.2,140.79 174.17,126.36 194,111.5 C222.95,89.8 223.04,75.21 254,56.5 C268.92,47.48 280.9225,42.2312 296.9325,36.8512" fill="none" id="Admin-to-Create Account" style="stroke:#181818;stroke-width:1;"/><polygon fill="#181818" points="302.62,34.94,292.8147,34.0152,297.8804,36.5327,295.3629,41.5985,302.62,34.94" style="stroke:#181818;stroke-width:1;"/></g><!--link Admin to Change Login Info--><g class="link" data-entity-1="ent0003" data-entity-2="ent0025" data-link-type="dependency" data-source-line="19" id="lnk26"><path d="M131.79,158.3 C174.17,145.43 245.8287,123.6728 295.7387,108.5228" fill="none" id="Admin-to-Change Login Info" style="stroke:#181818;stroke-width:1;"/><polygon fill="#181818" points="301.48,106.78,291.7062,105.5666,296.6956,108.2323,294.0299,113.2217,301.48,106.78" style="stroke:#181818;stroke-width:1;"/></g><!--link Admin to Change Account Status--><g class="link" data-entity-1="ent0003" data-entity-2="ent0027" data-link-type="dependency" data-source-line="20" id="lnk28"><path d="M131.79,167.5 C162.38,167.5 205.22,167.5 248.8,167.5" fill="none" id="Admin-to-Change Account Status" style="stroke:#181818;stroke-width:1;"/><polygon fill="#181818" points="254.8,167.5,245.8,163.5,249.8,167.5,245.8,171.5,254.8,167.5" style="stroke:#181818;stroke-width:1;"/></g><!--link Admin to Check Message Logs--><g class="link" data-entity-1="ent0003" data-entity-2="ent0029" data-link-type="dependency" data-source-line="21" id="lnk30"><path d="M131.79,176.82 C173.01,189.5 241.6253,210.6157 291.5853,225.9857" fill="none" id="Admin-to-Check Message Logs" style="stroke:#181818;stroke-width:1;"/><polygon fill="#181818" points="297.32,227.75,289.8941,221.2804,292.541,226.2798,287.5417,228.9268,297.32,227.75" style="stroke:#181818;stroke-width:1;"/></g><!--link Admin to Search Message by ID--><g class="link" data-entity-1="ent0003" data-entity-2="ent0031" data-link-type="dependency" data-source-line="22" id="lnk32"><path d="M131.74,193.56 C161.42,218.23 208.71,255.16 254,280.5 C268.04,288.36 278.4601,293.2244 293.2601,299.0744" fill="none" id="Admin-to-Search Message by ID" style="stroke:#181818;stroke-width:1;"/><polygon fill="#181818" points="298.84,301.28,291.9405,294.2517,294.1901,299.442,288.9997,301.6916,298.84,301.28" style="stroke:#181818;stroke-width:1;"/></g><?plantuml-src VP31JiD034Jl-nMZdDf3Vm6f2X8AAkLG-02pSPCLZLtjEgtwzoGXbR88k5dpF2DxJdmqc2A6fZNK8RAteE8SUTE8zyHn7elg3Tkw2rA0qlVatBXEqfmOHQbTrqlmDFfnk2NZhe1pOmGscmUiTje4MUU2zhPKNiyiA5Kk7DCKj8G7bXeld18rdEb6qR3dwpzEYhwTlbdAPMGonbFK_eoofUoKPmto1zenNNARc_h8KhVUQoy3Mw9sA8in5O5AZleRdOqOth8-_TXW_tclO8p9yVpcdN_SK3sktHS0?></g></svg>